# Blender 4.2.0
# www.blender.org
mtllib ArchSkull01.mtl
o ArchSkull01
v 0.862500 -0.375000 0.262500
v 0.862500 0.307500 0.262500
v 0.862500 -0.375000 -0.262500
v 0.862500 0.307500 -0.262500
v 1.387500 -0.375000 0.262500
v 1.387500 0.307500 0.262500
v 1.387500 -0.375000 -0.262500
v 1.387500 0.307500 -0.262500
v 0.888750 0.352500 0.236250
v 0.888750 0.352500 -0.236250
v 1.361250 0.352500 0.236250
v 1.361250 0.352500 -0.236250
v 1.006200 2.456250 0.226800
v 1.351800 2.456250 -0.118800
v 0.888750 2.400000 0.099000
v 1.351800 2.456250 0.118800
v 0.898200 2.456250 0.118800
v 1.006200 2.456250 -0.226800
v 0.898200 2.456250 -0.118800
v 1.243800 2.456250 0.226800
v 1.243800 2.456250 -0.226800
v 1.006200 2.456250 0.283500
v 1.243800 2.456250 0.283500
v 1.408500 2.456250 0.118800
v 1.408500 2.456250 -0.118800
v 0.841500 2.456250 0.118800
v 0.841500 2.456250 -0.118800
v 1.006200 2.456250 -0.283500
v 1.243800 2.456250 -0.283500
v 1.026000 2.512500 -0.236250
v 1.361250 2.512500 -0.099000
v 1.361250 2.512500 0.099000
v 1.026000 2.512500 0.236250
v 1.026000 2.400000 0.236250
v 0.936000 2.512500 -0.099000
v 0.936000 2.512500 0.099000
v 1.026000 2.512500 0.189000
v 1.314000 2.512500 -0.099000
v 1.224000 2.512500 -0.189000
v 1.224000 2.512500 0.189000
v 1.314000 2.512500 0.099000
v 1.224000 2.512500 -0.236250
v 0.888750 2.512500 -0.099000
v 0.888750 2.512500 0.099000
v 1.224000 2.512500 0.236250
v 1.026000 2.512500 -0.189000
v 1.117497 3.120187 0.165375
v 0.976162 2.456250 0.148838
v 1.117497 3.120187 -0.165375
v 0.976162 2.456250 -0.148838
v 0.831060 2.954813 -0.165375
v 1.273837 2.456250 0.148838
v 0.831060 2.954813 0.165375
v 1.273837 2.456250 -0.148838
v 0.645188 3.592497 0.165375
v 0.479812 3.306059 0.165375
v 0.645188 3.592497 -0.165375
v 0.479812 3.306059 -0.165375
v 1.361250 2.400000 -0.099000
v 1.224000 2.400000 0.189000
v 1.361250 2.400000 0.099000
v 1.026000 2.400000 -0.236250
v 1.314000 0.352500 0.099000
v 0.936000 2.400000 -0.099000
v 1.026000 0.352500 0.189000
v 1.224000 0.352500 0.189000
v 1.314000 0.352500 -0.099000
v 0.936000 0.352500 0.099000
v 0.936000 0.352500 -0.099000
v 1.026000 0.352500 -0.189000
v 1.224000 0.352500 -0.189000
v 1.314000 2.400000 -0.099000
v 1.314000 2.400000 0.099000
v 0.150268 3.394361 0.165375
v 0.150268 3.394361 -0.165375
v 0.202061 3.711232 -0.165375
v 0.202061 3.711232 0.165375
v 0.936000 2.400000 0.099000
v 1.026000 2.400000 0.189000
v 1.224000 2.400000 -0.189000
v 1.224000 2.400000 -0.236250
v 0.888750 2.400000 -0.099000
v 1.224000 2.400000 0.236250
v 1.026000 2.400000 -0.189000
v -0.862500 -0.375000 0.262500
v -0.862500 0.307500 0.262500
v -0.862500 -0.375000 -0.262500
v -0.862500 0.307500 -0.262500
v -1.387500 -0.375000 0.262500
v -1.387500 0.307500 0.262500
v -1.387500 -0.375000 -0.262500
v -1.387500 0.307500 -0.262500
v -0.888750 0.352500 0.236250
v -0.888750 0.352500 -0.236250
v -1.361250 0.352500 0.236250
v -1.361250 0.352500 -0.236250
v -1.006200 2.456250 0.226800
v -1.351800 2.456250 -0.118800
v -0.888750 2.400000 0.099000
v -1.351800 2.456250 0.118800
v -0.898200 2.456250 0.118800
v -1.006200 2.456250 -0.226800
v -0.898200 2.456250 -0.118800
v -1.243800 2.456250 0.226800
v -1.243800 2.456250 -0.226800
v -1.006200 2.456250 0.283500
v -1.243800 2.456250 0.283500
v -1.408500 2.456250 0.118800
v -1.408500 2.456250 -0.118800
v -0.841500 2.456250 0.118800
v -0.841500 2.456250 -0.118800
v -1.006200 2.456250 -0.283500
v -1.243800 2.456250 -0.283500
v -1.026000 2.512500 -0.236250
v -1.361250 2.512500 -0.099000
v -1.361250 2.512500 0.099000
v -1.026000 2.512500 0.236250
v -1.026000 2.400000 0.236250
v -0.936000 2.512500 -0.099000
v -0.936000 2.512500 0.099000
v -1.026000 2.512500 0.189000
v -1.314000 2.512500 -0.099000
v -1.224000 2.512500 -0.189000
v -1.224000 2.512500 0.189000
v -1.314000 2.512500 0.099000
v -1.224000 2.512500 -0.236250
v -0.888750 2.512500 -0.099000
v -0.888750 2.512500 0.099000
v -1.224000 2.512500 0.236250
v -1.026000 2.512500 -0.189000
v -1.117497 3.120187 0.165375
v -0.976162 2.456250 0.148838
v -1.117497 3.120187 -0.165375
v -0.976162 2.456250 -0.148838
v -0.831060 2.954813 -0.165375
v -1.273837 2.456250 0.148838
v -0.831060 2.954813 0.165375
v -1.273837 2.456250 -0.148838
v -0.645188 3.592497 0.165375
v -0.479812 3.306059 0.165375
v -0.645188 3.592497 -0.165375
v -0.479812 3.306059 -0.165375
v -1.361250 2.400000 -0.099000
v -1.224000 2.400000 0.189000
v -1.361250 2.400000 0.099000
v -1.026000 2.400000 -0.236250
v -1.314000 0.352500 0.099000
v -0.936000 2.400000 -0.099000
v -1.026000 0.352500 0.189000
v -1.224000 0.352500 0.189000
v -1.314000 0.352500 -0.099000
v -0.936000 0.352500 0.099000
v -0.936000 0.352500 -0.099000
v -1.026000 0.352500 -0.189000
v -1.224000 0.352500 -0.189000
v -1.314000 2.400000 -0.099000
v -1.314000 2.400000 0.099000
v -0.150268 3.394361 0.165375
v -0.150268 3.394361 -0.165375
v -0.202061 3.711232 -0.165375
v -0.202061 3.711232 0.165375
v -0.936000 2.400000 0.099000
v -1.026000 2.400000 0.189000
v -1.224000 2.400000 -0.189000
v -1.224000 2.400000 -0.236250
v -0.888750 2.400000 -0.099000
v -1.224000 2.400000 0.236250
v -1.026000 2.400000 -0.189000
v -0.166807 3.347879 0.177928
v -0.222410 3.748217 0.222410
v -0.166807 3.347879 -0.177928
v -0.222410 3.748217 -0.222410
v 0.166807 3.347879 0.177928
v 0.222410 3.748217 0.222410
v 0.166807 3.347879 -0.177928
v 0.222410 3.748217 -0.222410
v 0.000000 3.699480 0.216258
v -0.103543 3.660471 0.211899
v -0.146431 3.557569 0.200400
v -0.103543 3.454667 0.188900
v 0.051771 3.372633 0.179733
v 0.103543 3.454667 0.188900
v 0.146431 3.557569 0.200400
v 0.103543 3.660471 0.211899
v 0.051771 3.433355 0.186519
v -0.051771 3.433355 0.186519
v -0.051771 3.372633 0.179733
v -0.077282 3.628917 0.260719
v 0.000000 3.658032 0.251194
v -0.109293 3.552113 0.239357
v -0.077282 3.475309 0.230775
v -0.038641 3.459402 0.241775
v -0.038641 3.414081 0.223932
v 0.109293 3.552113 0.239357
v 0.077282 3.475309 0.230775
v 0.077282 3.628917 0.260719
v 0.038641 3.459402 0.241775
v 0.038641 3.414081 0.223932
v 0.000000 3.699480 -0.216259
v -0.103543 3.660471 -0.211899
v -0.146431 3.557569 -0.200400
v -0.103543 3.454667 -0.188900
v 0.051771 3.372633 -0.179733
v 0.103543 3.454667 -0.188900
v 0.146431 3.557569 -0.200400
v 0.103543 3.660471 -0.211899
v 0.051771 3.433355 -0.186519
v -0.051771 3.433355 -0.186519
v -0.051771 3.372633 -0.179733
v -0.077282 3.628917 -0.260719
v 0.000000 3.658032 -0.251194
v -0.109293 3.552113 -0.239358
v -0.077282 3.475309 -0.230775
v -0.038641 3.459402 -0.241775
v -0.038641 3.414081 -0.223932
v 0.109293 3.552113 -0.239358
v 0.077282 3.475309 -0.230775
v 0.077282 3.628917 -0.260719
v 0.038641 3.459402 -0.241775
v 0.038641 3.414081 -0.223932
vn -1.0000 -0.0000 -0.0000
vn -0.0000 -0.0000 -1.0000
vn 1.0000 -0.0000 -0.0000
vn -0.0000 -0.0000 1.0000
vn -0.0000 0.5039 -0.8638
vn -0.0000 1.0000 -0.0000
vn 0.8638 0.5039 -0.0000
vn -0.8638 0.5039 -0.0000
vn -0.0000 0.5039 0.8638
vn 0.5727 -0.5865 -0.5727
vn -0.9433 -0.3320 -0.0000
vn -0.5727 -0.5865 0.5727
vn -0.0000 -0.3320 -0.9433
vn -0.7657 -0.6432 -0.0000
vn 0.9433 -0.3320 -0.0000
vn -0.5727 -0.5865 -0.5727
vn -0.0000 -0.3320 0.9433
vn -0.0000 -0.6432 0.7657
vn 0.5727 -0.5865 0.5727
vn -0.0000 -0.6432 -0.7657
vn 0.7657 -0.6432 -0.0000
vn -0.5727 0.5865 -0.5727
vn 0.9433 0.3320 -0.0000
vn 0.5727 0.5865 0.5727
vn -0.0000 0.3320 -0.9433
vn 0.7657 0.6432 -0.0000
vn -0.9433 0.3320 -0.0000
vn 0.5727 0.5865 -0.5727
vn -0.0000 0.3320 0.9433
vn -0.0000 0.6432 0.7657
vn -0.5727 0.5865 0.5727
vn -0.0000 0.6432 -0.7657
vn -0.7657 0.6432 -0.0000
vn 0.0127 -0.0219 -0.9997
vn -0.0000 -0.0332 0.9995
vn -0.9602 -0.2794 -0.0000
vn 0.9734 0.2292 -0.0000
vn 0.7071 0.7071 -0.0000
vn -0.7071 -0.7071 -0.0000
vn -0.0000 -1.0000 -0.0000
vn -0.7071 -0.0000 0.7071
vn -0.7071 -0.0000 -0.7071
vn 0.7071 -0.0000 0.7071
vn 0.7071 -0.0000 -0.7071
vn 0.2588 0.9659 -0.0000
vn -0.2588 -0.9659 -0.0000
vn -0.0000 -0.0332 -0.9995
vn 0.9602 -0.2794 -0.0000
vn -0.9734 0.2292 -0.0000
vn -0.7071 0.7071 -0.0000
vn 0.7071 -0.7071 -0.0000
vn -0.2588 0.9659 -0.0000
vn 0.2588 -0.9659 -0.0000
vn -0.9905 -0.1376 -0.0000
vn -0.0000 -0.1104 -0.9939
vn 0.9905 -0.1376 -0.0000
vn -0.0000 -0.1104 0.9939
vn -0.0000 -0.3663 0.9305
vn -0.2465 0.1630 -0.9553
vn 0.3590 0.2501 -0.8992
vn -0.0000 -0.1111 0.9938
vn -0.0000 0.3109 0.9504
vn -0.8112 -0.1837 -0.5551
vn 0.4470 0.7635 -0.4661
vn -0.2652 0.6214 0.7372
vn 0.2130 0.7644 0.6086
vn -0.9542 -0.1096 0.2784
vn 0.9485 -0.0352 0.3148
vn 0.6925 -0.2115 -0.6897
vn -0.2920 0.7725 -0.5639
vn -0.6998 0.3606 -0.6166
vn 0.6998 0.3606 -0.6166
vn -0.0000 -0.7294 0.6840
vn -0.0000 0.3663 0.9305
vn 0.2465 -0.1630 -0.9553
vn -0.3590 -0.2501 -0.8992
vn -0.0000 0.1111 0.9938
vn -0.0000 -0.3109 0.9504
vn 0.8112 0.1837 -0.5551
vn -0.4470 -0.7635 -0.4661
vn 0.2652 -0.6214 0.7372
vn -0.2130 -0.7644 0.6086
vn 0.9542 0.1096 0.2784
vn -0.9485 0.0352 0.3148
vn -0.6925 0.2115 -0.6897
vn 0.2920 -0.7725 -0.5639
vn 0.6998 -0.3606 -0.6166
vn -0.6998 -0.3606 -0.6166
vn -0.0000 0.7294 0.6840
vn 0.0127 -0.0219 0.9997
vn -0.0127 -0.0219 -0.9997
vn -0.0127 -0.0219 0.9997
vn -0.3590 0.2501 -0.8992
vn 0.2465 0.1630 -0.9553
vn -0.6925 -0.2115 -0.6897
vn 0.2920 0.7725 -0.5639
vn -0.2130 0.7644 0.6086
vn 0.2652 0.6214 0.7372
vn -0.9485 -0.0352 0.3148
vn 0.9542 -0.1096 0.2784
vn 0.8112 -0.1837 -0.5551
vn -0.4470 0.7635 -0.4661
vn 0.3590 -0.2501 -0.8992
vn -0.2465 -0.1630 -0.9553
vn 0.6925 0.2115 -0.6897
vn -0.2920 -0.7725 -0.5639
vn 0.2130 -0.7644 0.6086
vn -0.2652 -0.6214 0.7372
vn 0.9485 0.0352 0.3148
vn -0.9542 0.1096 0.2784
vn -0.8112 0.1837 -0.5551
vn 0.4470 -0.7635 -0.4661
vt 1.000000 0.101562
vt 0.812500 -0.085938
vt 1.000000 -0.085938
vt 0.812500 0.101562
vt 0.812500 0.093750
vt 0.989583 0.109375
vt 1.000000 0.093750
vt 0.979167 0.226562
vt 0.812500 0.226562
vt 0.822917 0.109375
vt 0.083333 0.640625
vt 0.145833 0.664062
vt 0.135417 0.640625
vt 0.791667 0.664062
vt 0.989583 0.679688
vt 0.802083 0.679688
vt 0.072917 0.664062
vt 1.000000 0.664062
vt 0.802083 0.640625
vt 0.989583 0.640625
vt 0.041667 0.664062
vt 0.114583 0.640625
vt 0.052083 0.640625
vt 0.135417 0.679688
vt 0.083333 0.679688
vt 0.114583 0.679688
vt 0.052083 0.679688
vt 0.125000 0.664062
vt 0.031250 0.671875
vt 0.208333 0.789062
vt 0.104167 0.843750
vt 0.156250 0.671875
vt 0.041667 0.132812
vt 0.156250 0.273438
vt 0.156250 0.132812
vt 0.281250 0.953125
vt 0.156250 0.617188
vt 0.041667 0.437500
vt 0.156250 0.437500
vt 0.156250 0.257812
vt 0.041667 0.273438
vt 0.156250 0.406250
vt 0.322917 0.875000
vt 0.177083 0.140625
vt 0.052083 0.187500
vt 0.052083 0.140625
vt 0.145833 0.210938
vt 0.083333 0.210938
vt 0.031250 0.140625
vt 0.083333 0.226562
vt 0.145833 0.226562
vt 0.145833 0.117188
vt 0.145833 0.101562
vt 0.083333 0.117188
vt 0.083333 0.101562
vt 0.197917 0.187500
vt 0.197917 0.140625
vt 0.625000 0.690476
vt 0.625000 0.690476
vt 0.625000 0.559524
vt 0.093750 0.648438
vt 0.156250 0.093750
vt 0.093750 0.093750
vt 0.895833 0.648438
vt 0.833333 0.093750
vt 0.895833 0.093750
vt 0.968750 0.093750
vt 0.906250 0.648438
vt 0.968750 0.648438
vt 0.156250 0.648438
vt 0.031250 0.093750
vt 0.031250 0.648438
vt 0.958333 0.093750
vt 0.833333 0.648438
vt 0.684524 0.750000
vt 0.815476 0.750000
vt 0.333333 0.867188
vt 0.406250 0.992188
vt 0.437500 0.890625
vt 0.041667 0.257812
vt 0.041667 0.406250
vt 0.156250 0.500000
vt 0.041667 0.617188
vt 0.583333 1.000000
vt 0.437500 0.875000
vt 0.562500 0.875000
vt 0.416667 1.000000
vt 0.843750 0.117188
vt 0.958333 0.203125
vt 0.843750 0.203125
vt 0.812500 0.218750
vt 0.968750 0.101562
vt 0.968750 0.218750
vt 0.510417 0.914062
vt 0.489583 0.906250
vt 0.489583 0.914062
vt 0.458333 0.945312
vt 0.468750 0.968750
vt 0.541667 0.945312
vt 0.531250 0.921875
vt 0.531250 0.968750
vt 0.500000 0.976562
vt 0.458333 0.984375
vt 0.447917 0.960938
vt 0.479167 0.968750
vt 0.572917 0.921875
vt 0.562500 0.945312
vt 0.552083 0.937500
vt 0.541667 0.984375
vt 0.500000 0.984375
vt 0.500000 0.992188
vt 0.552083 0.921875
vt 0.427083 0.921875
vt 0.447917 0.921875
vt 0.427083 0.914062
vt 0.552083 0.960938
vt 0.562500 0.960938
vt 0.437500 0.945312
vt 0.427083 0.945312
vt 0.437500 0.960938
vt 0.572917 0.945312
vt 0.479167 0.890625
vt 0.510417 0.906250
vt 0.520833 0.890625
vt 0.979167 0.101562
vt 0.177083 0.187500
vt 0.031250 0.187500
vt 0.906250 0.093750
vt 0.958333 0.648438
vt 0.041667 0.500000
vt 0.958333 0.117188
vt 0.468750 0.921875
vt 0.520833 0.968750
vt 0.572917 0.914062
vt 0.447917 0.937500
s 0
usemtl Primary
f 2/1/1 3/2/1 1/3/1
f 4/4/2 7/3/2 3/2/2
f 8/1/3 5/2/3 7/3/3
f 6/4/4 1/3/4 5/2/4
f 4/5/5 12/6/5 8/7/5
f 10/4/6 11/8/6 12/9/6
f 8/7/7 11/10/7 6/5/7
f 2/7/8 10/10/8 4/5/8
f 6/5/9 9/6/9 2/7/9
f 80/11/10 14/12/10 72/13/10
f 22/14/11 62/15/11 34/16/11
f 79/13/12 17/17/12 78/11/12
f 27/18/13 59/19/13 82/20/13
f 26/21/14 82/22/14 15/23/14
f 29/14/15 83/20/15 81/19/15
f 19/17/16 84/24/16 64/25/16
f 24/14/17 15/20/17 61/19/17
f 23/21/18 34/26/18 83/27/18
f 16/17/19 60/13/19 73/11/19
f 28/28/20 81/27/20 62/26/20
f 25/28/21 61/23/21 59/22/21
f 46/13/22 19/17/22 35/11/22
f 23/18/23 42/16/23 45/15/23
f 40/24/24 16/17/24 41/25/24
f 25/14/25 43/15/25 31/16/25
f 24/21/26 31/26/26 32/27/26
f 28/18/27 33/19/27 30/20/27
f 14/12/28 39/25/28 38/24/28
f 26/18/29 32/16/29 44/15/29
f 22/28/30 45/23/30 33/22/30
f 17/17/31 37/24/31 36/25/31
f 29/21/32 30/22/32 42/23/32
f 27/28/33 44/27/33 43/26/33
f 54/29/34 51/30/34 49/31/34
f 52/29/35 53/30/35 48/32/35
f 48/33/36 51/34/36 50/35/36
f 51/30/2 57/36/2 49/31/2
f 52/37/37 49/38/37 47/39/37
f 49/38/38 55/40/38 47/39/38
f 53/41/39 58/42/39 51/34/39
f 53/30/4 55/36/4 56/43/4
f 41/44/6 35/45/6 36/46/6
f 35/45/6 39/47/6 46/48/6
f 35/45/6 44/49/6 36/46/6
f 30/50/6 39/47/6 42/51/6
f 36/46/6 40/52/6 41/44/6
f 45/53/6 37/54/6 33/55/6
f 31/56/6 41/44/6 32/57/6
f 73/44/40 59/56/40 61/57/40
f 79/54/40 83/53/40 34/55/40
f 80/47/40 62/50/40 81/51/40
f 15/49/40 64/45/40 78/46/40
f 78/58/4 63/59/4 73/58/4
f 69/60/2 72/60/2 67/60/2
f 79/61/41 68/62/41 65/63/41
f 70/61/42 64/62/42 84/63/42
f 73/64/43 66/65/43 63/66/43
f 67/67/44 80/68/44 72/69/44
f 78/70/1 69/71/1 68/62/1
f 66/62/4 79/72/4 65/71/4
f 67/73/3 73/74/3 63/65/3
f 84/70/2 71/71/2 70/62/2
f 71/75/3 60/75/3 66/75/3
f 84/76/1 65/76/1 79/76/1
f 56/77/4 77/78/4 74/79/4
f 58/77/2 76/78/2 57/36/2
f 57/80/45 77/35/45 55/40/45
f 56/81/46 75/82/46 58/42/46
f 87/2/3 86/1/3 85/3/3
f 91/3/2 88/4/2 87/2/2
f 89/2/1 92/1/1 91/3/1
f 85/3/4 90/4/4 89/2/4
f 96/6/5 88/5/5 92/7/5
f 95/8/6 94/4/6 96/9/6
f 95/10/8 92/7/8 90/5/8
f 94/10/7 86/7/7 88/5/7
f 93/6/9 90/5/9 86/7/9
f 164/11/16 98/12/16 105/17/16
f 146/15/15 106/14/15 118/16/15
f 163/13/19 101/17/19 97/12/19
f 143/19/13 111/18/13 166/20/13
f 99/23/21 111/28/21 110/21/21
f 167/20/11 113/14/11 165/19/11
f 168/24/10 103/17/10 148/25/10
f 99/20/17 108/14/17 145/19/17
f 118/26/18 107/21/18 167/27/18
f 144/13/12 100/17/12 157/11/12
f 165/27/20 112/28/20 146/26/20
f 143/22/14 108/21/14 109/28/14
f 130/13/28 103/17/28 102/12/28
f 126/16/27 107/18/27 129/15/27
f 124/24/31 100/17/31 104/12/31
f 127/15/25 109/14/25 115/16/25
f 115/26/33 108/21/33 116/27/33
f 117/19/23 112/18/23 114/20/23
f 123/25/22 98/12/22 122/24/22
f 116/16/29 110/18/29 128/15/29
f 129/23/30 106/28/30 117/22/30
f 121/24/24 101/17/24 120/25/24
f 114/22/32 113/21/32 126/23/32
f 128/27/26 111/28/26 127/26/26
f 138/29/47 135/30/47 134/32/47
f 137/30/35 136/29/35 132/32/35
f 135/34/48 132/33/48 134/35/48
f 141/36/2 135/30/2 133/31/2
f 131/39/49 138/83/49 136/37/49
f 139/40/50 133/38/50 131/39/50
f 142/42/51 137/41/51 135/34/51
f 137/30/4 139/36/4 131/31/4
f 119/45/6 125/44/6 120/46/6
f 123/47/6 119/45/6 130/48/6
f 128/49/6 119/45/6 120/46/6
f 123/47/6 114/50/6 126/51/6
f 120/46/6 124/52/6 121/54/6
f 121/54/6 129/53/6 117/55/6
f 125/44/6 115/56/6 116/57/6
f 143/56/40 157/44/40 145/57/40
f 167/53/40 163/54/40 118/55/40
f 146/50/40 164/47/40 165/51/40
f 148/45/40 99/49/40 162/46/40
f 147/59/4 162/58/4 157/58/4
f 156/60/2 153/60/2 151/60/2
f 152/62/43 163/61/43 149/63/43
f 148/62/44 154/61/44 168/63/44
f 150/65/41 157/64/41 147/66/41
f 164/68/42 151/67/42 156/69/42
f 153/71/3 162/70/3 152/62/3
f 163/72/4 150/62/4 149/71/4
f 157/74/1 151/73/1 147/65/1
f 155/71/2 168/70/2 154/62/2
f 144/75/1 155/75/1 150/75/1
f 149/76/3 168/76/3 163/76/3
f 140/77/4 161/78/4 139/36/4
f 160/78/2 142/77/2 141/36/2
f 161/35/52 141/80/52 139/40/52
f 159/82/53 140/81/53 142/42/53
f 170/84/54 171/85/54 169/86/54
f 172/84/55 175/85/55 171/86/55
f 176/87/56 173/86/56 175/85/56
f 174/84/57 169/85/57 173/86/57
f 175/88/40 169/89/40 171/90/40
f 172/91/6 174/92/6 176/93/6
f 192/94/58 198/95/58 197/96/58
f 194/97/59 197/96/59 196/98/59
f 190/99/60 192/94/60 191/100/60
f 197/96/61 188/101/61 192/94/61
f 188/101/62 196/98/62 189/102/62
f 184/103/63 194/104/63 196/105/63
f 186/106/64 191/107/64 192/108/64
f 178/109/65 189/110/65 177/111/65
f 184/103/66 189/110/66 196/105/66
f 186/106/67 193/112/67 192/108/67
f 185/113/68 198/114/68 181/115/68
f 178/109/69 190/116/69 179/117/69
f 185/113/70 195/118/70 182/119/70
f 182/119/71 194/104/71 183/120/71
f 180/121/72 190/116/72 191/107/72
f 181/122/73 193/123/73 187/124/73
f 214/94/74 220/95/74 219/96/74
f 216/97/75 219/96/75 218/98/75
f 212/99/76 214/94/76 213/100/76
f 219/96/77 210/101/77 214/94/77
f 210/101/78 218/98/78 211/102/78
f 206/103/79 216/104/79 218/105/79
f 208/106/80 213/107/80 214/108/80
f 200/109/81 211/110/81 199/111/81
f 206/103/82 211/110/82 218/105/82
f 208/106/83 215/112/83 214/108/83
f 207/113/84 220/114/84 203/115/84
f 200/109/85 212/116/85 201/117/85
f 207/113/86 217/118/86 204/119/86
f 204/119/87 216/104/87 205/120/87
f 202/121/88 212/116/88 213/107/88
f 209/124/89 220/95/89 215/123/89
f 2/1/1 4/4/1 3/2/1
f 4/4/2 8/1/2 7/3/2
f 8/1/3 6/4/3 5/2/3
f 6/4/4 2/1/4 1/3/4
f 4/5/5 10/10/5 12/6/5
f 10/4/6 9/125/6 11/8/6
f 8/7/7 12/6/7 11/10/7
f 2/7/8 9/6/8 10/10/8
f 6/5/9 11/10/9 9/6/9
f 80/11/10 21/17/10 14/12/10
f 22/14/11 28/18/11 62/15/11
f 79/13/12 13/12/12 17/17/12
f 27/18/13 25/14/13 59/19/13
f 26/21/14 27/28/14 82/22/14
f 29/14/15 23/18/15 83/20/15
f 19/17/16 18/12/16 84/24/16
f 24/14/17 26/18/17 15/20/17
f 23/21/18 22/28/18 34/26/18
f 16/17/19 20/12/19 60/13/19
f 28/28/20 29/21/20 81/27/20
f 25/28/21 24/21/21 61/23/21
f 46/13/22 18/12/22 19/17/22
f 23/18/23 29/14/23 42/16/23
f 40/24/24 20/12/24 16/17/24
f 25/14/25 27/18/25 43/15/25
f 24/21/26 25/28/26 31/26/26
f 28/18/27 22/14/27 33/19/27
f 14/12/28 21/17/28 39/25/28
f 26/18/29 24/14/29 32/16/29
f 22/28/30 23/21/30 45/23/30
f 17/17/31 13/12/31 37/24/31
f 29/21/32 28/28/32 30/22/32
f 27/28/33 26/21/33 44/27/33
f 54/29/47 50/32/47 51/30/47
f 52/29/90 47/31/90 53/30/90
f 48/33/36 53/41/36 51/34/36
f 51/30/2 58/43/2 57/36/2
f 52/37/37 54/83/37 49/38/37
f 49/38/38 57/80/38 55/40/38
f 53/41/39 56/81/39 58/42/39
f 53/30/4 47/31/4 55/36/4
f 41/44/6 38/126/6 35/45/6
f 35/45/6 38/126/6 39/47/6
f 35/45/6 43/127/6 44/49/6
f 30/50/6 46/48/6 39/47/6
f 36/46/6 37/54/6 40/52/6
f 45/53/6 40/52/6 37/54/6
f 31/56/6 38/126/6 41/44/6
f 73/44/40 72/126/40 59/56/40
f 79/54/40 60/52/40 83/53/40
f 80/47/40 84/48/40 62/50/40
f 15/49/40 82/127/40 64/45/40
f 78/58/4 68/59/4 63/59/4
f 69/60/2 64/60/2 72/60/2
f 79/61/41 78/70/41 68/62/41
f 70/61/42 69/70/42 64/62/42
f 73/64/43 60/74/43 66/65/43
f 67/67/44 71/128/44 80/68/44
f 78/70/1 64/72/1 69/71/1
f 66/62/4 60/70/4 79/72/4
f 67/73/3 72/129/3 73/74/3
f 84/70/2 80/72/2 71/71/2
f 71/75/3 80/75/3 60/75/3
f 84/76/1 70/76/1 65/76/1
f 56/77/4 55/36/4 77/78/4
f 58/77/2 75/79/2 76/78/2
f 57/80/45 76/33/45 77/35/45
f 56/81/46 74/130/46 75/82/46
f 87/2/3 88/4/3 86/1/3
f 91/3/2 92/1/2 88/4/2
f 89/2/1 90/4/1 92/1/1
f 85/3/4 86/1/4 90/4/4
f 96/6/5 94/10/5 88/5/5
f 95/8/6 93/125/6 94/4/6
f 95/10/8 96/6/8 92/7/8
f 94/10/7 93/6/7 86/7/7
f 93/6/9 95/10/9 90/5/9
f 164/11/16 156/13/16 98/12/16
f 146/15/15 112/18/15 106/14/15
f 163/13/19 162/11/19 101/17/19
f 143/19/13 109/14/13 111/18/13
f 99/23/21 166/22/21 111/28/21
f 167/20/11 107/18/11 113/14/11
f 168/24/10 102/12/10 103/17/10
f 99/20/17 110/18/17 108/14/17
f 118/26/18 106/28/18 107/21/18
f 144/13/12 104/12/12 100/17/12
f 165/27/20 113/21/20 112/28/20
f 143/22/14 145/23/14 108/21/14
f 130/13/28 119/11/28 103/17/28
f 126/16/27 113/14/27 107/18/27
f 124/24/31 125/25/31 100/17/31
f 127/15/25 111/18/25 109/14/25
f 115/26/33 109/28/33 108/21/33
f 117/19/23 106/14/23 112/18/23
f 123/25/22 105/17/22 98/12/22
f 116/16/29 108/14/29 110/18/29
f 129/23/30 107/21/30 106/28/30
f 121/24/24 97/12/24 101/17/24
f 114/22/32 112/28/32 113/21/32
f 128/27/26 110/21/26 111/28/26
f 138/29/91 133/31/91 135/30/91
f 137/30/92 131/31/92 136/29/92
f 135/34/48 137/41/48 132/33/48
f 141/36/2 142/43/2 135/30/2
f 131/39/49 133/38/49 138/83/49
f 139/40/50 141/80/50 133/38/50
f 142/42/51 140/81/51 137/41/51
f 137/30/4 140/43/4 139/36/4
f 119/45/6 122/126/6 125/44/6
f 123/47/6 122/126/6 119/45/6
f 128/49/6 127/127/6 119/45/6
f 123/47/6 130/48/6 114/50/6
f 120/46/6 125/44/6 124/52/6
f 121/54/6 124/52/6 129/53/6
f 125/44/6 122/126/6 115/56/6
f 143/56/40 156/126/40 157/44/40
f 167/53/40 144/52/40 163/54/40
f 146/50/40 168/48/40 164/47/40
f 148/45/40 166/127/40 99/49/40
f 147/59/4 152/59/4 162/58/4
f 156/60/2 148/60/2 153/60/2
f 152/62/43 162/70/43 163/61/43
f 148/62/44 153/70/44 154/61/44
f 150/65/41 144/74/41 157/64/41
f 164/68/42 155/128/42 151/67/42
f 153/71/3 148/72/3 162/70/3
f 163/72/4 144/70/4 150/62/4
f 157/74/1 156/129/1 151/73/1
f 155/71/2 164/72/2 168/70/2
f 144/75/1 164/75/1 155/75/1
f 149/76/3 154/76/3 168/76/3
f 140/77/4 158/79/4 161/78/4
f 160/78/2 159/79/2 142/77/2
f 161/35/52 160/33/52 141/80/52
f 159/82/53 158/130/53 140/81/53
f 170/84/54 172/87/54 171/85/54
f 172/84/55 176/87/55 175/85/55
f 176/87/56 174/84/56 173/86/56
f 174/84/57 170/87/57 169/85/57
f 175/88/40 173/131/40 169/89/40
f 172/91/6 170/4/6 174/92/6
f 192/94/58 193/123/58 198/95/58
f 194/97/93 195/132/93 197/96/93
f 190/99/94 188/101/94 192/94/94
f 197/96/61 196/98/61 188/101/61
f 184/103/95 183/120/95 194/104/95
f 186/106/96 180/121/96 191/107/96
f 178/109/97 188/133/97 189/110/97
f 184/103/98 177/111/98 189/110/98
f 186/106/99 187/134/99 193/112/99
f 185/113/100 197/135/100 198/114/100
f 178/109/101 188/133/101 190/116/101
f 185/113/102 197/135/102 195/118/102
f 182/119/71 195/118/71 194/104/71
f 180/121/72 179/117/72 190/116/72
f 181/122/73 198/95/73 193/123/73
f 214/94/74 215/123/74 220/95/74
f 216/97/103 217/132/103 219/96/103
f 212/99/104 210/101/104 214/94/104
f 219/96/77 218/98/77 210/101/77
f 206/103/105 205/120/105 216/104/105
f 208/106/106 202/121/106 213/107/106
f 200/109/107 210/133/107 211/110/107
f 206/103/108 199/111/108 211/110/108
f 208/106/109 209/134/109 215/112/109
f 207/113/110 219/135/110 220/114/110
f 200/109/111 210/133/111 212/116/111
f 207/113/112 219/135/112 217/118/112
f 204/119/87 217/118/87 216/104/87
f 202/121/88 201/117/88 212/116/88
f 209/124/89 203/122/89 220/95/89
