# Blender 4.2.0
# www.blender.org
mtllib CanalWall01d.mtl
o CanalWallPosts01
v 0.800000 0.000000 0.400000
v 3.300000 0.000000 0.000000
v 0.800000 0.000000 0.000000
v 3.300000 0.000000 0.400000
v 1.200000 0.000000 0.400000
v 2.900000 0.000000 0.000000
v 1.200000 0.000000 0.000000
v 2.900000 0.000000 0.400000
v 5.200000 0.000000 0.000000
v 5.200000 0.000000 0.400000
v 4.800000 0.000000 0.000000
v 4.800000 0.000000 0.400000
v 7.300000 0.000000 0.000000
v 7.300000 0.000000 0.400000
v 6.900000 0.000000 0.000000
v 6.900000 0.000000 0.400000
v 7.300000 4.200000 -1.050000
v 6.900000 4.200000 -0.650000
v 7.300000 4.200000 -0.650000
v 6.900000 4.200000 -1.050000
v 5.200000 2.400000 -0.600000
v 4.800000 2.400000 -0.200000
v 5.200000 2.400000 -0.200000
v 4.800000 2.400000 -0.600000
v 3.300000 3.000000 -0.750000
v 2.900000 3.000000 -0.350000
v 3.300000 3.000000 -0.350000
v 2.900000 3.000000 -0.750000
v 0.800000 3.600000 -0.900000
v 1.200000 3.600000 -0.900000
v 1.200000 3.600000 -0.500000
v 0.800000 3.600000 -0.500000
vn -0.0000 1.0000 -0.0000
vn -1.0000 -0.0000 -0.0000
vn 1.0000 -0.0000 -0.0000
vn -0.0000 0.2425 0.9701
vt 0.409756 1.000000
vt 0.448780 0.972477
vt 0.409756 0.972477
vt 0.780488 1.000000
vt 0.819512 0.963303
vt 0.780488 0.963303
vt 0.912195 0.605505
vt 0.882927 0.637615
vt 0.882927 0.605505
vt 0.375610 0.587156
vt 0.409756 0.587156
vt 0.482927 0.587156
vt 0.448780 1.000000
vt 0.448780 0.587156
vt 0.746341 0.660550
vt 0.780488 0.660550
vt 0.853659 0.660550
vt 0.819512 1.000000
vt 0.819512 0.660550
vt 0.609756 1.000000
vt 0.575610 0.619266
vt 0.609756 0.619266
vt 0.682927 0.619266
vt 0.648780 1.000000
vt 0.648780 0.619266
vt 0.853659 1.000000
vt 0.882927 1.000000
vt 0.648780 0.963303
vt 0.609756 0.963303
vt 0.941463 1.000000
vt 0.912195 1.000000
vt 0.912195 0.637615
vt 0.375610 1.000000
vt 0.482927 1.000000
vt 0.746341 1.000000
vt 0.575610 1.000000
vt 0.682927 1.000000
vt 0.853659 0.605505
vt 0.941463 0.605505
s 0
usemtl Material
f 18/1/1 17/2/1 20/3/1
f 22/4/1 21/5/1 24/6/1
f 31/7/1 29/8/1 32/9/1
f 18/1/2 15/10/2 16/11/2
f 13/12/3 19/13/3 14/14/3
f 19/13/4 16/11/4 14/14/4
f 22/4/2 11/15/2 12/16/2
f 9/17/3 23/18/3 10/19/3
f 23/18/4 12/16/4 10/19/4
f 26/20/2 6/21/2 8/22/2
f 2/23/3 27/24/3 4/25/3
f 27/24/4 8/22/4 4/25/4
f 32/9/2 3/26/2 1/27/2
f 26/20/1 25/28/1 28/29/1
f 7/30/3 31/7/3 5/31/3
f 31/7/4 1/27/4 5/31/4
f 18/1/1 19/13/1 17/2/1
f 22/4/1 23/18/1 21/5/1
f 31/7/1 30/32/1 29/8/1
f 18/1/2 20/33/2 15/10/2
f 13/12/3 17/34/3 19/13/3
f 19/13/4 18/1/4 16/11/4
f 22/4/2 24/35/2 11/15/2
f 9/17/3 21/26/3 23/18/3
f 23/18/4 22/4/4 12/16/4
f 26/20/2 28/36/2 6/21/2
f 2/23/3 25/37/3 27/24/3
f 27/24/4 26/20/4 8/22/4
f 32/9/2 29/38/2 3/26/2
f 26/20/1 27/24/1 25/28/1
f 7/30/3 30/39/3 31/7/3
f 31/7/4 32/9/4 1/27/4
o CanalWall04
v 8.000000 0.000000 0.000000
v 1.142857 0.000000 0.000000
v 2.285714 0.000000 0.000000
v 5.714286 0.000000 0.000000
v 6.857143 0.000000 0.000000
v 5.714286 4.800000 -1.200000
v 4.571428 4.800000 -1.200000
v 2.285714 4.800000 -1.200000
v 1.142857 4.800000 -1.200000
v 8.000000 3.840000 -0.960000
v 8.000000 1.920000 -0.480000
v 8.000000 0.960000 -0.240000
v 0.000000 0.960000 -0.240000
v 0.000000 1.920000 -0.480000
v 0.000000 2.880000 -0.720000
v 0.000000 3.840000 -0.960000
v 6.857143 1.920000 -0.480000
v 6.926600 1.041672 -0.236942
v 5.607486 3.819547 -0.945871
v 5.690304 1.834824 -0.483301
v 4.690954 3.905551 -0.989708
v 5.625781 3.031735 -0.763234
v 5.735925 1.058246 -0.256439
v 2.285714 1.920000 -0.480000
v 2.276027 3.797686 -0.936679
v 2.424191 2.880000 -0.720000
v 2.285714 0.960000 -0.240000
v 1.239115 3.852326 -0.960000
v 1.142857 2.880000 -0.720000
v 1.164571 1.973653 -0.515604
v 1.142857 0.960000 -0.240000
v 2.058401 3.629758 -1.130896
v 2.300402 2.829952 -1.121447
v 2.053932 1.993839 -0.712839
v 1.362384 3.629758 -1.130896
v 1.289242 2.829952 -1.121447
v 1.367594 1.993839 -0.712839
v 6.789101 1.835791 -0.574628
v 6.841595 1.053215 -0.361327
v 5.546271 3.758020 -1.139544
v 5.546271 3.099875 -0.949334
v 5.879032 1.787193 -0.552475
v 5.818416 1.085733 -0.424913
v 4.784685 3.758020 -1.139544
v 8.000000 3.360000 -0.840000
v 0.000000 3.360000 -0.840000
v 6.857143 3.360000 -0.840000
v 5.714286 3.360000 -0.840000
v 4.571428 3.360000 -0.840000
v 2.480509 3.360000 -0.840000
v 1.142857 3.360000 -0.840000
v 2.292161 3.248009 -1.225961
v 1.185621 3.248009 -1.225961
v 5.546271 3.373113 -1.096727
v 4.784685 3.373113 -1.096727
v 6.285714 0.000000 0.000000
v 6.287182 0.915302 -0.230498
v 6.281988 2.008392 -0.513198
v 6.319193 0.996580 -0.354822
v 6.319193 1.838335 -0.565261
v 8.000000 6.000000 -4.000000
v 0.000000 0.000000 0.000000
v 0.000000 4.800000 -1.200000
v 8.000000 4.800000 -1.200000
v 0.000000 4.800000 -1.000000
v 0.000000 6.000000 -1.000000
v 8.000000 6.000000 -1.000000
v 8.000000 4.800000 -1.000000
v 8.000000 1.598397 -0.399599
v 0.000000 1.598397 -0.399599
v 8.000000 6.000000 -2.500000
v 0.000000 6.000000 -2.500000
v 0.000000 5.750000 -4.000000
v 0.000000 6.000000 -4.000000
v 8.000000 5.750000 -4.000000
v 0.000000 5.750000 -4.500000
v 8.000000 5.750000 -4.500000
v 0.000000 5.500000 -4.500000
v 8.000000 5.500000 -4.500000
v 0.000000 5.500000 -5.000000
v 8.000000 5.500000 -5.000000
v 0.000000 4.800000 -5.000000
v 8.000000 4.800000 -5.000000
vn -0.0024 0.2453 0.9695
vn 0.0036 0.2505 0.9681
vn -0.0225 0.2531 0.9672
vn 0.0111 0.2303 0.9731
vn -0.0084 0.2542 0.9671
vn -0.0000 0.2425 0.9701
vn -0.0536 -0.7248 0.6868
vn -0.6374 0.2722 0.7208
vn -0.0034 0.2802 0.9599
vn 0.0070 0.2416 0.9704
vn -0.0000 0.2646 0.9643
vn -0.0849 0.8439 0.5298
vn -0.0000 0.2442 0.9697
vn 0.2766 0.9203 0.2768
vn 0.0212 0.2425 0.9699
vn 0.0185 0.2425 0.9700
vn -0.0000 0.4391 0.8985
vn -0.0000 -0.2416 0.9704
vn -0.0000 0.9948 0.1018
vn 0.9679 0.2487 0.0351
vn -0.6835 -0.5407 0.4904
vn 0.9220 0.2363 0.3067
vn -0.0000 0.1106 0.9939
vn -0.1035 0.1866 0.9770
vn 0.3709 0.1350 0.9188
vn -0.8364 -0.0691 0.5438
vn -0.8171 0.0999 0.5677
vn 0.0604 -0.2801 0.9581
vn -0.0000 -0.9531 0.3028
vn -0.8181 0.3306 0.4706
vn -0.0000 0.4748 0.8801
vn -0.9463 0.1784 0.2696
vn 0.8035 -0.0120 0.5952
vn -0.0112 0.2306 0.9730
vn 0.8333 -0.0311 0.5519
vn 0.0020 0.2339 0.9723
vn -0.0187 0.2425 0.9700
vn -0.1464 -0.6844 0.7143
vn -0.0142 0.2425 0.9700
vn 0.2303 0.9362 0.2655
vn -0.0000 1.0000 -0.0000
vn -0.0000 -0.0000 1.0000
vn -0.0000 -1.0000 -0.0000
vn -0.0000 -0.0000 -1.0000
vn -0.0000 0.2289 0.9735
vn -0.0000 0.2541 0.9672
vn -0.0000 0.2455 0.9694
vn -0.0181 0.2627 0.9647
vn -0.0000 -0.6090 0.7932
vn -0.8974 0.3768 0.2297
vn -0.0021 0.2355 0.9719
vn 0.0070 0.2425 0.9701
vn 0.0023 0.2279 0.9737
vn 0.0116 0.2208 0.9752
vn -0.1872 0.9581 0.2168
vn 0.0153 0.2352 0.9718
vn 0.2747 0.9349 0.2249
vn 0.0196 0.2205 0.9752
vn -0.0000 0.2667 0.9638
vn 0.0038 0.2253 0.9743
vn 0.0174 0.2620 0.9649
vn -0.0000 0.2200 0.9755
vn -0.0024 0.2372 0.9714
vn 0.0376 0.9627 0.2679
vn 0.9395 0.0831 0.3322
vn -0.6117 -0.1128 0.7830
vn 0.6766 0.1774 0.7146
vn 0.8705 0.1844 0.4563
vn -0.9559 0.0325 0.2918
vn -0.8420 0.0810 0.5334
vn 0.1873 -0.4922 0.8501
vn -0.1012 -0.7398 0.6651
vn -0.7944 0.2884 0.5346
vn -0.9050 0.0863 0.4166
vn 0.8608 -0.4552 0.2275
vn -0.0173 0.2268 0.9738
vn 0.7655 0.0711 0.6395
vn -0.0000 0.2350 0.9720
vn 0.0175 -0.2892 0.9571
vn 0.0207 0.2642 0.9642
vn -0.0344 0.2238 0.9740
vn 0.0690 0.8268 0.5583
vt 0.117073 0.472477
vt -0.000000 0.380734
vt 0.121951 0.380734
vt 0.809756 0.380734
vt 0.580488 0.472477
vt 0.565854 0.376147
vt 0.473171 0.385321
vt 0.463415 0.472477
vt 0.234146 0.376147
vt 0.234146 0.472477
vt 0.234146 0.091743
vt 0.117073 0.000000
vt 0.234146 0.000000
vt 0.234146 0.188073
vt 0.117073 0.091743
vt 0.692683 0.284404
vt 0.756098 0.261468
vt 0.770732 0.284404
vt 0.809756 0.165138
vt 0.760976 0.091743
vt 0.785366 0.073394
vt 0.580488 0.000000
vt 0.575610 0.183486
vt 0.580488 0.105505
vt 0.243902 0.279817
vt 0.248780 0.330275
vt 0.463415 0.325688
vt 0.682927 0.110092
vt 0.731707 0.123853
vt 0.682927 0.119266
vt 0.634146 0.087156
vt 0.634146 0.000000
vt 0.287805 0.155963
vt 0.390244 0.174312
vt 0.307317 0.188073
vt 0.809756 0.091743
vt 0.692683 0.000000
vt 0.809756 0.000000
vt 0.809756 0.188073
vt 0.702439 0.096330
vt 0.692683 0.325688
vt 0.692683 0.188073
vt 0.580488 0.330275
vt 0.809756 0.330275
vt -0.000000 0.000000
vt -0.000000 0.188073
vt -0.000000 0.091743
vt 0.117073 0.192661
vt -0.000000 0.279817
vt 0.117073 0.330275
vt -0.000000 0.330275
vt 0.692683 0.174312
vt 0.702439 0.091743
vt 0.682927 0.220183
vt 0.785366 0.224771
vt 0.692683 0.073394
vt 0.648780 0.211009
vt 0.809756 0.247706
vt 0.658537 0.160550
vt 0.370732 0.252294
vt 0.385366 0.211009
vt 0.648780 0.206422
vt 0.643902 0.133028
vt 0.634146 0.211009
vt 0.395122 0.266055
vt 0.409756 0.211009
vt 0.741463 0.119266
vt 0.731707 0.206422
vt 0.692683 0.229358
vt 0.692683 0.206422
vt 0.370732 0.279817
vt 0.297561 0.229358
vt 0.409756 0.201835
vt 0.409756 0.165138
vt 0.814634 0.229358
vt 0.785366 0.183486
vt 0.814634 0.183486
vt 0.658537 0.247706
vt 0.697561 0.261468
vt 0.117073 0.279817
vt 0.565854 0.298165
vt 0.634146 0.197248
vt 0.580488 0.325688
vt 0.278049 0.169725
vt 0.278049 0.238532
vt 0.741463 0.220183
vt 0.634146 0.119266
vt 0.000000 0.426605
vt 1.000000 0.587156
vt 1.000000 0.426605
vt 0.809756 0.587156
vt 0.000000 0.472477
vt 0.809756 0.472477
vt 0.000000 0.527523
vt 1.000000 0.541284
vt 1.000000 0.527523
vt 0.000000 0.587156
vt 1.000000 0.509174
vt 0.000000 0.481651
vt 0.000000 0.509174
vt 1.000000 0.494792
vt 0.000000 0.567708
vt 0.000000 0.494792
vt 0.000000 0.536458
vt 1.000000 0.510417
vt 1.000000 0.536458
vt 1.000000 0.567708
vt 0.800000 0.587156
vt 0.000000 0.522936
vt 0.741463 0.110092
vt 0.404878 0.155963
vt 0.809756 0.325688
vt 0.658537 0.165138
vt 0.682927 0.077982
vt 0.624390 0.128440
vt 0.741463 0.211009
vt 0.634146 0.220183
vt 0.282927 0.247706
vt 0.000000 0.541284
vt 1.000000 0.481651
vt 0.000000 0.510417
vt 0.800000 0.522936
s 0
usemtl Material
f 41/40/5 48/41/5 60/42/5
f 42/43/6 38/44/6 51/45/6
f 38/44/7 53/46/7 51/45/7
f 39/47/8 57/48/8 53/46/8
f 40/49/9 60/42/9 57/48/9
f 59/50/10 34/51/10 35/52/10
f 56/53/10 63/54/10 59/50/10
f 60/55/11 64/56/11 57/57/11
f 58/58/12 66/59/12 56/60/12
f 36/61/10 59/50/10 35/52/10
f 52/62/13 59/50/13 55/63/13
f 52/62/14 58/64/14 56/53/14
f 53/46/15 82/65/15 81/66/15
f 89/67/16 71/68/16 91/69/16
f 89/70/17 36/61/17 88/71/17
f 81/72/18 73/73/18 87/74/18
f 44/75/10 37/76/10 33/77/10
f 43/78/19 50/79/19 44/75/19
f 43/78/10 79/80/10 49/81/10
f 42/43/10 80/82/10 77/83/10
f 63/54/10 94/84/10 34/51/10
f 63/54/10 46/85/10 45/86/10
f 62/87/20 47/88/20 46/85/20
f 83/89/10 48/41/10 78/90/10
f 66/59/21 68/91/21 69/92/21
f 64/56/22 85/93/22 84/94/22
f 62/95/23 66/59/23 69/92/23
f 83/96/24 68/91/24 85/93/24
f 82/97/25 64/56/25 84/94/25
f 61/98/26 69/92/26 68/91/26
f 72/99/27 87/74/27 86/100/27
f 91/69/28 74/101/28 75/102/28
f 52/103/29 75/102/29 74/101/29
f 51/104/30 86/100/30 80/105/30
f 50/106/31 70/107/31 71/68/31
f 90/108/32 74/101/32 92/109/32
f 51/110/33 76/111/33 72/99/33
f 80/112/34 73/73/34 54/113/34
f 73/73/35 86/100/35 87/74/35
f 82/114/36 65/115/36 58/116/36
f 83/117/37 67/118/37 60/55/37
f 84/94/10 68/91/10 65/115/10
f 83/89/10 47/88/10 61/119/10
f 54/120/38 90/121/38 80/122/38
f 81/123/39 76/111/39 53/124/39
f 81/66/40 58/64/40 54/120/40
f 79/80/41 90/121/41 49/81/41
f 90/108/42 70/107/42 49/125/42
f 71/68/43 92/109/43 91/69/43
f 37/76/17 89/70/17 88/71/17
f 89/67/44 75/102/44 55/126/44
f 104/127/45 99/128/45 103/129/45
f 99/130/46 97/131/46 100/132/46
f 96/133/47 97/134/47 95/135/47
f 106/128/45 103/127/45 93/136/45
f 109/137/48 110/138/48 108/139/48
f 107/140/45 108/141/45 105/142/45
f 93/143/48 105/144/48 106/145/48
f 111/141/45 112/140/45 110/146/45
f 113/147/48 114/148/48 112/136/48
f 41/40/10 95/131/10 48/41/10
f 42/43/10 96/132/10 38/44/10
f 38/44/49 39/47/49 53/46/49
f 39/47/50 40/49/50 57/48/50
f 40/49/51 41/40/51 60/42/51
f 59/50/10 63/54/10 34/51/10
f 56/53/52 62/87/52 63/54/52
f 60/55/53 67/118/53 64/56/53
f 58/58/54 65/115/54 66/59/54
f 36/61/55 55/63/55 59/50/55
f 52/62/56 56/53/56 59/50/56
f 52/62/57 54/120/57 58/64/57
f 53/46/58 57/48/58 82/65/58
f 89/67/59 50/149/59 71/68/59
f 89/70/60 55/63/60 36/61/60
f 81/72/61 54/150/61 73/73/61
f 44/75/62 50/79/62 37/76/62
f 43/78/63 49/81/63 50/79/63
f 43/78/10 77/151/10 79/80/10
f 42/43/64 51/45/64 80/82/64
f 63/54/10 45/86/10 94/84/10
f 63/54/65 62/87/65 46/85/65
f 62/87/66 61/119/66 47/88/66
f 83/89/67 60/42/67 48/41/67
f 66/59/21 65/115/21 68/91/21
f 64/56/22 67/118/22 85/93/22
f 62/95/68 56/60/68 66/59/68
f 83/96/69 61/152/69 68/91/69
f 82/97/70 57/57/70 64/56/70
f 61/98/71 62/153/71 69/92/71
f 72/99/27 76/111/27 87/74/27
f 91/69/10 92/109/10 74/101/10
f 52/103/72 55/154/72 75/102/72
f 51/104/73 72/99/73 86/100/73
f 50/106/74 49/155/74 70/107/74
f 90/108/75 52/156/75 74/101/75
f 51/110/76 53/157/76 76/111/76
f 80/112/77 86/100/77 73/73/77
f 82/114/78 84/94/78 65/115/78
f 83/117/79 85/93/79 67/118/79
f 84/94/10 85/93/10 68/91/10
f 83/89/10 78/90/10 47/88/10
f 54/120/80 52/62/80 90/121/80
f 81/123/81 87/74/81 76/111/81
f 81/66/10 82/65/10 58/64/10
f 79/80/82 80/122/82 90/121/82
f 90/108/83 92/109/83 70/107/83
f 71/68/84 70/107/84 92/109/84
f 37/76/85 50/79/85 89/70/85
f 89/67/86 91/69/86 75/102/86
f 104/127/45 98/136/45 99/128/45
f 99/130/46 98/136/46 97/131/46
f 96/133/47 100/158/47 97/134/47
f 106/128/45 104/129/45 103/127/45
f 109/137/48 111/159/48 110/138/48
f 107/140/45 109/146/45 108/141/45
f 93/143/48 107/160/48 105/144/48
f 111/141/45 113/142/45 112/140/45
f 113/147/48 115/161/48 114/148/48
l 102 95
l 96 101
l 94 102
l 101 33
o CanalWallCap
v 8.000000 0.000000 0.500000
v 8.000000 4.800000 -0.700000
v 8.000000 0.000000 -5.000000
v 8.000000 4.800000 -5.000000
v 9.000000 0.000000 0.500000
v 9.000000 4.800000 -0.700000
v 9.000000 0.000000 -5.000000
v 9.000000 4.800000 -5.000000
v 8.000000 6.000000 -0.700000
v 8.000000 6.000000 -5.000000
v 9.000000 6.000000 -0.700000
v 9.000000 6.000000 -5.000000
vn -1.0000 -0.0000 -0.0000
vn 1.0000 -0.0000 -0.0000
vn -0.0000 0.2425 0.9701
vn -0.0000 1.0000 -0.0000
vn -0.0000 -0.0000 1.0000
vn -0.0000 -0.0000 -1.0000
vt 0.726829 0.472477
vt 0.043902 0.000000
vt 0.921951 0.000000
vt 0.609756 0.000000
vt 0.160976 0.472477
vt 0.907317 0.472477
vt 0.809756 0.000000
vt 0.907317 0.000000
vt 0.531707 0.472477
vt 1.000000 0.587156
vt 1.000000 0.472477
vt 0.000000 0.486239
vt 0.468293 0.587156
vt 0.000000 0.587156
vt 0.770732 0.472477
vt 0.302439 0.587156
vt 0.302439 0.472477
vt 0.809756 0.587156
vt 0.809756 0.472477
vt 0.882927 0.587156
vt 0.770732 0.587156
vt 0.043902 0.472477
vt 0.609756 0.472477
vt 0.531707 0.587156
vt 0.468293 0.486239
vt 0.907317 0.587156
vt 0.882927 0.472477
s 0
usemtl Material
f 117/162/87 118/163/87 116/164/87
f 122/165/88 121/166/88 120/163/88
f 121/167/89 116/168/89 120/169/89
f 123/170/88 126/171/88 121/172/88
f 125/173/90 126/174/90 127/175/90
f 117/176/87 125/177/87 119/178/87
f 121/167/91 124/179/91 117/180/91
f 127/181/92 119/176/92 125/182/92
f 117/162/87 119/183/87 118/163/87
f 122/165/88 123/184/88 121/166/88
f 121/167/89 117/180/89 116/168/89
f 123/170/88 127/185/88 126/171/88
f 125/173/90 124/186/90 126/174/90
f 117/176/87 124/182/87 125/177/87
f 121/167/91 126/187/91 124/179/91
f 127/181/92 123/188/92 119/176/92
o CanalWallPosts02
v 1.200000 0.000000 0.000000
v 1.200000 0.000000 0.400000
v 0.800000 0.000000 0.000000
v 0.800000 0.000000 0.400000
v 1.200000 3.000000 -0.750000
v 0.800000 3.000000 -0.350000
v 1.200000 3.000000 -0.350000
v 0.800000 3.000000 -0.750000
v 6.900001 0.000000 0.000000
v 6.900001 0.000000 0.400000
v 7.300000 0.000000 0.000000
v 7.300000 0.000000 0.400000
v 4.800000 0.000000 0.000000
v 4.800000 0.000000 0.400000
v 5.200000 0.000000 0.000000
v 5.200000 0.000000 0.400000
v 4.800000 4.200000 -1.050000
v 5.200000 4.200000 -0.650000
v 4.800000 4.200000 -0.650000
v 5.200000 4.200000 -1.050000
v 6.900001 2.400000 -0.600000
v 7.300000 2.400000 -0.200000
v 6.900001 2.400000 -0.200000
v 7.300000 2.400000 -0.600000
vn -1.0000 -0.0000 -0.0000
vn 1.0000 -0.0000 -0.0000
vn -0.0000 0.2425 0.9701
vn -0.0000 1.0000 -0.0000
vn -0.0000 -1.0000 -0.0000
vn -0.0000 -0.2425 -0.9701
vt 0.512195 0.623853
vt 0.541463 1.000000
vt 0.512195 1.000000
vt 0.453659 1.000000
vt 0.482927 0.623853
vt 0.482927 1.000000
vt 0.482927 0.655963
vt 0.512195 0.655963
vt 0.400000 1.000000
vt 0.429268 0.972477
vt 0.400000 0.972477
vt 0.609756 1.000000
vt 0.643902 0.963303
vt 0.609756 0.963303
vt 0.370732 0.587156
vt 0.400000 0.587156
vt 0.458537 0.587156
vt 0.429268 1.000000
vt 0.429268 0.587156
vt 0.575610 0.655963
vt 0.609756 0.655963
vt 0.678049 0.655963
vt 0.643902 1.000000
vt 0.643902 0.655963
vt 0.541463 0.623853
vt 0.453659 0.623853
vt 0.370732 1.000000
vt 0.458537 1.000000
vt 0.575610 1.000000
vt 0.678049 1.000000
s 0
usemtl Material
f 133/189/93 130/190/93 131/191/93
f 128/192/94 134/193/94 129/194/94
f 134/193/95 131/191/95 129/194/95
f 133/189/96 132/195/96 135/196/96
f 145/197/97 144/198/97 147/199/97
f 149/200/97 148/201/97 151/202/97
f 145/197/93 142/203/93 143/204/93
f 140/205/94 146/206/94 141/207/94
f 146/206/98 143/204/98 141/207/98
f 149/200/93 138/208/93 139/209/93
f 136/210/94 150/211/94 137/212/94
f 150/211/98 139/209/98 137/212/98
f 133/189/93 135/213/93 130/190/93
f 128/192/94 132/214/94 134/193/94
f 134/193/95 133/189/95 131/191/95
f 133/189/96 134/193/96 132/195/96
f 145/197/97 146/206/97 144/198/97
f 149/200/97 150/211/97 148/201/97
f 145/197/93 147/215/93 142/203/93
f 140/205/94 144/216/94 146/206/94
f 146/206/98 145/197/98 143/204/98
f 149/200/93 151/217/93 138/208/93
f 136/210/94 148/218/94 150/211/94
f 150/211/98 149/200/98 139/209/98
o CanalWallPosts03
v 7.300000 0.000000 0.400000
v 7.300000 0.000000 0.000000
v 6.900001 0.000000 0.400000
v 6.900001 0.000000 0.000000
v 0.800000 0.000000 0.000000
v 0.800000 0.000000 0.400000
v 1.200000 0.000000 0.000000
v 1.200000 0.000000 0.400000
v 0.800000 4.200000 -1.050000
v 1.200000 4.200000 -0.650000
v 0.800000 4.200000 -0.650000
v 1.200000 4.200000 -1.050000
v 7.300000 3.600000 -0.900000
v 6.900001 3.600000 -0.900000
v 6.900001 3.600000 -0.500000
v 7.300000 3.600000 -0.500000
vn -0.0000 -1.0000 -0.0000
vn -1.0000 -0.0000 -0.0000
vn 1.0000 -0.0000 -0.0000
vn -0.0000 -0.2425 -0.9701
vt 0.614634 1.000000
vt 0.643902 0.972477
vt 0.614634 0.972477
vt 0.692683 0.610092
vt 0.663415 0.637615
vt 0.663415 0.610092
vt 0.590244 0.587156
vt 0.614634 0.587156
vt 0.668293 0.587156
vt 0.643902 1.000000
vt 0.643902 0.587156
vt 0.639024 0.990826
vt 0.663415 0.990826
vt 0.717073 0.990826
vt 0.692683 0.990826
vt 0.692683 0.637615
vt 0.590244 1.000000
vt 0.668293 1.000000
vt 0.639024 0.610092
vt 0.717073 0.610092
s 0
usemtl Material
f 161/219/99 160/220/99 163/221/99
f 166/222/99 164/223/99 167/224/99
f 161/219/100 158/225/100 159/226/100
f 156/227/101 162/228/101 157/229/101
f 162/228/102 159/226/102 157/229/102
f 167/224/100 153/230/100 152/231/100
f 155/232/101 166/222/101 154/233/101
f 166/222/102 152/231/102 154/233/102
f 161/219/99 162/228/99 160/220/99
f 166/222/99 165/234/99 164/223/99
f 161/219/100 163/235/100 158/225/100
f 156/227/101 160/236/101 162/228/101
f 162/228/102 161/219/102 159/226/102
f 167/224/100 164/237/100 153/230/100
f 155/232/101 165/238/101 166/222/101
f 166/222/102 167/224/102 152/231/102
