# Blender 4.2.0
# www.blender.org
mtllib CanalWall01a.mtl
o CanalWall01
v 8.000000 6.000000 -4.000000
v 8.000000 0.000000 0.000000
v 0.000000 6.000000 -4.000000
v 0.000000 0.000000 0.000000
v 0.000000 4.800000 -1.200000
v 8.000000 4.800000 -1.200000
v 0.000000 4.800000 -1.000000
v 0.000000 6.000000 -1.000000
v 8.000000 6.000000 -1.000000
v 8.000000 4.800000 -1.000000
v 8.000000 1.598397 -0.399599
v 0.000000 1.598397 -0.399599
v 8.000000 6.000000 -2.500000
v 0.000000 6.000000 -2.500000
v 8.000000 6.000000 -4.000000
v 0.000000 5.750000 -4.000000
v 0.000000 6.000000 -4.000000
v 8.000000 5.750000 -4.000000
v 0.000000 5.750000 -4.500000
v 8.000000 5.750000 -4.500000
v 0.000000 5.500000 -4.500000
v 8.000000 5.500000 -4.500000
v 0.000000 5.500000 -5.000000
v 8.000000 5.500000 -5.000000
v 0.000000 4.800000 -5.000000
v 8.000000 4.800000 -5.000000
vn -0.0000 1.0000 -0.0000
vn -0.0000 0.2425 0.9701
vn -0.0000 -0.0000 1.0000
vn -0.0000 -1.0000 -0.0000
vn -0.0000 -0.0000 -1.0000
vt 0.000000 0.426605
vt 1.000000 0.587156
vt 1.000000 0.426605
vt 0.809756 0.000000
vt 0.000000 0.472477
vt 0.000000 0.000000
vt 0.809756 0.587156
vt 0.809756 0.472477
vt 0.000000 0.527523
vt 1.000000 0.541284
vt 1.000000 0.527523
vt 0.000000 0.587156
vt 1.000000 0.509174
vt 0.000000 0.481651
vt 0.000000 0.509174
vt 1.000000 0.494792
vt 0.000000 0.567708
vt 0.000000 0.494792
vt 0.000000 0.536458
vt 1.000000 0.510417
vt 1.000000 0.536458
vt 1.000000 0.567708
vt 0.800000 0.587156
vt 0.000000 0.522936
vt 0.000000 0.541284
vt 1.000000 0.481651
vt 0.000000 0.510417
vt 0.800000 0.522936
s 0
usemtl Material
f 14/1/1 9/2/1 13/3/1
f 2/4/2 5/5/2 4/6/2
f 9/7/3 7/5/3 10/8/3
f 6/9/4 7/10/4 5/11/4
f 3/2/1 13/1/1 1/12/1
f 20/13/5 21/14/5 19/15/5
f 18/16/1 19/17/1 16/18/1
f 15/19/5 16/20/5 17/21/5
f 22/17/1 23/16/1 21/22/1
f 24/23/5 25/24/5 23/12/5
f 14/1/1 8/12/1 9/2/1
f 2/4/2 6/8/2 5/5/2
f 9/7/3 8/12/3 7/5/3
f 6/9/4 10/25/4 7/10/4
f 3/2/1 14/3/1 13/1/1
f 20/13/5 22/26/5 21/14/5
f 18/16/1 20/22/1 19/17/1
f 15/19/5 18/27/5 16/20/5
f 22/17/1 24/18/1 23/16/1
f 24/23/5 26/28/5 25/24/5
l 11 2
l 12 5
l 6 11
l 4 12
o CanalWallPosts01
v 0.800000 0.000000 0.400000
v 3.300000 0.000000 0.000000
v 0.800000 0.000000 0.000000
v 3.300000 0.000000 0.400000
v 1.200000 0.000000 0.400000
v 2.900000 0.000000 0.000000
v 1.200000 0.000000 0.000000
v 2.900000 0.000000 0.400000
v 5.200000 0.000000 0.000000
v 5.200000 0.000000 0.400000
v 4.800000 0.000000 0.000000
v 4.800000 0.000000 0.400000
v 7.300000 0.000000 0.000000
v 7.300000 0.000000 0.400000
v 6.900000 0.000000 0.000000
v 6.900000 0.000000 0.400000
v 7.300000 4.200000 -1.050000
v 6.900000 4.200000 -0.650000
v 7.300000 4.200000 -0.650000
v 6.900000 4.200000 -1.050000
v 5.200000 2.400000 -0.600000
v 4.800000 2.400000 -0.200000
v 5.200000 2.400000 -0.200000
v 4.800000 2.400000 -0.600000
v 3.300000 3.000000 -0.750000
v 2.900000 3.000000 -0.350000
v 3.300000 3.000000 -0.350000
v 2.900000 3.000000 -0.750000
v 0.800000 3.600000 -0.900000
v 1.200000 3.600000 -0.900000
v 1.200000 3.600000 -0.500000
v 0.800000 3.600000 -0.500000
vn -0.0000 1.0000 -0.0000
vn -1.0000 -0.0000 -0.0000
vn 1.0000 -0.0000 -0.0000
vn -0.0000 0.2425 0.9701
vt 0.409756 1.000000
vt 0.448780 0.972477
vt 0.409756 0.972477
vt 0.780488 1.000000
vt 0.819512 0.963303
vt 0.780488 0.963303
vt 0.912195 0.605505
vt 0.882927 0.637615
vt 0.882927 0.605505
vt 0.375610 0.587156
vt 0.409756 0.587156
vt 0.482927 0.587156
vt 0.448780 1.000000
vt 0.448780 0.587156
vt 0.746341 0.660550
vt 0.780488 0.660550
vt 0.853659 0.660550
vt 0.819512 1.000000
vt 0.819512 0.660550
vt 0.609756 1.000000
vt 0.575610 0.619266
vt 0.609756 0.619266
vt 0.682927 0.619266
vt 0.648780 1.000000
vt 0.648780 0.619266
vt 0.853659 1.000000
vt 0.882927 1.000000
vt 0.648780 0.963303
vt 0.609756 0.963303
vt 0.941463 1.000000
vt 0.912195 1.000000
vt 0.912195 0.637615
vt 0.375610 1.000000
vt 0.482927 1.000000
vt 0.746341 1.000000
vt 0.575610 1.000000
vt 0.682927 1.000000
vt 0.853659 0.605505
vt 0.941463 0.605505
s 0
usemtl Material
f 44/29/6 43/30/6 46/31/6
f 48/32/6 47/33/6 50/34/6
f 57/35/6 55/36/6 58/37/6
f 44/29/7 41/38/7 42/39/7
f 39/40/8 45/41/8 40/42/8
f 45/41/9 42/39/9 40/42/9
f 48/32/7 37/43/7 38/44/7
f 35/45/8 49/46/8 36/47/8
f 49/46/9 38/44/9 36/47/9
f 52/48/7 32/49/7 34/50/7
f 28/51/8 53/52/8 30/53/8
f 53/52/9 34/50/9 30/53/9
f 58/37/7 29/54/7 27/55/7
f 52/48/6 51/56/6 54/57/6
f 33/58/8 57/35/8 31/59/8
f 57/35/9 27/55/9 31/59/9
f 44/29/6 45/41/6 43/30/6
f 48/32/6 49/46/6 47/33/6
f 57/35/6 56/60/6 55/36/6
f 44/29/7 46/61/7 41/38/7
f 39/40/8 43/62/8 45/41/8
f 45/41/9 44/29/9 42/39/9
f 48/32/7 50/63/7 37/43/7
f 35/45/8 47/54/8 49/46/8
f 49/46/9 48/32/9 38/44/9
f 52/48/7 54/64/7 32/49/7
f 28/51/8 51/65/8 53/52/8
f 53/52/9 52/48/9 34/50/9
f 58/37/7 55/66/7 29/54/7
f 52/48/6 53/52/6 51/56/6
f 33/58/8 56/67/8 57/35/8
f 57/35/9 58/37/9 27/55/9
o CanalWallCap
v 8.000000 0.000000 0.500000
v 8.000000 4.800000 -0.700000
v 8.000000 0.000000 -5.000000
v 8.000000 4.800000 -5.000000
v 9.000000 0.000000 0.500000
v 9.000000 4.800000 -0.700000
v 9.000000 0.000000 -5.000000
v 9.000000 4.800000 -5.000000
v 8.000000 6.000000 -0.700000
v 8.000000 6.000000 -5.000000
v 9.000000 6.000000 -0.700000
v 9.000000 6.000000 -5.000000
vn -1.0000 -0.0000 -0.0000
vn 1.0000 -0.0000 -0.0000
vn -0.0000 0.2425 0.9701
vn -0.0000 1.0000 -0.0000
vn -0.0000 -0.0000 1.0000
vn -0.0000 -0.0000 -1.0000
vt 0.726829 0.472477
vt 0.043902 0.000000
vt 0.921951 0.000000
vt 0.609756 0.000000
vt 0.160976 0.472477
vt 0.907317 0.472477
vt 0.809756 0.000000
vt 0.907317 0.000000
vt 0.531707 0.472477
vt 1.000000 0.587156
vt 1.000000 0.472477
vt 0.000000 0.486239
vt 0.468293 0.587156
vt 0.000000 0.587156
vt 0.770732 0.472477
vt 0.302439 0.587156
vt 0.302439 0.472477
vt 0.809756 0.587156
vt 0.809756 0.472477
vt 0.882927 0.587156
vt 0.770732 0.587156
vt 0.043902 0.472477
vt 0.609756 0.472477
vt 0.531707 0.587156
vt 0.468293 0.486239
vt 0.907317 0.587156
vt 0.882927 0.472477
s 0
usemtl Material
f 60/68/10 61/69/10 59/70/10
f 65/71/11 64/72/11 63/69/11
f 64/73/12 59/74/12 63/75/12
f 66/76/11 69/77/11 64/78/11
f 68/79/13 69/80/13 70/81/13
f 60/82/10 68/83/10 62/84/10
f 64/73/14 67/85/14 60/86/14
f 70/87/15 62/82/15 68/88/15
f 60/68/10 62/89/10 61/69/10
f 65/71/11 66/90/11 64/72/11
f 64/73/12 60/86/12 59/74/12
f 66/76/11 70/91/11 69/77/11
f 68/79/13 67/92/13 69/80/13
f 60/82/10 67/88/10 68/83/10
f 64/73/14 69/93/14 67/85/14
f 70/87/15 66/94/15 62/82/15
o CanalWallPosts02
v 1.200000 0.000000 0.000000
v 1.200000 0.000000 0.400000
v 0.800000 0.000000 0.000000
v 0.800000 0.000000 0.400000
v 1.200000 3.000000 -0.750000
v 0.800000 3.000000 -0.350000
v 1.200000 3.000000 -0.350000
v 0.800000 3.000000 -0.750000
v 6.900001 0.000000 0.000000
v 6.900001 0.000000 0.400000
v 7.300000 0.000000 0.000000
v 7.300000 0.000000 0.400000
v 4.800000 0.000000 0.000000
v 4.800000 0.000000 0.400000
v 5.200000 0.000000 0.000000
v 5.200000 0.000000 0.400000
v 4.800000 4.200000 -1.050000
v 5.200000 4.200000 -0.650000
v 4.800000 4.200000 -0.650000
v 5.200000 4.200000 -1.050000
v 6.900001 2.400000 -0.600000
v 7.300000 2.400000 -0.200000
v 6.900001 2.400000 -0.200000
v 7.300000 2.400000 -0.600000
vn -1.0000 -0.0000 -0.0000
vn 1.0000 -0.0000 -0.0000
vn -0.0000 0.2425 0.9701
vn -0.0000 1.0000 -0.0000
vn -0.0000 -1.0000 -0.0000
vn -0.0000 -0.2425 -0.9701
vt 0.512195 0.623853
vt 0.541463 1.000000
vt 0.512195 1.000000
vt 0.453659 1.000000
vt 0.482927 0.623853
vt 0.482927 1.000000
vt 0.482927 0.655963
vt 0.512195 0.655963
vt 0.400000 1.000000
vt 0.429268 0.972477
vt 0.400000 0.972477
vt 0.609756 1.000000
vt 0.643902 0.963303
vt 0.609756 0.963303
vt 0.370732 0.587156
vt 0.400000 0.587156
vt 0.458537 0.587156
vt 0.429268 1.000000
vt 0.429268 0.587156
vt 0.575610 0.655963
vt 0.609756 0.655963
vt 0.678049 0.655963
vt 0.643902 1.000000
vt 0.643902 0.655963
vt 0.541463 0.623853
vt 0.453659 0.623853
vt 0.370732 1.000000
vt 0.458537 1.000000
vt 0.575610 1.000000
vt 0.678049 1.000000
s 0
usemtl Material
f 76/95/16 73/96/16 74/97/16
f 71/98/17 77/99/17 72/100/17
f 77/99/18 74/97/18 72/100/18
f 76/95/19 75/101/19 78/102/19
f 88/103/20 87/104/20 90/105/20
f 92/106/20 91/107/20 94/108/20
f 88/103/16 85/109/16 86/110/16
f 83/111/17 89/112/17 84/113/17
f 89/112/21 86/110/21 84/113/21
f 92/106/16 81/114/16 82/115/16
f 79/116/17 93/117/17 80/118/17
f 93/117/21 82/115/21 80/118/21
f 76/95/16 78/119/16 73/96/16
f 71/98/17 75/120/17 77/99/17
f 77/99/18 76/95/18 74/97/18
f 76/95/19 77/99/19 75/101/19
f 88/103/20 89/112/20 87/104/20
f 92/106/20 93/117/20 91/107/20
f 88/103/16 90/121/16 85/109/16
f 83/111/17 87/122/17 89/112/17
f 89/112/21 88/103/21 86/110/21
f 92/106/16 94/123/16 81/114/16
f 79/116/17 91/124/17 93/117/17
f 93/117/21 92/106/21 82/115/21
o CanalWallPosts03
v 7.300000 0.000000 0.400000
v 7.300000 0.000000 0.000000
v 6.900001 0.000000 0.400000
v 6.900001 0.000000 0.000000
v 0.800000 0.000000 0.000000
v 0.800000 0.000000 0.400000
v 1.200000 0.000000 0.000000
v 1.200000 0.000000 0.400000
v 0.800000 4.200000 -1.050000
v 1.200000 4.200000 -0.650000
v 0.800000 4.200000 -0.650000
v 1.200000 4.200000 -1.050000
v 7.300000 3.600000 -0.900000
v 6.900001 3.600000 -0.900000
v 6.900001 3.600000 -0.500000
v 7.300000 3.600000 -0.500000
vn -0.0000 -1.0000 -0.0000
vn -1.0000 -0.0000 -0.0000
vn 1.0000 -0.0000 -0.0000
vn -0.0000 -0.2425 -0.9701
vt 0.614634 1.000000
vt 0.643902 0.972477
vt 0.614634 0.972477
vt 0.692683 0.610092
vt 0.663415 0.637615
vt 0.663415 0.610092
vt 0.590244 0.587156
vt 0.614634 0.587156
vt 0.668293 0.587156
vt 0.643902 1.000000
vt 0.643902 0.587156
vt 0.639024 0.990826
vt 0.663415 0.990826
vt 0.717073 0.990826
vt 0.692683 0.990826
vt 0.692683 0.637615
vt 0.590244 1.000000
vt 0.668293 1.000000
vt 0.639024 0.610092
vt 0.717073 0.610092
s 0
usemtl Material
f 104/125/22 103/126/22 106/127/22
f 109/128/22 107/129/22 110/130/22
f 104/125/23 101/131/23 102/132/23
f 99/133/24 105/134/24 100/135/24
f 105/134/25 102/132/25 100/135/25
f 110/130/23 96/136/23 95/137/23
f 98/138/24 109/128/24 97/139/24
f 109/128/25 95/137/25 97/139/25
f 104/125/22 105/134/22 103/126/22
f 109/128/22 108/140/22 107/129/22
f 104/125/23 106/141/23 101/131/23
f 99/133/24 103/142/24 105/134/24
f 105/134/25 104/125/25 102/132/25
f 110/130/23 107/143/23 96/136/23
f 98/138/24 108/144/24 109/128/24
f 109/128/25 110/130/25 95/137/25
