# Blender 4.2.0
# www.blender.org
mtllib ColumnStone01.mtl
o ColummStone01
v -0.396582 0.000000 0.000000
v -0.280426 0.000000 0.280426
v 0.000000 0.000000 0.396582
v 0.280426 0.000000 0.280426
v 0.396582 0.000000 0.000000
v -0.386777 0.175031 0.000000
v -0.273493 0.175031 0.273493
v 0.000000 0.175031 0.386777
v 0.273493 0.175031 0.273493
v 0.386777 0.175031 0.000000
v -0.341082 0.190281 0.000000
v -0.241182 0.190281 0.241182
v 0.000000 0.190281 0.341082
v 0.241182 0.190281 0.241182
v 0.341082 0.190281 0.000000
v -0.280426 0.147559 0.280426
v 0.000000 0.147559 0.396582
v -0.396582 0.147559 0.000000
v 0.396582 0.147559 0.000000
v 0.280426 0.147559 0.280426
v -0.332923 0.813563 0.000000
v -0.235412 0.813563 0.235412
v 0.000000 0.813563 0.332923
v 0.235412 0.813563 0.235412
v 0.332923 0.813563 0.000000
v -0.308064 0.831409 0.000000
v -0.217834 0.831409 0.217834
v 0.000000 0.831409 0.308064
v 0.217834 0.831409 0.217834
v 0.308064 0.831409 0.000000
v -0.276060 0.839050 0.000000
v -0.195204 0.839050 0.195204
v 0.000000 0.839050 0.276060
v 0.195204 0.839050 0.195204
v 0.276060 0.839050 0.000000
v 0.000000 0.839050 0.000000
v -0.280426 0.000000 -0.280426
v 0.000000 0.000000 -0.396582
v 0.280426 0.000000 -0.280426
v -0.273493 0.175031 -0.273493
v 0.000000 0.175031 -0.386777
v 0.273493 0.175031 -0.273493
v -0.241182 0.190281 -0.241182
v 0.000000 0.190281 -0.341082
v 0.241182 0.190281 -0.241182
v -0.280426 0.147559 -0.280426
v 0.000000 0.147559 -0.396582
v 0.280426 0.147559 -0.280426
v -0.235412 0.813563 -0.235412
v 0.000000 0.813563 -0.332923
v 0.235412 0.813563 -0.235412
v -0.217834 0.831409 -0.217834
v 0.000000 0.831409 -0.308064
v 0.217834 0.831409 -0.217834
v -0.195204 0.839050 -0.195204
v 0.000000 0.839050 -0.276060
v 0.195204 0.839050 -0.195204
vn -0.3634 0.3131 0.8774
vn 0.3634 0.3131 0.8774
vn -0.8774 0.3131 0.3634
vn 0.8774 0.3131 0.3634
vn 0.1300 0.9405 0.3139
vn -0.3139 0.9405 0.1300
vn 0.3139 0.9405 0.1300
vn -0.1300 0.9405 0.3139
vn 0.9239 -0.0000 0.3827
vn -0.9239 -0.0000 0.3827
vn 0.3827 -0.0000 0.9239
vn -0.3827 -0.0000 0.9239
vn 0.3827 0.0121 0.9238
vn -0.9238 0.0121 0.3827
vn 0.9238 0.0121 0.3827
vn -0.3827 0.0121 0.9238
vn -0.5669 0.7896 0.2348
vn 0.5669 0.7896 0.2348
vn -0.2348 0.7896 0.5669
vn 0.2348 0.7896 0.5669
vn 0.0957 0.9682 0.2312
vn -0.2312 0.9682 0.0957
vn 0.2312 0.9682 0.0957
vn -0.0957 0.9682 0.2312
vn -0.0000 1.0000 -0.0000
vn -0.3634 0.3131 -0.8774
vn 0.3634 0.3131 -0.8774
vn -0.8774 0.3131 -0.3634
vn 0.8774 0.3131 -0.3634
vn 0.1300 0.9405 -0.3139
vn -0.3139 0.9405 -0.1300
vn 0.3139 0.9405 -0.1300
vn -0.1300 0.9405 -0.3139
vn 0.9239 -0.0000 -0.3827
vn -0.9239 -0.0000 -0.3827
vn 0.3827 -0.0000 -0.9239
vn -0.3827 -0.0000 -0.9239
vn 0.3827 0.0121 -0.9238
vn -0.9238 0.0121 -0.3827
vn 0.9238 0.0121 -0.3827
vn -0.3827 0.0121 -0.9238
vn -0.5669 0.7896 -0.2348
vn 0.5669 0.7896 -0.2348
vn -0.2348 0.7896 -0.5669
vn 0.2348 0.7896 -0.5669
vn 0.0957 0.9682 -0.2312
vn -0.2312 0.9682 -0.0957
vn 0.2312 0.9682 -0.0957
vn -0.0957 0.9682 -0.2312
vt 0.997344 0.111629
vt 0.994505 0.133513
vt 0.770559 0.133513
vt 0.767721 0.111629
vt 0.307756 0.111629
vt 0.304917 0.133513
vt 0.080971 0.133513
vt 0.078133 0.111629
vt 0.537379 0.111629
vt 0.534540 0.133513
vt 0.310594 0.133513
vt 0.307756 0.111629
vt 0.767361 0.111629
vt 0.764523 0.133513
vt 0.540577 0.133513
vt 0.537738 0.111629
vt 0.291689 0.167470
vt 0.094200 0.167470
vt 0.521312 0.167470
vt 0.323823 0.167470
vt 0.751294 0.167470
vt 0.553805 0.167470
vt 0.981277 0.167470
vt 0.783788 0.167470
vt 0.767361 0.000000
vt 0.537738 0.000000
vt 0.537379 0.000000
vt 0.307756 0.000000
vt 0.078133 0.000000
vt 0.997344 0.000000
vt 0.767721 0.000000
vt 0.289326 0.639022
vt 0.096562 0.639022
vt 0.518949 0.639022
vt 0.326185 0.639022
vt 0.748932 0.639022
vt 0.556167 0.639022
vt 0.978914 0.639022
vt 0.786150 0.639022
vt 0.511753 0.661024
vt 0.333382 0.661024
vt 0.741735 0.661024
vt 0.563364 0.661024
vt 0.971718 0.661024
vt 0.793347 0.661024
vt 0.282130 0.661024
vt 0.103759 0.661024
vt 0.272864 0.684128
vt 0.113024 0.684128
vt 0.502487 0.684128
vt 0.342647 0.684128
vt 0.732470 0.684128
vt 0.572629 0.684128
vt 0.962452 0.684128
vt 0.802612 0.684128
vt 0.385889 0.797152
vt 0.192944 0.877072
vt 0.000000 0.956992
vt 0.000000 0.797152
s 0
usemtl Primary
f 17/1/1 8/2/1 7/3/1 16/4/1
f 20/5/2 9/6/2 8/7/2 17/8/2
f 16/9/3 7/10/3 6/11/3 18/12/3
f 19/13/4 10/14/4 9/15/4 20/16/4
f 9/6/5 14/17/5 13/18/5 8/7/5
f 7/10/6 12/19/6 11/20/6 6/11/6
f 10/14/7 15/21/7 14/22/7 9/15/7
f 8/2/8 13/23/8 12/24/8 7/3/8
f 5/25/9 19/13/9 20/16/9 4/26/9
f 2/27/10 16/9/10 18/12/10 1/28/10
f 4/28/11 20/5/11 17/8/11 3/29/11
f 3/30/12 17/1/12 16/4/12 2/31/12
f 14/17/13 24/32/13 23/33/13 13/18/13
f 12/19/14 22/34/14 21/35/14 11/20/14
f 15/21/15 25/36/15 24/37/15 14/22/15
f 13/23/16 23/38/16 22/39/16 12/24/16
f 22/34/17 27/40/17 26/41/17 21/35/17
f 25/36/18 30/42/18 29/43/18 24/37/18
f 23/38/19 28/44/19 27/45/19 22/39/19
f 24/32/20 29/46/20 28/47/20 23/33/20
f 29/46/21 34/48/21 33/49/21 28/47/21
f 27/40/22 32/50/22 31/51/22 26/41/22
f 30/42/23 35/52/23 34/53/23 29/43/23
f 28/44/24 33/54/24 32/55/24 27/45/24
f 33/49/25 34/48/25 35/56/25 36/57/25
f 31/58/25 32/59/25 33/49/25 36/57/25
f 47/1/26 46/4/26 40/3/26 41/2/26
f 48/5/27 47/8/27 41/7/27 42/6/27
f 46/9/28 18/12/28 6/11/28 40/10/28
f 19/13/29 48/16/29 42/15/29 10/14/29
f 42/6/30 41/7/30 44/18/30 45/17/30
f 40/10/31 6/11/31 11/20/31 43/19/31
f 10/14/32 42/15/32 45/22/32 15/21/32
f 41/2/33 40/3/33 43/24/33 44/23/33
f 5/25/34 39/26/34 48/16/34 19/13/34
f 37/27/35 1/28/35 18/12/35 46/9/35
f 39/28/36 38/29/36 47/8/36 48/5/36
f 38/30/37 37/31/37 46/4/37 47/1/37
f 45/17/38 44/18/38 50/33/38 51/32/38
f 43/19/39 11/20/39 21/35/39 49/34/39
f 15/21/40 45/22/40 51/37/40 25/36/40
f 44/23/41 43/24/41 49/39/41 50/38/41
f 49/34/42 21/35/42 26/41/42 52/40/42
f 25/36/43 51/37/43 54/43/43 30/42/43
f 50/38/44 49/39/44 52/45/44 53/44/44
f 51/32/45 50/33/45 53/47/45 54/46/45
f 54/46/46 53/47/46 56/49/46 57/48/46
f 52/40/47 26/41/47 31/51/47 55/50/47
f 30/42/48 54/43/48 57/53/48 35/52/48
f 53/44/49 52/45/49 55/55/49 56/54/49
f 56/49/25 36/57/25 35/56/25 57/48/25
f 31/58/25 36/57/25 56/49/25 55/59/25
