# Blender 4.2.0
# www.blender.org
mtllib ColumnBrick01.mtl
o ColumnBrick01
v 0.431250 3.750000 -0.431250
v 0.431250 0.000000 -0.431250
v 0.431250 3.750000 0.431250
v 0.431250 0.000000 0.431250
v -0.431250 3.750000 -0.431250
v -0.431250 0.000000 -0.431250
v -0.431250 3.750000 0.431250
v -0.431250 0.000000 0.431250
vn -0.0000 -0.0000 1.0000
vn -1.0000 -0.0000 -0.0000
vn 1.0000 -0.0000 -0.0000
vn -0.0000 -0.0000 -1.0000
vt 0.333333 0.000000
vt 0.666667 1.000000
vt 0.333333 1.000000
vt 1.000000 1.000000
vt 0.666647 0.000058
vt 0.999942 0.000058
vt 0.000058 0.000058
vt 0.333353 0.000058
vt 0.666667 0.000000
vt 0.000000 1.000000
s 0
usemtl Material
f 3/1/1 8/2/1 4/3/1
f 7/4/2 6/5/2 8/6/2
f 1/3/3 4/7/3 2/8/3
f 5/2/4 2/8/4 6/5/4
f 3/1/1 7/9/1 8/2/1
f 7/4/2 5/2/2 6/5/2
f 1/3/3 3/10/3 4/7/3
f 5/2/4 1/3/4 2/8/4
