# Blender 4.2.0
# www.blender.org
mtllib PottedHedge01.mtl
o PottedHedge01
v 1.150000 0.700000 -0.345000
v 1.000000 0.000000 -0.300000
v 1.150000 0.700000 0.345000
v 1.000000 0.000000 0.300000
v -1.150000 0.700000 -0.345000
v -1.000000 0.000000 -0.300000
v -1.150000 0.700000 0.345000
v -1.000000 0.000000 0.300000
v 0.882000 0.700000 -0.189000
v 0.882000 0.700000 0.189000
v -0.882000 0.700000 -0.189000
v -0.882000 0.700000 0.189000
v 0.800834 2.478730 -0.210000
v 0.800834 2.478730 0.210000
v -0.800834 2.478730 -0.210000
v -0.800834 2.478730 0.210000
v -0.926100 0.700000 0.000000
v 0.926100 0.700000 0.000000
v -0.840875 2.499994 0.000000
v 0.840875 2.499994 0.000000
v 0.000000 0.700000 -0.189000
v 0.000000 0.700000 0.189000
v 0.000000 2.478730 -0.210000
v 0.000000 2.478730 0.210000
v 0.000000 2.499994 0.000000
v -0.981962 2.229023 0.210000
v 0.979902 2.229023 0.210000
v -0.981962 2.229023 -0.210000
v 0.979902 2.229023 -0.210000
v 1.029000 2.229023 -0.000435
v -1.031060 2.229023 -0.000435
v 0.000000 2.229023 -0.210000
v 0.000000 2.229023 0.210000
vn -0.0000 1.0000 -0.0000
vn -0.0000 -0.0642 0.9979
vn -0.9778 -0.2095 -0.0000
vn -0.0000 -1.0000 -0.0000
vn 0.9778 -0.2095 -0.0000
vn -0.0000 -0.0642 -0.9979
vn -0.0000 -0.9949 -0.1007
vn -0.0000 -0.0000 -1.0000
vn 0.8037 -0.5644 0.1883
vn -0.8069 -0.5599 -0.1883
vn -0.0000 -0.0000 1.0000
vn -0.7947 -0.5699 0.2092
vn 0.7916 -0.5742 -0.2091
vn -0.0000 -0.9949 0.1007
vn -0.0000 0.0137 -0.9999
vn -0.0000 0.0137 0.9999
vn 0.9717 0.0666 -0.2267
vn -0.9718 0.0653 0.2267
vn -0.9718 0.0653 -0.2267
vn 0.9715 0.0668 0.2276
vn 0.7916 -0.5742 0.2091
vn -0.7947 -0.5699 -0.2092
vn -0.8065 -0.5602 0.1890
vn 0.8041 -0.5641 -0.1876
vn -0.9715 0.0654 0.2276
vn 0.9717 0.0666 0.2267
vt 1.000000 0.000000
vt 0.000000 0.250000
vt 0.000000 0.000000
vt 1.000000 0.500000
vt 0.062500 0.250000
vt 0.929688 0.250000
vt 0.781250 0.500000
vt 0.515625 0.250000
vt 0.765625 0.250000
vt 0.375000 0.500000
vt 0.125000 0.750000
vt 0.125000 0.500000
vt 0.492188 0.500000
vt 0.218750 0.250000
vt 0.476562 0.250000
vt 0.000000 0.500000
vt 0.257812 0.511719
vt 0.257812 0.750000
vt 0.500000 0.929688
vt 0.945312 1.000000
vt 0.500000 1.000000
vt 0.242188 0.910156
vt 0.125000 1.000000
vt 0.125000 0.910156
vt 0.484375 0.910156
vt 0.351562 1.000000
vt 0.351562 0.910156
vt 0.953125 1.000000
vt 0.250000 0.910156
vt 0.242188 1.000000
vt 0.000000 0.910156
vt 0.000000 1.000000
vt 0.000000 0.511719
vt 0.000000 0.750000
vt 0.000000 0.988281
vt 0.046875 1.000000
vt -0.054688 0.929688
vt 0.046875 0.996094
vt -0.054688 0.925781
vt 0.257812 0.988281
vt -0.046875 0.500000
vt 0.359375 0.500000
vt 0.242188 0.500000
vt 1.054688 0.500000
vt 0.500000 0.500000
vt 1.046875 0.500000
vt 1.000000 0.250000
vt 0.375000 0.750000
vt 0.203125 0.500000
vt 1.046875 0.929688
vt 0.484375 1.000000
vt 1.054688 0.929688
vt 0.484375 0.500000
s 0
usemtl Primary
f 5/1/1 3/2/1 1/3/1
f 3/4/2 8/5/2 4/6/2
f 7/7/3 6/8/3 8/9/3
f 2/10/4 8/11/4 6/12/4
f 1/13/5 4/14/5 2/15/5
f 5/16/6 2/6/6 6/5/6
f 25/11/7 14/17/7 24/18/7
f 33/19/8 16/20/8 24/21/8
f 28/22/9 19/23/9 31/24/9
f 27/25/10 20/26/10 30/27/10
f 32/19/11 13/28/11 23/21/11
f 29/29/12 20/26/12 13/30/12
f 26/31/13 19/23/13 16/32/13
f 13/33/14 25/11/14 23/34/14
f 15/35/14 25/11/14 19/23/14
f 32/19/11 15/36/11 28/37/11
f 33/19/8 14/38/8 27/39/8
f 25/11/7 16/40/7 19/23/7
f 10/41/15 33/19/15 27/39/15
f 11/41/16 32/19/16 28/37/16
f 17/12/17 26/31/17 12/16/17
f 18/42/18 29/29/18 9/43/18
f 9/44/16 32/19/16 21/45/16
f 18/42/19 27/25/19 30/27/19
f 17/12/20 28/22/20 31/24/20
f 12/46/15 33/19/15 22/45/15
f 5/1/1 7/47/1 3/2/1
f 3/4/2 7/16/2 8/5/2
f 7/7/3 5/13/3 6/8/3
f 2/10/4 4/48/4 8/11/4
f 1/13/5 3/49/5 4/14/5
f 5/16/6 1/4/6 2/6/6
f 25/11/7 20/12/7 14/17/7
f 33/19/8 26/50/8 16/20/8
f 28/22/21 15/30/21 19/23/21
f 27/25/22 14/51/22 20/26/22
f 32/19/11 29/52/11 13/28/11
f 29/29/23 30/27/23 20/26/23
f 26/31/24 31/24/24 19/23/24
f 13/33/14 20/12/14 25/11/14
f 15/35/14 23/34/14 25/11/14
f 32/19/11 23/21/11 15/36/11
f 33/19/8 24/21/8 14/38/8
f 25/11/7 24/18/7 16/40/7
f 10/41/15 22/45/15 33/19/15
f 11/41/16 21/45/16 32/19/16
f 17/12/17 31/24/17 26/31/17
f 18/42/25 30/27/25 29/29/25
f 9/44/16 29/52/16 32/19/16
f 18/42/19 10/53/19 27/25/19
f 17/12/26 11/43/26 28/22/26
f 12/46/15 26/50/15 33/19/15
