# Blender 4.2.0
# www.blender.org
mtllib BarrelWood01.mtl
o BarrelWood01
v -0.000000 0.180000 -0.350000
v -0.000000 1.230000 -0.350000
v 0.247487 0.180000 -0.247487
v 0.247487 1.230000 -0.247487
v 0.350000 0.180000 0.000000
v 0.350000 1.230000 0.000000
v 0.247487 0.180000 0.247487
v 0.247487 1.230000 0.247487
v -0.000000 0.180000 0.350000
v -0.000000 1.230000 0.350000
v -0.247487 0.180000 0.247487
v -0.247487 1.230000 0.247487
v -0.350000 0.180000 0.000000
v -0.350000 1.230000 0.000000
v -0.247487 0.180000 -0.247487
v -0.247487 1.230000 -0.247487
v -0.000000 0.320000 -0.385000
v -0.000000 1.090000 -0.385000
v 0.272236 1.090000 -0.272236
v 0.272236 0.320000 -0.272236
v 0.385000 1.090000 0.000000
v 0.385000 0.320000 0.000000
v 0.272236 1.090000 0.272236
v 0.272236 0.320000 0.272236
v -0.000000 1.090000 0.385000
v -0.000000 0.320000 0.385000
v -0.272236 1.090000 0.272236
v -0.272236 0.320000 0.272236
v -0.385000 1.090000 0.000000
v -0.385000 0.320000 0.000000
v -0.272236 1.090000 -0.272236
v -0.272236 0.320000 -0.272236
v -0.000000 0.180000 -0.350000
v 0.247487 0.180000 -0.247487
v 0.350000 0.180000 0.000000
v 0.247487 0.180000 0.247487
v -0.000000 0.180000 0.350000
v -0.247487 0.180000 0.247487
v -0.350000 0.180000 0.000000
v -0.247487 0.180000 -0.247487
vn 0.3729 0.2250 -0.9002
vn 0.9002 0.2250 -0.3729
vn 0.9002 0.2250 0.3729
vn 0.3729 0.2250 0.9002
vn -0.3729 0.2250 0.9002
vn -0.9002 0.2250 0.3729
vn -0.0000 1.0000 -0.0000
vn -0.9002 0.2250 -0.3729
vn -0.3729 0.2250 -0.9002
vn -0.3729 -0.2250 -0.9002
vn -0.3827 -0.0000 -0.9239
vn -0.9002 -0.2250 -0.3729
vn -0.9239 -0.0000 -0.3827
vn -0.9002 -0.2250 0.3729
vn -0.9239 -0.0000 0.3827
vn -0.3729 -0.2250 0.9002
vn -0.3827 -0.0000 0.9239
vn 0.3729 -0.2250 0.9002
vn 0.3827 -0.0000 0.9239
vn 0.9002 -0.2250 0.3729
vn 0.9239 -0.0000 0.3827
vn 0.9002 -0.2250 -0.3729
vn 0.9239 -0.0000 -0.3827
vn 0.3729 -0.2250 -0.9002
vn 0.3827 -0.0000 -0.9239
vn -0.0000 -1.0000 -0.0000
vt 0.265625 0.854167
vt 0.171875 0.916667
vt 0.171875 0.854167
vt 0.078125 0.854167
vt 0.000000 0.916667
vt 0.000000 0.854167
vt 0.734375 0.916667
vt 0.640625 0.854167
vt 0.734375 0.854167
vt 0.640625 0.916667
vt 0.546875 0.854167
vt 0.546875 0.916667
vt 0.453125 0.854167
vt 1.000000 0.479167
vt 0.812500 0.354167
vt 0.921875 0.354167
vt 0.453125 0.916667
vt 0.359375 0.854167
vt 0.359375 0.916667
vt 0.921875 0.729167
vt 0.734375 0.625000
vt 1.000000 0.625000
vt 0.734375 0.479167
vt 0.359375 0.208333
vt 0.265625 0.145833
vt 0.359375 0.145833
vt 0.265625 0.208333
vt 0.453125 0.208333
vt 0.453125 0.145833
vt 0.546875 0.208333
vt 0.546875 0.145833
vt 0.640625 0.208333
vt 0.640625 0.145833
vt 0.734375 0.208333
vt 0.734375 0.145833
vt 0.078125 0.208333
vt 0.000000 0.145833
vt 0.078125 0.145833
vt 0.000000 0.208333
vt 0.171875 0.208333
vt 0.171875 0.145833
vt 0.265625 0.916667
vt 0.078125 0.916667
vt 0.812500 0.729167
s 0
usemtl Primary
f 18/1/1 4/2/1 19/3/1
f 4/2/2 21/4/2 19/3/2
f 21/4/3 8/5/3 23/6/3
f 8/7/4 25/8/4 23/9/4
f 10/10/5 27/11/5 25/8/5
f 12/12/6 29/13/6 27/11/6
f 6/14/7 10/15/7 8/16/7
f 14/17/8 31/18/8 29/13/8
f 16/19/9 18/1/9 31/18/9
f 2/20/7 14/21/7 4/22/7
f 6/14/7 14/21/7 12/23/7
f 32/24/10 1/25/10 15/26/10
f 31/18/11 17/27/11 32/24/11
f 30/28/12 15/26/12 13/29/12
f 29/13/13 32/24/13 30/28/13
f 28/30/14 13/29/14 11/31/14
f 27/11/15 30/28/15 28/30/15
f 26/32/16 11/31/16 9/33/16
f 25/8/17 28/30/17 26/32/17
f 24/34/18 9/33/18 7/35/18
f 23/9/19 26/32/19 24/34/19
f 22/36/20 7/37/20 5/38/20
f 21/4/21 24/39/21 22/36/21
f 20/40/22 5/38/22 3/41/22
f 19/3/23 22/36/23 20/40/23
f 17/27/24 3/41/24 1/25/24
f 18/1/25 20/40/25 17/27/25
f 37/15/26 35/14/26 36/16/26
f 39/21/26 33/20/26 34/22/26
f 38/23/26 34/22/26 35/14/26
f 18/1/1 2/42/1 4/2/1
f 4/2/2 6/43/2 21/4/2
f 21/4/3 6/43/3 8/5/3
f 8/7/4 10/10/4 25/8/4
f 10/10/5 12/12/5 27/11/5
f 12/12/6 14/17/6 29/13/6
f 6/14/7 12/23/7 10/15/7
f 14/17/8 16/19/8 31/18/8
f 16/19/9 2/42/9 18/1/9
f 2/20/7 16/44/7 14/21/7
f 6/14/7 4/22/7 14/21/7
f 32/24/10 17/27/10 1/25/10
f 31/18/11 18/1/11 17/27/11
f 30/28/12 32/24/12 15/26/12
f 29/13/13 31/18/13 32/24/13
f 28/30/14 30/28/14 13/29/14
f 27/11/15 29/13/15 30/28/15
f 26/32/16 28/30/16 11/31/16
f 25/8/17 27/11/17 28/30/17
f 24/34/18 26/32/18 9/33/18
f 23/9/19 25/8/19 26/32/19
f 22/36/20 24/39/20 7/37/20
f 21/4/21 23/6/21 24/39/21
f 20/40/22 22/36/22 5/38/22
f 19/3/23 21/4/23 22/36/23
f 17/27/24 20/40/24 3/41/24
f 18/1/25 19/3/25 20/40/25
f 37/15/26 38/23/26 35/14/26
f 39/21/26 40/44/26 33/20/26
f 38/23/26 39/21/26 34/22/26
