# Blender 4.2.0
# www.blender.org
mtllib Barrel02.mtl
o Barrel02
v 0.000000 0.000000 -0.353812
v 0.000000 1.200000 -0.365359
v 0.306410 0.000000 -0.176906
v 0.316410 1.200000 -0.182679
v 0.306410 0.000000 0.176906
v 0.316410 1.200000 0.182679
v 0.000000 0.000000 0.353812
v 0.000000 1.200000 0.365359
v -0.306410 0.000000 0.176906
v -0.316410 1.200000 0.182679
v -0.306410 0.000000 -0.176906
v -0.316410 1.200000 -0.182679
v 0.346410 1.200000 -0.200000
v 0.000000 1.200000 -0.400000
v 0.346410 1.200000 0.200000
v 0.000000 1.200000 0.400000
v -0.346410 1.200000 0.200000
v -0.346410 1.200000 -0.200000
v 0.316410 1.160000 -0.182679
v 0.000000 1.160000 -0.365359
v 0.316410 1.160000 0.182679
v 0.000000 1.160000 0.365359
v -0.316410 1.160000 0.182679
v -0.316410 1.160000 -0.182679
v 0.000000 0.000000 -0.400000
v 0.346410 0.000000 -0.200000
v 0.346410 0.000000 0.200000
v 0.000000 0.000000 0.400000
v -0.346410 0.000000 0.200000
v -0.346410 0.000000 -0.200000
v 0.000000 0.040000 -0.353812
v 0.306410 0.040000 -0.176906
v 0.306410 0.040000 0.176906
v 0.000000 0.040000 0.353812
v -0.306410 0.040000 0.176906
v -0.306410 0.040000 -0.176906
vn 0.5000 -0.0000 -0.8660
vn 1.0000 -0.0000 -0.0000
vn 0.5000 -0.0000 0.8660
vn -0.5000 -0.0000 0.8660
vn -1.0000 -0.0000 -0.0000
vn -0.5000 -0.0000 -0.8660
vn -0.0000 1.0000 -0.0000
vn -0.0000 -1.0000 -0.0000
vt 0.265306 0.846939
vt 0.729592 0.693878
vt 0.729592 0.846939
vt 0.265306 0.693878
vt 0.729592 0.540816
vt 0.265306 0.540816
vt 0.729592 0.382653
vt 0.265306 0.382653
vt 0.729592 0.229592
vt 0.280612 0.382653
vt 0.280612 0.540816
vt 0.265306 0.229592
vt 0.729592 0.076531
vt 0.265306 1.000000
vt 0.729592 1.000000
vt 0.729592 0.168367
vt 0.714286 0.035714
vt 0.729592 0.035714
vt 0.133230 0.013380
vt 0.015306 0.076531
vt 0.133308 0.000100
vt 0.025474 0.223206
vt 0.025500 0.083206
vt 0.132658 0.297366
vt 0.015306 0.229592
vt 0.250000 0.229592
vt 0.132653 0.311224
vt 0.239868 0.083206
vt 0.239843 0.223206
vt 0.250000 0.076531
vt 0.280612 0.076531
vt 0.280612 0.229592
vt 0.280612 0.846939
vt 0.280612 0.693878
vt 0.280612 1.000000
vt 0.861711 0.017807
vt 0.984694 0.076531
vt 0.970596 0.085432
vt 0.984694 0.229592
vt 0.970650 0.221071
vt 0.862245 0.311224
vt 0.862608 0.292756
vt 0.744898 0.229592
vt 0.758544 0.221071
vt 0.744898 0.076531
vt 0.758490 0.085432
vt 0.861170 0.000100
vt 0.714286 0.913265
vt 0.729592 0.913265
vt 0.729592 0.755102
vt 0.714286 0.627551
vt 0.729592 0.627551
vt 0.729592 0.418367
vt 0.714286 0.168367
vt 0.714286 0.755102
vt 0.714286 0.418367
vt 0.265306 0.076531
vt 0.714286 1.000000
s 0
usemtl Barrel02
f 14/1/1 26/2/1 25/3/1
f 13/4/2 27/5/2 26/2/2
f 15/6/3 28/7/3 27/5/3
f 16/8/4 29/9/4 28/7/4
f 12/10/3 20/6/3 2/11/3
f 17/12/5 30/13/5 29/9/5
f 18/14/6 25/3/6 30/15/6
f 3/16/4 31/17/4 1/18/4
f 2/19/7 13/20/7 14/21/7
f 6/22/7 13/20/7 4/23/7
f 8/24/7 15/25/7 6/22/7
f 8/24/7 17/26/7 16/27/7
f 12/28/7 17/26/7 10/29/7
f 2/19/7 18/30/7 12/28/7
f 20/19/7 23/29/7 21/22/7
f 8/31/1 23/12/1 10/32/1
f 4/33/5 21/4/5 6/34/5
f 10/32/2 24/8/2 12/10/2
f 6/34/6 22/6/6 8/11/6
f 2/35/4 19/1/4 4/33/4
f 1/36/8 26/37/8 3/38/8
f 3/38/8 27/39/8 5/40/8
f 5/40/8 28/41/8 7/42/8
f 7/42/8 29/43/8 9/44/8
f 9/44/8 30/45/8 11/46/8
f 11/46/8 25/47/8 1/36/8
f 32/38/8 34/42/8 36/46/8
f 1/15/3 36/48/3 11/49/3
f 9/50/1 34/51/1 7/52/1
f 5/53/5 32/54/5 3/16/5
f 11/49/2 35/55/2 9/50/2
f 7/52/6 33/56/6 5/53/6
f 14/1/1 13/4/1 26/2/1
f 13/4/2 15/6/2 27/5/2
f 15/6/3 16/8/3 28/7/3
f 16/8/4 17/12/4 29/9/4
f 12/10/3 24/8/3 20/6/3
f 17/12/5 18/57/5 30/13/5
f 18/14/6 14/1/6 25/3/6
f 3/16/4 32/54/4 31/17/4
f 2/19/7 4/23/7 13/20/7
f 6/22/7 15/25/7 13/20/7
f 8/24/7 16/27/7 15/25/7
f 8/24/7 10/29/7 17/26/7
f 12/28/7 18/30/7 17/26/7
f 2/19/7 14/21/7 18/30/7
f 21/22/7 19/23/7 20/19/7
f 20/19/7 24/28/7 23/29/7
f 23/29/7 22/24/7 21/22/7
f 8/31/1 22/57/1 23/12/1
f 4/33/5 19/1/5 21/4/5
f 10/32/2 23/12/2 24/8/2
f 6/34/6 21/4/6 22/6/6
f 2/35/4 20/14/4 19/1/4
f 1/36/8 25/47/8 26/37/8
f 3/38/8 26/37/8 27/39/8
f 5/40/8 27/39/8 28/41/8
f 7/42/8 28/41/8 29/43/8
f 9/44/8 29/43/8 30/45/8
f 11/46/8 30/45/8 25/47/8
f 36/46/8 31/36/8 32/38/8
f 32/38/8 33/40/8 34/42/8
f 34/42/8 35/44/8 36/46/8
f 1/15/3 31/58/3 36/48/3
f 9/50/1 35/55/1 34/51/1
f 5/53/5 33/56/5 32/54/5
f 11/49/2 36/48/2 35/55/2
f 7/52/6 34/51/6 33/56/6
