# Blender 4.2.0
# www.blender.org
mtllib Billboard01.mtl
o Billboard01
v 0.495000 4.875000 -0.225000
v 0.495000 0.000000 -0.225000
v 0.495000 4.875000 0.225000
v 0.495000 0.000000 0.225000
v -0.495000 4.875000 -0.225000
v -0.495000 0.000000 -0.225000
v -0.495000 4.875000 0.225000
v -0.495000 0.000000 0.225000
v 1.715723 5.129206 -0.225000
v 1.715723 5.129206 0.225000
v -2.769473 5.129206 -0.225000
v -2.769473 5.129206 0.225000
v 1.715723 8.204183 -0.225000
v 1.715723 8.204183 0.225000
v -2.769473 8.204183 -0.225000
v -2.769473 8.204183 0.225000
v 1.905000 4.875000 0.225000
v -2.958750 4.875000 0.225000
v -2.958750 4.875000 -0.225000
v 1.905000 4.875000 -0.225000
v 1.905000 8.399321 0.225000
v -2.958750 8.399321 0.225000
v -2.958750 8.399321 -0.225000
v 1.905000 8.399321 -0.225000
v 1.715723 5.129206 0.168750
v -2.769473 5.129206 0.168750
v -2.769473 5.129206 -0.168750
v 1.715723 5.129206 -0.168750
v 1.715723 8.204183 0.168750
v -2.769473 8.204183 0.168750
v -2.769473 8.204183 -0.168750
v 1.715723 8.204183 -0.168750
vn -0.0000 -0.0000 1.0000
vn -1.0000 -0.0000 -0.0000
vn 1.0000 -0.0000 -0.0000
vn -0.0000 -0.0000 -1.0000
vn -0.0000 -1.0000 -0.0000
vn -0.0000 1.0000 -0.0000
vt 0.625000 0.459459
vt 0.000000 0.540541
vt 0.000000 0.459459
vt 0.000000 0.506757
vt 0.625000 0.533784
vt 0.625000 0.506757
vt 0.000000 0.533784
vt 0.395833 0.533784
vt 0.395833 0.506757
vt 0.968750 0.972973
vt 0.000000 1.000000
vt 0.031250 0.972973
vt 1.000000 1.000000
vt 0.031250 0.560811
vt 1.000000 0.540541
vt 0.968750 0.560811
vt 0.968750 0.027027
vt 0.031250 0.445946
vt 0.031250 0.027027
vt 0.031250 0.979730
vt 0.000000 0.979730
vt -0.000000 0.560811
vt 0.031250 1.000000
vt 0.968750 0.979730
vt 0.625000 0.540541
vt 0.968750 0.445946
vt 0.968750 1.000000
s 0
usemtl Primary
f 3/1/1 8/2/1 4/3/1
f 7/4/2 6/5/2 8/6/2
f 1/7/3 4/6/3 2/5/3
f 5/1/4 2/2/4 6/3/4
f 17/7/5 19/6/5 20/4/5
f 23/6/6 21/7/6 24/4/6
f 20/4/3 21/8/3 17/7/3
f 18/7/2 23/9/2 19/4/2
f 12/10/1 17/11/1 10/12/1
f 11/12/4 20/13/4 19/11/4
f 14/14/1 22/15/1 16/16/1
f 15/14/4 24/15/4 13/16/4
f 11/12/4 23/2/4 15/14/4
f 9/10/4 24/15/4 20/13/4
f 10/12/1 21/2/1 14/14/1
f 12/10/1 22/15/1 18/13/1
f 27/17/4 32/18/4 28/19/4
f 25/16/1 30/20/1 26/14/1
f 10/14/2 13/21/2 9/22/2
f 9/23/6 12/24/6 10/20/6
f 16/20/3 11/22/3 15/21/3
f 16/24/5 13/23/5 14/20/5
f 3/1/1 7/25/1 8/2/1
f 7/4/2 5/7/2 6/5/2
f 1/7/3 3/4/3 4/6/3
f 5/1/4 1/25/4 2/2/4
f 17/7/5 18/5/5 19/6/5
f 23/6/6 22/5/6 21/7/6
f 20/4/3 24/9/3 21/8/3
f 18/7/2 22/8/2 23/9/2
f 12/10/1 18/13/1 17/11/1
f 11/12/4 9/10/4 20/13/4
f 14/14/1 21/2/1 22/15/1
f 15/14/4 23/2/4 24/15/4
f 11/12/4 19/11/4 23/2/4
f 9/10/4 13/16/4 24/15/4
f 10/12/1 17/11/1 21/2/1
f 12/10/1 16/16/1 22/15/1
f 27/17/4 31/26/4 32/18/4
f 25/16/1 29/24/1 30/20/1
f 10/14/2 14/20/2 13/21/2
f 9/23/6 11/27/6 12/24/6
f 16/20/3 12/14/3 11/22/3
f 16/24/5 15/27/5 13/23/5
