# Blender 4.2.0
# www.blender.org
mtllib Crate01.mtl
o Crate01
v 0.937500 0.515000 -0.312500
v 1.000000 0.015000 -0.375000
v 0.937500 0.515000 0.312500
v 1.000000 0.015000 0.375000
v -0.937500 0.515000 -0.312500
v -1.000000 0.015000 -0.375000
v -0.937500 0.515000 0.312500
v -1.000000 0.015000 0.375000
v 1.000000 0.515000 0.375000
v -1.000000 0.515000 0.375000
v 1.000000 0.515000 -0.375000
v -1.000000 0.515000 -0.375000
v 0.937500 0.077500 0.312500
v -0.937500 0.077500 0.312500
v 0.937500 0.077500 -0.312500
v -0.937500 0.077500 -0.312500
vn 1.0000 -0.0000 -0.0000
vn -0.0000 -0.0000 1.0000
vn -1.0000 -0.0000 -0.0000
vn -0.0000 -1.0000 -0.0000
vn -0.0000 -0.0000 -1.0000
vn -0.0000 1.0000 -0.0000
vt 0.101884 0.017104
vt 0.220574 0.186662
vt 0.101884 0.186661
vt 1.000000 0.953740
vt 0.000000 0.546943
vt 1.000000 0.546942
vt 0.816352 0.406797
vt 0.612884 -0.000000
vt 0.816352 -0.000000
vt 1.000000 0.016277
vt 0.000000 0.437480
vt -0.000000 0.016277
vt 0.203617 0.406797
vt 0.000149 0.000000
vt 0.203617 0.000000
vt 1.000000 0.406797
vt 0.000000 0.000000
vt 1.000000 -0.000000
vt 0.729245 0.305352
vt 0.203618 0.322308
vt 0.220574 0.305351
vt 0.847935 0.017106
vt 0.864890 0.203618
vt 0.847935 0.186662
vt 0.084929 0.000149
vt 0.729245 0.017105
vt 0.729245 0.186662
vt 0.729245 0.186662
vt 0.220574 0.017105
vt 0.000000 0.953740
vt 0.612884 0.406797
vt 1.000000 0.437480
vt 0.000149 0.406797
vt 0.000000 0.406797
vt 0.746201 0.322308
vt 0.864891 0.000150
vt 0.084929 0.203617
vt 0.220574 0.186662
s 0
usemtl Primary
f 7/1/1 16/2/1 5/3/1
f 9/4/2 8/5/2 4/6/2
f 10/7/3 6/8/3 8/9/3
f 2/10/4 8/11/4 6/12/4
f 11/13/1 4/14/1 2/15/1
f 12/16/5 2/17/5 6/18/5
f 7/19/6 9/20/6 3/21/6
f 3/22/6 11/23/6 1/24/6
f 5/3/6 10/25/6 7/1/6
f 1/19/6 12/20/6 5/21/6
f 16/2/6 13/26/6 15/27/6
f 3/21/5 14/28/5 7/19/5
f 5/21/2 15/27/2 1/19/2
f 1/24/3 13/26/3 3/22/3
f 7/1/1 14/29/1 16/2/1
f 9/4/2 10/30/2 8/5/2
f 10/7/3 12/31/3 6/8/3
f 2/10/4 4/32/4 8/11/4
f 11/13/1 9/33/1 4/14/1
f 12/16/5 11/34/5 2/17/5
f 7/19/6 10/35/6 9/20/6
f 3/22/6 9/36/6 11/23/6
f 5/3/6 12/37/6 10/25/6
f 1/19/6 11/35/6 12/20/6
f 16/2/6 14/29/6 13/26/6
f 3/21/5 13/38/5 14/28/5
f 5/21/2 16/2/2 15/27/2
f 1/24/3 15/27/3 13/26/3
o Crate01Lid
v -1.000000 0.515000 0.375000
v -1.000000 0.577500 0.375000
v -1.000000 0.515000 -0.375000
v -1.000000 0.577500 -0.375000
v 1.000000 0.515000 0.375000
v 1.000000 0.577500 0.375000
v 1.000000 0.515000 -0.375000
v 1.000000 0.577500 -0.375000
v -0.687500 0.577500 0.375000
v -0.562500 0.577500 0.375000
v -0.562500 0.577500 0.375000
v -0.687500 0.577500 0.375000
vn -1.0000 -0.0000 -0.0000
vn -0.0000 -0.0000 -1.0000
vn 1.0000 -0.0000 -0.0000
vn -0.0000 -0.0000 1.0000
vn -0.0000 -1.0000 -0.0000
vn -0.0000 1.0000 -0.0000
vt 0.816352 0.999769
vt 0.612884 0.969086
vt 0.816352 0.969086
vt -0.000000 0.969086
vt 1.000000 0.999769
vt -0.000000 0.999769
vt 0.612884 0.969086
vt 0.816352 0.999769
vt 0.612884 0.999769
vt 0.000000 0.969086
vt 1.000000 0.969086
vt 0.000000 0.437480
vt 1.000000 -0.000000
vt 1.000000 0.437480
vt 0.000000 0.437480
vt 1.000000 0.000000
vt 1.000000 0.437480
vt 0.612884 0.999769
vt 1.000000 0.969086
vt 0.816352 0.969086
vt 0.000000 0.999769
vt 0.000000 0.000000
vt 0.000000 -0.000000
s 0
usemtl Primary
f 18/39/7 19/40/7 17/41/7
f 20/42/8 23/43/8 19/44/8
f 24/45/9 21/46/9 23/47/9
f 22/43/10 17/48/10 21/49/10
f 23/50/11 17/51/11 19/52/11
f 20/53/12 22/54/12 24/55/12
f 18/39/7 20/56/7 19/40/7
f 20/42/8 24/57/8 23/43/8
f 24/45/9 22/58/9 21/46/9
f 22/43/10 18/59/10 17/48/10
f 23/50/11 21/60/11 17/51/11
f 20/53/12 18/61/12 22/54/12
l 26 27
l 28 25
