# Blender 4.2.0
# www.blender.org
mtllib Crate02.mtl
o Crate02
v 0.500000 1.000000 -0.500000
v 0.500000 0.000000 -0.500000
v 0.500000 1.000000 0.500000
v 0.500000 0.000000 0.500000
v -0.500000 1.000000 -0.500000
v -0.500000 0.000000 -0.500000
v -0.500000 1.000000 0.500000
v -0.500000 0.000000 0.500000
vn -0.0000 1.0000 -0.0000
vn -0.0000 -0.0000 1.0000
vn -1.0000 -0.0000 -0.0000
vn 1.0000 -0.0000 -0.0000
vn -0.0000 -0.0000 -1.0000
vt -0.000000 0.500000
vt 0.516602 1.000000
vt 0.000000 1.000000
vt 0.488297 0.488296
vt -0.000000 0.000000
vt 0.488296 -0.000000
vt 1.000000 0.488296
vt 0.488297 0.000000
vt 1.000000 -0.000000
vt 1.000000 0.488247
vt 0.488297 0.000000
vt 1.000000 -0.000000
vt 0.488297 0.488296
vt 0.000000 -0.000000
vt 0.516601 0.500000
vt 0.000000 0.488297
vt 0.488297 0.488296
vt 0.488297 0.488247
vt -0.000000 0.488296
s 0
usemtl Primary
f 5/1/1 3/2/1 1/3/1
f 3/4/2 8/5/2 4/6/2
f 7/7/3 6/8/3 8/9/3
f 1/10/4 4/11/4 2/12/4
f 5/13/5 2/14/5 6/11/5
f 5/1/1 7/15/1 3/2/1
f 3/4/2 7/16/2 8/5/2
f 7/7/3 5/17/3 6/8/3
f 1/10/4 3/18/4 4/11/4
f 5/13/5 1/19/5 2/14/5
