# Blender 4.2.0
# www.blender.org
mtllib Crate03b.mtl
o Crate03b
v 0.250000 0.000000 -0.500000
v 0.250000 0.000000 0.500000
v -0.250000 0.000000 -0.500000
v -0.250000 0.000000 0.500000
v 0.208473 0.260526 -0.458473
v -0.208473 0.260526 0.458473
v 0.208473 0.260526 0.458473
v -0.208473 0.260526 -0.458473
v -0.250000 0.260526 -0.500000
v 0.250000 0.260526 -0.500000
v 0.250000 0.260526 0.500000
v -0.250000 0.260526 0.500000
v -0.208473 0.023026 -0.458473
v 0.208473 0.023026 -0.458473
v 0.208473 0.023026 0.458473
v -0.208473 0.023026 0.458473
vn -0.0000 -1.0000 -0.0000
vn -0.0000 -0.0000 -1.0000
vn 1.0000 -0.0000 -0.0000
vn -1.0000 -0.0000 -0.0000
vn -0.0000 -0.0000 1.0000
vn -0.0000 1.0000 -0.0000
vt 0.500000 1.000000
vt 0.000000 0.833333
vt 0.500000 0.833333
vt 0.518456 0.449122
vt 0.875501 0.333332
vt 0.518456 0.333332
vt 0.500000 0.449122
vt 0.003155 0.333332
vt 0.500000 0.333332
vt 0.500000 0.615789
vt 0.000000 0.499999
vt 0.500000 0.499999
vt 0.875501 0.449122
vt 0.518456 0.333332
vt 0.875501 0.333332
vt 0.501062 0.448922
vt 0.852533 0.334233
vt 0.852533 0.448922
vt 0.479236 0.013842
vt 0.500000 0.166667
vt 0.479236 0.152824
vt 0.020764 0.013842
vt 0.500000 0.000000
vt 0.000000 0.166667
vt 0.020764 0.152824
vt 0.000000 0.000000
vt 0.034715 0.150425
vt 0.474007 0.016303
vt 0.473094 0.150796
vt 0.501062 0.334233
vt 0.000000 0.448265
vt 0.500374 0.344811
vt 0.500374 0.448265
vt 0.500374 0.604318
vt 0.000000 0.500864
vt 0.000000 0.604318
vt 0.000000 1.000000
vt 0.875501 0.449122
vt 0.003155 0.449122
vt 0.000000 0.615789
vt 0.518456 0.449122
vt 0.501062 0.334233
vt 0.035103 0.015651
vt 0.000000 0.344811
vt 0.500374 0.500864
s 0
usemtl Primary
f 1/1/1 4/2/1 3/3/1
f 9/4/2 1/5/2 3/6/2
f 10/7/3 2/8/3 1/9/3
f 12/10/4 3/11/4 4/12/4
f 11/13/5 4/14/5 2/15/5
f 8/16/5 14/17/5 5/18/5
f 5/19/6 9/20/6 8/21/6
f 7/22/6 10/23/6 5/19/6
f 8/21/6 12/24/6 6/25/6
f 6/25/6 11/26/6 7/22/6
f 16/27/6 14/28/6 13/29/6
f 7/17/2 16/16/2 6/30/2
f 5/31/4 15/32/4 7/33/4
f 6/34/3 13/35/3 8/36/3
f 1/1/1 2/37/1 4/2/1
f 9/4/2 10/38/2 1/5/2
f 10/7/3 11/39/3 2/8/3
f 12/10/4 9/40/4 3/11/4
f 11/13/5 12/41/5 4/14/5
f 8/16/5 13/42/5 14/17/5
f 5/19/6 10/23/6 9/20/6
f 7/22/6 11/26/6 10/23/6
f 8/21/6 9/20/6 12/24/6
f 6/25/6 12/24/6 11/26/6
f 16/27/6 15/43/6 14/28/6
f 7/17/2 15/18/2 16/16/2
f 5/31/4 14/44/4 15/32/4
f 6/34/3 16/45/3 13/35/3
o Crate03b.Lid
v 0.250000 0.375000 -0.500000
v 0.250000 0.375000 0.500000
v -0.250000 0.375000 -0.500000
v -0.250000 0.375000 0.500000
v 0.208473 0.260526 -0.458473
v -0.208473 0.260526 0.458473
v 0.208473 0.260526 0.458473
v -0.208473 0.260526 -0.458473
v -0.250000 0.260526 -0.500000
v 0.250000 0.260526 -0.500000
v 0.250000 0.260526 0.500000
v -0.250000 0.260526 0.500000
v -0.208473 0.350000 -0.458473
v 0.208473 0.350000 -0.458473
v 0.208473 0.350000 0.458473
v -0.208473 0.350000 0.458473
vn -0.0000 1.0000 -0.0000
vn -0.0000 -0.0000 1.0000
vn -1.0000 -0.0000 -0.0000
vn 1.0000 -0.0000 -0.0000
vn -0.0000 -0.0000 -1.0000
vn -0.0000 -1.0000 -0.0000
vt 0.000000 0.833333
vt 0.500000 1.000000
vt 0.000000 1.000000
vt 0.875501 0.499999
vt 0.500000 0.449122
vt 0.875501 0.449122
vt 0.500000 0.666666
vt 0.000000 0.615789
vt 0.500000 0.615789
vt 0.500000 0.499999
vt 0.003155 0.449122
vt 0.500000 0.449122
vt 0.500000 0.499999
vt 0.875501 0.449122
vt 0.500000 0.449122
vt 0.500000 0.331858
vt 0.000000 0.452387
vt 0.000000 0.331858
vt 0.020764 0.152824
vt 0.000000 -0.000000
vt 0.020764 0.013842
vt 0.500000 0.000000
vt 0.479236 0.013842
vt 0.479236 0.152824
vt 0.000000 0.166667
vt 0.500000 0.166667
vt 0.035103 0.015651
vt 0.473094 0.150796
vt 0.034657 0.150796
vt 0.000000 0.616469
vt 0.500000 0.502141
vt 0.500000 0.616469
vt 0.500000 0.338208
vt 0.000000 0.433808
vt 0.000000 0.338208
vt 0.000000 0.595650
vt 0.500000 0.500050
vt 0.500000 0.595650
vt 0.500000 0.833333
vt 0.500000 0.499999
vt 0.000000 0.666666
vt 0.003155 0.499999
vt 0.875501 0.499999
vt 0.500000 0.452387
vt 0.474007 0.016303
vt 0.000000 0.502141
vt 0.500000 0.433808
vt 0.000000 0.500051
s 0
usemtl Primary
f 19/46/7 18/47/7 17/48/7
f 18/49/8 28/50/8 27/51/8
f 20/52/9 25/53/9 28/54/9
f 17/55/10 27/56/10 26/57/10
f 19/58/11 26/59/11 25/60/11
f 21/61/8 29/62/8 24/63/8
f 24/64/12 26/65/12 21/66/12
f 21/66/12 27/67/12 23/68/12
f 22/69/12 25/70/12 24/64/12
f 23/68/12 28/71/12 22/69/12
f 30/72/12 32/73/12 29/74/12
f 22/75/11 31/76/11 23/77/11
f 23/78/9 30/79/9 21/80/9
f 24/81/10 32/82/10 22/83/10
f 19/46/7 20/84/7 18/47/7
f 18/49/8 20/85/8 28/50/8
f 20/52/9 19/86/9 25/53/9
f 17/55/10 18/87/10 27/56/10
f 19/58/11 17/88/11 26/59/11
f 21/61/8 30/89/8 29/62/8
f 24/64/12 25/70/12 26/65/12
f 21/66/12 26/65/12 27/67/12
f 22/69/12 28/71/12 25/70/12
f 23/68/12 27/67/12 28/71/12
f 30/72/12 31/90/12 32/73/12
f 22/75/11 32/91/11 31/76/11
f 23/78/9 31/92/9 30/79/9
f 24/81/10 29/93/10 32/82/10
