# Blender 4.2.0
# www.blender.org
mtllib Fence03Long.mtl
o Fence03
v 0.000000 0.200000 0.020000
v 0.000000 3.225000 0.020000
v 0.000000 3.225000 -0.020000
v -12.000000 0.200000 0.020000
v -12.000000 3.225000 0.020000
v -12.000000 0.200000 -0.020000
v -12.000000 3.225000 -0.020000
v 0.000000 0.200000 -0.020000
vn -0.0000 -0.0000 -1.0000
vn -0.0000 -0.0000 1.0000
vn -0.0000 -1.0000 -0.0000
vn -0.0000 1.0000 -0.0000
vt 0.007812 0.976562
vt 1.000000 0.062500
vt 0.007812 0.062500
vt 1.000000 0.976562
vt 0.330729 0.515625
vt 0.013021 0.531250
vt 0.013021 0.515625
vt 0.330729 0.375000
vt 0.013021 0.390625
vt 0.013021 0.375000
vt 0.330729 0.531250
vt 0.330729 0.390625
s 0
usemtl Material
f 7/1/1 8/2/1 6/3/1
f 2/4/2 4/3/2 1/2/2
f 8/5/3 4/6/3 6/7/3
f 7/8/4 2/9/4 3/10/4
f 7/1/1 3/4/1 8/2/1
f 2/4/2 5/1/2 4/3/2
f 8/5/3 1/11/3 4/6/3
f 7/8/4 5/12/4 2/9/4
o Fence03Pole01
v 0.000000 3.330000 -0.053033
v 0.000000 0.000000 -0.053033
v 0.053033 3.330000 0.000000
v 0.053033 0.000000 0.000000
v -0.053033 3.330000 0.000000
v -0.053033 0.000000 0.000000
v 0.000000 3.330000 0.053033
v 0.000000 0.000000 0.053033
vn -0.0000 1.0000 -0.0000
vn 0.7071 -0.0000 0.7071
vn -0.7071 -0.0000 0.7071
vn 0.7071 -0.0000 -0.7071
vn -0.7071 -0.0000 -0.7071
vt 0.666667 0.976562
vt 0.677083 1.000000
vt 0.666667 1.000000
vt 0.677083 0.000000
vt 0.666667 0.000000
vt 0.677083 0.976562
s 0
usemtl Material
f 13/13/5 11/14/5 9/15/5
f 11/13/6 16/16/6 12/17/6
f 15/13/7 14/16/7 16/17/7
f 9/18/8 12/17/8 10/16/8
f 13/17/9 10/18/9 14/13/9
f 13/13/5 15/18/5 11/14/5
f 11/13/6 15/18/6 16/16/6
f 15/13/7 13/18/7 14/16/7
f 9/18/8 11/13/8 12/17/8
f 13/17/9 9/16/9 10/18/9
o Fence03Pole02
v -4.000000 3.330000 -0.053033
v -4.000000 0.000000 -0.053033
v -3.946967 3.330000 0.000000
v -3.946967 0.000000 0.000000
v -4.053033 3.330000 0.000000
v -4.053033 0.000000 0.000000
v -4.000000 3.330000 0.053033
v -4.000000 0.000000 0.053033
vn -0.0000 1.0000 -0.0000
vn 0.7071 -0.0000 0.7071
vn -0.7071 -0.0000 0.7071
vn 0.7071 -0.0000 -0.7071
vn -0.7071 -0.0000 -0.7071
vt 0.000000 0.976562
vt 0.010417 1.000000
vt 0.000000 1.000000
vt 0.346354 0.976562
vt 0.335938 0.000000
vt 0.346354 0.000000
vt 0.343750 0.976562
vt 0.343750 0.000000
vt 0.010417 0.976562
vt 0.335938 0.976562
s 0
usemtl Material
f 21/19/10 19/20/10 17/21/10
f 19/22/11 24/23/11 20/24/11
f 23/22/12 22/23/12 24/24/12
f 17/25/13 20/23/13 18/26/13
f 21/22/14 18/23/14 22/24/14
f 21/19/10 23/27/10 19/20/10
f 19/22/11 23/28/11 24/23/11
f 23/22/12 21/28/12 22/23/12
f 17/25/13 19/28/13 20/23/13
f 21/22/14 17/28/14 18/23/14
o Fence03Pole03
v -8.000000 3.330000 -0.053033
v -8.000000 0.000000 -0.053033
v -7.946967 3.330000 0.000000
v -7.946967 0.000000 0.000000
v -8.053033 3.330000 0.000000
v -8.053033 0.000000 0.000000
v -8.000000 3.330000 0.053033
v -8.000000 0.000000 0.053033
vn -0.0000 1.0000 -0.0000
vn 0.7071 -0.0000 0.7071
vn -0.7071 -0.0000 0.7071
vn 0.7071 -0.0000 -0.7071
vn -0.7071 -0.0000 -0.7071
vt 0.000000 0.976562
vt 0.010417 1.000000
vt 0.000000 1.000000
vt 0.000000 0.000000
vt 0.010417 0.976562
vt 0.010417 0.000000
s 0
usemtl Material
f 29/29/15 27/30/15 25/31/15
f 27/32/16 32/33/16 28/29/16
f 31/33/17 30/32/17 32/34/17
f 25/33/18 28/32/18 26/34/18
f 29/33/19 26/32/19 30/34/19
f 29/29/15 31/33/15 27/30/15
f 27/32/16 31/34/16 32/33/16
f 31/33/17 29/29/17 30/32/17
f 25/33/18 27/29/18 28/32/18
f 29/33/19 25/29/19 26/32/19
