# Blender 4.2.0
# www.blender.org
mtllib Fusebox01.mtl
o Fusebox01
v 0.425816 1.250000 -0.212908
v 0.425816 0.000000 -0.212908
v 0.425816 1.250000 0.212908
v 0.425816 0.000000 0.212908
v -0.425816 1.250000 -0.212908
v -0.425816 0.000000 -0.212908
v -0.425816 1.250000 0.212908
v -0.425816 0.000000 0.212908
vn -0.0000 1.0000 -0.0000
vn -0.0000 -0.0000 1.0000
vn -1.0000 -0.0000 -0.0000
vn -0.0000 -1.0000 -0.0000
vn 1.0000 -0.0000 -0.0000
vt 1.000000 0.313187
vt 0.000000 0.000000
vt 0.000000 0.313187
vt 1.000000 1.000000
vt 1.000000 0.000000
vt 0.562500 1.000000
vt 1.000000 0.686813
vt 0.000000 1.000000
vt 0.000000 0.686813
vt 0.562500 0.000000
s 0
usemtl Material
f 5/1/1 3/2/1 1/3/1
f 3/4/2 8/2/2 4/5/2
f 7/5/3 6/6/3 8/4/3
f 2/7/4 8/8/4 6/9/4
f 1/10/5 4/4/5 2/6/5
f 5/1/1 7/5/1 3/2/1
f 3/4/2 7/8/2 8/2/2
f 7/5/3 5/10/3 6/6/3
f 2/7/4 4/4/4 8/8/4
f 1/10/5 3/5/5 4/4/5
