# Blender 4.2.0
# www.blender.org
mtllib JerryCan01.mtl
o JerryCan01
v 0.320524 0.663065 -0.141216
v 0.320524 0.070501 -0.141216
v 0.320524 0.663065 0.141216
v 0.320524 0.070501 0.141216
v -0.311108 0.798939 -0.141216
v -0.311108 0.070501 -0.141216
v -0.311108 0.798939 0.141216
v -0.311108 0.070501 0.141216
v 0.116399 0.000000 -0.141216
v 0.116399 0.842521 0.141216
v 0.116399 0.000000 0.141216
v 0.116399 0.842521 -0.141216
v 0.165492 0.000000 0.141216
v 0.165492 0.742539 -0.141216
v 0.165492 0.000000 -0.141216
v 0.165492 0.742539 0.141216
v -0.258314 0.000000 -0.141216
v -0.258314 0.842521 0.141216
v -0.258314 0.000000 0.141216
v -0.258314 0.842521 -0.141216
v 0.249467 0.000000 0.141216
v 0.249467 0.699490 -0.141216
v 0.249467 0.000000 -0.141216
v 0.249467 0.699490 0.141216
v -0.350906 0.070501 0.000000
v 0.350906 0.692942 0.000000
v -0.350906 0.843913 0.000000
v 0.350906 0.070501 0.000000
v 0.124101 0.000000 0.000000
v 0.124101 0.892338 0.000000
v 0.178649 0.781246 0.000000
v 0.178649 0.000000 0.000000
v -0.292246 0.000000 0.000000
v -0.292246 0.892338 0.000000
v 0.271955 0.733414 0.000000
v 0.271955 0.000000 0.000000
vn -0.5859 0.7097 0.3912
vn -0.0000 -0.0000 1.0000
vn -0.9625 -0.0000 -0.2713
vn 0.6999 -0.7055 0.1115
vn 0.9776 -0.0000 0.2103
vn -0.0000 -0.0000 -1.0000
vn -0.0000 -1.0000 -0.0000
vn 0.8794 0.4318 0.2003
vn 0.4385 0.8555 0.2753
vn -0.7513 -0.6251 0.2117
vn -0.0000 0.9430 0.3327
vn 0.4385 0.8555 -0.2753
vn -0.0000 0.9430 -0.3327
vn -0.7513 -0.6251 -0.2117
vn 0.8794 0.4318 -0.2003
vn 0.9776 -0.0000 -0.2103
vn 0.6999 -0.7055 -0.1115
vn -0.9625 -0.0000 0.2713
vn -0.5859 0.7097 -0.3912
vn 0.6593 -0.7384 0.1419
vn -0.7860 -0.5886 0.1889
vn -0.7860 -0.5886 -0.1889
vn 0.6593 -0.7384 -0.1419
vt 0.609375 0.000000
vt 0.729167 0.039062
vt 0.609375 0.039062
vt 0.041667 1.000000
vt 0.000000 0.546875
vt 0.041667 0.500000
vt 0.843750 0.554688
vt 0.729167 0.960938
vt 0.729167 0.554688
vt 0.843750 0.429688
vt 0.958333 0.500000
vt 0.958333 0.429688
vt 0.609375 0.546875
vt 0.489583 0.859375
vt 0.489583 0.546875
vt 0.447917 0.914062
vt 0.447917 0.500000
vt 0.333333 0.500000
vt 0.843750 0.335938
vt 0.958333 0.062500
vt 0.843750 0.062500
vt 0.364583 0.945312
vt 0.364583 0.500000
vt 0.609375 0.398438
vt 0.729167 0.335938
vt 0.729167 0.398438
vt 0.609375 0.453125
vt 0.729167 0.453125
vt 0.958333 0.367188
vt 0.958333 0.335938
vt 0.958333 0.000000
vt 0.843750 0.000000
vt 0.333333 1.000000
vt 0.609375 0.335938
vt 0.729167 0.500000
vt 0.609375 0.500000
vt 0.843750 0.367188
vt 0.729167 0.429688
vt 0.729167 0.367188
vt 0.489583 0.500000
vt 0.489583 0.039062
vt 0.489583 0.335938
vt 0.729167 0.000000
vt 0.489583 0.398438
vt 0.489583 0.453125
vt 0.729167 0.062500
vt 0.729167 0.859375
vt 0.729167 0.546875
vt 0.958333 0.960938
vt 0.958333 0.554688
vt 0.000000 0.968750
vt 0.843750 0.960938
vt 0.843750 0.500000
vt 0.609375 0.859375
vt 0.489583 0.898438
vt 0.489583 0.000000
s 0
usemtl Material
f 27/1/1 18/2/1 34/3/1
f 18/4/2 8/5/2 19/6/2
f 25/7/3 5/8/3 6/9/3
f 36/10/4 4/11/4 21/12/4
f 28/13/5 3/14/5 4/15/5
f 22/16/6 2/15/6 23/17/6
f 20/4/6 9/18/6 17/6/6
f 29/19/7 19/20/7 33/21/7
f 16/22/2 11/18/2 13/23/2
f 31/24/8 10/25/8 16/26/8
f 35/27/9 16/26/9 24/28/9
f 24/16/2 13/23/2 21/17/2
f 9/18/6 14/22/6 15/23/6
f 29/19/7 13/29/7 11/30/7
f 33/21/10 8/31/10 25/32/10
f 6/5/6 20/4/6 17/6/6
f 10/33/2 19/6/2 11/18/2
f 30/34/11 18/2/11 10/25/11
f 4/15/2 24/16/2 21/17/2
f 35/27/9 3/35/9 26/36/9
f 15/23/6 22/16/6 23/17/6
f 32/37/7 21/12/7 13/29/7
f 23/38/7 32/37/7 15/39/7
f 1/40/12 35/27/12 26/36/12
f 20/41/13 30/34/13 12/42/13
f 6/43/14 33/21/14 25/32/14
f 15/39/7 29/19/7 9/25/7
f 14/44/12 35/27/12 22/45/12
f 12/42/15 31/24/15 14/44/15
f 17/46/7 29/19/7 33/21/7
f 1/47/16 28/13/16 2/48/16
f 2/35/17 36/10/17 23/38/17
f 7/49/18 25/7/18 8/50/18
f 20/41/19 27/1/19 34/3/19
f 27/1/1 7/43/1 18/2/1
f 18/4/2 7/51/2 8/5/2
f 25/7/3 27/52/3 5/8/3
f 36/10/20 28/53/20 4/11/20
f 28/13/5 26/54/5 3/14/5
f 22/16/6 1/55/6 2/15/6
f 20/4/6 12/33/6 9/18/6
f 29/19/7 11/30/7 19/20/7
f 16/22/2 10/33/2 11/18/2
f 31/24/8 30/34/8 10/25/8
f 35/27/9 31/24/9 16/26/9
f 24/16/2 16/22/2 13/23/2
f 9/18/6 12/33/6 14/22/6
f 29/19/7 32/37/7 13/29/7
f 33/21/21 19/20/21 8/31/21
f 6/5/6 5/51/6 20/4/6
f 10/33/2 18/4/2 19/6/2
f 30/34/11 34/3/11 18/2/11
f 4/15/2 3/55/2 24/16/2
f 35/27/9 24/28/9 3/35/9
f 15/23/6 14/22/6 22/16/6
f 32/37/7 36/10/7 21/12/7
f 23/38/7 36/10/7 32/37/7
f 1/40/12 22/45/12 35/27/12
f 20/41/13 34/3/13 30/34/13
f 6/43/22 17/46/22 33/21/22
f 15/39/7 32/37/7 29/19/7
f 14/44/12 31/24/12 35/27/12
f 12/42/15 30/34/15 31/24/15
f 17/46/7 9/25/7 29/19/7
f 1/47/16 26/54/16 28/13/16
f 2/35/23 28/53/23 36/10/23
f 7/49/18 27/52/18 25/7/18
f 20/41/19 5/56/19 27/1/19
