# Blender 4.2.0
# www.blender.org
mtllib Locker01.mtl
o Locker01a
v 0.718750 2.875000 -0.359375
v 0.718750 0.000000 -0.359375
v 0.718750 2.875000 0.359375
v 0.718750 0.000000 0.359375
v -0.718750 2.875000 -0.359375
v -0.718750 0.000000 -0.359375
v -0.718750 2.875000 0.359375
v -0.718750 0.000000 0.359375
vn -0.0000 1.0000 -0.0000
vn -0.0000 -0.0000 1.0000
vn -1.0000 -0.0000 -0.0000
vn -0.0000 -1.0000 -0.0000
vn 1.0000 -0.0000 -0.0000
vn -0.0000 -0.0000 -1.0000
vt 0.666667 1.000000
vt 0.500000 0.500000
vt 0.666667 0.500000
vt 0.326389 1.000000
vt 0.000000 0.000000
vt 0.326389 0.000000
vt 0.500000 1.000000
vt 0.333333 0.000000
vt 0.500000 0.000000
vt 1.000000 0.000000
vt 0.666667 0.000000
vt 0.000000 1.000000
vt 0.333333 1.000000
vt 1.000000 1.000000
s 0
usemtl Material
f 5/1/1 3/2/1 1/3/1
f 3/4/2 8/5/2 4/6/2
f 7/7/3 6/8/3 8/9/3
f 2/3/4 8/7/4 6/1/4
f 1/7/5 4/8/5 2/9/5
f 5/1/6 2/10/6 6/11/6
f 5/1/1 7/7/1 3/2/1
f 3/4/2 7/12/2 8/5/2
f 7/7/3 5/13/3 6/8/3
f 2/3/4 4/2/4 8/7/4
f 1/7/5 3/13/5 4/8/5
f 5/1/6 1/14/6 2/10/6
