# Blender 4.2.0
# www.blender.org
mtllib mAirDuctCurve90.01.mtl
o AirDuctCurve90.01
v -0.878679 0.000000 2.121320
v -0.878679 2.000000 2.121320
v -2.292893 0.000000 0.707108
v -2.292893 2.000000 0.707108
v 0.000000 0.000000 0.000000
v 0.000000 2.000000 0.000000
v -2.000000 0.000000 0.000001
v -2.000000 2.000000 0.000001
v -2.999999 2.000000 3.000001
v -2.999999 0.000000 3.000001
v -3.000000 0.000000 1.000001
v -3.000000 2.000000 1.000001
vn 0.9239 -0.0000 0.3827
vn -0.3827 -0.0000 -0.9239
vn -0.0000 -0.0000 -1.0000
vn -0.0000 1.0000 -0.0000
vn -0.0000 -1.0000 -0.0000
vn -0.9239 -0.0000 -0.3827
vn -1.0000 -0.0000 -0.0000
vn 0.3827 -0.0000 0.9239
vt -0.304688 0.835938
vt 0.507812 0.164062
vt -0.304688 0.164062
vt 0.257812 0.164062
vt 0.507812 0.835938
vt 0.257812 0.835938
vt 0.500000 0.164062
vt 1.000000 0.835938
vt 0.500000 0.835938
vt 0.250000 0.164062
vt -0.210938 0.835938
vt 0.000000 0.164062
vt 1.000000 0.164062
vt 0.000000 0.835938
s 0
usemtl AirDuct01
f 6/1/1 1/2/1 5/3/1
f 3/4/2 12/5/2 4/6/2
f 8/7/3 5/8/3 7/9/3
f 2/5/4 8/10/4 4/2/4
f 1/5/5 7/10/5 5/11/5
f 4/5/6 7/4/6 3/2/6
f 9/9/7 11/12/7 10/7/7
f 1/11/5 11/2/5 3/10/5
f 2/11/4 12/2/4 9/5/4
f 2/1/8 10/2/8 1/3/8
f 6/1/1 2/5/1 1/2/1
f 3/4/2 11/2/2 12/5/2
f 8/7/3 6/13/3 5/8/3
f 2/5/4 6/11/4 8/10/4
f 1/5/5 3/2/5 7/10/5
f 4/5/6 8/6/6 7/4/6
f 9/9/7 12/14/7 11/12/7
f 1/11/5 10/5/5 11/2/5
f 2/11/4 4/10/4 12/2/4
f 2/1/8 9/5/8 10/2/8
