# Blender 4.2.0
# www.blender.org
mtllib Palette01.mtl
o Palette01
v 1.000000 0.350000 -1.000000
v 1.000000 0.000000 -1.000000
v 1.000000 0.350000 1.000000
v -1.000000 0.350000 -1.000000
v -1.000000 0.350000 1.000000
v 1.000000 0.000000 1.000000
v -1.000000 0.000000 -1.000000
v -1.000000 0.000000 1.000000
vn -0.0000 1.0000 -0.0000
vn -0.0000 -0.0000 1.0000
vn -1.0000 -0.0000 -0.0000
vn -0.0000 -1.0000 -0.0000
vn 1.0000 -0.0000 -0.0000
vn -0.0000 -0.0000 -1.0000
vt 1.000000 1.000000
vt 0.000000 0.000100
vt 1.000000 0.000100
vt 0.234375 0.000000
vt 0.132812 1.000000
vt 0.132812 0.000000
vt 0.156250 1.000000
vt 0.000077 0.000077
vt 0.000077 0.999923
vt 0.000000 0.000000
vt 1.000000 1.000000
vt 0.000000 1.000000
vt 0.156250 0.000000
vt 0.000232 0.999923
vt 0.000232 0.000077
vt 0.234375 1.000000
vt 1.000000 0.000000
s 0
usemtl Material
f 4/1/1 3/2/1 1/3/1
f 3/4/2 8/5/2 6/6/2
f 5/7/3 7/8/3 8/9/3
f 2/10/4 8/11/4 7/12/4
f 1/13/5 6/14/5 2/15/5
f 4/16/6 2/6/6 7/5/6
f 4/1/1 5/12/1 3/2/1
f 3/4/2 5/16/2 8/5/2
f 5/7/3 4/13/3 7/8/3
f 2/10/4 6/17/4 8/11/4
f 1/13/5 3/7/5 6/14/5
f 4/16/6 1/4/6 2/6/6
