# Blender 4.2.0
# www.blender.org
mtllib ParcelDropOffStation01.mtl
o ParcelDropOffStation01
v 5.000000 0.000000 -1.000000
v -5.000000 3.450000 -1.000000
v -5.000000 0.000000 -1.000000
v -5.000000 3.450000 1.000000
v 5.000000 0.085000 -1.000000
v 0.396810 3.450000 1.000000
v -0.396810 3.450000 1.000000
v -5.000000 0.085000 1.000000
v 5.000000 3.450000 1.000000
v -5.000000 0.085000 -1.000000
v 5.000000 3.450000 -1.000000
v 0.396810 3.234250 1.000000
v -0.396810 3.234250 1.000000
v 0.396810 3.450000 1.500000
v -0.396810 3.450000 1.500000
v 0.396810 3.288188 1.500000
v -0.396810 3.288188 1.500000
v 5.000000 0.085000 0.900000
v 5.000000 0.000000 0.900000
v -5.000000 0.000000 0.900000
v -5.000000 0.085000 0.900000
v 5.000000 0.085000 1.000000
vn -1.0000 -0.0000 -0.0000
vn 1.0000 -0.0000 -0.0000
vn -0.0000 -1.0000 -0.0000
vn -0.0000 -0.0000 1.0000
vn -0.0000 1.0000 -0.0000
vn -0.0000 -0.9942 0.1073
vt 0.861486 1.000000
vt 1.000000 0.283333
vt 1.000000 1.000000
vt 0.861486 0.283333
vt 1.000000 0.300000
vt 0.861486 0.300000
vt 0.000000 0.000000
vt 1.000000 0.266667
vt 0.000000 0.283333
vt 0.000000 0.266667
vt 0.414062 1.000000
vt 0.460938 0.954545
vt 0.460938 1.000000
vt 0.868243 0.000000
vt 0.000000 0.275000
vt 0.868243 0.275000
vt -0.000000 1.000000
vt 0.691406 1.000000
vt 0.609375 0.954545
vt 0.691406 0.954545
vt 0.496094 -0.000000
vt 0.449219 0.079545
vt 0.449219 0.000000
vt 0.414062 0.943182
vt 0.609375 1.000000
vt 0.496094 0.079545
s 0
usemtl Material
f 2/1/1 8/2/1 4/3/1
f 5/4/2 19/5/2 1/6/2
f 21/5/1 3/4/1 20/2/1
f 8/7/3 18/7/3 22/7/3
f 21/8/4 19/9/4 18/10/4
f 7/11/1 17/12/1 15/13/1
f 4/14/5 11/15/5 2/16/5
f 8/9/4 9/3/4 4/17/4
f 9/1/2 5/2/2 11/3/2
f 14/18/4 17/19/4 16/20/4
f 7/21/5 14/22/5 6/23/5
f 12/21/6 17/22/6 13/23/6
f 6/11/2 16/12/2 12/24/2
f 2/1/1 10/4/1 8/2/1
f 5/4/2 18/2/2 19/5/2
f 21/5/1 10/6/1 3/4/1
f 8/7/3 21/7/3 18/7/3
f 21/8/4 20/2/4 19/9/4
f 7/11/1 13/24/1 17/12/1
f 4/14/5 9/7/5 11/15/5
f 8/9/4 22/2/4 9/3/4
f 9/1/2 22/4/2 5/2/2
f 14/18/4 15/25/4 17/19/4
f 7/21/5 15/26/5 14/22/5
f 12/21/6 16/26/6 17/22/6
f 6/11/2 14/13/2 16/12/2
