# Blender 4.2.0
# www.blender.org
mtllib Pipe01StraightShort.mtl
o Pipe01Straight
v 0.000000 -2.000000 -0.250000
v 0.216506 -2.000000 -0.125000
v 0.216506 -2.000000 0.125000
v 0.000000 -2.000000 0.250000
v -0.216506 -2.000000 0.125000
v -0.216506 -2.000000 -0.125000
v 0.000000 -2.000000 -0.250000
v 0.000000 2.000000 -0.250000
v 0.216506 -2.000000 -0.125000
v 0.216506 2.000000 -0.125000
v 0.216506 -2.000000 0.125000
v 0.216506 2.000000 0.125000
v 0.000000 -2.000000 0.250000
v 0.000000 2.000000 0.250000
v -0.216506 -2.000000 0.125000
v -0.216506 2.000000 0.125000
v -0.216506 -2.000000 -0.125000
v -0.216506 2.000000 -0.125000
v -0.270633 1.900000 -0.156250
v -0.270633 1.900000 0.156250
v 0.000000 1.900000 0.312500
v 0.270633 1.900000 0.156250
v 0.270633 1.900000 -0.156250
v 0.000000 1.900000 -0.312500
v 0.000000 1.900000 -0.312500
v 0.270633 1.900000 -0.156250
v 0.270633 1.900000 0.156250
v 0.000000 1.900000 0.312500
v -0.270633 1.900000 0.156250
v -0.270633 1.900000 -0.156250
v 0.000000 2.000000 -0.312500
v 0.270633 2.000000 -0.156250
v 0.270633 2.000000 0.156250
v 0.000000 2.000000 0.312500
v -0.270633 2.000000 0.156250
v -0.270633 2.000000 -0.156250
vn -0.0000 -1.0000 -0.0000
vn 0.5000 -0.0000 -0.8660
vn 1.0000 -0.0000 -0.0000
vn 0.5000 -0.0000 0.8660
vn -0.5000 -0.0000 0.8660
vn -1.0000 -0.0000 -0.0000
vn -0.5000 -0.0000 -0.8660
vn -0.0000 1.0000 -0.0000
vt 0.984375 0.570312
vt 0.882812 0.570312
vt 0.984375 0.515625
vt 0.882812 0.515625
vt 0.445312 1.000000
vt 0.375000 0.000000
vt 0.445312 0.000000
vt 0.375000 1.000000
vt 0.296875 0.000000
vt 0.296875 1.000000
vt 0.218750 0.000000
vt 0.218750 1.000000
vt 0.148438 0.000000
vt 0.148438 1.000000
vt 0.070312 0.000000
vt 0.070312 1.000000
vt -0.000000 0.000000
vt 0.375000 0.148438
vt 0.296875 0.171875
vt 0.296875 0.148438
vt 0.929688 0.468750
vt 0.992188 0.578125
vt 0.992188 0.507812
vt 0.929688 0.617188
vt 0.867188 0.507812
vt 0.867188 0.578125
vt 0.148438 0.148438
vt 0.070312 0.171875
vt 0.070312 0.148438
vt 0.218750 0.171875
vt 0.218750 0.148438
vt 0.445312 0.148438
vt 0.375000 0.171875
vt 0.000000 0.171875
vt 0.000000 0.148438
vt 0.148438 0.171875
vt 0.929688 0.601562
vt 0.929688 0.484375
vt -0.000000 1.000000
vt 0.445312 0.171875
s 0
usemtl Material
f 5/1/1 1/2/1 4/3/1
f 2/4/1 4/3/1 1/2/1
f 8/5/2 9/6/2 7/7/2
f 10/8/3 11/9/3 9/6/3
f 12/10/4 13/11/4 11/9/4
f 14/12/5 15/13/5 13/11/5
f 16/14/6 17/15/6 15/13/6
f 18/16/7 7/17/7 17/15/7
f 26/18/3 33/19/3 27/20/3
f 22/21/1 24/22/1 23/23/1
f 19/24/1 21/25/1 20/26/1
f 34/25/8 36/24/8 35/26/8
f 29/27/6 36/28/6 30/29/6
f 27/20/4 34/30/4 28/31/4
f 25/32/2 32/33/2 26/18/2
f 30/29/7 31/34/7 25/35/7
f 28/31/5 35/36/5 29/27/5
f 31/22/8 33/21/8 32/23/8
f 5/1/1 6/37/1 1/2/1
f 2/4/1 3/38/1 4/3/1
f 8/5/2 10/8/2 9/6/2
f 10/8/3 12/10/3 11/9/3
f 12/10/4 14/12/4 13/11/4
f 14/12/5 16/14/5 15/13/5
f 16/14/6 18/16/6 17/15/6
f 18/16/7 8/39/7 7/17/7
f 26/18/3 32/33/3 33/19/3
f 22/21/1 21/25/1 24/22/1
f 19/24/1 24/22/1 21/25/1
f 34/25/8 31/22/8 36/24/8
f 29/27/6 35/36/6 36/28/6
f 27/20/4 33/19/4 34/30/4
f 25/32/2 31/40/2 32/33/2
f 30/29/7 36/28/7 31/34/7
f 28/31/5 34/30/5 35/36/5
f 31/22/8 34/25/8 33/21/8
