# Blender 4.2.0
# www.blender.org
mtllib Pipe01Curve180.mtl
o Pipe01Curve180
v 0.000000 -0.200000 -0.250000
v -0.216506 -0.200000 0.125000
v -0.216506 -0.200000 -0.125000
v 0.000000 0.000000 -0.250000
v 0.000000 -0.200000 0.250000
v 0.000000 0.000000 0.250000
v -0.216506 0.000000 0.125000
v -0.216506 0.000000 -0.125000
v 0.000000 0.353553 -0.103553
v -0.216506 0.088388 0.161612
v -0.216506 0.265165 -0.015165
v 0.000000 0.500000 0.250000
v -0.216506 0.125000 0.250000
v -0.216506 0.375000 0.250000
v 0.000000 0.500000 0.400000
v -0.216506 0.125000 0.400000
v -0.216506 0.375000 0.400000
v 0.000000 0.353553 0.753553
v -0.216506 0.088388 0.488388
v -0.216506 0.265165 0.665165
v -0.216506 -0.000000 0.775000
v 0.216506 -0.200000 0.125000
v 0.216506 -0.200000 -0.125000
v 0.216506 0.000000 0.125000
v 0.216506 0.000000 -0.125000
v 0.216506 0.088388 0.161612
v 0.216506 0.265165 -0.015165
v 0.216506 0.125000 0.250000
v 0.216506 0.375000 0.250000
v 0.216506 0.125000 0.400000
v 0.216506 0.375000 0.400000
v 0.216506 0.088388 0.488388
v 0.216506 0.265165 0.665165
v -0.270633 -0.200000 0.156250
v 0.000000 -0.200000 0.312500
v -0.270633 -0.200000 -0.156250
v -0.000000 -0.200000 -0.312500
v 0.270633 -0.200000 -0.156250
v 0.270633 -0.200000 0.156250
v 0.000000 -0.100000 0.312500
v -0.270633 -0.100000 0.156250
v -0.270633 -0.100000 -0.156250
v -0.000000 -0.100000 -0.312500
v 0.270633 -0.100000 -0.156250
v 0.270633 -0.100000 0.156250
v 0.000000 -0.200000 0.900000
v 0.216506 -0.200000 0.525000
v 0.216506 -0.200000 0.775000
v 0.000000 0.000000 0.900000
v -0.000000 -0.200000 0.400000
v -0.000000 0.000000 0.400000
v 0.216506 0.000000 0.525000
v 0.216506 0.000000 0.775000
v -0.216506 -0.200000 0.525000
v -0.216506 -0.200000 0.775000
v -0.216506 0.000000 0.525000
v -0.270633 -0.200000 0.806250
v 0.000000 -0.200000 0.962500
v 0.270633 -0.200000 0.806250
v 0.270633 -0.200000 0.493750
v -0.000000 -0.200000 0.337500
v -0.270633 -0.200000 0.493750
v -0.000000 -0.100000 0.337500
v 0.270633 -0.100000 0.493750
v 0.270633 -0.100000 0.806250
v 0.000000 -0.100000 0.962500
v -0.270633 -0.100000 0.806250
v -0.270633 -0.100000 0.493750
vn -0.5000 -0.0000 0.8660
vn -1.0000 -0.0000 -0.0000
vn -0.5000 -0.0000 -0.8660
vn -0.4706 -0.3377 0.8152
vn -0.4706 0.3377 -0.8152
vn -0.4706 0.8152 -0.3377
vn -0.4706 -0.8152 0.3377
vn -0.5000 0.8660 -0.0000
vn -0.5000 -0.8660 -0.0000
vn -0.4706 0.8152 0.3377
vn -0.4706 -0.8152 -0.3377
vn -0.4706 0.3377 0.8152
vn -0.4706 -0.3377 -0.8152
vn 0.5000 -0.0000 0.8660
vn 1.0000 -0.0000 -0.0000
vn 0.5000 -0.0000 -0.8660
vn 0.4706 -0.3377 0.8152
vn 0.4706 0.3377 -0.8152
vn 0.4706 0.8152 -0.3377
vn 0.4706 -0.8152 0.3377
vn 0.5000 0.8660 -0.0000
vn 0.5000 -0.8660 -0.0000
vn 0.4706 0.8152 0.3377
vn 0.4706 -0.8152 -0.3377
vn 0.4706 0.3377 0.8152
vn 0.4706 -0.3377 -0.8152
vn -0.0000 -1.0000 -0.0000
vn -0.0000 1.0000 -0.0000
vt 0.445312 0.164062
vt 0.375000 0.109375
vt 0.445312 0.109375
vt 0.359375 0.164062
vt 0.296875 0.109375
vt 0.359375 0.109375
vt 0.296875 0.164062
vt 0.226562 0.109375
vt 0.375000 0.164062
vt 0.375000 0.195312
vt 0.296875 0.226562
vt 0.226562 0.164062
vt 0.226562 0.226562
vt 0.226562 0.304688
vt 0.375000 0.226562
vt 0.359375 0.304688
vt 0.296875 0.304688
vt 0.296875 0.351562
vt 0.226562 0.351562
vt 0.375000 0.281250
vt 0.296875 0.445312
vt 0.226562 0.445312
vt 0.445312 0.281250
vt 0.375000 0.304688
vt 0.359375 0.445312
vt 0.296875 0.546875
vt 0.226562 0.546875
vt 0.375000 0.335938
vt 0.359375 0.226562
vt 0.359375 0.351562
vt 0.375000 0.148438
vt 0.296875 0.171875
vt 0.296875 0.148438
vt 0.929688 0.468750
vt 0.992188 0.578125
vt 0.992188 0.507812
vt 0.929688 0.617188
vt 0.867188 0.507812
vt 0.867188 0.578125
vt 0.148438 0.148438
vt 0.070312 0.171875
vt 0.070312 0.148438
vt 0.218750 0.171875
vt 0.218750 0.148438
vt 0.445312 0.148438
vt 0.375000 0.171875
vt 0.000000 0.171875
vt 0.000000 0.148438
vt 0.148438 0.171875
vt 0.359375 0.546875
vt 0.445312 0.171875
s 0
usemtl Material
f 6/1/1 2/2/1 5/3/1
f 7/4/2 3/5/2 2/6/2
f 8/7/3 1/8/3 3/5/3
f 7/9/4 6/1/4 10/10/4
f 7/4/2 11/11/2 8/7/2
f 4/12/5 11/11/5 9/13/5
f 11/11/6 12/14/6 9/13/6
f 10/10/7 6/1/7 13/15/7
f 11/11/2 13/16/2 14/17/2
f 13/16/2 17/18/2 14/17/2
f 14/17/8 15/19/8 12/14/8
f 6/1/9 16/20/9 13/15/9
f 15/19/10 20/21/10 18/22/10
f 16/20/11 51/23/11 19/24/11
f 17/18/2 19/25/2 20/21/2
f 19/25/2 21/26/2 20/21/2
f 20/21/12 49/27/12 18/22/12
f 19/24/13 51/23/13 56/28/13
f 22/2/14 6/1/14 5/3/14
f 23/5/15 24/4/15 22/6/15
f 1/8/16 25/7/16 23/5/16
f 24/9/17 26/10/17 6/1/17
f 27/11/15 24/4/15 25/7/15
f 4/12/18 27/11/18 25/7/18
f 12/14/19 27/11/19 9/13/19
f 26/10/20 28/15/20 6/1/20
f 27/11/15 28/16/15 26/29/15
f 31/18/15 28/16/15 29/17/15
f 15/19/21 29/17/21 12/14/21
f 30/20/22 6/1/22 28/15/22
f 15/19/23 33/21/23 31/18/23
f 30/20/24 32/24/24 51/23/24
f 31/18/15 32/25/15 30/30/15
f 53/26/15 32/25/15 33/21/15
f 49/27/25 33/21/25 18/22/25
f 32/24/26 52/28/26 51/23/26
f 34/31/2 42/32/2 36/33/2
f 36/34/27 35/35/27 34/36/27
f 39/37/27 37/38/27 38/39/27
f 43/38/28 45/37/28 44/39/28
f 38/40/15 45/41/15 39/42/15
f 36/33/3 43/43/3 37/44/3
f 35/45/1 41/46/1 34/31/1
f 39/42/14 40/47/14 35/48/14
f 37/44/16 44/49/16 38/40/16
f 40/35/28 42/34/28 41/36/28
f 51/1/16 47/2/16 50/3/16
f 52/4/15 48/5/15 47/6/15
f 53/7/14 46/8/14 48/5/14
f 54/2/3 51/1/3 50/3/3
f 55/5/2 56/4/2 54/6/2
f 46/8/1 21/7/1 55/5/1
f 60/31/15 65/32/15 59/33/15
f 59/34/27 61/35/27 60/36/27
f 62/37/27 58/38/27 57/39/27
f 66/38/28 68/37/28 67/39/28
f 57/40/2 68/41/2 62/42/2
f 59/33/14 66/43/14 58/44/14
f 61/45/16 64/46/16 60/31/16
f 62/42/3 63/47/3 61/48/3
f 58/44/1 67/49/1 57/40/1
f 63/35/28 65/34/28 64/36/28
f 6/1/1 7/9/1 2/2/1
f 7/4/2 8/7/2 3/5/2
f 8/7/3 4/12/3 1/8/3
f 7/4/2 10/29/2 11/11/2
f 4/12/5 8/7/5 11/11/5
f 11/11/6 14/17/6 12/14/6
f 11/11/2 10/29/2 13/16/2
f 13/16/2 16/30/2 17/18/2
f 14/17/8 17/18/8 15/19/8
f 6/1/9 51/23/9 16/20/9
f 15/19/10 17/18/10 20/21/10
f 17/18/2 16/30/2 19/25/2
f 19/25/2 56/50/2 21/26/2
f 20/21/12 21/26/12 49/27/12
f 22/2/14 24/9/14 6/1/14
f 23/5/15 25/7/15 24/4/15
f 1/8/16 4/12/16 25/7/16
f 27/11/15 26/29/15 24/4/15
f 4/12/18 9/13/18 27/11/18
f 12/14/19 29/17/19 27/11/19
f 27/11/15 29/17/15 28/16/15
f 31/18/15 30/30/15 28/16/15
f 15/19/21 31/18/21 29/17/21
f 30/20/22 51/23/22 6/1/22
f 15/19/23 18/22/23 33/21/23
f 31/18/15 33/21/15 32/25/15
f 53/26/15 52/50/15 32/25/15
f 49/27/25 53/26/25 33/21/25
f 34/31/2 41/46/2 42/32/2
f 36/34/27 37/38/27 35/35/27
f 39/37/27 35/35/27 37/38/27
f 43/38/28 40/35/28 45/37/28
f 38/40/15 44/49/15 45/41/15
f 36/33/3 42/32/3 43/43/3
f 35/45/1 40/51/1 41/46/1
f 39/42/14 45/41/14 40/47/14
f 37/44/16 43/43/16 44/49/16
f 40/35/28 43/38/28 42/34/28
f 51/1/16 52/9/16 47/2/16
f 52/4/15 53/7/15 48/5/15
f 53/7/14 49/12/14 46/8/14
f 54/2/3 56/9/3 51/1/3
f 55/5/2 21/7/2 56/4/2
f 46/8/1 49/12/1 21/7/1
f 60/31/15 64/46/15 65/32/15
f 59/34/27 58/38/27 61/35/27
f 62/37/27 61/35/27 58/38/27
f 66/38/28 63/35/28 68/37/28
f 57/40/2 67/49/2 68/41/2
f 59/33/14 65/32/14 66/43/14
f 61/45/16 63/51/16 64/46/16
f 62/42/3 68/41/3 63/47/3
f 58/44/1 66/43/1 67/49/1
f 63/35/28 66/38/28 65/34/28
