# Blender 4.2.0
# www.blender.org
mtllib Postbox01.mtl
o Postbox01
v 0.412500 1.950000 -0.412500
v 0.412500 0.000000 -0.412500
v 0.412500 1.950000 0.412500
v 0.412500 0.000000 0.412500
v -0.412500 1.950000 -0.412500
v -0.412500 0.000000 -0.412500
v -0.412500 1.950000 0.412500
v -0.412500 0.000000 0.412500
v 0.412500 1.950000 -0.412500
v 0.412500 1.950000 0.412500
v -0.412500 1.950000 -0.412500
v -0.412500 1.950000 0.412500
v 0.000000 2.050000 0.000000
v 0.412500 1.950000 -0.412500
v 0.412500 0.000000 -0.412500
v -0.412500 1.950000 -0.412500
v -0.412500 0.000000 -0.412500
v 0.412500 0.975000 -0.412500
v -0.412500 0.975000 -0.412500
vn -0.0000 -0.0000 1.0000
vn -1.0000 -0.0000 -0.0000
vn 1.0000 -0.0000 -0.0000
vn -0.0000 0.9719 -0.2356
vn -0.0000 0.9719 0.2356
vn 0.2356 0.9719 -0.0000
vn -0.2356 0.9719 -0.0000
vn -0.0000 -0.0000 -1.0000
vt 0.333333 1.000000
vt -0.000000 0.000000
vt 0.333333 0.000000
vt 0.666667 1.000000
vt 0.666667 0.000000
vt 1.000000 0.571429
vt 1.000000 1.000000
vt 0.833333 0.785714
vt 0.666667 0.571429
vt 0.659722 0.000000
vt 0.333333 0.500000
vt 0.659722 0.500000
vt 0.000000 1.000000
s 0
usemtl Material
f 3/1/1 8/2/1 4/3/1
f 7/4/2 6/3/2 8/5/2
f 1/1/3 4/5/3 2/3/3
f 9/6/4 11/7/4 13/8/4
f 10/9/5 13/8/5 12/4/5
f 13/8/6 10/9/6 9/6/6
f 12/4/7 13/8/7 11/7/7
f 16/10/8 18/11/8 19/12/8
f 19/12/8 15/3/8 17/10/8
f 3/1/1 7/13/1 8/2/1
f 7/4/2 5/1/2 6/3/2
f 1/1/3 3/4/3 4/5/3
f 16/10/8 14/3/8 18/11/8
f 19/12/8 18/11/8 15/3/8
