# Blender 4.2.0
# www.blender.org
mtllib Radiator01.mtl
o Radiator01
v -1.000000 0.000000 0.300000
v -1.000000 1.250000 0.300000
v 1.000000 0.000000 0.300000
v 1.000000 1.250000 0.300000
v -1.000000 0.000000 0.050000
v -1.000000 1.250000 0.050000
v 1.000000 0.000000 0.050000
v 1.000000 1.250000 0.050000
v 0.725000 0.125000 0.050000
v 0.725000 1.125000 0.050000
v 0.725000 0.125000 0.000000
v 0.725000 1.125000 0.000000
v 0.775000 0.125000 0.050000
v 0.775000 1.125000 0.050000
v 0.775000 0.125000 0.000000
v 0.775000 1.125000 0.000000
v -0.775000 0.125000 0.050000
v -0.775000 1.125000 0.050000
v -0.775000 0.125000 0.000000
v -0.775000 1.125000 0.000000
v -0.725000 0.125000 0.050000
v -0.725000 1.125000 0.050000
v -0.725000 0.125000 0.000000
v -0.725000 1.125000 0.000000
vn 1.0000 -0.0000 -0.0000
vn -0.0000 -0.0000 1.0000
vn -0.0000 1.0000 -0.0000
vn -1.0000 -0.0000 -0.0000
vn -0.0000 -0.0000 -1.0000
vt 0.577816 0.870517
vt 0.938951 0.733182
vt 0.938952 0.870517
vt 0.577816 0.733182
vt 0.000000 0.000001
vt 0.577816 0.000000
vt 0.000000 0.870518
vt 0.938952 0.733182
vt 0.577816 0.870517
vt 0.577816 0.733182
vt 0.577816 0.733182
vt 0.000001 0.000000
vt 0.000000 0.733182
vt 0.592262 0.580345
vt 0.577817 0.000000
vt 0.592262 0.000000
vt 0.577817 0.000000
vt 0.577817 0.580345
vt 0.592262 0.580345
vt 0.577817 0.580345
vt 0.577817 0.000000
vt 0.592262 0.000000
vt 0.000000 0.733183
vt 0.577817 -0.000000
vt 0.577817 0.580345
vt 0.577817 0.580345
s 0
usemtl Material
f 8/1/1 3/2/1 7/3/1
f 4/4/2 1/5/2 3/6/2
f 6/7/3 4/4/3 8/1/3
f 2/8/4 5/9/4 1/10/4
f 8/11/5 5/12/5 6/13/5
f 10/14/4 11/15/4 9/16/4
f 16/17/1 13/14/1 15/18/1
f 24/17/1 21/19/1 23/20/1
f 18/19/4 19/21/4 17/22/4
f 8/1/1 4/4/1 3/2/1
f 4/4/2 2/23/2 1/5/2
f 6/7/3 2/23/3 4/4/3
f 2/8/4 6/3/4 5/9/4
f 8/11/5 7/24/5 5/12/5
f 10/14/4 12/25/4 11/15/4
f 16/17/1 14/22/1 13/14/1
f 24/17/1 22/22/1 21/19/1
f 18/19/4 20/26/4 19/21/4
