# Blender 4.2.0
# www.blender.org
mtllib Sink01.mtl
o Sink01.Base
v 0.146542 0.536538 -0.383491
v 0.063175 0.357896 -0.253175
v 0.146542 0.536538 0.383491
v 0.063175 0.357896 0.253175
v -0.272350 0.536538 -0.383491
v -0.416900 0.357896 -0.253175
v -0.272350 0.536538 0.383491
v -0.416900 0.357896 0.253175
v 0.166900 0.463167 -0.416900
v -0.416900 0.463167 0.416900
v 0.166900 0.463167 0.416900
v -0.416900 0.463167 -0.416900
v -0.108384 0.276239 -0.000000
v -0.108384 0.008678 -0.000000
v -0.108384 0.216457 -0.000000
v -0.081861 0.008678 -0.036506
v -0.081861 0.216457 -0.036506
v -0.038946 0.008678 -0.022562
v -0.038946 0.216457 -0.022562
v -0.038946 0.008678 0.022562
v -0.038946 0.216457 0.022562
v -0.081861 0.008678 0.036506
v -0.081861 0.216457 0.036506
v -0.081861 0.276239 0.036506
v -0.081861 0.357896 -0.036506
v -0.108384 0.357896 -0.000000
v -0.038946 0.357896 -0.022562
v -0.038946 0.357896 0.022562
v -0.081861 0.357896 0.036506
v -0.081861 0.186457 -0.000000
v -0.081861 0.159934 -0.036506
v -0.081861 0.117019 -0.022562
v -0.081861 0.117019 0.022562
v -0.081861 0.159934 0.036506
v -0.401900 0.186457 -0.000000
v -0.401900 0.159934 -0.036506
v -0.401900 0.117019 -0.022562
v -0.401900 0.117019 0.022562
v -0.401900 0.159934 0.036506
v -0.401900 0.216040 -0.000000
v -0.401900 0.169076 -0.064640
v -0.401900 0.093087 -0.039950
v -0.401900 0.093087 0.039950
v -0.401900 0.169076 0.064640
v -0.416900 0.216040 -0.000000
v -0.416900 0.169076 -0.064640
v -0.416900 0.093087 -0.039950
v -0.416900 0.093087 0.039950
v -0.416900 0.169076 0.064640
v -0.077117 0.216457 0.021903
v -0.051368 0.216457 0.013537
v -0.051368 0.216457 -0.013537
v -0.093031 0.216457 -0.000000
v -0.077117 0.216457 -0.021903
v -0.077117 0.276239 -0.021903
v -0.051368 0.276239 -0.013537
v -0.051368 0.276239 0.013537
v -0.339091 0.547500 -0.021903
v -0.313342 0.547500 -0.013537
v -0.313342 0.547500 0.013537
v -0.339091 0.547500 0.021903
v -0.355005 0.547500 -0.000000
v 0.166900 0.536538 0.416900
v -0.416900 0.536538 0.416900
v 0.166900 0.536538 -0.416900
v -0.416900 0.536538 -0.416900
v 0.033175 0.397896 -0.191745
v 0.033175 0.397896 0.191745
v -0.272350 0.397896 -0.191745
v -0.272350 0.397896 0.191745
v -0.341529 0.536538 -0.029407
v -0.306960 0.536538 -0.018174
v -0.306960 0.536538 0.018174
v -0.341529 0.536538 0.029407
v -0.362894 0.536538 -0.000000
v -0.339091 0.671881 0.021903
v -0.313342 0.671881 0.013537
v -0.339091 0.671881 -0.021903
v -0.313342 0.652977 0.013537
v -0.313342 0.652977 -0.013537
v -0.168447 0.652977 0.013537
v -0.168447 0.652977 -0.013537
v -0.168447 0.640477 0.013537
v -0.168447 0.640477 -0.013537
v -0.313342 0.620477 0.013537
v -0.313342 0.620477 -0.013537
v -0.355005 0.671881 -0.000000
v -0.313342 0.671881 -0.013537
v -0.081861 0.276239 -0.036506
v -0.038946 0.276239 -0.022562
v -0.038946 0.276239 0.022562
v -0.077117 0.276239 0.021903
v -0.093031 0.276239 -0.000000
vn 1.0000 -0.0000 -0.0000
vn -0.0000 -0.0000 1.0000
vn -1.0000 -0.0000 -0.0000
vn -0.0000 -1.0000 -0.0000
vn -0.0000 -0.0000 -1.0000
vn -0.0000 -0.8411 -0.5408
vn 0.7123 -0.7019 -0.0000
vn -0.0000 -0.8411 0.5408
vn -0.8090 -0.0000 0.5878
vn 0.3090 -0.0000 0.9511
vn -0.8090 -0.0000 -0.5878
vn 0.3090 -0.0000 -0.9511
vn -0.0000 1.0000 -0.0000
vn -0.0000 0.8090 0.5878
vn -0.0000 0.8090 -0.5878
vn -0.0000 -0.3090 0.9511
vn -0.0000 -0.3090 -0.9511
vn -0.0000 0.8104 -0.5859
vn -0.0000 0.8104 0.5859
vn -0.7741 0.6330 -0.0000
vn -0.2670 -0.5032 -0.8219
vn -0.2670 -0.5032 0.8219
vn 0.6991 -0.5032 -0.5080
vn -0.8642 -0.5032 -0.0000
vn 0.6991 -0.5032 0.5080
vn 0.8090 -0.0000 0.5878
vn -0.3090 -0.0000 -0.9511
vn -0.3090 -0.0000 0.9511
vn 0.8090 -0.0000 -0.5878
vn -0.1367 0.9906 -0.0000
vn -0.2671 -0.5032 -0.8219
vn -0.2671 -0.5032 0.8219
vt 0.849272 0.724272
vt 0.849272 0.525728
vt 0.593750 0.833333
vt 0.250000 0.802083
vt 0.593750 0.802083
vt 1.000000 0.833333
vt 0.000000 0.802083
vt 1.000000 0.802083
vt 0.015625 0.010417
vt 0.453125 0.291667
vt 0.015625 0.291667
vt 0.750000 0.833333
vt 0.406250 0.802083
vt 0.750000 0.802083
vt 0.468750 0.729167
vt 0.750000 0.729167
vt 0.203125 0.729167
vt 0.796875 0.729167
vt 0.531250 0.729167
vt 0.250000 0.729167
vt 0.250000 0.490000
vt 0.021746 0.324164
vt 0.453125 0.437500
vt 0.375000 0.541667
vt 0.375000 0.437500
vt 0.375000 0.635417
vt 0.500000 0.375000
vt 0.375000 0.375000
vt 0.531250 0.437500
vt 0.453125 0.541667
vt 0.500000 0.635417
vt 0.625000 0.375000
vt 0.478254 0.324164
vt 0.391068 0.055836
vt 0.562500 0.635417
vt 0.437500 0.375000
vt 0.562500 0.375000
vt 0.453125 0.447917
vt 0.531250 0.468750
vt 0.468750 0.468750
vt 0.546875 0.447917
vt 0.546875 0.500000
vt 0.578125 0.510417
vt 0.625000 0.437500
vt 0.531250 0.541667
vt 0.625000 0.635417
vt 0.978254 0.324164
vt 0.608932 0.055836
vt 0.521746 0.324164
vt 0.468750 0.625000
vt 0.531250 0.375000
vt 0.531250 0.625000
vt 0.578125 0.375000
vt 0.515625 0.625000
vt 0.515625 0.375000
vt 0.406250 0.625000
vt 0.468750 0.375000
vt 0.578125 0.625000
vt 0.421875 0.375000
vt 0.375000 0.625000
vt 0.421875 0.572917
vt 0.406250 0.500000
vt 0.421875 0.500000
vt 0.437500 0.583333
vt 0.484375 0.604167
vt 0.390625 0.604167
vt 0.406250 0.427083
vt 0.500000 0.427083
vt 0.468750 0.406250
vt 0.421875 0.489583
vt 0.421875 0.406250
vt 0.406250 0.437500
vt 0.421875 0.479167
vt 0.406250 0.479167
vt 0.406250 0.531250
vt 0.406250 0.572917
vt 0.421875 0.437500
vt 0.421875 0.531250
vt 0.453125 0.510417
vt 0.500000 0.500000
vt 0.500000 0.489583
vt 0.546875 0.510417
vt 0.453125 0.500000
vt 0.421875 0.510417
vt 0.578125 0.406250
vt 0.531250 0.489583
vt 0.531250 0.406250
vt 0.468750 0.489583
vt 0.468750 0.510417
vt 0.031250 0.291667
vt 0.000000 0.000000
vt 0.031250 0.020833
vt 1.000000 0.000000
vt 0.968750 0.020833
vt 0.968750 0.291667
vt 0.000000 0.375000
vt 1.000000 0.375000
vt 0.281250 0.291667
vt 0.703125 0.031250
vt 0.281250 0.031250
vt 0.703125 0.291667
vt 0.031250 -0.000000
vt 1.000000 0.145833
vt 0.234375 0.291667
vt -0.000000 0.145833
vt 0.468750 0.572917
vt 0.437500 0.541667
vt 0.468750 0.552083
vt 0.437500 0.572917
vt 0.484375 0.500000
vt 0.453125 0.635417
vt 0.484375 0.635417
vt 0.437500 0.500000
vt 0.437500 0.635417
vt 0.108932 0.055836
vt 0.484375 0.583333
vt 0.484375 0.531250
vt 0.515625 0.562500
vt 0.250000 0.833333
vt 0.000000 0.833333
vt 0.453125 0.010417
vt 0.406250 0.833333
vt 0.625000 0.541667
vt 0.750000 0.490000
vt 0.891068 0.055836
vt 0.406250 0.375000
vt 0.625000 0.625000
vt 0.421875 0.625000
vt 0.375000 0.468750
vt 0.531250 0.510417
vt 0.578125 0.489583
vt 0.968750 0.000000
vt 0.765625 0.291667
s 0
usemtl Material
f 7/1/1 69/2/1 5/2/1
f 63/3/2 10/4/2 11/5/2
f 64/6/3 12/7/3 10/8/3
f 2/9/4 8/10/4 6/11/4
f 65/6/1 11/7/1 9/8/1
f 66/12/5 9/13/5 12/14/5
f 12/14/6 2/15/6 6/16/6
f 9/8/7 4/17/7 2/18/7
f 10/8/3 6/17/3 8/18/3
f 4/19/8 10/4/8 8/20/8
f 93/21/9 50/22/9 92/22/9
f 91/23/10 29/24/10 24/25/10
f 15/26/11 16/27/11 14/28/11
f 90/29/1 28/30/1 91/23/1
f 17/31/12 18/32/12 16/27/12
f 13/21/11 25/33/11 89/33/11
f 52/34/4 50/22/4 53/21/4
f 19/35/1 20/36/1 18/37/1
f 21/38/13 52/39/13 51/40/13
f 90/41/4 55/42/4 89/43/4
f 21/26/10 22/27/10 20/28/10
f 24/22/9 26/21/9 13/21/9
f 89/44/12 27/45/12 90/29/12
f 23/46/9 14/27/9 22/32/9
f 16/47/4 20/48/4 22/49/4
f 30/50/14 39/51/14 34/52/14
f 33/53/4 37/54/4 32/55/4
f 31/56/15 35/57/15 30/50/15
f 34/32/16 38/58/16 33/53/16
f 32/59/17 36/60/17 31/28/17
f 41/61/15 45/62/15 40/63/15
f 40/64/1 44/65/1 41/66/1
f 41/39/1 43/67/1 42/68/1
f 56/69/12 54/70/12 55/71/12
f 44/72/16 48/73/16 43/74/16
f 42/75/17 46/61/17 41/76/17
f 40/63/14 49/72/14 44/77/14
f 43/74/4 47/78/4 42/75/4
f 89/79/4 93/80/4 13/81/4
f 93/80/4 24/82/4 13/81/4
f 92/83/4 91/38/4 24/84/4
f 91/38/4 56/39/4 90/41/4
f 92/85/10 51/86/10 57/87/10
f 57/87/1 52/88/1 56/69/1
f 55/33/11 53/21/11 93/21/11
f 21/38/13 50/83/13 23/84/13
f 23/82/13 53/80/13 15/81/13
f 17/79/13 53/80/13 54/89/13
f 17/43/13 52/39/13 19/41/13
f 7/90/13 63/91/13 3/92/13
f 3/92/13 65/93/13 1/94/13
f 5/95/13 64/96/13 7/90/13
f 5/95/13 65/93/13 66/97/13
f 69/98/13 68/99/13 67/100/13
f 7/95/18 68/99/18 70/101/18
f 5/90/19 67/100/19 1/102/19
f 1/103/20 68/104/20 3/105/20
f 60/106/21 74/107/21 61/108/21
f 59/108/22 71/109/22 72/107/22
f 61/106/23 75/107/23 62/108/23
f 59/106/24 73/107/24 60/108/24
f 62/106/25 71/107/25 58/108/25
f 58/110/26 87/111/26 62/83/26
f 60/110/3 88/111/3 59/83/3
f 61/110/27 77/111/27 60/83/27
f 59/110/28 78/111/28 58/83/28
f 62/110/29 76/111/29 61/83/29
f 80/112/4 81/113/4 79/114/4
f 82/34/3 83/115/3 81/115/3
f 84/110/30 85/114/30 83/113/30
f 83/83/5 79/114/5 81/113/5
f 80/114/2 84/83/2 82/113/2
f 78/116/4 77/107/4 76/117/4
f 87/118/4 78/116/4 76/117/4
f 7/1/1 70/1/1 69/2/1
f 63/3/2 64/119/2 10/4/2
f 64/6/3 66/120/3 12/7/3
f 2/9/4 4/121/4 8/10/4
f 65/6/1 63/120/1 11/7/1
f 66/12/5 65/122/5 9/13/5
f 12/14/6 9/13/6 2/15/6
f 9/8/7 11/7/7 4/17/7
f 10/8/3 12/7/3 6/17/3
f 4/19/8 11/5/8 10/4/8
f 93/21/9 53/21/9 50/22/9
f 91/23/10 28/30/10 29/24/10
f 15/26/11 17/31/11 16/27/11
f 90/29/1 27/45/1 28/30/1
f 17/31/12 19/46/12 18/32/12
f 13/21/11 26/21/11 25/33/11
f 53/21/4 54/33/4 52/34/4
f 52/34/4 51/115/4 50/22/4
f 19/35/1 21/114/1 20/36/1
f 21/38/13 19/41/13 52/39/13
f 90/41/4 56/39/4 55/42/4
f 21/26/10 23/31/10 22/27/10
f 24/22/9 29/22/9 26/21/9
f 89/44/12 25/123/12 27/45/12
f 23/46/9 15/31/9 14/27/9
f 22/49/4 14/124/4 16/47/4
f 16/47/4 18/125/4 20/48/4
f 30/50/14 35/57/14 39/51/14
f 33/53/4 38/58/4 37/54/4
f 31/56/15 36/126/15 35/57/15
f 34/32/16 39/127/16 38/58/16
f 32/59/17 37/128/17 36/60/17
f 41/61/15 46/76/15 45/62/15
f 41/39/1 44/129/1 43/67/1
f 56/69/12 52/88/12 54/70/12
f 44/72/16 49/77/16 48/73/16
f 42/75/17 47/78/17 46/61/17
f 40/63/14 45/62/14 49/72/14
f 43/74/4 48/73/4 47/78/4
f 89/79/4 55/89/4 93/80/4
f 93/80/4 92/130/4 24/82/4
f 92/83/4 57/40/4 91/38/4
f 91/38/4 57/40/4 56/39/4
f 92/85/10 50/131/10 51/86/10
f 57/87/1 51/86/1 52/88/1
f 55/33/11 54/33/11 53/21/11
f 21/38/13 51/40/13 50/83/13
f 23/82/13 50/130/13 53/80/13
f 17/79/13 15/81/13 53/80/13
f 17/43/13 54/42/13 52/39/13
f 7/90/13 64/96/13 63/91/13
f 3/92/13 63/91/13 65/93/13
f 5/95/13 66/97/13 64/96/13
f 5/95/13 1/94/13 65/93/13
f 69/98/13 70/101/13 68/99/13
f 7/95/18 3/132/18 68/99/18
f 5/90/19 69/98/19 67/100/19
f 1/103/20 67/133/20 68/104/20
f 60/106/31 73/109/31 74/107/31
f 59/108/32 58/106/32 71/109/32
f 61/106/23 74/109/23 75/107/23
f 59/106/24 72/109/24 73/107/24
f 62/106/25 75/109/25 71/107/25
f 58/110/26 78/112/26 87/111/26
f 60/110/3 77/112/3 88/111/3
f 61/110/27 76/112/27 77/111/27
f 59/110/28 88/112/28 78/111/28
f 62/110/29 87/112/29 76/111/29
f 80/112/4 82/110/4 81/113/4
f 82/34/3 84/34/3 83/115/3
f 84/110/30 86/112/30 85/114/30
f 83/83/5 85/112/5 79/114/5
f 80/114/2 86/112/2 84/83/2
f 78/116/4 88/109/4 77/107/4
o Sink01.Faucet
v -0.339091 0.702977 0.021903
v -0.313342 0.702977 0.013537
v -0.313342 0.702977 -0.013537
v -0.355005 0.702977 -0.000000
v -0.339091 0.702977 -0.021903
v -0.339091 0.671881 0.021903
v -0.355005 0.671881 -0.000000
v -0.233342 0.702977 0.013537
v -0.233342 0.702977 -0.013537
v -0.233342 0.690477 0.013537
v -0.233342 0.690477 -0.013537
v -0.313342 0.690477 0.013537
v -0.313342 0.690477 -0.013537
v -0.313342 0.671881 0.013537
v -0.313342 0.671881 -0.013537
v -0.339091 0.671881 -0.021903
vn 0.8090 -0.0000 -0.5878
vn -0.3090 -0.0000 0.9511
vn -0.3090 -0.0000 -0.9511
vn -1.0000 -0.0000 -0.0000
vn 0.8090 -0.0000 0.5878
vn -0.0000 -1.0000 -0.0000
vn -0.0000 1.0000 -0.0000
vn -0.0000 -0.0000 -1.0000
vn -0.0000 -0.0000 1.0000
vt 0.515625 0.677083
vt 0.546875 0.656250
vt 0.546875 0.677083
vt 0.515625 0.656250
vt 0.484375 0.583333
vt 0.437500 0.541667
vt 0.484375 0.531250
vt 0.515625 0.562500
vt 0.515625 0.604167
vt 0.562500 0.510417
vt 0.562500 0.604167
vt 0.453125 0.500000
vt 0.468750 0.520833
vt 0.453125 0.520833
vt 0.500000 0.510417
vt 0.453125 0.604167
vt 0.453125 0.510417
vt 0.437500 0.604167
vt 0.437500 0.510417
vt 0.500000 0.604167
vt 0.515625 0.510417
vt 0.437500 0.572917
vt 0.468750 0.500000
s 0
usemtl Material
f 100/134/33 94/135/33 99/136/33
f 108/134/34 98/135/34 109/136/34
f 99/136/35 95/137/35 107/134/35
f 107/136/36 96/137/36 108/134/36
f 109/136/37 97/137/37 100/134/37
f 98/138/38 95/139/38 94/140/38
f 97/141/38 98/138/38 94/140/38
f 96/142/38 101/143/38 95/144/38
f 102/145/36 103/146/36 101/147/36
f 104/148/39 105/149/39 103/150/39
f 103/150/40 95/151/40 101/152/40
f 106/153/41 102/154/41 96/142/41
f 107/139/39 109/138/39 99/140/39
f 100/141/39 99/140/39 109/138/39
f 100/134/33 97/137/33 94/135/33
f 108/134/34 96/137/34 98/135/34
f 99/136/35 94/135/35 95/137/35
f 107/136/36 95/135/36 96/137/36
f 109/136/37 98/135/37 97/137/37
f 98/138/38 96/155/38 95/139/38
f 96/142/38 102/154/38 101/143/38
f 102/145/36 104/156/36 103/146/36
f 104/148/39 106/153/39 105/149/39
f 103/150/40 105/149/40 95/151/40
f 106/153/41 104/148/41 102/154/41
f 107/139/39 108/155/39 109/138/39
