# Blender 4.2.0
# www.blender.org
mtllib StorageBoxPlastic01.mtl
o StorageBoxPlastic01
v -0.183673 0.273244 0.326140
v -0.249298 0.273244 0.260515
v -0.249298 0.273244 -0.260515
v -0.183673 0.273244 -0.326140
v 0.249298 0.273244 0.260515
v 0.183673 0.273244 0.326140
v 0.183673 0.273244 -0.326140
v 0.249298 0.273244 -0.260515
v -0.249298 0.287500 0.260515
v -0.183673 0.287500 0.326140
v -0.183673 0.287500 -0.326140
v -0.249298 0.287500 -0.260515
v 0.183673 0.287500 0.326140
v 0.249298 0.287500 0.260515
v 0.249298 0.287500 -0.260515
v 0.183673 0.287500 -0.326140
v -0.166732 0.000000 0.283600
v -0.187500 0.000000 0.262882
v -0.206458 0.273244 0.262882
v -0.185690 0.273244 0.283600
v -0.187500 0.000000 -0.262882
v -0.166732 -0.000000 -0.283600
v -0.185690 0.273244 -0.283600
v -0.206458 0.273244 -0.262882
v 0.187500 0.000000 0.262882
v 0.166732 -0.000000 0.283600
v 0.185690 0.273244 0.283600
v 0.206458 0.273244 0.262882
v 0.166732 0.000000 -0.283600
v 0.187500 0.000000 -0.262882
v 0.206458 0.273244 -0.262882
v 0.185690 0.273244 -0.283600
vn -0.0000 -0.0000 1.0000
vn 0.9976 -0.0692 -0.0000
vn -0.0000 -0.0000 -1.0000
vn -0.9976 -0.0692 -0.0000
vn 1.0000 -0.0000 -0.0000
vn -0.0000 1.0000 -0.0000
vn -0.0000 -1.0000 -0.0000
vn 0.7071 -0.0000 0.7071
vn -0.7071 -0.0000 0.7071
vn -0.7071 -0.0000 -0.7071
vn 0.7071 -0.0000 -0.7071
vn -1.0000 -0.0000 -0.0000
vn -0.7054 -0.0489 0.7071
vn -0.7054 -0.0489 -0.7071
vn 0.7054 -0.0489 -0.7071
vn 0.7054 -0.0489 0.7071
vt 0.857711 0.692308
vt 0.564182 0.423077
vt 0.842068 0.423077
vt 0.938000 0.711538
vt 0.539704 0.980769
vt 0.952484 0.980769
vt 0.148438 0.519231
vt 0.429688 0.500000
vt 0.429688 0.519231
vt 0.085938 0.519231
vt 0.476562 0.500000
vt 0.476562 0.519231
vt 0.046875 0.480769
vt 0.500000 0.548077
vt 0.453125 1.000000
vt 0.500000 0.932692
vt 0.453125 0.480769
vt 0.000000 0.548077
vt 0.078125 0.500000
vt 0.078125 0.519231
vt 0.015625 0.500000
vt 0.085938 0.500000
vt 0.548539 0.692308
vt 0.546875 0.423077
vt 0.859375 0.423077
vt 0.875000 0.692308
vt 0.953207 0.712951
vt 0.538981 0.712951
vt 0.554187 0.711538
vt 0.031250 0.000000
vt 0.500000 0.038462
vt 0.468750 0.480769
vt 0.148438 0.500000
vt 0.046875 1.000000
vt 0.000000 0.932692
vt 0.015625 0.519231
vt 0.531250 0.692308
vt 0.968750 0.980769
vt 0.523438 0.980769
vt 0.031250 0.480769
vt 0.000000 0.442308
vt 0.000000 0.038462
vt 0.468750 0.000000
vt 0.500000 0.442308
s 0
usemtl Material
f 27/1/1 17/2/1 26/3/1
f 31/4/2 25/5/2 30/6/2
f 23/1/3 29/2/3 22/3/3
f 19/4/4 21/5/4 18/6/4
f 6/7/1 10/8/1 1/9/1
f 4/7/3 16/8/3 7/9/3
f 8/10/5 14/11/5 5/12/5
f 12/13/6 10/14/6 14/15/6
f 6/16/7 2/17/7 4/18/7
f 14/19/8 6/7/8 5/20/8
f 2/10/9 10/21/9 9/22/9
f 12/19/10 4/7/10 3/20/10
f 8/10/11 16/21/11 15/22/11
f 2/10/12 12/11/12 3/12/12
f 20/23/13 18/24/13 17/2/13
f 23/1/14 21/25/14 24/26/14
f 30/6/15 32/27/15 31/4/15
f 27/28/16 25/5/16 28/29/16
f 30/30/7 26/31/7 18/32/7
f 27/1/1 20/23/1 17/2/1
f 31/4/2 28/29/2 25/5/2
f 23/1/3 32/23/3 29/2/3
f 19/4/4 24/29/4 21/5/4
f 6/7/1 13/33/1 10/8/1
f 4/7/3 11/33/3 16/8/3
f 8/10/5 15/22/5 14/11/5
f 14/15/6 15/34/6 16/35/6
f 16/35/6 11/18/6 12/13/6
f 12/13/6 9/17/6 10/14/6
f 10/14/6 13/16/6 14/15/6
f 14/15/6 16/35/6 12/13/6
f 4/18/7 7/35/7 8/34/7
f 8/34/7 5/15/7 6/16/7
f 6/16/7 1/14/7 2/17/7
f 2/17/7 3/13/7 4/18/7
f 4/18/7 8/34/7 6/16/7
f 14/19/8 13/33/8 6/7/8
f 2/10/9 1/36/9 10/21/9
f 12/19/10 11/33/10 4/7/10
f 8/10/11 7/36/11 16/21/11
f 2/10/12 9/22/12 12/11/12
f 20/23/13 19/37/13 18/24/13
f 23/1/14 22/3/14 21/25/14
f 30/6/15 29/38/15 32/27/15
f 27/28/16 26/39/16 25/5/16
f 18/32/7 21/40/7 22/41/7
f 22/41/7 29/42/7 30/30/7
f 30/30/7 25/43/7 26/31/7
f 26/31/7 17/44/7 18/32/7
f 18/32/7 22/41/7 30/30/7
