# Blender 4.2.0
# www.blender.org
mtllib Toilet01.mtl
o Toilet01
v 0.000000 0.000000 1.186036
v 0.000000 0.466369 1.155350
v -0.206876 0.000000 1.035732
v -0.191319 0.466369 1.016348
v -0.127856 0.000000 0.316171
v -0.118242 0.466369 0.350898
v 0.127856 0.000000 0.316171
v 0.118242 0.466369 0.350898
v 0.206876 0.000000 1.035732
v 0.191319 0.466369 1.016348
v 0.000000 0.594347 1.264641
v -0.239517 0.594347 1.090622
v -0.148030 0.594347 0.257528
v 0.148030 0.594347 0.257528
v 0.239517 0.594347 1.090622
v 0.000000 0.732990 1.336261
v -0.275826 0.732990 1.135861
v -0.170470 0.732990 0.124423
v 0.170470 0.732990 0.124423
v 0.275826 0.732990 1.135861
v 0.000000 0.828974 1.336261
v -0.275826 0.828974 1.135861
v -0.170470 0.828974 0.124423
v 0.170470 0.828974 0.124423
v 0.275826 0.828974 1.135861
v 0.185858 0.000000 0.789710
v 0.204375 0.466369 0.797381
v 0.255862 0.594347 0.787833
v 0.294648 0.732990 0.769929
v 0.294648 0.828974 0.769929
v -0.185858 0.000000 0.789710
v -0.204375 0.466369 0.797381
v -0.255861 0.594347 0.787833
v -0.294648 0.732990 0.769929
v -0.294648 0.828974 0.769929
v 0.000000 0.828974 1.214503
v -0.214812 0.828974 1.058433
v -0.132761 0.828974 0.509110
v 0.132761 0.828974 0.509110
v 0.214812 0.828974 1.058433
v 0.229471 0.828974 0.773446
v -0.229471 0.828974 0.773446
v 0.000000 0.732694 1.214503
v -0.214812 0.732694 1.058433
v -0.132761 0.732694 0.509110
v 0.132761 0.732694 0.509110
v 0.214812 0.732694 1.058433
v 0.229471 0.732694 0.773446
v -0.229471 0.732694 0.773446
v 0.000000 0.594446 1.150064
v -0.177616 0.594446 1.021018
v -0.109773 0.594446 0.566813
v 0.109773 0.594446 0.566813
v 0.177616 0.594446 1.021018
v 0.189737 0.594446 0.785378
v -0.189737 0.594446 0.785378
v 0.000000 0.466369 1.076268
v -0.135020 0.466369 0.978170
v -0.083447 0.466369 0.632894
v 0.083447 0.466369 0.632894
v 0.135020 0.466369 0.978170
v 0.144234 0.466369 0.799042
v -0.144233 0.466369 0.799042
v 0.000000 0.257045 0.933615
v -0.091578 0.257045 0.867080
v -0.056598 0.257045 0.632894
v 0.056598 0.257045 0.632894
v 0.091578 0.257045 0.867080
v 0.097827 0.257045 0.745585
v -0.097827 0.257045 0.745585
v 0.132051 0.828974 0.467445
v 0.132051 0.854122 0.467445
v 0.132051 0.828974 0.403298
v 0.132051 0.854122 0.403298
v 0.179949 0.828974 0.467445
v 0.179949 0.854122 0.467445
v 0.179949 0.828974 0.403298
v 0.179949 0.854122 0.403298
v -0.179949 0.828974 0.467445
v -0.179949 0.854122 0.467445
v -0.179949 0.828974 0.403298
v -0.179949 0.854122 0.403298
v -0.132051 0.828974 0.467445
v -0.132051 0.854122 0.467445
v -0.132051 0.828974 0.403298
v -0.132051 0.854122 0.403298
v 0.000000 0.353504 0.350898
v -0.107341 0.431492 0.350898
v -0.066340 0.557679 0.350898
v 0.066341 0.557679 0.350898
v 0.107342 0.431492 0.350898
v 0.000000 0.353504 0.280608
v -0.107341 0.431492 0.280608
v -0.066340 0.557679 0.280608
v 0.066341 0.557679 0.280608
v 0.107342 0.431492 0.280608
v 0.000000 0.315787 0.000000
v -0.107341 0.393775 0.000000
v -0.066340 0.519963 0.000000
v 0.066341 0.519963 0.000000
v 0.107342 0.393775 0.000000
v -0.294648 0.828974 0.345339
v -0.294648 1.597513 0.345339
v -0.294648 0.828974 0.000000
v -0.294648 1.597513 0.000000
v 0.294648 0.828974 0.345339
v 0.294648 1.597513 0.345339
v 0.294648 0.828974 0.000000
v 0.294648 1.597513 0.000000
v -0.294648 0.732990 0.176479
v 0.294648 0.732990 0.176479
v -0.294648 0.828974 0.168860
v -0.294648 0.732990 0.000000
v 0.294648 0.732990 0.000000
v -0.294648 0.828974 0.000000
v 0.294648 0.828974 0.000000
vn -0.5870 0.0532 0.8079
vn -0.9921 0.0295 -0.1215
vn -0.0000 0.0743 -0.9972
vn -0.0000 -0.5894 -0.8079
vn 0.9959 0.0297 -0.0851
vn 0.5870 0.0532 0.8079
vn 0.5423 -0.3856 0.7465
vn 0.9088 -0.3787 -0.1753
vn -0.9277 -0.3691 0.0553
vn 0.4836 -0.5684 0.6656
vn -0.4836 -0.5684 0.6656
vn 0.9820 -0.0000 -0.1889
vn -0.0000 -0.6926 -0.7214
vn -0.5423 -0.3856 0.7465
vn 0.9386 -0.2872 -0.1909
vn -0.9634 -0.2628 0.0520
vn -0.0000 1.0000 -0.0000
vn -0.9987 -0.0000 0.0514
vn 0.5878 -0.0000 0.8090
vn -0.5878 -0.0000 0.8090
vn 0.9621 -0.2681 0.0495
vn 0.9987 -0.0000 0.0514
vn 0.9248 -0.3772 0.0499
vn 0.9921 0.0295 -0.1215
vn -0.9820 -0.0000 -0.1889
vn -0.9296 -0.3222 -0.1788
vn -0.9180 -0.3499 -0.1867
vn -0.9959 0.0297 -0.0851
vn -0.0000 -0.0000 1.0000
vn 0.8996 0.2870 0.3291
vn 0.5878 -0.0000 -0.8090
vn -0.9987 -0.0000 -0.0514
vn -0.9391 -0.0000 0.3436
vn 0.9987 -0.0000 -0.0514
vn 0.9391 -0.0000 0.3436
vn -0.5878 -0.0000 -0.8090
vn -0.9428 0.3298 -0.0485
vn -0.5500 0.3528 -0.7570
vn -0.0000 0.3852 0.9228
vn 0.5500 0.3528 -0.7570
vn -0.9610 0.2719 -0.0494
vn -0.8996 0.2870 0.3291
vn 0.9610 0.2719 -0.0494
vn -0.5147 0.4828 -0.7085
vn -0.8807 0.3473 0.3222
vn 0.9428 0.3298 -0.0485
vn 0.8807 0.3473 0.3222
vn -0.5327 0.4225 -0.7333
vn -0.0000 0.4585 0.8887
vn 0.5327 0.4225 -0.7333
vn 0.5147 0.4828 -0.7085
vn -0.9723 0.2283 -0.0500
vn -0.9324 0.1196 0.3411
vn 0.9723 0.2283 -0.0500
vn 0.9324 0.1196 0.3411
vn -1.0000 -0.0000 -0.0000
vn -0.0000 -0.0000 -1.0000
vn 1.0000 -0.0000 -0.0000
vn -0.5878 0.8090 -0.0000
vn -0.0000 -1.0000 -0.0000
vn 0.5878 0.8090 -0.0000
vn -0.9511 -0.3090 -0.0000
vn 0.9511 -0.3090 -0.0000
vn -0.9502 -0.3088 0.0415
vn 0.9502 -0.3088 0.0415
vn -0.5843 0.8043 -0.1081
vn -0.0000 -0.9911 0.1332
vn 0.5843 0.8043 -0.1081
vn -0.0000 -0.8694 0.4942
vn -0.9813 -0.0358 -0.1893
vn 0.9974 -0.0406 0.0595
vn 0.9180 -0.3499 -0.1867
vn -0.9248 -0.3772 0.0499
vn 0.9296 -0.3222 -0.1788
vn -0.9621 -0.2681 0.0495
vn 0.9634 -0.2628 0.0520
vn 0.9277 -0.3691 0.0553
vn 0.9813 -0.0358 -0.1893
vn -0.9386 -0.2872 -0.1909
vn -0.9088 -0.3787 -0.1753
vn -0.9974 -0.0406 0.0595
vt 0.265625 0.481250
vt 0.007812 0.587500
vt 0.000000 0.481250
vt 0.015625 0.693750
vt 0.257812 0.900000
vt 0.000000 0.906250
vt 0.257812 0.331250
vt 0.039062 0.000000
vt 0.265625 0.000000
vt 0.023438 0.443750
vt 0.046875 0.331250
vt 0.476562 0.281250
vt 0.210938 0.175000
vt 0.484375 0.181250
vt 0.234375 0.068750
vt 0.484375 0.068750
vt 0.148438 0.031250
vt 0.054688 0.150000
vt 0.070312 0.006250
vt 0.242188 0.481250
vt 0.140625 0.287500
vt 0.218750 0.281250
vt 0.289062 0.581250
vt 0.351562 0.700000
vt 0.281250 0.687500
vt 0.132812 0.156250
vt 0.367188 0.568750
vt 0.093750 0.581250
vt 0.015625 0.306250
vt 0.070312 0.300000
vt 0.281250 0.443750
vt -0.000000 0.575000
vt 0.343750 0.437500
vt 0.445312 0.562500
vt 0.171875 0.525000
vt 0.429688 0.712500
vt 0.945312 0.550000
vt 0.757812 0.556250
vt 0.757812 0.475000
vt 0.484375 0.712500
vt 0.015625 0.000000
vt 0.421875 0.412500
vt 0.500000 0.556250
vt 0.000000 0.150000
vt 0.484375 0.487500
vt 0.460938 1.000000
vt 0.406250 1.000000
vt 0.328125 0.937500
vt 0.804688 0.562500
vt 0.703125 0.587500
vt 0.703125 0.562500
vt 0.578125 0.950000
vt 0.875000 0.856250
vt 0.929688 0.950000
vt 0.554688 0.550000
vt 0.640625 0.600000
vt 1.000000 0.693750
vt 0.867188 0.600000
vt 0.906250 0.693750
vt 0.500000 0.693750
vt 0.625000 0.856250
vt 0.601562 0.693750
vt 0.679688 0.618750
vt 0.664062 0.693750
vt 0.632812 0.675000
vt 0.750000 0.575000
vt 0.664062 0.612500
vt 0.664062 0.581250
vt 0.609375 0.662500
vt 0.687500 0.625000
vt 0.648438 0.600000
vt 0.835938 0.581250
vt 0.750000 0.600000
vt 0.664062 0.687500
vt 0.734375 0.681250
vt 0.710938 0.650000
vt 0.835938 0.612500
vt 0.750000 0.637500
vt 0.796875 0.643750
vt 0.710938 0.643750
vt 0.679688 0.656250
vt 0.710938 0.650000
vt 0.804688 0.700000
vt 0.750000 0.756250
vt 0.750000 0.681250
vt 0.695312 0.712500
vt 0.726562 0.675000
vt 0.820312 0.656250
vt 0.718750 0.687500
vt 0.695312 0.700000
vt 0.750000 0.700000
vt 0.781250 0.762500
vt 0.726562 0.800000
vt 0.789062 0.687500
vt 0.734375 0.750000
vt 0.710938 0.756250
vt 0.757812 0.725000
vt 0.625000 0.987500
vt 0.640625 0.956250
vt 0.640625 0.987500
vt 0.843750 0.987500
vt 0.867188 0.950000
vt 0.867188 0.987500
vt 0.656250 0.956250
vt 0.890625 0.950000
vt 0.890625 0.987500
vt 0.859375 0.956250
vt 0.859375 0.987500
vt 0.843750 0.950000
vt 0.648438 0.987500
vt 0.671875 0.950000
vt 0.671875 0.987500
vt 0.875000 0.956250
vt 0.648438 0.950000
vt 0.625000 0.950000
vt 0.007812 0.543750
vt 0.062500 0.631250
vt 0.007812 0.631250
vt -0.000000 0.368750
vt 0.054688 0.456250
vt -0.000000 0.456250
vt 0.148438 0.381250
vt 0.187500 0.468750
vt 0.132812 0.462500
vt 0.062500 0.537500
vt 0.179688 0.550000
vt 0.125000 0.550000
vt 0.289062 0.468750
vt 0.289062 0.550000
vt 0.398438 0.550000
vt 0.296875 0.637500
vt 0.054688 0.368750
vt 0.203125 0.381250
vt 0.414062 0.462500
vt 0.484375 1.000000
vt 0.484375 0.150000
vt 0.561667 0.999899
vt 0.000101 0.000101
vt 0.561668 0.000101
vt 0.000000 0.487500
vt 0.335938 1.000000
vt 0.000000 0.537500
vt 0.335938 0.537500
vt 0.000000 0.000000
vt 0.289062 0.125000
vt 0.000000 0.125000
vt 0.140625 1.000000
vt -0.000000 0.625000
vt 0.140625 0.625000
vt 0.296875 0.625000
vt 0.296875 1.000000
vt 0.234375 0.256250
vt 0.046875 0.587500
vt 0.304688 0.575000
vt 0.476562 0.412500
vt 0.804688 0.587500
vt 0.789062 0.756250
vt 0.718750 0.762500
vt 0.718750 0.731250
vt 0.781250 0.731250
vt 0.773438 0.800000
vt 0.773438 0.750000
vt 0.625000 0.956250
vt 0.656250 0.987500
vt 0.843750 0.956250
vt 0.875000 0.987500
vt 0.289062 0.375000
vt 0.421875 0.381250
vt 0.000000 1.000000
vt 0.000101 0.999899
vt 0.562500 0.000000
vt -0.000000 1.000000
vt 0.484375 0.256250
s 0
usemtl Material
f 2/1/1 3/2/1 1/3/1
f 31/4/2 6/5/2 5/6/2
f 6/7/3 7/8/3 5/9/3
f 6/7/4 14/10/4 8/11/4
f 26/12/5 10/13/5 9/14/5
f 9/14/6 2/15/6 1/16/6
f 11/17/7 20/18/7 16/19/7
f 8/20/8 28/21/8 27/22/8
f 4/23/9 33/24/9 32/25/9
f 2/15/10 15/26/10 11/17/10
f 2/1/11 12/27/11 4/23/11
f 19/28/12 30/29/12 29/30/12
f 13/31/13 19/32/13 14/10/13
f 11/33/14 17/34/14 12/27/14
f 14/35/15 29/30/15 28/21/15
f 12/27/16 34/36/16 33/24/16
f 25/37/17 36/38/17 21/39/17
f 17/34/18 35/40/18 34/36/18
f 20/18/19 21/41/19 16/19/19
f 16/42/20 22/43/20 17/34/20
f 15/26/21 29/30/21 20/18/21
f 29/30/22 25/44/22 20/18/22
f 10/13/23 28/21/23 15/26/23
f 8/20/24 26/12/24 7/45/24
f 34/36/25 23/46/25 18/47/25
f 13/48/26 34/36/26 18/47/26
f 6/5/27 33/24/27 13/48/27
f 4/23/28 31/4/28 3/2/28
f 38/49/29 46/50/29 39/51/29
f 23/52/17 39/53/17 24/54/17
f 22/55/17 36/38/17 37/56/17
f 30/57/17 40/58/17 25/37/17
f 30/57/17 39/53/17 41/59/17
f 35/60/17 38/61/17 23/52/17
f 35/60/17 37/56/17 42/62/17
f 49/63/30 52/64/30 45/65/30
f 36/66/31 44/67/31 37/68/31
f 41/69/32 47/70/32 40/67/32
f 39/69/33 48/70/33 41/67/33
f 37/71/34 49/65/34 42/69/34
f 42/71/35 45/65/35 38/69/35
f 40/72/36 43/73/36 36/66/36
f 55/74/37 61/75/37 54/76/37
f 47/77/38 50/78/38 43/73/38
f 46/50/39 52/79/39 53/80/39
f 44/67/40 50/78/40 51/81/40
f 48/65/41 54/76/41 47/70/41
f 48/70/42 53/74/42 55/76/42
f 49/65/43 51/82/43 56/64/43
f 61/83/44 64/84/44 57/85/44
f 55/76/45 60/86/45 62/75/45
f 56/64/46 58/87/46 63/86/46
f 56/82/47 59/86/47 52/64/47
f 54/88/48 57/85/48 50/78/48
f 52/79/49 60/89/49 53/80/49
f 51/81/50 57/85/50 58/90/50
f 64/91/17 69/92/17 66/93/17
f 59/94/29 67/95/29 60/89/29
f 58/90/51 64/84/51 65/96/51
f 62/86/52 68/97/52 61/75/52
f 60/86/53 69/97/53 62/75/53
f 63/86/54 65/97/54 70/95/54
f 59/86/55 70/97/55 66/95/55
f 72/98/56 73/99/56 71/100/56
f 74/101/57 77/102/57 73/103/57
f 78/104/58 75/100/58 77/99/58
f 76/103/29 71/105/29 75/106/29
f 80/101/56 81/107/56 79/108/56
f 74/105/17 76/101/17 78/109/17
f 82/110/57 85/111/57 81/112/57
f 86/113/58 83/108/58 85/107/58
f 84/114/29 79/98/29 83/115/29
f 82/111/17 84/98/17 86/115/17
f 91/116/59 92/117/59 87/118/59
f 89/119/60 95/120/60 90/121/60
f 87/122/61 93/123/61 88/124/61
f 90/121/62 96/125/62 91/116/62
f 88/124/63 94/126/63 89/127/63
f 96/125/64 100/128/64 101/129/64
f 93/123/65 99/130/65 94/126/65
f 92/117/66 101/129/66 97/131/66
f 94/132/67 100/128/67 95/120/67
f 92/133/68 98/134/68 93/123/68
f 103/135/56 104/44/56 102/136/56
f 109/137/58 106/138/58 108/139/58
f 107/135/29 102/140/29 106/45/29
f 105/141/17 107/142/17 109/143/17
f 116/144/58 111/145/58 114/146/58
f 110/147/60 114/148/60 111/149/60
f 110/147/69 106/150/69 102/151/69
f 115/136/56 110/152/56 102/44/56
f 2/1/1 4/23/1 3/2/1
f 31/4/70 32/25/70 6/5/70
f 6/7/3 8/11/3 7/8/3
f 6/7/4 13/31/4 14/10/4
f 26/12/71 27/22/71 10/13/71
f 9/14/6 10/13/6 2/15/6
f 11/17/7 15/26/7 20/18/7
f 8/20/72 14/35/72 28/21/72
f 4/23/73 12/27/73 33/24/73
f 2/15/10 10/13/10 15/26/10
f 2/1/11 11/33/11 12/27/11
f 19/28/12 24/153/12 30/29/12
f 13/31/13 18/154/13 19/32/13
f 11/33/14 16/42/14 17/34/14
f 14/35/74 19/28/74 29/30/74
f 12/27/75 17/34/75 34/36/75
f 25/37/17 40/58/17 36/38/17
f 17/34/18 22/43/18 35/40/18
f 20/18/19 25/44/19 21/41/19
f 16/42/20 21/155/20 22/43/20
f 15/26/76 28/21/76 29/30/76
f 29/30/22 30/29/22 25/44/22
f 10/13/77 27/22/77 28/21/77
f 8/20/78 27/22/78 26/12/78
f 34/36/25 35/40/25 23/46/25
f 13/48/79 33/24/79 34/36/79
f 6/5/80 32/25/80 33/24/80
f 4/23/81 32/25/81 31/4/81
f 38/49/29 45/156/29 46/50/29
f 23/52/17 38/61/17 39/53/17
f 22/55/17 21/39/17 36/38/17
f 30/57/17 41/59/17 40/58/17
f 30/57/17 24/54/17 39/53/17
f 35/60/17 42/62/17 38/61/17
f 35/60/17 22/55/17 37/56/17
f 49/63/30 56/82/30 52/64/30
f 36/66/31 43/73/31 44/67/31
f 41/69/32 48/65/32 47/70/32
f 39/69/33 46/65/33 48/70/33
f 37/71/34 44/63/34 49/65/34
f 42/71/35 49/63/35 45/65/35
f 40/72/36 47/77/36 43/73/36
f 55/74/37 62/86/37 61/75/37
f 47/77/38 54/88/38 50/78/38
f 46/50/39 45/156/39 52/79/39
f 44/67/40 43/73/40 50/78/40
f 48/65/41 55/74/41 54/76/41
f 48/70/42 46/65/42 53/74/42
f 49/65/43 44/63/43 51/82/43
f 61/83/44 68/157/44 64/84/44
f 55/76/45 53/74/45 60/86/45
f 56/64/46 51/82/46 58/87/46
f 56/82/47 63/87/47 59/86/47
f 54/88/48 61/83/48 57/85/48
f 52/79/49 59/94/49 60/89/49
f 51/81/50 50/78/50 57/85/50
f 70/158/17 65/159/17 64/91/17
f 64/91/17 68/160/17 69/92/17
f 69/92/17 67/161/17 66/93/17
f 66/93/17 70/158/17 64/91/17
f 59/94/29 66/162/29 67/95/29
f 58/90/51 57/85/51 64/84/51
f 62/86/52 69/95/52 68/97/52
f 60/86/53 67/95/53 69/97/53
f 63/86/54 58/87/54 65/97/54
f 59/86/55 63/87/55 70/97/55
f 72/98/56 74/163/56 73/99/56
f 74/101/57 78/109/57 77/102/57
f 78/104/58 76/164/58 75/100/58
f 76/103/29 72/102/29 71/105/29
f 80/101/56 82/165/56 81/107/56
f 74/105/17 72/106/17 76/101/17
f 82/110/57 86/114/57 85/111/57
f 86/113/58 84/166/58 83/108/58
f 84/114/29 80/110/29 79/98/29
f 82/111/17 80/112/17 84/98/17
f 91/116/59 96/125/59 92/117/59
f 89/119/60 94/132/60 95/120/60
f 87/122/61 92/133/61 93/123/61
f 90/121/62 95/120/62 96/125/62
f 88/124/63 93/123/63 94/126/63
f 96/125/64 95/120/64 100/128/64
f 93/123/65 98/134/65 99/130/65
f 92/117/66 96/125/66 101/129/66
f 94/132/67 99/167/67 100/128/67
f 92/133/68 97/168/68 98/134/68
f 103/135/56 105/169/56 104/44/56
f 109/137/58 107/170/58 106/138/58
f 107/135/29 103/169/29 102/140/29
f 105/141/17 103/169/17 107/142/17
f 116/144/58 106/171/58 111/145/58
f 110/147/60 113/172/60 114/148/60
f 110/147/69 111/149/69 106/150/69
f 115/136/56 113/173/56 110/152/56
l 102 112
o Toilet01.Lid
v 0.000000 0.828974 1.336261
v -0.275826 0.828974 1.135862
v -0.226489 0.828974 0.443497
v 0.226490 0.828974 0.443497
v 0.275826 0.828974 1.135862
v 0.294648 0.828974 0.769929
v -0.294648 0.828974 0.769929
v -0.275826 0.850872 1.135862
v 0.000000 0.850872 1.336261
v -0.294648 0.850872 0.769929
v 0.294648 0.850872 0.769929
v 0.226490 0.850872 0.443497
v 0.275826 0.850872 1.135862
v -0.226489 0.850872 0.443497
vn -0.0000 -1.0000 -0.0000
vn -0.0000 1.0000 -0.0000
vn -0.0000 -0.0000 -1.0000
vn -0.5878 -0.0000 0.8090
vn -0.9987 -0.0000 0.0514
vn 0.9789 -0.0000 -0.2044
vn 0.5878 -0.0000 0.8090
vn 0.9987 -0.0000 0.0514
vn -0.9789 -0.0000 -0.2044
vt 0.742188 0.000000
vt 0.953125 0.106250
vt 0.546875 0.106250
vt 0.960938 0.300000
vt 0.578125 0.475000
vt 0.523438 0.300000
vt 0.921875 0.475000
vt 0.742188 0.118750
vt 0.757812 0.368750
vt 0.742188 0.368750
vt 0.765625 0.243750
vt 0.757812 0.168750
vt 0.765625 0.168750
vt 0.757812 0.087500
vt 0.765625 0.087500
vt 0.765625 0.468750
vt 0.757812 0.400000
vt 0.765625 0.400000
vt 0.765625 0.318750
vt 0.757812 0.243750
vt 0.757812 0.318750
vt 0.757812 0.018750
vt 0.765625 0.018750
vt 0.757812 0.118750
vt 0.757812 0.468750
s 0
usemtl Material
f 117/174/82 118/175/82 121/176/82
f 123/177/82 120/178/82 122/179/82
f 125/174/83 129/175/83 124/176/83
f 124/176/83 127/177/83 126/179/83
f 128/180/83 126/179/83 127/177/83
f 128/181/84 119/182/84 130/183/84
f 117/184/85 124/185/85 118/186/85
f 118/186/86 126/187/86 123/188/86
f 122/179/82 118/175/82 123/177/82
f 120/189/87 127/190/87 122/191/87
f 121/192/88 125/193/88 117/184/88
f 122/191/89 129/194/89 121/192/89
f 123/188/90 130/195/90 119/196/90
f 123/177/82 119/180/82 120/178/82
f 124/176/83 129/175/83 127/177/83
f 128/180/83 130/178/83 126/179/83
f 128/181/84 120/197/84 119/182/84
f 117/184/85 125/193/85 124/185/85
f 118/186/86 124/185/86 126/187/86
f 122/179/82 121/176/82 118/175/82
f 120/189/87 128/198/87 127/190/87
f 121/192/88 129/194/88 125/193/88
f 122/191/89 127/190/89 129/194/89
f 123/188/90 126/187/90 130/195/90
