# Blender 4.2.0
# www.blender.org
mtllib Toolbox01.mtl
o Toolbox01
v 0.225000 0.000000 -0.525000
v 0.225000 0.000000 0.525000
v -0.225000 0.000000 -0.525000
v -0.225000 0.000000 0.525000
v 0.155849 0.525000 -0.476594
v 0.225000 0.455849 -0.525000
v 0.155849 0.525000 0.476594
v 0.225000 0.455849 0.525000
v -0.155849 0.525000 -0.476594
v -0.225000 0.455849 -0.525000
v -0.155849 0.525000 0.476594
v -0.225000 0.455849 0.525000
v -0.000000 0.525000 -0.179996
v -0.000000 0.595666 -0.178032
v 0.028528 0.525000 -0.159269
v 0.028528 0.588290 -0.158662
v 0.017631 0.525000 -0.125733
v 0.017631 0.576356 -0.127322
v -0.017631 0.525000 -0.125733
v -0.017631 0.576356 -0.127322
v -0.028528 0.525000 -0.159269
v -0.028528 0.588290 -0.158662
v 0.028528 0.640924 -0.097809
v 0.000000 0.658126 -0.109371
v 0.017631 0.613090 -0.079102
v -0.017631 0.613090 -0.079102
v -0.028528 0.640924 -0.097809
v 0.028528 0.640924 0.097809
v 0.000000 0.658126 0.109371
v -0.028528 0.640924 0.097809
v -0.000000 0.525000 0.179996
v -0.000000 0.595666 0.178032
v 0.028528 0.525000 0.159269
v 0.028528 0.588290 0.158662
v 0.017631 0.525000 0.125733
v 0.017631 0.576356 0.127322
v -0.017631 0.525000 0.125733
v -0.017631 0.576356 0.127322
v -0.028528 0.525000 0.159269
v -0.028528 0.588290 0.158662
v 0.017631 0.613090 0.079102
v -0.017631 0.613090 0.079102
vn -0.0000 -0.0000 1.0000
vn -1.0000 -0.0000 -0.0000
vn -0.0000 -1.0000 -0.0000
vn -0.0000 1.0000 -0.0000
vn 1.0000 -0.0000 -0.0000
vn -0.0000 0.5735 0.8192
vn 0.7071 0.7071 -0.0000
vn -0.7071 0.7071 -0.0000
vn -0.0000 0.5735 -0.8192
vn -0.0000 -0.0000 -1.0000
vn 0.5878 0.0078 -0.8090
vn 0.9510 0.0096 0.3090
vn -0.0000 0.0309 0.9995
vn -0.9382 -0.2618 0.2265
vn -0.9510 0.0096 0.3090
vn -0.5878 0.0078 -0.8090
vn 0.5164 0.8564 -0.0000
vn 0.9509 -0.2462 0.1876
vn -0.5439 0.6207 -0.5647
vn 0.5849 0.6134 -0.5306
vn -0.0000 -0.7955 0.6060
vn -0.9312 -0.3645 -0.0000
vn 0.9312 -0.3645 -0.0000
vn -0.5164 0.8564 -0.0000
vn 0.5656 0.0229 0.8243
vn 0.9449 -0.0031 -0.3273
vn -0.0000 0.0309 -0.9995
vn -0.9382 -0.2618 -0.2265
vn -0.9510 0.0096 -0.3090
vn -0.5878 0.0078 0.8090
vn 0.9382 -0.2618 -0.2265
vn -0.5439 0.6207 0.5647
vn 0.5439 0.6207 0.5647
vn -0.0000 -0.7955 -0.6060
vn 0.5656 0.0229 -0.8243
vn 0.9449 -0.0031 0.3273
vn -0.9509 -0.2462 0.1876
vn -0.9449 -0.0031 0.3273
vn -0.5656 0.0229 -0.8243
vn 0.9382 -0.2618 0.2265
vn -0.5849 0.6134 -0.5306
vn 0.5439 0.6207 -0.5647
vn 0.5878 0.0078 0.8090
vn 0.9510 0.0096 -0.3090
vn -0.9509 -0.2462 -0.1876
vn -0.9449 -0.0031 -0.3273
vn -0.5656 0.0229 0.8243
vn 0.9509 -0.2462 -0.1876
vn -0.5849 0.6134 0.5306
vn 0.5849 0.6134 0.5306
vt 0.503906 0.878906
vt 0.253906 0.593750
vt 0.503906 0.593750
vt 0.000000 0.582031
vt 0.246094 0.000000
vt 0.246094 0.582031
vt 1.000000 0.000000
vt 0.750000 0.585938
vt 0.750000 0.000000
vt 0.703125 0.039062
vt 0.550781 0.542969
vt 0.550781 0.039062
vt 0.250000 0.582031
vt 0.496094 0.000000
vt 0.496094 0.582031
vt 0.550781 0.062500
vt 0.734375 0.000000
vt 0.703125 0.062500
vt 0.562500 0.542969
vt 0.503906 0.015625
vt 0.562500 0.039062
vt 0.687500 0.039062
vt 0.746094 0.570312
vt 0.687500 0.542969
vt 0.515625 0.000000
vt 0.230469 0.878906
vt 0.000000 0.593750
vt 0.230469 0.593750
vt 0.566406 0.636719
vt 0.585938 0.644531
vt 0.566406 0.648438
vt 0.585938 0.652344
vt 0.570312 0.656250
vt 0.574219 0.667969
vt 0.585938 0.621094
vt 0.601562 0.628906
vt 0.585938 0.628906
vt 0.566406 0.625000
vt 0.570312 0.613281
vt 0.601562 0.636719
vt 0.648438 0.644531
vt 0.601562 0.644531
vt 0.605469 0.652344
vt 0.582031 0.636719
vt 0.605469 0.660156
vt 0.585938 0.664062
vt 0.644531 0.621094
vt 0.648438 0.628906
vt 0.644531 0.652344
vt 0.648438 0.636719
vt 0.644531 0.660156
vt 0.683594 0.636719
vt 0.664062 0.644531
vt 0.664062 0.636719
vt 0.683594 0.648438
vt 0.664062 0.652344
vt 0.675781 0.667969
vt 0.679688 0.656250
vt 0.664062 0.621094
vt 0.664062 0.628906
vt 0.679688 0.625000
vt 0.675781 0.613281
vt 0.664062 0.664062
vt 0.253906 0.878906
vt 0.000000 0.000000
vt 1.000000 0.585938
vt 0.703125 0.542969
vt 0.250000 0.000000
vt 0.503906 0.570312
vt 0.746094 0.015625
vt 0.000000 0.878906
vt 0.605469 0.621094
s 0
usemtl Material
f 8/1/1 4/2/1 2/3/1
f 12/4/2 3/5/2 4/6/2
f 1/7/3 4/8/3 3/9/3
f 9/10/4 7/11/4 5/12/4
f 6/13/5 2/14/5 1/15/5
f 11/16/6 8/17/6 7/18/6
f 7/19/7 6/20/7 5/21/7
f 9/22/8 12/23/8 11/24/8
f 5/18/9 10/25/9 9/16/9
f 10/26/10 1/27/10 3/28/10
f 13/29/11 16/30/11 15/31/11
f 15/31/12 18/32/12 17/33/12
f 18/32/13 19/34/13 17/33/13
f 20/35/14 27/36/14 22/37/14
f 20/35/15 21/38/15 19/39/15
f 22/37/16 13/29/16 21/38/16
f 24/40/17 28/41/17 23/42/17
f 18/32/18 23/42/18 25/43/18
f 22/37/19 24/40/19 14/44/19
f 16/30/20 24/40/20 23/42/20
f 18/32/21 26/45/21 20/46/21
f 27/36/22 42/47/22 30/48/22
f 23/42/23 41/49/23 25/43/23
f 27/36/24 29/50/24 24/40/24
f 25/43/3 42/51/3 26/45/3
f 31/52/25 34/53/25 32/54/25
f 33/55/26 36/56/26 34/53/26
f 37/57/27 36/56/27 35/58/27
f 30/48/28 38/59/28 40/60/28
f 39/61/29 38/59/29 37/62/29
f 31/52/30 40/60/30 39/61/30
f 36/56/31 28/41/31 34/53/31
f 29/50/32 40/60/32 32/54/32
f 34/53/33 29/50/33 32/54/33
f 42/51/34 36/56/34 38/63/34
f 8/1/1 12/64/1 4/2/1
f 12/4/2 10/65/2 3/5/2
f 1/7/3 2/66/3 4/8/3
f 9/10/4 11/67/4 7/11/4
f 6/13/5 8/68/5 2/14/5
f 11/16/6 12/25/6 8/17/6
f 7/19/7 8/69/7 6/20/7
f 9/22/8 10/70/8 12/23/8
f 5/18/9 6/17/9 10/25/9
f 10/26/10 6/71/10 1/27/10
f 13/29/35 14/44/35 16/30/35
f 15/31/36 16/30/36 18/32/36
f 18/32/13 20/46/13 19/34/13
f 20/35/37 26/72/37 27/36/37
f 20/35/38 22/37/38 21/38/38
f 22/37/39 14/44/39 13/29/39
f 24/40/17 29/50/17 28/41/17
f 18/32/40 16/30/40 23/42/40
f 22/37/41 27/36/41 24/40/41
f 16/30/42 14/44/42 24/40/42
f 18/32/21 25/43/21 26/45/21
f 27/36/22 26/72/22 42/47/22
f 23/42/23 28/41/23 41/49/23
f 27/36/24 30/48/24 29/50/24
f 25/43/3 41/49/3 42/51/3
f 31/52/43 33/55/43 34/53/43
f 33/55/44 35/58/44 36/56/44
f 37/57/27 38/63/27 36/56/27
f 30/48/45 42/47/45 38/59/45
f 39/61/46 40/60/46 38/59/46
f 31/52/47 32/54/47 40/60/47
f 36/56/48 41/49/48 28/41/48
f 29/50/49 30/48/49 40/60/49
f 34/53/50 28/41/50 29/50/50
f 42/51/34 41/49/34 36/56/34
