# Blender 4.2.0
# www.blender.org
mtllib TrashContainer02.mtl
o TrashContainer02
v 0.805834 0.000000 0.992134
v 0.805834 0.000000 -0.992836
v -0.805834 0.000000 0.992134
v -0.805834 0.000000 -0.992836
v 1.164984 0.380841 -1.435174
v 0.805834 0.079901 -0.992836
v 1.164984 0.380841 1.434472
v 0.805834 0.079901 0.992134
v -1.164984 0.380841 -1.435174
v -0.805834 0.079901 -0.992836
v -1.164984 0.380841 1.434472
v -0.805834 0.079901 0.992134
v 1.210149 1.964616 1.412315
v -1.210149 1.964616 -1.413017
v 0.799522 2.391894 -0.771226
v 0.799522 2.391894 0.770524
v 0.177027 2.585593 -0.171035
v 0.177027 2.585593 0.170333
v -0.177027 2.585593 -0.171035
v -0.177027 2.585593 0.170333
v 0.799522 1.964616 1.412315
v -0.799522 2.391894 -1.431976
v -0.799522 1.964616 -1.413017
v 0.799522 1.964616 -1.413017
v -0.799522 1.964616 1.412315
v 1.210149 1.964616 -1.413017
v -0.799522 2.391894 0.770524
v -1.210149 1.964616 1.412315
v -0.799522 2.391894 -0.771226
v 0.799522 2.391894 -1.431976
v 0.799522 2.391894 1.412315
v -0.799522 2.391894 1.412315
v 0.799522 1.964616 -1.431976
v -0.799522 1.964616 -1.431976
vn -0.0000 -0.0000 1.0000
vn -0.0000 -0.0000 -1.0000
vn 1.0000 -0.0000 -0.0000
vn -0.0000 0.0140 0.9999
vn -0.0000 -0.8268 0.5625
vn -0.6423 -0.7665 -0.0000
vn -1.0000 -0.0000 -0.0000
vn 0.6423 -0.7665 -0.0000
vn -0.0000 -0.8268 -0.5625
vn -0.9996 -0.0285 -0.0000
vn 0.9996 -0.0285 -0.0000
vn -0.0000 0.0140 -0.9999
vn -0.2971 0.9548 -0.0000
vn 0.7210 0.6929 -0.0000
vn -0.7210 0.6929 -0.0000
vn -0.0000 1.0000 -0.0000
vn -0.0000 0.9517 0.3071
vn -0.0000 0.9517 -0.3071
vn 0.2971 0.9548 -0.0000
vn -0.0000 -0.0443 -0.9990
vn -0.0000 0.8324 -0.5542
vn -0.0000 0.8324 0.5542
vt 0.060976 0.029412
vt 0.325203 0.000000
vt 0.325203 0.029412
vt 0.500000 0.029412
vt 0.886179 0.000000
vt 0.886179 0.029412
vt 0.378049 0.147059
vt 0.324820 0.754902
vt 0.066800 0.754902
vt 1.000000 0.166667
vt 0.382114 0.166667
vt 1.000000 0.745098
vt 0.394309 0.745098
vt 0.325151 0.754902
vt 0.060365 0.754902
vt 0.796748 0.578431
vt 0.670732 0.754902
vt 0.589431 0.578431
vt 0.520325 0.911765
vt 0.674797 0.392157
vt 0.715447 0.274510
vt 0.715447 0.392157
vt 0.674797 0.754902
vt 0.593496 0.578431
vt 0.060976 0.754902
vt 0.325203 0.911765
vt 0.060976 0.911765
vt 0.532520 0.754902
vt 0.796748 0.921569
vt 0.589431 0.921569
vt 0.853659 0.754902
vt 0.910569 0.098039
vt 0.491870 0.245098
vt 0.491870 0.098039
vt 0.910569 0.245098
vt 0.475610 0.088235
vt 0.894309 0.647059
vt 0.475610 0.647059
vt 0.060976 0.000000
vt 0.500000 0.000000
vt 0.000000 0.754902
vt 0.008130 0.147059
vt 0.386179 0.754902
vt 0.715447 0.754902
vt 0.878049 0.911765
vt 0.674797 0.274510
vt 0.325203 0.754902
vt 0.894309 0.088235
s 0
usemtl Material
f 12/1/1 1/2/1 8/3/1
f 6/1/2 4/2/2 10/3/2
f 8/4/3 2/5/3 6/6/3
f 7/7/4 21/8/4 25/9/4
f 7/7/5 12/1/5 8/3/5
f 11/10/6 10/4/6 12/6/6
f 10/4/7 3/5/7 12/6/7
f 5/10/8 8/4/8 6/6/8
f 9/7/9 6/1/9 10/3/9
f 9/11/10 28/12/10 14/13/10
f 7/11/11 26/12/11 13/13/11
f 9/7/12 23/14/12 24/15/12
f 27/16/13 19/17/13 29/18/13
f 26/12/14 16/19/14 13/13/14
f 28/12/15 29/19/15 14/13/15
f 19/20/16 18/21/16 17/22/16
f 16/16/17 20/17/17 27/18/17
f 29/16/18 17/23/18 15/24/18
f 15/16/19 18/17/19 16/18/19
f 24/25/20 22/26/20 30/27/20
f 26/28/21 29/29/21 15/30/21
f 16/30/22 28/31/22 13/28/22
f 31/32/3 33/33/3 30/34/3
f 25/25/1 31/26/1 32/27/1
f 22/33/7 25/32/7 32/35/7
f 22/36/16 31/37/16 30/38/16
f 12/1/1 3/39/1 1/2/1
f 6/1/2 2/39/2 4/2/2
f 8/4/3 1/40/3 2/5/3
f 28/41/4 11/42/4 7/7/4
f 7/7/4 13/43/4 21/8/4
f 25/9/4 28/41/4 7/7/4
f 7/7/5 11/42/5 12/1/5
f 11/10/6 9/11/6 10/4/6
f 10/4/7 4/40/7 3/5/7
f 5/10/8 7/11/8 8/4/8
f 9/7/9 5/42/9 6/1/9
f 9/11/10 11/10/10 28/12/10
f 7/11/11 5/10/11 26/12/11
f 26/41/12 5/42/12 9/7/12
f 9/7/12 14/43/12 23/14/12
f 24/15/12 26/41/12 9/7/12
f 27/16/13 20/44/13 19/17/13
f 26/12/14 15/45/14 16/19/14
f 28/12/15 27/45/15 29/19/15
f 19/20/16 20/46/16 18/21/16
f 16/16/17 18/44/17 20/17/17
f 29/16/18 19/44/18 17/23/18
f 15/16/19 17/44/19 18/17/19
f 24/25/20 23/47/20 22/26/20
f 26/28/21 14/31/21 29/29/21
f 16/30/22 27/29/22 28/31/22
f 31/32/3 21/35/3 33/33/3
f 25/25/1 21/47/1 31/26/1
f 22/33/7 34/34/7 25/32/7
f 22/36/16 32/48/16 31/37/16
