# Blender 4.2.0
# www.blender.org
mtllib TrashContainer01.mtl
o TrashContainer01
v 0.994371 1.846871 -0.866129
v 0.922920 0.327080 -0.866129
v 0.994371 1.846871 0.864345
v 0.922920 0.327080 0.864345
v -0.994371 1.846871 -0.866129
v -0.922920 0.327080 -0.866129
v -0.994371 1.846871 0.864345
v -0.922920 0.327080 0.864345
v 0.994371 0.535329 -0.866129
v -0.994371 0.535329 0.864345
v 0.994371 0.535329 0.864345
v -0.994371 0.535329 -0.866129
v 1.137500 2.054786 -0.866129
v 1.137500 2.054786 0.864345
v -1.137500 2.054786 -0.866129
v -1.137500 2.054786 0.864345
v 1.137500 2.192608 -0.866129
v 1.137500 2.192608 0.864345
v -1.137500 2.192608 -0.866129
v -1.137500 2.192608 0.864345
v 1.071875 2.192608 -0.782142
v 1.071875 2.192608 0.800423
v -1.071875 2.192608 -0.782142
v -1.071875 2.192608 0.800423
v 1.071875 2.054786 0.800423
v -1.071875 2.054786 0.800423
v -0.927172 1.846871 0.800423
v 0.927172 0.535329 -0.782142
v 0.927172 0.535329 0.800423
v -0.927172 0.535329 -0.782142
v -0.927172 0.535329 0.800423
v 0.927172 1.846871 -0.782142
v 0.927172 1.846871 0.800423
v -0.927172 1.846871 -0.782142
v 1.071875 2.054786 -0.782142
v -1.071875 2.054786 -0.782142
vn -0.0000 -0.0000 1.0000
vn -1.0000 -0.0000 -0.0000
vn -0.0000 -1.0000 -0.0000
vn 1.0000 -0.0000 -0.0000
vn -0.0000 -0.0000 -1.0000
vn 0.9459 -0.3245 -0.0000
vn -0.9459 -0.3245 -0.0000
vn -0.8237 -0.5670 -0.0000
vn 0.8237 -0.5670 -0.0000
vn -0.0000 1.0000 -0.0000
vn 0.8208 0.5712 -0.0000
vn -0.8208 0.5712 -0.0000
vt 0.346154 0.371094
vt 0.000000 0.410156
vt 0.025641 0.371094
vt 0.025641 0.113281
vt 0.346154 0.113281
vt 0.666667 0.851562
vt 0.391026 0.621094
vt 0.666667 0.621094
vt 0.022436 0.406250
vt 0.349359 0.105469
vt 0.349359 0.406250
vt 0.394231 0.351562
vt 0.663462 0.121094
vt 0.394231 0.121094
vt 0.346154 0.875000
vt 0.025641 0.617188
vt 0.346154 0.617188
vt 0.035256 0.574219
vt 0.336538 0.574219
vt 0.394231 0.121094
vt 0.663462 0.074219
vt 0.394231 0.074219
vt 0.391026 0.574219
vt 0.666667 0.574219
vt 0.035256 0.070312
vt 0.336538 0.070312
vt 0.685897 0.910156
vt 0.371795 0.937500
vt 0.371795 0.910156
vt 0.391026 0.851562
vt 0.685897 0.410156
vt 0.663462 0.351562
vt 0.000000 0.914062
vt 0.025641 0.875000
vt 0.371795 0.410156
vt 0.000000 0.437500
vt 0.371795 0.914062
vt 0.000000 0.941406
vt 0.685897 0.437500
vt 0.358974 0.417969
vt 0.371795 0.437500
vt 0.384615 0.417969
vt 0.676282 0.417969
vt 0.394231 0.937500
vt 0.663462 0.910156
vt 0.663462 0.937500
vt 0.394231 0.910156
vt 0.663462 0.851562
vt 0.394231 0.851562
vt 0.663462 0.621094
vt 0.022436 0.105469
vt 0.663462 0.121094
vt 0.685897 0.937500
vt 0.371795 0.941406
vt 0.012821 0.417969
vt 0.394231 0.621094
s 0
usemtl Material
f 3/1/1 16/2/1 7/3/1
f 3/1/1 10/4/1 11/5/1
f 7/6/2 12/7/2 10/8/2
f 2/9/3 8/10/3 6/11/3
f 1/12/4 11/13/4 9/14/4
f 5/15/5 9/16/5 12/17/5
f 12/17/5 2/18/5 6/19/5
f 9/20/6 4/21/6 2/22/6
f 10/8/7 6/23/7 8/24/7
f 11/5/1 8/25/1 4/26/1
f 16/27/2 19/28/2 15/29/2
f 7/6/8 15/29/8 5/30/8
f 1/12/9 14/31/9 3/32/9
f 5/15/5 13/33/5 1/34/5
f 14/35/1 20/36/1 16/2/1
f 15/37/5 17/38/5 13/33/5
f 13/35/4 18/39/4 14/31/4
f 19/36/10 21/40/10 17/41/10
f 18/39/10 21/42/10 22/43/10
f 20/41/10 23/43/10 19/39/10
f 18/36/10 24/40/10 20/41/10
f 24/44/4 36/45/4 23/46/4
f 21/44/2 25/45/2 22/46/2
f 26/47/11 34/48/11 36/45/11
f 35/47/12 33/48/12 25/45/12
f 27/49/4 30/50/4 34/48/4
f 32/49/2 29/50/2 33/48/2
f 30/10/10 29/9/10 28/51/10
f 31/5/5 33/3/5 29/4/5
f 28/5/1 34/3/1 30/4/1
f 27/1/5 25/2/5 33/3/5
f 32/1/1 36/2/1 34/3/1
f 36/2/1 21/41/1 23/36/1
f 22/36/5 26/35/5 24/41/5
f 3/1/1 14/35/1 16/2/1
f 3/1/1 7/3/1 10/4/1
f 7/6/2 5/30/2 12/7/2
f 2/9/3 4/51/3 8/10/3
f 1/12/4 3/32/4 11/13/4
f 5/15/5 1/34/5 9/16/5
f 12/17/5 9/16/5 2/18/5
f 9/20/6 11/52/6 4/21/6
f 10/8/7 12/7/7 6/23/7
f 11/5/1 10/4/1 8/25/1
f 16/27/2 20/53/2 19/28/2
f 7/6/8 16/27/8 15/29/8
f 1/12/9 13/35/9 14/31/9
f 5/15/5 15/37/5 13/33/5
f 14/35/1 18/41/1 20/36/1
f 15/37/5 19/54/5 17/38/5
f 13/35/4 17/41/4 18/39/4
f 19/36/10 23/55/10 21/40/10
f 18/39/10 17/41/10 21/42/10
f 20/41/10 24/42/10 23/43/10
f 18/36/10 22/55/10 24/40/10
f 24/44/4 26/47/4 36/45/4
f 21/44/2 35/47/2 25/45/2
f 26/47/11 27/49/11 34/48/11
f 35/47/12 32/49/12 33/48/12
f 27/49/4 31/56/4 30/50/4
f 32/49/2 28/56/2 29/50/2
f 30/10/10 31/11/10 29/9/10
f 31/5/5 27/1/5 33/3/5
f 28/5/1 32/1/1 34/3/1
f 27/1/5 26/35/5 25/2/5
f 32/1/1 35/35/1 36/2/1
f 36/2/1 35/35/1 21/41/1
f 22/36/5 25/2/5 26/35/5
o TrashContainer01.Lid
v 1.090000 2.192608 -0.805862
v 1.090000 2.192608 0.805862
v -1.090000 2.192608 -0.805862
v -1.090000 2.192608 0.805862
v 0.425534 2.427807 -0.606903
v 0.425534 2.427807 0.606903
v -0.425534 2.427807 -0.606903
v -0.425534 2.427807 0.606903
v 1.137500 2.192608 0.865237
v -1.137500 2.192608 0.865237
v 1.137500 2.192608 -0.865237
v -1.137500 2.192608 -0.865237
v 0.489364 2.392608 0.485523
v -0.489364 2.392608 0.485523
v 0.489364 2.392608 -0.485523
v -0.489364 2.392608 -0.485523
vn -0.3137 0.9495 -0.0000
vn -0.0000 1.0000 -0.0000
vn -0.0000 0.7394 0.6732
vn -0.0000 0.7394 -0.6732
vn 0.3137 0.9495 -0.0000
vn 0.3159 -0.9488 -0.0000
vn -0.0000 -1.0000 -0.0000
vn -0.0000 -0.8483 -0.5296
vn -0.0000 -0.8483 0.5296
vn -0.3159 -0.9488 -0.0000
vt 0.689103 0.992188
vt 0.894231 0.878906
vt 0.996795 0.992188
vt 0.791667 0.667969
vt 0.791667 0.878906
vt 1.000000 0.546875
vt 1.000000 1.000000
vt 0.685897 1.000000
vt 0.685897 0.546875
vt 0.894231 0.667969
vt 0.689103 0.554688
vt 0.996795 0.554688
s 0
usemtl Material
f 46/57/13 43/58/13 48/59/13
f 43/60/14 42/58/14 41/61/14
f 45/62/15 44/58/15 46/63/15
f 48/64/16 41/60/16 47/65/16
f 47/65/17 42/66/17 45/62/17
f 39/65/18 50/66/18 40/62/18
f 38/57/19 46/65/19 40/67/19
f 37/59/19 45/64/19 38/57/19
f 40/65/19 48/68/19 39/62/19
f 39/59/19 47/62/19 37/68/19
f 50/58/19 51/60/19 49/66/19
f 40/67/20 49/61/20 38/57/20
f 37/68/21 52/58/21 39/59/21
f 38/57/22 51/58/22 37/59/22
f 46/57/13 44/61/13 43/58/13
f 43/60/14 44/66/14 42/58/14
f 45/62/15 42/66/15 44/58/15
f 48/64/16 43/61/16 41/60/16
f 47/65/17 41/60/17 42/66/17
f 39/65/18 52/60/18 50/66/18
f 38/57/19 45/64/19 46/65/19
f 37/59/19 47/63/19 45/64/19
f 40/65/19 46/67/19 48/68/19
f 39/59/19 48/63/19 47/62/19
f 50/58/19 52/61/19 51/60/19
f 40/67/20 50/60/20 49/61/20
f 37/68/21 51/66/21 52/58/21
f 38/57/22 49/61/22 51/58/22
o TrashContainer01.Wheels
v -0.895686 0.000000 0.767190
v -0.895686 0.327080 0.767190
v -0.895686 0.000000 0.444065
v -0.895686 0.327080 0.444065
v -0.806041 0.000000 0.767190
v -0.806041 0.327080 0.767190
v -0.806041 0.000000 0.444065
v -0.806041 0.327080 0.444065
v 0.895686 0.000000 0.767190
v 0.895686 0.327080 0.767190
v 0.895686 0.000000 0.444065
v 0.895686 0.327080 0.444065
v 0.806041 0.000000 0.767190
v 0.806041 0.327080 0.767190
v 0.806041 0.000000 0.444065
v 0.806041 0.327080 0.444065
v -0.895686 0.000000 -0.767190
v -0.895686 0.327080 -0.767190
v -0.895686 0.000000 -0.444065
v -0.895686 0.327080 -0.444065
v -0.806041 0.000000 -0.767190
v -0.806041 0.327080 -0.767190
v -0.806041 0.000000 -0.444065
v -0.806041 0.327080 -0.444065
v 0.895686 0.000000 -0.767190
v 0.895686 0.327080 -0.767190
v 0.895686 0.000000 -0.444065
v 0.895686 0.327080 -0.444065
v 0.806041 0.000000 -0.767190
v 0.806041 0.327080 -0.767190
v 0.806041 0.000000 -0.444065
v 0.806041 0.327080 -0.444065
vn -1.0000 -0.0000 -0.0000
vn -0.0000 -0.0000 -1.0000
vn 1.0000 -0.0000 -0.0000
vn -0.0000 -0.0000 1.0000
vt 0.676282 0.074219
vt 0.608974 0.000000
vt 0.676282 0.000000
vt 0.650641 0.000000
vt 0.660256 0.074219
vt 0.650641 0.074219
vt 0.660256 -0.000000
vt 0.608974 0.074219
s 0
usemtl Material
f 54/69/23 55/70/23 53/71/23
f 56/72/24 59/73/24 55/74/24
f 60/69/25 57/70/25 59/71/25
f 58/75/26 53/74/26 57/73/26
f 63/70/25 62/69/25 61/71/25
f 67/73/24 64/72/24 63/74/24
f 65/70/23 68/69/23 67/71/23
f 61/74/26 66/75/26 65/73/26
f 71/70/23 70/69/23 69/71/23
f 75/73/26 72/72/26 71/74/26
f 73/70/25 76/69/25 75/71/25
f 69/74/24 74/75/24 73/73/24
f 78/69/25 79/70/25 77/71/25
f 80/72/26 83/73/26 79/74/26
f 84/69/23 81/70/23 83/71/23
f 82/75/24 77/74/24 81/73/24
f 54/69/23 56/76/23 55/70/23
f 56/72/24 60/75/24 59/73/24
f 60/69/25 58/76/25 57/70/25
f 58/75/26 54/72/26 53/74/26
f 63/70/25 64/76/25 62/69/25
f 67/73/24 68/75/24 64/72/24
f 65/70/23 66/76/23 68/69/23
f 61/74/26 62/72/26 66/75/26
f 71/70/23 72/76/23 70/69/23
f 75/73/26 76/75/26 72/72/26
f 73/70/25 74/76/25 76/69/25
f 69/74/24 70/72/24 74/75/24
f 78/69/25 80/76/25 79/70/25
f 80/72/26 84/75/26 83/73/26
f 84/69/23 82/76/23 81/70/23
f 82/75/24 78/72/24 77/74/24
