# Blender 4.2.0
# www.blender.org
mtllib Organizer01.mtl
o Organizer01
v 0.362500 0.137500 -0.250000
v 0.362500 0.000000 -0.250000
v 0.362500 0.137500 0.250000
v 0.362500 0.000000 0.250000
v -0.362500 0.137500 -0.250000
v -0.362500 0.000000 -0.250000
v -0.362500 0.137500 0.250000
v -0.362500 0.000000 0.250000
vn -0.0000 1.0000 -0.0000
vn -0.0000 -0.0000 1.0000
vn -1.0000 -0.0000 -0.0000
vn -0.0000 -1.0000 -0.0000
vn 1.0000 -0.0000 -0.0000
vn -0.0000 -0.0000 -1.0000
vt 0.000000 1.000000
vt 0.842105 0.555556
vt 0.842105 1.000000
vt 0.000000 0.111111
vt 0.842105 0.000000
vt 0.000000 0.000000
vt 1.000000 0.555556
vt 1.000000 1.000000
vt 0.000000 0.555556
vt 0.842105 0.111111
vt 1.000000 0.111111
s 0
usemtl Primary
f 5/1/1 3/2/1 1/3/1
f 3/4/2 8/5/2 4/6/2
f 7/3/3 6/7/3 8/8/3
f 2/9/4 8/10/4 6/2/4
f 1/11/5 4/2/5 2/10/5
f 5/10/6 2/6/6 6/5/6
f 5/1/1 7/9/1 3/2/1
f 3/4/2 7/10/2 8/5/2
f 7/3/3 5/2/3 6/7/3
f 2/9/4 4/4/4 8/10/4
f 1/11/5 3/7/5 4/2/5
f 5/10/6 1/4/6 2/6/6
