# Blender 4.2.0
# www.blender.org
mtllib BasketWicker01.mtl
o BasketWicker01
v 0.450000 0.500000 -0.260000
v 0.500000 0.000000 -0.310000
v 0.450000 0.500000 0.260000
v 0.500000 0.000000 0.310000
v -0.450000 0.500000 -0.260000
v -0.500000 0.000000 -0.310000
v -0.450000 0.500000 0.260000
v -0.500000 0.000000 0.310000
v 0.500000 0.500000 0.310000
v -0.500000 0.500000 0.310000
v 0.500000 0.500000 -0.310000
v -0.500000 0.500000 -0.310000
v 0.450000 0.050000 0.260000
v -0.450000 0.050000 0.260000
v 0.450000 0.050000 -0.260000
v -0.450000 0.050000 -0.260000
vn 1.0000 -0.0000 -0.0000
vn -0.0000 -0.0000 1.0000
vn -1.0000 -0.0000 -0.0000
vn -0.0000 -1.0000 -0.0000
vn -0.0000 -0.0000 -1.0000
vn -0.0000 1.0000 -0.0000
vt 0.666667 -0.000000
vt 0.000000 0.173077
vt -0.000000 0.000000
vt 1.000000 0.192308
vt 0.000000 0.384615
vt 1.000000 0.384615
vt 0.000000 0.192308
vt 0.666667 0.192308
vt 0.000000 0.692308
vt 1.000000 0.394231
vt 1.000000 0.692308
vt 0.862500 0.729839
vt 0.625000 0.750000
vt 0.637500 0.729839
vt 0.637500 0.520161
vt 0.625000 0.500000
vt 0.875000 0.500000
vt 0.875000 0.750000
vt 0.862500 0.520161
vt 0.041667 0.673077
vt 0.958333 0.413462
vt 0.958333 0.673077
vt 0.958333 0.384615
vt 0.041667 0.211538
vt 0.041667 0.384615
vt 0.958333 0.211538
vt 0.666667 0.173077
vt 0.000000 0.394231
vt 0.041667 0.413462
s 0
usemtl Primary
f 7/1/1 16/2/1 5/3/1
f 9/4/2 8/5/2 4/6/2
f 10/1/3 6/7/3 8/8/3
f 2/9/4 8/10/4 6/11/4
f 11/3/1 4/8/1 2/7/1
f 12/6/5 2/7/5 6/4/5
f 7/12/6 9/13/6 3/14/6
f 1/15/6 9/13/6 11/16/6
f 7/12/6 12/17/6 10/18/6
f 1/15/6 12/17/6 5/19/6
f 16/20/6 13/21/6 15/22/6
f 3/23/5 14/24/5 7/25/5
f 5/25/2 15/26/2 1/23/2
f 1/3/3 13/27/3 3/1/3
f 7/1/1 14/27/1 16/2/1
f 9/4/2 10/7/2 8/5/2
f 10/1/3 12/3/3 6/7/3
f 2/9/4 4/28/4 8/10/4
f 11/3/1 9/1/1 4/8/1
f 12/6/5 11/5/5 2/7/5
f 7/12/6 10/18/6 9/13/6
f 1/15/6 3/14/6 9/13/6
f 7/12/6 5/19/6 12/17/6
f 1/15/6 11/16/6 12/17/6
f 16/20/6 14/29/6 13/21/6
f 3/23/5 13/26/5 14/24/5
f 5/25/2 16/24/2 15/26/2
f 1/3/3 15/2/3 13/27/3
