# Blender 4.2.0
# www.blender.org
mtllib CuttingBoard01.mtl
o CuttingBoard01
v 0.614368 0.050000 0.625000
v 0.614368 0.000000 0.625000
v -0.734375 0.050000 -0.625000
v -0.734375 0.000000 -0.625000
v -0.734375 0.050000 0.625000
v 0.741982 0.050000 0.625000
v 0.614368 0.050000 0.153285
v 0.614368 0.000000 0.153285
v 0.646585 0.050000 0.153285
v 0.646585 0.000000 0.153285
v 0.614368 0.000000 0.083074
v 0.614368 0.050000 0.083074
v 0.741982 0.050000 0.153285
v 0.681133 0.050000 0.120239
v 0.741982 0.050000 0.025641
v 0.741982 0.000000 0.025641
v 0.696764 0.050000 0.025641
v 0.696764 0.050000 0.000000
v 0.696764 0.000000 0.000000
v 0.614368 0.050000 -0.625000
v 0.614368 0.050000 -0.153286
v 0.614368 0.000000 -0.153286
v 0.646585 0.050000 -0.153286
v 0.614368 0.050000 -0.083074
v 0.741982 0.050000 -0.153286
v 0.681133 0.050000 -0.120239
v 0.681133 0.000000 -0.120239
v 0.741982 0.050000 -0.025641
v 0.696764 0.050000 -0.025641
v 0.696764 0.000000 -0.025641
v 0.741982 0.050000 0.000000
v 0.741982 0.000000 0.000000
v -0.734375 0.000000 0.625000
v 0.741982 0.000000 0.153285
v 0.681133 0.000000 0.120239
v 0.696764 0.000000 0.025641
v 0.614368 0.000000 -0.625000
v 0.646585 0.000000 -0.153286
v 0.614368 0.000000 -0.083074
v 0.741982 0.000000 -0.153286
v 0.741982 0.000000 -0.025641
v 0.741982 0.050000 -0.625000
v 0.741982 0.000000 -0.625000
v 0.741982 0.000000 0.625000
vn -0.0000 1.0000 -0.0000
vn -0.0000 -0.0000 1.0000
vn -1.0000 -0.0000 -0.0000
vn 1.0000 -0.0000 -0.0000
vn -0.0000 -0.0000 -1.0000
vn 0.9089 -0.0000 -0.4170
vn -0.6912 -0.0000 -0.7226
vn -0.9866 -0.0000 -0.1630
vn -0.0000 -1.0000 -0.0000
vn -0.9089 -0.0000 -0.4170
vn 0.6912 -0.0000 -0.7226
vn 0.9866 -0.0000 -0.1630
vn 0.9089 -0.0000 -0.4171
vn -0.9089 -0.0000 -0.4171
vt 0.000000 0.500000
vt 0.913793 1.000000
vt 0.913793 0.500000
vt 0.000000 0.000000
vt 0.043103 0.750000
vt 0.000000 0.750000
vt 0.043103 0.000000
vt 0.043103 0.500000
vt 0.974138 0.255102
vt 1.000000 0.234694
vt 0.974138 0.234694
vt 0.000000 0.234694
vt 0.043103 0.153061
vt 0.043103 0.234694
vt 0.939655 0.173469
vt 1.000000 0.173469
vt 1.000000 -0.000000
vt 0.000000 0.275510
vt 0.043103 0.275510
vt -0.000000 0.209184
vt 0.034483 0.229592
vt 0.034483 0.209184
vt 0.922414 1.000000
vt 0.939655 0.821429
vt 0.922414 0.821429
vt 0.922414 0.795918
vt 0.625000 0.750000
vt 0.375000 0.750000
vt 0.965517 0.188776
vt 0.965517 0.811224
vt 1.000000 0.775510
vt 0.974138 0.775510
vt 1.000000 0.821429
vt 0.922414 0.173469
vt 0.922414 0.198980
vt 0.922414 -0.000000
vt -0.000000 0.229592
vt 0.034483 0.270408
vt 1.000000 0.275510
vt 0.974138 0.275510
vt 0.974138 0.755102
vt -0.000000 0.270408
vt 0.034483 0.280612
vt 0.939655 0.321429
vt 1.000000 0.321429
vt 1.000000 0.500000
vt 0.000000 0.112245
vt 0.043103 0.112245
vt -0.000000 0.352041
vt 0.034483 0.331633
vt 0.034483 0.352041
vt 0.922414 0.500000
vt 0.939655 0.673469
vt 0.922414 0.673469
vt 0.922414 0.698980
vt 0.965517 0.311224
vt 0.965517 0.688776
vt 1.000000 0.734694
vt 0.974138 0.734694
vt 1.000000 0.673469
vt 0.922414 0.321429
vt 0.922414 0.295918
vt -0.000000 0.331633
vt 0.034483 0.290816
vt -0.000000 0.290816
vt 0.000000 1.000000
vt 0.000026 0.000026
vt 1.000000 0.255102
vt 0.000000 0.153061
vt 1.000000 1.000000
vt 1.000000 0.755102
vt -0.000000 0.280612
s 0
usemtl Material
f 3/1/1 1/2/1 20/3/1
f 44/4/2 5/5/2 33/6/2
f 5/1/3 4/7/3 33/8/3
f 19/9/1 41/10/1 30/11/1
f 11/12/4 24/13/4 12/14/4
f 4/6/5 42/7/5 43/4/5
f 38/15/1 40/16/1 43/17/1
f 10/18/6 12/14/6 9/19/6
f 9/20/7 35/21/7 10/22/7
f 1/23/1 9/24/1 7/25/1
f 7/25/1 9/24/1 12/26/1
f 7/27/3 11/28/3 8/28/3
f 27/29/1 41/10/1 40/16/1
f 14/30/1 15/31/1 17/32/1
f 9/24/1 13/33/1 14/30/1
f 22/34/1 39/35/1 38/15/1
f 37/36/1 38/15/1 43/17/1
f 14/37/8 36/38/8 35/21/8
f 19/9/9 16/39/9 36/40/9
f 15/31/1 18/41/1 17/32/1
f 17/42/3 19/43/3 36/38/3
f 10/44/9 34/45/9 44/46/9
f 38/47/10 24/13/10 23/48/10
f 23/49/11 27/50/11 38/51/11
f 20/52/9 23/53/9 21/54/9
f 21/54/9 23/53/9 24/55/9
f 21/27/4 39/28/4 22/28/4
f 35/56/9 16/39/9 34/45/9
f 26/57/9 28/58/9 29/59/9
f 23/53/9 25/60/9 26/57/9
f 8/61/9 11/62/9 10/44/9
f 2/52/9 10/44/9 44/46/9
f 26/63/12 30/64/12 27/50/12
f 2/36/9 4/1/9 37/52/9
f 43/7/4 6/1/4 44/8/4
f 28/58/9 18/41/9 29/59/9
f 29/65/4 19/43/4 30/64/4
f 3/1/1 5/66/1 1/2/1
f 44/4/2 6/7/2 5/5/2
f 5/1/3 3/67/3 4/7/3
f 19/9/1 32/68/1 41/10/1
f 11/12/4 39/69/4 24/13/4
f 4/6/5 3/5/5 42/7/5
f 38/15/1 27/29/1 40/16/1
f 10/18/13 11/12/13 12/14/13
f 9/20/7 14/37/7 35/21/7
f 1/23/1 6/70/1 9/24/1
f 7/27/3 12/27/3 11/28/3
f 27/29/1 30/11/1 41/10/1
f 14/30/1 13/33/1 15/31/1
f 9/24/1 6/70/1 13/33/1
f 37/36/1 22/34/1 38/15/1
f 14/37/8 17/42/8 36/38/8
f 19/9/9 32/68/9 16/39/9
f 15/31/1 31/71/1 18/41/1
f 17/42/3 18/72/3 19/43/3
f 10/44/9 35/56/9 34/45/9
f 38/47/14 39/69/14 24/13/14
f 23/49/11 26/63/11 27/50/11
f 20/52/9 42/46/9 23/53/9
f 21/27/4 24/27/4 39/28/4
f 35/56/9 36/40/9 16/39/9
f 26/57/9 25/60/9 28/58/9
f 23/53/9 42/46/9 25/60/9
f 2/52/9 8/61/9 10/44/9
f 26/63/12 29/65/12 30/64/12
f 2/36/9 33/4/9 4/1/9
f 43/7/4 42/67/4 6/1/4
f 28/58/9 31/71/9 18/41/9
f 29/65/4 18/72/4 19/43/4
