# Blender 4.2.0
# www.blender.org
mtllib Deodorant01.mtl
o Deodorant01
v 0.000000 0.000000 -0.073000
v 0.000000 0.365000 -0.058400
v 0.063220 0.000000 -0.036500
v 0.050576 0.365000 -0.029200
v 0.063220 0.000000 0.036500
v 0.050576 0.365000 0.029200
v 0.000000 0.000000 0.073000
v 0.000000 0.365000 0.058400
v -0.063220 0.000000 0.036500
v -0.050576 0.365000 0.029200
v -0.063220 0.000000 -0.036500
v -0.050576 0.365000 -0.029200
v 0.000000 0.292000 -0.073000
v 0.063220 0.292000 -0.036500
v 0.063220 0.292000 0.036500
v 0.000000 0.292000 0.073000
v -0.063220 0.292000 0.036500
v -0.063220 0.292000 -0.036500
v 0.000000 0.009125 0.000000
v 0.000000 0.372300 0.000000
vn 0.4927 0.1707 -0.8533
vn 0.9853 0.1707 -0.0000
vn 0.4927 0.1707 0.8533
vn -0.4927 0.1707 0.8533
vn -0.9853 0.1707 -0.0000
vn -0.4927 0.1707 -0.8533
vn -0.5000 -0.0000 -0.8660
vn -1.0000 -0.0000 -0.0000
vn -0.5000 -0.0000 0.8660
vn 0.5000 -0.0000 0.8660
vn 1.0000 -0.0000 -0.0000
vn 0.5000 -0.0000 -0.8660
vn -0.0714 -0.9897 0.1237
vn -0.1429 -0.9897 -0.0000
vn -0.0714 -0.9897 -0.1237
vn 0.0714 -0.9897 -0.1237
vn 0.1429 -0.9897 -0.0000
vn 0.0714 -0.9897 0.1237
vn -0.0714 0.9897 -0.1237
vt 0.500000 0.709302
vt 0.318182 0.604651
vt 0.500000 0.604651
vt 0.318182 0.709302
vt 0.136364 0.604651
vt 0.136364 0.604651
vt -0.000000 0.709302
vt 0.000000 0.604651
vt 1.000000 0.709302
vt 0.863636 0.604651
vt 1.000000 0.604651
vt 0.863636 0.709302
vt 0.681818 0.604651
vt 0.159091 0.500000
vt 0.000000 0.011628
vt 0.159091 0.011628
vt 0.340909 0.500000
vt 0.340909 0.011628
vt 0.500000 0.500000
vt 0.500000 0.011628
vt 0.659091 0.500000
vt 0.659091 0.011628
vt 0.840909 0.500000
vt 0.840909 0.011628
vt 1.000000 0.500000
vt 1.000000 0.011628
vt 0.750000 0.872093
vt 0.977273 0.802326
vt 0.977273 0.941860
vt 0.750000 1.000000
vt 0.522727 0.941860
vt 0.522727 0.802326
vt 0.750000 0.744186
vt 0.000000 0.837209
vt 0.250000 0.883721
vt 0.022727 0.965116
vt 0.250000 0.744186
vt 0.500000 0.837209
vt 0.477273 0.965116
vt 0.250000 1.000000
vt 0.136364 0.709302
vt 0.681818 0.709302
vt -0.000000 0.500000
s 0
usemtl Primary
f 2/1/1 14/2/1 13/3/1
f 4/4/2 15/5/2 14/2/2
f 15/6/3 8/7/3 16/8/3
f 8/9/4 17/10/4 16/11/4
f 10/12/5 18/13/5 17/10/5
f 18/13/6 2/1/6 13/3/6
f 18/14/7 1/15/7 11/16/7
f 17/17/8 11/16/8 9/18/8
f 16/19/9 9/18/9 7/20/9
f 15/21/10 7/20/10 5/22/10
f 14/23/11 5/22/11 3/24/11
f 13/25/12 3/24/12 1/26/12
f 19/27/13 1/28/13 3/29/13
f 3/29/14 5/30/14 19/27/14
f 5/30/15 7/31/15 19/27/15
f 7/31/16 9/32/16 19/27/16
f 9/32/17 11/33/17 19/27/17
f 19/27/18 11/33/18 1/28/18
f 8/34/15 20/35/15 6/36/15
f 10/37/16 20/35/16 8/34/16
f 20/35/17 10/37/17 12/38/17
f 12/38/19 20/35/19 2/39/19
f 4/40/13 20/35/13 2/39/13
f 6/36/14 20/35/14 4/40/14
f 2/1/1 4/4/1 14/2/1
f 4/4/2 6/41/2 15/5/2
f 15/6/3 6/41/3 8/7/3
f 8/9/4 10/12/4 17/10/4
f 10/12/5 12/42/5 18/13/5
f 18/13/6 12/42/6 2/1/6
f 18/14/7 13/43/7 1/15/7
f 17/17/8 18/14/8 11/16/8
f 16/19/9 17/17/9 9/18/9
f 15/21/10 16/19/10 7/20/10
f 14/23/11 15/21/11 5/22/11
f 13/25/12 14/23/12 3/24/12
