# Blender 4.2.0
# www.blender.org
mtllib Dishwasher01.mtl
o Dishwasher01
v 0.750000 1.500000 -1.406250
v 0.750000 0.000000 -1.406250
v 0.750000 1.500000 -0.018750
v 0.750000 0.000000 -0.018750
v -0.750000 1.500000 -1.406250
v -0.750000 0.000000 -1.406250
v -0.750000 1.500000 -0.018750
v -0.750000 0.000000 -0.018750
v 0.712500 1.462500 -1.368750
v 0.712500 0.037500 -1.368750
v -0.712500 1.462500 -1.368750
v -0.712500 0.037500 -1.368750
v -0.712500 1.462500 -0.018750
v -0.712500 0.037500 -0.018750
v 0.712500 1.462500 -0.018750
v 0.750000 1.500000 0.018750
v 0.750000 0.000000 0.018750
v 0.712500 0.037500 -0.018750
v -0.712500 0.037500 -0.121875
v -0.712500 0.150829 -0.121875
v -0.712500 0.150829 -1.368750
v -0.688125 0.037500 -0.121875
v -0.688125 0.150829 -0.121875
v -0.688125 0.037500 -1.368750
v -0.688125 0.150829 -1.368750
v 0.691607 0.150829 -1.368750
v 0.691607 0.037500 -1.368750
v 0.691607 0.150829 -0.121875
v 0.691607 0.037500 -0.121875
v 0.715982 0.150829 -1.368750
v 0.715982 0.150829 -0.121875
v 0.715982 0.037500 -0.121875
v -0.712500 0.917940 -0.105952
v -0.712500 0.985118 -0.105952
v -0.712500 0.917940 -0.845505
v -0.712500 0.985118 -0.845505
v -0.664860 0.917940 -0.105952
v -0.664860 0.985118 -0.105952
v -0.664860 0.917940 -0.845505
v -0.664860 0.985118 -0.845505
v 0.636959 0.037500 -0.918419
v 0.636959 0.065459 -0.918419
v 0.636959 0.037500 -0.977410
v -0.000000 0.065459 -0.733807
v 0.000000 0.065459 -0.620965
v 0.318480 0.065459 -0.803914
v 0.318480 0.037500 -0.691072
v 0.318480 0.065459 -0.691072
v -0.636959 0.037500 -0.436353
v -0.636959 0.037500 -0.377363
v -0.636959 0.065459 -0.377363
v -0.636959 0.065459 -0.436353
v 0.000000 0.037500 -0.620965
v 0.318480 0.037500 -0.803914
v -0.318480 0.065459 -0.550858
v -0.318480 0.037500 -0.663701
v -0.318480 0.065459 -0.663701
v 0.636959 0.065459 -0.977410
v 0.000000 0.037500 -0.733807
v -0.318480 0.037500 -0.550858
v 0.620834 1.462500 -0.397424
v 0.620834 1.434540 -0.397424
v 0.662547 1.462500 -0.439137
v 0.039896 1.434540 -0.717282
v -0.039896 1.434540 -0.637490
v 0.314668 1.434540 -0.541656
v 0.234876 1.462500 -0.461864
v 0.234876 1.434540 -0.461864
v -0.620835 1.462500 -0.957348
v -0.662547 1.462500 -0.915636
v -0.662547 1.434540 -0.915636
v -0.620835 1.434540 -0.957348
v -0.039896 1.462500 -0.637490
v 0.314668 1.462500 -0.541656
v -0.314668 1.434540 -0.813116
v -0.234876 1.462500 -0.892908
v -0.234876 1.434540 -0.892908
v 0.662547 1.434540 -0.439137
v 0.039896 1.462500 -0.717282
v -0.314668 1.462500 -0.813116
v 0.712500 0.917940 -0.105952
v 0.712500 0.985118 -0.105952
v 0.712500 0.917940 -0.845505
v 0.712500 0.985118 -0.845505
v 0.664860 0.917940 -0.105952
v 0.664860 0.985118 -0.105952
v 0.664860 0.917940 -0.845505
v 0.664860 0.985118 -0.845505
vn -1.0000 -0.0000 -0.0000
vn -0.0000 -0.0000 -1.0000
vn -0.0000 1.0000 -0.0000
vn -0.0000 -1.0000 -0.0000
vn 1.0000 -0.0000 -0.0000
vn -0.0000 -0.0000 1.0000
vn -0.4784 -0.0000 -0.8782
vn 0.5386 -0.0000 -0.8426
vn 0.2150 -0.0000 0.9766
vn 0.5810 -0.0000 0.8139
vn -0.2150 -0.0000 -0.9766
vn 0.4784 -0.0000 0.8782
vn -0.7071 -0.0000 -0.7071
vn -0.5810 -0.0000 -0.8139
vn -0.2827 -0.0000 0.9592
vn 0.1647 -0.0000 -0.9863
vn -0.5386 -0.0000 0.8426
vn 0.7071 -0.0000 0.7071
vn 0.2827 -0.0000 -0.9592
vn -0.1647 -0.0000 0.9863
vt 0.600000 0.000000
vt 0.300000 0.500000
vt 0.300000 0.000000
vt 0.303125 0.500000
vt 0.596875 0.000000
vt 0.596875 0.500000
vt 1.003125 0.503906
vt 0.600000 0.003906
vt 1.003125 0.003906
vt 0.303125 0.000000
vt 0.003125 0.503906
vt -0.000000 0.000000
vt 0.600000 0.503906
vt 1.000000 0.000000
vt 0.600000 0.500000
vt 0.300000 1.000000
vt 0.590625 0.988281
vt 0.600000 1.000000
vt 0.309375 0.988281
vt 0.309375 0.511719
vt 0.590625 0.511719
vt 0.962500 0.035156
vt 0.643750 0.000000
vt 0.962500 0.000000
vt 0.790625 0.007812
vt 0.762500 -0.000000
vt 0.790625 -0.000000
vt 0.962500 0.011719
vt 0.643750 0.011719
vt 0.893750 0.312500
vt 0.906250 0.335938
vt 0.893750 0.335938
vt 0.775000 0.312500
vt 0.978125 0.335938
vt 0.775000 0.335938
vt 0.918750 0.335938
vt 0.906250 0.312500
vt 0.918750 0.312500
vt 0.778125 0.335938
vt 0.978125 0.312500
vt 0.778125 0.312500
vt 0.153125 0.269531
vt 0.228125 0.250000
vt 0.153125 0.277344
vt 0.118750 0.265625
vt 0.112500 0.289062
vt 0.112500 0.265625
vt 0.228125 0.242188
vt 0.146875 0.289062
vt 0.071875 0.281250
vt 0.078125 0.312500
vt 0.059375 0.304688
vt 0.059375 0.312500
vt 0.009375 0.359375
vt 0.021875 0.371094
vt 0.625000 0.500000
vt 0.375000 0.750000
vt 0.375000 0.500000
vt 0.303125 0.503906
vt 1.000000 0.503906
vt 0.643750 0.035156
vt 0.762500 0.007812
vt 0.118750 0.289062
vt 0.143750 0.253906
vt 0.625000 0.750000
s 0
usemtl Primary
f 7/1/1 6/2/1 8/3/1
f 5/1/2 2/2/2 6/3/2
f 11/4/3 15/5/3 9/6/3
f 13/7/1 12/8/1 14/9/1
f 10/10/4 14/11/4 12/12/4
f 9/13/5 18/14/5 10/1/5
f 11/3/2 10/15/2 12/2/2
f 1/15/5 4/3/5 2/1/5
f 2/3/4 8/15/4 6/2/4
f 5/5/3 3/4/3 1/6/3
f 7/16/6 15/17/6 3/18/6
f 8/2/6 13/19/6 7/16/6
f 4/15/6 14/20/6 8/2/6
f 3/18/6 18/21/6 4/15/6
f 25/22/5 22/23/5 24/24/5
f 23/25/6 19/26/6 22/27/6
f 21/23/3 23/28/3 25/29/3
f 30/23/4 28/28/4 26/29/4
f 28/25/2 32/26/2 29/27/2
f 26/22/5 29/23/5 27/24/5
f 36/30/2 39/31/2 35/32/2
f 40/33/5 37/34/5 39/35/5
f 38/36/6 33/37/6 37/38/6
f 39/39/4 33/40/4 35/41/4
f 36/41/3 38/34/3 40/39/3
f 46/42/7 43/43/7 54/44/7
f 58/45/5 41/46/5 43/47/5
f 67/44/8 65/48/8 73/43/8
f 44/49/3 48/50/3 46/51/3
f 47/44/9 45/48/9 53/43/9
f 42/52/10 47/44/10 41/53/10
f 46/51/3 42/54/3 58/55/3
f 64/49/3 68/50/3 66/51/3
f 59/53/11 46/42/11 54/44/11
f 51/56/1 49/57/1 50/58/1
f 55/42/12 50/43/12 60/44/12
f 78/45/13 61/46/13 63/47/13
f 45/49/3 57/50/3 55/51/3
f 56/44/11 44/48/11 59/43/11
f 52/52/14 56/44/14 49/53/14
f 55/51/3 52/54/3 51/55/3
f 74/44/15 78/48/15 63/43/15
f 53/53/9 55/42/9 60/44/9
f 62/52/16 67/44/16 61/53/16
f 66/51/3 62/54/3 78/55/3
f 79/53/17 66/42/17 74/44/17
f 71/56/18 69/57/18 70/58/18
f 75/42/19 70/43/19 80/44/19
f 65/49/3 77/50/3 75/51/3
f 76/44/17 64/48/17 79/43/17
f 69/53/20 77/42/20 76/44/20
f 75/51/3 72/54/3 71/55/3
f 73/53/8 75/42/8 80/44/8
f 84/30/6 87/31/6 83/32/6
f 88/33/5 85/34/5 87/35/5
f 86/36/2 81/37/2 85/38/2
f 87/39/3 81/40/3 83/41/3
f 84/41/4 86/34/4 88/39/4
f 7/1/1 5/15/1 6/2/1
f 5/1/2 1/15/2 2/2/2
f 11/4/3 13/10/3 15/5/3
f 13/7/1 11/13/1 12/8/1
f 10/10/4 18/59/4 14/11/4
f 9/13/5 15/60/5 18/14/5
f 11/3/2 9/1/2 10/15/2
f 1/15/5 3/2/5 4/3/5
f 2/3/4 4/1/4 8/15/4
f 5/5/3 7/10/3 3/4/3
f 7/16/6 13/19/6 15/17/6
f 8/2/6 14/20/6 13/19/6
f 4/15/6 18/21/6 14/20/6
f 3/18/6 15/17/6 18/21/6
f 25/22/5 23/61/5 22/23/5
f 23/25/6 20/62/6 19/26/6
f 21/23/3 20/24/3 23/28/3
f 30/23/4 31/24/4 28/28/4
f 28/25/2 31/62/2 32/26/2
f 26/22/5 28/61/5 29/23/5
f 36/30/2 40/37/2 39/31/2
f 40/33/5 38/40/5 37/34/5
f 38/36/6 34/31/6 33/37/6
f 39/39/4 37/34/4 33/40/4
f 36/41/3 34/40/3 38/34/3
f 46/42/7 58/48/7 43/43/7
f 58/45/5 42/63/5 41/46/5
f 67/44/8 68/42/8 65/48/8
f 44/49/3 45/64/3 48/50/3
f 47/44/9 48/42/9 45/48/9
f 42/52/10 48/42/10 47/44/10
f 46/51/3 48/50/3 42/54/3
f 64/49/3 65/64/3 68/50/3
f 59/53/11 44/52/11 46/42/11
f 51/56/1 52/65/1 49/57/1
f 55/42/12 51/48/12 50/43/12
f 78/45/13 62/63/13 61/46/13
f 45/49/3 44/64/3 57/50/3
f 56/44/11 57/42/11 44/48/11
f 52/52/14 57/42/14 56/44/14
f 55/51/3 57/50/3 52/54/3
f 74/44/15 66/42/15 78/48/15
f 53/53/9 45/52/9 55/42/9
f 62/52/16 68/42/16 67/44/16
f 66/51/3 68/50/3 62/54/3
f 79/53/17 64/52/17 66/42/17
f 71/56/18 72/65/18 69/57/18
f 75/42/19 71/48/19 70/43/19
f 65/49/3 64/64/3 77/50/3
f 76/44/17 77/42/17 64/48/17
f 69/53/20 72/52/20 77/42/20
f 75/51/3 77/50/3 72/54/3
f 73/53/8 65/52/8 75/42/8
f 84/30/6 88/37/6 87/31/6
f 88/33/5 86/40/5 85/34/5
f 86/36/2 82/31/2 81/37/2
f 87/39/3 85/34/3 81/40/3
f 84/41/4 82/40/4 86/34/4
l 17 18
l 17 4
o Dishwasher01.Door
v -0.750000 1.500000 0.018750
v 0.750000 1.500000 0.018750
v -0.750000 0.000000 0.018750
v 0.750000 0.000000 0.018750
v 0.676875 1.426875 -0.112500
v 0.750000 1.500000 -0.018750
v -0.750000 1.500000 -0.018750
v -0.750000 -0.000000 -0.018750
v 0.750000 -0.000000 -0.018750
v -0.676875 0.073125 -0.112500
v 0.676875 0.073125 -0.112500
v -0.676875 1.426875 -0.112500
v -0.676875 0.868453 -0.112500
v 0.676875 0.868453 -0.112500
v -0.676875 1.056921 -0.112500
v 0.676875 1.056921 -0.112500
v 0.000846 0.868453 -0.112500
v 0.000846 1.056921 -0.112500
v -0.541331 0.868453 -0.112500
v -0.541331 1.056921 -0.112500
v -0.024581 1.031494 -0.142500
v -0.024581 0.893880 -0.142500
v -0.515904 0.893880 -0.142500
v -0.515904 1.031494 -0.142500
v -0.012708 1.052209 -0.142500
v -0.012708 0.873165 -0.142500
v -0.527776 0.873165 -0.142500
v -0.527776 1.052209 -0.142500
v -0.270242 0.893880 -0.142500
v -0.270242 1.031494 -0.142500
v -0.393073 0.893880 -0.142500
v -0.393073 1.031494 -0.142500
v -0.270242 1.031494 -0.119732
v -0.270242 0.893880 -0.119732
v -0.393073 0.893880 -0.119732
v -0.393073 1.031494 -0.119732
vn -0.0000 -0.0000 1.0000
vn -0.0000 0.7885 -0.6150
vn -0.7885 -0.0000 -0.6150
vn -0.0000 -0.7885 -0.6150
vn 0.7885 -0.0000 -0.6150
vn 1.0000 -0.0000 -0.0000
vn -0.0000 -1.0000 -0.0000
vn -1.0000 -0.0000 -0.0000
vn -0.0000 1.0000 -0.0000
vn -0.0000 -0.9879 0.1552
vn -0.9113 -0.0000 0.4117
vn 0.9113 -0.0000 0.4117
vn -0.0000 0.9879 0.1552
vt 0.300000 1.000000
vt 0.000000 0.500000
vt 0.300000 0.500000
vt 0.575000 0.972656
vt 0.600000 1.000000
vt 0.575000 0.527344
vt 0.600000 0.500000
vt 0.325000 0.527344
vt 0.012500 0.500000
vt 0.000000 1.000000
vt 0.600000 0.503906
vt 0.300000 0.515625
vt 0.300000 0.503906
vt 0.025000 1.000000
vt 0.025000 0.500000
vt 0.300000 0.988281
vt 0.000000 0.988281
vt 0.325000 0.972656
vt 0.575000 0.850961
vt 0.325000 0.850961
vt 0.325000 0.788965
vt 0.549969 0.850961
vt 0.575000 0.788965
vt 0.549969 0.788965
vt 0.449844 0.788965
vt 0.553125 0.789062
vt 0.453125 0.781250
vt 0.446875 0.789062
vt 0.446875 0.781250
vt 0.453125 0.855469
vt 0.446875 0.855469
vt 0.546875 0.781250
vt 0.454539 0.797329
vt 0.449844 0.850961
vt 0.454539 0.842597
vt 0.545273 0.842597
vt 0.545273 0.797329
vt 0.522590 0.842597
vt 0.522590 0.797329
vt 0.499906 0.797329
vt 0.000000 0.000000
vt 0.499906 0.842597
vt 0.012500 1.000000
vt 0.600000 0.515625
s 0
usemtl Primary
f 90/66/21 91/67/21 92/68/21
f 94/66/22 100/69/22 95/70/22
f 95/70/23 98/71/23 96/72/23
f 96/72/24 99/73/24 97/68/24
f 99/73/25 94/66/25 97/68/25
f 97/74/26 90/75/26 92/67/26
f 91/76/27 97/77/27 92/78/27
f 89/79/28 96/74/28 91/80/28
f 90/81/29 95/75/29 89/82/29
f 93/83/21 103/84/21 104/85/21
f 102/86/21 98/71/21 99/73/21
f 108/87/21 101/88/21 107/89/21
f 104/85/21 105/90/21 102/86/21
f 108/91/30 113/92/30 106/93/30
f 105/94/31 113/95/31 114/92/31
f 107/94/32 116/95/32 108/96/32
f 105/93/33 115/97/33 107/91/33
f 110/98/21 113/99/21 109/100/21
f 110/98/21 115/89/21 114/90/21
f 109/100/21 116/87/21 112/101/21
f 111/102/21 116/87/21 115/89/21
f 120/103/21 111/102/21 119/104/21
f 109/100/21 117/105/21 110/98/21
f 117/106/27 123/106/27 119/106/27
f 121/107/21 123/104/21 122/105/21
f 120/106/29 121/106/29 118/106/29
f 118/107/26 122/105/26 117/105/26
f 119/104/28 124/103/28 120/103/28
f 90/66/21 89/75/21 91/67/21
f 94/66/22 93/83/22 100/69/22
f 95/70/23 100/69/23 98/71/23
f 96/72/24 98/71/24 99/73/24
f 99/73/25 93/83/25 94/66/25
f 97/74/26 94/108/26 90/75/26
f 91/76/27 96/109/27 97/77/27
f 89/79/28 95/108/28 96/74/28
f 90/81/29 94/66/29 95/75/29
f 93/83/21 100/69/21 103/84/21
f 102/86/21 101/88/21 98/71/21
f 108/87/21 103/84/21 101/88/21
f 104/85/21 106/99/21 105/90/21
f 108/91/30 116/97/30 113/92/30
f 105/94/31 106/96/31 113/95/31
f 107/94/32 115/92/32 116/95/32
f 105/93/33 114/92/33 115/97/33
f 110/98/21 114/90/21 113/99/21
f 110/98/21 111/102/21 115/89/21
f 109/100/21 113/99/21 116/87/21
f 111/102/21 112/101/21 116/87/21
f 120/103/21 112/101/21 111/102/21
f 109/100/21 118/107/21 117/105/21
f 117/106/27 122/106/27 123/106/27
f 121/107/21 124/103/21 123/104/21
f 120/106/29 124/106/29 121/106/29
f 118/107/26 121/107/26 122/105/26
f 119/104/28 123/104/28 124/103/28
o Dishwasher01.Basket01
v -0.712500 0.113329 -0.215625
v -0.712500 0.150829 -0.206250
v -0.712500 0.113329 -1.350000
v -0.712500 0.150829 -1.350000
v 0.712500 0.113329 -0.215625
v 0.712500 0.150829 -0.206250
v 0.712500 0.113329 -1.350000
v 0.712500 0.150829 -1.350000
v -0.712500 0.300829 -0.155625
v -0.675000 0.300829 -0.155625
v -0.712500 0.300829 -1.350000
v -0.675000 0.300829 -1.350000
v 0.712500 0.300829 -1.350000
v 0.675000 0.300829 -1.350000
v 0.712500 0.300829 -0.155625
v 0.675000 0.300829 -0.155625
v -0.712500 0.150829 -1.350000
v -0.675000 0.150829 -1.350000
v -0.712500 0.150829 -0.206250
v -0.675000 0.150829 -0.206250
v 0.675000 0.150829 -1.350000
v 0.712500 0.150829 -1.350000
v 0.675000 0.150829 -0.206250
v 0.712500 0.150829 -0.206250
v -0.675000 0.300829 -1.350000
v -0.675000 0.300829 -1.312500
v 0.675000 0.300829 -1.350000
v 0.675000 0.300829 -1.312500
v -0.675000 0.150829 -1.312500
v -0.675000 0.150829 -1.350000
v 0.675000 0.150829 -1.312500
v 0.675000 0.150829 -1.350000
v -0.675000 0.300829 -0.193125
v -0.675000 0.300829 -0.155625
v 0.675000 0.300829 -0.193125
v 0.675000 0.300829 -0.155625
v -0.675000 0.150829 -0.206250
v -0.675000 0.150829 -0.243750
v 0.675000 0.150829 -0.206250
v 0.675000 0.150829 -0.243750
vn -1.0000 -0.0000 -0.0000
vn -0.0000 -0.0000 -1.0000
vn 1.0000 -0.0000 -0.0000
vn -0.0000 -0.2425 0.9701
vn -0.0000 -1.0000 -0.0000
vn -0.0000 1.0000 -0.0000
vn -0.0000 -0.3198 0.9475
vn -0.0000 0.3198 -0.9475
vn -0.0000 -0.0000 1.0000
vt 0.606250 0.992188
vt 0.612500 0.511719
vt 0.606250 0.511719
vt 0.612500 0.992188
vt 0.993750 0.992188
vt 0.993750 0.511719
vt 0.612500 0.941612
vt 0.952960 0.992188
vt 0.606250 0.941612
vt 0.647039 0.511719
vt 0.647039 0.992188
vt 0.952960 0.511719
vt 0.606250 0.941612
s 0
usemtl Grate
f 125/110/34 128/111/34 127/112/34
f 128/110/35 131/111/35 127/113/35
f 132/111/36 129/110/36 131/112/36
f 130/112/37 125/113/37 129/111/37
f 131/112/38 125/114/38 127/115/38
f 128/110/39 130/115/39 132/114/39
f 134/113/39 135/112/39 133/110/39
f 137/110/35 145/116/35 138/113/35
f 138/115/34 147/117/34 140/114/34
f 144/118/40 133/113/40 143/116/40
f 137/110/36 148/119/36 146/120/36
f 136/110/36 144/119/36 142/120/36
f 148/118/40 140/113/40 147/116/40
f 135/115/34 143/117/34 133/114/34
f 139/113/39 138/112/39 140/110/39
f 136/110/35 141/116/35 135/113/35
f 157/110/41 164/119/41 162/120/41
f 153/121/42 152/114/42 150/115/42
f 149/110/35 156/119/35 154/120/35
f 161/121/40 160/114/40 158/115/40
f 151/113/39 150/112/39 152/110/39
f 159/113/39 158/112/39 160/110/39
f 125/110/34 126/113/34 128/111/34
f 128/110/35 132/112/35 131/111/35
f 132/111/36 130/113/36 129/110/36
f 130/112/37 126/110/37 125/113/37
f 131/112/38 129/110/38 125/114/38
f 128/110/39 126/112/39 130/115/39
f 134/113/39 136/111/39 135/112/39
f 137/110/35 146/122/35 145/116/35
f 138/115/34 145/121/34 147/117/34
f 144/118/40 134/110/40 133/113/40
f 137/110/36 139/112/36 148/119/36
f 136/110/36 134/112/36 144/119/36
f 148/118/40 139/110/40 140/113/40
f 135/115/34 141/121/34 143/117/34
f 139/113/39 137/111/39 138/112/39
f 136/110/35 142/122/35 141/116/35
f 157/110/41 159/112/41 164/119/41
f 153/121/42 155/117/42 152/114/42
f 149/110/35 151/112/35 156/119/35
f 161/121/40 163/117/40 160/114/40
f 151/113/39 149/111/39 150/112/39
f 159/113/39 157/111/39 158/112/39
o Dishwasher01.Basket02
v -0.712500 0.985118 -0.215625
v -0.712500 1.022618 -0.206250
v -0.712500 0.985118 -1.350000
v -0.712500 1.022618 -1.350000
v 0.712500 0.985118 -0.215625
v 0.712500 1.022618 -0.206250
v 0.712500 0.985118 -1.350000
v 0.712500 1.022618 -1.350000
v -0.712500 1.172618 -0.155625
v -0.675000 1.172618 -0.155625
v -0.712500 1.172618 -1.350000
v -0.675000 1.172618 -1.350000
v 0.712500 1.172618 -1.350000
v 0.675000 1.172618 -1.350000
v 0.712500 1.172618 -0.155625
v 0.675000 1.172618 -0.155625
v -0.712500 1.022618 -1.350000
v -0.675000 1.022618 -1.350000
v -0.712500 1.022618 -0.206250
v -0.675000 1.022618 -0.206250
v 0.675000 1.022618 -1.350000
v 0.712500 1.022618 -1.350000
v 0.675000 1.022618 -0.206250
v 0.712500 1.022618 -0.206250
v -0.675000 1.172618 -1.350000
v -0.675000 1.172618 -1.312500
v 0.675000 1.172618 -1.350000
v 0.675000 1.172618 -1.312500
v -0.675000 1.022618 -1.312500
v -0.675000 1.022618 -1.350000
v 0.675000 1.022618 -1.312500
v 0.675000 1.022618 -1.350000
v -0.675000 1.172618 -0.193125
v -0.675000 1.172618 -0.155625
v 0.675000 1.172618 -0.193125
v 0.675000 1.172618 -0.155625
v -0.675000 1.022618 -0.206250
v -0.675000 1.022618 -0.243750
v 0.675000 1.022618 -0.206250
v 0.675000 1.022618 -0.243750
vn -1.0000 -0.0000 -0.0000
vn -0.0000 -0.0000 -1.0000
vn 1.0000 -0.0000 -0.0000
vn -0.0000 -0.2425 0.9701
vn -0.0000 -1.0000 -0.0000
vn -0.0000 1.0000 -0.0000
vn -0.0000 -0.3198 0.9475
vn -0.0000 0.3198 -0.9475
vn -0.0000 -0.0000 1.0000
vt 0.606250 0.992188
vt 0.612500 0.511719
vt 0.606250 0.511719
vt 0.612500 0.992188
vt 0.993750 0.992188
vt 0.993750 0.511719
vt 0.612500 0.941612
vt 0.952960 0.992188
vt 0.606250 0.941612
vt 0.647039 0.511719
vt 0.647039 0.992188
vt 0.952960 0.511719
vt 0.606250 0.941612
s 0
usemtl Grate
f 165/123/43 168/124/43 167/125/43
f 168/123/44 171/124/44 167/126/44
f 172/124/45 169/123/45 171/125/45
f 170/125/46 165/126/46 169/124/46
f 171/125/47 165/127/47 167/128/47
f 168/123/48 170/128/48 172/127/48
f 174/126/48 175/125/48 173/123/48
f 177/123/44 185/129/44 178/126/44
f 178/128/43 187/130/43 180/127/43
f 184/131/49 173/126/49 183/129/49
f 177/123/45 188/132/45 186/133/45
f 176/123/45 184/132/45 182/133/45
f 188/131/49 180/126/49 187/129/49
f 175/128/43 183/130/43 173/127/43
f 179/126/48 178/125/48 180/123/48
f 176/123/44 181/129/44 175/126/44
f 197/123/50 204/132/50 202/133/50
f 193/134/51 192/127/51 190/128/51
f 189/123/44 196/132/44 194/133/44
f 201/134/49 200/127/49 198/128/49
f 191/126/48 190/125/48 192/123/48
f 199/126/48 198/125/48 200/123/48
f 165/123/43 166/126/43 168/124/43
f 168/123/44 172/125/44 171/124/44
f 172/124/45 170/126/45 169/123/45
f 170/125/46 166/123/46 165/126/46
f 171/125/47 169/123/47 165/127/47
f 168/123/48 166/125/48 170/128/48
f 174/126/48 176/124/48 175/125/48
f 177/123/44 186/135/44 185/129/44
f 178/128/43 185/134/43 187/130/43
f 184/131/49 174/123/49 173/126/49
f 177/123/45 179/125/45 188/132/45
f 176/123/45 174/125/45 184/132/45
f 188/131/49 179/123/49 180/126/49
f 175/128/43 181/134/43 183/130/43
f 179/126/48 177/124/48 178/125/48
f 176/123/44 182/135/44 181/129/44
f 197/123/50 199/125/50 204/132/50
f 193/134/51 195/130/51 192/127/51
f 189/123/44 191/125/44 196/132/44
f 201/134/49 203/130/49 200/127/49
f 191/126/48 189/124/48 190/125/48
f 199/126/48 197/124/48 198/125/48
