# Blender 4.2.0
# www.blender.org
mtllib HotWaterBottle01.mtl
o HotWaterBottle01
v -0.312500 0.004751 -0.681556
v -0.312500 -0.002810 -0.681556
v -0.312500 0.004751 -0.029732
v -0.312500 -0.002810 0.032665
v 0.000000 -0.066824 -0.772550
v 0.000000 0.068764 -0.029732
v 0.000000 -0.066824 0.032665
v 0.000000 0.068764 -0.678185
v -0.216176 -0.048368 -0.764638
v -0.216176 0.000970 0.090459
v -0.216176 0.050309 -0.072788
v -0.216176 -0.048368 0.032665
v 0.000000 0.000970 0.037709
v -0.216176 0.050309 -0.628757
v -0.318992 0.000970 0.055518
v -0.318992 0.000970 -0.686090
v 0.000000 0.000970 -0.795860
v -0.216176 0.000970 -0.787947
v -0.096850 0.000970 -0.767681
v -0.132469 -0.032087 -0.943889
v -0.132469 0.033187 -0.943889
v 0.000000 -0.049278 -0.943889
v 0.000000 0.058470 -0.943889
v 0.000000 0.000970 -0.678185
v -0.140369 0.039308 -0.943889
v -0.140369 -0.038774 -0.943889
v 0.000000 0.022678 -0.830146
v 0.000000 -0.041163 -0.943889
v 0.000000 0.049745 -0.943889
v 0.000000 -0.016237 -0.830146
v -0.094588 0.015591 -0.830146
v -0.094588 -0.012351 -0.830146
v 0.312500 0.004751 -0.681556
v 0.312500 -0.002810 -0.681556
v 0.312500 0.004751 -0.029732
v 0.312500 -0.002810 0.032665
v 0.216176 -0.048368 -0.764638
v 0.216176 0.000970 0.090459
v 0.216176 0.050309 -0.072788
v 0.216176 -0.048368 0.032665
v 0.216176 0.050309 -0.628757
v 0.318992 0.000970 0.055518
v 0.318992 0.000970 -0.686090
v 0.216176 0.000970 -0.787947
v 0.096850 0.000970 -0.767681
v 0.132469 -0.032087 -0.943889
v 0.132469 0.033187 -0.943889
v 0.140369 0.039308 -0.943889
v 0.140369 -0.038774 -0.943889
v 0.094588 0.015591 -0.830146
v 0.094588 -0.012351 -0.830146
vn -0.4276 0.9040 -0.0000
vn -0.0147 0.9990 0.0432
vn -0.5032 0.8642 -0.0000
vn -0.0183 0.8663 -0.4991
vn -0.0851 -0.9964 -0.0000
vn -0.4276 -0.9040 -0.0000
vn -0.3073 0.8997 -0.3102
vn 0.0704 0.9549 0.2886
vn -0.3385 -0.7157 0.6110
vn -0.0851 0.9964 -0.0000
vn -0.0063 -0.0742 0.9972
vn -0.0623 -0.3245 -0.9438
vn -0.5032 -0.8642 -0.0000
vn -0.7006 -0.3048 -0.6452
vn -0.9708 -0.0000 0.2398
vn -0.1918 0.9592 0.2076
vn -0.0725 -0.9689 0.2365
vn -0.0000 -0.0000 -1.0000
vn 0.1217 -0.9740 -0.1912
vn 0.9488 -0.0000 -0.3160
vn 0.0401 0.9760 -0.2139
vn 0.4276 0.9040 -0.0000
vn 0.3077 0.9108 0.2753
vn 0.5032 0.8642 -0.0000
vn 0.1476 0.9447 -0.2928
vn 0.0851 -0.9964 -0.0000
vn 0.4276 -0.9040 -0.0000
vn 0.3073 0.8997 -0.3102
vn 0.1974 0.6914 0.6950
vn 0.3385 -0.7157 0.6110
vn 0.0851 0.9964 -0.0000
vn 0.0063 -0.0742 0.9972
vn 0.0331 -0.4269 -0.9037
vn 0.5032 -0.8642 -0.0000
vn 0.3073 -0.8997 -0.3102
vn 0.9708 -0.0000 0.2398
vn 0.1313 0.9615 0.2416
vn 0.0725 -0.9689 0.2365
vn -0.1217 -0.9740 -0.1912
vn -0.9488 -0.0000 -0.3160
vn -0.0671 0.9791 -0.1922
vn -0.3077 0.9108 0.2753
vn -0.1476 0.9447 -0.2928
vn -0.2781 0.9175 -0.2844
vn -0.1974 0.6914 0.6950
vn -0.0506 -0.9875 0.1490
vn 0.1565 -0.7512 0.6413
vn -0.0331 -0.4269 -0.9037
vn -0.3073 -0.8997 -0.3102
vn -0.1313 0.9615 0.2416
vn -0.1692 -0.9684 0.1831
vn 0.0727 -0.9703 -0.2309
vn 0.0671 0.9791 -0.1922
vn 0.0147 0.9990 0.0432
vn 0.0183 0.8663 -0.4991
vn 0.2781 0.9175 -0.2844
vn -0.0704 0.9549 0.2886
vn 0.0506 -0.9875 0.1490
vn -0.1565 -0.7512 0.6413
vn 0.0623 -0.3245 -0.9438
vn 0.7006 -0.3048 -0.6452
vn 0.1918 0.9592 0.2076
vn 0.1692 -0.9684 0.1831
vn -0.0727 -0.9703 -0.2309
vn -0.0401 0.9760 -0.2139
vt 0.086207 0.666667
vt 0.008621 0.114583
vt 0.086207 0.145833
vt 0.077586 -0.000000
vt 0.000000 0.031250
vt 0.000000 0.718750
vt 0.077586 0.833333
vt 0.250000 0.708333
vt 0.250000 0.833333
vt 0.905172 0.791667
vt 0.750000 0.093750
vt 0.913793 0.093750
vt 1.000000 0.739583
vt 0.991379 0.062500
vt 0.008621 0.718750
vt 0.250000 0.072917
vt 0.913793 0.000000
vt 0.250000 0.125000
vt 0.750000 0.031250
vt 0.750000 0.833333
vt 0.750000 0.750000
vt 0.008621 0.708333
vt 0.000000 0.083333
vt 0.922414 0.833333
vt 0.189655 1.000000
vt 0.163793 0.843750
vt 0.206897 0.843750
vt 0.250000 1.000000
vt 0.250000 0.770833
vt 0.750000 1.000000
vt 0.836207 0.843750
vt 0.862069 0.937500
vt 0.715517 0.583333
vt 0.793103 0.593750
vt 0.793103 0.583333
vt 0.698276 0.416667
vt 0.715517 0.593750
vt 0.818965 0.416667
vt 0.801724 0.416667
vt 0.724138 0.583333
vt 0.775862 0.666667
vt 0.706897 0.593750
vt 0.750000 0.875000
vt 0.681035 0.812500
vt 0.672414 0.875000
vt 0.275862 1.000000
vt 0.327586 0.843750
vt 0.344828 1.000000
vt 0.750000 0.895833
vt 0.810345 0.802083
vt 0.750000 0.802083
vt 0.422414 0.666667
vt 0.491379 0.114583
vt 0.491379 0.718750
vt 0.422414 0.000000
vt 0.422414 0.145833
vt 0.500000 0.718750
vt 0.431034 0.833333
vt 0.586207 0.791667
vt 0.508621 0.739583
vt 0.586207 0.093750
vt 0.508621 0.062500
vt 0.577586 0.000000
vt 0.568965 0.833333
vt 0.491379 0.083333
vt 0.491379 0.708333
vt 0.482759 0.083333
vt 0.336207 0.843750
vt 0.362069 1.000000
vt 0.663793 0.843750
vt 0.637931 0.937500
vt 0.793103 0.239583
vt 0.715517 0.250000
vt 0.793103 0.250000
vt 0.706897 0.416667
vt 0.862069 0.708333
vt 0.844828 0.729167
vt 0.810345 0.812500
vt 0.827586 0.875000
vt 0.224138 1.000000
vt 0.146552 1.000000
vt 0.681035 0.802083
vt 0.655172 0.895833
vt 0.991379 0.052083
vt 0.137931 1.000000
vt 0.750000 0.770833
vt 0.801724 0.635417
vt 0.750000 0.812500
vt 0.293103 0.843750
vt 0.836207 0.895833
vt 0.500000 0.031250
vt 0.500000 0.052083
vt 0.715517 0.239583
vt 0.198276 0.843750
s 0
usemtl Primary
f 14/1/1 3/2/1 11/3/1
f 10/4/2 3/2/2 15/5/2
f 3/2/3 16/6/3 15/5/3
f 18/7/4 8/8/4 17/9/4
f 9/10/5 7/11/5 12/12/5
f 2/13/6 12/12/6 4/14/6
f 1/15/7 18/7/7 16/6/7
f 13/16/8 11/3/8 10/4/8
f 10/17/9 4/14/9 12/12/9
f 14/1/10 6/18/10 8/8/10
f 13/19/11 12/12/11 7/11/11
f 9/10/12 17/20/12 5/21/12
f 4/22/13 16/23/13 2/23/13
f 2/13/14 18/24/14 9/10/14
f 19/25/15 25/26/15 26/27/15
f 23/28/16 19/26/16 24/29/16
f 22/30/17 19/31/17 26/32/17
f 20/33/18 25/34/18 21/35/18
f 20/33/18 22/36/18 26/37/18
f 21/35/18 23/38/18 29/39/18
f 31/40/18 30/41/18 32/42/18
f 29/43/19 31/44/19 21/45/19
f 21/46/20 32/47/20 20/48/20
f 28/49/21 32/50/21 30/51/21
f 41/52/22 35/53/22 33/54/22
f 38/55/23 35/53/23 39/56/23
f 35/53/24 43/57/24 33/54/24
f 44/58/25 8/8/25 41/52/25
f 37/59/26 7/11/26 5/21/26
f 34/60/27 40/61/27 37/59/27
f 44/58/28 33/54/28 43/57/28
f 13/16/29 39/56/29 6/18/29
f 36/62/30 38/63/30 40/61/30
f 6/18/31 41/52/31 8/8/31
f 40/61/32 13/19/32 7/11/32
f 37/59/33 17/20/33 44/64/33
f 43/65/34 36/66/34 34/67/34
f 34/60/35 44/64/35 43/60/35
f 45/25/36 49/27/36 48/26/36
f 23/28/37 45/68/37 48/69/37
f 45/70/38 22/30/38 49/71/38
f 48/72/18 46/73/18 47/74/18
f 46/73/18 22/36/18 28/75/18
f 23/38/18 47/74/18 29/39/18
f 30/41/18 50/76/18 51/77/18
f 50/78/39 29/43/39 47/79/39
f 51/26/40 47/80/40 46/81/40
f 28/49/41 51/82/41 46/83/41
f 14/1/1 1/15/1 3/2/1
f 10/4/42 11/3/42 3/2/42
f 3/2/3 1/15/3 16/6/3
f 18/7/43 14/1/43 8/8/43
f 9/10/5 5/21/5 7/11/5
f 2/13/6 9/10/6 12/12/6
f 1/15/44 14/1/44 18/7/44
f 13/16/45 6/18/45 11/3/45
f 10/17/46 15/84/46 4/14/46
f 14/1/10 11/3/10 6/18/10
f 13/19/47 10/17/47 12/12/47
f 9/10/48 18/24/48 17/20/48
f 4/22/13 15/6/13 16/23/13
f 2/13/49 16/13/49 18/24/49
f 23/28/50 25/85/50 19/26/50
f 22/30/51 24/86/51 19/31/51
f 20/33/18 26/37/18 25/34/18
f 20/33/18 28/75/18 22/36/18
f 21/35/18 25/34/18 23/38/18
f 31/40/18 27/87/18 30/41/18
f 29/43/52 27/88/52 31/44/52
f 21/46/20 31/89/20 32/47/20
f 28/49/53 20/90/53 32/50/53
f 41/52/22 39/56/22 35/53/22
f 38/55/54 42/91/54 35/53/54
f 35/53/24 42/91/24 43/57/24
f 44/58/55 17/9/55 8/8/55
f 37/59/26 40/61/26 7/11/26
f 34/60/27 36/62/27 40/61/27
f 44/58/56 41/52/56 33/54/56
f 13/16/57 38/55/57 39/56/57
f 36/62/58 42/92/58 38/63/58
f 6/18/31 39/56/31 41/52/31
f 40/61/59 38/63/59 13/19/59
f 37/59/60 5/21/60 17/20/60
f 43/65/34 42/57/34 36/66/34
f 34/60/61 37/59/61 44/64/61
f 23/28/62 24/29/62 45/68/62
f 45/70/63 24/86/63 22/30/63
f 48/72/18 49/93/18 46/73/18
f 46/73/18 49/93/18 22/36/18
f 23/38/18 48/72/18 47/74/18
f 30/41/18 27/87/18 50/76/18
f 50/78/64 27/88/64 29/43/64
f 51/26/40 50/94/40 47/80/40
f 28/49/65 30/51/65 51/82/65
