# Blender 4.2.0
# www.blender.org
mtllib Mat03.mtl
o Mat03
v 0.000000 0.000000 -0.500000
v -0.433013 0.000000 -0.250000
v -0.433013 0.000000 0.250000
v 0.000000 0.000000 0.500000
v 0.433013 0.000000 0.250000
v 0.433013 0.000000 -0.250000
v 0.000000 0.025000 -0.500000
v -0.433013 0.025000 -0.250000
v -0.433013 0.025000 0.250000
v 0.000000 0.025000 0.500000
v 0.433013 0.025000 0.250000
v 0.433013 0.025000 -0.250000
vn 0.5000 -0.0000 0.8660
vn -0.5000 -0.0000 0.8660
vn -0.5000 -0.0000 -0.8660
vn 1.0000 -0.0000 -0.0000
vn -1.0000 -0.0000 -0.0000
vn 0.5000 -0.0000 -0.8660
vn -0.0000 -1.0000 -0.0000
vn -0.0000 1.0000 -0.0000
vt 0.989583 0.489583
vt 0.666667 0.510417
vt 0.666667 0.489583
vt 0.989583 0.510417
vt 0.010417 0.510417
vt 0.333333 0.489583
vt 0.333333 0.510417
vt 0.010417 0.489583
vt 0.633949 0.000096
vt 0.000096 0.633949
vt 0.134045 0.134045
vt 0.366051 0.999904
vt 0.999904 0.366051
vt 0.865955 0.865955
vt 0.865955 0.865955
vt 0.633949 0.000096
vt 0.999904 0.366051
vt 0.134045 0.134045
vt 0.366051 0.999903
vt 0.000096 0.633949
s 0
usemtl Primary
f 1/1/1 8/2/1 2/3/1
f 6/2/2 7/1/2 1/4/2
f 4/5/3 11/6/3 5/7/3
f 2/3/4 9/7/4 3/6/4
f 5/7/5 12/3/5 6/2/5
f 3/6/6 10/5/6 4/8/6
f 10/9/7 12/10/7 11/11/7
f 7/12/7 9/13/7 8/14/7
f 6/15/8 4/16/8 5/17/8
f 3/18/8 1/19/8 2/20/8
f 1/1/1 7/4/1 8/2/1
f 6/2/2 12/3/2 7/1/2
f 4/5/3 10/8/3 11/6/3
f 2/3/4 8/2/4 9/7/4
f 5/7/5 11/6/5 12/3/5
f 3/6/6 9/7/6 10/5/6
f 10/9/7 7/12/7 12/10/7
f 7/12/7 10/9/7 9/13/7
f 6/15/8 1/19/8 4/16/8
f 3/18/8 4/16/8 1/19/8
