# Blender 4.2.0
# www.blender.org
mtllib Mattress01.mtl
o Mattress01
v 1.848000 0.360000 -1.080000
v 1.848000 0.000000 -1.080000
v 1.848000 0.360000 1.080000
v 1.848000 0.000000 1.080000
v -1.848000 0.360000 -1.080000
v -1.848000 0.000000 -1.080000
v -1.848000 0.360000 1.080000
v -1.848000 0.000000 1.080000
v 1.694000 0.000000 -1.200000
v -1.694000 0.000000 -1.200000
v 1.694000 0.360000 1.200000
v -1.694000 0.360000 1.200000
v -1.694000 0.000000 1.200000
v 1.694000 0.000000 1.200000
v -1.694000 0.360000 -1.200000
v 1.694000 0.360000 -1.200000
vn -0.0000 1.0000 -0.0000
vn -0.6147 -0.0000 0.7888
vn -1.0000 -0.0000 -0.0000
vn -0.0000 -1.0000 -0.0000
vn 1.0000 -0.0000 -0.0000
vn 0.6146 -0.0000 -0.7888
vn -0.6146 -0.0000 -0.7888
vn -0.0000 -0.0000 -1.0000
vn 0.6146 -0.0000 0.7888
vn -0.0000 -0.0000 1.0000
vn -0.6146 -0.0000 0.7888
vn -0.6147 -0.0000 -0.7888
vt 1.000000 0.062500
vt 0.960938 1.000000
vt 0.960938 0.000000
vt 0.937500 0.289062
vt 0.898438 0.148438
vt 0.937500 0.148438
vt 0.898438 0.289062
vt 0.476562 0.148438
vt 0.000000 0.937500
vt 0.039062 0.000000
vt 0.039062 1.000000
vt 0.285156 0.148438
vt 0.707031 0.289062
vt 0.285156 0.289062
vt 0.246094 0.148438
vt 0.246094 0.289062
vt 0.476562 0.289062
vt 0.437500 0.148438
vt 0.562500 0.429688
vt 0.050781 0.320312
vt 0.562500 0.320312
vt 1.000000 0.937500
vt 0.707031 0.148438
vt 0.746094 0.289062
vt 0.054688 0.320312
vt 0.054688 0.429688
vt 0.000000 0.062500
vt 0.437500 0.289062
vt 0.050781 0.429688
vt 0.746094 0.148438
s 0
usemtl Primary
f 5/1/1 12/2/1 15/3/1
f 12/4/2 8/5/2 13/6/2
f 7/7/3 6/8/3 8/5/3
f 2/9/4 14/10/4 9/11/4
f 1/12/5 4/13/5 2/14/5
f 16/15/6 2/14/6 9/16/6
f 5/17/7 10/18/7 6/8/7
f 15/19/8 9/20/8 10/21/8
f 10/2/4 8/1/4 6/22/4
f 9/11/4 13/3/4 10/2/4
f 3/23/9 14/24/9 4/13/9
f 11/25/10 13/19/10 14/26/10
f 16/10/1 3/9/1 1/27/1
f 15/3/1 11/11/1 16/10/1
f 5/1/1 7/22/1 12/2/1
f 12/4/11 7/7/11 8/5/11
f 7/7/3 5/17/3 6/8/3
f 2/9/4 4/27/4 14/10/4
f 1/12/5 3/23/5 4/13/5
f 16/15/6 1/12/6 2/14/6
f 5/17/12 15/28/12 10/18/12
f 15/19/8 16/29/8 9/20/8
f 10/2/4 13/3/4 8/1/4
f 9/11/4 14/10/4 13/3/4
f 3/23/9 11/30/9 14/24/9
f 11/25/10 12/21/10 13/19/10
f 16/10/1 11/11/1 3/9/1
f 15/3/1 12/2/1 11/11/1
