# Blender 4.2.0
# www.blender.org
mtllib PublicBookshelf01.mtl
o PublicBookshelf01
v 0.650000 2.500000 -0.400000
v 0.650000 0.000000 -0.400000
v 0.650000 2.500000 0.400000
v 0.650000 0.000000 0.400000
v -0.650000 2.500000 -0.400000
v -0.650000 0.000000 -0.400000
v -0.650000 2.500000 0.400000
v -0.650000 0.000000 0.400000
vn -0.0000 1.0000 -0.0000
vn -0.0000 -0.0000 1.0000
vn -1.0000 -0.0000 -0.0000
vn 1.0000 -0.0000 -0.0000
vn -0.0000 -0.0000 -1.0000
vt 1.000000 0.494792
vt 0.656250 0.244792
vt 1.000000 0.244792
vt 0.500000 1.000000
vt 0.000102 0.500102
vt 0.500000 0.500000
vt 0.333333 0.500000
vt -0.000000 0.000000
vt 0.333333 0.000000
vt 0.666667 0.500000
vt 0.666667 0.000000
vt 1.000000 1.000000
vt 1.000000 0.500000
vt 0.656250 0.494792
vt 0.000102 0.999898
vt -0.000000 0.500000
s 0
usemtl Primary
f 5/1/1 3/2/1 1/3/1
f 3/4/2 8/5/2 4/6/2
f 7/7/3 6/8/3 8/9/3
f 1/10/4 4/9/4 2/11/4
f 5/12/5 2/6/5 6/13/5
f 5/1/1 7/14/1 3/2/1
f 3/4/2 7/15/2 8/5/2
f 7/7/3 5/16/3 6/8/3
f 1/10/4 3/7/4 4/9/4
f 5/12/5 1/4/5 2/6/5
