# Blender 4.2.0
# www.blender.org
mtllib Shampoo01.mtl
o Shampoo01
v 0.072070 0.320508 -0.025225
v 0.072070 0.000000 -0.025225
v 0.072070 0.320508 0.025225
v 0.072070 0.000000 0.025225
v -0.072070 0.320508 -0.025225
v -0.072070 0.000000 -0.025225
v -0.072070 0.320508 0.025225
v -0.072070 0.000000 0.025225
v -0.049708 0.334536 0.017398
v 0.049708 0.334536 -0.017398
v 0.049708 0.334536 0.017398
v -0.049708 0.334536 -0.017398
v -0.000000 0.334536 -0.017398
v -0.000000 0.393750 -0.017398
v 0.049708 0.334536 -0.008632
v 0.049708 0.393750 -0.008632
v 0.049708 0.334536 0.008632
v 0.049708 0.393750 0.008632
v -0.000000 0.334536 0.017398
v -0.000000 0.393750 0.017398
v -0.049708 0.334536 0.008632
v -0.049708 0.393750 0.008632
v -0.049708 0.334536 -0.008632
v -0.049708 0.393750 -0.008632
vn -0.0000 0.4872 0.8733
vn -0.0000 -0.0000 1.0000
vn -1.0000 -0.0000 -0.0000
vn -0.0000 -1.0000 -0.0000
vn 1.0000 -0.0000 -0.0000
vn -0.0000 -0.0000 -1.0000
vn -0.5314 0.8471 -0.0000
vn 0.5314 0.8471 -0.0000
vn -0.0000 0.4872 -0.8733
vn -0.0000 1.0000 -0.0000
vn 0.1737 -0.0000 -0.9848
vn 0.1737 -0.0000 0.9848
vn -0.1737 -0.0000 0.9848
vn -0.1737 -0.0000 -0.9848
vt 0.857143 0.828947
vt 0.482143 0.855263
vt 0.428571 0.828947
vt 0.000000 0.157895
vt 0.428571 0.157895
vt 0.982143 0.828947
vt 0.857143 0.157895
vt 0.982143 0.157895
vt 0.428571 0.000000
vt 0.964286 0.855263
vt 0.875000 0.855263
vt 0.803571 0.855263
vt 0.875000 0.500000
vt 0.625000 0.750000
vt 0.625000 0.500000
vt 0.214286 0.868421
vt 0.428571 1.000000
vt 0.214286 1.000000
vt 0.875000 1.000000
vt 0.982143 0.868421
vt 0.875000 0.868421
vt 0.000000 0.868421
vt -0.000000 1.000000
vt 0.785714 0.078947
vt 0.571429 0.144737
vt 0.571429 0.013158
vt 0.982143 1.000000
vt 0.957846 0.370000
vt 0.750000 0.010000
vt 0.542154 0.370000
vt 0.000000 0.828947
vt 0.000000 0.000000
vt 0.875000 0.750000
vt 0.428571 0.868421
vt 0.714286 0.013158
vt 0.714286 0.144737
vt 0.500000 0.078947
vt 0.750000 0.490000
vt 0.957846 0.130000
vt 0.542154 0.130000
s 0
usemtl Primary
f 3/1/1 9/2/1 7/3/1
f 3/3/2 8/4/2 4/5/2
f 7/6/3 6/7/3 8/8/3
f 2/4/4 8/9/4 6/5/4
f 1/6/5 4/7/5 2/8/5
f 5/1/6 2/5/6 6/7/6
f 7/1/7 12/10/7 5/6/7
f 1/6/8 11/11/8 3/1/8
f 5/3/9 10/12/9 1/1/9
f 12/13/10 11/14/10 10/15/10
f 14/16/11 15/17/11 13/18/11
f 16/19/5 17/20/5 15/21/5
f 18/22/12 19/18/12 17/23/12
f 20/16/13 21/17/13 19/18/13
f 14/24/10 22/25/10 18/26/10
f 22/27/3 23/21/3 21/20/3
f 24/22/14 13/18/14 23/23/14
f 15/28/4 19/29/4 23/30/4
f 3/1/1 11/12/1 9/2/1
f 3/3/2 7/31/2 8/4/2
f 7/6/3 5/1/3 6/7/3
f 2/4/4 4/32/4 8/9/4
f 1/6/5 3/1/5 4/7/5
f 5/1/6 1/3/6 2/5/6
f 7/1/7 9/11/7 12/10/7
f 1/6/8 10/10/8 11/11/8
f 5/3/9 12/2/9 10/12/9
f 12/13/10 9/33/10 11/14/10
f 14/16/11 16/34/11 15/17/11
f 16/19/5 18/27/5 17/20/5
f 18/22/12 20/16/12 19/18/12
f 20/16/13 22/34/13 21/17/13
f 18/26/10 16/35/10 14/24/10
f 14/24/10 24/36/10 22/25/10
f 22/25/10 20/37/10 18/26/10
f 22/27/3 24/19/3 23/21/3
f 24/22/14 14/16/14 13/18/14
f 23/30/4 13/38/4 15/28/4
f 15/28/4 17/39/4 19/29/4
f 19/29/4 21/40/4 23/30/4
