# Blender 4.2.0
# www.blender.org
mtllib Soap01a.mtl
o Soap01a
v 0.123047 0.070313 0.078125
v 0.123047 0.070313 -0.078125
v 0.123047 0.000000 0.078125
v 0.123047 0.000000 -0.078125
v -0.123047 0.070313 0.078125
v -0.123047 0.070313 -0.078125
v -0.123047 0.000000 0.078125
v -0.123047 0.000000 -0.078125
vn -0.0000 -0.0000 1.0000
vn -0.0000 -1.0000 -0.0000
vn -1.0000 -0.0000 -0.0000
vn -0.0000 -0.0000 -1.0000
vn 1.0000 -0.0000 -0.0000
vn -0.0000 1.0000 -0.0000
vt 0.500000 0.416667
vt 0.900000 0.583333
vt 0.900000 0.416667
vt 0.500000 0.000000
vt 0.500000 0.583333
vt 0.750000 0.416667
vt 0.900000 1.000000
vt 1.000000 0.583333
vt 0.500000 1.000000
vt 0.900000 0.000000
vt 0.750000 0.583333
vt 1.000000 1.000000
s 0
usemtl Primary
f 5/1/1 3/2/1 1/3/1
f 3/4/2 8/3/2 4/1/2
f 8/5/3 5/6/3 6/1/3
f 2/5/4 8/3/4 6/2/4
f 1/7/5 4/8/5 2/2/5
f 5/9/6 2/2/6 6/5/6
f 5/1/1 7/5/1 3/2/1
f 3/4/2 7/10/2 8/3/2
f 8/5/3 7/11/3 5/6/3
f 2/5/4 4/1/4 8/3/4
f 1/7/5 3/12/5 4/8/5
f 5/9/6 1/7/6 2/2/6
