# Blender 4.2.0
# www.blender.org
mtllib ToiletPaper01.mtl
o ToilettePaper01
v 0.000000 0.000000 -0.130000
v 0.000000 0.260000 -0.130000
v 0.112583 0.000000 -0.065000
v 0.112583 0.260000 -0.065000
v 0.112583 0.000000 0.065000
v 0.112583 0.260000 0.065000
v 0.000000 0.000000 0.130000
v 0.000000 0.260000 0.130000
v -0.112583 0.000000 0.065000
v -0.112583 0.260000 0.065000
v -0.112583 0.000000 -0.065000
v -0.112583 0.260000 -0.065000
vn 0.5000 -0.0000 -0.8660
vn 1.0000 -0.0000 -0.0000
vn 0.5000 -0.0000 0.8660
vn -0.5000 -0.0000 0.8660
vn -0.0000 1.0000 -0.0000
vn -1.0000 -0.0000 -0.0000
vn -0.5000 -0.0000 -0.8660
vn -0.0000 -1.0000 -0.0000
vt 0.538462 1.000000
vt -0.000000 0.500000
vt 0.538462 0.500000
vt 1.000000 1.000000
vt 1.000000 0.500000
vt 0.000000 1.000000
vt 0.942308 0.104167
vt 0.500000 0.500000
vt 0.076923 0.093750
vt 0.923077 0.395833
vt 0.038462 0.364583
vt 0.557692 0.000000
vt 0.923077 0.395833
s 0
usemtl Primary
f 2/1/1 3/2/1 1/3/1
f 4/4/2 5/3/2 3/5/2
f 6/1/3 7/2/3 5/3/3
f 8/6/4 9/3/4 7/2/4
f 2/7/5 10/8/5 6/9/5
f 10/1/6 11/2/6 9/3/6
f 12/6/7 1/3/7 11/2/7
f 3/10/8 7/11/8 11/12/8
f 2/1/1 4/6/1 3/2/1
f 4/4/2 6/1/2 5/3/2
f 6/1/3 8/6/3 7/2/3
f 8/6/4 10/1/4 9/3/4
f 6/9/5 4/12/5 2/7/5
f 2/7/5 12/13/5 10/8/5
f 10/8/5 8/11/5 6/9/5
f 10/1/6 12/6/6 11/2/6
f 12/6/7 2/1/7 1/3/7
f 11/12/8 1/7/8 3/10/8
f 3/10/8 5/8/8 7/11/8
f 7/11/8 9/9/8 11/12/8
