# Blender 4.2.0
# www.blender.org
mtllib ToiletPaperPack01.mtl
o ToilettePaperPack01
v 0.703125 0.703125 -0.131836
v 0.703125 0.000000 -0.131836
v 0.703125 0.703125 0.131836
v 0.703125 0.000000 0.131836
v -0.703125 0.703125 -0.131836
v -0.703125 0.000000 -0.131836
v -0.703125 0.703125 0.131836
v -0.703125 0.000000 0.131836
v -0.703125 0.000000 0.000000
v 0.856094 0.703125 0.000000
v -0.703125 0.703125 0.000000
v 0.856094 0.000000 0.000000
vn -0.0000 1.0000 -0.0000
vn -0.0000 -0.0000 1.0000
vn -1.0000 -0.0000 -0.0000
vn -0.0000 -1.0000 -0.0000
vn 0.6528 -0.0000 0.7575
vn -0.0000 -0.0000 -1.0000
vn 0.6528 -0.0000 -0.7575
vt 1.000000 0.375000
vt 0.000000 0.250000
vt -0.109375 0.375000
vt 1.000000 1.000000
vt 0.000000 0.500000
vt 1.000000 0.500000
vt 0.500000 0.125000
vt 1.000000 0.000000
vt 1.000000 0.125000
vt 1.000000 0.250000
vt 0.000000 0.000000
vt 0.000000 0.125000
vt 0.500000 0.250000
vt 0.000000 1.000000
vt 0.500000 0.000000
s 0
usemtl Material
f 11/1/1 3/2/1 10/3/1
f 3/4/2 8/5/2 4/6/2
f 11/7/3 6/8/3 9/9/3
f 9/1/4 4/2/4 8/10/4
f 10/7/5 4/11/5 12/12/5
f 5/4/6 2/5/6 6/6/6
f 1/13/7 12/12/7 2/2/7
f 2/5/4 9/1/4 6/6/4
f 7/13/3 9/9/3 8/10/3
f 1/5/1 11/1/1 10/3/1
f 11/1/1 7/10/1 3/2/1
f 3/4/2 7/14/2 8/5/2
f 11/7/3 5/15/3 6/8/3
f 9/1/4 12/3/4 4/2/4
f 10/7/5 3/15/5 4/11/5
f 5/4/6 1/14/6 2/5/6
f 1/13/7 10/7/7 12/12/7
f 2/5/4 12/3/4 9/1/4
f 7/13/3 11/7/3 9/9/3
f 1/5/1 5/6/1 11/1/1
