# Blender 4.2.0
# www.blender.org
mtllib TrashBin01.mtl
o TrashBin01
v 0.000000 0.000000 -0.375000
v 0.000000 1.125000 -0.331699
v 0.324760 0.000000 -0.187500
v 0.287260 1.125000 -0.165849
v 0.324760 0.000000 0.187500
v 0.287260 1.125000 0.165849
v 0.000000 0.000000 0.375000
v 0.000000 1.125000 0.331699
v -0.324760 0.000000 0.187500
v -0.287260 1.125000 0.165849
v -0.324760 0.000000 -0.187500
v -0.287260 1.125000 -0.165849
v 0.324760 1.125000 -0.187500
v 0.000000 1.125000 -0.375000
v 0.324760 1.125000 0.187500
v 0.000000 1.125000 0.375000
v -0.324760 1.125000 0.187500
v -0.324760 1.125000 -0.187500
v 0.287260 1.106250 -0.165849
v 0.000000 1.106250 -0.331699
v 0.287260 1.106250 0.165849
v 0.000000 1.106250 0.331699
v -0.287260 1.106250 0.165849
v -0.287260 1.106250 -0.165849
v 0.287260 1.106250 -0.165849
v 0.000000 1.106250 -0.331699
v 0.287260 1.106250 0.165849
v 0.000000 1.106250 0.331699
v -0.287260 1.106250 0.165849
v -0.287260 1.106250 -0.165849
v 0.308804 1.106250 -0.178288
v 0.000000 1.106250 -0.356576
v 0.308804 1.106250 0.178288
v 0.000000 1.106250 0.356576
v -0.308804 1.106250 0.178288
v -0.308804 1.106250 -0.178288
v 0.308804 0.018750 -0.178288
v 0.000000 0.018750 -0.356576
v 0.308804 0.018750 0.178288
v 0.000000 0.018750 0.356576
v -0.308804 0.018750 0.178288
v -0.308804 0.018750 -0.178288
vn 0.5000 -0.0000 -0.8660
vn 1.0000 -0.0000 -0.0000
vn 0.5000 -0.0000 0.8660
vn -0.5000 -0.0000 0.8660
vn -1.0000 -0.0000 -0.0000
vn -0.5000 -0.0000 -0.8660
vn -0.0000 -1.0000 -0.0000
vn -0.0000 1.0000 -0.0000
vt 0.000000 0.906250
vt 0.192308 0.000000
vt 0.000000 0.000000
vt 0.192308 0.906250
vt 0.346154 0.000000
vt 0.346154 0.906250
vt 0.538462 0.000000
vt 0.538462 0.906250
vt 0.066154 0.356144
vt 0.250000 0.462287
vt 0.346154 0.906250
vt 0.999921 0.469102
vt 0.000079 0.469102
vt 0.500000 0.000079
vt 0.433846 0.356144
vt 0.250000 0.490000
vt 0.433846 0.143856
vt 0.457846 0.370000
vt 0.250000 0.037713
vt 0.457846 0.130000
vt 0.066154 0.143856
vt 0.250000 0.010000
vt 0.042154 0.130000
vt 0.042154 0.370000
vt 0.500000 0.677083
vt 0.673077 0.000000
vt 0.673077 0.677083
vt 0.500000 0.000079
vt 0.999921 0.469102
vt 0.000079 0.469102
vt 0.192308 0.677083
vt 0.346154 0.677083
vt -0.134615 0.677083
vt 0.019231 0.000000
vt 0.019231 0.677083
vt 0.826923 0.000000
vt 0.826923 0.677083
vt 0.500000 0.000000
vt 0.192308 0.906250
vt 0.999921 0.156420
vt 0.500000 0.625443
vt 0.000079 0.156420
vt 0.000079 0.156420
vt 0.999921 0.156420
vt 0.500000 0.625443
vt -0.134615 0.000000
s 0
usemtl Primary
f 14/1/1 3/2/1 1/3/1
f 13/4/2 5/5/2 3/2/2
f 15/6/3 7/7/3 5/5/3
f 16/8/4 9/5/4 7/7/4
f 12/9/3 20/10/3 2/10/3
f 17/11/5 11/2/5 9/5/5
f 18/4/6 1/3/6 11/2/6
f 3/12/7 7/13/7 11/14/7
f 4/15/8 14/16/8 2/10/8
f 6/17/8 13/18/8 4/15/8
f 8/19/8 15/20/8 6/17/8
f 10/21/8 16/22/8 8/19/8
f 12/9/8 17/23/8 10/21/8
f 2/10/8 18/24/8 12/9/8
f 24/9/8 29/21/8 30/9/8
f 8/19/1 23/21/1 10/21/1
f 4/15/5 21/17/5 6/17/5
f 10/21/2 24/9/2 12/9/2
f 6/17/6 22/19/6 8/19/6
f 2/10/4 19/15/4 4/15/4
f 30/9/7 32/10/7 26/10/7
f 22/19/8 27/17/8 28/19/8
f 19/15/8 26/10/8 25/15/8
f 20/10/8 30/9/8 26/10/8
f 23/21/8 28/19/8 29/21/8
f 21/17/8 25/15/8 27/17/8
f 35/25/2 42/26/2 36/27/2
f 28/19/7 35/21/7 29/21/7
f 25/15/7 33/17/7 27/17/7
f 29/21/7 36/9/7 30/9/7
f 27/17/7 34/19/7 28/19/7
f 26/10/7 31/15/7 25/15/7
f 38/28/8 41/29/8 39/30/8
f 33/31/6 40/5/6 34/32/6
f 32/33/4 37/34/4 31/35/4
f 36/27/3 38/36/3 32/37/3
f 34/32/1 41/38/1 35/25/1
f 31/35/5 39/2/5 33/31/5
f 14/1/1 13/4/1 3/2/1
f 13/4/2 15/6/2 5/5/2
f 15/6/3 16/8/3 7/7/3
f 16/8/4 17/6/4 9/5/4
f 12/9/3 24/9/3 20/10/3
f 17/11/5 18/39/5 11/2/5
f 18/4/6 14/1/6 1/3/6
f 11/14/7 1/40/7 3/12/7
f 3/12/7 5/41/7 7/13/7
f 7/13/7 9/42/7 11/14/7
f 4/15/8 13/18/8 14/16/8
f 6/17/8 15/20/8 13/18/8
f 8/19/8 16/22/8 15/20/8
f 10/21/8 17/23/8 16/22/8
f 12/9/8 18/24/8 17/23/8
f 2/10/8 14/16/8 18/24/8
f 24/9/8 23/21/8 29/21/8
f 8/19/1 22/19/1 23/21/1
f 4/15/5 19/15/5 21/17/5
f 10/21/2 23/21/2 24/9/2
f 6/17/6 21/17/6 22/19/6
f 2/10/4 20/10/4 19/15/4
f 30/9/7 36/9/7 32/10/7
f 22/19/8 21/17/8 27/17/8
f 19/15/8 20/10/8 26/10/8
f 20/10/8 24/9/8 30/9/8
f 23/21/8 22/19/8 28/19/8
f 21/17/8 19/15/8 25/15/8
f 35/25/2 41/38/2 42/26/2
f 28/19/7 34/19/7 35/21/7
f 25/15/7 31/15/7 33/17/7
f 29/21/7 35/21/7 36/9/7
f 27/17/7 33/17/7 34/19/7
f 26/10/7 32/10/7 31/15/7
f 39/30/8 37/43/8 38/28/8
f 38/28/8 42/44/8 41/29/8
f 41/29/8 40/45/8 39/30/8
f 33/31/6 39/2/6 40/5/6
f 32/33/4 38/46/4 37/34/4
f 36/27/3 42/26/3 38/36/3
f 34/32/1 40/5/1 41/38/1
f 31/35/5 37/34/5 39/2/5
o TrashBin01.Lid
v 0.000000 1.125000 -0.331699
v 0.287260 1.125000 -0.165849
v 0.287260 1.125000 0.165849
v 0.000000 1.125000 0.331699
v -0.287260 1.125000 0.165849
v -0.287260 1.125000 -0.165849
v 0.287260 1.106250 -0.165849
v 0.000000 1.106250 -0.331699
v 0.287260 1.106250 0.165849
v 0.000000 1.106250 0.331699
v -0.287260 1.106250 0.165849
v -0.287260 1.106250 -0.165849
vn -0.0000 -1.0000 -0.0000
vn -0.0000 1.0000 -0.0000
vn -0.5000 -0.0000 -0.8660
vn -0.5000 -0.0000 0.8660
vn 0.5000 -0.0000 0.8660
vn 0.5000 -0.0000 -0.8660
vn -1.0000 -0.0000 -0.0000
vn 1.0000 -0.0000 -0.0000
vt 0.961538 0.812500
vt 0.576923 0.812500
vt 0.769231 1.000000
vt 0.769231 0.750000
vt 0.961538 0.937500
vt 0.576923 0.937500
vt 0.615385 0.875000
vt 0.923077 0.875000
vt 0.576923 0.802083
vt 0.961538 0.802083
s 0
usemtl Primary
f 45/47/9 47/48/9 43/49/9
f 50/50/10 53/51/10 51/52/10
f 45/53/11 52/54/11 46/54/11
f 43/53/12 49/54/12 44/54/12
f 48/54/13 50/53/13 43/53/13
f 46/54/14 53/53/14 47/53/14
f 44/54/15 51/53/15 45/53/15
f 47/53/16 54/54/16 48/54/16
f 43/49/9 44/51/9 45/47/9
f 45/47/9 46/50/9 47/48/9
f 47/48/9 48/52/9 43/49/9
f 51/52/10 49/55/10 50/50/10
f 50/50/10 54/56/10 53/51/10
f 53/51/10 52/49/10 51/52/10
f 45/53/11 51/53/11 52/54/11
f 43/53/12 50/53/12 49/54/12
f 48/54/13 54/54/13 50/53/13
f 46/54/14 52/54/14 53/53/14
f 44/54/15 49/54/15 51/53/15
f 47/53/16 53/53/16 54/54/16
