# Blender 4.2.0
# www.blender.org
mtllib Car02.mtl
o Car02.Chassis
v 1.125000 0.338404 -0.003919
v 0.660487 1.949466 -1.125000
v 1.125000 0.772803 -1.422385
v 0.696152 1.875586 -1.422385
v 1.125000 0.772803 -1.858208
v 1.125000 0.525038 -2.447851
v 1.076803 1.278884 -2.447851
v 1.125000 0.706038 -2.806764
v 1.076803 1.175032 -2.806764
v 1.125000 0.338404 0.526617
v 0.703830 1.859682 0.526617
v 1.125000 0.455905 2.506336
v 1.076803 1.133239 2.506336
v 1.125000 0.601892 2.808991
v 1.076803 1.069147 2.808991
v 0.000000 0.338404 -1.125000
v 0.000000 1.962870 -1.125000
v 0.000000 0.338404 -0.003919
v 0.000000 1.962870 -0.003919
v 0.000000 0.772803 -1.422385
v 0.000000 1.880832 -1.422385
v 0.000000 0.772803 -1.858208
v 0.000000 1.458043 -1.858208
v 0.000000 0.525038 -2.447851
v 0.000000 1.278884 -2.447851
v 0.000000 0.706038 -2.806764
v 0.000000 1.175032 -2.806764
v 0.000000 0.338404 0.526617
v 0.000000 1.863171 0.526617
v 0.000000 0.338404 1.318861
v 0.000000 1.353999 1.149730
v 0.000000 0.455905 2.506336
v 0.000000 1.133239 2.506336
v 0.000000 0.601892 2.808991
v 0.000000 1.069147 2.808991
v 0.660487 1.949466 -0.003919
v 1.125000 0.338404 -1.125000
v 1.078457 1.458043 -1.858208
v 1.125000 0.338404 1.318861
v 1.084902 1.356099 -1.125000
v 1.084902 1.356099 -0.003919
v 1.084902 1.356099 -1.422385
v 1.084902 1.356099 0.526617
v 1.084902 1.356099 1.149730
v 0.000000 1.259642 1.726555
v 0.000000 1.206826 2.054134
v 0.000000 0.842235 1.726555
v 0.000000 0.842235 2.054134
v 1.125000 0.842235 1.726555
v 1.125000 0.842235 2.054134
v 1.079503 1.207526 2.054134
v 1.082203 1.261042 1.726554
v 1.125000 0.525038 -2.116942
v 0.000000 1.379429 -2.116942
v 0.000000 0.525038 -2.116942
v 1.072010 1.379429 -2.116942
v 0.731250 0.842235 2.054134
v 0.731250 0.455905 2.506336
v 0.731250 0.338404 1.318861
v 0.731250 0.842235 1.726555
v 0.731250 0.772803 -1.422385
v 0.731250 0.772803 -1.858208
v 0.731250 0.338404 -1.125000
v 0.731250 0.525038 -2.116942
v 1.013999 1.320471 1.024019
v 1.013999 1.401577 1.024019
v 0.989188 1.320471 0.955030
v 0.989188 1.401577 0.955030
v 1.176732 1.274555 0.965494
v 1.176732 1.447492 0.965494
v 1.151921 1.274555 0.896505
v 1.151921 1.447492 0.896505
v 1.228608 1.424739 0.884859
v 1.228608 1.297309 0.884859
v 1.245856 1.297309 0.924701
v 1.245856 1.424739 0.924701
v -1.125000 0.338404 -0.003919
v -0.660487 1.949466 -1.125000
v -1.125000 0.772803 -1.422385
v -0.696152 1.875586 -1.422385
v -1.125000 0.772803 -1.858208
v -1.125000 0.525038 -2.447851
v -1.076803 1.278884 -2.447851
v -1.125000 0.706038 -2.806764
v -1.076803 1.175032 -2.806764
v -1.125000 0.338404 0.526617
v -0.703830 1.859682 0.526617
v -1.125000 0.455905 2.506336
v -1.076803 1.133239 2.506336
v -1.125000 0.601892 2.808991
v -1.076803 1.069147 2.808991
v -0.660487 1.949466 -0.003919
v -1.125000 0.338404 -1.125000
v -1.078457 1.458043 -1.858208
v -1.125000 0.338404 1.318861
v -1.084902 1.356099 -1.125000
v -1.084902 1.356099 -0.003919
v -1.084902 1.356099 -1.422385
v -1.084902 1.356099 0.526617
v -1.084902 1.356099 1.149730
v -1.125000 0.842235 1.726555
v -1.125000 0.842235 2.054134
v -1.079503 1.207526 2.054134
v -1.082203 1.261042 1.726554
v -1.125000 0.525038 -2.116942
v -1.072010 1.379429 -2.116942
v -0.731250 0.842235 2.054134
v -0.731250 0.455905 2.506336
v -0.731250 0.338404 1.318861
v -0.731250 0.842235 1.726555
v -0.731250 0.772803 -1.422385
v -0.731250 0.772803 -1.858208
v -0.731250 0.338404 -1.125000
v -0.731250 0.525038 -2.116942
v -1.013999 1.320471 1.024019
v -1.013999 1.401577 1.024019
v -0.989188 1.320471 0.955030
v -0.989188 1.401577 0.955030
v -1.176732 1.274555 0.965494
v -1.176732 1.447492 0.965494
v -1.151921 1.274555 0.896505
v -1.151921 1.447492 0.896505
v -1.228608 1.424739 0.884859
v -1.228608 1.297309 0.884859
v -1.245856 1.297309 0.924701
v -1.245856 1.424739 0.924701
vn 0.0196 0.9638 -0.2659
vn -0.0000 -1.0000 -0.0000
vn 0.0054 0.7177 -0.6963
vn 0.9981 0.0619 -0.0044
vn -0.0000 0.9568 -0.2907
vn -0.0000 -0.0000 -1.0000
vn -0.0000 0.9606 -0.2780
vn 0.9943 0.1022 -0.0296
vn -0.0000 -0.7603 -0.6496
vn -0.0000 -0.9007 0.4345
vn 0.9956 0.0708 0.0605
vn 0.9969 0.0709 -0.0342
vn -0.0000 0.9783 0.2072
vn -0.0000 -0.0000 1.0000
vn -0.0006 0.9868 0.1621
vn 0.0049 0.9860 0.1665
vn -0.0015 0.7773 0.6291
vn -0.0000 -0.8929 -0.4503
vn -0.0000 -0.5649 -0.8252
vn 0.0203 0.9998 -0.0000
vn 0.8134 0.5818 -0.0000
vn 0.9976 0.0686 -0.0000
vn 0.9977 0.0678 0.0011
vn 0.7974 0.6034 -0.0000
vn 0.9992 0.0394 -0.0000
vn 0.7941 0.5943 0.1273
vn 0.8125 0.5811 -0.0469
vn -0.0019 0.9867 0.1626
vn -0.0013 0.9869 0.1612
vn 0.9987 0.0326 -0.0403
vn 0.9923 0.1236 -0.0000
vn -0.0000 -0.6290 0.7774
vn -0.0000 -0.7223 0.6916
vn 0.9967 0.0677 -0.0454
vn 1.0000 -0.0000 -0.0000
vn -0.0000 -0.9951 0.0985
vn -0.0000 -0.9828 -0.1849
vn 0.9177 -0.0000 -0.3973
vn -0.3384 -0.0000 -0.9410
vn 0.5083 -0.0000 0.8612
vn 0.3384 -0.0000 0.9410
vn -0.2415 -0.9665 0.0868
vn -0.2415 0.9665 0.0868
vn 0.2521 -0.9615 -0.1091
vn 0.2696 0.9581 -0.0969
vn -0.1501 -0.0000 -0.9887
vn -0.0196 0.9638 -0.2659
vn -0.0054 0.7177 -0.6963
vn -0.9981 0.0619 -0.0044
vn -0.9974 0.0638 0.0322
vn -0.9920 0.1236 0.0262
vn -0.9969 0.0709 -0.0342
vn 0.0006 0.9868 0.1621
vn -0.0199 0.9826 0.1846
vn -0.0038 0.7743 0.6328
vn -0.0203 0.9998 -0.0000
vn -0.8134 0.5818 -0.0000
vn -0.9976 0.0393 0.0574
vn -0.9976 0.0686 -0.0000
vn -0.8129 0.5815 0.0320
vn -0.7974 0.6034 -0.0000
vn -0.9992 0.0394 -0.0000
vn -0.7941 0.5943 0.1273
vn -0.8125 0.5811 -0.0469
vn 0.0019 0.9867 0.1626
vn 0.0013 0.9869 0.1612
vn -0.9987 0.0326 -0.0403
vn -0.9945 0.1016 0.0248
vn -0.9967 0.0677 -0.0454
vn -1.0000 -0.0000 -0.0000
vn -0.9177 -0.0000 -0.3973
vn 0.3384 -0.0000 -0.9410
vn -0.5082 -0.0000 0.8612
vn -0.3384 -0.0000 0.9410
vn 0.2415 -0.9665 0.0868
vn 0.2415 0.9665 0.0868
vn -0.2696 -0.9581 -0.0969
vn -0.2696 0.9581 -0.0969
vn 0.1501 -0.0000 -0.9887
vn 0.0073 0.9707 -0.2403
vn -0.0000 0.7221 -0.6918
vn 0.9980 0.0638 -0.0000
vn -0.0000 0.9606 -0.2779
vn 0.9974 0.0638 0.0322
vn 0.9920 0.1236 0.0262
vn 0.9945 0.1026 0.0217
vn -0.0000 0.9870 0.1606
vn 0.0199 0.9826 0.1846
vn 0.0038 0.7743 0.6328
vn 0.9976 0.0393 0.0574
vn 0.8129 0.5815 0.0320
vn 0.8006 0.5991 -0.0000
vn -0.0013 0.9869 0.1614
vn -0.0006 0.9872 0.1592
vn 0.9946 0.1016 0.0214
vn 0.9945 0.1016 0.0248
vn 0.9963 0.0618 -0.0592
vn 0.5082 -0.0000 0.8612
vn 0.2696 -0.9581 -0.0969
vn 0.2521 0.9615 -0.1091
vn -0.0073 0.9707 -0.2403
vn -0.9980 0.0638 -0.0000
vn -0.9943 0.1022 -0.0296
vn -0.9956 0.0708 0.0605
vn -0.9945 0.1026 0.0217
vn -0.0049 0.9860 0.1665
vn 0.0015 0.7773 0.6291
vn -0.9977 0.0678 0.0011
vn -0.8006 0.5991 -0.0000
vn 0.0013 0.9869 0.1614
vn 0.0006 0.9872 0.1592
vn -0.9946 0.1016 0.0214
vn -0.9923 0.1236 -0.0000
vn -0.9963 0.0618 -0.0592
vn -0.2521 -0.9615 -0.1091
vn -0.2521 0.9615 -0.1091
vt 0.322404 0.753906
vt 0.286885 0.628906
vt 0.327869 0.628906
vt 0.606557 0.546875
vt 0.633880 0.585938
vt 0.606557 0.585938
vt 0.622951 0.488281
vt 0.737705 0.378906
vt 0.737705 0.500000
vt 0.879781 0.632812
vt 0.939891 0.820312
vt 0.885246 0.843750
vt 0.278689 0.683594
vt 0.521858 0.757812
vt 0.521858 0.683594
vt 0.754098 0.210938
vt 0.505464 0.343750
vt 0.502732 0.210938
vt 0.278689 0.757812
vt 0.521858 0.832031
vt 1.000000 0.675781
vt 1.000000 0.796875
vt 0.633880 0.546875
vt 0.647541 0.585938
vt 0.669399 0.503906
vt 0.699454 0.585938
vt 0.669399 0.585938
vt 0.647541 0.546875
vt 0.672131 0.585938
vt 0.469945 0.105469
vt 0.254098 0.148438
vt 0.254098 0.101562
vt 0.136612 0.714844
vt 0.062842 0.789062
vt 0.062842 0.617188
vt 0.000000 0.652344
vt 0.330601 0.625000
vt 0.278689 0.750000
vt 0.330601 0.750000
vt 0.486339 0.265625
vt 0.254098 0.160156
vt 0.494536 0.160156
vt 0.401639 0.625000
vt 0.401639 0.750000
vt 0.469945 0.757812
vt 0.538251 0.628906
vt 0.538251 0.757812
vt 0.363388 0.496094
vt 0.254098 0.355469
vt 0.404372 0.355469
vt 0.250000 0.500000
vt 0.375000 0.500000
vt 0.814208 0.128906
vt 0.494536 0.210938
vt 0.494536 0.128906
vt 0.653005 0.503906
vt 0.672131 0.582031
vt 0.653005 0.582031
vt 0.625683 0.503906
vt 0.625683 0.582031
vt 0.693989 1.000000
vt 0.491803 0.843750
vt 0.693989 0.843750
vt 0.748634 0.695312
vt 0.748634 0.843750
vt 0.838798 0.695312
vt 0.838798 0.863281
vt 0.401639 0.972656
vt 0.401639 0.843750
vt 0.295082 0.835938
vt 0.401639 0.589844
vt 0.265027 0.589844
vt 0.491803 0.589844
vt 0.748634 0.980469
vt 0.693989 0.593750
vt 0.538251 0.625000
vt 0.453552 0.750000
vt 0.532787 0.750000
vt 0.453552 0.625000
vt 0.193989 0.714844
vt 0.136612 0.804688
vt 0.622951 0.503906
vt 0.653005 0.585938
vt 0.622951 0.585938
vt 0.672131 0.503906
vt 0.691257 0.582031
vt 0.521858 0.621094
vt 0.633880 0.531250
vt 0.639344 0.519531
vt 0.606557 0.503906
vt 0.622951 0.546875
vt 0.644809 0.507812
vt 0.663934 0.519531
vt 0.639344 0.546875
vt 0.663934 0.546875
vt 0.254098 0.320312
vt 0.215847 0.355469
vt 0.215847 0.320312
vt 0.401639 0.203125
vt 0.448087 0.250000
vt 0.404372 0.234375
vt 0.327869 0.312500
vt 0.341530 0.351562
vt 0.327869 0.355469
vt 0.297814 0.324219
vt 0.295082 0.320312
vt 0.243169 0.355469
vt 0.243169 0.320312
vt 0.297814 0.320312
vt 0.297814 0.355469
vt 0.295082 0.355469
vt 0.322404 0.320312
vt 0.322404 0.355469
vt 0.448087 0.183594
vt 0.469945 0.242188
vt 1.000000 0.343750
vt 0.754098 0.347656
vt 0.937158 0.632812
vt 0.469945 0.628906
vt 0.254098 0.500000
vt 0.491803 1.000000
vt 0.193989 0.816406
vt 0.278689 0.621094
vt 0.655738 0.503906
vt 0.467213 0.191406
vt 0.281421 0.753906
vt 0.573770 0.378906
vt 0.286885 0.832031
vt 0.699454 0.503906
vt 0.672131 0.546875
vt 0.000000 0.773438
vt 0.278689 0.625000
vt 0.254098 0.269531
vt 0.814208 0.210938
vt 0.691257 0.503906
vt 0.341530 0.316406
vt 0.297814 0.343750
vt 1.002732 0.210938
s 0
usemtl Material
f 2/1/1 21/2/1 17/3/1
f 37/4/2 18/5/2 16/6/2
f 4/7/3 23/8/3 21/9/3
f 53/10/4 7/11/4 56/12/4
f 56/13/5 25/14/5 54/15/5
f 26/16/6 9/17/6 8/18/6
f 7/19/7 27/20/7 25/14/7
f 7/11/8 8/21/8 9/22/8
f 1/23/2 28/24/2 18/5/2
f 50/25/9 32/26/9 48/27/9
f 10/28/2 30/29/2 28/24/2
f 12/30/10 34/31/10 32/32/10
f 50/33/11 13/34/11 12/35/11
f 13/34/12 14/36/12 12/35/12
f 33/37/13 15/38/13 13/39/13
f 15/40/14 34/41/14 14/42/14
f 46/43/15 13/39/15 51/44/15
f 36/45/16 29/46/16 11/47/16
f 11/48/17 31/49/17 44/50/17
f 55/51/2 6/52/2 53/52/2
f 24/53/18 8/54/18 6/55/18
f 20/56/2 5/57/2 3/58/2
f 16/59/19 3/58/19 37/60/19
f 17/3/20 36/45/20 2/1/20
f 2/61/21 41/62/21 40/63/21
f 40/63/22 3/64/22 42/65/22
f 42/65/23 5/66/23 38/67/23
f 41/62/24 11/68/24 43/69/24
f 43/69/24 11/68/24 44/70/24
f 10/71/25 44/70/25 39/72/25
f 41/62/25 10/71/25 1/73/25
f 4/74/26 42/65/26 38/67/26
f 40/63/27 4/74/27 2/61/27
f 40/63/25 1/73/25 37/75/25
f 31/76/28 52/77/28 44/78/28
f 45/79/29 51/44/29 52/77/29
f 44/70/30 49/80/30 39/72/30
f 49/80/31 51/81/31 50/33/31
f 39/82/32 47/83/32 30/84/32
f 49/56/2 48/27/2 47/83/2
f 22/85/33 53/86/33 5/57/33
f 23/87/5 56/13/5 54/15/5
f 5/66/34 56/12/34 38/67/34
f 57/88/35 59/82/35 60/89/35
f 30/90/36 58/91/36 32/4/36
f 62/92/35 63/93/35 64/89/35
f 55/94/37 63/93/37 16/95/37
f 73/96/38 75/97/38 74/98/38
f 68/99/39 71/100/39 67/101/39
f 69/102/40 76/103/40 70/104/40
f 70/104/41 65/105/41 69/102/41
f 71/106/42 65/107/42 67/108/42
f 68/107/43 70/109/43 72/110/43
f 69/111/44 74/112/44 75/113/44
f 70/109/45 73/113/45 72/110/45
f 72/114/46 74/115/46 71/100/46
f 21/2/47 78/1/47 17/3/47
f 18/5/2 93/4/2 16/6/2
f 23/8/48 80/7/48 21/9/48
f 83/11/49 105/10/49 106/12/49
f 25/14/5 106/13/5 54/15/5
f 26/16/6 85/116/6 27/117/6
f 27/20/7 83/19/7 25/14/7
f 83/11/50 84/21/50 82/118/50
f 28/24/2 77/23/2 18/5/2
f 32/26/9 102/25/9 48/27/9
f 30/29/2 86/28/2 28/24/2
f 34/31/10 88/30/10 32/32/10
f 102/33/51 89/34/51 103/81/51
f 90/36/52 89/34/52 88/35/52
f 91/38/13 33/37/13 89/39/13
f 34/41/14 91/40/14 90/42/14
f 89/39/53 46/43/53 103/44/53
f 92/45/54 29/46/54 19/119/54
f 87/48/55 31/49/55 29/120/55
f 82/52/2 55/51/2 105/52/2
f 84/54/18 24/53/18 82/55/18
f 81/57/2 20/56/2 79/58/2
f 79/58/19 16/59/19 93/60/19
f 92/45/56 17/3/56 78/1/56
f 97/62/57 78/61/57 96/63/57
f 96/63/58 79/64/58 93/75/58
f 98/65/59 81/66/59 79/64/59
f 97/62/60 87/68/60 92/121/60
f 99/69/61 100/70/61 87/68/61
f 86/71/62 100/70/62 99/69/62
f 86/71/62 97/62/62 77/73/62
f 80/74/63 94/67/63 98/65/63
f 80/74/64 96/63/64 78/61/64
f 77/73/62 96/63/62 93/75/62
f 104/77/65 31/76/65 100/78/65
f 103/44/66 45/79/66 104/77/66
f 101/80/67 100/70/67 95/72/67
f 101/80/68 103/81/68 104/122/68
f 47/83/32 95/82/32 30/84/32
f 48/27/2 101/56/2 47/83/2
f 105/86/33 22/85/33 81/57/33
f 23/87/5 106/13/5 94/123/5
f 106/12/69 81/66/69 94/67/69
f 107/88/70 109/82/70 108/91/70
f 108/91/36 30/90/36 32/4/36
f 112/92/70 113/93/70 111/124/70
f 113/93/37 55/94/37 16/95/37
f 125/97/71 123/96/71 124/98/71
f 121/100/72 118/99/72 117/101/72
f 126/103/73 119/102/73 120/104/73
f 115/105/74 120/104/74 119/102/74
f 115/107/75 121/106/75 117/108/75
f 120/109/76 118/107/76 122/110/76
f 119/111/77 124/112/77 121/106/77
f 123/113/78 120/109/78 122/110/78
f 121/100/79 123/125/79 122/114/79
f 2/1/80 4/126/80 21/2/80
f 37/4/2 1/23/2 18/5/2
f 4/7/81 38/127/81 23/8/81
f 53/10/82 6/118/82 7/11/82
f 56/13/5 7/19/5 25/14/5
f 26/16/6 27/117/6 9/17/6
f 7/19/83 9/128/83 27/20/83
f 7/11/84 6/118/84 8/21/84
f 1/23/2 10/28/2 28/24/2
f 50/25/9 12/129/9 32/26/9
f 10/28/2 39/130/2 30/29/2
f 12/30/10 14/42/10 34/31/10
f 50/33/85 51/81/85 13/34/85
f 13/34/86 15/131/86 14/36/86
f 33/37/13 35/132/13 15/38/13
f 15/40/14 35/133/14 34/41/14
f 46/43/87 33/37/87 13/39/87
f 36/45/88 19/119/88 29/46/88
f 11/48/89 29/120/89 31/49/89
f 55/51/2 24/51/2 6/52/2
f 24/53/18 26/134/18 8/54/18
f 20/56/2 22/85/2 5/57/2
f 16/59/19 20/56/19 3/58/19
f 17/3/20 19/119/20 36/45/20
f 2/61/21 36/121/21 41/62/21
f 40/63/90 37/75/90 3/64/90
f 42/65/22 3/64/22 5/66/22
f 41/62/91 36/121/91 11/68/91
f 10/71/25 43/69/25 44/70/25
f 41/62/25 43/69/25 10/71/25
f 40/63/92 42/65/92 4/74/92
f 40/63/25 41/62/25 1/73/25
f 31/76/93 45/79/93 52/77/93
f 45/79/94 46/43/94 51/44/94
f 44/70/95 52/122/95 49/80/95
f 49/80/96 52/122/96 51/81/96
f 39/82/32 49/56/32 47/83/32
f 49/56/2 50/25/2 48/27/2
f 22/85/33 55/135/33 53/86/33
f 23/87/5 38/123/5 56/13/5
f 5/66/97 53/10/97 56/12/97
f 57/88/35 58/91/35 59/82/35
f 30/90/36 59/82/36 58/91/36
f 62/92/35 61/124/35 63/93/35
f 55/94/37 64/89/37 63/93/37
f 73/96/38 76/49/38 75/97/38
f 68/99/39 72/114/39 71/100/39
f 69/102/98 75/136/98 76/103/98
f 70/104/41 66/137/41 65/105/41
f 71/106/42 69/111/42 65/107/42
f 68/107/43 66/108/43 70/109/43
f 69/111/99 71/106/99 74/112/99
f 70/109/100 76/112/100 73/113/100
f 72/114/46 73/125/46 74/115/46
f 21/2/101 80/126/101 78/1/101
f 18/5/2 77/23/2 93/4/2
f 23/8/81 94/127/81 80/7/81
f 83/11/102 82/118/102 105/10/102
f 25/14/5 83/19/5 106/13/5
f 26/16/6 84/138/6 85/116/6
f 27/20/83 85/128/83 83/19/83
f 83/11/103 85/22/103 84/21/103
f 28/24/2 86/28/2 77/23/2
f 32/26/9 88/129/9 102/25/9
f 30/29/2 95/130/2 86/28/2
f 34/31/10 90/42/10 88/30/10
f 102/33/104 88/35/104 89/34/104
f 90/36/105 91/131/105 89/34/105
f 91/38/13 35/132/13 33/37/13
f 34/41/14 35/133/14 91/40/14
f 89/39/87 33/37/87 46/43/87
f 92/45/106 87/47/106 29/46/106
f 87/48/107 100/50/107 31/49/107
f 82/52/2 24/51/2 55/51/2
f 84/54/18 26/134/18 24/53/18
f 81/57/2 22/85/2 20/56/2
f 79/58/19 20/56/19 16/59/19
f 92/45/56 19/119/56 17/3/56
f 97/62/57 92/121/57 78/61/57
f 96/63/59 98/65/59 79/64/59
f 98/65/108 94/67/108 81/66/108
f 97/62/61 99/69/61 87/68/61
f 86/71/62 95/72/62 100/70/62
f 86/71/62 99/69/62 97/62/62
f 80/74/109 98/65/109 96/63/109
f 77/73/62 97/62/62 96/63/62
f 104/77/110 45/79/110 31/76/110
f 103/44/111 46/43/111 45/79/111
f 101/80/112 104/122/112 100/70/112
f 101/80/113 102/33/113 103/81/113
f 47/83/32 101/56/32 95/82/32
f 48/27/2 102/25/2 101/56/2
f 105/86/33 55/135/33 22/85/33
f 23/87/5 54/15/5 106/13/5
f 106/12/114 105/10/114 81/66/114
f 107/88/70 110/89/70 109/82/70
f 108/91/36 109/82/36 30/90/36
f 112/92/70 114/89/70 113/93/70
f 113/93/37 114/89/37 55/94/37
f 125/97/71 126/49/71 123/96/71
f 121/100/72 122/114/72 118/99/72
f 126/103/73 125/136/73 119/102/73
f 115/105/74 116/137/74 120/104/74
f 115/107/75 119/111/75 121/106/75
f 120/109/76 116/108/76 118/107/76
f 119/111/115 125/113/115 124/112/115
f 123/113/116 126/112/116 120/109/116
f 121/100/79 124/115/79 123/125/79
o Car02.Wheels.Fwd
v 0.826305 0.399932 1.427243
v 1.086195 0.399932 1.427243
v 0.826305 -0.001693 1.659121
v 1.086195 -0.001693 1.659121
v 0.826305 -0.001693 2.122877
v 1.086195 -0.001693 2.122877
v 0.826305 0.399932 2.354755
v 1.086195 0.399932 2.354755
v 0.826305 0.801557 2.122877
v 1.086195 0.801557 2.122877
v 0.826305 0.801557 1.659121
v 1.086195 0.801557 1.659121
v -0.826305 0.399932 1.427243
v -1.086195 0.399932 1.427243
v -0.826305 -0.001693 1.659121
v -1.086195 -0.001693 1.659121
v -0.826305 -0.001693 2.122877
v -1.086195 -0.001693 2.122877
v -0.826305 0.399932 2.354755
v -1.086195 0.399932 2.354755
v -0.826305 0.801557 2.122877
v -1.086195 0.801557 2.122877
v -0.826305 0.801557 1.659121
v -1.086195 0.801557 1.659121
vn -0.0000 -0.5000 -0.8660
vn -0.0000 -1.0000 -0.0000
vn -0.0000 -0.5000 0.8660
vn -0.0000 0.5000 0.8660
vn 1.0000 -0.0000 -0.0000
vn -0.0000 1.0000 -0.0000
vn -0.0000 0.5000 -0.8660
vn -1.0000 -0.0000 -0.0000
vt 0.450820 0.000000
vt 0.404372 0.074219
vt 0.404372 0.000000
vt 0.450820 0.074219
vt 0.163934 0.496094
vt 0.103825 0.656250
vt 0.103825 0.550781
vt 0.224044 0.656250
vt 0.163934 0.710938
vt 0.224044 0.550781
s 0
usemtl Material
f 128/139/117 129/140/117 127/141/117
f 130/142/118 131/141/118 129/140/118
f 132/142/119 133/141/119 131/140/119
f 134/142/120 135/141/120 133/140/120
f 128/143/121 132/144/121 130/145/121
f 136/139/122 137/140/122 135/141/122
f 138/139/123 127/140/123 137/141/123
f 127/143/124 131/146/124 133/147/124
f 134/147/121 138/148/121 136/146/121
f 135/144/124 127/143/124 133/147/124
f 141/140/117 140/139/117 139/141/117
f 143/141/118 142/142/118 141/140/118
f 145/141/119 144/142/119 143/140/119
f 147/141/120 146/142/120 145/140/120
f 144/144/124 140/143/124 142/145/124
f 149/140/122 148/139/122 147/141/122
f 139/140/123 150/139/123 149/141/123
f 139/143/121 143/146/121 141/148/121
f 150/148/124 146/147/124 148/146/124
f 139/143/121 147/144/121 145/147/121
f 128/139/117 130/142/117 129/140/117
f 130/142/118 132/139/118 131/141/118
f 132/142/119 134/139/119 133/141/119
f 134/142/120 136/139/120 135/141/120
f 128/143/121 134/147/121 132/144/121
f 136/139/122 138/142/122 137/140/122
f 138/139/123 128/142/123 127/140/123
f 127/143/124 129/148/124 131/146/124
f 134/147/121 128/143/121 138/148/121
f 135/144/124 137/145/124 127/143/124
f 141/140/117 142/142/117 140/139/117
f 143/141/118 144/139/118 142/142/118
f 145/141/119 146/139/119 144/142/119
f 147/141/120 148/139/120 146/142/120
f 144/144/124 146/147/124 140/143/124
f 149/140/122 150/142/122 148/139/122
f 139/140/123 140/142/123 150/139/123
f 139/143/121 145/147/121 143/146/121
f 150/148/124 140/143/124 146/147/124
f 139/143/121 149/145/121 147/144/121
o Car02.Wheels.Bwd
v 0.826305 0.399932 -2.128995
v 1.086195 0.399932 -2.128995
v 0.826305 -0.001693 -1.897117
v 1.086195 -0.001693 -1.897117
v 0.826305 -0.001693 -1.433361
v 1.086195 -0.001693 -1.433361
v 0.826305 0.399932 -1.201483
v 1.086195 0.399932 -1.201483
v 0.826305 0.801557 -1.433361
v 1.086195 0.801557 -1.433361
v 0.826305 0.801557 -1.897117
v 1.086195 0.801557 -1.897117
v -0.826305 0.399932 -2.128995
v -1.086195 0.399932 -2.128995
v -0.826305 -0.001693 -1.897117
v -1.086195 -0.001693 -1.897117
v -0.826305 -0.001693 -1.433361
v -1.086195 -0.001693 -1.433361
v -0.826305 0.399932 -1.201483
v -1.086195 0.399932 -1.201483
v -0.826305 0.801557 -1.433361
v -1.086195 0.801557 -1.433361
v -0.826305 0.801557 -1.897117
v -1.086195 0.801557 -1.897117
vn -0.0000 -0.5000 -0.8660
vn -0.0000 -1.0000 -0.0000
vn -0.0000 -0.5000 0.8660
vn -0.0000 0.5000 0.8660
vn 1.0000 -0.0000 -0.0000
vn -0.0000 1.0000 -0.0000
vn -0.0000 0.5000 -0.8660
vn -1.0000 -0.0000 -0.0000
vt 0.450820 0.000000
vt 0.404372 0.074219
vt 0.404372 0.000000
vt 0.450820 0.074219
vt 0.163934 0.496094
vt 0.103825 0.656250
vt 0.103825 0.550781
vt 0.224044 0.550781
vt 0.163934 0.710938
vt 0.224044 0.656250
s 0
usemtl Material
f 152/149/125 153/150/125 151/151/125
f 154/152/126 155/151/126 153/150/126
f 155/150/127 158/149/127 157/151/127
f 158/152/128 159/151/128 157/150/128
f 152/153/129 156/154/129 154/155/129
f 160/149/130 161/150/130 159/151/130
f 161/151/131 152/152/131 151/150/131
f 153/156/132 157/157/132 151/153/132
f 158/157/129 162/156/129 160/158/129
f 157/157/132 161/155/132 151/153/132
f 165/150/125 164/149/125 163/151/125
f 167/151/126 166/152/126 165/150/126
f 167/150/127 170/149/127 168/152/127
f 171/151/128 170/152/128 169/150/128
f 168/154/132 164/153/132 166/155/132
f 173/150/130 172/149/130 171/151/130
f 173/151/131 164/152/131 174/149/131
f 169/157/129 165/156/129 163/153/129
f 174/156/132 170/157/132 172/158/132
f 169/157/129 173/155/129 171/154/129
f 152/149/125 154/152/125 153/150/125
f 154/152/126 156/149/126 155/151/126
f 155/150/127 156/152/127 158/149/127
f 158/152/128 160/149/128 159/151/128
f 152/153/129 158/157/129 156/154/129
f 160/149/130 162/152/130 161/150/130
f 161/151/131 162/149/131 152/152/131
f 153/156/132 155/158/132 157/157/132
f 158/157/129 152/153/129 162/156/129
f 157/157/132 159/154/132 161/155/132
f 165/150/125 166/152/125 164/149/125
f 167/151/126 168/149/126 166/152/126
f 167/150/127 169/151/127 170/149/127
f 171/151/128 172/149/128 170/152/128
f 168/154/132 170/157/132 164/153/132
f 173/150/130 174/152/130 172/149/130
f 173/151/131 163/150/131 164/152/131
f 169/157/129 167/158/129 165/156/129
f 174/156/132 164/153/132 170/157/132
f 169/157/129 163/153/129 173/155/129
