# Blender 4.2.0
# www.blender.org
mtllib Shack01b.mtl
o Shack01
v 2.656250 3.906250 -1.328125
v 2.656250 3.750000 1.328125
v 2.656250 0.000000 1.328125
v -2.565773 0.000000 -1.237031
v -2.656250 3.750000 1.328125
v -2.656250 0.000000 1.328125
v 2.980313 3.931250 -1.753125
v 2.980313 3.725000 1.753125
v -2.980313 3.931250 -1.753125
v -2.980313 3.725000 1.753125
v 2.980313 4.009375 -1.753125
v 2.980313 3.803125 1.753125
v -2.980313 4.009375 -1.753125
v -2.980313 3.803125 1.753125
v 0.000000 3.750000 1.328125
v -2.656250 0.000000 -1.328125
v 2.656250 0.000000 -1.328125
v -2.565773 0.000000 1.237031
v -2.565773 3.742187 1.237031
v 2.565773 0.000000 1.237031
v 2.565773 3.742187 1.237031
v -2.565773 3.906250 -1.237031
v -2.656250 3.906250 -1.328125
v 2.565773 0.000000 -1.237031
v 2.565773 3.906250 -1.237031
v 2.490234 3.906250 -1.328125
v 2.490234 0.000000 -1.328125
v 2.490234 0.000000 -1.237031
v 2.490234 3.906250 -1.237031
v -2.490234 3.906250 -1.328125
v -2.490234 0.000000 -1.328125
v -2.490234 0.000000 -1.237031
v -2.490234 3.906250 -1.237031
v 0.000000 0.000000 1.237031
v 0.000000 0.000000 1.328125
v 0.000000 3.742187 1.237031
vn -1.0000 -0.0000 -0.0000
vn 1.0000 -0.0000 -0.0000
vn -0.0000 -0.9983 -0.0587
vn -0.0000 0.9983 0.0587
vn -0.0000 -0.0000 1.0000
vn -0.0000 -0.0000 -1.0000
vn -0.0000 -1.0000 -0.0000
vt 0.670833 0.975000
vt 1.000000 0.405000
vt 0.670833 0.405000
vt 0.000000 0.000000
vt 0.662500 0.400000
vt 0.000000 0.400000
vt 0.662500 -0.000000
vt 0.195833 0.400000
vt 0.183333 -0.000000
vt 0.195833 -0.000000
vt 0.216667 -0.000000
vt 0.204167 0.400000
vt 0.204167 -0.000000
vt 0.000000 0.015000
vt 0.666667 0.000000
vt 0.666667 0.015000
vt 1.000000 1.000000
vt 0.666667 0.400000
vt 1.000000 0.400000
vt 0.666667 1.000000
vt 0.666667 0.955000
vt 0.666667 0.405000
vt 0.652650 0.400282
vt 0.637523 0.404718
vt 0.651775 0.404718
vt 0.052134 0.400282
vt 0.070900 0.400282
vt 0.650000 0.400000
vt 0.983333 0.405000
vt 0.683333 0.955000
vt 0.983333 0.955000
vt 0.020833 1.000000
vt 0.020833 0.400000
vt 0.650000 1.000000
vt 0.666026 0.404718
vt 1.000000 0.995000
vt 0.183333 0.400000
vt 0.216667 0.400000
vt 1.000000 0.955000
vt 0.683333 0.405000
vt 0.000000 1.000000
s 0
usemtl Material
f 5/1/1 16/2/1 6/3/1
f 17/2/2 2/1/2 3/3/2
f 8/4/3 9/5/3 7/6/3
f 13/7/4 12/6/4 11/4/4
f 7/8/2 12/9/2 8/10/2
f 9/11/1 14/12/1 13/13/1
f 8/14/5 14/15/5 10/16/5
f 9/14/6 11/15/6 7/16/6
f 15/17/5 6/18/5 35/19/5
f 2/20/5 35/19/5 3/18/5
f 4/2/2 19/21/2 18/22/2
f 4/23/7 6/3/7 16/18/7
f 20/24/7 17/6/7 3/3/7
f 20/24/7 35/3/7 34/25/7
f 4/26/6 33/27/6 32/27/6
f 18/28/6 36/17/6 34/19/6
f 24/29/1 21/30/1 25/31/1
f 30/32/5 16/6/5 31/33/5
f 26/32/6 17/6/6 27/33/6
f 24/26/5 29/27/5 28/27/5
f 34/19/6 21/34/6 20/28/6
f 18/35/7 35/3/7 6/3/7
f 5/1/1 23/17/1 16/2/1
f 17/2/2 1/36/2 2/1/2
f 8/4/3 10/7/3 9/5/3
f 13/7/4 14/5/4 12/6/4
f 7/8/2 11/37/2 12/9/2
f 9/11/1 10/38/1 14/12/1
f 8/14/5 12/4/5 14/15/5
f 9/14/6 13/4/6 11/15/6
f 15/17/5 5/20/5 6/18/5
f 2/20/5 15/17/5 35/19/5
f 4/2/2 22/39/2 19/21/2
f 4/23/7 18/35/7 6/3/7
f 20/24/7 24/26/7 17/6/7
f 20/24/7 3/3/7 35/3/7
f 4/26/6 22/26/6 33/27/6
f 18/28/6 19/34/6 36/17/6
f 24/29/1 20/40/1 21/30/1
f 30/32/5 23/41/5 16/6/5
f 26/32/6 1/41/6 17/6/6
f 24/26/5 25/26/5 29/27/5
f 34/19/6 36/17/6 21/34/6
f 18/35/7 34/25/7 35/3/7
o Shack01b.DoorRht
v 0.000000 0.000000 -1.328125
v 0.000000 3.906250 -1.328125
v 0.000000 0.000000 -1.237031
v 0.000000 3.906250 -1.237031
v 2.490234 3.906250 -1.328125
v 2.490234 0.000000 -1.328125
v 2.490234 0.000000 -1.237031
v 2.490234 3.906250 -1.237031
vn -0.0000 -1.0000 -0.0000
vn -0.0000 1.0000 -0.0000
vn -0.0000 -0.0000 1.0000
vn -0.0000 -0.0000 -1.0000
vn -1.0000 -0.0000 -0.0000
vn 1.0000 -0.0000 -0.0000
vt 0.329167 0.955000
vt 0.029167 0.965000
vt 0.029167 0.955000
vt 0.329167 0.965000
vt 0.020833 0.400000
vt 0.333333 0.965000
vt 0.333333 0.400000
vt 0.020833 0.970000
vt -0.000000 0.400000
vt 0.016667 0.400000
vt 0.650000 0.970000
vt 0.666667 0.400000
vt 0.650000 0.400000
vt 0.020833 0.965000
vt 0.000000 0.970000
vt 0.666667 0.970000
s 0
usemtl Material
f 42/42/8 39/43/8 37/44/8
f 40/45/9 41/44/9 38/42/9
f 43/46/10 40/47/10 39/48/10
f 38/47/11 42/46/11 37/48/11
f 40/49/12 37/50/12 39/51/12
f 41/52/13 43/53/13 42/54/13
f 42/42/8 43/45/8 39/43/8
f 40/45/9 44/43/9 41/44/9
f 43/46/10 44/55/10 40/47/10
f 38/47/11 41/55/11 42/46/11
f 40/49/12 38/56/12 37/50/12
f 41/52/13 44/57/13 43/53/13
o Shack01b.DoorLft
v 0.000000 0.000000 -1.237032
v 0.000000 3.906250 -1.237032
v 0.000000 0.000000 -1.328126
v 0.000000 3.906250 -1.328126
v -2.490234 3.906250 -1.237031
v -2.490234 0.000000 -1.237031
v -2.490234 0.000000 -1.328125
v -2.490234 3.906250 -1.328125
vn -0.0000 -1.0000 -0.0000
vn -0.0000 1.0000 -0.0000
vn -0.0000 -0.0000 -1.0000
vn -0.0000 -0.0000 1.0000
vn 1.0000 -0.0000 -0.0000
vn -1.0000 -0.0000 -0.0000
vt 0.329167 0.955000
vt 0.029167 0.965000
vt 0.029167 0.955000
vt 0.329167 0.965000
vt 0.650000 0.400000
vt 0.333333 0.965000
vt 0.333333 0.400000
vt 0.020833 0.970000
vt -0.000000 0.400000
vt 0.016667 0.400000
vt 0.650000 0.970000
vt 0.666667 0.400000
vt 0.650000 0.965000
vt 0.000000 0.970000
vt 0.666667 0.970000
s 0
usemtl Material
f 50/58/14 47/59/14 45/60/14
f 48/61/15 49/60/15 46/58/15
f 51/62/16 48/63/16 47/64/16
f 46/63/17 50/62/17 45/64/17
f 48/65/18 45/66/18 47/67/18
f 49/68/19 51/69/19 50/62/19
f 50/58/14 51/61/14 47/59/14
f 48/61/15 52/59/15 49/60/15
f 51/62/16 52/70/16 48/63/16
f 46/63/17 49/70/17 50/62/17
f 48/65/18 46/71/18 45/66/18
f 49/68/19 52/72/19 51/69/19
