# Blender 4.2.0
# www.blender.org
mtllib Bottle04.mtl
o Bottle03
v 0.000000 0.064092 -0.093750
v -0.081190 0.064092 -0.046875
v -0.081190 0.064092 0.046875
v 0.000000 0.064092 0.093750
v 0.081190 0.064092 0.046875
v 0.081190 0.064092 -0.046875
v 0.000000 0.349342 -0.093750
v -0.081190 0.349342 -0.046875
v -0.081190 0.349342 0.046875
v 0.000000 0.349342 0.093750
v 0.081190 0.349342 0.046875
v 0.081190 0.349342 -0.046875
v 0.000000 0.407452 -0.060937
v -0.052773 0.407452 -0.030469
v -0.052773 0.407452 0.030469
v 0.000000 0.407452 0.060937
v 0.052773 0.407452 0.030469
v 0.052773 0.407452 -0.030469
v 0.000000 0.464878 -0.094453
v -0.081799 0.464878 -0.047227
v -0.081799 0.464878 0.047227
v 0.000000 0.464878 0.094453
v 0.081799 0.464878 0.047227
v 0.081799 0.464878 -0.047227
v 0.000000 0.508631 -0.094453
v -0.081799 0.508631 -0.047227
v -0.081799 0.508631 0.047227
v 0.000000 0.508631 0.094453
v 0.081799 0.508631 0.047227
v 0.081799 0.508631 -0.047227
v 0.000000 0.587934 -0.028548
v -0.024723 0.587934 -0.014274
v -0.024723 0.587934 0.014274
v 0.000000 0.587934 0.028548
v 0.024723 0.587934 0.014274
v 0.024723 0.587934 -0.014274
v 0.000000 0.625000 -0.028548
v -0.024723 0.625000 -0.014274
v -0.024723 0.625000 0.014274
v 0.000000 0.625000 0.028548
v 0.024723 0.625000 0.014274
v 0.024723 0.625000 -0.014274
v 0.000000 0.000396 -0.061893
v -0.053601 0.000396 -0.030947
v -0.053601 0.000396 0.030947
v 0.000000 0.000396 0.061893
v 0.053601 0.000396 0.030947
v 0.053601 0.000396 -0.030947
vn -0.5000 -0.0000 0.8660
vn -0.5000 -0.0000 -0.8660
vn 1.0000 -0.0000 -0.0000
vn -1.0000 -0.0000 -0.0000
vn 0.5000 -0.0000 -0.8660
vn 0.5000 -0.0000 0.8660
vn -0.4492 -0.4393 -0.7780
vn 0.8983 -0.4393 -0.0000
vn -0.8983 -0.4393 -0.0000
vn 0.4492 -0.4393 -0.7780
vn 0.4492 -0.4393 0.7780
vn -0.4492 -0.4393 0.7780
vn 0.8925 0.4511 -0.0000
vn -0.8925 0.4511 -0.0000
vn 0.4462 0.4511 -0.7729
vn 0.4462 0.4511 0.7729
vn -0.4462 0.4511 0.7729
vn -0.4462 0.4511 -0.7729
vn -0.8116 -0.5842 -0.0000
vn 0.4058 -0.5842 -0.7029
vn 0.4058 -0.5842 0.7029
vn -0.4058 -0.5842 0.7029
vn -0.4058 -0.5842 -0.7029
vn 0.8116 -0.5842 -0.0000
vn 0.4588 0.3975 -0.7947
vn 0.4588 0.3975 0.7947
vn -0.4588 0.3975 0.7947
vn -0.4588 0.3975 -0.7947
vn 0.9176 0.3975 -0.0000
vn -0.9176 0.3975 -0.0000
vn -0.0000 -1.0000 -0.0000
vn -0.0000 1.0000 -0.0000
vt 1.000000 0.117188
vt 0.859375 0.515625
vt 0.828125 0.117188
vt 0.312500 0.117188
vt 0.171875 0.500000
vt 0.171875 0.117188
vt 0.656250 0.117188
vt 0.500000 0.515625
vt 0.500000 0.117188
vt 0.000000 0.500000
vt 0.000000 0.117188
vt 0.484375 0.117188
vt 0.328125 0.500000
vt 0.671875 0.515625
vt 0.171875 0.515625
vt 0.312500 0.664062
vt 0.187500 0.664062
vt 0.578125 0.656250
vt 0.078125 0.664062
vt 0.000000 0.515625
vt 0.484375 0.515625
vt 0.328125 0.515625
vt 0.828125 0.656250
vt 0.687500 0.656250
vt 1.000000 0.515625
vt 0.515625 0.765625
vt 0.000000 0.765625
vt 0.312500 0.765625
vt 0.687500 0.765625
vt 1.000000 0.765625
vt 0.828125 0.765625
vt 0.187500 0.765625
vt 0.687500 0.835938
vt 0.828125 0.835938
vt 0.187500 0.835938
vt 0.515625 0.835938
vt 0.000000 0.835938
vt 0.312500 0.835938
vt 0.171875 0.929688
vt 0.296875 0.929688
vt 0.796875 0.929688
vt 0.718750 0.929688
vt 1.000000 0.835938
vt 0.203125 0.929688
vt 0.671875 0.929688
vt 0.859375 0.929688
vt 0.796875 0.992188
vt 0.203125 1.000000
vt 0.671875 0.992188
vt 0.171875 1.000000
vt 0.328125 0.929688
vt 0.296875 1.000000
vt 0.718750 0.992188
vt 0.437500 0.000000
vt 0.656250 0.109375
vt 0.828125 0.000000
vt 0.828125 0.109375
vt 0.953125 0.000000
vt 1.000000 0.109375
vt 0.312500 0.000000
vt 0.500000 0.109375
vt 0.671875 0.000000
vt 0.171875 0.000000
vt 0.171875 0.968750
vt 0.328125 0.968750
vt 0.234375 0.046875
vt 0.359375 0.085938
vt 0.328125 0.046875
vt 0.187500 0.085938
vt 0.484375 0.500000
vt 0.437500 0.664062
vt 0.921875 0.656250
vt 0.859375 0.992188
vt 0.328125 1.000000
vt 0.546875 0.000000
vt 0.046875 0.000000
s 0
usemtl Primary
f 6/1/1 7/2/1 1/3/1
f 4/4/2 11/5/2 5/6/2
f 2/7/3 9/8/3 3/9/3
f 5/6/4 12/10/4 6/11/4
f 3/12/5 10/13/5 4/4/5
f 1/3/6 8/14/6 2/7/6
f 11/15/7 16/16/7 17/17/7
f 8/14/8 15/18/8 9/8/8
f 11/15/9 18/19/9 12/20/9
f 9/21/10 16/16/10 10/22/10
f 8/14/11 13/23/11 14/24/11
f 12/25/12 13/23/12 7/2/12
f 14/24/13 21/26/13 15/18/13
f 17/17/14 24/27/14 18/19/14
f 16/16/15 21/26/15 22/28/15
f 13/23/16 20/29/16 14/24/16
f 13/23/17 24/30/17 19/31/17
f 16/16/18 23/32/18 17/17/18
f 19/31/6 26/33/6 20/29/6
f 24/30/1 25/34/1 19/31/1
f 22/28/2 29/35/2 23/32/2
f 20/29/3 27/36/3 21/26/3
f 23/32/4 30/37/4 24/27/4
f 21/26/5 28/38/5 22/28/5
f 29/35/19 36/39/19 30/37/19
f 27/36/20 34/40/20 28/38/20
f 26/33/21 31/41/21 32/42/21
f 30/43/22 31/41/22 25/34/22
f 29/35/23 34/40/23 35/44/23
f 26/33/24 33/45/24 27/36/24
f 36/46/1 37/47/1 31/41/1
f 34/40/2 41/48/2 35/44/2
f 32/42/3 39/49/3 33/45/3
f 35/44/4 42/50/4 36/39/4
f 33/51/5 40/52/5 34/40/5
f 31/41/6 38/53/6 32/42/6
f 4/4/25 45/54/25 3/12/25
f 2/55/26 43/56/26 1/57/26
f 1/57/27 48/58/27 6/59/27
f 5/6/28 46/60/28 4/4/28
f 3/61/29 44/62/29 2/55/29
f 6/11/30 47/63/30 5/6/30
f 37/64/31 39/52/31 38/48/31
f 40/65/31 42/48/31 41/52/31
f 48/66/32 46/67/32 47/68/32
f 45/68/32 43/69/32 44/66/32
f 6/1/1 12/25/1 7/2/1
f 4/4/2 10/13/2 11/5/2
f 2/7/3 8/14/3 9/8/3
f 5/6/4 11/5/4 12/10/4
f 3/12/5 9/70/5 10/13/5
f 1/3/6 7/2/6 8/14/6
f 11/15/7 10/22/7 16/16/7
f 8/14/8 14/24/8 15/18/8
f 11/15/9 17/17/9 18/19/9
f 9/21/10 15/71/10 16/16/10
f 8/14/11 7/2/11 13/23/11
f 12/25/12 18/72/12 13/23/12
f 14/24/13 20/29/13 21/26/13
f 17/17/14 23/32/14 24/27/14
f 16/16/15 15/71/15 21/26/15
f 13/23/16 19/31/16 20/29/16
f 13/23/17 18/72/17 24/30/17
f 16/16/18 22/28/18 23/32/18
f 19/31/6 25/34/6 26/33/6
f 24/30/1 30/43/1 25/34/1
f 22/28/2 28/38/2 29/35/2
f 20/29/3 26/33/3 27/36/3
f 23/32/4 29/35/4 30/37/4
f 21/26/5 27/36/5 28/38/5
f 29/35/19 35/44/19 36/39/19
f 27/36/20 33/51/20 34/40/20
f 26/33/21 25/34/21 31/41/21
f 30/43/22 36/46/22 31/41/22
f 29/35/23 28/38/23 34/40/23
f 26/33/24 32/42/24 33/45/24
f 36/46/1 42/73/1 37/47/1
f 34/40/2 40/52/2 41/48/2
f 32/42/3 38/53/3 39/49/3
f 35/44/4 41/48/4 42/50/4
f 33/51/5 39/74/5 40/52/5
f 31/41/6 37/47/6 38/53/6
f 4/4/25 46/60/25 45/54/25
f 2/55/26 44/62/26 43/56/26
f 1/57/27 43/56/27 48/58/27
f 5/6/28 47/63/28 46/60/28
f 3/61/29 45/75/29 44/62/29
f 6/11/30 48/76/30 47/63/30
f 37/64/31 40/65/31 39/52/31
f 40/65/31 37/64/31 42/48/31
f 48/66/32 43/69/32 46/67/32
f 45/68/32 46/67/32 43/69/32
