# Blender 4.2.0
# www.blender.org
mtllib Bottle01.mtl
o Bottle01
v -0.000000 0.000000 -0.072077
v -0.000000 0.092650 -0.072077
v 0.062421 0.000000 -0.036039
v 0.062421 0.092650 -0.036039
v 0.062421 0.000000 0.036039
v 0.062421 0.092650 0.036039
v -0.000000 0.000000 0.072077
v -0.000000 0.092650 0.072077
v -0.062421 0.000000 0.036039
v -0.062421 0.092650 0.036039
v -0.062421 0.000000 -0.036039
v -0.062421 0.092650 -0.036039
v -0.000000 0.146455 -0.061778
v 0.053501 0.146455 -0.030889
v 0.053501 0.146455 0.030889
v -0.000000 0.146455 0.061778
v -0.053501 0.146455 0.030889
v -0.053501 0.146455 -0.030889
v -0.000000 0.203425 -0.074820
v 0.064796 0.203425 -0.037410
v 0.064796 0.203425 0.037410
v -0.000000 0.203425 0.074820
v -0.064796 0.203425 0.037410
v -0.064796 0.203425 -0.037410
v -0.000000 0.306288 -0.074820
v 0.064796 0.306288 -0.037410
v 0.064796 0.306288 0.037410
v -0.000000 0.306288 0.074820
v -0.064796 0.306288 0.037410
v -0.064796 0.306288 -0.037410
v 0.000000 0.369589 -0.025685
v 0.022244 0.369589 -0.012843
v 0.022244 0.369589 0.012843
v 0.000000 0.369589 0.025685
v -0.022244 0.369589 0.012843
v -0.022244 0.369589 -0.012843
v 0.000000 0.404404 -0.025685
v 0.022244 0.404404 -0.012843
v 0.022244 0.404404 0.012843
v 0.000000 0.404404 0.025685
v -0.022244 0.404404 0.012843
v -0.022244 0.404404 -0.012843
vn 0.5000 -0.0000 -0.8660
vn 1.0000 -0.0000 -0.0000
vn 0.5000 -0.0000 0.8660
vn -0.5000 -0.0000 0.8660
vn 0.4933 0.1635 0.8544
vn -1.0000 -0.0000 -0.0000
vn -0.5000 -0.0000 -0.8660
vn -0.0000 -1.0000 -0.0000
vn 0.9809 -0.1945 -0.0000
vn -0.4933 0.1635 -0.8544
vn -0.4933 0.1635 0.8544
vn 0.9865 0.1635 -0.0000
vn -0.9865 0.1635 -0.0000
vn 0.4933 0.1635 -0.8544
vn -0.9809 -0.1945 -0.0000
vn 0.4905 -0.1945 0.8495
vn 0.4905 -0.1945 -0.8495
vn -0.4905 -0.1945 -0.8495
vn -0.4905 -0.1945 0.8495
vn -0.8299 0.5579 -0.0000
vn 0.4150 0.5579 0.7187
vn 0.4150 0.5579 -0.7187
vn -0.4150 0.5579 -0.7187
vn -0.4150 0.5579 0.7187
vn 0.8299 0.5579 -0.0000
vn -0.0000 1.0000 -0.0000
vt 2.047619 0.187500
vt 1.714286 0.000000
vt 2.047619 0.000000
vt 1.714286 0.187500
vt 1.333333 0.000000
vt 1.333333 0.187500
vt 1.000000 0.000000
vt 1.000000 0.187500
vt 0.666667 0.000000
vt 1.095238 0.296875
vt 0.666667 0.187500
vt 0.333333 0.000000
vt 0.333333 0.187500
vt 0.000000 0.000000
vt 0.619048 0.250000
vt 0.190476 0.171875
vt 0.761905 0.171875
vt 1.714286 0.296875
vt 1.333333 0.437500
vt 1.380952 0.296875
vt 0.047619 0.296875
vt 0.000000 0.187500
vt 0.666667 0.296875
vt 0.333333 0.296875
vt 2.047619 0.437500
vt 1.714286 0.750000
vt 1.714286 0.437500
vt 0.333333 0.437500
vt 1.000000 0.437500
vt 1.952381 0.296875
vt 0.000000 0.437500
vt 0.952381 0.296875
vt 0.666667 0.437500
vt 0.666667 0.750000
vt 0.380952 0.875000
vt 0.333333 0.750000
vt 0.000000 0.750000
vt 1.333333 0.750000
vt 1.000000 0.750000
vt 0.714286 0.921875
vt 0.571429 1.000000
vt 0.714286 1.000000
vt 0.238095 0.890625
vt 0.047619 0.812500
vt 0.952381 0.812500
vt 0.619048 0.875000
vt 0.333333 0.093750
vt 0.285714 0.921875
vt 0.428571 1.000000
vt 0.428571 0.921875
vt 0.571429 0.921875
vt 0.285714 1.000000
vt 0.571429 0.968750
vt 0.380952 0.968750
vt 0.666667 1.000000
vt 0.333333 0.250000
vt 2.047619 0.750000
vt 0.761905 0.890625
vt 0.619048 0.093750
s 0
usemtl Primary
f 2/1/1 3/2/1 1/3/1
f 4/4/2 5/5/2 3/2/2
f 6/6/3 7/7/3 5/5/3
f 8/8/4 9/9/4 7/7/4
f 6/6/5 16/10/5 8/8/5
f 10/11/6 11/12/6 9/9/6
f 12/13/7 1/14/7 11/12/7
f 3/15/8 7/16/8 1/17/8
f 14/18/9 21/19/9 15/20/9
f 12/13/10 13/21/10 2/22/10
f 8/8/11 17/23/11 10/11/11
f 6/6/12 14/18/12 15/20/12
f 10/11/13 18/24/13 12/13/13
f 2/1/14 14/18/14 4/4/14
f 19/25/1 26/26/1 20/27/1
f 17/23/15 24/28/15 18/24/15
f 16/10/16 21/19/16 22/29/16
f 13/30/17 20/27/17 14/18/17
f 18/24/18 19/31/18 13/21/18
f 16/32/19 23/33/19 17/23/19
f 29/34/20 36/35/20 30/36/20
f 24/28/7 25/37/7 19/31/7
f 22/29/4 29/34/4 23/33/4
f 20/27/2 27/38/2 21/19/2
f 23/33/6 30/36/6 24/28/6
f 21/19/3 28/39/3 22/29/3
f 31/40/7 42/41/7 37/42/7
f 27/36/21 34/43/21 28/44/21
f 25/45/22 32/46/22 26/34/22
f 30/36/23 31/43/23 25/44/23
f 28/45/24 35/46/24 29/34/24
f 26/34/25 33/35/25 27/36/25
f 9/47/8 1/17/8 7/16/8
f 34/48/4 41/49/4 35/50/4
f 32/50/2 39/41/2 33/51/2
f 35/50/6 42/41/6 36/51/6
f 33/51/3 40/42/3 34/40/3
f 32/50/1 37/52/1 38/49/1
f 37/52/26 39/53/26 38/54/26
f 40/55/26 42/54/26 41/53/26
f 2/1/1 4/4/1 3/2/1
f 4/4/2 6/6/2 5/5/2
f 6/6/3 8/8/3 7/7/3
f 8/8/4 10/11/4 9/9/4
f 6/6/5 15/20/5 16/10/5
f 10/11/6 12/13/6 11/12/6
f 12/13/7 2/22/7 1/14/7
f 3/15/8 5/56/8 7/16/8
f 14/18/9 20/27/9 21/19/9
f 12/13/10 18/24/10 13/21/10
f 8/8/11 16/32/11 17/23/11
f 6/6/12 4/4/12 14/18/12
f 10/11/13 17/23/13 18/24/13
f 2/1/14 13/30/14 14/18/14
f 19/25/1 25/57/1 26/26/1
f 17/23/15 23/33/15 24/28/15
f 16/10/16 15/20/16 21/19/16
f 13/30/17 19/25/17 20/27/17
f 18/24/18 24/28/18 19/31/18
f 16/32/19 22/29/19 23/33/19
f 29/34/20 35/46/20 36/35/20
f 24/28/7 30/36/7 25/37/7
f 22/29/4 28/39/4 29/34/4
f 20/27/2 26/26/2 27/38/2
f 23/33/6 29/34/6 30/36/6
f 21/19/3 27/38/3 28/39/3
f 31/40/7 36/51/7 42/41/7
f 27/36/21 33/35/21 34/43/21
f 25/45/22 31/58/22 32/46/22
f 30/36/23 36/35/23 31/43/23
f 28/45/24 34/58/24 35/46/24
f 26/34/25 32/46/25 33/35/25
f 9/47/8 11/59/8 1/17/8
f 34/48/4 40/52/4 41/49/4
f 32/50/2 38/49/2 39/41/2
f 35/50/6 41/49/6 42/41/6
f 33/51/3 39/41/3 40/42/3
f 32/50/1 31/48/1 37/52/1
f 37/52/26 40/55/26 39/53/26
f 40/55/26 37/52/26 42/54/26
