# Blender 4.2.0
# www.blender.org
mtllib Can01.mtl
o Can01
v 0.000000 0.000000 -0.070312
v 0.000000 0.349652 -0.070312
v 0.066871 0.000000 -0.021728
v 0.066871 0.349652 -0.021728
v 0.041329 0.000000 0.056884
v 0.041329 0.349652 0.056884
v -0.041329 0.000000 0.056884
v -0.041329 0.349652 0.056884
v -0.066871 0.000000 -0.021728
v -0.066871 0.349652 -0.021728
vn 0.5878 -0.0000 -0.8090
vn 0.9511 -0.0000 0.3090
vn -0.0000 -0.0000 1.0000
vn -0.0000 1.0000 -0.0000
vn -0.9511 -0.0000 0.3090
vn -0.5878 -0.0000 -0.8090
vn -0.0000 -1.0000 -0.0000
vt 0.000000 0.000000
vt 0.138889 1.000000
vt 0.000000 1.000000
vt 0.138889 0.000000
vt 0.277778 1.000000
vt 0.277778 0.000000
vt 0.416667 1.000000
vt 0.972222 0.916667
vt 0.666667 0.750000
vt 0.777778 0.500000
vt 0.416667 0.000000
vt 0.527778 1.000000
vt 0.527778 0.000000
vt 0.666667 1.000000
vt 0.888889 0.000000
vt 0.888889 0.500000
vt 0.694444 0.416667
vt 0.972222 0.583333
vt 0.777778 1.000000
vt 0.666667 0.000000
vt 0.694444 0.083333
vt 1.000000 0.250000
s 0
usemtl Primary
f 2/1/1 3/2/1 1/3/1
f 4/4/2 5/5/2 3/2/2
f 6/6/3 7/7/3 5/5/3
f 2/8/4 8/9/4 6/10/4
f 8/11/5 9/12/5 7/7/5
f 10/13/6 1/14/6 9/12/6
f 3/15/7 7/16/7 9/17/7
f 2/1/1 4/4/1 3/2/1
f 4/4/2 6/6/2 5/5/2
f 6/6/3 8/11/3 7/7/3
f 6/10/4 4/18/4 2/8/4
f 2/8/4 10/19/4 8/9/4
f 8/11/5 10/13/5 9/12/5
f 10/13/6 2/20/6 1/14/6
f 9/17/7 1/21/7 3/15/7
f 3/15/7 5/22/7 7/16/7
