# Blender 4.2.0
# www.blender.org
mtllib FoodPackage01.mtl
o FoodPackage01
v 0.075000 0.562500 -0.187500
v 0.075000 0.000000 -0.187500
v 0.075000 0.562500 0.187500
v 0.075000 0.000000 0.187500
v -0.075000 0.562500 -0.187500
v -0.075000 0.000000 -0.187500
v -0.075000 0.562500 0.187500
v -0.075000 0.000000 0.187500
vn -0.0000 1.0000 -0.0000
vn -0.0000 -0.0000 1.0000
vn -1.0000 -0.0000 -0.0000
vn -0.0000 -1.0000 -0.0000
vn 1.0000 -0.0000 -0.0000
vn -0.0000 -0.0000 -1.0000
vt 1.000000 0.083333
vt 0.734375 1.000000
vt 0.734375 0.083333
vt 0.718750 1.000000
vt 0.515625 0.000000
vt 0.718750 0.000000
vt 0.000000 1.000000
vt 0.000000 0.000000
vt 1.000000 1.000000
vt 0.515625 1.000000
s 0
usemtl Primary
f 5/1/1 3/2/1 1/3/1
f 3/4/2 8/5/2 4/6/2
f 7/7/3 6/5/3 8/8/3
f 2/1/4 8/2/4 6/3/4
f 1/7/5 4/5/5 2/8/5
f 5/4/6 2/5/6 6/6/6
f 5/1/1 7/9/1 3/2/1
f 3/4/2 7/10/2 8/5/2
f 7/7/3 5/10/3 6/5/3
f 2/1/4 4/9/4 8/2/4
f 1/7/5 3/10/5 4/5/5
f 5/4/6 1/10/6 2/5/6
