# Blender 4.2.0
# www.blender.org
mtllib SausagePack01B.mtl
o SausagePack01B
v 0.151966 -0.011280 -0.186912
v 0.177304 -0.011280 -0.212700
v 0.151966 -0.011280 0.187041
v 0.177304 -0.011280 0.212830
v -0.151966 -0.011280 -0.190846
v -0.177304 -0.011280 -0.212700
v -0.177304 -0.011280 0.212830
v 0.143953 0.012641 0.177182
v -0.143953 0.012641 0.177182
v -0.151966 -0.011280 0.194412
v 0.143953 0.012641 -0.171681
v -0.143953 0.012641 -0.177053
v 0.108547 -0.011280 0.194412
v 0.065128 -0.011280 0.191003
v 0.021709 -0.011280 0.194412
v -0.021709 -0.011280 0.190887
v -0.065128 -0.011280 0.194412
v -0.108547 -0.011280 0.187041
v -0.108547 -0.011280 -0.186912
v -0.065128 -0.011280 -0.192898
v -0.021709 -0.011280 -0.186912
v 0.021709 -0.011280 -0.191406
v 0.065128 -0.011280 -0.186912
v 0.108547 -0.011280 -0.192709
v 0.102824 0.013640 0.177182
v 0.061694 0.013952 0.171327
v 0.020565 0.007792 0.177182
v -0.020565 0.013640 0.171327
v -0.061694 0.007792 0.177182
v -0.102824 0.013952 0.171327
v -0.102824 0.013952 -0.171681
v -0.061694 0.007792 -0.177053
v -0.020565 0.013640 -0.171681
v 0.020565 0.007792 -0.177053
v 0.061694 0.013952 -0.171681
v 0.102824 0.013640 -0.177053
vn -0.9482 0.3176 -0.0000
vn -0.0000 -1.0000 -0.0000
vn 0.9482 0.3176 -0.0000
vn -0.0319 0.9995 -0.0000
vn 0.0967 0.4982 -0.8617
vn 0.0139 0.5708 0.8210
vn 0.1401 0.5474 0.8251
vn -0.1402 0.5461 0.8259
vn 0.0606 0.6631 0.7461
vn -0.0240 0.6179 0.7859
vn 0.0580 0.6711 0.7391
vn -0.1080 0.6021 0.7910
vn 0.1097 0.5597 -0.8214
vn -0.1139 0.5097 -0.8528
vn 0.0336 0.5198 -0.8536
vn -0.0827 0.5961 -0.7987
vn 0.0376 0.5199 -0.8534
vn -0.0046 0.6395 -0.7688
vn 0.0243 0.9997 -0.0000
vn 0.0076 1.0000 -0.0000
vn -0.1481 0.9890 -0.0000
vn 0.1408 0.9900 -0.0000
vn -0.1408 0.9900 -0.0000
vn 0.1481 0.9890 -0.0000
vn 0.0793 0.4779 -0.8748
vn 0.1519 0.4197 0.8949
vn 0.1055 0.5084 0.8547
vn -0.0051 0.6708 0.7416
vn 0.0244 0.6166 0.7869
vn -0.0603 0.6671 0.7425
vn 0.0197 0.6165 0.7871
vn -0.0650 0.5574 0.8277
vn 0.1214 0.5479 -0.8277
vn -0.1082 0.5029 -0.8575
vn 0.0822 0.6024 -0.7939
vn -0.0370 0.5224 -0.8519
vn 0.1067 0.6239 -0.7741
vn -0.1156 0.5324 -0.8386
vt 0.606250 0.523438
vt 0.981250 0.546875
vt 0.625000 0.554688
vt 1.000000 1.000000
vt 0.600000 0.500000
vt 1.000000 0.500000
vt 0.987500 0.960938
vt 0.631250 0.937500
vt 0.987500 0.937500
vt 0.981250 0.601562
vt 0.631250 0.609375
vt 0.606250 0.601562
vt 1.000000 0.882812
vt 0.987500 0.882812
vt 0.993750 0.601562
vt 1.000000 0.539062
vt 1.000000 0.656250
vt 0.993750 0.710938
vt 0.981250 0.656250
vt 0.987500 0.773438
vt 0.981250 0.710938
vt 1.000000 0.828125
vt 1.000000 0.773438
vt 0.981250 0.828125
vt 0.606250 0.882812
vt 0.606250 0.945312
vt 0.606250 0.828125
vt 0.631250 0.882812
vt 0.631250 0.773438
vt 0.637500 0.828125
vt 0.606250 0.718750
vt 0.618750 0.773438
vt 0.625000 0.664062
vt 0.631250 0.718750
vt 0.606250 0.656250
vt 0.987500 0.523438
vt 0.600000 1.000000
vt 0.618750 0.960938
vt 0.600000 0.546875
vt 1.000000 0.953125
s 0
usemtl Primary
f 5/1/1 9/2/1 12/3/1
f 2/4/2 7/5/2 6/6/2
f 3/7/3 11/8/3 8/9/3
f 12/3/4 30/10/4 31/11/4
f 19/12/5 12/3/5 31/11/5
f 13/13/6 8/9/6 25/14/6
f 18/15/7 9/2/7 10/16/7
f 17/17/8 30/10/8 18/15/8
f 16/18/9 29/19/9 17/17/9
f 16/18/10 27/20/10 28/21/10
f 14/22/11 27/20/11 15/23/11
f 14/22/12 25/14/12 26/24/12
f 24/25/13 11/8/13 1/26/13
f 23/27/14 36/28/14 24/25/14
f 23/27/15 34/29/15 35/30/15
f 21/31/16 34/29/16 22/32/16
f 21/31/17 32/33/17 33/34/17
f 20/35/18 31/11/18 32/33/18
f 11/8/19 25/14/19 8/9/19
f 36/28/20 26/24/20 25/14/20
f 34/29/21 26/24/21 35/30/21
f 34/29/22 28/21/22 27/20/22
f 32/33/23 28/21/23 33/34/23
f 32/33/24 30/10/24 29/19/24
f 5/1/1 10/36/1 9/2/1
f 2/4/2 4/37/2 7/5/2
f 3/7/3 1/38/3 11/8/3
f 12/3/4 9/2/4 30/10/4
f 19/12/25 5/39/25 12/3/25
f 13/13/26 3/40/26 8/9/26
f 18/15/27 30/10/27 9/2/27
f 17/17/28 29/19/28 30/10/28
f 16/18/29 28/21/29 29/19/29
f 16/18/30 15/23/30 27/20/30
f 14/22/31 26/24/31 27/20/31
f 14/22/32 13/13/32 25/14/32
f 24/25/33 36/28/33 11/8/33
f 23/27/34 35/30/34 36/28/34
f 23/27/35 22/32/35 34/29/35
f 21/31/36 33/34/36 34/29/36
f 21/31/37 20/35/37 32/33/37
f 20/35/38 19/12/38 31/11/38
f 11/8/19 36/28/19 25/14/19
f 36/28/20 35/30/20 26/24/20
f 34/29/21 27/20/21 26/24/21
f 34/29/22 33/34/22 28/21/22
f 32/33/23 29/19/23 28/21/23
f 32/33/24 31/11/24 30/10/24
