# Blender 4.2.0
# www.blender.org
mtllib BallisticVest01.mtl
o BallisticVest01
v -0.351562 0.000000 0.474609
v -0.351562 0.090363 0.474609
v -0.351562 0.090363 -0.474609
v 0.351562 0.000000 0.474609
v 0.351562 0.090363 0.474609
v 0.351562 0.090363 -0.474609
v -0.392694 0.045182 0.456583
v -0.392694 0.045182 -0.501142
v 0.392694 0.045182 -0.501142
v 0.392694 0.045182 0.456583
v -0.331944 0.000000 0.000000
v -0.331944 0.090363 0.000000
v 0.331944 0.000000 0.000000
v 0.331944 0.090363 0.000000
v 0.370780 0.045182 0.000000
v -0.370780 0.045182 0.000000
v 0.126760 0.000000 -0.474609
v 0.302601 0.000000 -0.224546
v -0.338004 0.045182 -0.224546
v 0.115313 0.045182 -0.501142
v 0.126760 0.090363 -0.474609
v 0.338004 0.045182 -0.224546
v -0.351562 0.000000 -0.474609
v 0.351562 0.000000 -0.474609
v -0.126760 0.000000 -0.474609
v -0.302601 0.000000 -0.224546
v -0.097659 0.045182 -0.200998
v 0.109106 0.001947 -0.224546
v 0.097659 0.045182 -0.200998
v -0.115313 0.045182 -0.501142
v -0.302601 0.090363 -0.224546
v 0.302601 0.090363 -0.224546
v -0.126760 0.090363 -0.474609
v -0.109107 0.090363 -0.224546
v -0.109107 0.001947 -0.224546
v 0.109106 0.090363 -0.224546
v -0.292617 0.090363 0.267068
v -0.279890 0.115373 0.248626
v -0.292617 0.090363 0.021181
v -0.279890 0.115373 0.039622
v -0.122924 0.090363 0.267068
v -0.135651 0.115373 0.248626
v -0.122924 0.090363 0.021181
v -0.135651 0.115373 0.039622
v 0.004991 0.090363 0.233349
v 0.017718 0.098491 0.214908
v 0.004991 0.090363 0.030470
v 0.017718 0.098491 0.048912
v 0.145483 0.090363 0.233349
v 0.132756 0.098491 0.214908
v 0.145483 0.090363 0.030470
v 0.132756 0.098491 0.048912
vn -0.7738 0.6146 0.1530
vn -0.0000 0.5064 -0.8623
vn 0.7578 0.6514 -0.0364
vn -0.0000 -0.3706 0.9288
vn -0.0000 -1.0000 -0.0000
vn -0.0000 1.0000 -0.0000
vn -0.0000 0.3706 0.9288
vn 0.7331 -0.6795 -0.0303
vn -0.0000 -0.5064 -0.8623
vn -0.7779 -0.6096 0.1523
vn -0.7331 -0.6795 -0.0303
vn 0.7830 -0.6135 -0.1023
vn 0.7537 0.6479 -0.1100
vn -0.7578 0.6514 -0.0364
vn 0.7738 0.6146 0.1530
vn 0.7779 -0.6096 0.1523
vn -0.7830 -0.6135 -0.1023
vn -0.7537 0.6479 -0.1100
vn 0.9575 -0.2810 -0.0654
vn 0.9594 0.2762 -0.0564
vn -0.9750 0.2112 -0.0688
vn -0.9724 -0.2263 -0.0572
vn -0.0000 -0.4622 -0.8868
vn -0.0000 0.4783 -0.8782
vn -0.8912 0.4535 -0.0000
vn -0.0000 0.5935 -0.8049
vn 0.8912 0.4535 -0.0000
vn -0.0000 0.5935 0.8049
vn -0.5382 0.8428 -0.0000
vn -0.0000 0.9151 -0.4033
vn 0.5382 0.8428 -0.0000
vn -0.0000 0.9151 0.4033
vn -0.0000 1.0000 -0.0078
vn -0.7779 0.6096 0.1523
vn 0.7331 0.6795 -0.0303
vn 0.7578 -0.6514 -0.0364
vn -0.7738 -0.6146 0.1530
vn -0.7578 -0.6514 -0.0364
vn 0.7537 -0.6479 -0.1100
vn 0.7830 0.6135 -0.1023
vn -0.7331 0.6795 -0.0303
vn 0.7779 0.6096 0.1523
vn 0.7738 -0.6146 0.1530
vn -0.7537 -0.6479 -0.1100
vn -0.7830 0.6135 -0.1023
vn 0.9724 -0.2263 -0.0572
vn 0.9750 0.2112 -0.0688
vn -0.9594 0.2762 -0.0564
vn -0.9575 -0.2810 -0.0654
vt 0.031250 0.828125
vt 0.062500 1.000000
vt 0.020833 1.000000
vt 0.979167 0.890625
vt 0.854167 0.937500
vt 0.864583 0.890625
vt 0.416667 0.500000
vt 0.468750 0.015625
vt 0.458333 0.500000
vt 1.000000 0.062500
vt 0.531250 0.109375
vt 0.500000 0.062500
vt 0.500000 0.484375
vt 1.000000 0.000000
vt 1.000000 0.484375
vt 0.041667 0.500000
vt 0.458333 0.015625
vt 0.531250 0.015625
vt 0.968750 0.015625
vt 0.531250 0.484375
vt 0.500000 0.015625
vt 0.531250 0.000000
vt 0.979167 0.968750
vt 1.000000 0.937500
vt 1.000000 0.718750
vt 0.968750 0.984375
vt 0.968750 0.718750
vt 1.000000 0.015625
vt 0.968750 0.484375
vt 0.968750 0.000000
vt 0.500000 0.718750
vt 0.541667 0.718750
vt 0.083333 0.828125
vt 0.395833 0.828125
vt 0.510417 0.718750
vt 0.427083 0.734375
vt 0.000000 0.093750
vt 0.062500 0.500000
vt 0.031250 0.500000
vt 0.395833 1.000000
vt 0.437500 1.000000
vt 0.531250 0.984375
vt 0.500000 0.984375
vt 1.000000 0.984375
vt 0.145833 1.000000
vt 0.187500 0.828125
vt 0.864583 0.968750
vt 0.322917 1.000000
vt 0.406250 1.000000
vt 0.531250 0.234375
vt 0.500000 0.531250
vt 0.500000 0.281250
vt 0.562500 0.281250
vt 0.531250 0.578125
vt 0.562500 0.531250
vt 0.687500 0.015625
vt 0.802083 0.062500
vt 0.697917 0.062500
vt 0.812500 0.109375
vt 0.062500 0.546875
vt 0.083333 0.234375
vt 0.062500 0.234375
vt 0.187500 0.281250
vt 0.062500 0.328125
vt 0.062500 0.281250
vt 0.062500 0.562500
vt 0.187500 0.234375
vt 0.187500 0.562500
vt 0.270833 0.562500
vt 0.260417 0.281250
vt 0.260417 0.562500
vt 0.343750 0.359375
vt 0.260417 0.312500
vt 0.343750 0.312500
vt 0.270833 0.281250
vt 0.260417 0.578125
vt 0.343750 0.281250
vt 0.343750 0.578125
vt 0.812500 0.328125
vt 0.677083 0.531250
vt 0.687500 0.328125
vt 0.427083 0.000000
vt 0.968750 0.109375
vt 0.500000 0.000000
vt 0.041667 0.015625
vt 0.385417 0.734375
vt 0.281250 0.828125
vt 0.812500 0.015625
vt 0.687500 0.109375
vt 0.083333 0.546875
vt 0.187500 0.328125
vt 0.260417 0.359375
vt 0.822917 0.531250
s 0
usemtl Material
f 19/1/1 3/2/1 8/3/1
f 6/4/2 20/5/2 21/6/2
f 14/7/3 10/8/3 15/9/3
f 10/10/4 2/11/4 7/12/4
f 13/13/5 1/14/5 11/15/5
f 12/16/6 5/17/6 14/9/6
f 10/10/7 1/18/7 4/19/7
f 13/20/8 10/21/8 4/22/8
f 24/23/9 20/5/9 9/24/9
f 19/25/10 23/26/10 26/27/10
f 7/28/11 11/29/11 1/30/11
f 22/31/12 13/20/12 18/32/12
f 31/33/6 14/9/6 32/34/6
f 18/35/5 11/15/5 26/25/5
f 22/36/13 14/7/13 15/9/13
f 7/37/14 12/38/14 16/39/14
f 6/40/15 22/36/15 9/41/15
f 24/42/16 22/31/16 18/32/16
f 11/29/17 19/25/17 26/27/17
f 12/38/18 19/1/18 16/39/18
f 24/43/5 26/25/5 23/44/5
f 3/4/2 30/5/2 8/24/2
f 33/45/6 31/33/6 34/46/6
f 23/23/9 30/5/9 25/47/9
f 21/48/6 32/34/6 6/49/6
f 30/50/19 35/51/19 25/52/19
f 33/53/20 27/54/20 30/50/20
f 21/53/21 29/54/21 36/55/21
f 20/50/22 28/51/22 29/54/22
f 34/56/23 29/57/23 27/58/23
f 28/59/24 27/58/24 29/57/24
f 37/60/25 40/61/25 39/62/25
f 39/63/26 44/64/26 43/65/26
f 44/61/27 41/60/27 43/62/27
f 42/62/28 37/63/28 41/65/28
f 40/66/6 42/67/6 44/68/6
f 46/69/29 47/70/29 45/71/29
f 48/72/30 51/73/30 47/74/30
f 52/75/31 49/71/31 51/70/31
f 50/70/32 45/74/32 49/73/32
f 48/76/6 50/77/6 52/78/6
f 28/79/33 25/80/33 35/81/33
f 19/1/34 31/33/34 3/2/34
f 6/4/2 9/24/2 20/5/2
f 14/7/35 5/82/35 10/8/35
f 10/10/4 5/83/4 2/11/4
f 13/13/5 4/84/5 1/14/5
f 12/16/6 2/85/6 5/17/6
f 10/10/7 7/12/7 1/18/7
f 13/20/36 15/13/36 10/21/36
f 24/23/9 17/47/9 20/5/9
f 19/25/37 8/44/37 23/26/37
f 7/28/38 16/15/38 11/29/38
f 22/31/39 15/13/39 13/20/39
f 31/33/6 12/16/6 14/9/6
f 18/35/5 13/13/5 11/15/5
f 22/36/40 32/86/40 14/7/40
f 7/37/41 2/85/41 12/38/41
f 6/40/42 32/86/42 22/36/42
f 24/42/43 9/43/43 22/31/43
f 11/29/44 16/15/44 19/25/44
f 12/38/45 31/33/45 19/1/45
f 24/43/5 18/35/5 26/25/5
f 3/4/2 33/6/2 30/5/2
f 33/45/6 3/2/6 31/33/6
f 23/23/9 8/24/9 30/5/9
f 21/48/6 36/87/6 32/34/6
f 30/50/46 27/54/46 35/51/46
f 33/53/47 34/55/47 27/54/47
f 21/53/48 20/50/48 29/54/48
f 20/50/49 17/52/49 28/51/49
f 34/56/23 36/88/23 29/57/23
f 28/59/24 35/89/24 27/58/24
f 37/60/25 38/90/25 40/61/25
f 39/63/26 40/91/26 44/64/26
f 44/61/27 42/90/27 41/60/27
f 42/62/28 38/67/28 37/63/28
f 40/66/6 38/62/6 42/67/6
f 46/69/29 48/75/29 47/70/29
f 48/72/30 52/92/30 51/73/30
f 52/75/31 50/69/31 49/71/31
f 50/70/32 46/77/32 45/74/32
f 48/76/6 46/70/6 50/77/6
f 28/79/33 17/93/33 25/80/33
