# Blender 4.2.0
# www.blender.org
mtllib RiotShield01.mtl
o RiotShield01
v -0.468750 -0.937500 0.011719
v -0.468750 0.937500 0.011719
v -0.468750 -0.937500 -0.011719
v -0.468750 0.937500 -0.011719
v 0.468750 -0.937500 0.011719
v 0.468750 0.937500 0.011719
v 0.468750 -0.937500 -0.011719
v 0.468750 0.937500 -0.011719
v 0.468750 0.421875 0.011719
v 0.468750 0.628125 -0.011719
v -0.156250 0.421875 0.014531
v -0.468750 0.421875 -0.011719
v -0.156250 0.937500 0.014531
v 0.156250 0.937500 0.014531
v 0.156250 0.937500 0.037969
v -0.156250 0.628125 0.014531
v 0.156250 0.628125 0.014531
v -0.156250 -0.937500 0.037969
v 0.156250 0.421875 0.037969
v -0.156250 0.421875 0.037969
v 0.156250 0.421875 0.014531
v 0.343750 0.421875 0.000000
v -0.343750 0.421875 0.000000
v 0.343750 0.628125 0.000000
v -0.343750 0.628125 0.000000
v 0.156250 0.421875 0.026250
v -0.156250 0.421875 0.026250
v -0.156250 0.937500 0.037969
v 0.156250 0.628125 0.037969
v -0.156250 0.628125 0.037969
v 0.156250 -0.937500 0.014531
v -0.156250 -0.937500 0.014531
v 0.156250 -0.937500 0.037969
v 0.156250 0.628125 0.026250
v -0.156250 0.628125 0.026250
v -0.343648 0.628125 -0.001210
v 0.343648 0.421875 -0.001210
v 0.343648 0.628125 -0.001210
v 0.468750 0.421875 -0.011719
v -0.468750 0.421875 0.011719
v -0.343648 0.421875 -0.001210
v -0.468750 0.628125 -0.011719
v 0.468750 0.628125 0.011719
v -0.468750 0.628125 0.011719
v 0.345603 0.628125 0.022063
v 0.345603 0.421875 0.022063
v -0.345603 0.628125 0.022063
v -0.345603 0.421875 0.022063
v -0.178750 0.165000 0.014531
v -0.178750 0.187500 0.014531
v -0.137955 0.165000 -0.053424
v -0.137955 0.187500 -0.053424
v -0.156250 0.165000 0.014531
v -0.156250 0.187500 0.014531
v -0.122045 0.165000 -0.037514
v -0.122045 0.187500 -0.037514
v 0.137955 0.165000 -0.053424
v 0.122045 0.187500 -0.037514
v 0.178750 0.165000 0.014531
v 0.178750 0.187500 0.014531
v 0.137955 0.187500 -0.053424
v 0.156250 0.165000 0.014531
v 0.156250 0.187500 0.014531
v 0.122045 0.165000 -0.037514
v -0.178750 -0.210000 0.014531
v -0.178750 -0.187500 0.014531
v -0.137955 -0.210000 -0.053424
v -0.137955 -0.187500 -0.053424
v -0.156250 -0.210000 0.014531
v -0.156250 -0.187500 0.014531
v -0.122045 -0.210000 -0.037514
v -0.122045 -0.187500 -0.037514
v 0.137955 -0.210000 -0.053424
v 0.122045 -0.187500 -0.037514
v 0.178750 -0.210000 0.014531
v 0.178750 -0.187500 0.014531
v 0.137955 -0.187500 -0.053424
v 0.156250 -0.210000 0.014531
v 0.156250 -0.187500 0.014531
v 0.122045 -0.210000 -0.037514
vn -1.0000 -0.0000 -0.0000
vn -0.0837 -0.0000 -0.9965
vn 1.0000 -0.0000 -0.0000
vn -0.0837 -0.0000 0.9965
vn -0.0000 -1.0000 -0.0000
vn -0.0000 1.0000 -0.0000
vn 0.0837 -0.0000 0.9965
vn 0.0837 -0.0000 -0.9965
vn -0.1386 -0.0000 0.9903
vn 0.1386 -0.0000 0.9903
vn -0.0000 -0.0000 1.0000
vn -0.0000 -0.0000 -1.0000
vn -0.9965 -0.0000 0.0837
vn 0.9965 -0.0000 0.0837
vn -0.8574 -0.0000 -0.5147
vn 0.8357 -0.0000 0.5492
vn 0.8574 -0.0000 -0.5147
vn -0.8357 -0.0000 0.5492
vt 0.312500 0.000000
vt 0.289062 0.250000
vt 0.289062 0.000000
vt 0.666667 1.000000
vt 0.500000 0.828125
vt 0.666667 0.828125
vt 0.312500 0.500000
vt 0.289062 0.750000
vt 0.289062 0.500000
vt 0.166667 1.000000
vt -0.000000 0.828125
vt 0.166667 0.828125
vt 0.145833 0.500000
vt 0.187500 0.750000
vt 0.145833 0.750000
vt 0.395833 0.500000
vt 0.437500 0.750000
vt 0.395833 0.750000
vt 0.166667 0.726562
vt -0.000000 0.000000
vt 0.166667 0.000000
vt 0.281250 0.500000
vt 0.187500 0.500000
vt 0.666667 0.726562
vt 0.500000 0.000000
vt 0.666667 0.000000
vt 0.281250 0.000000
vt 0.187500 0.250000
vt 0.187500 0.000000
vt 0.500000 0.726562
vt 0.335938 0.718750
vt 0.500000 0.718750
vt 0.000000 0.726562
vt 0.164062 0.718750
vt 0.164062 0.726562
vt 0.335938 0.835938
vt 0.335938 0.828125
vt 0.164062 0.835938
vt 0.000000 0.835938
vt 0.354167 0.500000
vt 0.312500 0.750000
vt 0.500000 1.000000
vt 0.333333 0.828125
vt 1.000000 1.000000
vt 0.833333 0.828125
vt 1.000000 0.828125
vt 1.000000 0.726562
vt 0.833333 0.000000
vt 1.000000 0.000000
vt 0.333333 0.000000
vt 0.104167 0.500000
vt 0.062500 0.750000
vt 0.062500 0.500000
vt 0.312500 0.726562
vt 0.437500 0.828125
vt 0.312500 0.828125
vt 0.070312 0.726562
vt 0.195312 0.828125
vt 0.070312 0.828125
vt 0.164062 0.828125
vt 0.354167 0.750000
vt 0.333333 1.000000
vt 0.833333 1.000000
vt 0.335938 0.726562
vt 0.833333 0.726562
vt 0.333333 0.726562
vt 0.104167 0.750000
vt 0.195312 0.726562
vt 0.065678 0.718750
vt 0.000000 0.718750
vt 0.064652 0.726562
vt 0.064652 0.828125
vt 0.434322 0.718750
vt 0.435348 0.828125
vt 0.435348 0.726562
vt 0.500000 0.664062
vt 0.414062 0.640625
vt 0.500000 0.632812
vt 0.406250 0.687500
vt 0.085938 0.664062
vt 0.414062 0.664062
vt 0.476562 0.718750
vt 0.398438 0.710938
vt 0.476562 0.609375
vt 0.484375 0.695312
vt 0.085938 0.640625
vt 0.093750 0.679688
vt 0.093750 0.617188
vt 0.406250 0.625000
vt 0.000000 0.664062
vt 0.000000 0.632812
vt 0.023438 0.718750
vt 0.093750 0.710938
vt 0.015625 0.609375
vt 0.015625 0.695312
vt 0.312500 0.250000
vt -0.000000 1.000000
vt 0.437500 0.500000
vt 0.281250 0.750000
vt 0.281250 0.250000
vt 0.500000 0.835938
vt 0.437500 0.726562
s 0
usemtl Material
f 2/1/1 42/2/1 44/3/1
f 14/4/2 10/5/2 17/6/2
f 8/7/3 43/8/3 10/9/3
f 28/10/4 44/11/4 30/12/4
f 31/13/5 5/14/5 33/15/5
f 13/16/6 2/17/6 28/18/6
f 20/19/4 1/20/4 18/21/4
f 39/22/3 5/14/3 7/23/3
f 21/24/2 7/25/2 31/26/2
f 40/27/1 3/28/1 1/29/1
f 40/30/6 11/31/6 12/32/6
f 9/33/6 21/34/6 19/35/6
f 44/5/5 16/36/5 30/37/5
f 43/11/5 17/38/5 10/39/5
f 14/40/6 6/41/6 8/7/6
f 6/42/7 29/43/7 43/5/7
f 4/44/8 16/45/8 42/46/8
f 12/47/8 32/48/8 3/49/8
f 9/30/7 33/50/7 5/25/7
f 32/51/5 1/52/5 3/53/5
f 35/54/9 23/55/9 27/56/9
f 24/57/10 26/58/10 22/59/10
f 29/60/5 16/36/5 17/38/5
f 13/16/6 15/61/6 14/40/6
f 15/62/11 30/12/11 29/43/11
f 13/63/12 17/6/12 16/45/12
f 19/35/6 11/31/6 20/64/6
f 11/65/12 31/26/12 32/48/12
f 19/66/11 18/21/11 33/50/11
f 31/13/5 18/67/5 32/51/5
f 34/68/11 27/56/11 26/58/11
f 37/69/2 10/70/2 39/70/2
f 9/11/7 45/71/7 46/72/7
f 12/32/8 36/73/8 41/73/8
f 45/71/13 37/72/13 46/72/13
f 48/74/14 36/75/14 47/75/14
f 48/74/4 44/30/4 40/5/4
f 50/76/15 51/77/15 49/78/15
f 56/79/6 61/80/6 52/81/6
f 56/79/16 53/82/16 55/83/16
f 51/77/5 53/84/5 49/78/5
f 52/81/6 54/85/6 56/79/6
f 52/81/12 57/86/12 51/77/12
f 55/83/11 58/87/11 56/79/11
f 51/77/5 64/88/5 55/89/5
f 57/86/17 60/90/17 59/91/17
f 62/92/18 58/87/18 64/93/18
f 57/86/5 62/94/5 64/88/5
f 63/95/6 61/80/6 58/87/6
f 66/76/15 67/77/15 65/78/15
f 72/79/6 77/80/6 68/81/6
f 72/79/16 69/82/16 71/83/16
f 67/77/5 69/84/5 65/78/5
f 68/81/6 70/85/6 72/79/6
f 68/81/12 73/86/12 67/77/12
f 67/77/5 80/88/5 71/89/5
f 73/86/17 76/90/17 75/91/17
f 78/92/18 74/87/18 80/93/18
f 73/86/5 78/94/5 80/88/5
f 79/95/6 77/80/6 74/87/6
f 2/1/1 4/96/1 42/2/1
f 14/4/2 8/42/2 10/5/2
f 8/7/3 6/41/3 43/8/3
f 28/10/4 2/97/4 44/11/4
f 31/13/5 7/23/5 5/14/5
f 13/16/6 4/98/6 2/17/6
f 20/19/4 40/33/4 1/20/4
f 39/22/3 9/99/3 5/14/3
f 21/24/2 39/30/2 7/25/2
f 40/27/1 12/100/1 3/28/1
f 40/30/6 20/64/6 11/31/6
f 9/33/6 39/70/6 21/34/6
f 44/5/5 42/101/5 16/36/5
f 43/11/5 29/60/5 17/38/5
f 14/40/6 15/61/6 6/41/6
f 6/42/7 15/62/7 29/43/7
f 4/44/8 13/63/8 16/45/8
f 12/47/8 11/65/8 32/48/8
f 9/30/7 19/66/7 33/50/7
f 32/51/5 18/67/5 1/52/5
f 35/54/9 25/102/9 23/55/9
f 24/57/10 34/68/10 26/58/10
f 29/60/5 30/37/5 16/36/5
f 13/16/6 28/18/6 15/61/6
f 15/62/11 28/10/11 30/12/11
f 13/63/12 14/4/12 17/6/12
f 19/35/6 21/34/6 11/31/6
f 11/65/12 21/24/12 31/26/12
f 19/66/11 20/19/11 18/21/11
f 31/13/5 33/15/5 18/67/5
f 34/68/11 35/54/11 27/56/11
f 37/69/2 38/69/2 10/70/2
f 9/11/7 43/33/7 45/71/7
f 12/32/8 42/32/8 36/73/8
f 45/71/13 38/71/13 37/72/13
f 48/74/14 41/74/14 36/75/14
f 48/74/4 47/75/4 44/30/4
f 50/76/15 52/81/15 51/77/15
f 56/79/6 58/87/6 61/80/6
f 56/79/16 54/85/16 53/82/16
f 51/77/5 55/89/5 53/84/5
f 52/81/6 50/76/6 54/85/6
f 52/81/12 61/80/12 57/86/12
f 55/83/11 64/93/11 58/87/11
f 51/77/5 57/86/5 64/88/5
f 57/86/17 61/80/17 60/90/17
f 62/92/18 63/95/18 58/87/18
f 57/86/5 59/91/5 62/94/5
f 63/95/6 60/90/6 61/80/6
f 66/76/15 68/81/15 67/77/15
f 72/79/6 74/87/6 77/80/6
f 72/79/16 70/85/16 69/82/16
f 67/77/5 71/89/5 69/84/5
f 68/81/6 66/76/6 70/85/6
f 68/81/12 77/80/12 73/86/12
f 67/77/5 73/86/5 80/88/5
f 73/86/17 77/80/17 76/90/17
f 78/92/18 79/95/18 74/87/18
f 73/86/5 75/91/5 78/94/5
f 79/95/6 76/90/6 77/80/6
