# Blender 4.2.0
# www.blender.org
mtllib Poster01.mtl
o Poster01
v -0.750000 0.000000 0.037500
v -0.750000 2.250000 0.037500
v -0.750000 0.000000 0.000000
v -0.750000 2.250000 0.000000
v 0.750000 0.000000 0.037500
v 0.750000 2.250000 0.037500
v 0.750000 0.000000 0.000000
v 0.750000 2.250000 0.000000
vn -1.0000 -0.0000 -0.0000
vn -0.0000 -0.0000 -1.0000
vn 1.0000 -0.0000 -0.0000
vn -0.0000 -0.0000 1.0000
vn -0.0000 -1.0000 -0.0000
vn -0.0000 1.0000 -0.0000
vt 1.000000 1.000000
vt 0.976190 0.000000
vt 1.000000 0.000000
vt 0.000000 0.000000
vt 0.050886 0.999968
vt 0.025491 0.000032
vt 0.050886 0.000032
vt 0.000000 0.015625
vt 1.000000 0.015625
vt 1.000000 0.984375
vt 0.000000 1.000000
vt 0.000000 0.984375
vt 0.976190 1.000000
vt 0.025491 0.999968
s 0
usemtl Primary
f 2/1/1 3/2/1 1/3/1
f 4/1/2 7/4/2 3/3/2
f 8/5/3 5/6/3 7/7/3
f 6/1/4 1/4/4 5/3/4
f 7/8/5 1/3/5 3/9/5
f 4/10/6 6/11/6 8/12/6
f 2/1/1 4/13/1 3/2/1
f 4/1/2 8/11/2 7/4/2
f 8/5/3 6/14/3 5/6/3
f 6/1/4 2/11/4 1/4/4
f 7/8/5 5/4/5 1/3/5
f 4/10/6 2/1/6 6/11/6
