# Blender 4.2.0
# www.blender.org
mtllib Lamp01.mtl
o Lamp01
v 0.000000 0.260817 0.473974
v -0.009949 0.308523 0.465520
v 0.000000 0.000000 0.000000
v 0.009949 0.308523 0.465520
v 0.009949 0.263868 0.000000
v 0.000000 0.000000 0.042487
v 0.009949 0.268054 0.077181
v 0.000000 0.454200 0.283798
v -0.090117 0.454200 0.335827
v -0.090117 0.454200 0.439886
v 0.000000 0.454200 0.491915
v 0.090117 0.454200 0.439886
v 0.090117 0.454200 0.335827
v 0.147383 0.763856 0.472948
v 0.147383 0.763856 0.302765
v 0.011055 0.297314 0.400484
v -0.011055 0.454200 0.378374
v -0.011055 0.297314 0.378374
v -0.011055 0.454200 0.400484
v -0.011055 0.297314 0.400484
v 0.011055 0.454200 0.400484
v 0.011055 0.297314 0.378374
v 0.011055 0.454200 0.378374
v 0.015634 0.325055 0.389429
v 0.015634 0.297314 0.389429
v 0.040272 0.454200 0.333523
v 0.055906 0.454200 0.349157
v 0.071539 0.454200 0.333523
v 0.055906 0.454200 0.317890
v 0.060034 0.375757 0.345029
v 0.044400 0.375757 0.329395
v 0.028766 0.375757 0.345029
v 0.044400 0.375757 0.360663
v -0.015634 0.297314 0.389429
v -0.000000 0.297314 0.373795
v -0.055906 0.454200 0.349157
v -0.015634 0.325055 0.389429
v -0.040272 0.454200 0.333523
v -0.000000 0.325055 0.373795
v -0.055906 0.454200 0.317890
v -0.071539 0.454200 0.333523
v -0.044400 0.375757 0.329395
v -0.060034 0.375757 0.345029
v -0.044400 0.375757 0.360663
v -0.028766 0.375757 0.345029
v -0.040272 0.454200 0.445334
v -0.055906 0.454200 0.429701
v -0.071539 0.454200 0.445334
v -0.055906 0.454200 0.460968
v -0.060034 0.375757 0.433829
v -0.044400 0.375757 0.449463
v -0.028766 0.375757 0.433829
v -0.044400 0.375757 0.418195
v 0.000000 0.297314 0.405063
v 0.000000 0.325055 0.405063
v 0.055906 0.454200 0.429701
v 0.040272 0.454200 0.445334
v 0.055906 0.454200 0.460968
v 0.071539 0.454200 0.445334
v 0.044400 0.375757 0.449463
v 0.060034 0.375757 0.433829
v 0.044400 0.375757 0.418195
v 0.028766 0.375757 0.433829
v -0.009949 0.263868 0.000000
v -0.009949 0.268054 0.077181
v 0.000000 0.763856 0.217674
v 0.000000 0.763856 0.558040
v -0.147383 0.763856 0.472948
v -0.147383 0.763856 0.302765
v 0.000000 0.931705 0.387857
vn -0.9993 -0.0377 -0.0000
vn 0.9989 -0.0402 0.0243
vn -0.0000 0.1745 0.9847
vn 0.9993 -0.0377 -0.0000
vn -0.9989 -0.0402 0.0243
vn 0.9833 -0.1819 -0.0000
vn -0.4917 -0.1818 0.8516
vn -0.4917 -0.1818 -0.8516
vn 0.4917 -0.1818 -0.8516
vn 0.4917 -0.1819 0.8516
vn -0.9833 -0.1819 -0.0000
vn 0.7514 0.6598 -0.0000
vn -0.3757 0.6598 0.6508
vn -0.3757 0.6598 -0.6508
vn 0.3757 0.6598 -0.6508
vn 0.3757 0.6598 0.6508
vn -0.7514 0.6598 -0.0000
vn -1.0000 -0.0000 -0.0000
vn -0.0000 -0.0000 -1.0000
vn 1.0000 -0.0000 -0.0000
vn -0.0000 -0.0000 1.0000
vn -0.0000 -1.0000 -0.0000
vn -0.7071 -0.0000 -0.7071
vn -0.6924 0.2031 0.6924
vn 0.6924 -0.2031 -0.6924
vn 0.7071 -0.0000 0.7071
vn -0.5515 0.6258 0.5515
vn 0.5520 -0.6249 -0.5520
vn -0.7071 -0.0000 0.7071
vn 0.6924 0.2031 0.6924
vn -0.6924 -0.2031 -0.6924
vn 0.7071 -0.0000 -0.7071
vn 0.5515 0.6258 0.5515
vn -0.5520 -0.6249 -0.5520
vn 0.6924 0.2031 -0.6924
vn -0.6924 -0.2031 0.6924
vn 0.5515 0.6258 -0.5515
vn -0.5520 -0.6249 0.5520
vn -0.6924 0.2031 -0.6924
vn 0.6924 -0.2031 0.6924
vn -0.5515 0.6258 -0.5515
vn 0.5520 -0.6249 0.5520
vn -0.0000 0.9985 -0.0541
vn -0.0000 0.9946 -0.1036
vn -0.9993 -0.0374 0.0020
vn 0.9795 -0.2006 0.0209
vn 0.9993 -0.0374 0.0020
vn -0.9795 -0.2006 0.0209
vn 0.9833 -0.1818 -0.0000
vn -0.4917 -0.1819 0.8516
vn -0.4917 -0.1819 -0.8516
vn 0.4917 -0.1818 0.8516
vt 0.937500 -0.000000
vt 1.000000 0.277778
vt 1.000000 -0.000000
vt 0.854167 0.277778
vt 0.208333 0.277778
vt 0.878049 0.257812
vt 0.916667 0.263889
vt 0.916667 0.277778
vt 0.208333 0.875000
vt 0.437500 0.513889
vt 0.291667 0.513889
vt 0.500000 0.875000
vt 0.208333 0.861111
vt 0.354167 0.986111
vt 0.520833 0.861111
vt 0.458333 0.458333
vt 0.229167 0.472222
vt 0.229167 0.458333
vt 0.458333 0.472222
vt 0.416667 0.513889
vt 0.208333 0.458333
vt 0.270833 0.513889
vt 0.458333 0.444444
vt 0.458333 0.513889
vt 0.437500 0.472222
vt 0.458333 0.361111
vt 0.437500 0.444444
vt 0.437500 0.361111
vt 0.291667 0.472222
vt 0.250000 0.361111
vt 0.291667 0.361111
vt 0.291667 0.444444
vt 0.250000 0.513889
vt 0.250000 0.444444
vt 0.229167 0.361111
vt 0.250000 0.472222
vt 0.395833 0.361111
vt 0.395833 0.472222
vt 0.229167 0.444444
vt 0.229167 0.513889
vt 0.395833 0.444444
vt 0.395833 0.513889
vt 0.937500 0.263889
vt 0.854167 0.263889
vt 0.500000 0.305556
vt 0.500000 0.291667
vt 0.208333 0.333333
vt 0.479167 0.458333
vt 0.937500 0.277778
s 0
usemtl Primary
f 6/1/1 64/2/1 3/3/1
f 7/4/2 1/5/2 6/1/2
f 1/6/3 4/7/3 2/8/3
f 5/2/4 6/1/4 3/3/4
f 1/5/5 65/4/5 6/1/5
f 15/9/6 12/10/6 13/11/6
f 11/10/7 68/9/7 10/11/7
f 69/12/8 8/11/8 9/10/8
f 8/10/9 15/9/9 13/11/9
f 14/12/10 11/11/10 12/10/10
f 68/9/11 9/10/11 10/11/11
f 15/13/12 70/14/12 14/15/12
f 68/15/13 67/13/13 70/14/13
f 66/15/14 69/13/14 70/14/14
f 66/15/15 70/14/15 15/13/15
f 14/15/16 70/14/16 67/13/16
f 69/13/17 68/15/17 70/14/17
f 19/16/18 18/17/18 20/18/18
f 17/16/19 22/17/19 18/18/19
f 23/19/20 16/18/20 22/17/20
f 21/19/21 20/18/21 16/17/21
f 12/20/22 8/21/22 13/22/22
f 8/21/22 10/20/22 9/22/22
f 26/23/23 31/10/23 32/24/23
f 33/25/24 26/26/24 32/19/24
f 29/27/25 30/24/25 31/10/25
f 30/19/26 27/28/26 33/25/26
f 39/29/27 33/30/27 32/31/27
f 31/32/23 39/11/23 32/32/23
f 25/33/28 31/32/28 30/34/28
f 30/35/26 24/36/26 25/17/26
f 36/37/29 43/25/29 44/38/29
f 38/37/30 44/25/30 45/38/30
f 41/27/31 42/24/31 43/10/31
f 42/10/32 38/23/32 45/24/32
f 37/29/33 45/30/33 44/31/33
f 43/31/29 37/29/29 44/31/29
f 42/34/34 34/11/34 43/32/34
f 42/39/32 39/33/32 35/40/32
f 46/37/26 51/25/26 52/38/26
f 47/41/35 52/10/35 53/42/35
f 49/28/36 50/19/36 51/25/36
f 50/10/23 47/23/23 53/24/23
f 55/11/37 53/34/37 52/32/37
f 51/35/26 55/29/26 52/31/26
f 34/36/38 51/35/38 50/30/38
f 50/39/23 37/33/23 34/40/23
f 56/23/32 61/10/32 62/24/32
f 63/10/39 56/23/39 62/24/39
f 61/25/40 58/26/40 60/19/40
f 60/25/29 57/26/29 63/19/29
f 24/11/41 63/34/41 62/32/41
f 61/32/32 24/11/32 62/32/32
f 54/36/42 61/31/42 60/30/42
f 60/35/29 55/36/29 54/17/29
f 5/43/43 65/4/43 7/44/43
f 7/44/44 2/45/44 4/46/44
f 6/1/45 65/4/45 64/2/45
f 7/4/46 4/47/46 1/5/46
f 5/2/47 7/4/47 6/1/47
f 1/5/48 2/47/48 65/4/48
f 15/9/49 14/12/49 12/10/49
f 11/10/50 67/12/50 68/9/50
f 69/12/51 66/9/51 8/11/51
f 8/10/9 66/12/9 15/9/9
f 14/12/52 67/9/52 11/11/52
f 68/9/11 69/12/11 9/10/11
f 19/16/18 17/19/18 18/17/18
f 17/16/19 23/19/19 22/17/19
f 23/19/20 21/16/20 16/18/20
f 21/19/21 19/16/21 20/18/21
f 12/20/22 11/48/22 8/21/22
f 8/21/22 11/48/22 10/20/22
f 26/23/23 29/27/23 31/10/23
f 33/25/24 27/28/24 26/26/24
f 29/27/25 28/23/25 30/24/25
f 30/19/26 28/26/26 27/28/26
f 39/29/27 24/36/27 33/30/27
f 31/32/23 35/11/23 39/11/23
f 25/33/28 35/11/28 31/32/28
f 30/35/26 33/30/26 24/36/26
f 36/37/29 41/28/29 43/25/29
f 38/37/30 36/28/30 44/25/30
f 41/27/31 40/23/31 42/24/31
f 42/10/32 40/27/32 38/23/32
f 37/29/33 39/36/33 45/30/33
f 43/31/29 34/29/29 37/29/29
f 42/34/34 35/33/34 34/11/34
f 42/39/32 45/34/32 39/33/32
f 46/37/26 49/28/26 51/25/26
f 47/41/35 46/27/35 52/10/35
f 49/28/36 48/26/36 50/19/36
f 50/10/23 48/27/23 47/23/23
f 55/11/37 37/33/37 53/34/37
f 51/35/26 54/17/26 55/29/26
f 34/36/38 54/17/38 51/35/38
f 50/39/23 53/34/23 37/33/23
f 56/23/32 59/27/32 61/10/32
f 63/10/39 57/27/39 56/23/39
f 61/25/40 59/28/40 58/26/40
f 60/25/29 58/28/29 57/26/29
f 24/11/41 55/33/41 63/34/41
f 61/32/32 25/11/32 24/11/32
f 54/36/42 25/29/42 61/31/42
f 60/35/29 63/30/29 55/36/29
f 5/43/43 64/49/43 65/4/43
f 7/44/44 65/4/44 2/45/44
