# Blender 4.2.0
# www.blender.org
mtllib OldLantern01b.mtl
o OldLantern01b
v 0.000000 3.734832 0.087500
v -0.000000 -0.350000 -0.249375
v 0.000000 0.615561 -0.124687
v 0.176335 -0.350000 -0.176335
v 0.088167 0.615561 -0.088167
v 0.249375 -0.350000 0.000000
v 0.124687 0.615561 -0.000000
v 0.176335 -0.350000 0.176335
v 0.088167 0.615561 0.088167
v -0.000000 -0.350000 0.249375
v 0.000000 0.615561 0.124687
v -0.176335 -0.350000 0.176335
v -0.088167 0.615561 0.088167
v -0.249375 -0.350000 0.000000
v -0.124687 0.615561 -0.000000
v -0.176335 -0.350000 -0.176335
v -0.088167 0.615561 -0.088167
v -0.000000 0.159944 -0.249375
v -0.000000 0.302387 -0.249375
v 0.176335 0.302387 -0.176335
v 0.176335 0.159944 -0.176335
v 0.249375 0.302387 0.000000
v 0.249375 0.159944 0.000000
v 0.176335 0.302387 0.176335
v 0.176335 0.159944 0.176335
v -0.000000 0.302387 0.249375
v -0.000000 0.159944 0.249375
v -0.176335 0.302387 0.176335
v -0.176335 0.159944 0.176335
v -0.249375 0.302387 0.000000
v -0.249375 0.159944 0.000000
v -0.176335 0.302387 -0.176335
v -0.176335 0.159944 -0.176335
v -0.000000 0.231166 -0.218152
v 0.154257 0.231166 -0.154257
v 0.218152 0.231166 -0.000000
v 0.154257 0.231166 0.154257
v -0.000000 0.231166 0.218152
v -0.154257 0.231166 0.154257
v -0.218152 0.231166 -0.000000
v -0.154257 0.231166 -0.154257
v 0.000000 1.490561 -0.124687
v 0.088167 1.490561 -0.088167
v 0.124688 1.490561 -0.000000
v 0.088167 1.490561 0.088167
v 0.000000 1.490561 0.124687
v -0.088167 1.490561 0.088167
v -0.124687 1.490561 -0.000000
v -0.088167 1.490561 -0.088167
v 0.000000 1.534311 -0.099750
v 0.070534 1.534311 -0.070534
v 0.099750 1.534311 -0.000000
v 0.070534 1.534311 0.070534
v 0.000000 1.534311 0.099750
v -0.070534 1.534311 0.070534
v -0.099750 1.534311 -0.000000
v -0.070534 1.534311 -0.070534
v 0.000000 1.691811 -0.099750
v 0.070534 1.691811 -0.070534
v 0.099750 1.691811 -0.000000
v 0.070534 1.691811 0.070534
v 0.000000 1.691811 0.099750
v -0.070534 1.691811 0.070534
v -0.099750 1.691811 -0.000000
v -0.070534 1.691811 -0.070534
v 0.000000 1.750000 -0.059850
v 0.042320 1.750000 -0.042320
v 0.059850 1.750000 -0.000000
v 0.042320 1.750000 0.042320
v 0.000000 1.750000 0.059850
v -0.042320 1.750000 0.042320
v -0.059850 1.750000 -0.000000
v -0.042320 1.750000 -0.042320
v 0.000000 1.750000 -0.055047
v 0.047672 1.750000 -0.027524
v 0.047672 1.750000 0.027524
v 0.000000 1.750000 0.055047
v -0.047672 1.750000 0.027524
v -0.019590 3.559832 0.011310
v -0.047672 1.750000 -0.027524
v 0.000000 4.057586 -0.164202
v 0.116109 3.734832 -0.116109
v 0.116109 4.057586 -0.116109
v 0.164203 4.057586 -0.000000
v 0.116109 3.734832 0.116109
v 0.116109 4.057586 0.116109
v 0.000000 3.734832 0.164202
v 0.000000 4.057586 0.164202
v -0.116108 3.734832 0.116109
v -0.116108 4.057586 0.116109
v -0.164202 4.057586 -0.000000
v -0.116108 3.734832 -0.116109
v -0.116108 4.057586 -0.116109
v 0.000000 3.826072 -0.218888
v 0.000000 3.957597 -0.218888
v 0.154777 3.957597 -0.154777
v 0.154777 3.826072 -0.154777
v 0.218888 3.957597 -0.000000
v 0.218888 3.826072 -0.000000
v 0.154777 3.957597 0.154777
v 0.154777 3.826072 0.154777
v 0.000000 3.957597 0.218888
v 0.000000 3.826072 0.218888
v -0.154777 3.957597 0.154777
v -0.154777 3.826072 0.154777
v -0.218888 3.957597 -0.000000
v -0.218888 3.826072 -0.000000
v -0.154777 3.957597 -0.154777
v -0.154777 3.826072 -0.154777
v 0.051159 3.711269 -0.029537
v 0.019590 3.559832 -0.011310
v 0.075777 3.734832 -0.043750
v 0.019590 3.559832 0.011310
v 0.075777 3.734832 0.043750
v 0.000000 3.559832 0.022620
v -0.075777 3.734832 0.043750
v -0.075777 3.734832 -0.043750
v 0.051159 3.711269 0.029537
v 0.000000 3.711269 0.059073
v -0.051159 3.711269 0.029537
v -0.051159 3.711269 -0.029537
v -0.019590 3.559832 -0.011310
v 0.000000 4.057586 -0.221673
v 0.156747 4.057586 -0.156747
v 0.221674 4.057586 -0.000000
v 0.156747 4.057586 0.156747
v 0.000000 4.057586 0.221673
v -0.156747 4.057586 0.156747
v -0.221673 4.057586 -0.000000
v -0.156747 4.057586 -0.156747
v 0.000000 4.136237 -0.121920
v 0.086211 4.136237 -0.086211
v 0.121921 4.136237 -0.000000
v 0.086211 4.136237 0.086211
v 0.000000 4.136237 0.121920
v -0.086210 4.136237 0.086211
v -0.121920 4.136237 -0.000000
v -0.086210 4.136237 -0.086211
v 0.000000 4.165987 -0.121920
v 0.086211 4.165987 -0.086211
v 0.121921 4.165987 -0.000000
v 0.086211 4.165987 0.086211
v 0.000000 4.165987 0.121920
v -0.086210 4.165987 0.086211
v -0.121920 4.165987 -0.000000
v -0.086210 4.165987 -0.086211
v 0.000000 4.193681 -0.048768
v 0.034485 4.193681 -0.034484
v 0.048768 4.193681 -0.000000
v 0.034485 4.193681 0.034484
v 0.000000 4.193681 0.048768
v -0.034484 4.193681 0.034484
v -0.048768 4.193681 -0.000000
v -0.034484 4.193681 -0.034484
v 0.000000 4.422988 0.000000
v 0.000000 3.734832 0.000000
v 0.000000 4.057586 0.000000
v -0.060622 4.258164 -0.035000
v -0.060622 4.258164 0.035000
v 0.000000 4.258164 0.070000
v 0.060622 4.258164 0.035000
v 0.060622 4.258164 -0.035000
v 0.000000 4.258164 -0.070000
v -0.060622 4.230164 -0.035000
v -0.060622 4.230164 0.035000
v 0.000000 4.230164 0.070000
v 0.060622 4.230164 0.035000
v 0.060622 4.230164 -0.035000
v 0.000000 4.230164 -0.070000
v 0.000000 4.244164 -0.087500
v 0.075777 4.244164 -0.043750
v 0.075777 4.244164 0.043750
v 0.000000 4.244164 0.087500
v -0.075777 4.244164 0.043750
v -0.075777 4.244164 -0.043750
v 0.000000 3.559832 0.099323
v 0.000000 3.711269 0.135776
v 0.022620 3.559832 -0.000000
v 0.087500 3.734832 -0.000000
v 0.059073 3.711269 -0.000000
v 0.099323 3.559832 -0.000000
v 0.164202 3.734832 -0.000000
v 0.135776 3.711269 -0.000000
v -0.000000 3.559832 -0.022620
v -0.000000 3.734831 -0.087500
v -0.000000 3.711268 -0.059073
v -0.000000 3.559832 -0.099323
v -0.000000 3.734831 -0.164202
v -0.000000 3.711268 -0.135776
v -0.022620 3.559831 0.000000
v -0.087500 3.734831 0.000000
v -0.059073 3.711268 0.000000
v -0.099323 3.559831 0.000000
v -0.164202 3.734831 0.000000
v -0.135776 3.711268 0.000000
vn 0.3592 0.3452 -0.8671
vn 0.8671 0.3452 -0.3592
vn 0.8671 0.3452 0.3592
vn 0.3592 0.3452 0.8671
vn -0.3592 0.3452 0.8671
vn -0.8671 0.3452 0.3592
vn 0.3827 -0.0000 0.9239
vn -0.8671 0.3452 -0.3592
vn -0.3592 0.3452 -0.8671
vn -0.3827 -0.0000 -0.9239
vn -0.3547 -0.3754 -0.8563
vn -0.9239 -0.0000 -0.3827
vn -0.8563 -0.3754 -0.3547
vn -0.9239 -0.0000 0.3827
vn -0.8563 -0.3754 0.3547
vn -0.3827 -0.0000 0.9239
vn -0.3547 -0.3754 0.8563
vn 0.3547 -0.3754 0.8563
vn 0.9239 -0.0000 0.3827
vn 0.8563 -0.3754 0.3547
vn 0.9239 -0.0000 -0.3827
vn 0.8563 -0.3754 -0.3547
vn 0.3827 -0.0000 -0.9239
vn 0.3547 -0.3754 -0.8563
vn 0.3547 0.3754 -0.8563
vn 0.8563 0.3754 -0.3547
vn 0.8563 0.3754 0.3547
vn 0.3547 0.3754 0.8563
vn -0.3547 0.3754 0.8563
vn -0.8563 0.3754 0.3547
vn -0.8563 0.3754 -0.3547
vn -0.3547 0.3754 -0.8563
vn -0.8175 0.4660 0.3386
vn 0.3386 0.4660 0.8175
vn 0.8175 0.4660 -0.3386
vn -0.8175 0.4660 -0.3386
vn -0.3386 0.4660 0.8175
vn 0.8175 0.4660 0.3386
vn 0.3386 0.4660 -0.8175
vn -0.3386 0.4660 -0.8175
vn -0.7805 0.5352 -0.3233
vn -0.0000 1.0000 -0.0000
vn -0.3233 0.5352 0.7805
vn 0.7805 0.5352 0.3233
vn 0.3233 0.5352 -0.7805
vn -0.3233 0.5352 -0.7805
vn -0.7805 0.5352 0.3233
vn 0.3233 0.5352 0.7805
vn 0.7805 0.5352 -0.3233
vn 0.4999 0.0155 -0.8659
vn 0.9999 0.0155 -0.0000
vn 0.4999 0.0155 0.8659
vn -0.4999 0.0155 0.8659
vn -0.9999 0.0155 -0.0000
vn -0.4999 0.0155 -0.8659
vn 0.3416 0.4510 -0.8246
vn 0.8246 0.4510 -0.3416
vn 0.8246 0.4510 0.3416
vn 0.3416 0.4510 0.8246
vn -0.3416 0.4510 0.8246
vn -0.8246 0.4510 0.3416
vn -0.8246 0.4510 -0.3416
vn -0.3416 0.4510 -0.8246
vn -0.3348 -0.4844 -0.8082
vn -0.8082 -0.4844 -0.3348
vn -0.8082 -0.4844 0.3348
vn -0.3348 -0.4844 0.8082
vn 0.3348 -0.4844 0.8082
vn 0.8082 -0.4844 0.3348
vn 0.8082 -0.4844 -0.3348
vn 0.3348 -0.4844 -0.8082
vn 0.9790 -0.2041 -0.0000
vn 0.3457 -0.7224 -0.5988
vn 0.4895 -0.2041 0.8478
vn 0.6914 -0.7224 -0.0000
vn -0.4895 -0.2041 0.8478
vn 0.3457 -0.7224 0.5988
vn -0.9790 -0.2041 -0.0000
vn -0.3457 -0.7224 0.5988
vn -0.4895 -0.2041 -0.8478
vn -0.6914 -0.7224 -0.0000
vn 0.4895 -0.2041 -0.8478
vn -0.3457 -0.7224 -0.5988
vn -0.0000 -1.0000 -0.0000
vn -0.5997 0.7607 -0.2484
vn -0.2484 0.7607 0.5997
vn 0.5997 0.7607 0.2484
vn 0.2484 0.7607 -0.5997
vn -0.2484 0.7607 -0.5997
vn -0.5997 0.7607 0.2484
vn 0.2484 0.7607 0.5997
vn 0.5997 0.7607 -0.2484
vn -0.3503 0.9253 -0.1451
vn 0.3755 0.1928 0.9065
vn -0.1451 0.9253 0.3503
vn 0.3503 0.9253 0.1451
vn 0.1451 0.9253 -0.3503
vn -0.1451 0.9253 -0.3503
vn -0.3503 0.9253 0.1451
vn 0.1451 0.9253 0.3503
vn 0.3503 0.9253 -0.1451
vn 0.9065 0.1928 -0.3755
vn -0.9065 0.1928 -0.3755
vn -0.3755 0.1928 0.9065
vn 0.9065 0.1928 0.3755
vn 0.3755 0.1928 -0.9065
vn -0.3755 0.1928 -0.9065
vn -0.9065 0.1928 0.3755
vn 0.3393 0.7346 0.5876
vn -0.6786 0.7345 -0.0000
vn 0.6786 0.7345 -0.0000
vn -0.3393 0.7346 0.5876
vn 0.3393 0.7346 -0.5876
vn -0.3393 0.7346 -0.5876
vn 0.3393 -0.7346 0.5876
vn -0.3393 -0.7346 -0.5876
vn 0.3393 -0.7346 -0.5876
vn -0.3393 -0.7346 0.5876
vn -0.6786 -0.7346 -0.0000
vn 0.6786 -0.7346 -0.0000
vn -1.0000 -0.0000 -0.0000
vn -0.0000 -0.0000 1.0000
vn 1.0000 -0.0000 -0.0000
vn -0.0000 -0.0000 -1.0000
vn -0.6785 0.7346 -0.0000
vn 0.6785 0.7346 -0.0000
vn -0.6785 -0.7346 -0.0000
vn 0.6785 -0.7346 -0.0000
vt 0.236842 0.171875
vt 0.105263 0.382812
vt 0.026316 0.203125
vt 0.368421 0.382812
vt 0.447368 0.203125
vt 0.236842 0.343750
vt 0.105263 0.843750
vt 0.105263 0.343750
vt 0.473684 0.093750
vt 0.000000 0.000000
vt 0.473684 0.000000
vt 0.223684 0.164062
vt 0.000000 0.132812
vt 0.223684 0.132812
vt 0.000000 0.093750
vt 0.473684 0.164062
vt 0.473684 0.132812
vt -0.000000 0.164062
vt 0.000000 0.101562
vt 0.223684 0.101562
vt 0.473684 0.101562
vt 0.184211 0.835938
vt 0.157895 0.859375
vt 0.144737 0.835938
vt 0.368421 0.843750
vt 0.236842 0.843750
vt 0.368421 0.343750
vt 0.144737 0.882812
vt 0.131579 0.851562
vt 0.144737 0.851562
vt 0.289474 0.835938
vt 0.236842 0.859375
vt 0.236842 0.835938
vt 0.355263 0.835938
vt 0.302632 0.859375
vt 0.328947 0.835938
vt 0.118421 0.835938
vt 0.144737 0.859375
vt 0.197368 0.859375
vt 0.276316 0.859375
vt 0.368421 0.835938
vt 0.328947 0.859375
vt 0.131579 0.859375
vt 0.105263 0.835938
vt 0.131579 0.835938
vt 0.342105 0.882812
vt 0.328947 0.851562
vt 0.342105 0.851562
vt 0.289474 0.882812
vt 0.289474 0.851562
vt 0.197368 0.882812
vt 0.276316 0.851562
vt 0.276316 0.882812
vt 0.184211 0.851562
vt 0.184211 0.882812
vt 0.328947 0.882812
vt 0.197368 0.851562
vt 0.184211 0.585938
vt 0.210526 0.539062
vt 0.289474 0.554688
vt 0.210526 0.859375
vt 0.342105 0.835938
vt 0.263158 0.859375
vt 0.171053 0.859375
vt 0.565789 1.000000
vt 0.486842 0.304688
vt 0.565789 0.304688
vt 0.486842 1.000000
vt 0.684211 0.148438
vt 0.789474 0.195312
vt 0.671053 0.195312
vt 0.697368 0.320313
vt 0.578947 0.273438
vt 0.671053 0.273438
vt 0.592105 0.195312
vt 0.789474 0.148438
vt 0.907895 0.195312
vt 0.881579 0.148438
vt 1.000000 0.203125
vt 0.010000 0.250000
vt 0.250000 0.010000
vt 0.490000 0.250000
vt 1.000000 0.265625
vt 0.881579 0.320313
vt 0.907895 0.273438
vt 0.789474 0.273438
vt 0.881579 0.320312
vt 0.789474 0.320312
vt 0.960526 0.148438
vt 0.947368 0.320312
vt 0.697368 0.320312
vt 0.592105 0.273438
vt 0.631579 0.320312
vt 0.618421 0.148438
vt 0.578947 0.195312
vt 0.565789 0.343750
vt 0.486842 0.500000
vt 0.565789 0.500000
vt 0.684211 0.140625
vt 0.723684 0.140625
vt 0.710526 0.148438
vt 0.486842 0.343750
vt 0.697368 0.125000
vt 0.750000 0.132812
vt 0.789474 0.101562
vt 0.789474 0.125000
vt 0.828947 0.132812
vt 0.855263 0.117188
vt 0.855263 0.140625
vt 0.894737 0.140625
vt 0.868421 0.148438
vt 0.855263 0.570312
vt 0.763158 0.617188
vt 0.868421 0.617188
vt 0.236842 0.437500
vt 0.105263 0.453125
vt 0.105263 0.437500
vt 0.657895 0.375000
vt 0.657895 0.320312
vt 0.907895 0.375000
vt 0.907895 0.320312
vt 0.789474 0.375000
vt 0.236842 0.382812
vt 0.105263 0.421875
vt 0.368421 0.453125
vt 0.368421 0.437500
vt 0.236842 0.421875
vt 0.368421 0.421875
vt 0.236842 0.453125
vt 0.342105 0.492188
vt 0.289474 0.492188
vt 0.263158 0.281250
vt 0.236842 0.492188
vt 0.184211 0.492188
vt 0.236842 0.281250
vt 0.250000 0.281250
vt 0.144737 0.492188
vt 0.223684 0.281250
vt 0.250000 0.359375
vt 0.210526 0.304688
vt 0.210526 0.335938
vt 0.236842 0.468750
vt 0.302632 0.398438
vt 0.236842 0.375000
vt 0.276316 0.468750
vt 0.250000 0.453125
vt 0.276316 0.343750
vt 0.210526 0.500000
vt 0.171053 0.445312
vt 0.171053 0.398438
vt 0.210526 0.476562
vt 0.210526 0.359375
vt 0.223684 0.367188
vt 0.210526 0.453125
vt 0.223684 0.445312
vt 0.302632 0.445312
vt 0.684211 0.562500
vt 0.763158 0.554688
vt 0.671053 0.664062
vt 0.657895 0.617188
vt 0.842105 0.671875
vt 0.763158 0.679688
vt 0.763158 0.609375
vt 0.684211 0.648438
vt 0.671053 0.609375
vt 0.828947 0.656250
vt 0.763158 0.664062
vt 0.842105 0.570312
vt 0.855263 0.609375
vt 0.697368 0.562500
vt 0.789474 0.117188
vt 0.855263 0.023438
vt 0.894737 0.117188
vt 0.789474 0.132812
vt 0.907895 0.132812
vt 0.131579 0.882812
vt 0.342105 0.859375
vt 0.289474 0.585938
vt 0.263158 0.601562
vt 0.210526 0.601562
vt 0.184211 0.554688
vt 0.263158 0.539062
vt 0.419706 0.419706
vt 0.250000 0.490000
vt 0.080294 0.419706
vt 0.080294 0.080294
vt 0.419706 0.080294
vt 0.723684 0.117188
vt 0.881579 0.125000
vt 0.789474 0.023438
s 0
usemtl Material
f 19/1/1 5/2/1 20/3/1
f 5/2/2 22/1/2 20/3/2
f 22/1/3 9/4/3 24/5/3
f 9/4/4 26/1/4 24/5/4
f 26/1/5 13/2/5 28/3/5
f 13/2/6 30/1/6 28/3/6
f 9/6/7 46/7/7 11/8/7
f 30/1/8 17/4/8 32/5/8
f 17/4/9 19/1/9 32/5/9
f 33/9/10 2/10/10 16/11/10
f 32/12/11 34/13/11 41/14/11
f 31/15/12 16/11/12 14/10/12
f 30/16/13 41/14/13 40/17/13
f 29/9/14 14/10/14 12/11/14
f 28/12/15 40/17/15 39/14/15
f 27/15/16 12/11/16 10/10/16
f 26/18/17 39/14/17 38/13/17
f 25/9/7 10/10/7 8/11/7
f 24/12/18 38/13/18 37/14/18
f 23/15/19 8/11/19 6/10/19
f 22/16/20 37/14/20 36/17/20
f 21/9/21 6/10/21 4/11/21
f 20/12/22 36/17/22 35/14/22
f 18/15/23 4/11/23 2/10/23
f 19/18/24 35/14/24 34/13/24
f 18/19/25 35/14/25 21/20/25
f 21/20/26 36/17/26 23/21/26
f 23/21/27 37/14/27 25/20/27
f 25/20/28 38/13/28 27/19/28
f 27/19/29 39/14/29 29/20/29
f 29/20/30 40/17/30 31/21/30
f 31/21/31 41/14/31 33/20/31
f 33/20/32 34/13/32 18/19/32
f 47/22/33 56/23/33 48/24/33
f 17/6/12 48/25/12 49/26/12
f 7/27/21 43/26/21 44/25/21
f 11/8/16 47/26/16 13/6/16
f 17/6/10 42/7/10 3/8/10
f 5/6/23 42/7/23 43/26/23
f 7/27/19 45/26/19 9/6/19
f 13/6/14 48/25/14 15/27/14
f 51/28/23 58/29/23 59/30/23
f 45/31/34 54/32/34 46/33/34
f 43/34/35 52/35/35 44/36/35
f 49/37/36 56/23/36 57/38/36
f 46/33/37 55/39/37 47/22/37
f 44/36/38 53/40/38 45/31/38
f 42/41/39 51/42/39 43/34/39
f 49/37/40 50/43/40 42/44/40
f 64/45/41 73/38/41 65/44/41
f 50/46/10 65/47/10 58/48/10
f 55/49/14 64/50/14 56/49/14
f 53/51/7 62/52/7 54/53/7
f 51/28/21 60/54/21 52/55/21
f 56/49/12 65/47/12 57/56/12
f 54/53/16 63/50/16 55/49/16
f 52/55/19 61/57/19 53/51/19
f 72/58/42 70/59/42 68/60/42
f 62/33/43 71/61/43 63/22/43
f 60/62/44 69/63/44 61/31/44
f 58/41/45 67/42/45 59/41/45
f 65/44/46 66/38/46 58/44/46
f 63/22/47 72/64/47 64/45/47
f 61/31/48 70/32/48 62/33/48
f 59/41/49 68/35/49 60/62/49
f 184/65/50 75/66/50 74/67/50
f 111/68/51 76/67/51 75/66/51
f 113/65/52 77/66/52 76/67/52
f 115/68/53 78/67/53 77/66/53
f 79/65/54 80/66/54 78/67/54
f 80/66/55 184/65/55 74/67/55
f 81/69/56 96/70/56 95/71/56
f 83/72/57 98/73/57 96/74/57
f 98/75/58 86/69/58 100/71/58
f 100/71/59 88/76/59 102/70/59
f 88/76/60 104/77/60 102/70/60
f 90/78/61 106/79/61 104/77/61
f 91/80/42 88/81/42 84/82/42
f 106/83/62 93/84/62 108/85/62
f 93/76/63 95/77/63 108/70/63
f 109/86/64 188/87/64 92/88/64
f 108/70/10 94/85/10 109/86/10
f 107/79/65 92/78/65 194/89/65
f 106/83/12 109/77/12 107/79/12
f 89/84/66 107/83/66 194/90/66
f 104/77/14 107/83/14 105/85/14
f 103/86/67 89/87/67 87/88/67
f 102/70/16 105/85/16 103/86/16
f 101/74/68 87/88/68 85/91/68
f 100/71/7 103/86/7 101/74/7
f 99/92/69 85/72/69 182/93/69
f 98/75/19 101/74/19 99/92/19
f 97/71/70 182/94/70 82/69/70
f 96/74/21 99/95/21 97/71/21
f 94/74/71 82/88/71 188/91/71
f 95/71/23 97/86/23 94/74/23
f 110/96/72 113/97/72 111/98/72
f 185/99/73 110/100/73 186/101/73
f 118/102/74 115/98/74 113/97/74
f 112/103/75 118/104/75 110/100/75
f 119/96/76 79/97/76 115/98/76
f 118/104/77 1/105/77 119/106/77
f 120/102/78 122/98/78 79/97/78
f 1/105/79 120/107/79 119/106/79
f 122/98/80 186/102/80 184/97/80
f 116/108/81 121/109/81 120/107/81
f 186/102/82 111/98/82 184/97/82
f 121/109/83 185/110/83 186/111/83
f 126/112/84 157/113/84 125/114/84
f 133/115/19 142/116/19 134/117/19
f 129/88/85 138/118/85 130/119/85
f 127/88/86 136/120/86 128/121/86
f 125/88/87 134/118/87 126/119/87
f 123/88/88 132/120/88 124/121/88
f 123/88/89 138/118/89 131/122/89
f 128/121/90 137/122/90 129/88/90
f 126/119/91 135/122/91 127/88/91
f 125/88/92 132/120/92 133/122/92
f 145/123/93 154/124/93 146/2/93
f 131/115/23 140/125/23 132/126/23
f 138/124/10 139/115/10 131/127/10
f 136/128/14 145/115/14 137/127/14
f 134/117/7 143/129/7 135/115/7
f 132/126/21 141/129/21 133/115/21
f 137/127/12 146/117/12 138/124/12
f 135/127/16 144/126/16 136/128/16
f 151/130/94 150/131/94 155/132/94
f 143/123/95 152/128/95 144/4/95
f 141/123/96 150/124/96 142/2/96
f 139/123/97 148/128/97 140/4/97
f 139/123/98 154/124/98 147/127/98
f 144/4/99 153/127/99 145/123/99
f 143/123/100 150/124/100 151/127/100
f 140/4/101 149/127/101 141/123/101
f 149/133/102 148/134/102 155/135/102
f 154/131/103 153/133/103 155/136/103
f 152/134/104 151/137/104 155/138/104
f 150/131/105 149/133/105 155/136/105
f 148/134/106 147/137/106 155/138/106
f 147/130/107 154/131/107 155/132/107
f 153/133/108 152/134/108 155/135/108
f 175/139/109 169/140/109 170/141/109
f 163/142/84 161/143/84 160/144/84
f 171/139/110 167/145/110 172/146/110
f 174/146/111 164/147/111 175/139/111
f 170/141/112 168/147/112 171/139/112
f 174/146/113 166/148/113 165/145/113
f 158/149/84 160/144/84 159/150/84
f 172/146/114 166/148/114 173/151/114
f 175/139/115 163/152/115 158/153/115
f 172/146/116 160/154/116 161/155/116
f 166/142/42 168/150/42 169/144/42
f 174/146/117 160/154/117 173/151/117
f 171/139/118 163/152/118 170/141/118
f 169/144/42 165/156/42 166/142/42
f 128/157/84 157/113/84 127/158/84
f 172/146/119 162/153/119 171/139/119
f 175/139/120 159/155/120 174/146/120
f 130/159/84 157/113/84 129/160/84
f 124/161/84 157/113/84 123/162/84
f 156/163/84 85/164/84 87/165/84
f 156/163/84 82/166/84 182/167/84
f 156/163/84 92/168/84 188/169/84
f 156/163/84 89/170/84 194/158/84
f 119/171/121 176/172/121 177/173/121
f 1/174/121 177/173/121 87/175/121
f 180/171/122 181/172/122 183/173/122
f 179/174/122 183/173/122 182/175/122
f 186/171/123 187/172/123 189/173/123
f 185/174/123 189/173/123 188/175/123
f 192/171/124 193/172/124 195/173/124
f 191/174/124 195/173/124 194/175/124
f 19/1/1 3/123/1 5/2/1
f 5/2/2 7/123/2 22/1/2
f 22/1/3 7/123/3 9/4/3
f 9/4/4 11/123/4 26/1/4
f 26/1/5 11/123/5 13/2/5
f 13/2/6 15/123/6 30/1/6
f 9/6/7 45/26/7 46/7/7
f 30/1/8 15/123/8 17/4/8
f 17/4/9 3/123/9 19/1/9
f 33/9/10 18/15/10 2/10/10
f 32/12/11 19/18/11 34/13/11
f 31/15/12 33/9/12 16/11/12
f 30/16/13 32/12/13 41/14/13
f 29/9/14 31/15/14 14/10/14
f 28/12/15 30/16/15 40/17/15
f 27/15/16 29/9/16 12/11/16
f 26/18/17 28/12/17 39/14/17
f 25/9/7 27/15/7 10/10/7
f 24/12/18 26/18/18 38/13/18
f 23/15/19 25/9/19 8/11/19
f 22/16/20 24/12/20 37/14/20
f 21/9/21 23/15/21 6/10/21
f 20/12/22 22/16/22 36/17/22
f 18/15/23 21/9/23 4/11/23
f 19/18/24 20/12/24 35/14/24
f 18/19/25 34/13/25 35/14/25
f 21/20/26 35/14/26 36/17/26
f 23/21/27 36/17/27 37/14/27
f 25/20/28 37/14/28 38/13/28
f 27/19/29 38/13/29 39/14/29
f 29/20/30 39/14/30 40/17/30
f 31/21/31 40/17/31 41/14/31
f 33/20/32 41/14/32 34/13/32
f 47/22/33 55/39/33 56/23/33
f 17/6/12 15/27/12 48/25/12
f 7/27/21 5/6/21 43/26/21
f 11/8/16 46/7/16 47/26/16
f 17/6/10 49/26/10 42/7/10
f 5/6/23 3/8/23 42/7/23
f 7/27/19 44/25/19 45/26/19
f 13/6/14 47/26/14 48/25/14
f 51/28/23 50/176/23 58/29/23
f 45/31/34 53/40/34 54/32/34
f 43/34/35 51/42/35 52/35/35
f 49/37/36 48/24/36 56/23/36
f 46/33/37 54/32/37 55/39/37
f 44/36/38 52/35/38 53/40/38
f 42/41/39 50/177/39 51/42/39
f 49/37/40 57/38/40 50/43/40
f 64/45/41 72/64/41 73/38/41
f 50/46/10 57/56/10 65/47/10
f 55/49/14 63/50/14 64/50/14
f 53/51/7 61/57/7 62/52/7
f 51/28/21 59/30/21 60/54/21
f 56/49/12 64/50/12 65/47/12
f 54/53/16 62/52/16 63/50/16
f 52/55/19 60/54/19 61/57/19
f 68/60/42 67/178/42 66/179/42
f 66/179/42 73/180/42 72/58/42
f 72/58/42 71/181/42 70/59/42
f 70/59/42 69/182/42 68/60/42
f 68/60/42 66/179/42 72/58/42
f 62/33/43 70/32/43 71/61/43
f 60/62/44 68/35/44 69/63/44
f 58/41/45 66/42/45 67/42/45
f 65/44/46 73/38/46 66/38/46
f 63/22/47 71/61/47 72/64/47
f 61/31/48 69/63/48 70/32/48
f 59/41/49 67/42/49 68/35/49
f 184/65/50 111/68/50 75/66/50
f 111/68/51 113/65/51 76/67/51
f 113/65/52 115/68/52 77/66/52
f 115/68/53 79/65/53 78/67/53
f 79/65/54 122/68/54 80/66/54
f 80/66/55 122/68/55 184/65/55
f 81/69/56 83/76/56 96/70/56
f 83/72/57 84/93/57 98/73/57
f 98/75/58 84/94/58 86/69/58
f 100/71/59 86/69/59 88/76/59
f 88/76/60 90/78/60 104/77/60
f 90/78/61 91/89/61 106/79/61
f 84/82/42 83/183/42 81/184/42
f 81/184/42 93/185/42 91/80/42
f 91/80/42 90/186/42 88/81/42
f 88/81/42 86/187/42 84/82/42
f 84/82/42 81/184/42 91/80/42
f 106/83/62 91/90/62 93/84/62
f 93/76/63 81/78/63 95/77/63
f 109/86/64 94/85/64 188/87/64
f 108/70/10 95/77/10 94/85/10
f 107/79/65 109/77/65 92/78/65
f 106/83/12 108/85/12 109/77/12
f 89/84/66 105/85/66 107/83/66
f 104/77/14 106/79/14 107/83/14
f 103/86/67 105/85/67 89/87/67
f 102/70/16 104/77/16 105/85/16
f 101/74/68 103/86/68 87/88/68
f 100/71/7 102/70/7 103/86/7
f 99/92/69 101/74/69 85/72/69
f 98/75/19 100/71/19 101/74/19
f 97/71/70 99/95/70 182/94/70
f 96/74/21 98/73/21 99/95/21
f 94/74/71 97/86/71 82/88/71
f 95/71/23 96/70/23 97/86/23
f 110/96/72 118/102/72 113/97/72
f 185/99/73 112/103/73 110/100/73
f 118/102/74 119/96/74 115/98/74
f 112/103/75 114/188/75 118/104/75
f 119/96/76 120/102/76 79/97/76
f 118/104/77 114/188/77 1/105/77
f 120/102/78 121/96/78 122/98/78
f 1/105/79 116/108/79 120/107/79
f 122/98/80 121/96/80 186/102/80
f 116/108/81 117/189/81 121/109/81
f 186/102/82 110/96/82 111/98/82
f 121/109/83 117/189/83 185/110/83
f 126/112/84 127/158/84 157/113/84
f 133/115/19 141/129/19 142/116/19
f 129/88/85 137/122/85 138/118/85
f 127/88/86 135/122/86 136/120/86
f 125/88/87 133/122/87 134/118/87
f 123/88/88 131/122/88 132/120/88
f 123/88/89 130/119/89 138/118/89
f 128/121/90 136/120/90 137/122/90
f 126/119/91 134/118/91 135/122/91
f 125/88/92 124/121/92 132/120/92
f 145/123/93 153/127/93 154/124/93
f 131/115/23 139/129/23 140/125/23
f 138/124/10 146/117/10 139/115/10
f 136/128/14 144/126/14 145/115/14
f 134/117/7 142/116/7 143/129/7
f 132/126/21 140/125/21 141/129/21
f 137/127/12 145/115/12 146/117/12
f 135/127/16 143/115/16 144/126/16
f 143/123/95 151/127/95 152/128/95
f 141/123/96 149/127/96 150/124/96
f 139/123/97 147/127/97 148/128/97
f 139/123/98 146/2/98 154/124/98
f 144/4/99 152/128/99 153/127/99
f 143/123/100 142/2/100 150/124/100
f 140/4/101 148/128/101 149/127/101
f 175/139/109 164/147/109 169/140/109
f 163/142/84 162/156/84 161/143/84
f 171/139/125 168/147/125 167/145/125
f 174/146/126 165/145/126 164/147/126
f 170/141/112 169/140/112 168/147/112
f 174/146/113 173/151/113 166/148/113
f 158/149/84 163/142/84 160/144/84
f 172/146/114 167/145/114 166/148/114
f 175/139/115 170/141/115 163/152/115
f 172/146/116 173/151/116 160/154/116
f 166/142/42 167/149/42 168/150/42
f 174/146/117 159/155/117 160/154/117
f 171/139/118 162/153/118 163/152/118
f 169/144/42 164/143/42 165/156/42
f 128/157/84 129/160/84 157/113/84
f 172/146/127 161/155/127 162/153/127
f 175/139/128 158/153/128 159/155/128
f 130/159/84 123/162/84 157/113/84
f 124/161/84 125/114/84 157/113/84
f 156/163/84 182/167/84 85/164/84
f 156/163/84 188/169/84 82/166/84
f 156/163/84 194/158/84 92/168/84
f 156/163/84 87/165/84 89/170/84
f 119/171/121 115/190/121 176/172/121
f 1/174/121 119/171/121 177/173/121
f 180/171/122 178/190/122 181/172/122
f 179/174/122 180/171/122 183/173/122
f 186/171/123 184/190/123 187/172/123
f 185/174/123 186/171/123 189/173/123
f 192/171/124 190/190/124 193/172/124
f 191/174/124 192/171/124 195/173/124
