# Blender 4.2.0
# www.blender.org
mtllib StoreVeggieShelf01.mtl
o StoreVeggieShelf01
v 1.250000 2.256756 -0.050000
v -1.250000 0.280875 -0.050000
v 1.250000 2.256756 0.050000
v 1.250000 0.000000 -0.050000
v -1.250000 2.256756 -0.050000
v -1.250000 0.000000 -0.050000
v -1.250000 2.256756 0.050000
v 1.250000 0.280875 -0.050000
v 1.250000 0.280875 -0.050000
v -1.250000 0.280875 0.050000
v 1.250000 0.280875 0.050000
v -1.250000 0.280875 -0.050000
v 1.250000 0.280875 0.465111
v 1.250000 0.000000 0.465111
v -1.250000 0.000000 0.465111
v -1.250000 0.280875 0.465111
v -1.250000 0.434558 0.605881
v -1.250000 0.836756 0.050000
v -1.250000 0.280875 0.465111
v -1.250000 0.280875 0.050000
v 1.250000 0.434558 0.605881
v 1.250000 0.280875 0.465111
v 1.250000 0.280875 0.050000
v -1.250000 1.144558 0.605881
v -1.250000 1.546756 0.050000
v -1.250000 0.990875 0.465111
v -1.250000 0.990875 0.050000
v 1.250000 1.144558 0.605881
v 1.250000 1.546756 0.050000
v 1.250000 0.990875 0.465111
v 1.250000 0.990875 0.050000
v -1.250000 1.854558 0.605881
v -1.250000 1.700875 0.465111
v -1.250000 1.700875 0.050000
v 1.250000 1.854558 0.605881
v 1.250000 1.700875 0.465111
v 1.250000 1.700875 0.050000
v 1.250000 0.836756 0.050000
v -1.250000 2.256756 0.050000
v 1.250000 2.256756 0.050000
v -1.250000 1.854558 0.605881
v -1.250000 2.256756 0.050000
v -1.250000 1.700875 0.465111
v -1.250000 1.700875 0.050000
vn -0.0000 1.0000 -0.0000
vn -0.0000 -0.0000 1.0000
vn -1.0000 -0.0000 -0.0000
vn 1.0000 -0.0000 -0.0000
vn -0.0000 0.8102 0.5862
vn -0.0000 -0.6754 0.7374
vn -0.0000 -1.0000 -0.0000
vt 0.496094 0.477273
vt -0.000000 0.522727
vt -0.000000 0.477273
vt 0.000000 0.000000
vt 0.492188 0.534091
vt 0.000000 0.534091
vt 0.140625 0.454545
vt 0.140625 0.534091
vt 0.121094 0.534091
vt 0.257812 0.454545
vt 0.121094 0.454545
vt 0.496094 0.454545
vt 0.000000 0.454545
vt 0.687500 0.454545
vt 0.746094 0.193182
vt 0.687500 0.181818
vt 0.691406 0.448864
vt 0.500000 0.698864
vt 0.000000 0.579545
vt 0.500000 0.579545
vt 0.496094 0.534091
vt 0.625000 0.250000
vt 0.375000 0.500000
vt 0.375000 0.250000
vt 1.000000 0.886364
vt 0.500000 0.767045
vt 1.000000 0.767045
vt 0.000000 0.698864
vt 0.496094 0.755682
vt 0.496094 0.698864
vt 0.500000 1.000000
vt 1.000000 1.000000
vt 0.000000 0.875000
vt 0.500000 0.926136
vt 0.500000 0.875000
vt 0.496094 0.522727
vt 0.492188 0.000000
vt 0.257812 0.534091
vt 0.812500 0.323864
vt 0.496094 0.579545
vt 0.625000 0.500000
vt 0.500000 0.886364
vt 0.000000 0.755682
vt 0.000000 0.926136
s 0
usemtl Primary
f 5/1/1 3/2/1 1/3/1
f 3/4/2 10/5/2 11/6/2
f 7/1/3 12/2/3 10/3/3
f 1/1/4 11/2/4 9/3/4
f 14/7/4 8/6/4 13/8/4
f 16/9/3 6/10/3 15/11/3
f 13/6/2 15/12/2 14/13/2
f 18/14/3 19/15/3 17/16/3
f 22/15/4 38/17/4 21/16/4
f 38/18/5 17/19/5 21/20/5
f 22/21/6 17/19/6 19/6/6
f 25/14/3 26/15/3 24/16/3
f 27/22/7 30/23/7 26/24/7
f 30/15/4 29/14/4 28/16/4
f 29/25/5 24/26/5 28/27/5
f 30/28/6 24/29/6 26/30/6
f 34/22/7 36/23/7 33/24/7
f 36/15/4 40/14/4 35/16/4
f 40/25/5 32/31/5 35/32/5
f 36/33/6 32/34/6 33/35/6
f 42/14/3 43/15/3 41/16/3
f 5/1/1 7/36/1 3/2/1
f 3/4/2 7/37/2 10/5/2
f 7/1/3 5/36/3 12/2/3
f 1/1/4 3/36/4 11/2/4
f 14/7/4 4/13/4 8/6/4
f 16/9/3 2/38/3 6/10/3
f 13/6/2 16/21/2 15/12/2
f 18/14/3 20/39/3 19/15/3
f 22/15/4 23/39/4 38/17/4
f 38/18/5 18/28/5 17/19/5
f 22/21/6 21/40/6 17/19/6
f 25/14/3 27/39/3 26/15/3
f 27/22/7 31/41/7 30/23/7
f 30/15/4 31/39/4 29/14/4
f 29/25/5 25/42/5 24/26/5
f 30/28/6 28/43/6 24/29/6
f 34/22/7 37/41/7 36/23/7
f 36/15/4 37/39/4 40/14/4
f 40/25/5 39/42/5 32/31/5
f 36/33/6 35/44/6 32/34/6
f 42/14/3 44/39/3 43/15/3
