# Blender 4.2.0
# www.blender.org
mtllib StoreFreezer01.mtl
o StoreFreezer01
v -1.500000 1.320000 0.600000
v -1.500000 0.000000 -0.600000
v -1.500000 1.320000 -0.600000
v 1.500000 1.320000 0.600000
v 1.500000 0.000000 -0.600000
v 1.500000 1.320000 -0.600000
v -1.500000 0.600000 0.600000
v -1.500000 0.600000 -0.600000
v 1.500000 0.600000 -0.600000
v 1.500000 0.600000 0.600000
v 1.500000 0.600000 0.480000
v 1.500000 0.000000 0.480000
v -1.500000 0.000000 0.480000
v -1.500000 0.600000 0.480000
v -1.500000 1.320000 -0.526964
v -1.500000 1.459012 -0.526964
v -1.500000 1.320000 -0.600000
v -1.500000 1.459012 -0.600000
v 1.500000 1.320000 -0.526964
v 1.500000 1.459012 -0.526964
v 1.500000 1.320000 -0.600000
v 1.500000 1.459012 -0.600000
vn -1.0000 -0.0000 -0.0000
vn -0.0000 -0.0000 -1.0000
vn 1.0000 -0.0000 -0.0000
vn -0.0000 -0.0000 1.0000
vn -0.0000 1.0000 -0.0000
vn -0.0000 -1.0000 -0.0000
vt 0.281250 0.696429
vt 0.070312 0.428571
vt 0.281250 0.428571
vt 0.875000 0.687500
vt 0.000000 0.535714
vt 0.875000 0.535714
vt 1.000000 0.696429
vt 0.781250 0.428571
vt 1.000000 0.428571
vt 0.000000 0.651786
vt 1.000000 0.937500
vt 0.000000 0.937500
vt 0.804688 0.651786
vt 1.000000 0.651786
vt 1.000000 0.000000
vt 0.000000 0.428571
vt -0.000000 -0.000000
vt 1.000000 0.625000
vt 0.000000 0.660714
vt 0.000000 0.625000
vt 0.875000 0.633929
vt 0.875000 0.428571
vt 0.195312 0.651786
vt 0.242188 0.535714
vt 0.210938 0.464286
vt 0.242188 0.464286
vt 1.000000 0.464286
vt -0.000000 0.464286
vt 0.242188 0.491071
vt 0.218750 0.455357
vt 0.242188 0.455357
vt -0.000000 0.928571
vt 1.000000 1.000000
vt -0.000000 1.000000
vt 1.000000 0.473214
vt -0.000000 0.491071
vt -0.000000 0.473214
vt 0.070312 0.696429
vt 0.000000 0.687500
vt 0.781250 0.696429
vt 0.804688 0.428571
vt 1.000000 0.660714
vt 0.000000 0.633929
vt 0.195312 0.428571
vt 0.210938 0.535714
vt 1.000000 0.535714
vt 0.218750 0.491071
vt 1.000000 0.928571
vt 1.000000 0.491071
s 0
usemtl Primary
f 1/1/1 8/2/1 7/3/1
f 3/4/2 9/5/2 8/6/2
f 6/7/3 10/8/3 9/9/3
f 4/10/4 7/11/4 10/12/4
f 9/9/3 12/13/3 5/14/3
f 3/15/5 4/16/5 6/17/5
f 7/18/6 11/19/6 10/20/6
f 8/21/2 5/16/2 2/22/2
f 11/10/4 13/9/4 12/16/4
f 2/16/1 14/23/1 8/10/1
f 16/24/1 17/25/1 15/26/1
f 18/5/2 21/27/2 17/28/2
f 22/29/3 19/30/3 21/31/3
f 20/32/4 15/33/4 19/34/4
f 18/35/5 20/36/5 22/37/5
f 1/1/1 3/38/1 8/2/1
f 3/4/2 6/39/2 9/5/2
f 6/7/3 4/40/3 10/8/3
f 4/10/4 1/14/4 7/11/4
f 9/9/3 11/41/3 12/13/3
f 3/15/5 1/9/5 4/16/5
f 7/18/6 14/42/6 11/19/6
f 8/21/2 9/43/2 5/16/2
f 11/10/4 14/14/4 13/9/4
f 2/16/1 13/44/1 14/23/1
f 16/24/1 18/45/1 17/25/1
f 18/5/2 22/46/2 21/27/2
f 22/29/3 20/47/3 19/30/3
f 20/32/4 16/48/4 15/33/4
f 18/35/5 16/49/5 20/36/5
