# Blender 4.2.0
# www.blender.org
mtllib Bench01.mtl
o Bench01
v -1.500000 0.612992 0.515200
v -1.500000 0.652929 0.513507
v -1.500000 0.596068 0.290558
v -1.500000 0.636004 0.288866
v 1.500000 0.612992 0.515200
v 1.500000 0.652929 0.513507
v 1.500000 0.596068 0.290558
v 1.500000 0.636004 0.288866
v -1.500000 0.591173 0.245874
v -1.500000 0.631173 0.245776
v -1.500000 0.590187 0.020876
v -1.500000 0.630186 0.020777
v 1.500000 0.591173 0.245874
v 1.500000 0.631173 0.245776
v 1.500000 0.590187 0.020876
v 1.500000 0.630186 0.020777
v -1.500000 0.596705 -0.018066
v -1.500000 0.636639 -0.016345
v -1.500000 0.613917 -0.242696
v -1.500000 0.653852 -0.240975
v 1.500000 0.596705 -0.018066
v 1.500000 0.636639 -0.016345
v 1.500000 0.613917 -0.242696
v 1.500000 0.653852 -0.240975
v -1.500000 0.683076 -0.298597
v -1.500000 0.694075 -0.260139
v -1.500000 0.971510 -0.381093
v -1.500000 0.982510 -0.342635
v 1.500000 0.683076 -0.298597
v 1.500000 0.694075 -0.260139
v 1.500000 0.971510 -0.381093
v 1.500000 0.982510 -0.342635
v -1.500000 1.324447 -0.347869
v -1.500000 1.324447 -0.387869
v -1.500000 1.024447 -0.347869
v -1.500000 1.024447 -0.387869
v 1.500000 1.324447 -0.347869
v 1.500000 1.324447 -0.387869
v 1.500000 1.024447 -0.347869
v 1.500000 1.024447 -0.387869
v -1.500000 1.670973 -0.347869
v -1.500000 1.670973 -0.387869
v -1.500000 1.370973 -0.347869
v -1.500000 1.370973 -0.387869
v 1.500000 1.670973 -0.347869
v 1.500000 1.670973 -0.387869
v 1.500000 1.370973 -0.347869
v 1.500000 1.370973 -0.387869
v 1.046351 0.503039 0.338353
v 1.046351 0.606530 0.442737
v 1.046351 0.509798 -0.363964
v 1.046351 0.613258 -0.365752
v 1.149842 0.503039 0.338353
v 1.149842 0.606530 0.442737
v 1.149842 0.000000 0.339247
v 1.046351 0.000000 0.442737
v 1.149842 0.613258 -0.365752
v 1.046351 0.000000 0.339247
v 1.046351 0.561528 -0.468348
v 1.149842 0.561528 -0.468348
v 1.046351 1.636470 -0.384474
v 1.046351 1.636470 -0.487964
v 1.149842 1.636470 -0.384474
v 1.149842 1.636470 -0.487964
v 1.046351 0.000000 -0.359474
v 1.046351 0.000000 -0.462964
v 1.149842 0.000000 -0.359474
v 1.149842 0.000000 -0.462964
v 1.149842 0.509798 -0.363964
v 1.149842 0.000000 0.442737
v -1.046351 0.503039 0.338353
v -1.046351 0.606530 0.442737
v -1.046351 0.509798 -0.363964
v -1.046351 0.613258 -0.365752
v -1.149842 0.503039 0.338353
v -1.149842 0.606530 0.442737
v -1.149842 0.000000 0.339247
v -1.046351 0.000000 0.442737
v -1.149842 0.613258 -0.365752
v -1.046351 0.000000 0.339247
v -1.046351 0.561528 -0.468348
v -1.149842 0.561528 -0.468348
v -1.046351 1.636470 -0.384474
v -1.046351 1.636470 -0.487964
v -1.149842 1.636470 -0.384474
v -1.149842 1.636470 -0.487964
v -1.046351 0.000000 -0.359474
v -1.046351 0.000000 -0.462964
v -1.149842 0.000000 -0.359474
v -1.149842 0.000000 -0.462964
v -1.149842 0.509798 -0.363964
v -1.149842 0.000000 0.442737
vn -1.0000 -0.0000 -0.0000
vn -0.0000 -0.0423 -0.9991
vn 1.0000 -0.0000 -0.0000
vn -0.0000 0.0423 0.9991
vn -0.0000 -0.9972 0.0751
vn -0.0000 0.9972 -0.0751
vn -0.0000 -0.0025 -1.0000
vn -0.0000 0.0025 1.0000
vn -0.0000 -1.0000 0.0044
vn -0.0000 1.0000 -0.0044
vn -0.0000 0.0431 -0.9991
vn -0.0000 -0.0431 0.9991
vn -0.0000 -0.9971 -0.0764
vn -0.0000 0.9971 0.0764
vn -0.0000 0.9614 -0.2750
vn -0.0000 -0.9614 0.2750
vn -0.0000 -0.2750 -0.9614
vn -0.0000 0.2750 0.9614
vn -0.0000 -1.0000 -0.0000
vn -0.0000 1.0000 -0.0000
vn -0.0000 -0.0000 1.0000
vn -0.0000 -0.0000 -1.0000
vn -0.0000 0.0183 0.9998
vn -0.0000 -1.0000 -0.0096
vn -0.0000 1.0000 0.0083
vn -0.0000 -0.0182 -0.9998
vn -0.0000 0.0173 0.9999
vn -0.0000 -0.0096 -1.0000
vn -0.0000 0.0088 1.0000
vn -0.0000 0.0018 1.0000
vt 0.461538 0.425676
vt 0.448718 0.324324
vt 0.461538 0.324324
vt 1.000000 0.358108
vt -0.000000 0.337838
vt 1.000000 0.337838
vt 0.512821 0.425676
vt 0.525641 0.324324
vt 0.525641 0.425676
vt -0.000000 0.527027
vt 1.000000 0.540541
vt -0.000000 0.540541
vt -0.000000 0.290541
vt 1.000000 0.141892
vt 1.000000 0.290541
vt 0.487179 0.425676
vt 0.474359 0.324324
vt 0.487179 0.324324
vt 1.000000 0.243243
vt -0.000000 0.222973
vt 1.000000 0.222973
vt 0.512821 0.324324
vt 0.500000 0.425676
vt 0.500000 0.324324
vt -0.000000 0.641892
vt 1.000000 0.655405
vt -0.000000 0.655405
vt -0.000000 0.439189
vt 1.000000 0.310811
vt 1.000000 0.439189
vt 0.000000 0.310811
vt 0.435897 0.425676
vt 0.435897 0.324324
vt -0.000000 0.209459
vt 1.000000 0.209459
vt -0.000000 0.371622
vt 1.000000 0.385135
vt -0.000000 0.385135
vt 0.000000 0.567568
vt 1.000000 0.459459
vt 1.000000 0.567568
vt 1.000000 0.668919
vt 0.423077 0.324324
vt -0.000000 0.236486
vt 1.000000 0.256757
vt -0.000000 0.256757
vt -0.000000 0.695946
vt 1.000000 0.587838
vt 1.000000 0.702703
vt 0.551282 0.425676
vt 0.564103 0.324324
vt 0.564103 0.425676
vt 1.000000 0.574324
vt -0.000000 0.560811
vt 1.000000 0.560811
vt 0.576923 0.324324
vt -0.000000 0.155405
vt 1.000000 0.175676
vt -0.000000 0.175676
vt 1.000000 0.736486
vt 0.000000 0.790541
vt 0.000000 0.736486
vt 1.000000 0.871622
vt 0.000000 0.932432
vt 0.000000 0.871622
vt 0.538462 0.324324
vt 0.538462 0.425676
vt 1.000000 0.547297
vt 0.000000 0.533784
vt 1.000000 0.533784
vt 0.551282 0.324324
vt 0.000000 0.547297
vt 1.000000 0.804054
vt 0.000000 0.864865
vt 0.000000 0.804054
vt 0.000000 1.000000
vt 1.000000 0.945946
vt 1.000000 1.000000
vt 0.416667 0.033784
vt 0.673077 0.067568
vt 0.673077 0.033784
vt 0.198718 0.027027
vt 0.557692 0.067568
vt 0.198718 0.067568
vt 0.474359 0.000000
vt 0.730769 0.033784
vt 0.474359 0.033784
vt 0.416667 -0.000000
vt 0.769231 0.067568
vt 0.416667 0.067568
vt 0.365385 0.027027
vt 0.685897 0.067568
vt 0.365385 0.067568
vt 0.685897 0.027027
vt 0.698718 0.067568
vt 0.375000 0.250000
vt 0.375000 0.500000
vt 0.375000 0.500000
vt 0.788462 0.135135
vt 0.826923 0.094595
vt 0.826923 0.135135
vt 0.557692 0.027027
vt 0.660256 0.067568
vt 0.717949 0.067568
vt 0.788462 0.027027
vt 0.788462 0.067568
vt 0.711538 0.027027
vt 0.692308 0.027027
vt 0.493590 -0.000000
vt 0.608974 0.033784
vt 0.493590 0.033784
vt 0.628205 0.033784
vt 0.544872 0.067568
vt 0.544872 0.033784
vt 0.544872 0.000000
vt 0.653846 0.000000
vt 0.525641 0.033784
vt 0.608974 0.067568
vt 0.525641 0.067568
vt 0.391026 0.067568
vt 0.653846 0.067568
vt 0.448718 0.425676
vt -0.000000 0.358108
vt 1.000000 0.527027
vt -0.000000 0.141892
vt 0.000000 0.141892
vt 0.474359 0.425676
vt -0.000000 0.243243
vt 1.000000 0.641892
vt 1.000000 0.371622
vt 0.000000 0.459459
vt -0.000000 0.668919
vt 0.423077 0.425676
vt 1.000000 0.236486
vt 0.000000 0.587838
vt -0.000000 0.574324
vt 0.576923 0.425676
vt 1.000000 0.155405
vt 1.000000 0.797297
vt 1.000000 0.932432
vt 1.000000 0.864865
vt 0.000000 0.945946
vt 0.756410 0.000000
vt 0.730769 -0.000000
vt 0.769231 0.033784
vt 0.788462 0.094595
vt 0.660256 0.027027
vt 0.608974 -0.000000
s 0
usemtl Primary
f 1/1/1 4/2/1 3/3/1
f 4/4/2 7/5/2 3/6/2
f 8/7/3 5/8/3 7/9/3
f 6/10/4 1/11/4 5/12/4
f 7/13/5 1/14/5 3/15/5
f 4/13/6 6/14/6 8/15/6
f 9/16/1 12/17/1 11/18/1
f 12/19/7 15/20/7 11/21/7
f 16/22/3 13/23/3 15/24/3
f 14/25/8 9/26/8 13/27/8
f 15/28/9 9/29/9 11/30/9
f 12/29/10 14/28/10 16/31/10
f 18/2/1 19/32/1 17/33/1
f 20/21/11 23/34/11 19/35/11
f 23/18/3 22/23/3 21/16/3
f 22/36/12 17/37/12 21/38/12
f 23/39/13 17/40/13 19/41/13
f 20/39/14 22/40/14 24/41/14
f 26/17/1 27/1/1 25/3/1
f 28/42/15 31/27/15 27/26/15
f 31/32/3 30/43/3 29/33/3
f 30/44/16 25/45/16 29/46/16
f 31/47/17 25/48/17 27/49/17
f 28/47/18 30/48/18 32/49/18
f 34/50/1 35/51/1 33/52/1
f 36/53/19 39/54/19 35/55/19
f 40/56/3 37/52/3 39/51/3
f 38/57/20 33/58/20 37/59/20
f 39/60/21 33/61/21 35/62/21
f 36/63/22 38/64/22 40/65/22
f 42/9/1 43/66/1 41/67/1
f 44/68/19 47/69/19 43/70/19
f 48/71/3 45/67/3 47/66/3
f 46/72/20 41/55/20 45/54/20
f 47/73/21 41/74/21 43/75/21
f 44/76/22 46/77/22 48/78/22
f 49/79/1 52/80/1 51/81/1
f 61/82/23 57/83/23 63/84/23
f 57/85/3 53/86/3 69/87/3
f 69/88/24 49/86/24 51/79/24
f 52/79/25 54/89/25 57/90/25
f 64/82/26 59/83/26 62/84/26
f 62/91/1 52/92/1 61/93/1
f 64/93/3 57/94/3 60/95/3
f 52/96/27 69/97/27 57/98/27
f 63/99/20 62/100/20 61/101/20
f 60/102/28 66/103/28 59/83/28
f 51/104/1 66/105/1 65/106/1
f 69/107/3 68/106/3 60/95/3
f 51/102/29 67/103/29 69/83/29
f 60/95/3 57/94/3 69/107/3
f 52/92/1 59/108/1 51/104/1
f 54/109/22 56/110/22 50/111/22
f 49/112/3 56/113/3 58/114/3
f 53/112/1 70/115/1 54/116/1
f 49/117/30 55/118/30 53/119/30
f 71/79/3 74/80/3 72/120/3
f 79/83/23 83/82/23 85/84/23
f 75/86/1 79/85/1 91/87/1
f 71/86/24 91/88/24 73/79/24
f 76/89/25 74/79/25 79/90/25
f 81/83/26 86/82/26 84/84/26
f 74/92/3 84/91/3 83/93/3
f 86/93/1 79/94/1 85/91/1
f 91/97/27 74/96/27 79/98/27
f 84/100/20 85/99/20 83/101/20
f 88/103/28 82/102/28 81/83/28
f 73/104/3 88/105/3 81/108/3
f 90/106/1 91/107/1 82/95/1
f 89/103/29 73/102/29 91/83/29
f 82/95/1 91/107/1 79/94/1
f 74/92/3 73/104/3 81/108/3
f 78/110/22 76/109/22 72/111/22
f 71/112/1 78/113/1 72/121/1
f 92/115/3 75/112/3 76/116/3
f 77/118/30 71/117/30 75/119/30
f 1/1/1 2/122/1 4/2/1
f 4/4/2 8/123/2 7/5/2
f 8/7/3 6/22/3 5/8/3
f 6/10/4 2/124/4 1/11/4
f 7/13/5 5/125/5 1/14/5
f 4/13/6 2/126/6 6/14/6
f 9/16/1 10/127/1 12/17/1
f 12/19/7 16/128/7 15/20/7
f 16/22/3 14/7/3 13/23/3
f 14/25/8 10/129/8 9/26/8
f 15/28/9 13/31/9 9/29/9
f 12/29/10 10/30/10 14/28/10
f 18/2/1 20/122/1 19/32/1
f 20/21/11 24/20/11 23/34/11
f 23/18/3 24/24/3 22/23/3
f 22/36/12 18/130/12 17/37/12
f 23/39/13 21/131/13 17/40/13
f 20/39/14 18/131/14 22/40/14
f 26/17/1 28/127/1 27/1/1
f 28/42/15 32/132/15 31/27/15
f 31/32/3 32/133/3 30/43/3
f 30/44/16 26/134/16 25/45/16
f 31/47/17 29/135/17 25/48/17
f 28/47/18 26/135/18 30/48/18
f 34/50/1 36/71/1 35/51/1
f 36/53/19 40/136/19 39/54/19
f 40/56/3 38/137/3 37/52/3
f 38/57/20 34/138/20 33/58/20
f 39/60/21 37/139/21 33/61/21
f 36/63/22 34/140/22 38/64/22
f 42/9/1 44/8/1 43/66/1
f 44/68/19 48/72/19 47/69/19
f 48/71/3 46/50/3 45/67/3
f 46/72/20 42/68/20 41/55/20
f 47/73/21 45/141/21 41/74/21
f 44/76/22 42/142/22 46/77/22
f 49/79/1 50/120/1 52/80/1
f 61/82/23 52/102/23 57/83/23
f 57/85/3 54/143/3 53/86/3
f 69/88/24 53/144/24 49/86/24
f 52/79/25 50/145/25 54/89/25
f 64/82/26 60/102/26 59/83/26
f 62/91/1 59/108/1 52/92/1
f 64/93/3 63/91/3 57/94/3
f 52/96/27 51/96/27 69/97/27
f 63/99/20 64/146/20 62/100/20
f 60/102/28 68/147/28 66/103/28
f 51/104/1 59/108/1 66/105/1
f 69/107/3 67/105/3 68/106/3
f 51/102/29 65/147/29 67/103/29
f 54/109/22 70/148/22 56/110/22
f 49/112/3 50/121/3 56/113/3
f 53/112/1 55/114/1 70/115/1
f 49/117/30 58/110/30 55/118/30
f 71/79/3 73/81/3 74/80/3
f 79/83/23 74/102/23 83/82/23
f 75/86/1 76/143/1 79/85/1
f 71/86/24 75/144/24 91/88/24
f 76/89/25 72/145/25 74/79/25
f 81/83/26 82/102/26 86/82/26
f 74/92/3 81/108/3 84/91/3
f 86/93/1 82/95/1 79/94/1
f 91/97/27 73/96/27 74/96/27
f 84/100/20 86/146/20 85/99/20
f 88/103/28 90/147/28 82/102/28
f 73/104/3 87/106/3 88/105/3
f 90/106/1 89/105/1 91/107/1
f 89/103/29 87/147/29 73/102/29
f 78/110/22 92/148/22 76/109/22
f 71/112/1 80/114/1 78/113/1
f 92/115/3 77/114/3 75/112/3
f 77/118/30 80/110/30 71/117/30
