# Blender 4.2.0
# www.blender.org
mtllib CampingTable01.mtl
o CampingTable01
v -0.611240 0.950000 0.611240
v -0.750000 0.987500 0.750000
v -0.611240 0.950000 -0.611240
v -0.750000 0.987500 -0.750000
v 0.611240 0.950000 0.611240
v 0.750000 0.987500 0.750000
v 0.611240 0.950000 -0.611240
v 0.750000 0.987500 -0.750000
v -0.750000 0.912500 0.750000
v 0.718314 0.950000 -0.718314
v 0.658314 0.912500 -0.750000
v 0.750000 0.912500 -0.658314
v 0.750000 0.912500 -0.750000
v 0.698595 0.000000 -0.744438
v 0.728595 0.000000 -0.728595
v 0.750000 0.000000 -0.750000
v 0.744438 0.000000 -0.698595
v -0.718314 0.950000 -0.718314
v -0.658314 0.912500 -0.750000
v -0.750000 0.912500 -0.658314
v -0.750000 0.912500 -0.750000
v -0.698595 0.000000 -0.744438
v -0.728595 0.000000 -0.728595
v -0.750000 0.000000 -0.750000
v -0.744438 0.000000 -0.698595
v 0.718314 0.950000 0.718314
v 0.658314 0.912500 0.750000
v 0.750000 0.912500 0.658314
v 0.750000 0.912500 0.750000
v 0.698595 0.000000 0.744438
v 0.728595 0.000000 0.728595
v 0.750000 0.000000 0.750000
v 0.744438 0.000000 0.698595
v -0.718314 0.950000 0.718314
v -0.658314 0.912500 0.750000
v -0.750000 0.912500 0.658314
v -0.698595 0.000000 0.744438
v -0.728595 0.000000 0.728595
v -0.750000 0.000000 0.750000
v -0.744438 0.000000 0.698595
vn -1.0000 -0.0000 -0.0000
vn -0.0000 -0.0000 -1.0000
vn 1.0000 -0.0000 -0.0000
vn -0.0000 -0.0000 1.0000
vn -0.0000 -1.0000 -0.0000
vn -0.0000 1.0000 -0.0000
vn 0.2609 -0.9654 -0.0000
vn -0.0000 -0.9654 0.2609
vn -0.2609 -0.9654 -0.0000
vn -0.0000 -0.9654 -0.2609
vn -0.8842 -0.0152 0.4669
vn -0.0000 -0.0061 -1.0000
vn 0.9942 -0.0000 0.1076
vn -0.4598 -0.0146 0.8879
vn 0.8879 -0.0146 0.4598
vn -1.0000 -0.0061 -0.0000
vn 0.4598 -0.0146 0.8879
vn -0.8879 -0.0146 -0.4598
vn -0.0000 -0.0061 1.0000
vn 1.0000 -0.0061 -0.0000
vn -0.4598 -0.0146 -0.8879
vn 0.8842 -0.0152 -0.4669
vn -0.9942 -0.0000 -0.1076
vn 0.4598 -0.0146 -0.8879
vn -0.8879 -0.0146 0.4598
vn -0.1076 -0.0000 -0.9942
vn -0.4669 -0.0152 0.8842
vn 0.8842 -0.0152 0.4669
vn 0.1076 -0.0000 -0.9942
vn -0.9942 -0.0000 0.1076
vn 0.4669 -0.0152 0.8842
vn -0.8842 -0.0152 -0.4669
vn -0.1076 -0.0000 0.9942
vn 0.9942 -0.0000 -0.1076
vn -0.4669 -0.0152 -0.8842
vn 0.8879 -0.0146 -0.4598
vn 0.1076 -0.0000 0.9942
vn 0.4669 -0.0152 -0.8842
vt 0.039062 0.992188
vt 0.007812 0.507812
vt 0.007812 0.992188
vt 0.039062 0.507812
vt 0.101562 0.101562
vt 0.898438 0.906250
vt 0.093750 0.906250
vt 1.000000 1.000000
vt 0.000000 0.000000
vt -0.000000 1.000000
vt 0.906250 0.101562
vt 1.000000 0.000000
vt 0.492188 0.054688
vt 0.007812 0.000000
vt 0.007812 0.031250
vt 0.492188 0.000000
vt 0.234375 0.710938
vt 0.242188 0.671875
vt 0.281250 0.671875
vt 0.234375 0.632812
s 0
usemtl Primary
f 2/1/1 21/2/1 9/3/1
f 4/4/2 13/3/2 21/2/2
f 8/4/3 29/3/3 13/2/3
f 6/4/4 9/3/4 29/2/4
f 7/5/5 1/6/5 3/7/5
f 4/8/6 6/9/6 8/10/6
f 3/7/7 9/8/7 21/10/7
f 7/5/8 21/10/8 13/9/8
f 5/11/9 13/9/9 29/12/9
f 1/6/10 29/12/10 9/8/10
f 12/13/11 15/14/11 17/15/11
f 13/16/12 14/15/12 11/13/12
f 13/16/13 17/15/13 16/14/13
f 11/13/14 15/14/14 10/16/14
f 17/17/5 15/18/5 16/19/5
f 14/20/5 16/19/5 15/18/5
f 20/13/15 23/14/15 18/16/15
f 22/15/12 21/16/12 19/13/12
f 21/16/16 25/15/16 20/13/16
f 23/14/17 19/13/17 18/16/17
f 25/17/5 24/19/5 23/18/5
f 22/20/5 23/18/5 24/19/5
f 28/13/18 31/14/18 26/16/18
f 30/15/19 29/16/19 27/13/19
f 29/16/20 33/15/20 28/13/20
f 31/14/21 27/13/21 26/16/21
f 33/17/5 32/19/5 31/18/5
f 30/20/5 31/18/5 32/19/5
f 36/13/22 38/14/22 40/15/22
f 9/16/19 37/15/19 35/13/19
f 9/16/23 40/15/23 39/14/23
f 35/13/24 38/14/24 34/16/24
f 40/17/5 38/18/5 39/19/5
f 37/20/5 39/19/5 38/18/5
f 2/1/1 4/4/1 21/2/1
f 4/4/2 8/1/2 13/3/2
f 8/4/3 6/1/3 29/3/3
f 6/4/4 2/1/4 9/3/4
f 7/5/5 5/11/5 1/6/5
f 4/8/6 2/12/6 6/9/6
f 3/7/7 1/6/7 9/8/7
f 7/5/8 3/7/8 21/10/8
f 5/11/9 7/5/9 13/9/9
f 1/6/10 5/11/10 29/12/10
f 12/13/25 10/16/25 15/14/25
f 13/16/26 16/14/26 14/15/26
f 13/16/20 12/13/20 17/15/20
f 11/13/27 14/15/27 15/14/27
f 20/13/28 25/15/28 23/14/28
f 22/15/29 24/14/29 21/16/29
f 21/16/30 24/14/30 25/15/30
f 23/14/31 22/15/31 19/13/31
f 28/13/32 33/15/32 31/14/32
f 30/15/33 32/14/33 29/16/33
f 29/16/34 32/14/34 33/15/34
f 31/14/35 30/15/35 27/13/35
f 36/13/36 34/16/36 38/14/36
f 9/16/37 39/14/37 37/15/37
f 9/16/16 36/13/16 40/15/16
f 35/13/38 37/15/38 38/14/38
