# Blender 4.2.0
# www.blender.org
mtllib CampingChair01B.mtl
o CampingChair01B
v -0.391814 0.749816 -0.451145
v -0.462500 1.652890 -0.550251
v -0.462500 1.650184 -0.562455
v 0.391814 0.749816 -0.451145
v 0.462500 1.652890 -0.550251
v 0.462500 1.650184 -0.562455
v -0.462500 0.749816 0.312429
v -0.462500 0.737316 0.311884
v 0.462500 0.749816 0.312429
v 0.450000 1.650184 -0.549955
v 0.450000 -0.006250 -0.562455
v 0.450000 1.650184 -0.562455
v 0.462500 1.650184 -0.549955
v 0.462500 -0.006250 -0.562455
v 0.450000 -0.006250 -0.549955
v 0.462500 -0.006250 -0.549955
v 0.450000 -0.006250 0.299384
v 0.381225 0.737316 -0.463349
v 0.450000 -0.006250 0.311884
v 0.462500 -0.006250 0.299384
v 0.391814 0.737316 -0.450849
v 0.462500 0.737316 0.311884
v -0.462500 1.650184 -0.549955
v -0.462500 -0.006250 -0.562455
v -0.450000 -0.006250 -0.549955
v -0.450000 1.650184 -0.549955
v -0.450000 1.650184 -0.562455
v -0.462500 -0.006250 -0.549955
v -0.450000 -0.006250 -0.562455
v -0.462500 -0.006250 0.311884
v -0.391814 0.737316 -0.450849
v 0.450000 0.737316 0.311884
v 0.462500 0.737316 0.299384
v 0.450000 0.737316 0.299384
v 0.462500 -0.006250 0.311884
v -0.450000 0.737316 0.311884
v -0.462500 0.737316 0.299384
v -0.450000 0.737316 0.299384
v 0.381225 0.737316 -0.450849
v 0.391814 0.737316 -0.463349
v -0.381224 0.737316 -0.450849
v -0.391814 0.737316 -0.463349
v -0.381224 0.737316 -0.463349
v -0.483929 0.976690 -0.581374
v -0.483929 0.964190 -0.581374
v -0.438060 0.976690 -0.581374
v -0.438060 0.964190 -0.581374
v -0.534780 0.976690 0.337429
v -0.534780 0.964190 0.336884
v -0.374346 0.976690 0.337429
v -0.374346 0.964190 0.336884
v 0.438060 0.976690 -0.581374
v 0.438060 0.964190 -0.581374
v 0.483929 0.976690 -0.581374
v 0.483929 0.964190 -0.581374
v 0.374346 0.976690 0.337429
v 0.374346 0.964190 0.336884
v 0.534780 0.976690 0.337429
v 0.534780 0.964190 0.336884
v 0.000000 0.685322 -0.494536
v 0.000000 1.598190 -0.593642
v 0.000000 0.697822 -0.482332
v 0.000000 1.600895 -0.581439
v 0.000000 0.685322 0.311884
v 0.000000 0.697822 0.312429
v 0.450000 0.964190 0.311884
v 0.450000 0.964190 0.299384
v 0.462500 0.964190 0.299384
v 0.462500 0.964190 0.311884
v -0.462500 0.964190 0.311884
v -0.462500 0.964190 0.299384
v -0.450000 0.964190 0.299384
v -0.450000 0.964190 0.311884
v 0.406203 0.961126 -0.121972
v 0.509354 0.961126 -0.121972
v 0.509354 0.948626 -0.122245
v 0.406203 0.948626 -0.122245
v -0.509354 0.961126 -0.121972
v -0.406203 0.961126 -0.121972
v -0.406203 0.948626 -0.122245
v -0.509354 0.948626 -0.122245
v -0.462500 -0.006250 0.299384
v -0.450000 -0.006250 0.299384
v -0.450000 -0.006250 0.311884
vn -0.9951 -0.0693 0.0710
vn 0.0930 -0.1075 -0.9898
vn 0.9951 -0.0693 0.0710
vn 0.0932 0.1086 0.9897
vn 0.1315 0.9913 -0.0000
vn 0.0947 0.9719 -0.2155
vn 0.0049 -0.0436 0.9990
vn 0.1315 -0.9913 -0.0000
vn -0.9957 0.0040 -0.0922
vn 0.9920 0.0883 -0.0904
vn -1.0000 -0.0000 -0.0000
vn -0.0000 -0.0000 -1.0000
vn 1.0000 -0.0000 -0.0000
vn -0.0000 -0.0000 1.0000
vn -0.0000 -1.0000 -0.0000
vn -0.0000 0.7571 -0.6532
vn -0.0000 -0.7571 0.6532
vn 0.9957 0.0921 -0.0000
vn -0.0000 -0.7160 -0.6981
vn -0.9955 -0.0946 -0.0000
vn -0.0000 0.7160 0.6981
vn 0.9955 -0.0946 -0.0000
vn -0.9957 0.0921 -0.0000
vn -0.6317 0.7752 -0.0000
vn 0.6317 -0.7752 -0.0000
vn -0.6317 -0.7752 -0.0000
vn 0.6317 0.7752 -0.0000
vn -0.0000 -0.1321 0.9912
vn -0.6612 0.7502 -0.0000
vn -0.0000 0.1321 -0.9912
vn 0.6620 -0.7495 -0.0000
vn -0.6612 -0.7502 -0.0000
vn 0.6620 0.7495 -0.0000
vn -0.0000 0.9994 -0.0339
vn -0.0000 -0.0436 0.9990
vn -0.0000 -0.9994 0.0339
vn -0.9985 0.0024 -0.0553
vn 0.9976 0.0015 -0.0693
vn -0.9976 0.0030 -0.0693
vn 0.9985 0.0012 -0.0553
vn -0.1117 -0.9937 -0.0102
vn -0.0049 -0.0436 0.9990
vn -0.0947 0.9719 -0.2155
vn -0.1117 0.9937 0.0103
vn -0.0932 0.1086 0.9897
vn -0.0930 -0.1075 -0.9898
vn -0.9976 -0.0000 -0.0692
vn -0.0000 -0.9994 -0.0339
vn -0.0000 0.9994 0.0339
vn 0.9976 0.0015 -0.0692
vn -0.9985 -0.0000 -0.0553
vn -0.0000 1.0000 -0.0000
vn -0.9970 -0.0762 0.0169
vn 0.0796 -0.1137 -0.9903
vn 0.9970 -0.0762 0.0169
vn 0.0797 0.1149 0.9902
vn 0.1117 0.9937 0.0103
vn 0.1117 -0.9937 -0.0102
vn -0.9920 0.0883 -0.0904
vn 0.9957 0.0040 -0.0922
vn -0.0000 -0.7572 0.6532
vn -0.9985 0.0012 -0.0553
vn 0.9976 0.0030 -0.0693
vn -0.9976 0.0015 -0.0693
vn 0.9985 0.0024 -0.0553
vn -0.1315 -0.9913 -0.0000
vn -0.1315 0.9913 -0.0000
vn -0.0797 0.1149 0.9902
vn -0.0796 -0.1137 -0.9903
vn 0.9985 -0.0000 -0.0553
vn -0.9976 0.0015 -0.0692
vn 0.9976 -0.0000 -0.0692
vt 1.000000 0.039062
vt 0.791667 0.054688
vt 1.000000 0.054688
vt 0.744792 1.000000
vt 1.000000 0.484375
vt 0.744792 0.484375
vt 0.578125 0.054688
vt 0.369792 0.039062
vt 0.364583 0.054688
vt 0.744792 0.054688
vt 0.682292 0.039062
vt 0.682292 0.054688
vt 0.583333 0.039062
vt 0.697917 0.054688
vt 0.697917 0.039062
vt 0.812500 0.039062
vt 0.812500 0.054688
vt 0.401042 0.054688
vt 0.401042 0.039062
vt 0.364583 0.023438
vt 1.000000 0.031250
vt 1.000000 0.023438
vt 0.364583 0.039062
vt 1.000000 0.046875
vt 0.364583 0.046875
vt 0.812500 0.500000
vt 0.937500 0.750000
vt 0.937500 0.500000
vt 0.994792 0.023438
vt 0.348958 0.046875
vt 1.000000 0.015625
vt 0.348958 0.039062
vt 0.994792 0.039062
vt 0.994792 0.046875
vt 0.588542 0.046875
vt 0.588542 0.039062
vt 0.588542 0.031250
vt 0.588542 0.023438
vt 0.364583 0.031250
vt 0.562500 0.039062
vt 0.994792 0.054688
vt 0.994792 0.062500
vt 0.562500 0.046875
vt 0.473958 0.039062
vt 0.473958 0.046875
vt 0.994792 0.031250
vt 0.588542 0.015625
vt 0.546875 0.031250
vt 0.546875 0.023438
vt 0.546875 0.046875
vt 0.546875 0.039062
vt 0.567708 0.023438
vt 0.567708 0.031250
vt 0.562500 0.031250
vt 0.994792 0.015625
vt 0.630208 0.664062
vt 0.750000 0.726562
vt 0.750000 0.664062
vt 0.932292 0.039062
vt 0.843750 0.023438
vt 0.843750 0.039062
vt 0.880208 0.687500
vt 0.875000 0.734375
vt 0.677083 0.039062
vt 0.416667 0.023438
vt 0.416667 0.039062
vt 0.932292 0.023438
vt 0.677083 0.023438
vt 0.869792 0.585938
vt 0.750000 0.648438
vt 0.875000 0.625000
vt 0.973958 0.046875
vt 0.869792 0.031250
vt 0.869792 0.046875
vt 0.625000 0.617188
vt 0.744792 0.648438
vt 0.744792 0.585938
vt 0.677083 0.046875
vt 0.369792 0.031250
vt 0.369792 0.046875
vt 0.973958 0.031250
vt 0.677083 0.031250
vt 0.500000 0.484375
vt 0.500000 0.054688
vt 0.578125 0.039062
vt 0.562500 0.023438
vt 0.473958 0.031250
vt 0.687500 0.500000
vt 0.687500 0.750000
vt 0.473958 0.023438
vt 0.911458 0.023438
vt 0.911458 0.039062
vt 0.947917 0.031250
vt 0.947917 0.046875
vt 0.500000 0.640625
vt 0.625000 0.656250
vt 0.994792 0.585938
vt 0.994792 0.601562
vt 1.000000 0.710938
vt 1.000000 0.734375
vt 0.505208 0.664062
vt 0.630208 0.703125
vt 0.817708 0.046875
vt 0.817708 0.039062
vt 0.822917 0.039062
vt 0.812500 0.031250
vt 0.817708 0.031250
vt 0.791667 0.039062
vt 1.000000 1.000000
vt 0.583333 0.054688
vt 0.812500 0.750000
vt 0.755208 0.664062
vt 0.500000 1.000000
vt 0.500000 0.656250
vt 0.505208 0.679688
vt 0.812500 0.046875
vt 0.822917 0.046875
s 0
usemtl Primary
f 1/1/1 3/2/1 42/3/1
f 61/4/2 40/5/2 60/6/2
f 6/7/3 4/8/3 40/9/3
f 63/4/4 1/5/4 62/6/4
f 1/5/5 65/10/5 62/6/5
f 3/2/6 63/11/6 61/12/6
f 22/13/7 65/14/7 64/15/7
f 40/5/8 64/10/8 60/6/8
f 1/3/9 8/16/9 7/17/9
f 4/18/10 22/13/10 40/19/10
f 10/20/11 11/21/11 15/22/11
f 12/23/12 14/24/12 11/1/12
f 6/25/13 16/22/13 14/24/13
f 13/20/14 15/22/14 16/22/14
f 14/26/15 15/27/15 11/28/15
f 15/29/11 34/30/11 11/31/11
f 34/30/16 14/21/16 11/31/16
f 33/32/13 16/33/13 14/21/13
f 22/30/17 15/34/17 16/33/17
f 22/30/14 66/30/14 32/30/14
f 17/35/18 39/34/18 19/35/18
f 19/35/19 21/33/19 35/36/19
f 21/33/20 20/37/20 35/36/20
f 40/21/21 17/38/21 20/37/21
f 23/39/11 24/1/11 28/21/11
f 3/23/12 29/22/12 24/1/12
f 27/20/13 25/21/13 29/22/13
f 26/39/14 28/1/14 25/21/14
f 38/40/13 25/41/13 29/24/13
f 36/40/17 28/42/17 25/41/17
f 8/43/14 73/44/14 70/45/14
f 82/46/22 31/36/22 30/1/22
f 31/36/19 84/22/19 30/1/19
f 41/47/23 83/29/23 84/22/23
f 83/29/21 42/37/21 82/46/21
f 84/48/14 32/29/14 30/49/14
f 32/29/24 82/50/24 30/49/24
f 34/34/12 83/50/12 82/50/12
f 33/1/25 84/48/25 83/51/25
f 19/33/12 36/49/12 35/22/12
f 36/49/26 20/21/26 35/22/26
f 38/48/14 17/33/14 20/21/14
f 37/51/27 19/33/27 17/33/27
f 25/34/28 39/52/28 28/22/28
f 28/22/29 18/53/29 24/21/29
f 18/53/30 29/46/30 24/21/30
f 40/54/31 25/33/31 29/46/31
f 15/55/30 41/52/30 16/22/30
f 16/22/32 43/53/32 14/21/32
f 43/53/28 11/33/28 14/21/28
f 42/40/33 15/33/33 11/33/33
f 79/56/34 48/57/34 50/58/34
f 51/59/35 48/60/35 49/61/35
f 80/62/36 49/57/36 81/63/36
f 78/64/37 49/65/37 48/66/37
f 79/64/38 51/67/38 80/68/38
f 74/69/34 58/70/34 75/71/34
f 59/72/35 56/73/35 57/74/35
f 77/75/36 59/76/36 57/77/36
f 74/78/39 57/79/39 56/80/39
f 75/78/40 59/81/40 76/82/40
f 42/83/41 64/10/41 8/84/41
f 8/16/42 65/14/42 7/17/42
f 6/7/43 63/11/43 5/85/43
f 4/83/44 65/10/44 9/84/44
f 4/83/45 63/4/45 62/6/45
f 42/83/46 61/4/46 60/6/46
f 37/86/12 72/87/12 38/54/12
f 34/30/12 68/30/12 33/32/12
f 38/88/13 73/89/13 36/89/13
f 33/32/13 69/30/13 22/30/13
f 8/43/11 71/90/11 37/86/11
f 32/30/11 67/30/11 34/30/11
f 44/91/12 47/59/12 45/92/12
f 52/93/12 55/72/12 53/94/12
f 55/79/40 75/78/40 76/82/40
f 53/81/47 74/78/47 52/72/47
f 53/95/48 76/96/48 77/75/48
f 52/97/49 75/71/49 54/98/49
f 47/65/50 79/64/50 80/68/50
f 45/67/51 78/64/51 44/59/51
f 47/99/48 81/63/48 45/100/48
f 46/101/49 78/102/49 79/56/49
f 35/16/52 17/103/52 19/104/52
f 29/103/15 28/105/15 24/104/15
f 84/106/52 82/104/52 30/107/52
f 1/1/53 2/108/53 3/2/53
f 61/4/54 6/109/54 40/5/54
f 6/7/55 5/85/55 4/8/55
f 63/4/56 2/109/56 1/5/56
f 1/5/57 7/3/57 65/10/57
f 3/2/6 2/108/6 63/11/6
f 22/13/7 9/110/7 65/14/7
f 40/5/58 22/3/58 64/10/58
f 1/3/59 42/1/59 8/16/59
f 4/18/60 9/110/60 22/13/60
f 10/20/11 12/39/11 11/21/11
f 12/23/12 6/25/12 14/24/12
f 6/25/13 13/20/13 16/22/13
f 13/20/14 10/20/14 15/22/14
f 14/26/15 16/111/15 15/27/15
f 15/29/11 32/30/11 34/30/11
f 34/30/16 33/32/16 14/21/16
f 33/32/13 22/30/13 16/33/13
f 22/30/17 32/30/17 15/34/17
f 22/30/14 69/30/14 66/30/14
f 17/35/18 18/24/18 39/34/18
f 19/35/19 39/34/19 21/33/19
f 21/33/20 40/21/20 20/37/20
f 40/21/21 18/22/21 17/38/21
f 23/39/11 3/23/11 24/1/11
f 3/23/12 27/20/12 29/22/12
f 27/20/13 26/39/13 25/21/13
f 26/39/14 23/23/14 28/1/14
f 38/40/13 36/40/13 25/41/13
f 36/40/61 8/43/61 28/42/61
f 8/43/14 36/40/14 73/44/14
f 82/46/22 42/37/22 31/36/22
f 31/36/19 41/47/19 84/22/19
f 41/47/23 43/38/23 83/29/23
f 83/29/21 43/38/21 42/37/21
f 84/48/14 22/21/14 32/29/14
f 32/29/24 34/34/24 82/50/24
f 34/34/12 33/24/12 83/50/12
f 33/1/25 22/21/25 84/48/25
f 19/33/12 8/51/12 36/49/12
f 36/49/26 38/48/26 20/21/26
f 38/48/14 37/51/14 17/33/14
f 37/51/27 8/51/27 19/33/27
f 25/34/28 21/43/28 39/52/28
f 28/22/29 39/52/29 18/53/29
f 18/53/30 40/54/30 29/46/30
f 40/54/31 21/40/31 25/33/31
f 15/55/30 31/86/30 41/52/30
f 16/22/32 41/52/32 43/53/32
f 43/53/28 42/40/28 11/33/28
f 42/40/33 31/40/33 15/33/33
f 79/56/34 78/102/34 48/57/34
f 51/59/35 50/67/35 48/60/35
f 80/62/36 51/112/36 49/57/36
f 78/64/62 81/68/62 49/65/62
f 79/64/63 50/59/63 51/67/63
f 74/69/34 56/77/34 58/70/34
f 59/72/35 58/81/35 56/73/35
f 77/75/36 76/96/36 59/76/36
f 74/78/64 77/82/64 57/79/64
f 75/78/65 58/72/65 59/81/65
f 42/83/66 60/6/66 64/10/66
f 8/16/42 64/15/42 65/14/42
f 6/7/43 61/12/43 63/11/43
f 4/83/67 62/6/67 65/10/67
f 4/83/68 5/113/68 63/4/68
f 42/83/69 3/113/69 61/4/69
f 37/86/12 71/90/12 72/87/12
f 34/30/12 67/30/12 68/30/12
f 38/88/13 72/88/13 73/89/13
f 33/32/13 68/30/13 69/30/13
f 8/43/11 70/45/11 71/90/11
f 32/30/11 66/30/11 67/30/11
f 44/91/12 46/67/12 47/59/12
f 52/93/12 54/81/12 55/72/12
f 55/79/70 54/80/70 75/78/70
f 53/81/71 77/82/71 74/78/71
f 53/95/48 55/114/48 76/96/48
f 52/97/49 74/69/49 75/71/49
f 47/65/72 46/66/72 79/64/72
f 45/67/62 81/68/62 78/64/62
f 47/99/48 80/62/48 81/63/48
f 46/101/49 44/115/49 78/102/49
f 35/16/52 20/116/52 17/103/52
f 29/103/15 25/117/15 28/105/15
f 84/106/52 83/16/52 82/104/52
