# Blender 4.2.0
# www.blender.org
mtllib GrillTongue01.mtl
o GrillTongue01
v -0.093823 0.041042 0.026880
v -0.093823 0.053542 0.026880
v -0.093823 0.041042 -0.026880
v -0.093823 0.053542 -0.026880
v 0.312500 0.026880 0.010752
v 0.312500 0.026880 -0.010752
v -0.140092 0.042410 0.050589
v -0.140092 0.054910 0.050589
v -0.140092 0.042410 -0.050589
v -0.140092 0.054910 -0.050589
v -0.255272 0.043777 0.053864
v -0.255272 0.056277 0.053864
v -0.255272 0.043777 -0.053864
v -0.255272 0.056277 -0.053864
v -0.308432 0.042410 0.017753
v -0.308432 0.054910 0.017753
v -0.308432 0.042410 -0.017753
v -0.308432 0.054910 -0.017753
v -0.093823 0.042917 0.000000
v -0.093823 0.055417 0.000000
v 0.312500 0.026880 0.000000
v -0.140092 0.044285 0.000000
v -0.140092 0.056785 -0.000000
v -0.255272 0.045652 0.000000
v -0.255272 0.058152 -0.000000
v -0.313537 0.044285 0.000000
v -0.313537 0.056785 0.000000
v 0.141975 0.025570 0.016128
v 0.141803 0.025570 0.016128
v 0.141803 0.025570 -0.016128
v 0.141975 0.025570 -0.016128
v 0.141975 0.038070 -0.016128
v 0.141975 0.038070 0.016128
v 0.141975 0.039945 0.000000
v 0.141975 0.025570 0.000000
v -0.093823 -0.041042 0.026880
v -0.093823 -0.053542 0.026880
v -0.093823 -0.041042 -0.026880
v -0.093823 -0.053542 -0.026880
v 0.312500 -0.026880 0.010752
v 0.312500 -0.026880 -0.010752
v -0.140092 -0.042410 0.050589
v -0.140092 -0.054910 0.050589
v -0.140092 -0.042410 -0.050589
v -0.140092 -0.054910 -0.050589
v -0.255272 -0.043777 0.053864
v -0.255272 -0.056277 0.053864
v -0.255272 -0.043777 -0.053864
v -0.255272 -0.056277 -0.053864
v -0.308432 -0.042410 0.017753
v -0.308432 -0.054910 0.017753
v -0.308432 -0.042410 -0.017753
v -0.308432 -0.054910 -0.017753
v -0.093823 -0.042917 0.000000
v -0.093823 -0.055417 0.000000
v 0.312500 -0.026880 0.000000
v -0.140092 -0.044285 0.000000
v -0.140092 -0.056785 -0.000000
v -0.255272 -0.045652 0.000000
v -0.255272 -0.058152 -0.000000
v -0.313537 -0.044285 0.000000
v -0.313537 -0.056785 0.000000
v 0.141803 -0.025570 0.016128
v 0.141803 -0.025570 -0.016128
v 0.312500 -0.014380 0.010752
v 0.312500 -0.014380 -0.010752
v 0.141975 -0.025570 -0.016128
v 0.141975 -0.038070 -0.016128
v 0.141975 -0.025570 0.016128
v 0.141975 -0.038070 0.016128
v 0.141975 -0.039945 0.000000
v 0.141975 -0.025570 0.000000
v 0.346419 0.000000 0.002500
v 0.333463 0.017832 0.002500
v 0.312500 0.011021 0.002500
v 0.312500 -0.011021 0.002500
v 0.333463 -0.017832 0.002500
v 0.346419 0.000000 -0.002500
v 0.333463 0.017832 -0.002500
v 0.312500 0.011021 -0.002500
v 0.312500 -0.011021 -0.002500
v 0.333463 -0.017832 -0.002500
vn 0.4560 -0.0000 -0.8900
vn 0.0456 -0.0000 0.9990
vn 0.0650 0.9912 0.1152
vn 0.0119 0.9992 -0.0370
vn 0.4560 -0.0000 0.8900
vn 0.0295 0.9971 -0.0696
vn -0.0295 -0.9971 -0.0696
vn -0.5619 -0.0000 -0.8272
vn -0.0119 -0.9992 -0.0370
vn 0.0284 -0.0000 -0.9996
vn 0.0284 -0.0000 0.9996
vn -0.9610 -0.0000 -0.2764
vn -0.5619 -0.0000 0.8272
vn -0.0233 0.9935 -0.1116
vn 0.0233 -0.9935 -0.1116
vn 0.0493 -0.9982 0.0347
vn -0.0493 0.9982 0.0347
vn -0.9610 -0.0000 0.2764
vn -0.0129 -0.9993 0.0348
vn -0.0485 -0.9981 0.0370
vn 0.0485 0.9981 0.0370
vn 0.0129 0.9993 0.0348
vn 0.0650 0.9912 -0.1152
vn -0.0000 -1.0000 -0.0000
vn 0.0315 -0.0000 0.9995
vn 0.0315 -0.0000 -0.9995
vn -0.0685 -0.9952 0.0694
vn 0.0764 0.9971 -0.0000
vn -0.0685 -0.9952 -0.0694
vn 0.0456 -0.0000 -0.9990
vn 0.0650 -0.9912 0.1152
vn 0.0119 -0.9992 -0.0370
vn 0.0295 -0.9971 -0.0696
vn -0.0295 0.9971 -0.0696
vn -0.0119 0.9992 -0.0370
vn -0.0493 -0.9982 -0.0347
vn 0.0493 0.9982 -0.0347
vn 0.0493 0.9982 0.0347
vn -0.0493 -0.9982 0.0347
vn -0.0119 0.9992 0.0370
vn -0.0295 0.9971 0.0696
vn 0.0295 -0.9971 0.0696
vn 0.0119 -0.9992 0.0370
vn 0.0685 -0.9952 -0.0694
vn -1.0000 0.0034 -0.0000
vn -0.0685 0.9952 0.0694
vn 0.0687 -0.9910 -0.1152
vn 0.0764 -0.9971 -0.0000
vn -0.0734 0.9973 -0.0000
vn 1.0000 -0.0000 -0.0000
vn -0.3090 -0.9511 -0.0000
vn -0.3090 0.9511 -0.0000
vn 0.8090 -0.5878 -0.0000
vn 0.8090 0.5878 -0.0000
vn -0.0000 -0.0000 1.0000
vn -0.0000 -0.0000 -1.0000
vn 0.0685 0.9952 0.0694
vn 0.0129 0.9993 -0.0348
vn 0.0485 0.9981 -0.0370
vn -0.0485 -0.9981 -0.0370
vn -0.0129 -0.9993 -0.0348
vn -0.0493 0.9982 -0.0347
vn 0.0493 -0.9982 -0.0347
vn 0.0233 -0.9935 0.1116
vn -0.0233 0.9935 0.1116
vn -0.0119 -0.9992 0.0370
vn -0.0295 -0.9971 0.0696
vn 0.0295 0.9971 0.0696
vn 0.0119 0.9992 0.0370
vn 0.0685 0.9952 -0.0694
vn -0.0734 -0.9973 -0.0000
vn 0.0687 0.9910 -0.1152
vn 0.0687 0.9910 0.1152
vn 0.0685 -0.9952 0.0694
vn 0.0129 -0.9993 -0.0348
vn 0.0485 -0.9981 -0.0370
vn -0.0485 0.9981 -0.0370
vn -0.0129 0.9993 -0.0348
vn -0.0233 -0.9935 -0.1116
vn 0.0233 0.9935 -0.1116
vn 0.0233 0.9935 0.1116
vn -0.0233 -0.9935 0.1116
vn -0.0129 0.9993 0.0348
vn -0.0485 0.9981 0.0370
vn 0.0485 -0.9981 0.0370
vn 0.0129 -0.9993 0.0348
vn 0.0650 -0.9912 -0.1152
vn 0.0687 -0.9910 0.1152
vn -0.0685 0.9952 -0.0694
vt 0.421875 0.333333
vt 0.359375 0.277778
vt 0.359375 0.333333
vt 0.562500 0.222222
vt 0.375000 0.666667
vt 0.750000 0.555556
vt 0.750000 0.666667
vt 0.296875 0.944444
vt 0.109375 0.666667
vt 0.296875 0.666667
vt 0.562500 0.277778
vt 0.734375 0.166667
vt 0.375000 0.833333
vt 0.218750 0.277778
vt 0.125000 0.333333
vt 0.203125 0.333333
vt 0.734375 0.222222
vt 0.843750 0.111111
vt 0.109375 0.277778
vt 0.125000 0.277778
vt 0.890625 0.166667
vt 0.890625 0.111111
vt 0.046875 0.833333
vt -0.000000 0.666667
vt 0.046875 0.500000
vt 0.109375 0.388889
vt 0.921875 0.111111
vt 0.296875 0.388889
vt 0.375000 0.500000
vt 0.750000 0.777778
vt 0.500000 0.777778
vt 0.546875 0.555556
vt 0.546875 0.777778
vt 0.109375 0.500000
vt 0.328125 0.777778
vt 0.109375 0.833333
vt 0.328125 0.555556
vt 1.000000 0.722222
vt 1.000000 0.666667
vt 1.000000 0.611111
vt 0.421875 0.277778
vt 0.109375 0.333333
vt 0.843750 0.166667
vt 0.109375 0.944444
vt 0.328125 0.666667
vt 0.218750 0.555556
vt 0.359375 0.666667
vt 0.421875 0.611111
vt 0.421875 0.666667
vt 0.562500 0.666667
vt 0.640625 0.611111
vt 0.640625 0.666667
vt 0.500000 0.611111
vt 0.500000 0.666667
vt 0.562500 0.611111
vt 1.015625 0.000000
vt 0.968750 0.166667
vt 0.968750 -0.166667
vt 0.937500 0.111111
vt 0.937500 -0.111111
vt 0.921875 0.166667
vt 0.500000 0.555556
vt 0.218750 0.666667
vt 0.359375 0.611111
s 0
usemtl Primary
f 4/1/1 9/2/1 10/3/1
f 33/3/2 1/4/2 28/2/2
f 20/5/3 33/6/3 34/7/3
f 10/8/4 25/9/4 23/10/4
f 2/11/5 7/12/5 1/4/5
f 4/13/6 23/10/6 20/5/6
f 1/13/7 22/10/7 19/5/7
f 13/14/8 18/15/8 14/16/8
f 7/8/9 24/9/9 22/10/9
f 10/3/10 13/14/10 14/16/10
f 8/17/11 11/18/11 7/12/11
f 26/19/12 18/15/12 17/20/12
f 11/18/13 16/21/13 15/22/13
f 25/9/14 18/23/14 27/24/14
f 24/9/15 15/23/15 26/24/15
f 24/9/16 17/25/16 13/26/16
f 25/9/17 16/25/17 12/26/17
f 16/21/18 26/27/18 15/22/18
f 9/28/19 24/9/19 13/26/19
f 3/29/20 22/10/20 9/28/20
f 2/29/21 23/10/21 8/28/21
f 8/28/22 25/9/22 12/26/22
f 32/30/23 20/5/23 34/7/23
f 29/31/24 31/32/24 28/33/24
f 70/34/25 5/35/25 33/36/25
f 41/37/26 32/36/26 6/35/26
f 31/6/27 19/5/27 3/29/27
f 6/38/28 34/7/28 21/39/28
f 34/7/28 5/40/28 21/39/28
f 19/5/29 28/30/29 1/13/29
f 3/41/30 32/17/30 31/12/30
f 39/1/1 44/2/1 38/41/1
f 36/4/2 70/3/2 69/2/2
f 70/6/31 55/5/31 71/7/31
f 60/9/32 45/8/32 58/10/32
f 42/12/5 37/11/5 36/4/5
f 58/10/33 39/13/33 55/5/33
f 57/10/34 36/13/34 54/5/34
f 53/15/8 48/14/8 49/16/8
f 59/9/35 42/8/35 57/10/35
f 45/3/10 48/14/10 44/2/10
f 46/18/11 43/17/11 42/12/11
f 61/19/12 53/15/12 62/42/12
f 46/18/13 51/21/13 47/43/13
f 60/9/36 53/23/36 49/44/36
f 59/9/37 50/23/37 46/44/37
f 52/25/38 59/9/38 48/26/38
f 51/25/39 60/9/39 47/26/39
f 61/27/18 51/21/18 50/22/18
f 44/28/40 59/9/40 57/10/40
f 38/29/41 57/10/41 54/5/41
f 37/29/42 58/10/42 55/5/42
f 43/28/43 60/9/43 58/10/43
f 68/30/44 55/5/44 39/13/44
f 31/32/45 63/31/45 28/33/45
f 54/5/46 67/6/46 38/29/46
f 41/38/47 71/7/47 68/30/47
f 40/40/48 71/7/48 56/39/48
f 54/5/49 69/30/49 72/7/49
f 38/41/30 68/17/30 39/1/30
f 5/45/50 41/46/50 6/37/50
f 76/47/51 82/48/51 77/49/51
f 74/50/52 80/51/52 75/52/52
f 77/49/53 78/53/53 73/54/53
f 73/54/54 79/55/54 74/50/54
f 73/56/55 74/57/55 77/58/55
f 78/56/56 82/57/56 79/58/56
f 79/58/56 81/59/56 80/60/56
f 76/60/55 74/57/55 75/59/55
f 4/1/1 3/41/1 9/2/1
f 33/3/2 2/11/2 1/4/2
f 20/5/57 2/29/57 33/6/57
f 10/8/58 14/44/58 25/9/58
f 2/11/5 8/17/5 7/12/5
f 4/13/59 10/8/59 23/10/59
f 1/13/60 7/8/60 22/10/60
f 13/14/8 17/20/8 18/15/8
f 7/8/61 11/44/61 24/9/61
f 10/3/10 9/2/10 13/14/10
f 8/17/11 12/43/11 11/18/11
f 26/19/12 27/42/12 18/15/12
f 11/18/13 12/43/13 16/21/13
f 25/9/62 14/44/62 18/23/62
f 24/9/63 11/44/63 15/23/63
f 24/9/64 26/24/64 17/25/64
f 25/9/65 27/24/65 16/25/65
f 16/21/18 27/61/18 26/27/18
f 9/28/66 22/10/66 24/9/66
f 3/29/67 19/5/67 22/10/67
f 2/29/68 20/5/68 23/10/68
f 8/28/69 23/10/69 25/9/69
f 32/30/70 4/13/70 20/5/70
f 29/31/24 30/62/24 31/32/24
f 70/34/25 40/37/25 5/35/25
f 41/37/26 68/34/26 32/36/26
f 31/6/71 35/7/71 19/5/71
f 6/38/72 32/30/72 34/7/72
f 34/7/73 33/6/73 5/40/73
f 19/5/71 35/7/71 28/30/71
f 3/41/30 4/1/30 32/17/30
f 39/1/1 45/3/1 44/2/1
f 36/4/2 37/11/2 70/3/2
f 70/6/74 37/29/74 55/5/74
f 60/9/75 49/44/75 45/8/75
f 42/12/5 43/17/5 37/11/5
f 58/10/76 45/8/76 39/13/76
f 57/10/77 42/8/77 36/13/77
f 53/15/8 52/20/8 48/14/8
f 59/9/78 46/44/78 42/8/78
f 45/3/10 49/16/10 48/14/10
f 46/18/11 47/43/11 43/17/11
f 61/19/12 52/20/12 53/15/12
f 46/18/13 50/22/13 51/21/13
f 60/9/79 62/24/79 53/23/79
f 59/9/80 61/24/80 50/23/80
f 52/25/81 61/24/81 59/9/81
f 51/25/82 62/24/82 60/9/82
f 61/27/18 62/61/18 51/21/18
f 44/28/83 48/26/83 59/9/83
f 38/29/84 44/28/84 57/10/84
f 37/29/85 43/28/85 58/10/85
f 43/28/86 47/26/86 60/9/86
f 68/30/87 71/7/87 55/5/87
f 31/32/45 64/62/45 63/31/45
f 54/5/49 72/7/49 67/6/49
f 41/38/48 56/39/48 71/7/48
f 40/40/88 70/6/88 71/7/88
f 54/5/89 36/13/89 69/30/89
f 38/41/30 67/12/30 68/17/30
f 5/45/50 40/63/50 41/46/50
f 76/47/51 81/64/51 82/48/51
f 74/50/52 79/55/52 80/51/52
f 77/49/53 82/48/53 78/53/53
f 73/54/54 78/53/54 79/55/54
f 79/58/56 82/57/56 81/59/56
f 76/60/55 77/58/55 74/57/55
l 41 66
l 40 65
