# Blender 4.2.0
# www.blender.org
mtllib SleepingBag01.mtl
o SleepingBag01
v -0.226029 0.000000 2.231647
v -0.217230 0.075058 2.137720
v -0.326842 0.000000 -2.330092
v -0.311970 0.087392 -2.263399
v 0.002888 0.000000 2.231647
v -0.002102 0.064657 2.137720
v 0.024944 0.000000 -2.330092
v 0.018626 0.087392 -2.263399
v -0.979183 0.000000 -1.777103
v -1.022601 0.000000 -1.204424
v -0.832068 0.000000 -0.631746
v -0.846987 0.000000 -0.059067
v -0.614363 0.000000 0.513612
v -0.567810 0.000000 1.086290
v -0.499259 0.000000 1.658969
v -0.474002 0.077327 1.555590
v -0.538423 0.092136 1.017407
v -0.582172 0.075419 0.479224
v -0.800784 0.094927 -0.058959
v -0.786764 0.094750 -0.597142
v -0.965820 0.053190 -1.135325
v -0.925017 0.029617 -1.743745
v 0.382766 0.000000 1.658969
v 0.512025 0.000000 1.086290
v 0.684915 0.000000 0.513612
v 0.735416 0.000000 -0.059067
v 0.748390 0.000000 -0.631745
v 0.743675 0.000000 -1.204424
v 0.728149 0.000000 -1.777103
v 0.679473 0.050078 -1.743745
v 0.694063 0.108993 -1.135325
v 0.698495 0.093209 -0.597142
v 0.686303 0.102957 -0.058959
v 0.638843 0.093696 0.479224
v 0.476367 0.082791 1.017407
v 0.354894 0.074504 1.555590
v -0.406079 0.000000 1.989255
v 0.278892 0.043813 1.892791
v -0.386435 0.114061 1.892791
v 0.301892 0.000000 1.945308
v -0.709946 0.100435 -2.012837
v 0.447609 0.000000 -2.063442
v -0.750327 0.000000 -2.063442
v 0.415831 0.100942 -2.012837
v -0.150949 0.000000 -2.330092
v -0.146672 0.095458 -2.263399
v -0.111571 0.000000 2.231647
v -0.109666 0.074914 2.185292
v -0.122772 0.119236 -1.673509
v -0.135879 0.170868 -1.135325
v -0.044135 0.183757 -0.597142
v -0.057241 0.188719 -0.058959
v 0.028335 0.174335 0.479224
v -0.031028 0.177240 1.017407
v -0.059554 0.139817 1.555590
v -0.053772 0.134234 1.824682
v -0.147057 0.101739 -1.942600
vn -0.4290 0.5930 -0.6814
vn -0.0000 0.6067 -0.7950
vn 0.4647 0.7407 0.4852
vn -0.0000 0.5262 0.8504
vn -0.0659 0.9862 0.1520
vn 0.0058 0.9978 -0.0654
vn -0.1397 0.9853 -0.0979
vn -0.1190 0.9929 -0.0035
vn -0.1190 0.9928 -0.0121
vn -0.1597 0.9858 0.0517
vn -0.1599 0.9869 -0.0230
vn -0.1488 0.9870 0.0607
vn 0.4663 0.7575 -0.4568
vn 0.7105 0.7034 -0.0193
vn 0.9083 0.4182 -0.0075
vn 0.8845 0.4661 0.0200
vn 0.8830 0.4628 0.0779
vn 0.8016 0.5466 0.2420
vn 0.8102 0.5569 0.1829
vn -0.8950 0.3677 0.2525
vn -0.8940 0.4351 0.1070
vn -0.9322 0.3540 0.0758
vn -0.8059 0.4933 0.3274
vn -0.8986 0.4382 -0.0234
vn -0.8126 0.5163 0.2704
vn -0.4627 0.8858 -0.0351
vn -0.6146 0.6433 0.4565
vn -0.0560 0.9982 0.0219
vn 0.7401 0.6391 0.2090
vn 0.4404 0.5646 -0.6981
vn -0.0487 0.9986 -0.0196
vn -0.3317 0.9053 -0.2651
vn -0.0044 0.9989 -0.0470
vn 0.2329 0.9624 0.1401
vn 0.1827 0.9816 0.0564
vn 0.1307 0.9896 0.0595
vn 0.1309 0.9910 0.0286
vn 0.1210 0.9925 -0.0152
vn 0.1210 0.9923 0.0281
vn 0.0770 0.9922 -0.0979
vn 0.0938 0.9910 0.0954
vn 0.2245 0.9585 0.1760
vn -0.4362 0.5386 -0.7209
vn 0.0279 0.5717 -0.8200
vn 0.4484 0.7731 0.4486
vn -0.2590 0.7662 0.5880
vn -0.0242 0.9845 0.1735
vn -0.1234 0.9795 0.1592
vn -0.1070 0.9932 -0.0457
vn -0.1403 0.9897 -0.0297
vn -0.1251 0.9921 -0.0036
vn -0.1247 0.9884 0.0865
vn -0.1654 0.9861 -0.0172
vn -0.1652 0.9851 0.0469
vn 0.6669 0.4910 -0.5606
vn 0.8921 0.4471 -0.0647
vn 0.8826 0.4700 0.0065
vn 0.9025 0.4305 0.0126
vn 0.8992 0.4289 0.0867
vn 0.8256 0.5011 0.2594
vn 0.8311 0.5207 0.1956
vn -0.8500 0.4999 0.1663
vn -0.9163 0.3821 0.1202
vn -0.9077 0.4152 0.0609
vn -0.8403 0.4086 0.3562
vn -0.8989 0.4375 -0.0236
vn -0.9027 0.3313 0.2747
vn -0.6336 0.7703 -0.0723
vn -0.6385 0.5581 0.5299
vn -0.1487 0.9865 -0.0688
vn 0.7656 0.6018 0.2273
vn 0.4466 0.5094 -0.7356
vn 0.0035 0.9989 -0.0465
vn -0.7294 0.5183 -0.4466
vn 0.0487 0.9986 -0.0195
vn 0.1556 0.9877 0.0171
vn 0.1552 0.9849 0.0767
vn 0.1830 0.9830 0.0149
vn 0.1146 0.9934 0.0083
vn 0.1146 0.9934 -0.0064
vn 0.0743 0.9966 -0.0365
vn 0.0740 0.9929 -0.0935
vn -0.0066 0.9979 -0.0643
vn 0.1745 0.9669 0.1861
vn 0.3090 0.7910 0.5281
vn -0.0280 0.5733 -0.8188
vt 0.113636 0.931818
vt 0.340909 0.977273
vt 0.318182 0.992424
vt 0.454545 1.000000
vt 0.636364 0.977273
vt 0.636364 0.992424
vt 0.750000 0.060606
vt 0.590909 0.030303
vt 0.590909 0.007576
vt 0.500000 0.030303
vt 0.386364 0.007576
vt 0.500000 0.007576
vt 0.522727 0.090909
vt 0.409091 0.030303
vt 0.136364 0.909091
vt 0.477273 0.856061
vt 0.477273 0.916667
vt 0.045455 0.727273
vt 0.500000 0.719697
vt 0.159091 0.613636
vt 0.545455 0.606061
vt 0.545455 0.492424
vt 0.227273 0.386364
vt 0.590909 0.378788
vt 0.568182 0.265152
vt 0.318182 0.151515
vt 0.522727 0.151515
vt 0.840909 0.946970
vt 0.977273 0.871212
vt 1.000000 0.878788
vt 1.000000 0.727273
vt 0.931818 0.712121
vt 1.000000 0.606061
vt 0.954545 0.598485
vt 1.000000 0.484848
vt 0.909091 0.371212
vt 0.954545 0.363636
vt 0.818182 0.257576
vt 0.886364 0.242424
vt 0.772727 0.143939
vt 0.818182 0.121212
vt 0.363636 0.098485
vt 0.272727 0.128788
vt 0.318182 0.068182
vt 0.227273 0.250000
vt 0.272727 0.265152
vt 0.204545 0.378788
vt 0.227273 0.257576
vt 0.136364 0.492424
vt 0.204545 0.371212
vt 0.136364 0.500000
vt 0.090909 0.621212
vt -0.000000 0.742424
vt 0.022727 0.750000
vt 0.045455 0.856061
vt -0.000000 0.863636
vt 0.318182 0.060606
vt 0.795455 0.113636
vt 0.727273 0.090909
vt 0.454545 0.984848
vt 0.818182 0.931818
vt 0.954545 0.484848
vt 0.340909 0.992424
vt 0.204545 0.500000
s 0
usemtl Primary
f 43/1/1 4/2/1 3/3/1
f 45/4/2 8/5/2 7/6/2
f 40/7/3 6/8/3 5/9/3
f 48/10/4 1/11/4 47/12/4
f 56/13/5 2/14/5 48/10/5
f 41/15/6 49/16/6 57/17/6
f 49/16/7 21/18/7 50/19/7
f 50/19/8 20/20/8 51/21/8
f 20/20/9 52/22/9 51/21/9
f 52/22/10 18/23/10 53/24/10
f 18/23/11 54/25/11 53/24/11
f 54/25/12 16/26/12 55/27/12
f 42/28/13 30/29/13 29/30/13
f 30/29/14 28/31/14 29/30/14
f 31/32/15 27/33/15 28/31/15
f 32/34/16 26/35/16 27/33/16
f 26/35/17 34/36/17 25/37/17
f 25/37/18 35/38/18 24/39/18
f 24/39/19 36/40/19 23/41/19
f 39/42/20 15/43/20 37/44/20
f 16/26/21 14/45/21 15/43/21
f 17/46/22 13/47/22 14/48/22
f 18/23/23 12/49/23 13/50/23
f 12/51/24 20/20/24 11/52/24
f 11/52/25 21/18/25 10/53/25
f 10/54/26 22/55/26 9/56/26
f 2/14/27 37/57/27 1/11/27
f 55/27/28 39/42/28 56/13/28
f 23/58/29 38/59/29 40/7/29
f 8/5/30 42/28/30 7/6/30
f 4/2/31 57/17/31 46/60/31
f 22/55/32 43/1/32 9/56/32
f 8/5/33 57/17/33 44/61/33
f 36/40/34 56/13/34 38/59/34
f 54/25/35 36/40/35 35/38/35
f 53/24/36 35/38/36 34/36/36
f 33/62/37 53/24/37 34/36/37
f 51/21/38 33/62/38 32/34/38
f 31/32/39 51/21/39 32/34/39
f 49/16/40 31/32/40 30/29/40
f 44/61/41 49/16/41 30/29/41
f 56/13/42 6/8/42 38/59/42
f 5/9/4 48/10/4 47/12/4
f 4/2/2 45/4/2 3/63/2
f 43/1/43 41/15/43 4/2/43
f 45/4/44 46/60/44 8/5/44
f 40/7/45 38/59/45 6/8/45
f 48/10/46 2/14/46 1/11/46
f 56/13/47 39/42/47 2/14/47
f 41/15/48 22/55/48 49/16/48
f 49/16/49 22/55/49 21/18/49
f 50/19/50 21/18/50 20/20/50
f 20/20/51 19/64/51 52/22/51
f 52/22/52 19/64/52 18/23/52
f 18/23/53 17/46/53 54/25/53
f 54/25/54 17/46/54 16/26/54
f 42/28/55 44/61/55 30/29/55
f 30/29/56 31/32/56 28/31/56
f 31/32/57 32/34/57 27/33/57
f 32/34/58 33/62/58 26/35/58
f 26/35/59 33/62/59 34/36/59
f 25/37/60 34/36/60 35/38/60
f 24/39/61 35/38/61 36/40/61
f 39/42/62 16/26/62 15/43/62
f 16/26/63 17/46/63 14/45/63
f 17/46/64 18/23/64 13/47/64
f 18/23/65 19/64/65 12/49/65
f 12/51/66 19/64/66 20/20/66
f 11/52/67 20/20/67 21/18/67
f 10/54/68 21/18/68 22/55/68
f 2/14/69 39/42/69 37/57/69
f 55/27/70 16/26/70 39/42/70
f 23/58/71 36/40/71 38/59/71
f 8/5/72 44/61/72 42/28/72
f 4/2/73 41/15/73 57/17/73
f 22/55/74 41/15/74 43/1/74
f 8/5/75 46/60/75 57/17/75
f 36/40/76 55/27/76 56/13/76
f 54/25/77 55/27/77 36/40/77
f 53/24/78 54/25/78 35/38/78
f 33/62/79 52/22/79 53/24/79
f 51/21/80 52/22/80 33/62/80
f 31/32/81 50/19/81 51/21/81
f 49/16/82 50/19/82 31/32/82
f 44/61/83 57/17/83 49/16/83
f 56/13/84 48/10/84 6/8/84
f 5/9/85 6/8/85 48/10/85
f 4/2/86 46/60/86 45/4/86
