# Blender 4.2.0
# www.blender.org
mtllib SleepingPad02.mtl
o SleepingPad02
v 1.700000 0.036250 -0.725000
v 1.700000 -0.036250 -0.725000
v 1.700000 0.036250 0.725000
v 1.700000 -0.036250 0.725000
v -2.200000 0.036250 -0.725000
v -2.200000 -0.036250 -0.725000
v -2.200000 0.036250 0.725000
v -2.200000 -0.036250 0.725000
vn -0.0000 -0.0000 1.0000
vn 1.0000 -0.0000 -0.0000
vn -0.0000 -0.0000 -1.0000
vn -0.0000 1.0000 -0.0000
vn -1.0000 -0.0000 -0.0000
vt 0.093750 -0.000000
vt 0.041667 0.780488
vt 0.041667 -0.000000
vt 0.000000 0.484756
vt 1.000000 0.500000
vt 0.000000 0.500000
vt 0.000000 0.780488
vt 0.000089 0.000089
vt 1.000000 0.780488
vt 1.000000 0.515244
vt 0.093750 0.780488
vt 1.000000 0.484756
vt 0.000000 -0.000000
vt 0.999911 0.000089
vt 0.000000 0.515244
s 0
usemtl Primary
f 3/1/1 8/2/1 4/3/1
f 1/4/2 4/5/2 2/6/2
f 5/7/3 2/3/3 6/2/3
f 5/8/4 3/9/4 1/7/4
f 7/10/5 6/6/5 8/5/5
f 3/1/1 7/11/1 8/2/1
f 1/4/2 3/12/2 4/5/2
f 5/7/3 1/13/3 2/3/3
f 5/8/4 7/14/4 3/9/4
f 7/10/5 5/15/5 6/6/5
