# Blender 4.2.0
# www.blender.org
mtllib Tent02BB.mtl
o Tent02GB
v -2.250000 -0.951000 3.000000
v -2.250000 -0.951000 -3.000000
v 2.250000 -0.951000 -3.000000
v -0.000000 -0.951000 -3.000000
v -0.000000 1.992000 -3.000000
v -2.475000 0.174228 3.348750
v -2.475000 0.174228 -3.348751
v 2.475000 0.174228 3.348750
v 2.475000 0.174228 -3.348751
v -0.000000 1.779911 -3.348751
v -0.000000 1.779911 3.348750
v -0.045001 -0.996000 7.728361
v 0.045000 -0.996000 7.728361
v -0.045001 1.947000 3.000000
v 0.045000 1.947000 3.000000
v -0.000000 -0.951000 7.728361
v -0.000000 -1.041000 7.728361
v -0.045001 1.902000 3.000000
v -2.239875 0.320131 2.984275
v 2.239875 0.320131 2.984275
v 2.239875 0.320131 -2.984276
v -0.000000 1.815124 -2.984276
v -0.000000 1.861391 2.984275
v 3.506596 -0.934265 5.042103
v 3.523710 -0.934265 4.954267
v 2.206926 0.358734 3.028433
v 2.282832 0.358734 2.980076
v 3.555535 -0.934265 5.007941
v 3.474771 -0.934265 4.988428
v 2.244880 0.403735 3.004255
v 2.206927 0.313735 3.028434
v 3.563659 -0.934265 -5.007969
v 3.476820 -0.934265 -4.986358
v 2.287919 0.358734 -2.979054
v 2.212013 0.358734 -3.027412
v 3.512015 -0.934265 -5.037885
v 3.528463 -0.934265 -4.956441
v 2.249966 0.403735 -3.003233
v 2.287919 0.313735 -2.979055
v -3.503654 -0.934265 5.042103
v -3.520768 -0.934265 4.954267
v -2.203984 0.358734 3.028433
v -2.279890 0.358734 2.980076
v -3.552593 -0.934265 5.007941
v -3.471829 -0.934265 4.988428
v -2.241938 0.403735 3.004255
v -2.203985 0.313735 3.028434
v -3.560718 -0.934265 -5.007969
v -3.473878 -0.934265 -4.986358
v -2.284977 0.358734 -2.979054
v -2.209071 0.358734 -3.027412
v -3.509074 -0.934265 -5.037885
v -3.525521 -0.934265 -4.956441
v -2.247024 0.403735 -3.003233
v -2.284977 0.313735 -2.979055
v 0.045000 -0.996000 -7.728361
v -0.045001 -0.996000 -7.728361
v 0.045000 1.947000 -3.000000
v -0.045000 1.947000 -3.000000
v -0.000000 -0.951000 -7.728361
v -0.000000 -1.041000 -7.728361
v 0.045000 1.902000 -3.000000
v 4.646624 -0.934265 0.025189
v 4.581738 -0.934265 -0.036439
v 2.250000 0.358734 0.039375
v 2.250000 0.358734 -0.050626
v 4.644106 -0.934265 -0.034441
v 4.584255 -0.934265 0.023190
v 2.250000 0.403735 -0.005625
v 2.250000 0.313735 0.039375
v -2.250000 0.403735 3.000000
v -2.250000 0.403735 -3.000000
v 2.250000 0.403735 3.000000
v 2.250000 0.403735 -3.000000
v -2.239875 0.320131 -2.984276
v 2.239875 0.298234 2.984275
v 2.250000 0.403735 -0.000000
v 2.475000 0.278759 -0.000000
v 2.239875 0.320131 -0.000000
v -2.250000 0.403735 -0.000000
v -2.475000 0.278759 -0.000000
v -2.239875 0.320131 -0.000000
v -4.646624 -0.934265 -0.036439
v -4.581738 -0.934265 0.025189
v -2.250000 0.358734 -0.050626
v -2.250000 0.358734 0.039375
v -4.644106 -0.934265 0.023191
v -4.584255 -0.934265 -0.034441
v -2.250000 0.403735 -0.005625
v -2.250000 0.313735 -0.050626
v 2.250000 -0.951000 3.000000
v 2.021107 -0.951000 3.000000
v -0.000000 1.992000 3.000000
v -2.009589 -0.951000 3.000000
v -0.000000 1.976314 3.001083
v -1.947481 -0.951000 3.043916
v 0.062107 1.918398 3.045000
v -1.947481 -0.951000 2.956083
v 0.062107 1.929893 2.957167
v 0.011518 1.976314 3.001083
v 1.958999 -0.951000 3.043916
v -0.050589 1.918398 3.045000
v 1.958999 -0.951000 2.956083
v -0.050589 1.929893 2.957167
v -2.212537 -0.951000 2.962536
v -2.212537 0.405679 2.962536
v -2.212537 -0.951000 -2.962537
v -2.212537 0.405679 -2.962537
v 2.212536 -0.951000 -2.962537
v 2.212536 0.405679 -2.962537
v -0.000000 -0.951000 -2.962537
v -0.000000 1.967499 -2.962537
v -1.976128 -0.951000 2.962536
v 2.212536 -0.951000 2.962536
v 2.212536 0.405679 2.962536
v 1.987454 -0.951000 2.962536
v -0.000000 1.967499 2.962536
vn -1.0000 -0.0000 -0.0000
vn -0.0000 -0.0000 -1.0000
vn 1.0000 -0.0000 -0.0000
vn -0.0000 -0.0000 1.0000
vn -0.5165 -0.7316 -0.4449
vn -0.5767 0.8170 -0.0000
vn 0.5767 0.8170 -0.0000
vn -0.0000 1.0000 -0.0000
vn 0.5165 -0.7316 0.4449
vn 0.5336 -0.8225 -0.1970
vn -0.5336 -0.8225 0.1970
vn -0.0000 0.8490 0.5284
vn 0.8617 -0.4308 -0.2682
vn 0.5442 0.8388 0.0153
vn -0.5534 0.8291 -0.0801
vn 0.5575 0.8102 0.1811
vn -0.5442 0.8388 -0.0153
vn 0.6030 0.7891 0.1175
vn 0.1485 -0.7748 -0.6145
vn -0.1484 0.7891 -0.5961
vn -0.6197 -0.7748 0.1251
vn 0.6030 -0.7891 -0.1175
vn 0.1485 0.7748 0.6145
vn -0.1484 -0.7891 0.5961
vn -0.6197 0.7748 -0.1251
vn -0.0000 0.8490 -0.5284
vn -0.8617 -0.4308 0.2682
vn 0.4231 0.7891 -0.4454
vn -0.4385 -0.7748 -0.4554
vn -0.4856 0.8742 -0.0000
vn 0.4856 0.8742 -0.0000
vn -0.1733 -0.9848 -0.0072
vn 0.1733 -0.9849 -0.0000
vn -0.4964 -0.8677 0.0271
vn 0.6967 0.7170 -0.0224
vn 0.4964 -0.8677 -0.0271
vn -0.6967 0.7170 0.0224
vn -0.4231 0.7891 0.4454
vn 0.4385 -0.7748 0.4554
vn -0.5367 0.3687 -0.7590
vn 0.8191 -0.5737 -0.0000
vn -0.5368 0.3682 0.7591
vn -0.5367 -0.3687 0.7590
vn 0.8191 0.5737 -0.0000
vn -0.5368 -0.3682 -0.7591
vn -0.5336 -0.8225 -0.1970
vn 0.5336 -0.8225 0.1970
vn 0.5165 -0.7316 -0.4449
vn -0.5165 -0.7316 0.4449
vn 1.0000 -0.0000 -0.0095
vn 0.5534 0.8291 -0.0801
vn -0.5442 0.8388 0.0153
vn 0.5442 0.8388 -0.0153
vn -0.5575 0.8102 0.1811
vn 0.2606 0.8745 0.4090
vn 0.6046 -0.4343 -0.6677
vn 0.2606 0.8745 -0.4090
vn -0.8606 -0.4343 -0.2658
vn 0.2606 -0.8745 -0.4090
vn 0.6046 0.4343 0.6677
vn 0.2606 -0.8745 0.4090
vn -0.8606 0.4343 0.2658
vn -1.0000 -0.0000 0.0095
vn 0.4850 0.8745 -0.0000
vn -0.2382 -0.4343 -0.8687
vn -0.6967 0.7170 -0.0224
vn 0.6967 0.7170 0.0224
vn -0.4318 -0.9015 -0.0281
vn 0.4964 -0.8677 0.0271
vn -0.1733 -0.9849 -0.0000
vn -0.4850 0.8745 -0.0000
vn 0.2382 -0.4343 0.8687
vn -0.4042 0.2823 -0.8700
vn 0.8179 -0.5705 -0.0747
vn -0.3793 0.2653 0.8864
vn -0.4042 -0.2823 0.8700
vn 0.8179 0.5705 0.0747
vn -0.3793 -0.2653 -0.8864
vt 0.750000 0.328125
vt 0.250000 0.179688
vt 0.750000 0.179688
vt 0.007812 0.625000
vt 0.250000 0.773438
vt 0.250000 0.625000
vt 0.039062 0.234375
vt 0.296875 0.500000
vt 0.007812 0.289062
vt 0.078125 0.937500
vt 0.070312 0.507812
vt 0.132812 0.507812
vt 0.835938 0.070312
vt 0.773438 0.507812
vt 0.835938 0.945312
vt 0.000100 0.999900
vt 0.999900 0.000100
vt 0.000100 0.000100
vt 0.250000 0.328125
vt 0.007812 0.179688
vt 0.843750 0.507812
vt 0.078125 0.070312
vt 0.015625 0.023438
vt 0.898438 0.984375
vt -0.007812 0.000000
vt 0.007812 1.000000
vt 0.007812 0.000000
vt 0.500000 0.445312
vt 0.945312 0.406250
vt 0.992188 0.476562
vt 0.046875 0.406250
vt 0.500000 0.382812
vt 0.492188 0.320312
vt 0.046875 0.320312
vt 0.492188 0.257812
vt 0.945312 0.320312
vt 0.984375 0.382812
vt -0.007812 1.000000
vt 0.453125 0.023438
vt 0.453125 0.070312
vt 0.835938 0.937500
vt 0.460938 0.976562
vt 0.460938 0.937500
vt 0.437500 0.257812
vt 0.070312 0.210938
vt 0.437500 0.210938
vt 0.437500 0.171875
vt 0.812500 0.210938
vt 0.875000 0.257812
vt 0.085938 0.937500
vt 0.023438 0.992188
vt 0.007812 0.164062
vt 0.828125 0.070312
vt 0.890625 0.015625
vt 0.000000 0.179688
vt 0.992188 0.460938
vt 0.015625 0.484375
vt 0.007812 0.460938
vt 0.007812 0.468750
vt 0.984375 0.500000
vt 0.007812 0.500000
vt 0.015625 0.468750
vt 0.992188 0.492188
vt 0.007812 0.492188
vt 0.007812 0.953125
vt 0.992188 0.234375
vt 0.015625 0.984375
vt 0.999900 0.999900
vt 0.007812 0.507812
vt 0.898438 0.023438
vt 0.007812 0.476562
vt 0.007812 0.382812
vt 0.007812 0.015625
vt 0.898438 0.992188
vt 0.007812 0.257812
vt 0.875000 0.164062
vt 0.000000 0.507812
vt 0.984375 0.492188
vt 0.992188 0.468750
vt 0.984375 0.460938
s 0
usemtl Tarp
f 71/1/1 2/2/1 1/3/1
f 4/4/2 74/5/2 3/6/2
f 74/1/3 91/2/3 3/3/3
f 94/7/4 71/8/4 1/9/4
f 73/10/5 11/11/5 93/12/5
f 72/13/6 93/12/6 5/14/6
f 5/14/7 73/10/7 74/15/7
f 1/16/8 3/17/8 2/18/8
f 72/19/2 4/20/2 2/2/2
f 72/13/9 10/21/9 5/14/9
f 71/22/10 11/11/10 6/23/10
f 74/15/11 10/21/11 9/24/11
f 10/28/14 21/29/14 9/30/14
f 10/28/15 75/31/15 22/32/15
f 11/33/16 20/34/16 23/35/16
f 11/33/17 19/36/17 6/37/17
f 72/22/30 81/39/30 80/40/30
f 73/41/31 78/42/31 77/43/31
f 78/44/32 76/45/32 79/46/32
f 81/47/33 75/48/33 82/46/33
f 78/44/34 21/48/34 9/49/34
f 74/50/35 78/42/35 9/51/35
f 81/47/36 19/45/36 6/52/36
f 71/53/37 81/39/37 6/54/37
f 73/19/4 92/55/4 91/2/4
f 95/56/40 98/57/40 94/58/40
f 98/59/41 97/60/41 96/61/41
f 96/62/42 95/63/42 94/64/42
f 100/56/43 103/57/43 92/58/43
f 103/59/44 102/60/44 101/61/44
f 101/62/45 100/63/45 92/64/45
f 106/1/1 107/2/1 105/3/1
f 111/4/2 110/5/2 109/6/2
f 110/1/3 114/2/3 109/3/3
f 113/7/4 106/8/4 105/9/4
f 108/13/6 117/12/6 112/14/6
f 112/14/7 115/10/7 110/15/7
f 108/19/2 111/20/2 107/2/2
f 115/19/4 116/55/4 114/2/4
f 71/1/1 72/19/1 2/2/1
f 4/4/2 5/65/2 74/5/2
f 74/1/3 73/19/3 91/2/3
f 94/7/4 93/66/4 71/8/4
f 73/10/46 8/67/46 11/11/46
f 72/13/6 71/22/6 93/12/6
f 5/14/7 93/12/7 73/10/7
f 1/16/8 91/68/8 3/17/8
f 72/19/2 5/69/2 4/20/2
f 72/13/47 7/70/47 10/21/47
f 71/22/48 93/12/48 11/11/48
f 74/15/49 5/14/49 10/21/49
f 10/28/51 22/32/51 21/29/51
f 10/28/52 7/71/52 75/31/52
f 11/33/53 8/72/53 20/34/53
f 11/33/54 23/35/54 19/36/54
f 72/22/66 7/73/66 81/39/66
f 73/41/67 8/74/67 78/42/67
f 78/44/68 8/75/68 76/45/68
f 81/47/69 7/76/69 75/48/69
f 78/44/70 79/46/70 21/48/70
f 74/50/31 77/43/31 78/42/31
f 81/47/33 82/46/33 19/45/33
f 71/53/30 80/40/30 81/39/30
f 73/19/4 93/77/4 92/55/4
f 95/56/73 99/78/73 98/57/73
f 98/59/74 99/79/74 97/60/74
f 96/62/75 97/80/75 95/63/75
f 100/56/76 104/78/76 103/57/76
f 103/59/77 104/79/77 102/60/77
f 101/62/78 102/80/78 100/63/78
f 106/1/1 108/19/1 107/2/1
f 111/4/2 112/65/2 110/5/2
f 110/1/3 115/19/3 114/2/3
f 113/7/4 117/66/4 106/8/4
f 108/13/6 106/22/6 117/12/6
f 112/14/7 117/12/7 115/10/7
f 108/19/2 112/69/2 111/20/2
f 115/19/4 117/77/4 116/55/4
usemtl Rope
f 13/25/12 14/26/12 12/27/12
f 16/26/13 18/25/13 93/27/13
f 25/25/18 26/26/18 24/27/18
f 29/38/19 30/27/19 28/26/19
f 33/25/20 34/26/20 32/27/20
f 37/38/21 38/27/21 36/26/21
f 41/25/22 42/26/22 40/27/22
f 45/38/23 46/27/23 44/26/23
f 49/25/24 50/26/24 48/27/24
f 53/38/25 54/27/25 52/26/25
f 57/25/26 58/26/26 56/27/26
f 60/26/27 62/25/27 5/27/27
f 64/25/28 65/26/28 63/27/28
f 68/38/29 69/27/29 67/26/29
f 84/25/38 85/26/38 83/27/38
f 88/38/39 89/27/39 87/26/39
f 13/25/12 15/38/12 14/26/12
f 16/26/50 17/38/50 18/25/50
f 25/25/55 27/38/55 26/26/55
f 29/38/56 31/25/56 30/27/56
f 33/25/57 35/38/57 34/26/57
f 37/38/58 39/25/58 38/27/58
f 41/25/59 43/38/59 42/26/59
f 45/38/60 47/25/60 46/27/60
f 49/25/61 51/38/61 50/26/61
f 53/38/62 55/25/62 54/27/62
f 57/25/26 59/38/26 58/26/26
f 60/26/63 61/38/63 62/25/63
f 64/25/64 66/38/64 65/26/64
f 68/38/65 70/25/65 69/27/65
f 84/25/71 86/38/71 85/26/71
f 88/38/72 90/25/72 89/27/72
