# Blender 4.2.0
# www.blender.org
mtllib Tent01GB.mtl
o Tent01GB
v -1.148050 0.000000 -2.771638
v -1.148050 1.500000 -2.771638
v 1.148050 0.000000 -2.771638
v 2.771638 0.000000 -1.148050
v 2.771638 1.500000 -1.148050
v 2.771638 0.000000 1.148050
v -2.771638 0.000000 1.148050
v -2.771638 1.500000 1.148050
v -2.771638 0.000000 -1.148050
v 0.000000 3.750000 -0.000000
v -1.262855 1.354734 -3.048802
v 1.262855 1.354734 -3.048802
v 3.048802 1.354734 -1.262855
v 3.048802 1.354734 1.262855
v 1.262856 1.354734 3.048802
v -1.262855 1.354734 3.048802
v -3.048802 1.354734 1.262855
v -3.048802 1.354734 -1.262855
v -1.136597 1.406804 -2.743988
v 1.136597 1.406804 -2.743988
v 2.743988 1.406804 -1.136597
v 2.743988 1.406804 1.136597
v -2.743988 1.406804 1.136597
v -2.743988 1.406804 -1.136597
v -1.136597 1.406804 2.743988
v -2.199209 0.000000 -5.426950
v -2.282358 0.000000 -5.392508
v -1.106476 1.455000 -2.788859
v -1.189625 1.455000 -2.754418
v -2.240783 0.045000 -5.409729
v -2.240783 -0.045000 -5.409729
v -1.148050 1.410000 -2.771638
v -5.392509 0.000000 -2.282357
v -5.426950 0.000000 -2.199208
v -2.754418 1.455000 -1.189625
v -2.788859 1.455000 -1.106476
v -5.409729 0.045000 -2.240783
v -5.409729 -0.045000 -2.240783
v -2.771638 1.500000 -1.148050
v -2.771638 1.410000 -1.148050
v -5.426950 0.000000 2.199209
v -5.392509 0.000000 2.282359
v -2.788859 1.455000 1.106476
v -2.754418 1.455000 1.189625
v -5.409729 0.045000 2.240783
v -5.409729 -0.045000 2.240783
v -2.771638 1.410000 1.148050
v -2.282357 0.000000 5.392509
v -2.199208 0.000000 5.426950
v -1.189625 1.455000 2.754418
v -1.106475 1.455000 2.788859
v -2.240783 0.045000 5.409729
v -2.240783 -0.045000 5.409729
v -1.148050 1.410000 2.771638
v 2.199209 0.000000 5.426950
v 2.282359 0.000000 5.392509
v 1.106476 1.455000 2.788859
v 1.189625 1.455000 2.754418
v 2.240783 0.045000 5.409729
v 2.240783 -0.045000 5.409729
v 1.148050 1.500000 2.771638
v 1.148050 1.410000 2.771638
v 5.392509 0.000000 2.282357
v 5.426950 0.000000 2.199208
v 2.754418 1.455000 1.189625
v 2.788859 1.455000 1.106475
v 5.409729 0.045000 2.240783
v 5.409729 -0.045000 2.240783
v 2.771638 1.500000 1.148050
v 2.771638 1.410000 1.148050
v 5.426950 0.000000 -2.199209
v 5.392509 0.000000 -2.282359
v 2.788859 1.455000 -1.106476
v 2.754418 1.455000 -1.189625
v 5.409729 0.045000 -2.240783
v 5.409729 -0.045000 -2.240783
v 2.771638 1.410000 -1.148050
v 2.282357 0.000000 -5.392509
v 2.199208 0.000000 -5.426950
v 1.189625 1.455000 -2.754418
v 1.106475 1.455000 -2.788859
v 2.240783 0.045000 -5.409729
v 2.240783 -0.045000 -5.409729
v 1.148050 1.500000 -2.771638
v 1.148050 1.410000 -2.771638
v -0.045000 0.000000 7.500000
v 0.045000 0.000000 7.500000
v -0.045000 2.943000 2.771638
v 0.045000 2.943000 2.771638
v 0.000000 0.045000 7.500000
v 0.000000 -0.045000 7.500000
v 0.000000 2.988000 2.771638
v 0.000000 2.898000 2.771638
v -1.134677 0.000000 -2.739352
v -1.134677 1.482526 -2.739352
v 1.134676 0.000000 -2.739352
v 2.739352 0.000000 -1.134677
v 2.739352 1.482526 -1.134677
v 2.739352 0.000000 1.134676
v 2.739352 1.482526 1.134676
v 1.148050 0.000000 2.771638
v -1.148050 0.000000 2.771638
v -2.739352 0.000000 1.134677
v -2.739352 1.482526 1.134677
v -2.739352 0.000000 -1.134676
v 1.134676 1.482526 -2.739352
v -1.134676 1.482526 2.739352
v -2.739352 1.482526 -1.134676
v 0.000000 3.718654 -0.000000
v 1.148050 1.482526 2.771638
v -0.985080 0.000000 2.771638
v -0.985080 1.500000 2.771638
v -1.061045 0.000000 2.800242
v -1.061045 1.500000 2.800242
v 0.985080 0.000000 2.771638
v 0.985080 1.500000 2.771638
v 1.061045 0.000000 2.800242
v 1.061045 1.500000 2.800242
v -0.000000 3.000000 2.771638
v 1.136597 1.406804 2.743988
v -0.000000 2.834927 3.048802
v 0.000000 2.974923 2.748471
vn -0.0000 -0.0000 -1.0000
vn 0.7071 -0.0000 -0.7071
vn 1.0000 -0.0000 -0.0000
vn 0.7071 -0.0000 0.7071
vn -0.7069 0.0218 0.7069
vn -1.0000 -0.0000 -0.0000
vn -0.7071 -0.0000 -0.7071
vn -0.0000 1.0000 -0.0000
vn -0.4457 0.7764 -0.4457
vn -0.0000 0.7764 -0.6303
vn 0.6303 0.7764 -0.0000
vn 0.5597 0.7999 0.2165
vn -0.6303 0.7764 -0.0000
vn 0.4457 0.7764 -0.4457
vn 0.6219 0.4760 0.6219
vn -0.6200 0.4499 0.6428
vn -0.5597 0.7999 0.2165
vn 0.3283 0.8857 0.3283
vn -0.4642 0.8857 -0.0000
vn 0.3283 0.8857 -0.3283
vn -0.3283 0.8857 -0.3283
vn -0.0000 0.8857 -0.4642
vn 0.4642 0.8857 -0.0000
vn -0.2699 0.9243 0.2699
vn -0.1684 -0.9857 -0.0000
vn -0.0000 -0.9857 0.1684
vn 0.1191 -0.9857 0.1191
vn 0.1191 -0.9857 -0.1191
vn -0.1191 -0.9857 -0.1191
vn -0.1191 -0.9857 0.1191
vn 0.1684 -0.9857 -0.0000
vn -0.7584 0.5600 0.3335
vn 0.7814 -0.5656 -0.2637
vn 0.7467 0.5715 0.3404
vn -0.7454 -0.6359 0.2001
vn -0.1737 0.8910 -0.4195
vn -0.9239 -0.0000 0.3827
vn -0.4195 0.8910 -0.1737
vn -0.3827 -0.0000 0.9239
vn -0.4195 0.8910 0.1737
vn 0.3827 -0.0000 0.9239
vn -0.1737 0.8910 0.4195
vn 0.9239 -0.0000 0.3827
vn 0.1737 0.8910 0.4195
vn 0.9239 -0.0000 -0.3827
vn 0.4195 0.8910 0.1737
vn 0.3827 -0.0000 -0.9239
vn 0.4195 0.8910 -0.1737
vn -0.3827 -0.0000 -0.9239
vn 0.1737 0.8910 -0.4195
vn -0.9239 -0.0000 -0.3827
vn -0.0000 0.8490 0.5284
vn -0.0000 -0.0000 1.0000
vn -0.7071 -0.0000 0.7071
vn -0.7170 -0.0000 -0.6970
vn 0.7169 -0.0216 -0.6969
vn 0.4471 -0.7747 0.4471
vn -0.0000 -0.7747 0.6324
vn -0.6324 -0.7747 -0.0000
vn -0.5622 -0.7983 -0.2160
vn 0.6324 -0.7747 -0.0000
vn -0.4471 -0.7747 0.4471
vn -0.6250 -0.4902 -0.6075
vn 0.6239 -0.4706 -0.6239
vn 0.5622 -0.7983 -0.2160
vn -0.3122 0.0235 0.9497
vn 0.2110 -0.0000 -0.9775
vn 0.3524 -0.0000 0.9359
vn -0.6281 0.4600 0.6276
vn 0.2252 -0.1491 -0.9628
vn 0.3432 -0.2272 0.9114
vn 0.3123 -0.0000 0.9500
vn -0.3524 -0.0000 0.9359
vn 0.3036 0.2343 0.9235
vn -0.3432 -0.2272 0.9114
vn -0.6970 -0.0000 0.7170
vn -0.3218 0.8834 0.3408
vn -0.7599 0.6483 -0.0470
vn 0.7454 -0.6359 0.2001
vn 0.7605 0.6488 0.0251
vn -0.7814 -0.5656 -0.2637
vn -0.1737 0.8910 -0.4194
vn -0.4194 0.8910 0.1737
vn -0.1737 0.8910 0.4194
vn 0.1737 0.8910 0.4194
vn 0.4194 0.8910 0.1737
vn 0.4194 0.8910 -0.1737
vn 0.1737 0.8910 -0.4194
vn -0.6373 -0.0000 0.7706
vn -0.0000 -0.0218 -0.9998
vt 0.992188 -0.023438
vt 0.500000 0.312500
vt 0.992188 0.312500
vt 0.500000 -0.023438
vt 0.007812 0.312500
vt 0.007812 -0.023438
vt 0.292935 0.999900
vt 0.999900 0.707065
vt 0.707065 0.000100
vt 0.960938 0.687500
vt 0.703125 0.968750
vt 0.484375 0.507812
vt 0.960938 0.296875
vt 0.335938 0.007812
vt 0.703125 0.031250
vt 0.093750 0.507812
vt 0.335938 0.992188
vt 0.046875 0.195312
vt 0.046875 0.789062
vt 0.523438 0.585938
vt 0.007812 0.648438
vt 0.031250 0.585938
vt 0.031250 0.851562
vt 0.546875 0.789062
vt 0.523438 0.851562
vt 0.476562 0.585938
vt 0.992188 0.656250
vt 0.453125 0.656250
vt 0.031250 0.992188
vt 0.546875 0.921875
vt 0.523438 0.992188
vt 0.007812 0.789062
vt 0.546875 0.648438
vt 0.031250 0.718750
vt 0.007812 0.921875
vt 0.515625 0.851562
vt 0.515625 0.718750
vt 0.476562 0.726562
vt 0.953125 0.859375
vt 0.578125 0.921875
vt 0.546875 0.859375
vt 0.960938 0.992188
vt 0.562500 0.992188
vt 0.992188 0.921875
vt 0.007812 0.000000
vt -0.007812 0.578125
vt -0.007812 0.000000
vt 0.007812 0.578125
vt 0.007812 1.000000
vt 0.007812 0.554688
vt 0.992188 0.609375
vt 0.007812 0.609375
vt 0.007812 0.500000
vt 0.992188 0.390625
vt 0.992188 0.500000
vt 0.023438 0.546875
vt 0.023438 0.507812
vt 0.984375 0.546875
vt 0.023438 0.476562
vt 0.023438 0.414062
vt 0.984375 0.468750
vt 0.984375 0.507812
vt 0.992188 0.554688
vt 0.292935 0.000100
vt 0.000100 0.292935
vt 0.000100 0.707065
vt 0.707065 0.999900
vt 0.999900 0.292935
vt 0.968750 0.585938
vt 0.960938 0.726562
vt -0.007812 1.000000
vt 0.007812 0.390625
s 0
usemtl Tarp
f 2/1/1 3/2/1 1/3/1
f 84/4/2 4/5/2 3/2/2
f 5/4/3 6/5/3 4/2/3
f 69/6/4 101/2/4 6/5/4
f 107/4/5 7/5/5 102/2/5
f 8/6/6 9/2/6 7/5/6
f 39/4/7 1/3/7 9/2/7
f 102/7/8 6/8/8 3/9/8
f 2/10/9 39/11/9 10/12/9
f 84/13/10 2/10/10 10/12/10
f 69/14/11 5/15/11 10/12/11
f 119/16/12 69/14/12 10/12/12
f 39/11/13 8/17/13 10/12/13
f 5/15/14 84/13/14 10/12/14
f 61/18/15 69/14/15 119/16/15
f 107/19/16 119/16/16 8/17/16
f 119/16/17 10/12/17 8/17/17
f 61/20/18 14/21/18 69/22/18
f 39/23/19 17/24/19 8/25/19
f 84/26/20 13/27/20 12/28/20
f 2/29/21 18/30/21 39/31/21
f 84/29/22 11/30/22 2/31/22
f 69/20/23 13/21/23 5/22/23
f 107/25/24 17/32/24 16/24/24
f 14/33/25 21/34/25 13/21/25
f 12/35/26 19/36/26 11/30/26
f 18/30/27 19/23/27 24/36/27
f 16/24/28 23/34/28 25/37/28
f 15/33/29 22/34/29 14/21/29
f 13/27/30 20/38/30 12/28/30
f 18/32/31 23/37/31 17/24/31
f 107/39/32 121/40/32 119/41/32
f 121/40/33 25/42/33 122/43/33
f 121/40/34 61/39/34 119/41/34
f 121/40/35 120/42/35 15/44/35
f 96/2/53 95/1/53 94/3/53
f 97/5/54 106/4/54 96/2/54
f 99/5/6 98/4/6 97/2/6
f 101/2/55 100/6/55 99/5/55
f 103/5/56 107/4/56 102/2/56
f 105/2/3 104/6/3 103/5/3
f 94/3/4 108/4/4 105/2/4
f 95/10/57 109/12/57 108/11/57
f 106/13/58 109/12/58 95/10/58
f 100/14/59 109/12/59 98/15/59
f 122/16/60 109/12/60 100/14/60
f 108/11/61 109/12/61 104/17/61
f 98/15/62 109/12/62 106/13/62
f 110/18/63 122/16/63 100/14/63
f 107/19/64 104/17/64 122/16/64
f 122/16/65 104/17/65 109/12/65
f 113/50/66 107/51/66 102/52/66
f 111/53/67 107/54/67 112/55/67
f 112/55/68 113/50/68 111/53/68
f 107/56/69 114/57/69 92/58/69
f 112/59/70 107/60/70 92/61/70
f 114/57/71 112/59/71 92/62/71
f 101/52/72 118/63/72 117/50/72
f 61/54/1 115/53/1 116/55/1
f 117/50/73 116/55/73 115/53/73
f 61/56/74 92/58/74 118/57/74
f 116/59/1 92/61/1 61/60/1
f 118/57/75 92/62/75 116/59/75
f 2/1/1 84/4/1 3/2/1
f 84/4/2 5/6/2 4/5/2
f 5/4/3 69/6/3 6/5/3
f 69/6/4 61/4/4 101/2/4
f 107/4/76 8/6/76 7/5/76
f 8/6/6 39/4/6 9/2/6
f 39/4/7 2/1/7 1/3/7
f 3/9/8 1/64/8 9/65/8
f 9/65/8 7/66/8 102/7/8
f 102/7/8 101/67/8 6/8/8
f 6/8/8 4/68/8 3/9/8
f 3/9/8 9/65/8 102/7/8
f 61/20/18 15/33/18 14/21/18
f 39/23/19 18/32/19 17/24/19
f 84/26/20 5/69/20 13/27/20
f 2/29/21 11/35/21 18/30/21
f 84/29/22 12/35/22 11/30/22
f 69/20/23 14/33/23 13/21/23
f 107/25/77 8/23/77 17/32/77
f 14/33/25 22/37/25 21/34/25
f 12/35/26 20/23/26 19/36/26
f 18/30/27 11/35/27 19/23/27
f 16/24/28 17/32/28 23/34/28
f 15/33/29 120/37/29 22/34/29
f 13/27/30 21/70/30 20/38/30
f 18/32/31 24/34/31 23/37/31
f 107/39/78 16/44/78 121/40/78
f 121/40/79 16/44/79 25/42/79
f 121/40/80 15/44/80 61/39/80
f 121/40/81 122/43/81 120/42/81
f 96/2/53 106/4/53 95/1/53
f 97/5/54 98/6/54 106/4/54
f 99/5/6 100/6/6 98/4/6
f 101/2/55 110/4/55 100/6/55
f 103/5/2 104/6/2 107/4/2
f 105/2/3 108/4/3 104/6/3
f 94/3/4 95/1/4 108/4/4
f 113/50/89 114/63/89 107/51/89
f 111/53/90 102/72/90 107/54/90
f 112/55/68 114/63/68 113/50/68
f 101/52/72 61/51/72 118/63/72
f 61/54/1 101/72/1 115/53/1
f 117/50/73 118/63/73 116/55/73
usemtl Rope
f 27/45/36 28/46/36 26/47/36
f 30/48/37 32/47/37 2/45/37
f 34/46/38 35/45/38 33/48/38
f 37/46/39 40/45/39 39/47/39
f 42/48/40 43/47/40 41/46/40
f 45/48/41 47/47/41 8/45/41
f 48/46/42 51/45/42 50/47/42
f 52/46/43 54/45/43 107/47/43
f 56/48/44 57/47/44 55/46/44
f 59/48/45 62/47/45 61/45/45
f 63/48/46 66/47/46 65/45/46
f 67/46/47 70/45/47 69/47/47
f 72/45/48 73/46/48 71/47/48
f 75/48/49 77/47/49 5/45/49
f 78/46/50 81/45/50 80/47/50
f 82/46/51 85/45/51 84/47/51
f 87/47/52 88/49/52 86/45/52
f 90/49/3 93/47/3 92/45/3
f 27/45/82 29/48/82 28/46/82
f 30/48/37 31/46/37 32/47/37
f 34/46/38 36/47/38 35/45/38
f 37/46/39 38/48/39 40/45/39
f 42/48/83 44/45/83 43/47/83
f 45/48/41 46/46/41 47/47/41
f 48/46/84 49/48/84 51/45/84
f 52/46/43 53/48/43 54/45/43
f 56/48/85 58/45/85 57/47/85
f 59/48/45 60/46/45 62/47/45
f 63/48/86 64/46/86 66/47/86
f 67/46/47 68/48/47 70/45/47
f 72/45/87 74/48/87 73/46/87
f 75/48/49 76/46/49 77/47/49
f 78/46/88 79/48/88 81/45/88
f 82/46/51 83/48/51 85/45/51
f 87/47/52 89/71/52 88/49/52
f 90/49/3 91/71/3 93/47/3
