# Blender 4.2.0
# www.blender.org
mtllib TrashBinOutdoor01.mtl
o TrashBinOutdoor01
v 0.000000 0.000000 -0.450000
v 0.000000 1.218000 -0.450000
v 0.389711 0.000000 -0.225000
v 0.389711 1.218000 -0.225000
v 0.389711 0.000000 0.225000
v 0.389711 1.218000 0.225000
v 0.000000 0.000000 0.450000
v 0.000000 1.218000 0.450000
v -0.389711 0.000000 0.225000
v -0.389711 1.218000 0.225000
v -0.389711 0.000000 -0.225000
v -0.389711 1.218000 -0.225000
v 0.000000 1.218000 -0.472500
v 0.409197 1.218000 -0.236250
v 0.409197 1.218000 0.236250
v 0.000000 1.218000 0.472500
v -0.409197 1.218000 0.236250
v -0.409197 1.218000 -0.236250
v 0.000000 1.293000 -0.472500
v 0.409197 1.293000 -0.236250
v 0.409197 1.293000 0.236250
v 0.000000 1.293000 0.472500
v -0.409197 1.293000 0.236250
v -0.409197 1.293000 -0.236250
v 0.000000 1.500000 -0.307125
v 0.265978 1.500000 -0.153562
v 0.265978 1.500000 0.153562
v 0.000000 1.500000 0.307125
v -0.265978 1.500000 0.153562
v -0.265978 1.500000 -0.153562
v 0.000000 1.500000 -0.261056
v 0.226081 1.500000 -0.130528
v 0.226081 1.500000 0.130528
v 0.000000 1.500000 0.261056
v -0.226081 1.500000 0.130528
v -0.226081 1.500000 -0.130528
v 0.000000 1.293000 -0.417690
v 0.361730 1.293000 -0.208845
v 0.361730 1.293000 0.208845
v 0.000000 1.293000 0.417690
v -0.361730 1.293000 0.208845
v -0.361730 1.293000 -0.208845
v 0.000000 0.030000 -0.417690
v 0.361730 0.030000 -0.208845
v 0.361730 0.030000 0.208845
v 0.000000 0.030000 0.417690
v -0.361730 0.030000 0.208845
v -0.361730 0.030000 -0.208845
vn 0.5000 -0.0000 -0.8660
vn 1.0000 -0.0000 -0.0000
vn 0.5000 -0.0000 0.8660
vn -0.5000 -0.0000 0.8660
vn -0.0000 -1.0000 -0.0000
vn -1.0000 -0.0000 -0.0000
vn -0.5000 -0.0000 -0.8660
vn -0.4112 0.5690 0.7122
vn -0.0000 1.0000 -0.0000
vn 0.8224 0.5690 -0.0000
vn -0.8224 0.5690 -0.0000
vn 0.4112 0.5690 0.7122
vn 0.4112 0.5690 -0.7122
vn -0.4112 0.5690 -0.7122
vn 0.4182 -0.5481 0.7244
vn 0.4182 -0.5481 -0.7244
vn -0.8364 -0.5481 -0.0000
vn 0.8364 -0.5481 -0.0000
vn -0.4182 -0.5481 -0.7244
vn -0.4182 -0.5481 0.7244
vt 0.000000 0.804688
vt 0.170732 0.000000
vt 0.000000 0.000000
vt 0.170732 0.804688
vt 0.349593 0.000000
vt 0.349593 0.804688
vt 0.520325 0.000000
vt 0.520325 0.804688
vt 0.333333 1.000000
vt 0.500000 1.000000
vt 0.447154 0.625000
vt 0.260163 0.304688
vt 0.081301 0.625000
vt 0.000000 0.867188
vt 0.260163 0.812500
vt 0.260163 0.867188
vt 0.833333 1.000000
vt 0.666667 1.000000
vt 0.166667 1.000000
vt 1.000000 1.000000
vt -0.000000 1.000000
vt 0.260163 1.000000
vt 0.520325 0.867188
vt 0.520325 1.000000
vt 0.520325 0.812500
vt 0.000000 0.812500
vt 0.674797 0.867188
vt 0.495935 0.804688
vt 0.495935 0.867188
vt 0.000000 1.000000
vt 0.186992 0.804688
vt 0.186992 0.867188
vt 0.674797 0.804688
vt 0.837398 0.812500
vt 0.682927 0.000000
vt 0.682927 0.812500
vt 0.772358 0.468750
vt 0.617886 0.187500
vt 0.934959 0.187500
vt 1.000000 0.000000
vt 1.000000 0.812500
vt 0.528455 0.000000
vt 0.528455 0.812500
vt 0.837398 0.000000
vt 0.260163 0.742188
vt 0.447154 0.421875
vt 0.081301 0.421875
vt 0.934959 0.375000
vt 0.617886 0.375000
vt 0.772358 0.093750
s 0
usemtl Material
f 2/1/1 3/2/1 1/3/1
f 4/4/2 5/5/2 3/2/2
f 6/6/3 7/7/3 5/5/3
f 8/8/4 9/5/4 7/7/4
f 10/9/5 16/10/5 17/9/5
f 10/6/6 11/2/6 9/5/6
f 12/4/7 1/3/7 11/2/7
f 3/11/5 7/12/5 11/13/5
f 17/14/6 24/15/6 18/16/6
f 4/17/5 15/18/5 6/18/5
f 10/9/5 18/19/5 12/19/5
f 4/17/5 13/20/5 14/17/5
f 6/18/5 16/10/5 8/10/5
f 12/19/5 13/21/5 2/21/5
f 22/22/8 29/23/8 23/24/8
f 15/23/3 22/15/3 16/16/3
f 13/14/1 20/15/1 14/16/1
f 18/16/7 19/25/7 13/23/7
f 16/16/4 23/26/4 17/14/4
f 14/16/2 21/25/2 15/23/2
f 29/27/9 36/28/9 30/29/9
f 20/16/10 27/30/10 21/14/10
f 23/14/11 30/22/11 24/16/11
f 21/30/12 28/16/12 22/22/12
f 19/23/13 26/22/13 20/16/13
f 24/16/14 25/24/14 19/23/14
f 36/22/15 37/23/15 31/24/15
f 28/29/9 33/31/9 34/28/9
f 26/14/9 31/31/9 32/1/9
f 30/29/9 31/31/9 25/32/9
f 29/27/9 34/28/9 35/33/9
f 26/14/9 33/31/9 27/32/9
f 41/34/2 48/35/2 42/36/2
f 34/22/16 41/14/16 35/30/16
f 32/22/17 39/14/17 33/30/17
f 35/30/18 42/16/18 36/22/18
f 34/22/19 39/14/19 40/16/19
f 31/24/20 38/16/20 32/22/20
f 43/37/9 47/38/9 45/39/9
f 39/34/7 46/40/7 40/41/7
f 38/36/4 43/42/4 44/35/4
f 37/43/3 48/35/3 43/42/3
f 40/41/1 47/44/1 41/34/1
f 38/36/6 45/44/6 39/34/6
f 2/1/1 4/4/1 3/2/1
f 4/4/2 6/6/2 5/5/2
f 6/6/3 8/8/3 7/7/3
f 8/8/4 10/6/4 9/5/4
f 10/9/5 8/10/5 16/10/5
f 10/6/6 12/4/6 11/2/6
f 12/4/7 2/1/7 1/3/7
f 11/13/5 1/45/5 3/11/5
f 3/11/5 5/46/5 7/12/5
f 7/12/5 9/47/5 11/13/5
f 17/14/6 23/26/6 24/15/6
f 4/17/5 14/17/5 15/18/5
f 10/9/5 17/9/5 18/19/5
f 4/17/5 2/20/5 13/20/5
f 6/18/5 15/18/5 16/10/5
f 12/19/5 18/19/5 13/21/5
f 22/22/8 28/16/8 29/23/8
f 15/23/3 21/25/3 22/15/3
f 13/14/1 19/26/1 20/15/1
f 18/16/7 24/15/7 19/25/7
f 16/16/4 22/15/4 23/26/4
f 14/16/2 20/15/2 21/25/2
f 29/27/9 35/33/9 36/28/9
f 20/16/10 26/22/10 27/30/10
f 23/14/11 29/30/11 30/22/11
f 21/30/12 27/14/12 28/16/12
f 19/23/13 25/24/13 26/22/13
f 24/16/14 30/22/14 25/24/14
f 36/22/15 42/16/15 37/23/15
f 28/29/9 27/32/9 33/31/9
f 26/14/9 25/32/9 31/31/9
f 30/29/9 36/28/9 31/31/9
f 29/27/9 28/29/9 34/28/9
f 26/14/9 32/1/9 33/31/9
f 41/34/2 47/44/2 48/35/2
f 34/22/16 40/16/16 41/14/16
f 32/22/17 38/16/17 39/14/17
f 35/30/18 41/14/18 42/16/18
f 34/22/19 33/30/19 39/14/19
f 31/24/20 37/23/20 38/16/20
f 45/39/9 44/48/9 43/37/9
f 43/37/9 48/49/9 47/38/9
f 47/38/9 46/50/9 45/39/9
f 39/34/7 45/44/7 46/40/7
f 38/36/4 37/43/4 43/42/4
f 37/43/3 42/36/3 48/35/3
f 40/41/1 46/40/1 47/44/1
f 38/36/6 44/35/6 45/44/6
