# Blender 4.2.0
# www.blender.org
mtllib BasketballGoal01.mtl
o BasketballGoal01
v -0.262417 0.000000 0.262417
v -0.150000 4.161820 0.150000
v -0.262417 0.000000 -0.262417
v -0.150000 4.161820 -0.150000
v 0.262417 0.000000 0.262417
v 0.150000 4.161820 0.150000
v 0.262417 0.000000 -0.262417
v 0.150000 4.161820 -0.150000
v -1.621423 4.100859 -2.510492
v -1.621423 6.267982 -2.510492
v -1.621423 4.100859 -2.616217
v -1.621423 6.267982 -2.616217
v 1.621423 4.100859 -2.510492
v 1.621423 6.267982 -2.510492
v 1.621423 4.100859 -2.616217
v 1.621423 6.267982 -2.616217
v -0.118052 3.761014 -0.150000
v -0.118052 3.524911 -0.150000
v 0.118052 3.761014 -0.150000
v 0.118052 3.524911 -0.150000
v -0.118052 5.391219 -2.510492
v -0.118052 5.155116 -2.510492
v 0.118052 5.391219 -2.510492
v 0.118052 5.155116 -2.510492
v -0.065814 4.279859 -1.207154
v -0.065814 4.411487 -1.207154
v -0.065814 4.279859 -2.510492
v -0.065814 4.411487 -2.510492
v 0.065814 4.279859 -1.207154
v 0.065814 4.411487 -1.207154
v 0.065814 4.279859 -2.510492
v 0.065814 4.411487 -2.510492
v -0.150000 0.293309 0.150000
v -0.150000 0.293309 -0.150000
v 0.150000 0.293309 -0.150000
v 0.150000 0.293309 0.150000
v 0.346480 4.448129 -3.147470
v 0.346480 4.478482 -3.147470
v 0.173240 4.448129 -2.847410
v 0.173240 4.478482 -2.847410
v -0.173239 4.448129 -2.847410
v -0.173239 4.478482 -2.847410
v -0.346479 4.448129 -3.147470
v -0.346479 4.478482 -3.147470
v -0.173239 4.448129 -3.447530
v -0.173239 4.478482 -3.447530
v 0.173240 4.448129 -3.447530
v 0.173240 4.478482 -3.447530
v 0.398441 4.448129 -3.147470
v 0.199221 4.396615 -2.802410
v 0.199221 4.478482 -2.802410
v 0.398441 4.478482 -3.147470
v -0.199220 4.396615 -2.802410
v -0.199220 4.478482 -2.802410
v -0.398441 4.448129 -3.147470
v -0.398441 4.478482 -3.147470
v -0.199220 4.448129 -3.492530
v -0.199220 4.478482 -3.492530
v 0.199221 4.448129 -3.492530
v 0.199221 4.478482 -3.492530
v 0.346480 4.478482 -3.147470
v 0.173240 4.478482 -2.847410
v -0.173239 4.478482 -2.847410
v -0.346479 4.478482 -3.147470
v -0.173239 4.478482 -3.447530
v 0.173240 4.478482 -3.447530
v 0.199221 4.478482 -2.616217
v 0.199221 4.224901 -2.616217
v -0.199220 4.224901 -2.616217
v -0.199220 4.478482 -2.616217
v 0.346480 4.448129 -3.147470
v 0.173240 4.448129 -2.847410
v -0.173239 4.448129 -2.847410
v -0.346479 4.448129 -3.147470
v -0.173239 4.448129 -3.447530
v 0.173240 4.448129 -3.447530
v 0.242536 4.050000 -3.147470
v 0.121268 4.050000 -2.937428
v -0.121267 4.050000 -2.937428
v -0.242535 4.050000 -3.147470
v -0.121267 4.050000 -3.357512
v 0.121268 4.050000 -3.357512
v 0.206156 3.600000 -3.147470
v 0.103078 3.600000 -2.968935
v -0.103077 3.600000 -2.968935
v -0.206155 3.600000 -3.147470
v -0.103077 3.600000 -3.326006
v 0.103078 3.600000 -3.326006
vn -1.0000 -0.0000 -0.0000
vn -0.0000 -0.0000 -1.0000
vn 1.0000 -0.0000 -0.0000
vn -0.0000 -0.0000 1.0000
vn -0.0000 1.0000 -0.0000
vn -0.0000 -1.0000 -0.0000
vn -0.0000 0.8228 0.5683
vn -0.0000 -0.8228 -0.5683
vn -0.0000 0.3579 0.9338
vn 0.9338 0.3579 -0.0000
vn -0.0000 0.3579 -0.9338
vn -0.9338 0.3579 -0.0000
vn 0.8660 -0.0000 0.5000
vn -0.8660 -0.0000 0.5000
vn -0.8660 -0.0000 -0.5000
vn 0.8660 -0.0000 -0.5000
vn -0.6522 -0.6579 -0.3766
vn -0.0000 -0.6579 -0.7531
vn -0.0000 -0.9890 -0.1477
vn -0.0000 -0.7351 -0.6779
vn 0.8447 0.2205 -0.4877
vn -0.8447 0.2205 -0.4877
vn -0.8447 0.2205 0.4877
vn 0.8447 0.2205 0.4877
vn -0.0000 0.2205 -0.9754
vn -0.0000 0.2205 0.9754
vn -0.8639 0.0698 0.4988
vn 0.8639 0.0698 0.4988
vn -0.0000 0.0698 -0.9976
vn -0.0000 0.0698 0.9976
vn 0.8639 0.0698 -0.4988
vn -0.8639 0.0698 -0.4988
vn 0.6522 -0.6579 -0.3766
vt 0.447917 0.529851
vt 0.026042 0.462687
vt 0.026042 0.529851
vt 0.026042 0.470149
vt 0.447917 0.470149
vt 0.369792 0.470149
vt 0.328125 0.529851
vt 0.328125 0.470149
vt 0.807292 1.000000
vt 0.791667 0.529851
vt 0.807292 0.529851
vt 0.500000 1.000000
vt 0.000000 0.529851
vt 0.500000 0.529851
vt 0.822917 1.000000
vt 0.822917 0.529851
vt 1.000000 0.529851
vt 0.500000 0.783582
vt 1.000000 0.761194
vt 1.000000 0.783582
vt 1.000000 0.738806
vt 0.500000 0.761194
vt 0.500000 0.738806
vt 0.625000 0.750000
vt 0.875000 0.500000
vt 0.625000 0.500000
vt 0.750000 0.522388
vt 0.229167 0.470149
vt 0.750000 0.470149
vt 0.229167 0.522388
vt 0.265625 0.522388
vt 0.921875 0.470149
vt 0.937500 0.522388
vt 0.802083 0.514925
vt 0.510417 0.470149
vt 0.802083 0.470149
vt 0.510417 0.514925
vt 0.536458 0.514925
vt 0.807292 0.477612
vt 0.536458 0.477612
vt 0.807292 0.514925
vt 0.026042 0.477612
vt -0.000000 0.462687
vt 0.026042 0.514925
vt 0.203125 0.447761
vt 0.317708 0.432836
vt 0.317708 0.462687
vt 0.036458 0.462687
vt 0.020833 0.432836
vt 0.036458 0.432836
vt 0.203125 0.455224
vt 0.203125 0.462687
vt 0.088542 0.455224
vt 0.317708 0.447761
vt 0.203125 0.432836
vt 0.088542 0.432836
vt 0.088542 0.447761
vt 0.291667 0.440298
vt 0.182292 0.455224
vt 0.182292 0.440298
vt 0.171875 0.440298
vt 0.177083 0.432836
vt 0.250000 0.432836
vt 0.218750 0.462687
vt 0.218750 0.455224
vt 0.145833 0.432836
vt 0.281250 0.462687
vt 0.270833 0.432836
vt 0.296875 0.432836
vt 0.192708 0.447761
vt 0.197917 0.432836
vt 0.145833 0.462687
vt 0.182292 0.432836
vt 0.255208 0.432836
vt 0.291667 0.462687
vt 0.213542 0.462687
vt 0.255208 0.440298
vt 0.270833 0.440298
vt 0.135417 0.462687
vt 0.145833 0.440298
vt 0.307292 0.447761
vt 0.234375 0.432836
vt 0.187500 0.432836
vt 0.088542 0.462687
vt 0.192708 0.462687
vt 0.291667 0.455224
vt 0.401042 0.440298
vt 0.401042 0.455224
vt 0.098958 0.432836
vt 0.098958 0.462687
vt 0.140625 0.432836
vt 0.229167 0.216418
vt 0.265625 0.432836
vt 0.062500 0.216418
vt 0.145833 0.216418
vt 0.145833 0.000000
vt 0.213542 0.000000
vt 0.447917 0.462687
vt 0.369792 0.529851
vt 0.791667 1.000000
vt -0.000000 1.000000
vt 1.000000 1.000000
vt 0.875000 0.750000
vt 0.250000 0.470149
vt 0.151042 0.462687
vt 0.223958 0.462687
vt 0.229167 0.432836
vt 0.072917 0.000000
s 0
usemtl Primary
f 2/1/1 34/2/1 33/3/1
f 4/1/2 35/4/2 34/3/2
f 8/5/3 36/3/3 35/4/3
f 6/1/4 33/4/4 36/3/4
f 4/6/5 6/7/5 8/8/5
f 10/9/1 11/10/1 9/11/1
f 12/12/2 15/13/2 11/14/2
f 16/15/3 13/11/3 15/16/3
f 14/17/4 9/12/4 13/14/4
f 15/18/6 9/19/6 11/20/6
f 12/21/5 14/22/5 16/23/5
f 19/24/4 18/25/4 20/26/4
f 19/27/7 21/28/7 17/29/7
f 18/30/8 24/29/8 20/28/8
f 19/31/3 24/32/3 23/33/3
f 17/32/1 22/31/1 18/33/1
f 26/34/1 27/35/1 25/36/1
f 32/37/3 29/36/3 31/35/3
f 31/38/6 25/39/6 27/40/6
f 28/40/5 30/41/5 32/38/5
f 36/42/9 1/13/9 5/43/9
f 35/42/10 5/13/10 7/43/10
f 34/44/11 7/43/11 3/13/11
f 33/44/12 3/43/12 1/13/12
f 49/45/13 51/46/13 50/47/13
f 53/48/1 70/49/1 54/50/1
f 54/47/14 55/51/14 53/46/14
f 56/52/15 57/53/15 55/51/15
f 58/54/2 59/55/2 57/46/2
f 60/56/16 49/45/16 59/57/16
f 37/58/14 66/59/14 47/60/14
f 37/51/17 50/61/17 39/62/17
f 40/63/5 52/64/5 38/65/5
f 39/66/18 53/67/18 41/68/18
f 42/69/5 51/70/5 40/71/5
f 43/60/19 53/72/19 55/73/19
f 42/67/5 56/74/5 54/75/5
f 43/60/6 57/64/6 45/76/6
f 44/77/5 58/64/5 56/74/5
f 45/78/6 59/79/6 47/80/6
f 48/71/5 58/81/5 46/69/5
f 37/51/6 59/82/6 49/52/6
f 38/65/5 60/60/5 48/83/5
f 47/84/4 65/70/4 45/85/4
f 45/59/13 64/58/13 43/86/13
f 43/86/16 63/87/16 41/88/16
f 41/54/2 62/55/2 39/45/2
f 39/87/15 61/86/15 37/58/15
f 50/48/20 69/89/20 53/90/20
f 54/89/5 67/48/5 51/50/5
f 50/49/3 67/48/3 68/43/3
f 73/91/21 80/92/21 74/93/21
f 71/91/22 78/92/22 72/93/22
f 71/91/23 82/94/23 77/95/23
f 74/49/24 81/95/24 75/91/24
f 72/49/25 79/95/25 73/91/25
f 76/93/26 81/95/26 82/92/26
f 82/94/27 83/96/27 77/95/27
f 80/94/28 87/96/28 81/95/28
f 78/94/29 85/96/29 79/95/29
f 81/95/30 88/97/30 82/92/30
f 79/95/31 86/97/31 80/92/31
f 78/92/32 83/96/32 84/97/32
f 2/1/1 4/98/1 34/2/1
f 4/1/2 8/5/2 35/4/2
f 8/5/3 6/1/3 36/3/3
f 6/1/4 2/5/4 33/4/4
f 4/6/5 2/99/5 6/7/5
f 10/9/1 12/100/1 11/10/1
f 12/12/2 16/101/2 15/13/2
f 16/15/3 14/9/3 13/11/3
f 14/17/4 10/102/4 9/12/4
f 15/18/6 13/22/6 9/19/6
f 12/21/5 10/19/5 14/22/5
f 19/24/4 17/103/4 18/25/4
f 19/27/7 23/30/7 21/28/7
f 18/30/8 22/27/8 24/29/8
f 19/31/3 20/104/3 24/32/3
f 17/32/1 21/104/1 22/31/1
f 26/34/1 28/37/1 27/35/1
f 32/37/3 30/34/3 29/36/3
f 31/38/6 29/41/6 25/39/6
f 28/40/5 26/39/5 30/41/5
f 36/42/9 33/44/9 1/13/9
f 35/42/10 36/44/10 5/13/10
f 34/44/11 35/42/11 7/43/11
f 33/44/12 34/42/12 3/43/12
f 49/45/13 52/55/13 51/46/13
f 53/48/1 69/43/1 70/49/1
f 54/47/14 56/52/14 55/51/14
f 56/52/15 58/84/15 57/53/15
f 58/54/2 60/45/2 59/55/2
f 60/56/16 52/55/16 49/45/16
f 37/58/14 61/86/14 66/59/14
f 37/51/19 49/52/19 50/61/19
f 40/63/5 51/77/5 52/64/5
f 39/66/18 50/79/18 53/67/18
f 42/69/5 54/81/5 51/70/5
f 43/60/33 41/105/33 53/72/33
f 42/67/5 44/77/5 56/74/5
f 43/60/6 55/73/6 57/64/6
f 44/77/5 46/106/5 58/64/5
f 45/78/6 57/67/6 59/79/6
f 48/71/5 60/70/5 58/81/5
f 37/51/6 47/107/6 59/82/6
f 38/65/5 52/64/5 60/60/5
f 47/84/4 66/57/4 65/70/4
f 45/59/13 65/60/13 64/58/13
f 43/86/16 64/58/16 63/87/16
f 41/54/2 63/46/2 62/55/2
f 39/87/15 62/88/15 61/86/15
f 50/48/20 68/50/20 69/89/20
f 54/89/5 70/90/5 67/48/5
f 50/49/3 51/50/3 67/48/3
f 73/91/21 79/95/21 80/92/21
f 71/91/22 77/95/22 78/92/22
f 71/91/23 76/49/23 82/94/23
f 74/49/24 80/94/24 81/95/24
f 72/49/25 78/94/25 79/95/25
f 76/93/26 75/91/26 81/95/26
f 82/94/27 88/108/27 83/96/27
f 80/94/28 86/108/28 87/96/28
f 78/94/29 84/108/29 85/96/29
f 81/95/30 87/96/30 88/97/30
f 79/95/31 85/96/31 86/97/31
f 78/92/32 77/95/32 83/96/32
