# Blender 4.2.0
# www.blender.org
mtllib DartArrow01.mtl
o DartArrow01
v -0.183474 0.042864 0.019349
v 0.070273 0.042864 0.019349
v -0.183474 0.048036 -0.013307
v 0.070273 0.048036 -0.013307
v -0.183474 0.018577 -0.028317
v 0.070273 0.018577 -0.028317
v -0.183474 -0.004802 -0.004938
v 0.070273 -0.004802 -0.004938
v -0.183474 0.010208 0.024521
v 0.070273 0.010208 0.024521
v -0.183474 0.032098 0.008583
v -0.183474 0.034470 -0.006395
v -0.183474 0.020959 -0.013279
v -0.183474 0.010236 -0.002557
v -0.183474 0.017121 0.010955
v -0.262325 0.029388 0.005873
v -0.262325 0.031056 -0.004655
v -0.262325 0.021558 -0.009494
v -0.262325 0.014021 -0.001957
v -0.262325 0.018860 0.007540
v -0.349992 0.022977 -0.000539
v 0.070273 0.034262 0.010747
v 0.070273 0.036905 -0.005938
v 0.070273 0.021853 -0.013608
v 0.070273 0.009908 -0.001662
v 0.070273 0.017577 0.013389
v 0.201622 0.031214 0.007698
v 0.201622 0.033064 -0.003981
v 0.201622 0.022527 -0.009350
v 0.201622 0.014166 -0.000988
v 0.201622 0.019534 0.009548
v 0.226622 0.024101 0.000586
v 0.150297 -0.051029 0.075716
v 0.362797 -0.051029 0.075716
v 0.150297 0.099231 -0.074545
v 0.362797 0.099231 -0.074545
v 0.150297 -0.051029 -0.074545
v 0.362797 -0.051029 -0.074545
v 0.150297 0.099231 0.075716
v 0.362797 0.099231 0.075716
vn -0.0000 0.9877 0.1564
vn -0.0000 0.4540 -0.8910
vn -0.0000 -0.7071 -0.7071
vn 1.0000 -0.0000 -0.0000
vn -0.0000 -0.8910 0.4540
vn -0.0000 0.1564 0.9877
vn -0.0393 0.4536 -0.8903
vn -1.0000 -0.0000 -0.0000
vn -0.0834 -0.7046 -0.7046
vn -0.0393 0.1563 0.9869
vn -0.0393 -0.7066 -0.7066
vn -0.0393 0.9869 0.1563
vn -0.0393 -0.8903 0.4536
vn -0.0834 0.9842 0.1559
vn -0.0834 -0.8879 0.4524
vn -0.0834 0.4524 -0.8879
vn -0.0834 0.1559 0.9842
vn 0.3095 -0.8472 0.4317
vn 0.0265 0.1564 0.9873
vn 0.0265 -0.7069 -0.7069
vn 0.0265 0.9873 0.1564
vn 0.0265 -0.8907 0.4538
vn 0.0265 0.4538 -0.8907
vn 0.3095 0.4317 -0.8472
vn 0.3095 0.1488 0.9392
vn 0.3095 -0.6724 -0.6724
vn 0.3095 0.9392 0.1488
vn -0.0000 0.7071 0.7071
vn -0.0000 -0.7071 0.7071
vt 0.522727 0.571429
vt 0.136364 0.428571
vt 0.136364 0.571429
vt 0.522727 0.428571
vt 0.204545 0.357143
vt 0.159091 0.571429
vt 0.159091 0.428571
vt 0.318182 0.500000
vt 0.181818 0.428571
vt 0.227273 0.500000
vt 0.204545 0.571429
vt 0.181818 0.357143
vt 0.204545 0.428571
vt 0.159091 0.500000
vt 0.000000 0.428571
vt 0.318182 0.428571
vt 0.391068 0.055836
vt 0.021746 0.324164
vt 0.250000 0.490000
vt 0.108932 0.055836
vt 0.840909 0.428571
vt 0.522727 0.500000
vt 0.840909 0.500000
vt 0.478254 0.324164
vt 1.000000 0.000000
vt 0.659091 1.000000
vt 0.659091 0.000000
vt 1.000000 1.000000
s 0
usemtl Primary
f 2/1/1 3/2/1 1/3/1
f 4/4/2 5/3/2 3/2/2
f 6/4/3 7/3/3 5/2/3
f 10/5/4 4/6/4 2/7/4
f 7/3/5 10/4/5 9/2/5
f 10/4/6 1/3/6 9/2/6
f 13/8/7 17/9/7 12/8/7
f 8/10/4 6/11/4 10/5/4
f 1/2/8 3/12/8 5/13/8
f 7/11/8 1/2/8 5/13/8
f 18/14/9 19/9/9 21/15/9
f 15/16/10 16/9/10 20/9/10
f 13/8/11 19/9/11 18/14/11
f 11/16/12 17/9/12 16/9/12
f 15/16/13 19/9/13 14/8/13
f 16/9/14 17/9/14 21/15/14
f 19/9/15 20/9/15 21/15/15
f 17/9/16 18/14/16 21/15/16
f 20/9/17 16/9/17 21/15/17
f 24/17/8 26/18/8 22/19/8
f 31/18/18 30/20/18 32/18/18
f 26/21/19 27/4/19 22/21/19
f 24/21/20 30/22/20 25/23/20
f 22/21/21 28/22/21 23/23/21
f 25/23/22 31/4/22 26/21/22
f 24/21/23 28/22/23 29/4/23
f 29/17/24 28/24/24 32/17/24
f 27/19/25 31/18/25 32/19/25
f 30/20/26 29/17/26 32/20/26
f 28/24/27 27/19/27 32/24/27
f 34/25/28 35/26/28 33/27/28
f 38/28/29 39/27/29 37/26/29
f 2/1/1 4/4/1 3/2/1
f 4/4/2 6/1/2 5/3/2
f 6/4/3 8/1/3 7/3/3
f 10/5/4 6/11/4 4/6/4
f 7/3/5 8/1/5 10/4/5
f 10/4/6 2/1/6 1/3/6
f 13/8/7 18/14/7 17/9/7
f 7/11/8 9/6/8 1/2/8
f 15/16/10 11/16/10 16/9/10
f 13/8/11 14/8/11 19/9/11
f 11/16/12 12/8/12 17/9/12
f 15/16/13 20/9/13 19/9/13
f 22/19/8 23/24/8 24/17/8
f 24/17/8 25/20/8 26/18/8
f 26/21/19 31/4/19 27/4/19
f 24/21/20 29/4/20 30/22/20
f 22/21/21 27/4/21 28/22/21
f 25/23/22 30/22/22 31/4/22
f 24/21/23 23/23/23 28/22/23
f 34/25/28 36/28/28 35/26/28
f 38/28/29 40/25/29 39/27/29
