# Blender 4.2.0
# www.blender.org
mtllib DartBoard01.mtl
o DartBoard01
v -0.707485 1.063203 0.066990
v -0.707485 1.063203 -0.001990
v -0.690805 0.004220 0.066990
v -0.690805 0.004220 -0.001990
v 0.690805 0.004220 0.066990
v 0.690805 0.004220 -0.001990
v 0.707485 1.063203 0.066990
v 0.707485 1.063203 -0.001990
v 0.353743 1.584022 0.066990
v 0.353743 1.584022 -0.001990
v -0.353743 1.584022 0.066990
v -0.353743 1.584022 -0.001990
vn -0.9999 -0.0157 -0.0000
vn -0.0000 -1.0000 -0.0000
vn 0.9999 -0.0157 -0.0000
vn 0.8272 0.5619 -0.0000
vn -0.0000 1.0000 -0.0000
vn -0.8272 0.5619 -0.0000
vn -0.0000 -0.0000 1.0000
vt 1.000000 0.000000
vt 0.965517 0.640625
vt 0.965517 0.000000
vt 1.000000 0.031250
vt 0.000000 0.000000
vt 0.000000 0.625000
vt 0.034483 0.000000
vt 0.034483 0.625000
vt 0.000000 0.375000
vt 0.034483 0.375000
vt 0.344828 0.968750
vt 0.655172 1.000000
vt 0.344828 1.000000
vt 0.965517 0.359375
vt 1.000000 0.671875
vt 0.223968 0.999905
vt 0.000095 0.670294
vt 0.982759 0.000000
vt 1.000000 0.640625
vt 0.000000 0.031250
vt 0.655172 0.968750
vt 1.000000 0.359375
vt 0.775862 1.000000
vt 0.010651 0.000095
s 0
usemtl Material
f 2/1/1 3/2/1 1/3/1
f 4/4/2 5/5/2 3/1/2
f 6/6/3 7/7/3 5/8/3
f 8/9/4 9/7/4 7/10/4
f 10/11/5 11/12/5 9/13/5
f 12/1/6 1/14/6 11/3/6
f 7/15/7 11/16/7 1/17/7
f 1/17/7 5/18/7 7/15/7
f 2/1/1 4/19/1 3/2/1
f 4/4/2 6/20/2 5/5/2
f 6/6/3 8/5/3 7/7/3
f 8/9/4 10/5/4 9/7/4
f 10/11/5 12/21/5 11/12/5
f 12/1/6 2/22/6 1/14/6
f 7/15/7 9/23/7 11/16/7
f 1/17/7 3/24/7 5/18/7
