# Blender 4.3.0
# www.blender.org
mtllib DivingBoard01.mtl
o DivingBoard01
v 0.500000 0.050000 -0.439286
v 0.500000 -0.050000 -0.439286
v -0.500000 0.050000 -0.439286
v -0.500000 -0.050000 -0.439286
v -0.500000 -0.050000 0.685714
v -0.450000 0.050000 0.885714
v -0.450000 -0.050000 0.885714
v 0.337500 0.050000 1.035715
v 0.337500 -0.050000 1.035715
v -0.337500 0.050000 1.035715
v -0.337500 -0.050000 1.035715
v 0.135000 0.050000 1.135715
v 0.135000 -0.050000 1.135715
v -0.135000 0.050000 1.135715
v -0.135000 -0.050000 1.135715
v 0.450000 0.050000 0.885714
v 0.500000 -0.050000 0.685714
v 0.500000 0.050000 0.685714
v -0.500000 0.050000 0.685714
v 0.450000 -0.050000 0.885714
v 0.220980 -0.050000 0.739192
v -0.220980 -0.050000 0.739192
v 0.220980 -0.050000 0.832237
v -0.220980 -0.050000 0.832237
v 0.220980 0.050000 0.832237
v 0.220980 0.050000 0.739192
v -0.220980 0.050000 0.739192
v -0.220980 0.050000 0.832237
vn -0.0000 1.0000 -0.0000
vn -0.9701 -0.0000 0.2425
vn -1.0000 -0.0000 -0.0000
vn -0.0000 -1.0000 -0.0000
vn 1.0000 -0.0000 -0.0000
vn -0.0000 -0.0000 -1.0000
vn 0.9701 -0.0000 0.2425
vn -0.4428 -0.0000 0.8966
vn -0.8000 -0.0000 0.6000
vn 0.8000 -0.0000 0.6000
vn -0.0000 -0.0000 1.0000
vn 0.4428 -0.0000 0.8966
vt 0.328125 0.854167
vt 0.031250 0.145833
vt 0.328125 0.145833
vt -0.015625 1.312500
vt 0.023438 1.187500
vt 0.023438 1.312500
vt -0.015625 2.000000
vt -0.093750 0.145833
vt 0.210938 0.854167
vt -0.093750 0.854167
vt 0.023438 -0.375000
vt -0.015625 0.312500
vt -0.015625 -0.375000
vt 0.023438 -1.000000
vt -0.015625 -1.000000
vt -0.023438 0.812500
vt -0.062500 0.250000
vt -0.023438 0.187500
vt 0.023438 0.312500
vt -0.015625 0.500000
vt -0.015625 1.062500
vt 0.023438 0.875000
vt 0.023438 1.062500
vt -0.015625 1.187500
vt 0.265625 0.187500
vt 0.304688 0.750000
vt 0.265625 0.812500
vt 0.023438 0.500000
vt -0.015625 0.562500
vt 0.023438 0.750000
vt -0.015625 0.875000
vt -0.015625 0.750000
vt 0.304688 0.250000
vt 0.328125 0.604167
vt 0.023438 0.562500
vt -0.062500 0.750000
vt -0.093750 0.395833
vt -0.007812 0.333333
vt -0.007812 0.666667
vt 0.015625 0.666667
vt 0.031250 0.854167
vt 0.226562 0.333333
vt 0.250000 0.333333
vt 0.226562 0.666667
vt -0.015625 1.687500
vt 0.023438 1.750000
vt -0.015625 1.750000
vt 0.210938 0.145833
vt 0.015625 0.333333
vt 0.250000 0.666667
vt -0.015625 1.437500
vt 0.023438 1.687500
vt 0.023438 2.000000
vt -0.015625 1.375000
vt 0.023438 1.437500
vt 0.328125 0.395833
vt -0.093750 0.604167
vt 0.023438 1.375000
s 0
usemtl Primary
f 3/1/1 18/2/1 1/3/1
f 5/4/2 6/5/2 19/6/2
f 19/6/3 4/7/3 5/4/3
f 2/8/4 5/9/4 4/10/4
f 1/11/5 17/12/5 2/13/5
f 3/14/6 2/13/6 4/15/6
f 6/16/1 8/17/1 16/18/1
f 18/19/7 20/20/7 17/12/7
f 11/21/8 14/22/8 10/23/8
f 7/24/9 10/23/9 6/5/9
f 20/25/4 11/26/4 7/27/4
f 16/28/10 9/29/10 20/20/10
f 12/30/11 15/31/11 13/32/11
f 9/33/4 15/34/4 11/26/4
f 8/35/12 13/32/12 9/29/12
f 10/36/1 12/37/1 8/17/1
f 6/16/1 25/38/1 28/39/1
f 27/40/1 18/2/1 19/41/1
f 21/42/4 20/25/4 23/43/4
f 22/44/4 7/27/4 5/9/4
f 23/45/3 26/46/3 21/47/3
f 6/16/1 27/40/1 19/41/1
f 17/48/4 22/44/4 5/9/4
f 26/49/1 16/18/1 18/2/1
f 23/43/4 7/27/4 24/50/4
f 24/51/6 25/52/6 23/45/6
f 21/47/11 27/53/11 22/7/11
f 22/54/5 28/55/5 24/51/5
f 3/1/1 19/41/1 18/2/1
f 5/4/2 7/24/2 6/5/2
f 19/6/3 3/53/3 4/7/3
f 2/8/4 17/48/4 5/9/4
f 1/11/5 18/19/5 17/12/5
f 3/14/6 1/11/6 2/13/6
f 6/16/1 10/36/1 8/17/1
f 18/19/7 16/28/7 20/20/7
f 11/21/8 15/31/8 14/22/8
f 7/24/9 11/21/9 10/23/9
f 20/25/4 9/33/4 11/26/4
f 16/28/10 8/35/10 9/29/10
f 12/30/11 14/22/11 15/31/11
f 9/33/4 13/56/4 15/34/4
f 8/35/12 12/30/12 13/32/12
f 10/36/1 14/57/1 12/37/1
f 6/16/1 16/18/1 25/38/1
f 27/40/1 26/49/1 18/2/1
f 21/42/4 17/48/4 20/25/4
f 22/44/4 24/50/4 7/27/4
f 23/45/3 25/52/3 26/46/3
f 6/16/1 28/39/1 27/40/1
f 17/48/4 21/42/4 22/44/4
f 26/49/1 25/38/1 16/18/1
f 23/43/4 20/25/4 7/27/4
f 24/51/6 28/55/6 25/52/6
f 21/47/11 26/46/11 27/53/11
f 22/54/5 27/58/5 28/55/5
