# Blender 4.3.0
# www.blender.org
mtllib FloatyDonut01.mtl
o FloatyDonut01
v 1.438954 0.000000 -0.172577
v 1.298954 0.242487 -0.172577
v 0.738954 0.320863 -0.172577
v 0.638954 0.000000 -0.172577
v 0.738954 -0.320863 -0.172577
v 1.298954 -0.242487 -0.172577
v 0.911840 0.000000 -1.267141
v 0.824551 0.242487 -1.157684
v 0.475397 0.320863 -0.719859
v 0.413048 0.000000 -0.641676
v 0.475397 -0.320863 -0.719859
v 0.824551 -0.242487 -1.157684
v -0.272575 0.000000 -1.537476
v -0.241422 0.242487 -1.400986
v -0.116811 0.320863 -0.855026
v -0.094559 0.000000 -0.757533
v -0.116811 -0.320863 -0.855026
v -0.241422 -0.242487 -1.400986
v -1.222402 0.000000 -0.780014
v -1.096267 0.242487 -0.719270
v -0.591724 0.320863 -0.476295
v -0.501627 0.000000 -0.432907
v -0.591724 -0.320863 -0.476295
v -1.096267 -0.242487 -0.719270
v -1.222403 0.000000 0.434860
v -1.096267 0.242487 0.374116
v -0.591724 0.320863 0.131142
v -0.501627 0.000000 0.087753
v -0.591724 -0.320863 0.131142
v -1.096267 -0.242487 0.374116
v -0.272575 0.000000 1.192322
v -0.241422 0.242487 1.055833
v -0.116811 0.320863 0.509873
v -0.094559 0.000000 0.412380
v -0.116811 -0.320863 0.509873
v -0.241422 -0.242487 1.055833
v 0.911839 0.000000 0.921988
v 0.824551 0.242487 0.812532
v 0.475396 0.320863 0.374706
v 0.413048 0.000000 0.296522
v 0.475396 -0.320863 0.374706
v 0.824551 -0.242487 0.812532
v 0.471998 0.000000 -1.177105
v 0.077193 0.000000 -1.267217
v 0.424190 0.242487 -1.058638
v 0.068865 0.242487 -1.139738
v 0.277994 0.320863 -0.764915
v 0.080592 0.320863 -0.809970
v 0.243846 0.000000 -0.680295
v 0.074644 0.000000 -0.718914
v 0.277994 -0.320863 -0.764915
v 0.080592 -0.320863 -0.809970
v 0.424190 -0.242487 -1.058638
v 0.068865 -0.242487 -1.139738
vn 0.7993 0.4615 -0.3849
vn 0.1383 0.9881 -0.0666
vn -0.8674 0.2703 0.4177
vn -0.8674 -0.2703 0.4177
vn 0.1383 -0.9881 -0.0666
vn 0.7993 -0.4615 -0.3849
vn 0.5929 0.3906 -0.7042
vn 0.0531 0.9711 -0.2327
vn -0.2142 0.2703 0.9386
vn -0.2142 -0.2703 0.9386
vn 0.0531 -0.9711 -0.2327
vn 0.5929 -0.3906 -0.7042
vn -0.5531 0.4615 -0.6936
vn -0.0957 0.9881 -0.1200
vn 0.6003 0.2703 0.7527
vn 0.6003 -0.2703 0.7527
vn -0.0957 -0.9881 -0.1200
vn -0.5531 -0.4615 -0.6936
vn -0.8872 0.4615 -0.0000
vn -0.1535 0.9881 -0.0000
vn 0.9628 0.2703 -0.0000
vn 0.9628 -0.2703 -0.0000
vn -0.1535 -0.9881 -0.0000
vn -0.8872 -0.4615 -0.0000
vn -0.5531 0.4615 0.6936
vn -0.0957 0.9881 0.1200
vn 0.6003 0.2703 -0.7527
vn 0.6003 -0.2703 -0.7527
vn -0.0957 -0.9881 0.1200
vn -0.5531 -0.4615 0.6936
vn 0.1974 0.4615 0.8649
vn 0.0342 0.9881 0.1497
vn -0.2142 0.2703 -0.9386
vn -0.2142 -0.2703 -0.9386
vn 0.0342 -0.9881 0.1497
vn 0.1974 -0.4615 0.8649
vn 0.7993 0.4615 0.3849
vn 0.1383 0.9881 0.0666
vn -0.8674 0.2703 -0.4177
vn -0.8674 -0.2703 -0.4177
vn 0.1383 -0.9881 0.0666
vn 0.7993 -0.4615 0.3849
vn -0.1881 -0.3470 -0.9188
vn 0.1974 -0.4615 -0.8649
vn -0.0538 -0.9746 -0.2173
vn -0.0538 0.9746 -0.2173
vn -0.1881 0.3470 -0.9188
vn 0.1974 0.4615 -0.8649
vn 0.5740 0.3444 -0.7429
vn 0.1457 0.9741 -0.1731
vn 0.1457 -0.9741 -0.1731
vn 0.5740 -0.3444 -0.7429
vn -0.2209 -0.3926 -0.8928
vn -0.2209 0.3926 -0.8928
vt 0.729167 1.000000
vt 0.250000 0.864583
vt 0.682074 0.890165
vt 0.598867 0.776799
vt 0.322917 0.750000
vt 0.579418 0.709122
vt 0.604167 0.677083
vt 0.385417 0.791667
vt 0.395833 0.708333
vt 0.656250 0.750000
vt 0.312500 0.916667
vt 0.729167 0.864583
vt 0.291667 1.000000
vt 0.875000 0.781250
vt 0.770833 0.875000
vt 0.812500 0.760417
vt 0.125000 0.670139
vt 0.197917 0.552083
vt 0.239583 0.618056
vt 0.270833 0.531250
vt 0.305556 0.579861
vt 0.697917 0.520833
vt 0.732639 0.611111
vt 0.666667 0.572917
vt 0.770833 0.541667
vt 0.861111 0.663194
vt 0.916667 0.541667
vt 0.937500 0.666667
vt 0.854167 0.645833
vt 0.020833 0.208333
vt 0.062500 0.572917
vt -0.052083 0.604167
vt 0.125000 0.260417
vt 0.302083 0.385417
vt 0.656250 0.354167
vt 0.729167 0.312500
vt 0.927083 0.562500
vt 0.927083 0.156250
vt 1.041667 0.583333
vt 0.385417 -0.052083
vt 0.416667 0.062500
vt 0.229167 0.343750
vt 0.437500 0.187500
vt 0.468750 0.270833
vt 0.468750 0.187500
vt 0.843750 0.218750
vt 0.458333 0.052083
vt 0.937500 0.145833
vt 0.718750 0.312500
vt 0.447917 0.281250
vt 0.312500 0.364583
vt 0.250000 0.312500
vt 0.145833 0.229167
vt 0.458333 -0.041667
vt 0.927083 0.593750
vt 0.833333 0.218750
vt 0.781250 0.562500
vt 0.270833 0.562500
vt 0.197917 0.583333
vt 0.072917 0.625000
vt 0.062500 0.166667
vt 1.052083 0.614583
vt 0.677083 0.906250
vt 0.635417 0.770833
vt 0.687500 0.541667
vt 0.364583 0.760417
vt 0.343750 0.895833
vt -0.020833 0.656250
vt 0.885417 0.791667
vt 0.833333 0.927083
vt 0.795139 0.763889
vt 0.694444 0.680556
vt 0.635417 0.625000
vt 0.281250 0.684028
vt 0.375000 0.677083
vt 0.340278 0.628472
vt 0.187500 0.767361
vt 0.916667 0.666667
vt 0.895833 0.552083
vt 0.968750 0.552083
vt 0.854167 0.656250
vt 0.177083 1.000000
vt 0.802083 1.000000
vt 0.822917 0.906250
vt 0.989583 0.541667
vt 0.739583 1.031250
vt 0.572917 0.697917
s 0
usemtl Primary
f 1/1/1 8/2/1 2/3/1
f 8/2/2 3/4/2 2/3/2
f 9/5/3 4/6/3 3/4/3
f 10/7/4 5/8/4 4/9/4
f 11/10/5 6/11/5 5/8/5
f 12/12/6 1/13/6 6/11/6
f 44/14/7 14/15/7 46/16/7
f 46/17/8 15/18/8 48/19/8
f 48/19/9 16/20/9 50/21/9
f 16/22/10 52/23/10 50/24/10
f 17/25/11 54/26/11 52/23/11
f 18/27/12 44/28/12 54/29/12
f 19/30/13 14/31/13 13/32/13
f 20/33/14 15/18/14 14/31/14
f 15/18/15 22/34/15 16/20/15
f 22/35/16 17/25/16 16/22/16
f 23/36/17 18/37/17 17/25/17
f 18/37/18 19/38/18 13/39/18
f 25/40/19 20/33/19 19/30/19
f 26/41/20 21/42/20 20/33/20
f 27/43/21 22/34/21 21/42/21
f 28/44/22 23/36/22 22/35/22
f 29/45/23 24/46/23 23/36/23
f 30/47/24 19/38/24 24/46/24
f 31/48/25 26/41/25 25/40/25
f 26/41/26 33/49/26 27/43/26
f 33/49/27 28/50/27 27/43/27
f 34/51/28 29/45/28 28/44/28
f 35/52/29 30/47/29 29/45/29
f 36/53/30 25/54/30 30/47/30
f 31/48/31 38/55/31 32/56/31
f 38/55/32 33/49/32 32/56/32
f 39/57/33 34/35/33 33/49/33
f 40/58/34 35/52/34 34/51/34
f 41/59/35 36/53/35 35/52/35
f 42/60/36 31/61/36 36/53/36
f 37/62/37 2/63/37 38/55/37
f 2/63/38 39/57/38 38/55/38
f 3/64/39 40/65/39 39/57/39
f 40/58/40 5/66/40 41/59/40
f 5/66/41 42/60/41 41/59/41
f 6/67/42 37/68/42 42/60/42
f 12/15/43 43/69/43 7/70/43
f 54/29/44 43/69/44 53/16/44
f 11/10/45 53/71/45 12/12/45
f 52/23/11 53/71/11 51/72/11
f 10/7/10 51/72/10 11/10/10
f 50/24/10 51/72/10 49/73/10
f 47/74/9 10/75/9 9/5/9
f 48/19/9 49/76/9 47/74/9
f 45/77/46 9/5/46 8/2/46
f 45/77/8 48/19/8 47/74/8
f 43/78/47 8/79/47 7/80/47
f 43/78/48 46/16/48 45/81/48
f 1/1/1 7/82/1 8/2/1
f 8/2/2 9/5/2 3/4/2
f 9/5/3 10/75/3 4/6/3
f 10/7/4 11/10/4 5/8/4
f 11/10/5 12/12/5 6/11/5
f 12/12/6 7/83/6 1/13/6
f 44/14/49 13/84/49 14/15/49
f 46/17/50 14/31/50 15/18/50
f 48/19/9 15/18/9 16/20/9
f 16/22/10 17/25/10 52/23/10
f 17/25/51 18/37/51 54/26/51
f 18/27/52 13/85/52 44/28/52
f 19/30/13 20/33/13 14/31/13
f 20/33/14 21/42/14 15/18/14
f 15/18/15 21/42/15 22/34/15
f 22/35/16 23/36/16 17/25/16
f 23/36/17 24/46/17 18/37/17
f 18/37/18 24/46/18 19/38/18
f 25/40/19 26/41/19 20/33/19
f 26/41/20 27/43/20 21/42/20
f 27/43/21 28/50/21 22/34/21
f 28/44/22 29/45/22 23/36/22
f 29/45/23 30/47/23 24/46/23
f 30/47/24 25/54/24 19/38/24
f 31/48/25 32/56/25 26/41/25
f 26/41/26 32/56/26 33/49/26
f 33/49/27 34/35/27 28/50/27
f 34/51/28 35/52/28 29/45/28
f 35/52/29 36/53/29 30/47/29
f 36/53/30 31/61/30 25/54/30
f 31/48/31 37/62/31 38/55/31
f 38/55/32 39/57/32 33/49/32
f 39/57/33 40/65/33 34/35/33
f 40/58/34 41/59/34 35/52/34
f 41/59/35 42/60/35 36/53/35
f 42/60/36 37/68/36 31/61/36
f 37/62/37 1/86/37 2/63/37
f 2/63/38 3/64/38 39/57/38
f 3/64/39 4/87/39 40/65/39
f 40/58/40 4/9/40 5/66/40
f 5/66/41 6/67/41 42/60/41
f 6/67/42 1/13/42 37/68/42
f 12/15/53 53/16/53 43/69/53
f 54/29/44 44/28/44 43/69/44
f 11/10/11 51/72/11 53/71/11
f 52/23/11 54/26/11 53/71/11
f 10/7/10 49/73/10 51/72/10
f 50/24/10 52/23/10 51/72/10
f 47/74/9 49/76/9 10/75/9
f 48/19/9 50/21/9 49/76/9
f 45/77/8 47/74/8 9/5/8
f 45/77/8 46/17/8 48/19/8
f 43/78/54 45/81/54 8/79/54
f 43/78/48 44/14/48 46/16/48
