# Blender 4.2.0
# www.blender.org
mtllib Football01.mtl
o Football01
v -0.148864 -0.407997 -0.000000
v -0.046001 -0.407996 -0.141578
v 0.120434 -0.407996 -0.087499
v 0.120434 -0.407996 0.087499
v -0.046001 -0.407996 0.141578
v 0.361800 -0.223607 0.087860
v 0.390231 -0.074743 0.175362
v 0.287368 -0.074744 0.316938
v 0.195365 -0.223607 0.316939
v 0.241366 -0.315611 0.175361
v -0.092192 -0.315611 0.283742
v 0.028242 -0.223607 0.371241
v -0.046192 -0.074742 0.425320
v -0.212624 -0.074744 0.371242
v -0.241056 -0.223607 0.283743
v -0.298349 -0.315610 -0.000000
v -0.344349 -0.223607 0.141577
v -0.418781 -0.074743 0.087498
v -0.418781 -0.074743 -0.087498
v -0.344349 -0.223607 -0.141577
v -0.092192 -0.315611 -0.283742
v -0.241056 -0.223607 -0.283743
v -0.212624 -0.074744 -0.371242
v -0.046192 -0.074742 -0.425320
v 0.028242 -0.223607 -0.371241
v 0.361800 -0.223607 -0.087860
v 0.241366 -0.315611 -0.175361
v 0.195365 -0.223607 -0.316939
v 0.287368 -0.074744 -0.316938
v 0.390231 -0.074743 -0.175362
v 0.046192 0.074742 0.425320
v 0.212624 0.074744 0.371242
v 0.241056 0.223608 0.283743
v 0.092192 0.315611 0.283742
v -0.028242 0.223608 0.371241
v -0.390231 0.074743 0.175362
v -0.287368 0.074744 0.316938
v -0.195365 0.223608 0.316939
v -0.241366 0.315611 0.175361
v -0.361800 0.223608 0.087860
v -0.287368 0.074744 -0.316938
v -0.390231 0.074743 -0.175362
v -0.361800 0.223608 -0.087860
v -0.241366 0.315611 -0.175361
v -0.195365 0.223608 -0.316939
v 0.212624 0.074744 -0.371242
v 0.046192 0.074742 -0.425320
v -0.028242 0.223608 -0.371241
v 0.092192 0.315611 -0.283742
v 0.241056 0.223608 -0.283743
v 0.418781 0.074743 0.087498
v 0.418781 0.074743 -0.087498
v 0.344349 0.223608 -0.141577
v 0.298349 0.315610 -0.000000
v 0.344349 0.223608 0.141577
v 0.046001 0.407996 0.141578
v 0.148864 0.407997 -0.000000
v 0.046001 0.407996 -0.141578
v -0.120434 0.407996 -0.087499
v -0.120434 0.407996 0.087499
vn 0.6071 -0.7947 -0.0000
vn -0.4911 -0.7947 -0.3568
vn 0.1876 -0.7947 0.5774
vn 0.1876 -0.7947 -0.5774
vn 0.3035 -0.1876 0.9342
vn 0.7946 0.1876 0.5774
vn 0.9822 -0.1876 -0.0000
vn -0.3035 0.1876 0.9342
vn -0.9822 0.1876 -0.0000
vn -0.3035 0.1876 -0.9342
vn -0.7946 -0.1876 0.5774
vn -0.7946 -0.1876 -0.5774
vn 0.3035 -0.1876 -0.9342
vn 0.7946 0.1876 -0.5774
vn 0.4911 0.7947 0.3568
vn -0.1876 0.7947 0.5774
vn -0.6071 0.7947 -0.0000
vn -0.1876 0.7947 -0.5774
vn 0.4911 0.7947 -0.3568
vn -0.0000 -1.0000 -0.0000
vn 0.7236 -0.4472 0.5257
vn -0.2764 -0.4472 0.8507
vn -0.8944 -0.4472 -0.0000
vn -0.2764 -0.4472 -0.8507
vn 0.7236 -0.4472 -0.5257
vn 0.2764 0.4472 0.8507
vn -0.7236 0.4472 0.5257
vn -0.7236 0.4472 -0.5257
vn 0.2764 0.4472 -0.8507
vn 0.8944 0.4472 -0.0000
vn -0.0000 1.0000 -0.0000
vn -0.4911 -0.7947 0.3568
vn -0.2764 -0.4472 0.8506
vn 0.2764 0.4472 0.8506
vt 0.013699 0.243902
vt 0.506849 0.243902
vt 0.260274 1.000000
vt 0.506849 0.756098
vt 0.013699 0.756098
vt 0.260274 0.000000
vt 0.493151 0.243902
vt 0.493151 0.756098
vt 0.246575 0.000000
vt 0.986301 0.292683
vt 0.493151 0.292683
vt 0.986301 0.756098
vt 0.739726 0.000000
vt 0.246575 1.000000
s 0
usemtl Primary
f 10/1/1 3/2/1 26/3/1
f 1/2/2 20/3/2 21/1/2
f 4/2/3 9/3/3 11/1/3
f 2/3/4 25/1/4 27/2/4
f 12/4/5 8/5/5 31/6/5
f 7/6/6 55/4/6 32/5/6
f 6/6/7 30/4/7 51/5/7
f 13/6/8 35/4/8 37/5/8
f 18/6/9 40/4/9 42/5/9
f 23/5/10 45/6/10 47/4/10
f 17/1/11 14/7/11 36/3/11
f 22/6/12 19/4/12 41/5/12
f 28/3/13 24/1/13 46/7/13
f 29/2/14 50/3/14 52/1/14
f 33/1/15 54/7/15 56/3/15
f 38/6/16 34/8/16 60/5/16
f 43/4/17 39/5/17 59/6/17
f 48/8/18 44/5/18 58/6/18
f 53/9/19 49/8/19 57/5/19
f 2/10/20 4/11/20 5/8/20
f 7/11/21 9/10/21 10/12/21
f 12/12/22 14/13/22 15/11/22
f 17/13/23 19/12/23 20/8/23
f 22/11/24 24/10/24 25/12/24
f 27/12/25 29/13/25 30/11/25
f 32/13/26 34/12/26 35/8/26
f 37/13/27 39/12/27 40/8/27
f 42/12/28 44/11/28 45/13/28
f 47/10/29 49/8/29 50/11/29
f 52/11/30 54/10/30 55/12/30
f 57/12/31 59/11/31 60/13/31
f 5/6/32 15/8/32 16/5/32
f 26/3/1 6/5/1 10/1/1
f 10/1/1 4/6/1 3/2/1
f 3/2/1 27/4/1 26/3/1
f 21/1/2 2/6/2 1/2/2
f 1/2/2 16/4/2 20/3/2
f 20/3/2 22/5/2 21/1/2
f 11/1/3 5/6/3 4/2/3
f 4/2/3 10/4/3 9/3/3
f 9/3/3 12/5/3 11/1/3
f 27/2/4 3/4/4 2/3/4
f 2/3/4 21/5/4 25/1/4
f 25/1/4 28/6/4 27/2/4
f 31/6/5 13/2/5 12/4/5
f 12/4/5 9/3/5 8/5/5
f 8/5/5 32/1/5 31/6/5
f 32/5/6 8/1/6 7/6/6
f 7/6/6 51/2/6 55/4/6
f 55/4/6 33/3/6 32/5/6
f 51/5/7 7/1/7 6/6/7
f 6/6/7 26/2/7 30/4/7
f 30/4/7 52/3/7 51/5/7
f 37/5/8 14/1/8 13/6/8
f 13/6/8 31/2/8 35/4/8
f 35/4/8 38/3/8 37/5/8
f 42/5/9 19/1/9 18/6/9
f 18/6/9 36/2/9 40/4/9
f 40/4/9 43/3/9 42/5/9
f 47/4/10 24/3/10 23/5/10
f 23/5/10 41/1/10 45/6/10
f 45/6/10 48/2/10 47/4/10
f 36/3/11 18/5/11 17/1/11
f 17/1/11 15/6/11 14/7/11
f 14/7/11 37/8/11 36/3/11
f 41/5/12 23/1/12 22/6/12
f 22/6/12 20/2/12 19/4/12
f 19/4/12 42/3/12 41/5/12
f 46/7/13 29/8/13 28/3/13
f 28/3/13 25/5/13 24/1/13
f 24/1/13 47/6/13 46/7/13
f 52/1/14 30/6/14 29/2/14
f 29/2/14 46/4/14 50/3/14
f 50/3/14 53/5/14 52/1/14
f 56/3/15 34/5/15 33/1/15
f 33/1/15 55/6/15 54/7/15
f 54/7/15 57/8/15 56/3/15
f 60/5/16 39/1/16 38/6/16
f 38/6/16 35/7/16 34/8/16
f 34/8/16 56/3/16 60/5/16
f 59/6/17 44/2/17 43/4/17
f 43/4/17 40/3/17 39/5/17
f 39/5/17 60/1/17 59/6/17
f 58/6/18 49/7/18 48/8/18
f 48/8/18 45/3/18 44/5/18
f 44/5/18 59/1/18 58/6/18
f 57/5/19 54/1/19 53/9/19
f 53/9/19 50/7/19 49/8/19
f 49/8/19 58/14/19 57/5/19
f 5/8/20 1/12/20 2/10/20
f 2/10/20 3/13/20 4/11/20
f 10/12/21 6/8/21 7/11/21
f 7/11/21 8/13/21 9/10/21
f 15/11/22 11/8/22 12/12/22
f 12/12/33 13/10/33 14/13/33
f 20/8/23 16/11/23 17/13/23
f 17/13/23 18/10/23 19/12/23
f 25/12/24 21/8/24 22/11/24
f 22/11/24 23/13/24 24/10/24
f 30/11/25 26/8/25 27/12/25
f 27/12/25 28/10/25 29/13/25
f 35/8/34 31/11/34 32/13/34
f 32/13/26 33/10/26 34/12/26
f 40/8/27 36/11/27 37/13/27
f 37/13/27 38/10/27 39/12/27
f 45/13/28 41/10/28 42/12/28
f 42/12/28 43/8/28 44/11/28
f 50/11/29 46/13/29 47/10/29
f 47/10/29 48/12/29 49/8/29
f 55/12/30 51/8/30 52/11/30
f 52/11/30 53/13/30 54/10/30
f 60/13/31 56/10/31 57/12/31
f 57/12/31 58/8/31 59/11/31
f 16/5/32 1/1/32 5/6/32
f 5/6/32 11/7/32 15/8/32
f 15/8/32 17/3/32 16/5/32
