# Blender 4.3.0
# www.blender.org
mtllib LifebuoyRing01.mtl
o LifebuoyRing01
v 0.625000 0.000000 0.000000
v 0.562500 0.108253 0.000000
v 0.437500 0.108253 0.000000
v 0.375000 0.000000 0.000000
v 0.437500 -0.108253 0.000000
v 0.562500 -0.108253 0.000000
v 0.505636 0.000000 -0.367366
v 0.455072 0.108253 -0.330629
v 0.353945 0.108253 -0.257156
v 0.303381 0.000000 -0.220419
v 0.353945 -0.108253 -0.257156
v 0.455072 -0.108253 -0.330629
v 0.193136 0.000000 -0.594410
v 0.173822 0.108253 -0.534969
v 0.135195 0.108253 -0.416087
v 0.115881 0.000000 -0.356646
v 0.135195 -0.108253 -0.416087
v 0.173822 -0.108253 -0.534969
v -0.193136 0.000000 -0.594410
v -0.173822 0.108253 -0.534969
v -0.135195 0.108253 -0.416087
v -0.115881 0.000000 -0.356646
v -0.135195 -0.108253 -0.416087
v -0.173822 -0.108253 -0.534969
v -0.505636 0.000000 -0.367366
v -0.455072 0.108253 -0.330629
v -0.353945 0.108253 -0.257156
v -0.303381 0.000000 -0.220419
v -0.353945 -0.108253 -0.257156
v -0.455072 -0.108253 -0.330629
v -0.625000 0.000000 -0.000000
v -0.562500 0.108253 -0.000000
v -0.437500 0.108253 -0.000000
v -0.375000 0.000000 -0.000000
v -0.437500 -0.108253 -0.000000
v -0.562500 -0.108253 -0.000000
v -0.505636 0.000000 0.367366
v -0.455072 0.108253 0.330629
v -0.353945 0.108253 0.257156
v -0.303381 0.000000 0.220419
v -0.353945 -0.108253 0.257156
v -0.455072 -0.108253 0.330629
v -0.193136 0.000000 0.594410
v -0.173822 0.108253 0.534969
v -0.135195 0.108253 0.416087
v -0.115881 0.000000 0.356646
v -0.135195 -0.108253 0.416087
v -0.173822 -0.108253 0.534969
v 0.193136 0.000000 0.594410
v 0.173822 0.108253 0.534969
v 0.135195 0.108253 0.416087
v 0.115881 0.000000 0.356646
v 0.135195 -0.108253 0.416087
v 0.173822 -0.108253 0.534969
v 0.505635 0.000000 0.367366
v 0.455072 0.108253 0.330629
v 0.353945 0.108253 0.257156
v 0.303381 0.000000 0.220420
v 0.353945 -0.108253 0.257156
v 0.455072 -0.108253 0.330629
vn 0.8336 0.4813 -0.2709
vn -0.0000 1.0000 -0.0000
vn -0.8337 0.4813 0.2709
vn -0.8337 -0.4813 0.2709
vn -0.0000 -1.0000 -0.0000
vn 0.8336 -0.4813 -0.2709
vn 0.5152 0.4813 -0.7091
vn -0.5152 0.4813 0.7091
vn -0.5152 -0.4813 0.7091
vn 0.5152 -0.4813 -0.7091
vn -0.0000 0.4813 -0.8766
vn -0.0000 0.4813 0.8766
vn -0.0000 -0.4813 0.8766
vn -0.0000 -0.4813 -0.8766
vn -0.5152 0.4813 -0.7091
vn 0.5152 0.4813 0.7091
vn 0.5152 -0.4813 0.7091
vn -0.5152 -0.4813 -0.7091
vn -0.8337 0.4813 -0.2709
vn 0.8337 0.4813 0.2709
vn 0.8337 -0.4813 0.2709
vn -0.8337 -0.4813 -0.2709
vn 0.8337 0.4813 -0.2709
vn 0.8337 -0.4813 -0.2709
vn 0.8336 0.4813 0.2709
vn -0.8336 0.4813 -0.2709
vn 0.8336 -0.4813 0.2709
vn -0.8336 -0.4813 -0.2709
vt 0.489583 1.000000
vt 0.709332 0.862889
vt 0.743720 0.913653
vt 0.479167 0.937500
vt 0.664924 0.816794
vt 0.479167 0.812500
vt 0.631483 0.768573
vt 0.781250 0.531250
vt 0.791667 0.750000
vt 0.708333 0.708333
vt 0.854167 0.531250
vt 0.843750 0.770833
vt 0.937500 0.531250
vt 0.906250 0.812500
vt 0.250000 0.875000
vt 0.479167 0.875000
vt 0.281250 0.822917
vt 0.718750 0.343750
vt 0.843750 0.270833
vt 1.010417 0.531250
vt 0.031250 0.718750
vt 0.218750 0.927083
vt 0.083333 0.687500
vt 0.145833 0.666667
vt 0.312500 0.770833
vt 0.593750 0.229167
vt 0.791667 0.312500
vt 0.625000 0.177083
vt 0.645833 0.114583
vt 0.895833 0.208333
vt -0.010417 0.437500
vt 0.041667 0.447917
vt 0.114583 0.468750
vt 0.197917 0.645833
vt 0.395833 0.229167
vt 0.385417 0.166667
vt 0.354167 0.020833
vt 0.656250 0.031250
vt 0.104167 0.177083
vt 0.156250 0.229167
vt 0.187500 0.270833
vt 0.177083 0.479167
vt 0.364583 0.083333
vt 0.260417 0.322917
vt 0.635417 0.770833
vt 0.666667 0.812500
vt 0.708333 0.864583
vt 0.739583 0.916667
s 0
usemtl Primary
f 7/1/1 2/2/1 1/3/1
f 8/4/2 3/5/2 2/2/2
f 3/5/3 10/6/3 4/7/3
f 10/8/4 5/9/4 4/10/4
f 11/11/5 6/12/5 5/9/5
f 12/13/6 1/14/6 6/12/6
f 7/1/7 14/15/7 8/4/7
f 14/15/2 9/16/2 8/4/2
f 15/17/8 10/6/8 9/16/8
f 16/18/9 11/11/9 10/8/9
f 11/11/5 18/19/5 12/13/5
f 18/19/10 7/20/10 12/13/10
f 19/21/11 14/15/11 13/22/11
f 20/23/2 15/17/2 14/15/2
f 21/24/12 16/25/12 15/17/12
f 22/26/13 17/27/13 16/18/13
f 23/28/5 18/19/5 17/27/5
f 24/29/14 13/30/14 18/19/14
f 25/31/15 20/23/15 19/21/15
f 26/32/2 21/24/2 20/23/2
f 27/33/16 22/34/16 21/24/16
f 28/35/17 23/28/17 22/26/17
f 29/36/5 24/29/5 23/28/5
f 24/29/18 25/37/18 19/38/18
f 31/39/19 26/32/19 25/31/19
f 32/40/2 27/33/2 26/32/2
f 33/41/20 28/42/20 27/33/20
f 28/35/21 35/41/21 29/36/21
f 35/41/5 30/43/5 29/36/5
f 30/43/22 31/39/22 25/37/22
f 37/37/3 32/40/3 31/39/3
f 32/40/2 39/36/2 33/41/2
f 39/36/23 34/44/23 33/41/23
f 40/42/24 35/41/24 34/44/24
f 41/33/5 36/40/5 35/41/5
f 42/32/4 31/39/4 36/40/4
f 43/38/8 38/43/8 37/37/8
f 44/29/2 39/36/2 38/43/2
f 45/28/7 40/35/7 39/36/7
f 46/34/10 41/33/10 40/42/10
f 47/24/5 42/32/5 41/33/5
f 42/32/9 43/21/9 37/31/9
f 49/30/12 44/29/12 43/38/12
f 44/29/2 51/27/2 45/28/2
f 51/27/11 46/26/11 45/28/11
f 52/25/14 47/24/14 46/34/14
f 53/17/5 48/23/5 47/24/5
f 54/15/13 43/21/13 48/23/13
f 55/20/16 50/19/16 49/30/16
f 56/13/2 51/27/2 50/19/2
f 57/11/15 52/18/15 51/27/15
f 58/6/18 53/17/18 52/25/18
f 53/17/5 60/4/5 54/15/5
f 60/4/17 49/22/17 54/15/17
f 1/14/25 56/13/25 55/20/25
f 2/12/2 57/11/2 56/13/2
f 3/9/26 58/8/26 57/11/26
f 4/45/22 59/16/22 58/6/22
f 5/46/5 60/4/5 59/16/5
f 6/47/27 55/1/27 60/4/27
f 7/1/23 8/4/23 2/2/23
f 8/4/2 9/16/2 3/5/2
f 3/5/3 9/16/3 10/6/3
f 10/8/4 11/11/4 5/9/4
f 11/11/5 12/13/5 6/12/5
f 12/13/24 7/20/24 1/14/24
f 7/1/7 13/22/7 14/15/7
f 14/15/2 15/17/2 9/16/2
f 15/17/8 16/25/8 10/6/8
f 16/18/9 17/27/9 11/11/9
f 11/11/5 17/27/5 18/19/5
f 18/19/10 13/30/10 7/20/10
f 19/21/11 20/23/11 14/15/11
f 20/23/2 21/24/2 15/17/2
f 21/24/12 22/34/12 16/25/12
f 22/26/13 23/28/13 17/27/13
f 23/28/5 24/29/5 18/19/5
f 24/29/14 19/38/14 13/30/14
f 25/31/15 26/32/15 20/23/15
f 26/32/2 27/33/2 21/24/2
f 27/33/16 28/42/16 22/34/16
f 28/35/17 29/36/17 23/28/17
f 29/36/5 30/43/5 24/29/5
f 24/29/18 30/43/18 25/37/18
f 31/39/19 32/40/19 26/32/19
f 32/40/2 33/41/2 27/33/2
f 33/41/25 34/44/25 28/42/25
f 28/35/27 34/44/27 35/41/27
f 35/41/5 36/40/5 30/43/5
f 30/43/22 36/40/22 31/39/22
f 37/37/3 38/43/3 32/40/3
f 32/40/2 38/43/2 39/36/2
f 39/36/23 40/35/23 34/44/23
f 40/42/24 41/33/24 35/41/24
f 41/33/5 42/32/5 36/40/5
f 42/32/4 37/31/4 31/39/4
f 43/38/8 44/29/8 38/43/8
f 44/29/2 45/28/2 39/36/2
f 45/28/7 46/26/7 40/35/7
f 46/34/10 47/24/10 41/33/10
f 47/24/5 48/23/5 42/32/5
f 42/32/9 48/23/9 43/21/9
f 49/30/12 50/19/12 44/29/12
f 44/29/2 50/19/2 51/27/2
f 51/27/11 52/18/11 46/26/11
f 52/25/14 53/17/14 47/24/14
f 53/17/5 54/15/5 48/23/5
f 54/15/13 49/22/13 43/21/13
f 55/20/16 56/13/16 50/19/16
f 56/13/2 57/11/2 51/27/2
f 57/11/15 58/8/15 52/18/15
f 58/6/18 59/16/18 53/17/18
f 53/17/5 59/16/5 60/4/5
f 60/4/17 55/1/17 49/22/17
f 1/14/25 2/12/25 56/13/25
f 2/12/2 3/9/2 57/11/2
f 3/9/19 4/10/19 58/8/19
f 4/45/28 5/46/28 59/16/28
f 5/46/5 6/47/5 60/4/5
f 6/47/27 1/48/27 55/1/27
