# Blender 4.2.0
# www.blender.org
mtllib ParkourCrawlspace01.mtl
o ParkourCrawlspace01
v -4.075000 1.250000 -0.000000
v -4.075001 0.000000 -0.000000
v 3.925000 0.000000 -0.000000
v 3.925000 1.250000 -0.000000
v 3.962500 0.000000 -0.064952
v 3.962500 1.250000 -0.064952
v 4.037499 0.000000 -0.064952
v 4.037500 1.250000 -0.064952
v 4.075000 0.000000 -0.000000
v 4.075000 1.250000 -0.000000
v 4.037499 0.000000 0.064952
v 4.037500 1.250000 0.064952
v 3.962500 0.000000 0.064952
v 3.962500 1.250000 0.064952
v -4.037500 0.000000 -0.064952
v -4.037500 1.250000 -0.064952
v -3.962501 0.000000 -0.064952
v -3.962500 1.250000 -0.064952
v -3.925000 0.000000 -0.000000
v -3.925000 1.250000 -0.000000
v -3.962501 0.000000 0.064951
v -3.962500 1.250000 0.064951
v -4.037500 0.000000 0.064951
v -4.037500 1.250000 0.064951
v 4.037500 1.250000 6.064952
v 4.037499 0.000000 6.064952
v 4.075000 1.250000 6.000000
v 4.075000 0.000000 6.000000
v 4.037500 1.250000 5.935048
v 4.037499 0.000000 5.935048
v 3.962500 1.250000 5.935048
v 3.962500 0.000000 5.935048
v 3.925000 1.250000 6.000000
v 3.925000 0.000000 6.000000
v -4.075001 0.000000 6.000000
v -4.075000 1.250000 6.000000
v -4.075001 0.000000 -6.000000
v -4.075000 1.250000 -6.000000
v -4.037500 1.250000 6.064951
v -4.037500 0.000000 6.064951
v -3.962500 1.250000 6.064951
v -3.962501 0.000000 6.064951
v -3.925000 1.250000 6.000000
v -3.925000 0.000000 6.000000
v -3.962500 1.250000 5.935048
v -3.962501 0.000000 5.935048
v -4.037500 1.250000 5.935048
v -4.037500 0.000000 5.935048
v 3.962500 1.250000 6.064952
v 3.962500 0.000000 6.064952
v 3.925000 0.000000 -6.000000
v 3.925000 1.250000 -6.000000
v 3.962500 0.000000 -6.064952
v 3.962500 1.250000 -6.064952
v 4.037499 0.000000 -6.064952
v 4.037500 1.250000 -6.064952
v 4.075000 0.000000 -6.000000
v 4.075000 1.250000 -6.000000
v 4.037499 0.000000 -5.935048
v 4.037500 1.250000 -5.935048
v 3.962500 0.000000 -5.935048
v 3.962500 1.250000 -5.935048
v -4.037500 0.000000 -6.064952
v -4.037500 1.250000 -6.064952
v -3.962501 0.000000 -6.064952
v -3.962500 1.250000 -6.064952
v -3.925000 0.000000 -6.000000
v -3.925000 1.250000 -6.000000
v -3.962501 0.000000 -5.935049
v -3.962500 1.250000 -5.935049
v -4.037500 0.000000 -5.935049
v -4.037500 1.250000 -5.935049
v -0.075000 0.000000 -0.000000
v -0.075000 1.250000 -0.000000
v -0.037500 0.000000 -0.064952
v -0.037500 1.250000 -0.064952
v 0.037499 0.000000 -0.064952
v 0.037500 1.250000 -0.064952
v 0.075000 0.000000 -0.000000
v 0.075000 1.250000 -0.000000
v 0.037499 0.000000 0.064952
v 0.037500 1.250000 0.064952
v -0.037500 0.000000 0.064952
v -0.037500 1.250000 0.064952
v 0.037500 1.250000 6.064952
v 0.037499 0.000000 6.064952
v 0.075000 1.250000 6.000000
v 0.075000 0.000000 6.000000
v 0.037500 1.250000 5.935048
v 0.037499 0.000000 5.935048
v -0.037500 1.250000 5.935048
v -0.037500 0.000000 5.935048
v -0.075000 1.250000 6.000000
v -0.075000 0.000000 6.000000
v -0.037500 1.250000 6.064952
v -0.037500 0.000000 6.064952
v -0.075000 0.000000 -6.000000
v -0.075000 1.250000 -6.000000
v -0.037500 0.000000 -6.064952
v -0.037500 1.250000 -6.064952
v 0.037499 0.000000 -6.064952
v 0.037500 1.250000 -6.064952
v 0.075000 0.000000 -6.000000
v 0.075000 1.250000 -6.000000
v 0.037499 0.000000 -5.935048
v 0.037500 1.250000 -5.935048
v -0.037500 0.000000 -5.935048
v -0.037500 1.250000 -5.935048
v -4.000000 1.250000 6.000000
v 0.000000 1.250000 6.000000
v -4.000000 1.250000 0.000000
v 0.000000 1.250000 0.000000
v -3.636250 1.250000 3.000000
v -0.363750 1.250000 3.000000
v -2.000000 1.250000 5.850000
v -2.000000 1.250000 0.150000
v -2.000000 1.250000 3.000000
v 4.000000 1.250000 6.000000
v 4.000000 1.250000 0.000000
v 3.636250 1.250000 3.000000
v 0.363750 1.250000 3.000000
v 2.000000 1.250000 5.850000
v 2.000000 1.250000 0.150000
v 2.000000 1.250000 3.000000
v -4.000000 1.250000 -6.000000
v 0.000000 1.250000 -6.000000
v -3.636250 1.250000 -3.000000
v -0.363750 1.250000 -3.000000
v -2.000000 1.250000 -5.850000
v -2.000000 1.250000 -0.150000
v -2.000000 1.250000 -3.000000
v 4.000000 1.250000 -6.000000
v 3.636250 1.250000 -3.000000
v 0.363750 1.250000 -3.000000
v 2.000000 1.250000 -5.850000
v 2.000000 1.250000 -0.150000
v 2.000000 1.250000 -3.000000
vn -0.8660 -0.0000 -0.5000
vn 0.8660 -0.0000 0.5000
vn -0.0000 -0.0000 -1.0000
vn 0.8660 -0.0000 -0.5000
vn -0.8660 -0.0000 0.5000
vn -0.0000 -0.0000 1.0000
vn -0.0000 1.0000 -0.0000
vt 0.924107 0.468750
vt 0.638393 0.476562
vt 0.638393 0.468750
vt 0.924107 0.562500
vt 0.638393 0.554688
vt 0.638393 0.562500
vt 0.924107 0.476562
vt 0.638393 0.492188
vt 0.924107 0.492188
vt 0.638393 0.515625
vt 0.924107 0.531250
vt 0.638393 0.531250
vt 0.924107 0.500000
vt 0.638393 0.500000
vt 0.924107 0.515625
vt 0.638393 0.539062
vt 0.924107 0.554688
vt 0.924107 0.539062
vt 1.406250 0.500000
vt 0.500000 2.296875
vt 0.500000 0.500000
vt 0.500000 -1.296875
vt -0.406250 0.500000
vt -0.500000 -1.500000
vt -0.500000 2.500000
vt 1.500000 -1.500000
vt 1.500000 2.500000
s 0
usemtl Material
f 4/1/1 5/2/1 3/3/1
f 20/4/2 21/5/2 19/6/2
f 6/7/3 7/8/3 5/2/3
f 18/7/4 19/3/4 17/2/4
f 8/9/4 9/10/4 7/8/4
f 24/11/5 2/10/5 23/12/5
f 16/13/3 17/2/3 15/14/3
f 10/15/2 11/12/2 9/10/2
f 1/15/1 15/14/1 2/10/1
f 12/11/6 13/16/6 11/12/6
f 22/17/6 23/12/6 21/5/6
f 14/18/5 3/6/5 13/16/5
f 44/6/2 41/17/2 42/5/2
f 31/7/3 30/8/3 32/2/3
f 29/9/4 28/10/4 30/8/4
f 45/7/4 44/3/4 46/2/4
f 40/12/5 36/15/5 35/10/5
f 33/1/1 32/2/1 34/3/1
f 62/18/5 51/6/5 61/16/5
f 64/13/3 65/2/3 63/14/3
f 52/1/1 53/2/1 51/3/1
f 41/17/7 45/7/7 39/11/7
f 72/11/5 37/10/5 71/12/5
f 25/11/6 50/16/6 26/12/6
f 60/11/6 61/16/6 59/12/6
f 56/9/4 57/10/4 55/8/4
f 36/15/1 48/14/1 35/10/1
f 38/15/1 63/14/1 37/10/1
f 66/7/4 67/3/4 65/2/4
f 28/10/2 25/11/2 26/12/2
f 41/17/6 40/12/6 42/5/6
f 54/7/3 55/8/3 53/2/3
f 47/13/3 46/2/3 48/14/3
f 70/17/6 71/12/6 69/5/6
f 58/15/2 59/12/2 57/10/2
f 49/18/5 34/6/5 50/16/5
f 68/4/2 69/5/2 67/6/2
f 47/13/7 39/11/7 45/7/7
f 33/4/7 29/9/7 31/7/7
f 29/9/7 25/11/7 27/15/7
f 8/9/7 12/11/7 10/15/7
f 4/4/7 8/9/7 6/7/7
f 16/13/7 24/11/7 18/7/7
f 22/17/7 18/7/7 24/11/7
f 64/13/7 72/11/7 66/7/7
f 70/17/7 66/7/7 72/11/7
f 56/9/7 52/4/7 62/18/7
f 56/9/7 60/11/7 58/15/7
f 74/1/1 75/2/1 73/3/1
f 76/7/3 77/8/3 75/2/3
f 78/9/4 79/10/4 77/8/4
f 80/15/2 81/12/2 79/10/2
f 82/11/6 83/16/6 81/12/6
f 84/18/5 73/6/5 83/16/5
f 91/7/3 90/8/3 92/2/3
f 89/9/4 88/10/4 90/8/4
f 93/1/1 92/2/1 94/3/1
f 108/18/5 97/6/5 107/16/5
f 98/1/1 99/2/1 97/3/1
f 85/11/6 96/16/6 86/12/6
f 106/11/6 107/16/6 105/12/6
f 102/9/4 103/10/4 101/8/4
f 87/15/2 86/12/2 88/10/2
f 100/7/3 101/8/3 99/2/3
f 104/15/2 105/12/2 103/10/2
f 95/18/5 94/6/5 96/16/5
f 93/4/7 89/9/7 91/7/7
f 89/9/7 85/11/7 87/15/7
f 78/9/7 82/11/7 80/15/7
f 74/4/7 78/9/7 76/7/7
f 102/9/7 98/4/7 108/18/7
f 102/9/7 106/11/7 104/15/7
f 4/1/1 6/7/1 5/2/1
f 20/4/2 22/17/2 21/5/2
f 6/7/3 8/9/3 7/8/3
f 18/7/4 20/1/4 19/3/4
f 8/9/4 10/15/4 9/10/4
f 24/11/5 1/15/5 2/10/5
f 16/13/3 18/7/3 17/2/3
f 10/15/2 12/11/2 11/12/2
f 1/15/1 16/13/1 15/14/1
f 12/11/6 14/18/6 13/16/6
f 22/17/6 24/11/6 23/12/6
f 14/18/5 4/4/5 3/6/5
f 44/6/2 43/4/2 41/17/2
f 31/7/3 29/9/3 30/8/3
f 29/9/4 27/15/4 28/10/4
f 45/7/4 43/1/4 44/3/4
f 40/12/5 39/11/5 36/15/5
f 33/1/1 31/7/1 32/2/1
f 62/18/5 52/4/5 51/6/5
f 64/13/3 66/7/3 65/2/3
f 52/1/1 54/7/1 53/2/1
f 41/17/7 43/1/7 45/7/7
f 72/11/5 38/15/5 37/10/5
f 25/11/6 49/18/6 50/16/6
f 60/11/6 62/18/6 61/16/6
f 56/9/4 58/15/4 57/10/4
f 36/15/1 47/13/1 48/14/1
f 38/15/1 64/13/1 63/14/1
f 66/7/4 68/1/4 67/3/4
f 28/10/2 27/15/2 25/11/2
f 41/17/6 39/11/6 40/12/6
f 54/7/3 56/9/3 55/8/3
f 47/13/3 45/7/3 46/2/3
f 70/17/6 72/11/6 71/12/6
f 58/15/2 60/11/2 59/12/2
f 49/18/5 33/4/5 34/6/5
f 68/4/2 70/17/2 69/5/2
f 47/13/7 36/15/7 39/11/7
f 33/4/7 49/18/7 29/9/7
f 29/9/7 49/18/7 25/11/7
f 8/9/7 14/18/7 12/11/7
f 4/4/7 14/18/7 8/9/7
f 16/13/7 1/15/7 24/11/7
f 22/17/7 20/1/7 18/7/7
f 64/13/7 38/15/7 72/11/7
f 70/17/7 68/1/7 66/7/7
f 56/9/7 54/7/7 52/4/7
f 56/9/7 62/18/7 60/11/7
f 74/1/1 76/7/1 75/2/1
f 76/7/3 78/9/3 77/8/3
f 78/9/4 80/15/4 79/10/4
f 80/15/2 82/11/2 81/12/2
f 82/11/6 84/18/6 83/16/6
f 84/18/5 74/4/5 73/6/5
f 91/7/3 89/9/3 90/8/3
f 89/9/4 87/15/4 88/10/4
f 93/1/1 91/7/1 92/2/1
f 108/18/5 98/4/5 97/6/5
f 98/1/1 100/7/1 99/2/1
f 85/11/6 95/18/6 96/16/6
f 106/11/6 108/18/6 107/16/6
f 102/9/4 104/15/4 103/10/4
f 87/15/2 85/11/2 86/12/2
f 100/7/3 102/9/3 101/8/3
f 104/15/2 106/11/2 105/12/2
f 95/18/5 93/4/5 94/6/5
f 93/4/7 95/18/7 89/9/7
f 89/9/7 95/18/7 85/11/7
f 78/9/7 84/18/7 82/11/7
f 74/4/7 84/18/7 78/9/7
f 102/9/7 100/7/7 98/4/7
f 102/9/7 108/18/7 106/11/7
usemtl Wire
f 114/19/7 116/20/7 117/21/7
f 115/22/7 114/19/7 117/21/7
f 115/22/7 113/23/7 109/24/7
f 113/23/7 116/20/7 111/25/7
f 123/20/7 121/19/7 124/21/7
f 122/22/7 121/19/7 110/26/7
f 120/23/7 122/22/7 118/24/7
f 120/23/7 123/20/7 124/21/7
f 130/20/7 128/19/7 131/21/7
f 129/22/7 128/19/7 126/26/7
f 127/23/7 129/22/7 125/24/7
f 127/23/7 130/20/7 131/21/7
f 134/19/7 136/20/7 137/21/7
f 135/22/7 134/19/7 137/21/7
f 135/22/7 133/23/7 132/24/7
f 133/23/7 136/20/7 119/25/7
f 114/19/7 112/27/7 116/20/7
f 115/22/7 110/26/7 114/19/7
f 115/22/7 117/21/7 113/23/7
f 113/23/7 117/21/7 116/20/7
f 123/20/7 112/27/7 121/19/7
f 122/22/7 124/21/7 121/19/7
f 120/23/7 124/21/7 122/22/7
f 120/23/7 119/25/7 123/20/7
f 130/20/7 112/27/7 128/19/7
f 129/22/7 131/21/7 128/19/7
f 127/23/7 131/21/7 129/22/7
f 127/23/7 111/25/7 130/20/7
f 134/19/7 112/27/7 136/20/7
f 135/22/7 126/26/7 134/19/7
f 135/22/7 137/21/7 133/23/7
f 133/23/7 137/21/7 136/20/7
