# Blender 4.2.0
# www.blender.org
mtllib ParkourRamp01.mtl
o ParkourRamp01
v -1.500000 0.003589 0.764867
v -1.500000 2.737448 0.764868
v -1.500000 0.003589 -1.972580
v -1.500000 2.737448 -1.710027
v 1.500000 2.737448 0.764868
v 1.500000 0.003589 -1.972580
v 1.500000 2.737448 -1.710027
v -1.500000 3.000000 0.764868
v -1.500000 -0.014357 5.070679
v 1.500000 3.000000 0.764868
v 1.500000 -0.014357 5.070679
v 1.500000 0.003589 0.764727
v -1.500000 0.003589 -1.710027
v -1.500000 3.000000 -1.972579
v 1.500000 3.000000 -1.972579
v 1.500000 0.003589 -1.710027
vn -0.0000 -0.0000 -1.0000
vn -0.0000 -1.0000 -0.0000
vn -0.0000 -0.0000 1.0000
vn -0.0000 1.0000 -0.0000
vn -1.0000 -0.0000 -0.0000
vn 1.0000 -0.0000 -0.0000
vn -0.0000 0.8192 0.5735
vt 1.000000 1.000000
vt 0.500000 0.000000
vt 1.000000 0.000000
vt 0.259931 0.045347
vt 0.518218 0.258425
vt 0.259931 0.258425
vt 0.500000 1.000000
vt 0.000000 0.000000
vt 0.519531 -0.000000
vt 0.550781 0.000000
vt 0.000000 1.000000
vt 0.518218 0.493799
vt 0.259931 0.493799
vt 0.046875 0.906250
vt 0.503906 1.000000
vt 0.042969 0.000000
vt 0.042969 0.914062
vt 0.500000 0.914062
vt 0.042969 1.000000
vt 0.518218 0.045347
vt 0.519531 1.000000
vt 0.503906 0.906250
vt 0.542969 1.000000
s 0
usemtl Material
f 14/1/1 6/2/1 3/3/1
f 5/4/2 4/5/2 7/6/2
f 10/7/3 1/8/3 12/2/3
f 14/1/4 10/9/4 15/3/4
f 9/10/5 8/11/5 1/8/5
f 11/10/6 12/8/6 10/11/6
f 10/3/7 9/11/7 11/8/7
f 7/6/3 13/12/3 16/13/3
f 4/14/5 8/15/5 14/11/5
f 4/14/5 3/8/5 13/16/5
f 7/17/6 6/8/6 15/11/6
f 7/18/6 10/19/6 5/17/6
f 14/1/1 15/7/1 6/2/1
f 5/4/2 2/20/2 4/5/2
f 10/7/3 8/11/3 1/8/3
f 14/1/4 8/21/4 10/9/4
f 10/3/7 8/1/7 9/11/7
f 7/6/3 4/5/3 13/12/3
f 4/14/5 2/22/5 8/15/5
f 4/14/5 14/11/5 3/8/5
f 7/17/6 16/16/6 6/8/6
f 7/18/6 15/23/6 10/19/6
