# Blender 4.3.0
# www.blender.org
mtllib Pool01_Ladder02.mtl
o Pool01_Ladder02
v 0.550000 -1.799841 0.700000
v 0.550000 0.750000 0.700000
v 0.597553 -1.799841 0.734549
v 0.597553 0.750000 0.734549
v 0.579389 -1.799841 0.790451
v 0.579389 0.750000 0.790451
v 0.520611 -1.799841 0.790451
v 0.520611 0.750000 0.790451
v 0.502447 -1.799841 0.734549
v 0.502447 0.750000 0.734549
v 0.550000 1.050520 0.824480
v 0.597553 1.026090 0.848910
v 0.579389 0.986562 0.888438
v 0.520611 0.986562 0.888438
v 0.502447 1.026090 0.848910
v 0.550000 1.175000 1.125000
v 0.597553 1.140451 1.125000
v 0.579389 1.084549 1.125000
v 0.520611 1.084549 1.125000
v 0.502447 1.140451 1.125000
v 0.550000 1.050520 1.425520
v 0.597553 1.026090 1.401090
v 0.579389 0.986562 1.361562
v 0.520611 0.986562 1.361562
v 0.502447 1.026090 1.401090
v 0.550000 0.859998 1.535519
v 0.597553 0.851056 1.502146
v 0.579389 0.836588 1.448150
v 0.520611 0.836588 1.448150
v 0.502447 0.851056 1.502146
v 0.520610 0.000000 1.672314
v 0.502447 0.000000 1.730016
v 0.549999 0.000000 1.765678
v 0.597552 0.000000 1.730016
v 0.579389 0.000000 1.672314
v -0.550000 -1.799841 0.700000
v -0.550000 0.750000 0.700000
v -0.597553 -1.799841 0.734549
v -0.597553 0.750000 0.734549
v -0.579389 -1.799841 0.790451
v -0.579389 0.750000 0.790451
v -0.520611 -1.799841 0.790451
v -0.520611 0.750000 0.790451
v -0.502447 -1.799841 0.734549
v -0.502447 0.750000 0.734549
v -0.550000 1.050520 0.824480
v -0.597553 1.026090 0.848910
v -0.579389 0.986562 0.888438
v -0.520611 0.986562 0.888438
v -0.502447 1.026090 0.848910
v -0.550000 1.175000 1.125000
v -0.597553 1.140451 1.125000
v -0.579389 1.084549 1.125000
v -0.520611 1.084549 1.125000
v -0.502447 1.140451 1.125000
v -0.550000 1.050520 1.425520
v -0.597553 1.026090 1.401090
v -0.579389 0.986562 1.361562
v -0.520611 0.986562 1.361562
v -0.502447 1.026090 1.401090
v -0.550000 0.859998 1.535519
v -0.597553 0.851056 1.502146
v -0.579389 0.836588 1.448150
v -0.520611 0.836588 1.448150
v -0.502447 0.851056 1.502146
v -0.520610 0.000000 1.672314
v -0.502447 0.000000 1.730016
v -0.549999 0.000000 1.765678
v -0.597552 0.000000 1.730016
v -0.579389 0.000000 1.672314
v -0.660000 -0.349841 0.858289
v -0.660000 -0.299841 0.858289
v -0.660000 -0.349841 0.632162
v -0.660000 -0.299841 0.632162
v 0.660000 -0.349841 0.858289
v 0.660000 -0.299841 0.858289
v 0.660000 -0.349841 0.632162
v 0.660000 -0.299841 0.632162
v -0.660000 -0.849841 0.858289
v -0.660000 -0.799841 0.858289
v -0.660000 -0.849841 0.632162
v -0.660000 -0.799841 0.632162
v 0.660000 -0.849841 0.858289
v 0.660000 -0.799841 0.858289
v 0.660000 -0.849841 0.632162
v 0.660000 -0.799841 0.632162
v -0.660000 -1.349841 0.858289
v -0.660000 -1.299841 0.858289
v -0.660000 -1.349841 0.632162
v -0.660000 -1.299841 0.632162
v 0.660000 -1.349841 0.858289
v 0.660000 -1.299841 0.858289
v 0.660000 -1.349841 0.632162
v 0.660000 -1.299841 0.632162
v -0.660000 -1.849841 0.858289
v -0.660000 -1.799841 0.858289
v -0.660000 -1.849841 0.632162
v -0.660000 -1.799841 0.632162
v 0.660000 -1.849841 0.858289
v 0.660000 -1.799841 0.858289
v 0.660000 -1.849841 0.632162
v 0.660000 -1.799841 0.632162
v 0.550000 -1.024840 1.000000
v 0.597553 -1.059389 1.000000
v 0.579389 -1.115291 1.000000
v 0.520611 -1.115291 1.000000
v 0.502447 -1.059389 1.000000
v 0.597553 -1.059389 0.734549
v 0.579389 -1.115291 0.734549
v 0.520611 -1.115291 0.734549
v 0.502447 -1.059389 0.734549
v 0.550000 -1.024840 0.734549
v -0.550000 -1.024840 1.000000
v -0.597553 -1.059389 1.000000
v -0.579389 -1.115291 1.000000
v -0.520611 -1.115291 1.000000
v -0.502447 -1.059389 1.000000
v -0.597553 -1.059389 0.734549
v -0.579389 -1.115291 0.734549
v -0.520611 -1.115291 0.734549
v -0.502447 -1.059389 0.734549
v -0.550000 -1.024840 0.734549
vn 0.5878 -0.0000 -0.8090
vn 0.9511 -0.0000 0.3090
vn -0.0000 -0.0000 1.0000
vn -0.0000 -0.3827 0.9239
vn -0.9511 -0.0000 0.3090
vn -0.5878 -0.0000 -0.8090
vn 0.5573 0.3177 -0.7671
vn -0.0000 -0.9239 0.3827
vn 0.9434 -0.1270 0.3065
vn -0.5573 0.3177 -0.7671
vn -0.9434 -0.1270 0.3065
vn -0.9434 -0.3065 0.1270
vn 0.5573 0.7671 -0.3177
vn -0.5573 0.7671 -0.3177
vn 0.9434 -0.3065 0.1270
vn -0.9478 -0.1594 -0.2761
vn -0.9434 -0.3065 -0.1270
vn 0.5573 0.7671 0.3177
vn -0.5573 0.7671 0.3177
vn 0.9434 -0.3065 -0.1270
vn -0.0000 -0.9239 -0.3827
vn 0.5744 0.4093 0.7089
vn -0.5744 0.4093 0.7089
vn 0.9478 -0.1594 -0.2761
vn -0.0000 -0.5000 -0.8660
vn -0.0000 -0.2588 -0.9659
vn 0.9511 -0.0800 -0.2985
vn -0.5867 0.2094 0.7823
vn -0.9508 -0.0801 -0.2993
vn 0.5878 0.2092 0.7815
vn -0.9511 -0.0800 -0.2985
vn -0.5878 0.2092 0.7815
vn -1.0000 -0.0000 -0.0000
vn -0.0000 -0.0000 -1.0000
vn 1.0000 -0.0000 -0.0000
vn -0.0000 -1.0000 -0.0000
vn -0.0000 1.0000 -0.0000
vn -0.5878 0.8090 -0.0000
vn -0.9511 -0.3090 -0.0000
vn 0.9511 -0.3090 -0.0000
vn 0.5878 0.8090 -0.0000
vn 0.9508 -0.0801 -0.2993
vn 0.5867 0.2094 0.7823
vt 0.330664 0.489583
vt -0.450586 0.510417
vt -0.450586 0.494792
vt 0.330664 0.505208
vt -0.450586 0.526042
vt 0.338477 0.520833
vt -0.450586 0.541667
vt 0.440039 0.536458
vt 0.338477 0.536458
vt 0.338477 0.458333
vt -0.450586 0.479167
vt -0.450586 0.463542
vt 0.330664 0.473958
vt 0.440039 0.489583
vt 0.440039 0.505208
vt 0.440039 0.520833
vt 0.549414 0.536458
vt 0.440039 0.479167
vt 0.440039 0.463542
vt 0.549414 0.479167
vt 0.549414 0.505208
vt 0.549414 0.494792
vt 0.549414 0.520833
vt 0.650977 0.463542
vt 0.729102 0.479167
vt 0.658789 0.479167
vt 0.549414 0.463542
vt 0.658789 0.505208
vt 0.658789 0.489583
vt 0.650977 0.520833
vt 0.650977 0.536458
vt 0.729102 0.505208
vt 0.729102 0.494792
vt 0.721289 0.520833
vt 0.721289 0.536458
vt 1.033789 0.541667
vt 1.033789 0.526042
vt 1.041602 0.479167
vt 1.049414 0.494792
vt 1.041602 0.468750
vt 1.041602 0.510417
vt 0.721289 0.463542
vt 0.382812 0.447917
vt 0.492188 0.463542
vt 0.382812 0.463542
vt 0.492188 0.447917
vt 1.132812 0.463542
vt 1.132812 0.447917
vt 1.242188 0.463542
vt -0.257812 0.447917
vt -0.257812 0.463542
vt 0.140625 1.000000
vt 0.859375 0.916667
vt 0.859375 1.000000
vt 0.859375 0.750000
vt 0.140625 0.833333
vt 0.140625 0.750000
vt 0.492188 0.479167
vt 0.382812 0.479167
vt 1.132812 0.479167
vt 1.242188 0.479167
vt -0.257812 0.479167
vt 0.140625 0.916667
vt 0.859375 0.833333
vt 0.859375 0.666667
vt 0.140625 0.666667
vt -0.063232 0.476584
vt 0.018100 0.491667
vt -0.063232 0.492209
vt -0.059359 0.460959
vt 0.018100 0.476042
vt 0.022787 0.522917
vt -0.059359 0.539084
vt -0.059359 0.523459
vt 0.018100 0.507292
vt -0.063232 0.507834
vt -0.063232 0.492209
vt 0.018100 0.476042
vt -0.063232 0.476584
vt 0.022787 0.460417
vt -0.059359 0.460959
vt -0.059359 0.539084
vt 0.022787 0.522917
vt -0.059359 0.523459
vt 0.018100 0.507292
vt -0.063232 0.507834
vt 0.018100 0.491667
vt 1.242188 0.447917
vt 0.022787 0.460417
vt 0.022787 0.538542
vt 0.022787 0.538542
s 0
usemtl Primary
f 2/1/1 3/2/1 1/3/1
f 4/4/2 5/5/2 3/2/2
f 6/6/3 7/7/3 5/5/3
f 6/6/4 14/8/4 8/9/4
f 8/10/5 9/11/5 7/12/5
f 10/13/6 1/3/6 9/11/6
f 4/4/7 11/14/7 12/15/7
f 13/16/8 19/17/8 14/8/8
f 6/6/9 12/15/9 13/16/9
f 10/13/10 11/14/10 2/1/10
f 8/10/11 15/18/11 10/13/11
f 14/19/12 20/20/12 15/18/12
f 11/14/13 17/21/13 12/15/13
f 11/14/14 20/20/14 16/22/14
f 12/15/15 18/23/15 13/16/15
f 24/24/16 30/25/16 25/26/16
f 19/27/17 25/26/17 20/20/17
f 16/22/18 22/28/18 17/21/18
f 16/22/19 25/26/19 21/29/19
f 17/21/20 23/30/20 18/23/20
f 18/23/21 24/31/21 19/17/21
f 21/29/22 27/32/22 22/28/22
f 25/26/23 26/33/23 21/29/23
f 23/30/24 27/32/24 28/34/24
f 23/30/25 29/35/25 24/31/25
f 28/34/26 31/36/26 29/35/26
f 27/32/27 35/37/27 28/34/27
f 26/33/28 32/38/28 33/39/28
f 30/25/29 31/40/29 32/38/29
f 26/33/30 34/41/30 27/32/30
f 38/2/6 37/1/6 36/3/6
f 40/5/5 39/4/5 38/2/5
f 42/7/3 41/6/3 40/5/3
f 49/8/4 41/6/4 43/9/4
f 44/11/2 43/10/2 42/12/2
f 36/3/1 45/13/1 44/11/1
f 39/4/10 46/14/10 37/1/10
f 54/17/8 48/16/8 49/8/8
f 41/6/11 47/15/11 39/4/11
f 46/14/7 45/13/7 37/1/7
f 50/18/9 43/10/9 45/13/9
f 55/20/15 49/19/15 50/18/15
f 52/21/14 46/14/14 47/15/14
f 51/22/13 50/18/13 46/14/13
f 53/23/12 47/15/12 48/16/12
f 65/25/24 59/24/24 60/26/24
f 60/26/20 54/27/20 55/20/20
f 52/21/19 56/29/19 51/22/19
f 51/22/18 60/26/18 55/20/18
f 58/30/17 52/21/17 53/23/17
f 59/31/21 53/23/21 54/17/21
f 62/32/23 56/29/23 57/28/23
f 61/33/22 60/26/22 56/29/22
f 63/34/16 57/28/16 58/30/16
f 64/35/25 58/30/25 59/31/25
f 66/36/26 63/34/26 64/35/26
f 70/37/31 62/32/31 63/34/31
f 61/33/30 67/38/30 65/25/30
f 65/25/27 66/40/27 64/42/27
f 69/41/32 61/33/32 62/32/32
f 72/43/33 73/44/33 71/45/33
f 74/46/34 77/47/34 73/44/34
f 78/48/35 75/49/35 77/47/35
f 76/50/3 71/45/3 75/51/3
f 77/52/36 71/53/36 73/54/36
f 74/55/37 76/56/37 78/57/37
f 80/45/33 81/58/33 79/59/33
f 82/44/34 85/60/34 81/58/34
f 86/47/35 83/61/35 85/60/35
f 84/51/3 79/59/3 83/62/3
f 85/63/36 79/64/36 81/53/36
f 82/65/37 84/57/37 86/66/37
f 88/45/33 89/58/33 87/59/33
f 90/44/34 93/60/34 89/58/34
f 94/47/35 91/61/35 93/60/35
f 92/51/3 87/59/3 91/62/3
f 93/63/36 87/64/36 89/53/36
f 90/65/37 92/57/37 94/66/37
f 96/45/33 97/58/33 95/59/33
f 98/44/34 101/60/34 97/58/34
f 102/47/35 99/61/35 101/60/35
f 100/51/3 95/59/3 99/62/3
f 101/63/36 95/64/36 97/53/36
f 98/65/37 100/57/37 102/66/37
f 111/67/38 103/68/38 112/69/38
f 110/70/39 107/71/39 111/67/39
f 105/72/36 110/73/36 109/74/36
f 104/75/40 109/74/40 108/76/40
f 103/68/41 108/76/41 112/69/41
f 122/77/41 117/78/41 121/79/41
f 121/79/40 116/80/40 120/81/40
f 120/82/36 115/83/36 119/84/36
f 119/84/39 114/85/39 118/86/39
f 118/86/38 113/87/38 122/77/38
f 2/1/1 4/4/1 3/2/1
f 4/4/2 6/6/2 5/5/2
f 6/6/3 8/9/3 7/7/3
f 6/6/4 13/16/4 14/8/4
f 8/10/5 10/13/5 9/11/5
f 10/13/6 2/1/6 1/3/6
f 4/4/7 2/1/7 11/14/7
f 13/16/8 18/23/8 19/17/8
f 6/6/9 4/4/9 12/15/9
f 10/13/10 15/18/10 11/14/10
f 8/10/11 14/19/11 15/18/11
f 14/19/12 19/27/12 20/20/12
f 11/14/13 16/22/13 17/21/13
f 11/14/14 15/18/14 20/20/14
f 12/15/15 17/21/15 18/23/15
f 24/24/16 29/42/16 30/25/16
f 19/27/17 24/24/17 25/26/17
f 16/22/18 21/29/18 22/28/18
f 16/22/19 20/20/19 25/26/19
f 17/21/20 22/28/20 23/30/20
f 18/23/21 23/30/21 24/31/21
f 21/29/22 26/33/22 27/32/22
f 25/26/23 30/25/23 26/33/23
f 23/30/24 22/28/24 27/32/24
f 23/30/25 28/34/25 29/35/25
f 28/34/26 35/37/26 31/36/26
f 27/32/42 34/41/42 35/37/42
f 26/33/32 30/25/32 32/38/32
f 30/25/31 29/42/31 31/40/31
f 26/33/43 33/39/43 34/41/43
f 38/2/6 39/4/6 37/1/6
f 40/5/5 41/6/5 39/4/5
f 42/7/3 43/9/3 41/6/3
f 49/8/4 48/16/4 41/6/4
f 44/11/2 45/13/2 43/10/2
f 36/3/1 37/1/1 45/13/1
f 39/4/10 47/15/10 46/14/10
f 54/17/8 53/23/8 48/16/8
f 41/6/11 48/16/11 47/15/11
f 46/14/7 50/18/7 45/13/7
f 50/18/9 49/19/9 43/10/9
f 55/20/15 54/27/15 49/19/15
f 52/21/14 51/22/14 46/14/14
f 51/22/13 55/20/13 50/18/13
f 53/23/12 52/21/12 47/15/12
f 65/25/24 64/42/24 59/24/24
f 60/26/20 59/24/20 54/27/20
f 52/21/19 57/28/19 56/29/19
f 51/22/18 56/29/18 60/26/18
f 58/30/17 57/28/17 52/21/17
f 59/31/21 58/30/21 53/23/21
f 62/32/23 61/33/23 56/29/23
f 61/33/22 65/25/22 60/26/22
f 63/34/16 62/32/16 57/28/16
f 64/35/25 63/34/25 58/30/25
f 66/36/26 70/37/26 63/34/26
f 70/37/29 69/41/29 62/32/29
f 61/33/43 68/39/43 67/38/43
f 65/25/42 67/38/42 66/40/42
f 69/41/28 68/39/28 61/33/28
f 72/43/33 74/46/33 73/44/33
f 74/46/34 78/48/34 77/47/34
f 78/48/35 76/88/35 75/49/35
f 76/50/3 72/43/3 71/45/3
f 77/52/36 75/63/36 71/53/36
f 74/55/37 72/64/37 76/56/37
f 80/45/33 82/44/33 81/58/33
f 82/44/34 86/47/34 85/60/34
f 86/47/35 84/49/35 83/61/35
f 84/51/3 80/45/3 79/59/3
f 85/63/36 83/56/36 79/64/36
f 82/65/37 80/55/37 84/57/37
f 88/45/33 90/44/33 89/58/33
f 90/44/34 94/47/34 93/60/34
f 94/47/35 92/49/35 91/61/35
f 92/51/3 88/45/3 87/59/3
f 93/63/36 91/56/36 87/64/36
f 90/65/37 88/55/37 92/57/37
f 96/45/33 98/44/33 97/58/33
f 98/44/34 102/47/34 101/60/34
f 102/47/35 100/49/35 99/61/35
f 100/51/3 96/45/3 95/59/3
f 101/63/36 99/56/36 95/64/36
f 98/65/37 96/55/37 100/57/37
f 111/67/38 107/71/38 103/68/38
f 110/70/39 106/89/39 107/71/39
f 105/72/36 106/90/36 110/73/36
f 104/75/40 105/72/40 109/74/40
f 103/68/41 104/75/41 108/76/41
f 122/77/41 113/87/41 117/78/41
f 121/79/40 117/78/40 116/80/40
f 120/82/36 116/91/36 115/83/36
f 119/84/39 115/83/39 114/85/39
f 118/86/38 114/85/38 113/87/38
