# Blender 4.3.0
# www.blender.org
mtllib Pool01_StrLen2.mtl
o Pool01_StrLen2
v 2.000000 0.000000 4.000000
v 2.000000 0.000000 1.000000
v 2.000000 -2.500000 1.000000
v -2.000000 0.000000 1.000000
v -2.000000 -2.500000 1.000000
v -2.000000 0.000000 4.000000
vn -0.0000 -0.0000 -1.0000
vn -0.0000 1.0000 -0.0000
vt -0.089844 0.557065
vt 0.957031 -0.184783
vt 0.957031 0.557065
vt -0.058594 1.000000
vt 0.941406 0.000000
vt 0.941406 1.000000
vt -0.089844 -0.184783
vt -0.058594 0.000000
s 0
usemtl Primary
f 4/4/2 1/5/2 2/6/2
f 4/4/2 6/8/2 1/5/2
usemtl Secondary
f 5/1/1 2/2/1 3/3/1
f 5/1/1 4/7/1 2/2/1
