# Blender 4.3.0
# www.blender.org
mtllib Pool01_Crn.mtl
o Pool01Crn
v 1.000000 0.000000 1.000000
v 1.000000 -2.500000 1.000000
v -1.000000 0.000000 1.000000
v -1.000000 -2.500000 1.000000
v 1.000000 0.000000 -1.000000
v 1.000000 -2.500000 -1.000000
v 1.930000 0.000000 1.930000
v 1.930000 0.000000 1.000000
v 1.000000 0.000000 1.930000
v 4.000000 0.000000 -1.000000
v 1.930000 0.000000 -1.000000
v 4.000000 0.000000 4.000000
v -1.000000 0.000000 4.000000
v 4.000000 0.000000 1.930000
v -1.000000 0.000000 1.930000
vn -0.0000 -0.0000 -1.0000
vn -1.0000 -0.0000 -0.0000
vn -0.0000 1.0000 -0.0000
vt 0.171875 0.557065
vt 0.695312 -0.184783
vt 0.695312 0.557065
vt 0.695312 0.690217
vt 0.917969 0.690217
vt 0.695312 1.000000
vt 1.000000 0.690217
vt 1.000000 1.000000
vt 0.777344 0.690217
vt 0.187500 1.000000
vt 0.687500 0.690000
vt 0.687500 1.000000
vt 0.687500 0.690000
vt -0.054688 0.690217
vt 0.949219 0.000000
vt 0.949219 0.690217
vt -0.300781 0.690217
vt 1.199219 0.000000
vt 1.199219 0.690217
vt 0.171875 -0.184783
vt 0.187500 0.690000
vt 0.187500 0.690000
vt -0.054688 0.000000
vt -0.300781 0.000000
s 0
usemtl Primary
f 9/4/3 7/5/3 1/6/3
f 8/7/3 1/8/3 7/9/3
f 1/10/3 11/11/3 5/12/3
f 3/10/3 9/13/3 1/12/3
f 7/14/3 10/15/3 11/16/3
f 15/17/3 12/18/3 14/19/3
f 1/10/3 8/21/3 11/11/3
f 3/10/3 15/22/3 9/13/3
f 7/14/3 14/23/3 10/15/3
f 15/17/3 13/24/3 12/18/3
usemtl Secondary
f 4/1/1 1/2/1 2/3/1
f 2/1/2 5/2/2 6/3/2
f 4/1/1 3/20/1 1/2/1
f 2/1/2 1/20/2 5/2/2
