# Blender 4.3.0
# www.blender.org
mtllib TableTennisTable01.mtl
o TableTennisTable01
v -0.700000 0.750000 1.144500
v -0.700000 0.841000 1.144500
v -0.700000 0.750000 -1.144500
v -0.700000 0.841000 -1.144500
v 0.700000 0.750000 1.144500
v 0.700000 0.841000 1.144500
v 0.700000 0.750000 -1.144500
v 0.700000 0.841000 -1.144500
v -0.560000 0.750000 0.500000
v -0.560000 0.750000 0.700000
v 0.560000 0.750000 0.500000
v 0.560000 0.750000 0.700000
v 0.168000 0.140000 -0.700000
v 0.280000 0.750000 -0.500000
v 0.280000 0.750000 -0.700000
v -0.280000 0.750000 -0.700000
v -0.280000 0.750000 0.500000
v 0.560000 0.750000 -0.500000
v 0.280000 0.750000 0.500000
v 0.280000 0.750000 0.700000
v 0.168000 0.140000 0.500000
v -0.280000 0.750000 0.700000
v 0.560000 0.750000 -0.700000
v 0.280000 0.000000 0.700000
v -0.560000 0.750000 -0.500000
v 0.168000 0.140000 0.700000
v 0.280000 0.000000 0.500000
v -0.168000 0.140000 0.700000
v -0.168000 0.140000 0.500000
v -0.560000 0.750000 -0.700000
v -0.280000 0.000000 0.700000
v -0.280000 0.000000 0.500000
v -0.280000 0.750000 -0.500000
v 0.280000 0.000000 -0.500000
v 0.168000 0.140000 -0.500000
v 0.280000 0.000000 -0.700000
v -0.168000 0.140000 -0.500000
v -0.168000 0.140000 -0.700000
v -0.280000 0.000000 -0.500000
v -0.280000 0.000000 -0.700000
v -0.700000 0.841000 0.010000
v -0.700000 0.984000 0.010000
v -0.700000 0.841000 -0.010000
v -0.700000 0.984000 -0.010000
v 0.700000 0.841000 0.010000
v 0.700000 0.984000 0.010000
v 0.700000 0.841000 -0.010000
v 0.700000 0.984000 -0.010000
vn -1.0000 -0.0000 -0.0000
vn -0.0000 -0.0000 -1.0000
vn 1.0000 -0.0000 -0.0000
vn -0.0000 -0.0000 1.0000
vn -0.0000 -1.0000 -0.0000
vn -0.0000 1.0000 -0.0000
vn -0.9368 -0.3498 -0.0000
vn 0.9368 -0.3498 -0.0000
vn 0.9836 0.1806 -0.0000
vn -0.9836 0.1806 -0.0000
vt 0.000000 0.031250
vt 0.520000 0.000000
vt 0.000000 0.000000
vt 0.480000 0.000000
vt 0.520000 0.031250
vt 0.480000 0.031250
vt 1.000000 0.085938
vt 0.520000 1.000000
vt 0.520000 0.085938
vt 0.763333 0.000000
vt 0.763333 0.085938
vt 1.000000 0.000000
vt 0.760000 0.089844
vt 0.760000 -0.000000
vt 0.846667 0.089844
vt 1.000000 0.089844
vt 0.670000 0.085938
vt 0.543333 -0.000000
vt 0.670000 -0.000000
vt 0.906667 0.000000
vt 0.846667 0.085938
vt 0.610000 0.000000
vt 0.263333 0.082031
vt 0.216667 0.074219
vt 0.216667 0.082031
vt 0.000000 0.085938
vt 0.263333 0.074219
vt 0.480000 0.085938
vt 0.000000 0.082031
vt 0.480000 0.074219
vt 0.480000 0.082031
vt 1.000000 1.000000
vt 0.543333 0.085938
vt 0.000000 0.074219
s 0
usemtl Material
f 2/1/1 3/2/1 1/3/1
f 4/1/2 7/4/2 3/3/2
f 8/5/3 5/3/3 7/2/3
f 6/6/4 1/3/4 5/4/4
f 7/7/5 1/8/5 3/9/5
f 4/7/6 6/8/6 8/9/6
f 30/10/7 39/9/7 25/11/7
f 30/12/2 38/13/2 40/14/2
f 11/12/2 21/15/2 19/16/2
f 9/10/7 31/9/7 10/11/7
f 10/12/4 28/13/4 22/16/4
f 12/11/8 27/2/8 11/10/8
f 12/12/4 26/13/4 24/14/4
f 13/17/6 37/18/6 35/19/6
f 37/9/9 16/10/9 33/11/9
f 9/12/2 29/15/2 32/14/2
f 14/11/10 13/2/10 35/9/10
f 21/17/6 28/18/6 26/19/6
f 18/12/4 35/13/4 34/14/4
f 27/20/2 29/17/2 21/21/2
f 26/21/4 31/22/4 24/20/4
f 23/12/2 13/13/2 15/16/2
f 18/11/8 36/2/8 23/10/8
f 25/12/4 37/13/4 33/16/4
f 36/20/2 38/17/2 13/21/2
f 35/21/4 39/22/4 34/20/4
f 42/23/1 43/24/1 41/25/1
f 44/26/2 47/6/2 43/1/2
f 48/27/3 45/25/3 47/24/3
f 46/28/4 41/1/4 45/6/4
f 44/29/6 46/30/6 48/31/6
f 29/2/9 22/11/9 28/9/9
f 20/11/10 21/2/10 26/9/10
f 2/1/1 4/5/1 3/2/1
f 4/1/2 8/6/2 7/4/2
f 8/5/3 6/1/3 5/3/3
f 6/6/4 2/1/4 1/3/4
f 7/7/5 5/32/5 1/8/5
f 4/7/6 2/32/6 6/8/6
f 30/10/7 40/2/7 39/9/7
f 30/12/2 16/16/2 38/13/2
f 11/12/2 27/14/2 21/15/2
f 9/10/7 32/2/7 31/9/7
f 10/12/4 31/14/4 28/13/4
f 12/11/8 24/9/8 27/2/8
f 12/12/4 20/16/4 26/13/4
f 13/17/6 38/33/6 37/18/6
f 37/9/9 38/2/9 16/10/9
f 9/12/2 17/16/2 29/15/2
f 14/11/10 15/10/10 13/2/10
f 21/17/6 29/33/6 28/18/6
f 18/12/4 14/16/4 35/13/4
f 27/20/2 32/22/2 29/17/2
f 26/21/4 28/17/4 31/22/4
f 23/12/2 36/14/2 13/13/2
f 18/11/8 34/9/8 36/2/8
f 25/12/4 39/14/4 37/13/4
f 36/20/2 40/22/2 38/17/2
f 35/21/4 37/17/4 39/22/4
f 42/23/1 44/27/1 43/24/1
f 44/26/2 48/28/2 47/6/2
f 48/27/3 46/23/3 45/25/3
f 46/28/4 42/26/4 41/1/4
f 44/29/6 42/34/6 46/30/6
f 29/2/9 17/10/9 22/11/9
f 20/11/10 19/10/10 21/2/10
