# Blender 4.3.0
# www.blender.org
mtllib TennisRacket01.mtl
o TennisRacket01
v -0.251403 -0.000560 0.033750
v -0.251403 -0.000560 -0.033750
v 0.251403 -0.000560 0.033750
v 0.069838 -0.406948 -0.033750
v -0.069838 -1.244412 0.033750
v -0.069838 -1.244412 -0.033750
v 0.069838 -1.244412 0.033750
v 0.069838 -1.244412 -0.033750
v 0.425136 0.934575 0.033750
v 0.332540 1.097221 0.033750
v 0.469225 0.506476 -0.033750
v -0.425136 0.934575 -0.033750
v 0.425136 0.934575 -0.033750
v -0.469225 0.506476 0.033750
v -0.469225 0.506476 -0.033750
v 0.469225 0.506476 0.033750
v -0.178257 -0.018113 -0.033750
v 0.178257 -0.018113 0.033750
v -0.425136 0.934575 0.033750
v -0.332540 1.097221 -0.033750
v 0.332540 1.097221 -0.033750
v -0.332540 1.097221 0.033750
v 0.000000 0.934575 0.033750
v -0.000000 0.506476 -0.033750
v 0.000000 0.506476 0.033750
v 0.000000 0.934575 -0.033750
v 0.000000 1.097221 -0.033750
v 0.000000 1.097221 0.033750
v 0.000000 1.251076 -0.033750
v 0.000000 1.251076 0.033750
v 0.251403 -0.000560 -0.033750
v -0.069838 -0.406948 0.033750
v -0.069838 -0.406948 -0.033750
v 0.069838 -0.406948 0.033750
v 0.023279 -0.406948 -0.033750
v -0.023279 -0.406948 -0.033750
v -0.178257 -0.018113 0.033750
v -0.023279 -0.406948 0.033750
v 0.023279 -0.406948 0.033750
v -0.000000 -0.406948 -0.033750
v 0.000000 -0.406948 0.033750
v 0.000000 -0.060240 -0.033750
v 0.000000 -0.060240 0.033750
v 0.178257 -0.018113 -0.033750
vn -0.9947 0.1024 -0.0000
vn 0.9947 0.1024 -0.0000
vn -0.0000 -0.0000 -1.0000
vn 0.9130 -0.4079 -0.0000
vn 0.9188 -0.3947 -0.0000
vn -0.9188 -0.3947 -0.0000
vn -0.0000 -0.0000 1.0000
vn -0.9130 -0.4079 -0.0000
vn -0.0000 -1.0000 -0.0000
vn 1.0000 -0.0000 -0.0000
vn -1.0000 -0.0000 -0.0000
vn 0.8690 0.4947 -0.0000
vn -0.8690 0.4947 -0.0000
vn 0.4199 0.9076 -0.0000
vn -0.4199 0.9076 -0.0000
vn 0.9289 0.3702 -0.0000
vn -0.9289 0.3702 -0.0000
vn -0.2300 -0.9732 -0.0000
vn 0.2300 -0.9732 -0.0000
vt 0.828125 0.589286
vt 0.750000 0.494048
vt 0.718750 0.505952
vt 0.859375 0.583333
vt 0.984375 0.702381
vt 0.687500 0.488095
vt 0.578125 0.398810
vt 0.515625 0.309524
vt 0.609375 0.392857
vt 0.015625 0.702381
vt 0.234375 0.494048
vt 0.296875 0.488095
vt 0.437500 0.327381
vt 0.546875 0.000000
vt 0.546875 0.327381
vt 0.484375 0.315476
vt 0.187500 0.547619
vt 0.203125 0.559524
vt 0.218750 0.553571
vt 0.281250 0.505952
vt 0.187500 0.565476
vt 0.296875 0.511905
vt 0.468750 0.327381
vt 0.515625 0.000000
vt 0.515625 0.327381
vt 0.468750 0.000000
vt 0.875000 0.625000
vt 0.906250 0.619048
vt 0.328125 0.505952
vt 0.156250 0.553571
vt 0.281250 0.494048
vt 0.078125 0.630952
vt 0.171875 0.559524
vt 0.109375 0.636905
vt 0.500000 0.946429
vt 0.171875 0.946429
vt 0.500000 1.000000
vt 0.828125 0.946429
vt 0.500000 0.869048
vt 0.500000 0.702381
vt 0.500000 0.476190
vt 0.046875 0.869048
vt 0.953125 0.869048
vt 0.484375 0.327381
vt 0.500000 0.327381
vt 0.375000 0.333333
vt 0.375000 0.916667
vt 0.375000 0.833333
vt 0.375000 0.416667
vt 0.437500 0.000000
vt 0.187500 0.553571
s 0
usemtl Primary
f 19/1/1 15/2/1 14/3/1
f 13/4/2 16/3/2 11/2/2
f 11/5/3 31/2/3 44/6/3
f 3/7/4 4/8/4 31/9/4
f 16/3/5 31/9/5 11/2/5
f 15/2/6 1/7/6 14/3/6
f 14/10/7 1/11/7 37/12/7
f 32/13/7 7/14/7 34/15/7
f 2/9/8 32/16/8 1/7/8
f 8/17/9 5/18/9 6/19/9
f 4/20/3 6/21/3 33/22/3
f 34/23/10 8/24/10 4/25/10
f 33/25/11 5/26/11 32/23/11
f 13/4/12 10/27/12 9/1/12
f 19/1/13 20/28/13 12/4/13
f 21/29/14 30/30/14 10/31/14
f 22/32/15 29/33/15 20/34/15
f 27/35/3 20/36/3 29/37/3
f 28/35/7 10/38/7 30/37/7
f 26/39/3 20/36/3 27/35/3
f 23/39/7 10/38/7 28/35/7
f 16/5/7 18/6/7 3/2/7
f 25/40/7 37/12/7 43/41/7
f 15/10/3 17/12/3 2/11/3
f 24/40/3 44/6/3 42/41/3
f 25/40/7 19/42/7 14/10/7
f 24/40/3 13/43/3 11/5/3
f 12/42/3 24/40/3 15/10/3
f 9/43/7 25/40/7 16/5/7
f 24/40/3 17/12/3 15/10/3
f 25/40/7 18/6/7 16/5/7
f 23/39/7 22/36/7 19/42/7
f 26/39/3 21/38/3 13/43/3
f 22/36/7 28/35/7 30/37/7
f 21/38/3 27/35/3 29/37/3
f 37/12/7 32/13/7 38/44/7
f 44/6/3 4/15/3 35/45/3
f 17/12/3 33/13/3 2/11/3
f 18/6/7 34/15/7 3/2/7
f 17/46/16 38/47/16 36/46/16
f 39/48/17 44/49/17 35/49/17
f 17/46/18 43/47/18 37/47/18
f 42/46/19 18/47/19 43/47/19
f 19/1/1 12/4/1 15/2/1
f 13/4/2 9/1/2 16/3/2
f 3/7/4 34/16/4 4/8/4
f 16/3/5 3/7/5 31/9/5
f 15/2/6 2/9/6 1/7/6
f 32/13/7 5/50/7 7/14/7
f 2/9/8 33/8/8 32/16/8
f 8/17/9 7/51/9 5/18/9
f 4/20/3 8/33/3 6/21/3
f 34/23/10 7/26/10 8/24/10
f 33/25/11 6/24/11 5/26/11
f 13/4/12 21/28/12 10/27/12
f 19/1/13 22/27/13 20/28/13
f 21/29/14 29/33/14 30/30/14
f 22/32/15 30/30/15 29/33/15
f 26/39/3 12/42/3 20/36/3
f 23/39/7 9/43/7 10/38/7
f 25/40/7 14/10/7 37/12/7
f 24/40/3 11/5/3 44/6/3
f 25/40/7 23/39/7 19/42/7
f 24/40/3 26/39/3 13/43/3
f 12/42/3 26/39/3 24/40/3
f 9/43/7 23/39/7 25/40/7
f 24/40/3 42/41/3 17/12/3
f 25/40/7 43/41/7 18/6/7
f 23/39/7 28/35/7 22/36/7
f 26/39/3 27/35/3 21/38/3
f 37/12/7 1/11/7 32/13/7
f 44/6/3 31/2/3 4/15/3
f 17/12/3 36/23/3 33/13/3
f 18/6/7 39/45/7 34/15/7
f 17/46/16 37/47/16 38/47/16
f 39/48/17 18/48/17 44/49/17
f 17/46/18 42/46/18 43/47/18
f 42/46/19 44/46/19 18/47/19
l 40 36
l 41 39
l 35 40
l 38 41
