# Blender 4.3.0
# www.blender.org
mtllib TennisNet01.mtl
o TennisNet01
v 8.789062 3.450000 0.000000
v 8.789062 0.000000 0.000000
v -8.789062 3.450000 0.000000
v -8.789062 0.000000 0.000000
v 8.789739 0.000118 0.015000
v 9.897894 -0.345118 0.015000
v 8.789739 0.000118 -0.015000
v 9.897894 -0.345118 -0.015000
v 8.767452 -0.013476 -0.000000
v 9.883345 -0.358713 -0.000000
v 8.812025 0.013713 -0.000000
v 9.912444 -0.331524 -0.000000
v -8.789739 0.000118 0.015000
v -9.897894 -0.345118 0.015000
v -8.789739 0.000118 -0.015000
v -9.897894 -0.345118 -0.015000
v -8.767452 -0.013476 -0.000000
v -9.883345 -0.358713 -0.000000
v -8.812025 0.013713 -0.000000
v -9.912444 -0.331524 -0.000000
v 8.789739 3.450095 0.015000
v 9.897894 3.795331 0.015000
v 8.789739 3.450095 -0.015000
v 9.897894 3.795331 -0.015000
v 8.767452 3.463689 -0.000000
v 9.883345 3.808926 -0.000000
v 8.812025 3.436500 -0.000000
v 9.912444 3.781737 -0.000000
v -8.789739 3.450095 0.015000
v -9.897894 3.795331 0.015000
v -8.789739 3.450095 -0.015000
v -9.897894 3.795331 -0.015000
v -8.767452 3.463689 -0.000000
v -9.883345 3.808926 -0.000000
v -8.812025 3.436500 -0.000000
v -9.912444 3.781737 -0.000000
v -9.951670 -0.500000 0.100000
v -9.951670 4.000000 0.100000
v -9.951670 -0.500000 -0.100000
v -9.951670 4.000000 -0.100000
v -9.751669 -0.500000 0.100000
v -9.751669 4.000000 0.100000
v -9.751669 -0.500000 -0.100000
v -9.751669 4.000000 -0.100000
v 9.799999 -0.500000 0.100000
v 9.799999 4.000000 0.100000
v 9.799999 -0.500000 -0.100000
v 9.799999 4.000000 -0.100000
v 10.000000 -0.500000 0.100000
v 10.000000 4.000000 0.100000
v 10.000000 -0.500000 -0.100000
v 10.000000 4.000000 -0.100000
vn -0.0000 -0.0000 1.0000
vn 0.2974 0.9547 -0.0000
vn -0.2974 0.9547 -0.0000
vn -0.0000 -0.0000 -1.0000
vn -1.0000 -0.0000 -0.0000
vn 1.0000 -0.0000 -0.0000
vn -0.0000 1.0000 -0.0000
vt 0.996094 1.000000
vt -0.000000 -0.000000
vt 0.996094 0.000000
vt 1.000000 1.000000
vt 0.625000 0.984375
vt 0.375000 0.937500
vt 0.375000 0.984375
vt 0.625000 0.937500
vt 0.613281 0.937500
vt -0.000000 1.000000
vt 1.000000 0.000000
vt 0.613281 0.984375
s 0
usemtl Primary
f 1/1/1 4/2/1 2/3/1
f 6/3/2 7/4/2 5/1/2
f 10/3/1 11/4/1 9/1/1
f 15/4/3 14/3/3 13/1/3
f 19/4/1 18/3/1 17/1/1
f 22/3/3 23/4/3 21/1/3
f 26/3/4 27/4/4 25/1/4
f 31/4/2 30/3/2 29/1/2
f 35/4/4 34/3/4 33/1/4
f 38/5/5 39/6/5 37/7/5
f 40/5/4 43/6/4 39/7/4
f 44/8/6 41/7/6 43/6/6
f 42/8/1 37/7/1 41/6/1
f 46/5/5 47/6/5 45/7/5
f 40/5/7 42/9/7 44/8/7
f 48/5/4 51/6/4 47/7/4
f 52/8/6 49/7/6 51/6/6
f 50/8/1 45/7/1 49/6/1
f 48/5/7 50/9/7 52/8/7
f 1/1/1 3/10/1 4/2/1
f 6/3/2 8/11/2 7/4/2
f 10/3/1 12/11/1 11/4/1
f 15/4/3 16/11/3 14/3/3
f 19/4/1 20/11/1 18/3/1
f 22/3/3 24/11/3 23/4/3
f 26/3/4 28/11/4 27/4/4
f 31/4/2 32/11/2 30/3/2
f 35/4/4 36/11/4 34/3/4
f 38/5/5 40/8/5 39/6/5
f 40/5/4 44/8/4 43/6/4
f 44/8/6 42/5/6 41/7/6
f 42/8/1 38/5/1 37/7/1
f 46/5/5 48/8/5 47/6/5
f 40/5/7 38/12/7 42/9/7
f 48/5/4 52/8/4 51/6/4
f 52/8/6 50/5/6 49/7/6
f 50/8/1 46/5/1 45/7/1
f 48/5/7 46/12/7 50/9/7
