# Blender 4.2.0
# www.blender.org
mtllib Trashbag03.mtl
o Trashbag03
v 0.859248 0.223900 0.002024
v -0.685022 0.386870 0.174344
v 0.819715 0.374080 0.131066
v -0.685022 0.594022 0.039407
v 0.846629 0.511091 0.007457
v -0.790877 0.512933 -0.042831
v 0.823524 0.560002 -0.145730
v -0.694801 0.445159 -0.227546
v 0.789920 0.469879 -0.220363
v -0.655562 0.117666 -0.188857
v 0.784808 0.231531 -0.222790
v -0.461770 0.012349 0.119737
v -0.519393 0.421738 0.293157
v -0.525423 0.729017 0.098865
v -0.590637 0.773641 -0.164337
v -0.537909 0.621333 -0.387154
v -0.493036 0.088558 -0.335390
v 0.541541 0.037606 0.028374
v 0.563853 0.346071 0.235760
v 0.586883 0.608971 0.099892
v 0.561932 0.704254 -0.174582
v 0.530170 0.503982 -0.411719
v 0.549095 0.057441 -0.339677
v -0.697636 0.180345 0.104292
v 0.889384 0.345376 -0.046856
v -0.022524 0.000000 -0.389694
v 0.020002 0.615916 -0.409156
v 0.042419 0.811320 -0.183777
v -0.011626 0.803327 0.138358
v 0.025922 0.394373 0.358899
v -0.025879 0.000000 0.135617
vn 0.3767 -0.5355 0.7559
vn 0.3050 0.4160 0.8567
vn 0.4447 0.8579 0.2574
vn 0.5171 0.6185 -0.5916
vn 0.5087 -0.1161 -0.8531
vn 0.9239 -0.0785 0.3744
vn 0.6036 -0.7967 -0.0305
vn -0.5817 -0.8085 0.0894
vn -0.6766 -0.1658 -0.7175
vn -0.7737 0.3473 -0.5299
vn -0.7053 0.6611 0.2560
vn -0.5821 0.4438 0.6813
vn -0.5311 -0.2429 0.8117
vn 0.0662 -0.9978 0.0004
vn -0.0118 -0.0308 -0.9995
vn 0.1635 0.7373 -0.6555
vn 0.3124 0.9469 0.0759
vn 0.2103 0.4789 0.8523
vn 0.1499 -0.5020 0.8518
vn -0.9135 -0.0796 0.3991
vn -0.8698 -0.3820 -0.3123
vn -0.0402 -0.1000 -0.9942
vn 0.8831 0.0564 -0.4658
vn 0.8881 -0.3433 -0.3057
vn 0.9304 0.1274 0.3438
vn 0.8633 -0.0134 -0.5045
vn 0.9617 0.2676 -0.0596
vn -0.0662 0.8164 -0.5737
vn -0.0529 0.9823 0.1797
vn -0.1407 0.5271 0.8381
vn -0.1295 -0.4022 0.9064
vn -0.1994 -0.9686 -0.1485
vn 0.3674 -0.5486 0.7510
vn 0.4558 0.5452 0.7036
vn 0.4116 0.8843 0.2203
vn 0.3664 0.5086 -0.7791
vn 0.5927 -0.0045 -0.8054
vn 0.4849 -0.8538 -0.1895
vn -0.2940 -0.9458 -0.1382
vn -0.6333 -0.1275 -0.7633
vn -0.8313 0.3471 -0.4340
vn -0.6787 0.6777 0.2831
vn -0.6053 0.4169 0.6781
vn -0.3452 -0.4069 0.8458
vn 0.1043 -0.9932 -0.0514
vn 0.1015 -0.1543 -0.9828
vn 0.1599 0.7435 -0.6493
vn 0.1869 0.9332 0.3070
vn 0.2380 0.4294 0.8712
vn 0.1897 -0.5572 0.8084
vn -0.7303 0.3729 0.5724
vn -0.9848 -0.1314 -0.1133
vn -0.1189 -0.0232 -0.9926
vn -0.0184 0.7563 -0.6539
vn -0.1432 0.9897 0.0005
vn -0.0827 0.4671 0.8803
vn -0.0456 -0.4876 0.8719
vn -0.0283 -0.9996 -0.0002
vt 0.890625 0.929688
vt 0.835938 0.734375
vt 0.960938 0.750000
vt 0.828125 0.890625
vt 0.734375 0.773438
vt 0.976562 0.742188
vt 0.851562 0.867188
vt 0.843750 0.718750
vt 0.804688 0.875000
vt 0.710938 0.750000
vt 0.937500 0.718750
vt 0.851562 0.929688
vt 0.765625 0.812500
vt 0.515625 0.601562
vt 0.492188 0.765625
vt 0.398438 0.703125
vt 0.890625 0.843750
vt 0.742188 0.695312
vt 0.929688 0.687500
vt 0.820312 0.054688
vt 0.664062 0.179688
vt 0.671875 0.023438
vt 0.828125 0.000000
vt 0.679688 0.148438
vt 0.679688 0.000000
vt 0.804688 0.187500
vt 0.710938 0.046875
vt 0.812500 0.007812
vt 0.875000 0.078125
vt 0.796875 0.171875
vt 0.726562 0.023438
vt 0.804688 0.046875
vt 0.882812 0.023438
vt 0.937500 0.390625
vt 0.671875 0.398438
vt 0.687500 0.437500
vt 0.937500 0.421875
vt 0.695312 0.484375
vt 0.828125 0.468750
vt 0.976562 0.437500
vt 0.812500 0.460938
vt 0.656250 0.429688
vt 0.960938 0.406250
vt 0.437500 0.335938
vt 0.296875 0.132812
vt 0.562500 0.250000
vt 0.367188 0.054688
vt 0.882812 0.125000
vt 0.203125 0.695312
vt 0.218750 0.593750
vt 0.304688 0.859375
vt 0.367188 0.562500
vt 0.687500 0.210938
vt 0.921875 0.179688
vt 0.679688 0.140625
vt 0.953125 0.156250
vt 0.898438 0.140625
vt 0.773438 0.945312
vt 0.937500 0.890625
vt 0.953125 0.843750
vt 0.765625 0.882812
vt 0.312500 0.242188
vt 0.562500 0.062500
s 0
usemtl Primary
f 1/1/1 19/2/1 18/3/1
f 3/4/2 20/5/2 19/2/2
f 20/6/3 7/7/3 21/8/3
f 21/8/4 9/9/4 22/10/4
f 22/11/5 11/12/5 23/13/5
f 3/14/6 1/15/6 25/16/6
f 11/17/7 18/18/7 23/19/7
f 10/20/8 12/21/8 24/22/8
f 8/23/9 17/24/9 10/25/9
f 15/26/10 8/27/10 6/28/10
f 4/29/11 15/26/11 6/28/11
f 13/30/12 4/31/12 2/32/12
f 24/33/13 13/30/13 2/32/13
f 26/34/14 18/18/14 31/35/14
f 22/11/15 26/36/15 27/37/15
f 21/8/16 27/38/16 28/39/16
f 20/6/17 28/39/17 29/40/17
f 30/41/18 20/5/18 29/42/18
f 31/43/19 19/2/19 30/41/19
f 2/44/20 6/45/20 24/46/20
f 8/47/21 24/46/21 6/45/21
f 27/37/22 17/24/22 16/48/22
f 9/49/23 7/50/23 25/16/23
f 1/15/24 11/51/24 25/16/24
f 5/52/25 3/14/25 25/16/25
f 11/51/26 9/49/26 25/16/26
f 7/50/27 5/52/27 25/16/27
f 28/39/28 16/53/28 15/26/28
f 14/54/29 28/39/29 15/26/29
f 13/30/30 29/42/30 14/55/30
f 12/56/31 30/41/31 13/30/31
f 26/34/32 12/21/32 17/57/32
f 1/1/33 3/4/33 19/2/33
f 3/4/34 5/58/34 20/5/34
f 20/6/35 5/59/35 7/7/35
f 21/8/36 7/7/36 9/9/36
f 22/11/37 9/60/37 11/12/37
f 11/17/38 1/61/38 18/18/38
f 10/20/39 17/57/39 12/21/39
f 8/23/40 16/48/40 17/24/40
f 15/26/41 16/53/41 8/27/41
f 4/29/42 14/54/42 15/26/42
f 13/30/43 14/55/43 4/31/43
f 24/33/44 12/56/44 13/30/44
f 26/34/45 23/19/45 18/18/45
f 22/11/46 23/13/46 26/36/46
f 21/8/47 22/10/47 27/38/47
f 20/6/48 21/8/48 28/39/48
f 30/41/49 19/2/49 20/5/49
f 31/43/50 18/3/50 19/2/50
f 2/44/51 4/62/51 6/45/51
f 8/47/52 10/63/52 24/46/52
f 27/37/53 26/36/53 17/24/53
f 28/39/54 27/38/54 16/53/54
f 14/54/55 29/40/55 28/39/55
f 13/30/56 30/41/56 29/42/56
f 12/56/57 31/43/57 30/41/57
f 26/34/58 31/35/58 12/21/58
