# Blender 3.4.0
# www.blender.org
mtllib fern_3.mtl
o fern_3
v -0.332935 -0.175637 -1.274099
v 0.116795 -0.175637 0.573307
v -0.332935 1.580734 -1.274099
v 0.116795 1.580734 0.573307
v 1.118152 -0.171608 0.641788
v -0.493049 -0.171608 -0.282997
v 1.118152 1.544470 0.641789
v -0.493049 1.544470 -0.282997
v 0.819700 0.258110 -1.237824
v -0.377400 -0.429741 0.485791
v 0.310019 2.188988 -0.821246
v -0.887081 1.501136 0.902369
vn -0.9716 -0.0000 0.2365
vn 0.4978 -0.0000 -0.8673
vn -0.8023 -0.0843 -0.5909
vt 0.000000 0.000000
vt 1.000000 0.000000
vt 0.000000 1.000000
vt 1.000000 1.000000
vt 0.000000 0.000000
vt 1.000000 0.000000
vt 0.000000 1.000000
vt 1.000000 1.000000
vt 0.000000 0.000000
vt 1.000000 0.000000
vt 0.000000 1.000000
vt 1.000000 1.000000
s 1
usemtl fern_3
f 1/1/1 2/2/1 4/4/1 3/3/1
f 5/5/2 6/6/2 8/8/2 7/7/2
f 9/9/3 10/10/3 12/12/3 11/11/3
