# Blender 3.4.0
# www.blender.org
mtllib grass_3.mtl
o grass_3
v 0.104749 -0.052539 -0.429078
v -0.515066 -0.087351 0.320667
v -0.069570 0.950331 -0.526622
v -0.689385 0.915519 0.223123
v 0.027422 0.615178 -0.462000
v 0.101553 0.280532 -0.416254
v -0.518262 0.245720 0.333490
v -0.592393 0.580366 0.287745
v 0.092119 -0.070000 0.400801
v -0.301069 -0.070000 -0.489650
v 0.287571 0.930000 0.314497
v -0.105618 0.930000 -0.575954
v 0.176282 0.596667 0.363637
v 0.092119 0.263333 0.400801
v -0.301069 0.263333 -0.489650
v -0.216906 0.596667 -0.526813
v 0.448489 -0.070000 0.325058
v -0.471524 -0.070000 0.007135
v 0.378706 0.930000 0.526999
v -0.541307 0.930000 0.209076
v 0.418440 0.596667 0.412015
v 0.448489 0.263333 0.325058
v -0.471524 0.263333 0.007135
v -0.501573 0.596667 0.094092
v -0.176436 -0.070000 0.437874
v 0.581909 -0.070000 -0.172382
v -0.042486 0.930000 0.604329
v 0.715859 0.930000 -0.005927
v -0.118756 0.596667 0.509551
v -0.176436 0.263333 0.437874
v 0.581909 0.263333 -0.172382
v 0.639589 0.596667 -0.100705
v 0.492707 -0.070000 0.045945
v -0.363230 -0.070000 -0.417598
v 0.594454 0.930000 -0.141932
v -0.261483 0.930000 -0.605474
v 0.536520 0.596667 -0.034957
v 0.492707 0.263333 0.045945
v -0.363230 0.263333 -0.417598
v -0.319417 0.596667 -0.498499
vn -0.7314 -0.2882 -0.6180
vn -0.7210 -0.3265 -0.6112
vn -0.7710 0.0171 -0.6366
vn -0.7627 -0.1172 -0.6360
vn 0.8713 -0.3047 -0.3847
vn 0.8593 -0.3428 -0.3795
vn 0.9148 -0.0000 -0.4039
vn 0.9065 -0.1342 -0.4003
vn 0.3111 0.3047 -0.9002
vn 0.3068 0.3428 -0.8879
vn 0.3266 -0.0000 -0.9452
vn 0.3237 0.1342 -0.9366
vn 0.5971 -0.3047 0.7420
vn 0.5889 -0.3428 0.7319
vn 0.6269 -0.0000 0.7791
vn 0.6213 -0.1342 0.7720
vn 0.4536 -0.3047 -0.8375
vn 0.4473 -0.3428 -0.8260
vn 0.4762 -0.0000 -0.8793
vn 0.4719 -0.1342 -0.8714
vt 0.000000 0.000000
vt 1.000000 0.000000
vt 0.000000 1.000000
vt 1.000000 1.000000
vt 0.000000 0.666667
vt 0.000000 0.333333
vt 1.000000 0.333333
vt 1.000000 0.666667
vt 0.000000 0.000000
vt 1.000000 0.000000
vt 0.000000 1.000000
vt 1.000000 1.000000
vt 0.000000 0.666667
vt 0.000000 0.333333
vt 1.000000 0.333333
vt 1.000000 0.666667
vt 0.000000 0.000000
vt 1.000000 0.000000
vt 0.000000 1.000000
vt 1.000000 1.000000
vt 0.000000 0.666667
vt 0.000000 0.333333
vt 1.000000 0.333333
vt 1.000000 0.666667
vt 0.000000 0.000000
vt 1.000000 0.000000
vt 0.000000 1.000000
vt 1.000000 1.000000
vt 0.000000 0.666667
vt 0.000000 0.333333
vt 1.000000 0.333333
vt 1.000000 0.666667
vt 0.000000 0.000000
vt 1.000000 0.000000
vt 0.000000 1.000000
vt 1.000000 1.000000
vt 0.000000 0.666667
vt 0.000000 0.333333
vt 1.000000 0.333333
vt 1.000000 0.666667
s 1
usemtl grass_3
f 5/5/1 8/8/1 4/4/2 3/3/2
f 1/1/3 2/2/3 7/7/4 6/6/4
f 6/6/4 7/7/4 8/8/1 5/5/1
f 13/13/5 16/16/5 12/12/6 11/11/6
f 9/9/7 10/10/7 15/15/8 14/14/8
f 14/14/8 15/15/8 16/16/5 13/13/5
f 21/21/9 24/24/9 20/20/10 19/19/10
f 17/17/11 18/18/11 23/23/12 22/22/12
f 22/22/12 23/23/12 24/24/9 21/21/9
f 29/29/13 32/32/13 28/28/14 27/27/14
f 25/25/15 26/26/15 31/31/16 30/30/16
f 30/30/16 31/31/16 32/32/13 29/29/13
f 37/37/17 40/40/17 36/36/18 35/35/18
f 33/33/19 34/34/19 39/39/20 38/38/20
f 38/38/20 39/39/20 40/40/17 37/37/17
