# Blender 3.4.0
# www.blender.org
mtllib grass_4.mtl
o grass_4
v -0.559280 0.503352 0.107122
v -0.559280 0.223712 -0.000000
v -0.559280 -0.055928 -0.000000
v 0.559280 -0.055928 -0.000000
v 0.559280 0.223712 -0.000000
v 0.559280 0.503352 0.107122
v 0.334718 0.450000 0.384100
v 0.249998 0.200000 0.433013
v 0.249998 -0.050000 0.433013
v -0.250002 -0.050000 -0.433013
v -0.250002 0.200000 -0.433013
v -0.165282 0.450000 -0.481926
v 0.158550 0.450000 -0.485810
v 0.249998 0.200000 -0.433013
v 0.249998 -0.050000 -0.433013
v -0.250002 -0.050000 0.433013
v -0.250002 0.200000 0.433013
v -0.341449 0.450000 0.380216
vn -0.0000 -0.0000 1.0000
vn -0.0000 -0.1819 0.9833
vn -0.0000 -0.3577 0.9338
vn 0.8660 -0.0000 -0.5000
vn 0.8510 -0.1854 -0.4913
vn 0.8065 -0.3644 -0.4656
vn -0.8660 -0.0000 -0.5000
vn -0.8488 -0.1985 -0.4901
vn -0.7978 -0.3891 -0.4606
vt 0.000000 0.750000
vt 0.000000 0.500000
vt 0.000000 0.250000
vt 1.000000 0.250000
vt 1.000000 0.500000
vt 1.000000 0.750000
vt 0.000000 0.750000
vt 0.000000 0.500000
vt 0.000000 0.250000
vt 1.000000 0.250000
vt 1.000000 0.500000
vt 1.000000 0.750000
vt 0.000000 0.750000
vt 0.000000 0.500000
vt 0.000000 0.250000
vt 1.000000 0.250000
vt 1.000000 0.500000
vt 1.000000 0.750000
s 1
usemtl grass_4
f 3/3/1 4/4/1 5/5/2 2/2/2
f 2/2/2 5/5/2 6/6/3 1/1/3
f 9/9/4 10/10/4 11/11/5 8/8/5
f 8/8/5 11/11/5 12/12/6 7/7/6
f 15/15/7 16/16/7 17/17/8 14/14/8
f 14/14/8 17/17/8 18/18/9 13/13/9
