# Blender 3.4.0
# www.blender.org
mtllib mushroom_n_4.mtl
o mushroom_n_4
v -0.004829 0.158724 0.009645
v -0.009899 0.158724 -0.004285
v 0.009756 0.158095 0.012225
v 0.019270 0.157466 0.000874
v -0.000385 0.158095 -0.015636
v 0.014200 0.157466 -0.013056
v -0.005967 0.008311 -0.016395
v 0.005967 0.008311 0.016395
v -0.011215 0.008311 0.013366
v 0.017183 0.008311 0.003030
v -0.017183 0.008311 -0.003030
v 0.011215 0.008311 -0.013366
v -0.015648 0.013646 -0.002759
v 0.015648 0.013646 0.002759
v 0.005434 0.013646 0.014931
v -0.010213 0.013646 0.012172
v -0.005434 0.013646 -0.014931
v 0.010213 0.013646 -0.012172
v -0.005070 -0.000000 -0.013930
v 0.005070 -0.000000 0.013930
v -0.009529 -0.000000 0.011356
v 0.014599 -0.000000 0.002574
v -0.014599 -0.000000 -0.002574
v 0.009529 -0.000000 -0.011356
v -0.002987 0.150558 0.007141
v 0.000424 0.150075 -0.012263
v 0.011618 0.149592 -0.010283
v -0.006879 0.150558 -0.003551
v 0.015510 0.149592 0.000409
v 0.008207 0.150075 0.009121
v -0.006754 0.136488 -0.003179
v 0.014092 0.135589 0.000508
v 0.007292 0.136039 0.008620
v -0.003131 0.136488 0.006777
v 0.000045 0.136039 -0.011291
v 0.010468 0.135589 -0.009447
v -0.007046 -0.000000 -0.019358
v 0.013242 -0.000000 -0.015781
v -0.013242 -0.000000 0.015781
v 0.020288 -0.000000 0.003577
v 0.007046 -0.000000 0.019358
v -0.020288 -0.000000 -0.003577
v 0.006615 0.184023 -0.002408
v -0.046473 0.181336 0.060691
v -0.036149 0.185137 0.048545
v -0.021080 0.182538 0.030506
v -0.000965 0.181769 0.039901
v -0.004975 0.183945 0.063104
v -0.007910 0.179860 0.078701
v -0.033815 0.182820 0.012308
v -0.055885 0.185574 0.020340
v -0.070887 0.181876 0.025801
v -0.026387 0.181769 -0.029946
v -0.044374 0.183945 -0.045143
v -0.056647 0.179860 -0.055205
v -0.035757 0.182538 -0.009819
v -0.058896 0.185137 -0.013952
v -0.074611 0.181336 -0.016620
v 0.034469 0.177844 0.075006
v 0.029283 0.182315 0.060118
v 0.021140 0.180717 0.037974
v 0.039313 0.179666 0.025241
v 0.057447 0.180686 0.040385
v 0.069308 0.175829 0.050596
v 0.048683 0.178896 0.005115
v 0.071969 0.179493 0.009193
v 0.087272 0.174353 0.012012
v 0.083548 0.173813 -0.030409
v 0.068958 0.179056 -0.025099
v 0.046740 0.178614 -0.017012
v -0.008215 0.180717 -0.042678
v -0.016210 0.182315 -0.064876
v -0.021808 0.177844 -0.079615
v 0.034005 0.178896 -0.035211
v 0.049222 0.179493 -0.053303
v 0.059134 0.174353 -0.065299
v 0.013891 0.179666 -0.044606
v 0.018048 0.180686 -0.067863
v 0.020570 0.175829 -0.083309
v -0.023618 0.173086 -0.083904
v -0.007514 0.158057 -0.037502
v -0.023525 0.158983 -0.026284
v -0.060425 0.175216 -0.058114
v -0.001126 0.158983 0.035256
v -0.008934 0.175216 0.083359
v -0.049676 0.176775 0.064330
v -0.018849 0.159661 0.026979
v 0.091627 0.169398 0.012900
v 0.042617 0.156452 0.004607
v 0.040905 0.156204 -0.014888
v 0.087692 0.168827 -0.031917
v -0.030069 0.159910 0.010944
v -0.075470 0.177346 0.027469
v -0.079405 0.176775 -0.017349
v -0.031780 0.159661 -0.008551
v 0.035840 0.173086 0.079455
v 0.018350 0.158057 0.033558
v 0.034361 0.157131 0.022339
v 0.072648 0.170957 0.053666
v 0.061898 0.169398 -0.068779
v 0.029685 0.156452 -0.030923
v 0.011962 0.157131 -0.039200
v 0.021156 0.170957 -0.087807
v -0.022449 0.171303 -0.080436
v -0.057707 0.173343 -0.055732
v 0.087945 0.167769 0.012294
v 0.084176 0.167223 -0.030638
v -0.047410 0.174836 0.061559
v -0.008383 0.173343 0.079786
v -0.075888 0.174836 -0.016682
v -0.072119 0.175383 0.026249
v 0.059468 0.167769 -0.065948
v 0.020440 0.169263 -0.084175
v 0.034506 0.171303 0.076047
v 0.069765 0.169263 0.051343
v -0.015154 0.160922 -0.058906
v -0.040789 0.162406 -0.040945
v 0.065108 0.158354 0.008513
v 0.062368 0.157956 -0.022700
v -0.033303 0.163491 0.044332
v -0.004928 0.162406 0.057584
v -0.054007 0.163491 -0.012554
v -0.051267 0.163889 0.018660
v 0.044403 0.158354 -0.048372
v 0.016028 0.159439 -0.061624
v 0.026255 0.160922 0.054865
v 0.051890 0.159439 0.036904
v -0.013373 0.029514 -0.002606
v 0.014290 0.029444 0.002272
v 0.005263 0.029479 0.013032
v -0.008569 0.029514 0.010593
v -0.004345 0.029479 -0.013366
v 0.009486 0.029444 -0.010926
v -0.009109 0.116997 0.013414
v -0.003416 0.116367 -0.018954
v 0.015261 0.115737 -0.015653
v -0.015601 0.116997 -0.004421
v 0.021752 0.115737 0.002181
v 0.009567 0.116367 0.016715
v -0.008105 0.119156 -0.003062
v 0.014132 0.118426 0.000868
v 0.006878 0.118791 0.009520
v -0.004240 0.119156 0.007555
v -0.000850 0.118791 -0.011714
v 0.010268 0.118426 -0.009749
vn 0.0127 -0.9998 -0.0152
vn 0.0244 -0.9997 0.0041
vn 0.0159 -0.9997 -0.0190
vn 0.0023 -0.9998 -0.0197
vn -0.6664 0.3842 -0.6390
vn -0.6823 0.3382 -0.6481
vn -0.7198 0.3259 -0.6130
vn -0.7284 0.3752 -0.5733
vn 0.6098 0.3164 -0.7267
vn 0.6095 0.3708 -0.7007
vn -0.3168 0.3769 -0.8704
vn -0.3246 0.3164 -0.8913
vn -0.0127 -0.9998 0.0152
vn -0.0244 -0.9997 -0.0041
vn -0.0159 -0.9997 0.0189
vn -0.0190 -0.9998 0.0057
vn -0.0195 -0.9998 -0.0034
vn -0.0087 -0.9997 -0.0232
vn -0.9229 0.3591 -0.1390
vn -0.9342 0.3164 -0.1645
vn 0.3246 0.3164 0.8913
vn -0.6098 0.3164 0.7267
vn -0.5842 0.3708 0.7219
vn 0.3411 0.3591 0.8687
vn -0.3325 -0.3939 -0.8569
vn 0.5716 -0.4329 -0.6970
vn 0.6130 -0.2761 -0.7403
vn -0.3433 -0.2349 -0.9094
vn 0.6287 0.2100 -0.7488
vn -0.3343 0.2226 -0.9158
vn -0.9574 0.2352 -0.1677
vn -0.6266 0.2351 0.7430
vn -0.6079 -0.3549 0.7102
vn -0.9222 -0.3549 -0.1533
vn -0.9671 -0.1937 -0.1652
vn -0.6346 -0.1937 0.7482
vn 0.0082 -0.9997 0.0233
vn 0.9454 -0.2761 0.1731
vn 0.9815 -0.0525 0.1841
vn 0.6604 -0.0599 -0.7485
vn -0.1054 0.3726 0.9220
vn -0.1760 0.3840 0.9064
vn -0.1862 0.3576 0.9151
vn -0.1479 0.3236 0.9346
vn 0.3216 -0.2349 0.9173
vn 0.3813 -0.0495 0.9231
vn 0.6549 -0.0527 -0.7539
vn 0.6561 0.1042 -0.7474
vn -0.2876 0.0532 -0.9563
vn -0.3082 -0.0149 -0.9512
vn -0.6301 0.0428 0.7753
vn -0.9834 0.0324 -0.1786
vn -0.3794 -0.0296 -0.9248
vn 0.3313 0.2227 0.9169
vn 0.9626 0.2100 0.1710
vn 0.9342 0.3164 0.1647
vn -0.9911 0.0306 -0.1295
vn -0.6111 0.0112 0.7915
vn 0.0068 -0.9998 0.0186
vn 0.9229 0.3591 0.1390
vn 0.7436 0.3527 0.5680
vn 0.7036 0.3448 0.6213
vn 0.7247 0.3014 0.6197
vn 0.7372 0.2959 0.6074
vn 0.8738 0.3479 -0.3397
vn 0.8937 0.3439 -0.2882
vn 0.9059 0.2826 -0.3153
vn 0.8891 0.2914 -0.3529
vn -0.8641 0.4113 0.2900
vn -0.8876 0.3632 0.2833
vn -0.8832 0.3290 0.3343
vn -0.8427 0.4129 0.3455
vn 0.2240 0.8394 0.4951
vn -0.0551 0.8527 0.5195
vn -0.1781 -0.1276 0.9757
vn 0.3310 -0.1518 0.9313
vn -0.3091 0.8624 0.4008
vn -0.4699 0.8660 0.1710
vn -0.9347 -0.1034 0.3402
vn -0.6414 -0.1099 0.7593
vn -0.4944 0.8624 -0.1084
vn -0.3761 0.8527 -0.3625
vn -0.7636 -0.1276 -0.6330
vn -0.9794 -0.1099 -0.1694
vn 0.4535 0.8262 0.3343
vn 0.7496 -0.1760 0.6381
vn 0.3865 0.8164 -0.4290
vn 0.5473 0.8129 -0.1992
vn 0.9207 -0.2002 -0.3351
vn 0.6274 -0.1938 -0.7542
vn -0.1466 0.8394 -0.5233
vn 0.1325 0.8262 -0.5476
vn 0.1641 -0.1760 -0.9706
vn -0.3450 -0.1518 -0.9262
vn 0.5718 0.8164 0.0802
vn 0.9654 -0.1938 0.1745
vn 0.0460 0.9988 -0.0168
vn 0.0388 0.9991 -0.0180
vn 0.0391 0.9991 -0.0142
vn 0.1758 0.9844 0.0064
vn 0.1698 0.9835 -0.0618
vn 0.0486 0.9988 -0.0098
vn 0.0517 0.9986 -0.0120
vn 0.0004 0.9900 -0.1410
vn -0.0557 0.9933 -0.1017
vn 0.0530 0.9984 -0.0193
vn 0.0508 0.9985 -0.0224
vn -0.0786 0.9965 0.0286
vn -0.0393 0.9956 0.0847
vn 0.0473 0.9986 -0.0241
vn 0.0435 0.9988 -0.0237
vn 0.0227 0.9933 0.1137
vn 0.0909 0.9900 0.1077
vn 0.0533 0.9985 -0.0155
vn -0.0846 0.9956 -0.0396
vn 0.0413 0.9991 -0.0111
vn 0.1306 0.9844 -0.1179
vn 0.0448 0.9990 -0.0095
vn 0.0685 0.9868 -0.1469
vn 0.0404 0.9990 -0.0215
vn 0.1469 0.9868 0.0685
vn -0.0460 -0.9988 0.0168
vn -0.1914 -0.8976 -0.3971
vn -0.3772 -0.8868 -0.2670
vn 0.3902 -0.9162 0.0914
vn 0.3703 -0.9191 -0.1348
vn -0.3229 -0.8790 0.3509
vn -0.1173 -0.8868 0.4470
vn -0.4729 -0.8790 -0.0613
vn -0.4531 -0.8761 0.1649
vn 0.2402 -0.9162 -0.3208
vn 0.0345 -0.9083 -0.4168
vn 0.1086 -0.8976 0.4273
vn 0.2944 -0.9083 0.2971
vn -0.1454 -0.9538 -0.2628
vn -0.2711 -0.9466 -0.1747
vn -0.3602 -0.8981 -0.2522
vn -0.1841 -0.9083 -0.3756
vn 0.2479 -0.9664 0.0676
vn 0.2345 -0.9684 -0.0853
vn 0.3485 -0.9287 -0.1268
vn 0.3673 -0.9260 0.0876
vn -0.2344 -0.9412 0.2431
vn -0.0953 -0.9466 0.3081
vn -0.1139 -0.8981 0.4247
vn -0.3088 -0.8907 0.3337
vn -0.3358 -0.9412 -0.0356
vn -0.3224 -0.9393 0.1173
vn -0.4322 -0.8880 0.1573
vn -0.4510 -0.8907 -0.0571
vn 0.1464 -0.9664 -0.2111
vn 0.0074 -0.9611 -0.2761
vn 0.0301 -0.9185 -0.3942
vn 0.2250 -0.9260 -0.3032
vn 0.0575 -0.9538 0.2948
vn 0.1831 -0.9611 0.2068
vn 0.2765 -0.9185 0.2826
vn 0.1004 -0.9083 0.4060
vn 0.0502 -0.9940 0.0972
vn 0.0775 -0.9962 0.0384
vn -0.0240 -0.9940 -0.1067
vn -0.0885 -0.9909 -0.1011
vn 0.0719 -0.9971 -0.0262
vn 0.0347 -0.9962 -0.0793
vn -0.1416 -0.9879 -0.0639
vn -0.1689 -0.9856 -0.0052
vn -0.1632 -0.9848 0.0594
vn -0.1261 -0.9856 0.1125
vn -0.0674 -0.9879 0.1399
vn -0.0028 -0.9909 0.1343
vn 0.9807 0.0077 0.1954
vn 0.3216 0.0351 0.9462
vn 0.2961 -0.3939 0.8701
vn 0.8859 -0.4329 0.1665
vn 0.1744 -0.9688 -0.1761
vn 0.1662 -0.9506 -0.2621
vn 0.3101 -0.9467 0.0867
vn 0.2584 -0.9660 0.0108
vn -0.3255 -0.9455 -0.0037
vn -0.2125 -0.9569 0.1978
vn -0.2502 -0.9297 0.2703
vn -0.3523 -0.9338 -0.0616
vn -0.1524 -0.9587 -0.2403
vn -0.1500 -0.9417 -0.3013
vn 0.1448 0.3131 -0.9386
vn 0.1403 0.3588 -0.9228
vn 0.1970 0.3665 -0.9093
vn 0.2112 0.3183 -0.9242
vn 0.0995 -0.9424 0.3194
vn 0.0283 -0.9589 0.2823
vn -0.9931 0.0177 -0.1156
vn 0.3665 -0.0075 0.9304
vn -0.6737 0.0131 0.7389
vn 0.9909 -0.0198 0.1334
vt 0.801758 1.000000
vt 0.759766 1.000000
vt 0.781250 1.000000
vt 0.812500 1.000000
vt 0.833984 1.000000
vt 0.875000 1.000000
vt 0.781250 1.000000
vt 0.854492 1.000000
vt 0.875000 0.703125
vt 0.781250 0.703125
vt 0.781250 0.703125
vt 0.812500 0.703125
vt 0.801758 0.703125
vt 0.833984 0.703125
vt 0.759766 0.703125
vt 0.854492 0.703125
vt 0.759766 0.718750
vt 0.833984 0.718750
vt 0.812500 0.718750
vt 0.781250 0.718750
vt 0.801758 0.718750
vt 0.875000 0.718750
vt 0.781250 0.718750
vt 0.854492 0.718750
vt 0.884199 0.145319
vt 0.781250 0.666667
vt 0.875000 0.666667
vt 0.812500 0.666667
vt 0.874716 0.192505
vt 0.781250 0.666667
vt 0.861763 0.175234
vt 0.801758 0.666667
vt 0.833984 0.666667
vt 0.892411 0.186183
vt 0.866504 0.151641
vt 0.759766 0.666667
vt 0.897152 0.162590
vt 0.854492 0.666667
vt 0.801758 0.979167
vt 0.875000 0.979167
vt 0.781250 0.979167
vt 0.854492 0.979167
vt 0.759766 0.979167
vt 0.833984 0.979167
vt 0.781250 0.979167
vt 0.812500 0.979167
vt 0.759766 0.947917
vt 0.833984 0.947917
vt 0.812500 0.947917
vt 0.781250 0.947917
vt 0.801758 0.947917
vt 0.781250 0.947917
vt 0.875000 0.947917
vt 0.854492 0.947917
vt 0.874853 0.683339
vt 0.781096 0.683339
vt 0.781710 0.684639
vt 0.875439 0.684639
vt 0.854639 0.683339
vt 0.854931 0.684638
vt 0.854054 0.684638
vt 0.854346 0.683339
vt 0.802656 0.684639
vt 0.801611 0.683339
vt 0.802197 0.684639
vt 0.801457 0.683339
vt 0.833546 0.684638
vt 0.834444 0.684638
vt 0.833831 0.683339
vt 0.834131 0.683339
vt 0.812040 0.684639
vt 0.781397 0.683339
vt 0.780812 0.684639
vt 0.812654 0.683339
vt 0.758868 0.684639
vt 0.759920 0.683339
vt 0.759306 0.684639
vt 0.760067 0.683339
vt 0.875178 0.500008
vt 0.936881 0.419389
vt 0.917927 0.445654
vt 0.900914 0.468012
vt 0.909458 0.489460
vt 0.932566 0.481443
vt 0.958811 0.471336
vt 0.885470 0.455136
vt 0.891816 0.424419
vt 0.898374 0.389002
vt 0.851191 0.465692
vt 0.834423 0.443027
vt 0.814719 0.417798
vt 0.867270 0.454290
vt 0.861246 0.423471
vt 0.853636 0.388462
vt 0.958348 0.530911
vt 0.931833 0.522185
vt 0.908816 0.513730
vt 0.899164 0.534323
vt 0.915932 0.556989
vt 0.935636 0.582217
vt 0.883085 0.545725
vt 0.889109 0.576545
vt 0.896719 0.611553
vt 0.851981 0.611013
vt 0.858539 0.575596
vt 0.864885 0.544879
vt 0.841538 0.486285
vt 0.818522 0.477830
vt 0.792007 0.469104
vt 0.849441 0.532003
vt 0.832428 0.554362
vt 0.813474 0.580626
vt 0.840897 0.510555
vt 0.817788 0.518573
vt 0.791544 0.528679
vt 0.763942 0.460203
vt 0.862521 0.097484
vt 0.838472 0.115997
vt 0.793729 0.391391
vt 0.862521 0.235667
vt 0.986470 0.460362
vt 0.956747 0.391426
vt 0.838472 0.217154
vt 0.905011 0.648454
vt 0.928224 0.185088
vt 0.928224 0.148062
vt 0.845277 0.648552
vt 0.824587 0.185088
vt 0.905077 0.351464
vt 0.845344 0.351561
vt 0.824587 0.148062
vt 0.986413 0.539813
vt 0.890290 0.235667
vt 0.914339 0.217154
vt 0.956626 0.608625
vt 0.793608 0.608589
vt 0.914339 0.115997
vt 0.890290 0.097484
vt 0.763885 0.539653
vt 0.755851 0.457096
vt 0.845829 0.014426
vt 0.787878 0.383310
vt 0.792870 0.055195
vt 0.907054 0.659365
vt 0.990517 0.207343
vt 0.842941 0.659365
vt 0.990517 0.125807
vt 0.962830 0.383636
vt 0.792870 0.277956
vt 0.994647 0.457669
vt 0.845829 0.318724
vt 0.843301 0.340650
vt 0.762294 0.125807
vt 0.907414 0.340650
vt 0.762294 0.207343
vt 0.787525 0.616379
vt 0.959941 0.055194
vt 0.755708 0.542347
vt 0.906982 0.014426
vt 0.994504 0.542919
vt 0.906982 0.318724
vt 0.962477 0.616705
vt 0.959941 0.277956
vt 0.854175 0.055955
vt 0.815671 0.085596
vt 0.959371 0.196216
vt 0.959371 0.136935
vt 0.815671 0.247555
vt 0.854175 0.277195
vt 0.793440 0.136935
vt 0.793440 0.196216
vt 0.937140 0.085596
vt 0.898636 0.055955
vt 0.898636 0.277195
vt 0.937140 0.247555
vt 0.759766 0.747396
vt 0.833984 0.747396
vt 0.781250 0.747396
vt 0.812500 0.747396
vt 0.801758 0.747396
vt 0.875000 0.747396
vt 0.781250 0.747396
vt 0.854492 0.747396
vt 0.801758 0.910899
vt 0.781250 0.910899
vt 0.875000 0.910899
vt 0.854492 0.910899
vt 0.759766 0.910899
vt 0.833984 0.910899
vt 0.812500 0.910899
vt 0.781250 0.910899
vt 0.759766 0.907006
vt 0.833984 0.907006
vt 0.781250 0.907006
vt 0.812500 0.907006
vt 0.801758 0.907006
vt 0.781250 0.907006
vt 0.875000 0.907006
vt 0.854492 0.907006
s 1
usemtl mushrooms_n_1
f 42/75/1 23/36/2 21/32/3 39/63/4
f 137/188/5 31/47/6 35/52/7 135/185/8
f 12/16/9 38/59/10 37/55/11 7/9/12
f 40/67/13 22/33/14 24/38/15 38/60/16
f 41/71/17 20/28/18 22/33/14 40/68/13
f 7/10/12 37/56/11 42/76/19 11/15/20
f 8/11/21 9/13/22 39/64/23 41/72/24
f 5/6/25 6/8/26 27/42/27 26/40/28
f 18/24/29 12/16/9 7/9/12 17/22/30
f 13/17/31 11/15/20 9/13/22 16/21/32
f 1/1/33 2/2/34 28/43/35 25/39/36
f 21/31/3 23/35/2 19/25/37 24/37/15 22/34/14 20/29/18
f 27/42/27 29/44/38 32/48/39 36/54/40
f 134/184/41 139/191/42 33/50/43 34/51/44
f 29/44/38 30/46/45 33/49/46 32/48/39
f 145/199/47 133/183/48 132/181/49 144/198/50
f 131/180/51 128/176/52 13/17/31 16/21/32
f 13/17/31 17/23/30 7/10/12 11/15/20
f 26/40/28 27/42/27 36/54/40 35/53/53
f 15/20/54 16/21/32 9/13/22 8/11/21
f 14/18/55 15/19/54 8/12/21 10/14/56
f 18/24/29 14/18/55 10/14/56 12/16/9
f 25/39/36 28/43/35 31/47/57 34/51/58
f 42/77/1 37/57/59 19/26/37 23/36/2
f 37/58/59 38/61/16 24/38/15 19/27/37
f 41/73/17 39/65/4 21/32/3 20/30/18
f 10/14/56 8/12/21 41/74/24 40/69/60
f 12/16/9 10/14/56 40/70/60 38/62/10
f 9/13/22 11/15/20 42/78/19 39/66/23
f 139/190/61 138/189/62 32/48/63 33/49/64
f 138/189/65 136/187/66 36/54/67 32/48/68
f 134/184/69 34/51/70 31/47/71 137/188/72
f 132/181/49 133/183/48 18/24/29 17/22/30
f 28/43/35 26/41/28 35/52/53 31/47/57
f 30/45/45 25/39/36 34/51/58 33/50/46
f 59/95/73 49/85/74 85/121/75 96/132/76
f 44/80/77 52/88/78 93/129/79 86/122/80
f 58/94/81 55/91/82 83/119/83 94/130/84
f 64/100/85 59/95/73 96/132/76 99/135/86
f 76/112/87 68/104/88 91/127/89 100/136/90
f 73/109/91 79/115/92 103/139/93 80/116/94
f 79/115/92 76/112/87 100/136/90 103/139/93
f 67/103/95 64/100/85 99/135/86 88/124/96
f 43/79/97 65/101/98 70/106/99
f 70/106/99 65/101/98 66/102/100 69/105/101
f 69/105/101 66/102/100 67/103/95 68/104/88
f 43/79/97 71/107/102 53/89/103
f 53/89/103 71/107/102 72/108/104 54/90/105
f 54/90/105 72/108/104 73/109/91 55/91/82
f 43/79/97 50/86/106 46/82/107
f 46/82/107 50/86/106 51/87/108 45/81/109
f 45/81/109 51/87/108 52/88/78 44/80/77
f 68/104/88 67/103/95 88/124/96 91/127/89
f 43/79/97 47/83/110 61/97/111
f 61/97/111 47/83/110 48/84/112 60/96/113
f 60/96/113 48/84/112 49/85/74 59/95/73
f 43/79/97 46/82/107 47/83/110
f 47/83/110 46/82/107 45/81/109 48/84/112
f 48/84/112 45/81/109 44/80/77 49/85/74
f 43/79/97 53/89/103 56/92/114
f 56/92/114 53/89/103 54/90/105 57/93/115
f 57/93/115 54/90/105 55/91/82 58/94/81
f 49/85/74 44/80/77 86/122/80 85/121/75
f 43/79/97 56/92/114 50/86/106
f 50/86/106 56/92/114 57/93/115 51/87/108
f 51/87/108 57/93/115 58/94/81 52/88/78
f 43/79/97 70/106/99 74/110/116
f 74/110/116 70/106/99 69/105/101 75/111/117
f 75/111/117 69/105/101 68/104/88 76/112/87
f 52/88/78 58/94/81 94/130/84 93/129/79
f 43/79/97 74/110/116 77/113/118
f 77/113/118 74/110/116 75/111/117 78/114/119
f 78/114/119 75/111/117 76/112/87 79/115/92
f 43/79/97 77/113/118 71/107/102
f 71/107/102 77/113/118 78/114/119 72/108/104
f 72/108/104 78/114/119 79/115/92 73/109/91
f 43/79/97 61/97/111 62/98/120
f 62/98/120 61/97/111 60/96/113 63/99/121
f 63/99/121 60/96/113 59/95/73 64/100/85
f 81/117/122 97/133/122 84/120/122 82/118/122
f 43/79/97 62/98/120 65/101/98
f 65/101/98 62/98/120 63/99/121 66/102/100
f 66/102/100 63/99/121 64/100/85 67/103/95
f 104/140/123 105/142/124 83/119/83 80/116/94
f 106/144/125 107/146/126 91/127/89 88/124/96
f 108/148/127 109/150/128 85/121/75 86/122/80
f 110/152/129 111/154/130 93/129/79 94/130/84
f 112/156/131 113/158/132 103/139/93 100/136/90
f 114/160/133 115/162/134 99/135/86 96/132/76
f 109/150/128 114/160/133 96/132/76 85/121/75
f 111/154/130 108/148/127 86/122/80 93/129/79
f 105/142/124 110/152/129 94/130/84 83/119/83
f 107/146/126 112/156/131 100/136/90 91/127/89
f 113/158/132 104/140/123 80/116/94 103/139/93
f 115/162/134 106/144/125 88/124/96 99/135/86
f 55/91/82 73/109/91 80/116/94 83/119/83
f 116/164/135 117/165/136 105/143/137 104/141/138
f 118/166/139 119/167/140 107/147/141 106/145/142
f 120/168/143 121/169/144 109/151/145 108/149/146
f 122/170/147 123/171/148 111/155/149 110/153/150
f 124/172/151 125/173/152 113/159/153 112/157/154
f 126/174/155 127/175/156 115/163/157 114/161/158
f 121/169/144 126/174/155 114/161/158 109/151/145
f 123/171/148 120/168/143 108/149/146 111/155/149
f 117/165/136 122/170/147 110/153/150 105/143/137
f 119/167/140 124/172/151 112/157/154 107/147/141
f 125/173/152 116/164/135 104/141/138 113/159/153
f 127/175/156 118/166/139 106/145/142 115/163/157
f 98/134/159 89/125/160 118/166/139 127/175/156
f 102/138/161 81/117/162 116/164/135 125/173/152
f 90/126/163 101/137/164 124/172/151 119/167/140
f 82/118/165 95/131/166 122/170/147 117/165/136
f 92/128/167 87/123/168 120/168/143 123/171/148
f 84/120/169 97/133/170 126/174/155 121/169/144
f 97/133/170 98/134/159 127/175/156 126/174/155
f 101/137/164 102/138/161 125/173/152 124/172/151
f 95/131/166 92/128/167 123/171/148 122/170/147
f 87/123/168 84/120/169 121/169/144 120/168/143
f 89/125/160 90/126/163 119/167/140 118/166/139
f 81/117/162 82/118/165 117/165/136 116/164/135
f 5/7/25 26/41/28 28/43/35 2/2/34
f 129/177/171 14/18/55 18/24/29 133/183/48
f 130/179/172 15/19/54 14/18/55 129/177/171
f 13/17/31 128/176/52 132/182/49 17/23/30
f 131/180/51 16/21/32 15/20/54 130/178/172
f 3/3/173 1/1/33 25/39/36 30/45/45
f 3/4/173 30/46/45 29/44/38 4/5/174
f 4/5/174 29/44/38 27/42/27 6/8/26
f 102/138/122 98/134/122 97/133/122 81/117/122
f 98/134/122 102/138/122 101/137/122 89/125/122
f 89/125/122 101/137/122 90/126/122
f 95/131/122 87/123/122 92/128/122
f 82/118/122 84/120/122 87/123/122 95/131/122
f 143/196/175 134/184/176 137/188/177 140/192/178
f 141/193/179 145/199/180 136/187/181 138/189/182
f 142/195/183 141/193/179 138/189/182 139/190/184
f 36/54/185 136/187/186 135/186/187 35/53/188
f 143/196/175 142/194/183 139/191/184 134/184/176
f 140/192/178 137/188/177 135/185/189 144/197/190
f 128/176/52 140/192/191 144/197/50 132/182/49
f 131/180/51 130/178/172 142/194/192 143/196/193
f 130/179/172 129/177/171 141/193/194 142/195/192
f 129/177/171 133/183/48 145/199/47 141/193/194
f 131/180/51 143/196/193 140/192/191 128/176/52
f 136/187/181 145/199/180 144/198/190 135/186/189
