# Blender 3.4.0
# www.blender.org
mtllib stone_4.mtl
o stone_4
v -0.272306 0.018885 0.188849
v -0.105398 0.159727 0.114685
v -0.110519 0.018885 -0.083933
v -0.079975 0.125202 -0.083933
v 0.089823 0.018885 0.188849
v 0.018397 0.157255 0.112715
v 0.145134 0.018885 -0.083933
v 0.101839 0.125202 -0.083933
v 0.009829 0.012590 -0.093259
v 0.004812 0.122965 -0.093259
v -0.045837 0.012590 0.209832
v -0.211146 0.012590 0.023314
v -0.099994 0.178838 0.001733
v 0.156546 0.012590 0.023314
v 0.081684 0.177717 0.003793
v -0.012542 0.199273 -0.002171
v -0.010920 -0.000000 0.023314
v -0.280880 0.078282 0.192913
v -0.108335 0.071770 -0.093259
v 0.149258 0.071770 -0.093259
v 0.075498 0.079988 0.190310
v -0.063232 0.076602 0.230975
v 0.011382 0.068446 -0.111911
v 0.169991 0.083385 0.019410
v -0.225145 0.083385 0.019410
v -0.264269 0.013668 0.120848
v -0.210895 0.120421 0.158455
v -0.088349 0.152630 -0.052199
v -0.112375 0.039688 -0.091662
v -0.062393 0.013668 -0.091662
v 0.062074 0.123417 -0.091662
v 0.155682 0.039688 -0.091662
v 0.162020 0.013668 -0.049501
v 0.046342 0.174714 0.065618
v 0.089142 0.040716 0.203797
v 0.045463 0.013668 0.206237
v 0.090772 0.013668 -0.091662
v -0.047217 0.123417 -0.091662
v -0.181530 0.013668 0.206237
v -0.029580 0.001574 0.123568
v -0.053957 0.039476 0.243949
v 0.012427 0.038457 -0.109580
v -0.152090 0.013668 -0.049501
v -0.118776 0.178393 0.059659
v 0.123669 0.013668 0.120848
v 0.101203 0.152490 -0.051941
v 0.001464 0.166540 -0.053895
v 0.002427 0.001574 -0.050710
v -0.122774 0.001574 0.023314
v 0.031230 0.195739 0.000119
v -0.049955 0.198119 -0.004258
v 0.088649 0.001574 0.023314
v 0.181709 0.040324 0.022826
v -0.244568 0.040324 0.022826
v -0.301607 0.040502 0.204123
v -0.096573 0.101617 -0.091662
v 0.127610 0.101617 -0.091662
v 0.044560 0.124869 0.151008
v 0.008082 0.092948 -0.109580
v 0.132157 0.135273 0.011602
v -0.167155 0.135413 0.011344
v -0.280723 0.082720 0.112180
v 0.178322 0.078207 -0.051198
v -0.052315 0.068861 -0.109580
v 0.020100 0.078305 0.223940
v -0.188152 0.074679 0.229471
v 0.129528 0.082933 0.111855
v 0.085885 0.068861 -0.109580
v -0.164851 0.078207 -0.051198
v -0.028600 0.161386 0.115574
v -0.047456 0.196354 0.050224
v -0.084586 0.116361 0.186031
v -0.131840 0.119951 -0.051904
v 0.075001 0.093972 -0.107335
v 0.093709 0.133811 0.088461
v -0.169377 0.105227 0.198723
v 0.067467 0.003089 0.122888
v -0.067705 0.200252 0.036322
v -0.004377 0.191500 0.056658
v -0.158361 0.003089 0.122888
v -0.010123 0.121127 0.176509
v -0.050884 0.093972 -0.107335
v -0.087294 0.003089 -0.050408
v 0.051770 0.164819 -0.053307
v -0.044667 0.165116 -0.053854
v 0.094396 0.003089 -0.050408
v 0.146075 0.119933 -0.051872
v -0.205242 0.133752 0.088613
v -0.305948 0.040445 0.121464
v 0.187623 0.039881 -0.050469
v -0.053735 0.038713 -0.107335
v 0.035009 0.039893 0.238674
v -0.194175 0.039440 0.239366
v 0.141754 0.040472 0.121423
v 0.090133 0.038713 -0.107335
v -0.175136 0.039881 -0.050469
vn -0.6301 0.5613 -0.5366
vn -0.5297 0.7096 -0.4646
vn -0.4676 0.5868 -0.6611
vn -0.5640 0.3620 -0.7422
vn 0.0312 0.1006 -0.9944
vn 0.0215 0.4782 -0.8780
vn 0.1652 0.4966 -0.8521
vn 0.2422 0.2096 -0.9473
vn 0.7128 0.6139 0.3392
vn 0.5544 0.7684 0.3197
vn 0.3967 0.7891 0.4689
vn 0.5547 0.6906 0.4641
vn -0.0093 0.7325 0.6807
vn -0.1323 0.8746 0.4664
vn -0.2201 0.7865 0.5771
vn 0.0158 -0.9997 0.0186
vn 0.1721 -0.9832 0.0601
vn 0.1848 -0.9681 0.1692
vn 0.0166 -0.9914 0.1300
vn 0.0391 0.9988 0.0306
vn -0.4130 0.8950 -0.1685
vn -0.1775 0.9064 0.3833
vn 0.2906 0.9285 0.2310
vn 0.0836 0.9894 0.1191
vn -0.0054 0.8810 0.4730
vn 0.1570 0.8699 0.4676
vn -0.1100 -0.9933 -0.0364
vn -0.0129 -0.9998 0.0120
vn -0.0117 -0.9923 0.1236
vn -0.0881 -0.9924 0.0854
vn 0.2744 0.7661 0.5812
vn 0.1532 0.8289 0.5379
vn -0.0053 0.8445 0.5355
vn 0.0377 0.7554 0.6542
vn -0.2846 0.1347 -0.9491
vn -0.2028 0.4592 -0.8649
vn -0.0242 0.4738 -0.8803
vn -0.0361 0.0904 -0.9952
vn -0.1555 -0.9308 -0.3308
vn -0.0185 -0.9665 -0.2562
vn -0.0154 -0.9995 -0.0260
vn -0.1394 -0.9844 -0.1074
vn 0.1541 0.7188 -0.6779
vn 0.0229 0.6767 -0.7359
vn 0.0636 0.8629 -0.5014
vn 0.2883 0.8904 -0.3522
vn -0.0190 0.6708 -0.7414
vn -0.1826 0.6896 -0.7008
vn -0.3132 0.8014 -0.5096
vn -0.0125 0.8378 -0.5459
vn 0.0173 -0.9684 -0.2488
vn 0.1413 -0.9607 -0.2388
vn 0.1574 -0.9875 -0.0054
vn 0.0162 -0.9997 -0.0188
vn 0.6679 0.5099 -0.5421
vn 0.4812 0.6809 -0.5521
vn 0.6203 0.7790 -0.0911
vn 0.7981 0.6012 0.0405
vn -0.5145 0.8537 0.0809
vn -0.3051 0.9178 0.2541
vn -0.5252 0.8251 -0.2081
vn -0.6244 0.7060 -0.3343
vn -0.5609 -0.8277 0.0152
vn -0.8628 0.5044 0.0356
vn -0.8009 0.3464 -0.4884
vn -0.5568 -0.7664 -0.3203
vn 0.6585 -0.5922 -0.4645
vn 0.7906 0.1570 -0.5918
vn 0.9636 0.2532 0.0855
vn 0.7279 -0.6835 0.0538
vn -0.2176 -0.4179 -0.8820
vn -0.2697 -0.0358 -0.9623
vn -0.0355 -0.0756 -0.9965
vn -0.0287 -0.5273 -0.8492
vn 0.4057 -0.5924 0.6961
vn 0.4666 0.4484 0.7624
vn 0.0620 0.3612 0.9304
vn 0.0374 -0.7760 0.6297
vn -0.0211 -0.7903 0.6123
vn -0.0241 0.3003 0.9536
vn -0.3066 0.3662 0.8785
vn -0.1843 -0.7774 0.6014
vn 0.7513 -0.5963 0.2827
vn 0.8784 0.3021 0.3702
vn 0.7654 0.3873 0.5140
vn 0.7776 -0.4259 0.4625
vn 0.0250 -0.5326 -0.8460
vn 0.0303 -0.0732 -0.9969
vn 0.2413 -0.0185 -0.9703
vn 0.1919 -0.4788 -0.8567
vn -0.5844 -0.6257 -0.5167
vn -0.7186 0.2288 -0.6567
vn -0.5668 0.0883 -0.8191
vn -0.5211 -0.4140 -0.7464
vn -0.0328 0.8498 0.5261
vt 0.365165 0.315029
vt 0.446764 0.289361
vt 0.372763 0.401844
vt 0.329861 0.390942
vt 0.369388 0.253808
vt 0.434135 0.353665
vt 0.285220 0.271091
vt 0.449386 0.192757
vt 0.433533 0.193884
vt 0.398180 0.192707
vt 0.481549 0.201509
vt 0.336721 0.325099
vt 0.362382 0.211053
vt 0.377314 0.294771
vt 0.492188 0.298642
vt 0.436284 0.308719
vt 0.293851 0.383463
vt 0.433340 0.315447
vt 0.283389 0.197687
vt 0.488000 0.385368
vt 0.448394 0.267065
vt 0.481549 0.255024
vt 0.283393 0.315358
vt 0.446608 0.379455
vt 0.281872 0.236547
vt 0.446764 0.227591
vt 0.480881 0.226420
vt 0.312273 0.317308
vt 0.369388 0.249946
vt 0.369388 0.334871
vt 0.317147 0.298842
vt 0.443166 0.236730
vt 0.335544 0.356414
vt 0.379982 0.218649
vt 0.314229 0.193549
vt 0.494511 0.351130
vt 0.284062 0.346578
vt 0.435639 0.347887
vt 0.310696 0.351529
vt 0.315676 0.241527
vt 0.421558 0.291472
vt 0.395177 0.403342
vt 0.465189 0.193890
vt 0.416987 0.194285
vt 0.469160 0.383534
vt 0.464626 0.268054
vt 0.397997 0.300864
vt 0.471995 0.296233
vt 0.392776 0.340977
vt 0.464049 0.228267
vt 0.472280 0.351167
vt 0.420249 0.240652
vt 0.345571 0.313204
vt 0.446764 0.268493
vt 0.414809 0.384537
vt 0.398232 0.276973
vt 0.389704 0.202669
vt 0.336287 0.338051
vt 0.455826 0.192707
vt 0.426794 0.194009
vt 0.282912 0.257228
vt 0.447700 0.206832
vt 0.480881 0.243131
vt 0.295393 0.315029
vt 0.479769 0.384677
vt 0.455104 0.269785
vt 0.293306 0.192707
vt 0.491744 0.372909
vt 0.434135 0.326176
vt 0.289379 0.366951
vt 0.384746 0.297794
vt 0.485215 0.294771
vt 0.367579 0.223797
vt 0.373764 0.308860
vt 0.281754 0.213386
vt 0.447009 0.250973
vt 0.480789 0.211318
vt 0.327444 0.320831
vt 0.369388 0.288841
vt 0.369486 0.374568
vt 0.344388 0.246028
vt 0.381839 0.338147
vt 0.455527 0.228476
vt 0.295759 0.282533
vt 0.437869 0.209715
vt 0.336721 0.374786
vt 0.377220 0.237248
vt 0.342480 0.202068
vt 0.494511 0.321203
vt 0.281754 0.327700
vt 0.441874 0.366971
vt 0.310100 0.334276
vt 0.294490 0.238316
vt 0.316549 0.273377
vt 0.299009 0.349497
vt 0.320636 0.353055
vt 0.314839 0.213201
vt 0.484044 0.351880
vt 0.432921 0.243412
vt 0.435433 0.294771
vt 0.382615 0.408708
vt 0.407245 0.193474
vt 0.473944 0.197168
vt 0.473672 0.262026
vt 0.457603 0.382078
vt 0.452304 0.302073
vt 0.417323 0.308283
vt 0.471037 0.227373
vt 0.455000 0.350017
vt 0.400548 0.231075
vt 0.422582 0.268816
vt 0.471940 0.369044
vt 0.464283 0.210465
vt 0.393924 0.318823
vt 0.391762 0.375103
vt 0.472664 0.324040
vt 0.463980 0.249223
vt 0.418600 0.214979
vt 0.307482 0.386921
vt 0.434135 0.330070
vt 0.317124 0.367375
vt 0.409501 0.347013
vt 0.404197 0.209936
vt 0.471130 0.246291
vt 0.453879 0.325856
vt 0.403966 0.370769
vt 0.343347 0.218397
vt 0.323342 0.364411
vt 0.304980 0.366824
vt 0.345219 0.282760
vt 0.412024 0.325627
vt 0.471324 0.210841
vt 0.295334 0.263811
vt 0.296005 0.331687
vt 0.322958 0.336773
vt 0.293851 0.212190
vt 0.458176 0.368129
vt 0.400961 0.255817
vt 0.434345 0.272539
vt 0.481618 0.369852
vt 0.455854 0.209925
vt 0.383420 0.315240
vt 0.381745 0.376463
vt 0.485500 0.323233
vt 0.455459 0.250404
vt 0.429795 0.215824
s 0
usemtl stone_1
f 25/52/1 61/110/1 73/123/1 69/118/1
f 61/110/2 13/34/2 28/57/2 73/123/2
f 73/123/3 28/57/3 4/10/3 56/102/3
f 69/118/4 73/123/4 56/102/4 19/44/4
f 23/50/5 59/108/5 74/124/5 68/117/5
f 59/108/6 10/27/6 31/63/6 74/124/6
f 74/124/7 31/63/7 8/22/7 57/104/7
f 68/117/8 74/124/8 57/104/8 20/46/8
f 24/51/9 60/109/9 75/125/9 67/116/9
f 60/109/10 15/38/10 34/69/10 75/125/10
f 75/125/11 34/69/11 6/16/11 58/106/11
f 67/116/12 75/125/12 58/106/12 21/48/12
f 22/49/13 72/122/13 76/126/13 66/115/13
f 2/6/14 27/55/14 76/126/14
f 18/42/15 66/115/15 76/126/15 27/55/15
f 17/40/16 52/97/16 77/127/16 40/81/16
f 52/97/17 14/35/17 45/88/17 77/127/17
f 77/127/18 45/88/18 5/13/18 36/73/18
f 40/81/19 77/127/19 36/73/19 11/29/19
f 16/39/20 51/96/20 78/128/20 71/121/20
f 13/33/21 44/86/21 78/128/21 51/96/21
f 2/4/22 71/121/22 78/128/22 44/86/22
f 15/37/23 50/95/23 79/129/23 34/70/23
f 50/95/24 16/39/24 71/121/24 79/129/24
f 79/129/25 71/121/25 2/4/25 70/119/25
f 34/70/26 79/129/26 70/119/26 6/17/26
f 12/31/27 49/94/27 80/130/27 26/53/27
f 49/94/28 17/40/28 40/81/28 80/130/28
f 80/130/29 40/81/29 11/29/29 39/79/29
f 26/53/30 80/130/30 39/79/30 1/1/30
f 21/47/31 58/107/31 81/131/31 65/114/31
f 58/107/32 6/18/32 70/120/32 81/131/32
f 81/131/33 70/120/33 2/6/33 72/122/33
f 65/114/34 81/131/34 72/122/34 22/49/34
f 19/43/35 56/103/35 82/132/35 64/113/35
f 56/103/36 4/11/36 38/77/36 82/132/36
f 82/132/37 38/77/37 10/27/37 59/108/37
f 64/113/38 82/132/38 59/108/38 23/50/38
f 3/7/39 30/61/39 83/133/39 43/84/39
f 30/61/40 9/25/40 48/93/40 83/133/40
f 83/133/41 48/93/41 17/40/41 49/94/41
f 43/84/42 83/133/42 49/94/42 12/31/42
f 8/23/43 31/64/43 84/134/43 46/90/43
f 31/64/44 10/28/44 47/92/44 84/134/44
f 84/134/45 47/92/45 16/39/45 50/95/45
f 46/90/46 84/134/46 50/95/46 15/37/46
f 10/28/47 38/78/47 85/135/47 47/92/47
f 38/78/48 4/12/48 28/58/48 85/135/48
f 85/135/49 28/58/49 13/33/49 51/96/49
f 47/92/50 85/135/50 51/96/50 16/39/50
f 9/25/51 37/75/51 86/136/51 48/93/51
f 37/75/52 7/19/52 33/67/52 86/136/52
f 86/136/53 33/67/53 14/35/53 52/97/53
f 48/93/54 86/136/54 52/97/54 17/40/54
f 20/45/55 57/105/55 87/137/55 63/112/55
f 57/105/56 8/24/56 46/91/56 87/137/56
f 87/137/57 46/91/57 15/38/57 60/109/57
f 63/112/58 87/137/58 60/109/58 24/51/58
f 18/41/59 27/56/59 88/138/59 62/111/59
f 27/56/60 2/5/60 44/87/60 88/138/60
f 88/138/61 44/87/61 13/34/61 61/110/61
f 62/111/62 88/138/62 61/110/62 25/52/62
f 1/2/63 55/100/63 89/139/63 26/54/63
f 55/100/64 18/41/64 62/111/64 89/139/64
f 89/139/65 62/111/65 25/52/65 54/99/65
f 26/54/66 89/139/66 54/99/66 12/32/66
f 7/20/67 32/65/67 90/140/67 33/68/67
f 32/65/68 20/45/68 63/112/68 90/140/68
f 90/140/69 63/112/69 24/51/69 53/98/69
f 33/68/70 90/140/70 53/98/70 14/36/70
f 3/8/71 29/59/71 91/141/71 30/62/71
f 29/59/72 19/43/72 64/113/72 91/141/72
f 91/141/73 64/113/73 23/50/73 42/83/73
f 30/62/74 91/141/74 42/83/74 9/26/74
f 5/14/75 35/71/75 92/142/75 36/74/75
f 35/71/76 21/47/76 65/114/76 92/142/76
f 92/142/77 65/114/77 22/49/77 41/82/77
f 36/74/78 92/142/78 41/82/78 11/30/78
f 11/30/79 41/82/79 93/143/79 39/80/79
f 41/82/80 22/49/80 66/115/80 93/143/80
f 93/143/81 66/115/81 18/42/81 55/101/81
f 39/80/82 93/143/82 55/101/82 1/3/82
f 14/36/83 53/98/83 94/144/83 45/89/83
f 53/98/84 24/51/84 67/116/84 94/144/84
f 94/144/85 67/116/85 21/48/85 35/72/85
f 45/89/86 94/144/86 35/72/86 5/15/86
f 9/26/87 42/83/87 95/145/87 37/76/87
f 42/83/88 23/50/88 68/117/88 95/145/88
f 95/145/89 68/117/89 20/46/89 32/66/89
f 37/76/90 95/145/90 32/66/90 7/21/90
f 12/32/91 54/99/91 96/146/91 43/85/91
f 54/99/92 25/52/92 69/118/92 96/146/92
f 96/146/93 69/118/93 19/44/93 29/60/93
f 43/85/94 96/146/94 29/60/94 3/9/94
f 72/122/95 2/6/95 76/126/95
