# Blender 3.4.0
# www.blender.org
mtllib stone_2.mtl
o stone_2
v 0.961528 1.349759 -1.373868
v 1.668217 0.092923 0.343380
v -0.870898 1.271692 0.939233
v -1.124772 -0.174280 1.800631
v -1.337775 -0.010779 0.194937
v 0.966967 0.496797 -1.474398
v 1.814979 0.803081 -0.779719
v -0.065662 1.672481 -0.276861
v -0.158612 -0.142449 1.532714
v -0.582583 -0.139726 -0.268445
v -0.653550 1.461117 -0.816782
v -1.484921 0.846582 -0.206410
v -1.144911 0.276201 1.739109
v 1.591505 -0.048140 -0.295086
v -1.400657 1.336998 0.221149
v -1.452900 -0.196903 1.021567
v 1.047507 0.592353 0.618782
v -0.059102 1.263583 0.641828
v 1.054735 0.938304 -1.499439
v 0.995440 -0.037709 -1.098584
v 1.468678 1.137723 -1.260572
v 1.921685 0.475502 -0.402474
v 0.667705 1.557974 -1.001084
v -1.052706 1.514555 0.333746
v -1.477678 1.223767 -0.225679
v 0.781070 1.330025 -0.334824
v -1.075373 1.540205 -0.304086
v -0.598862 1.670781 -0.473747
v -0.203659 0.192833 -0.835975
v -0.878893 0.338977 -0.540621
v -0.266039 0.766121 -1.091299
v -0.194479 0.608129 1.375616
v -0.186515 0.253346 1.531540
v 1.787951 0.478406 -1.172951
v 1.573995 0.168062 -1.145419
v 1.568545 0.607527 -1.432382
v 0.963517 -0.227339 0.266864
v -0.301182 -0.312045 1.172371
v -0.429039 -0.334880 0.271116
v -1.701514 0.874265 0.680452
v -1.660314 0.174642 1.089699
v -1.501829 0.877867 1.093576
v -0.054430 1.600545 -0.934681
v 0.752213 0.326070 0.984280
v 1.859355 0.270999 -0.697274
v -1.668232 0.968269 0.172625
v -1.504672 0.182936 1.518619
v 0.073348 1.442438 -1.107507
vn 0.4127 0.8941 -0.1741
vn 0.5116 0.8359 0.1989
vn 0.1558 0.9028 0.4007
vn -0.2861 0.5922 -0.7533
vn -0.2865 0.8371 -0.4660
vn -0.3793 0.8152 -0.4378
vn -0.0609 0.9858 0.1565
vn -0.2481 0.9675 0.0477
vn -0.4672 0.8826 0.0521
vn -0.2578 0.2281 -0.9389
vn -0.3513 -0.4125 -0.8405
vn -0.4386 -0.4050 -0.8023
vn -0.4214 -0.6311 -0.6512
vn -0.4787 -0.6388 -0.6024
vn -0.5857 -0.1788 -0.7905
vn 0.4468 0.3683 0.8153
vn 0.2525 0.6980 0.6701
vn 0.4041 0.6439 0.6497
vn 0.6327 0.6145 0.4713
vn 0.0828 -0.0728 -0.9939
vn 0.7550 -0.5519 -0.3540
vn 0.3079 -0.9205 -0.2404
vn 0.0759 -0.9879 -0.1354
vn 0.3951 -0.9059 0.1527
vn -0.2259 0.6472 0.7281
vn -0.9008 -0.0049 -0.4341
vn -0.9397 -0.3199 -0.1208
vn -0.9160 -0.2981 -0.2684
vn -0.8914 -0.3084 -0.3321
vn 0.3780 0.8938 0.2415
vn 0.5075 0.8344 0.2152
vn 0.4688 0.7572 0.4548
vn 0.3695 0.8499 0.3757
vn -0.3293 0.1429 -0.9334
vn 0.5481 0.7287 0.4106
vn 0.0435 0.9932 -0.1079
vn 0.5520 -0.1049 0.8272
vn -0.6264 0.7745 -0.0883
vn -0.5754 0.5916 -0.5647
vn 0.0693 0.9329 0.3534
vn -0.2958 0.0046 -0.9552
vn -0.2786 -0.5623 -0.7786
vn -0.2767 -0.7370 -0.6166
vn -0.6774 -0.4040 -0.6147
vn 0.5957 0.3389 0.7282
vn 0.4539 0.5046 0.7344
vn 0.2386 0.0852 0.9674
vn 0.0888 0.6089 0.7883
vn 0.3384 0.3458 -0.8752
vn 0.2033 0.3978 0.8947
vn 0.8608 0.2962 -0.4138
vn 0.8501 -0.5223 0.0668
vn 0.9838 0.0556 -0.1705
vn 0.6042 -0.7692 -0.2080
vn 0.1450 -0.5532 -0.8203
vn 0.3275 -0.8779 0.3492
vn 0.5602 -0.4480 -0.6967
vn 0.1609 -0.9781 -0.1321
vn -0.1032 -0.9444 -0.3122
vn -0.1066 -0.9927 0.0558
vn 0.0770 -0.9969 0.0143
vn 0.1349 -0.9160 0.3777
vn -0.3070 -0.9189 -0.2478
vn -0.5673 0.7541 0.3311
vn -0.3948 0.8056 0.4417
vn -0.8107 0.5849 0.0254
vn -0.9034 0.2015 0.3784
vn -0.5496 0.4375 0.7117
vn -0.7805 -0.5333 0.3262
vn -0.5374 0.0905 0.8385
vn 0.5011 0.0379 0.8646
vn 0.7782 0.4569 -0.4308
vn -0.0528 0.8097 -0.5844
vn -0.5848 -0.0143 -0.8110
vt 0.000000 0.295928
vt 0.233920 0.840188
vt 0.307486 0.810741
vt 0.741304 0.891032
vt 0.304014 0.415693
vt 0.752083 0.450707
vt 0.533743 0.480772
vt 0.323514 0.447559
vt 0.307486 0.000000
vt 1.000000 0.463401
vt 0.750463 0.450707
vt 0.566978 0.077906
vt 0.878658 0.754137
vt 0.805817 0.000000
vt 0.343001 0.000000
vt 0.750463 0.460206
vt 0.806661 0.699763
vt 0.014442 0.442127
vt 0.566978 0.082609
vt 0.109619 0.842250
vt 0.448354 0.790856
vt 0.114939 0.417861
vt 0.369374 0.627755
vt 0.127687 0.116890
vt 0.740908 0.665589
vt 0.307486 0.139825
vt 0.805817 0.144937
vt 0.000000 0.571659
vt 0.566978 0.211010
vt 0.618075 0.676868
vt 0.249135 0.594777
vt 0.943797 0.738630
vt 0.154023 0.451436
vt 0.739376 0.001983
vt 0.817449 0.450707
vt 0.526511 0.584047
vt 0.412758 0.480773
vt 0.618486 0.493605
vt 0.824508 0.868760
vt 0.465133 0.012500
vt 0.768374 0.579628
vt 0.307486 0.296517
vt 0.683145 0.349212
vt 0.569182 0.202931
vt 0.270261 0.116794
vt 0.172997 0.857176
vt 0.375539 0.794367
vt 0.017765 0.823083
vt 0.533743 0.734806
vt 0.556856 0.465265
vt 0.032587 0.368223
vt 0.331500 0.724784
vt 0.183004 0.442127
vt 0.428734 0.569865
vt 0.041463 0.235561
vt 0.750463 0.815934
vt 0.676250 0.512083
vt 0.878658 0.849744
vt 1.000000 0.738604
vt 0.566978 0.540218
vt 0.801661 0.930654
vt 0.208149 0.451269
vt 0.141453 0.244950
vt 0.623799 0.584693
vt 0.663984 0.641945
vt 0.067109 0.655378
vt 0.087056 0.553689
vt 0.153599 0.662571
vt 0.696110 0.146860
vt 0.749664 0.140452
vt 0.420612 0.675614
vt 0.463621 0.687213
vt 0.407490 0.716146
vt 0.390940 0.361083
vt 0.367214 0.146576
vt 0.485703 0.192265
vt 0.750463 0.799528
vt 0.933153 0.602363
vt 0.826812 0.565326
vt 0.772551 0.738630
vt 0.921018 0.534731
vt 0.681162 0.738426
vt 0.730511 0.289187
vt 0.449717 0.619746
vt 0.958445 0.675090
vt 0.759908 0.871975
vt 0.814717 0.509219
vt 0.249135 0.707156
vt 0.670742 0.774748
s 0
usemtl stone_2
f 1/1/1 23/55/1 21/51/1
f 23/55/2 26/63/2 7/22/2
f 18/45/3 8/24/3 3/9/3
f 11/30/4 43/82/4 48/89/4
f 11/30/5 28/65/5 43/82/5
f 27/64/6 28/65/6 11/30/6
f 8/25/7 28/65/7 24/57/7
f 24/57/8 28/65/8 27/64/8
f 24/57/9 27/64/9 15/38/9
f 1/2/10 19/46/10 48/88/10
f 29/66/11 31/68/11 6/20/11
f 29/66/12 30/67/12 31/68/12
f 10/28/13 30/67/13 29/66/13
f 10/28/14 5/18/14 30/67/14
f 31/68/15 30/67/15 12/33/15
f 32/69/16 33/70/16 44/83/16
f 3/12/17 32/69/17 18/44/17
f 18/44/18 32/69/18 17/43/18
f 7/22/19 17/42/19 2/5/19 22/53/19
f 36/73/20 6/21/20 19/47/20
f 35/72/21 34/71/21 45/84/21
f 20/49/22 35/72/22 14/36/22
f 37/74/23 39/76/23 20/50/23
f 2/8/24 37/74/24 14/37/24
f 3/10/25 42/81/25 13/35/25
f 25/59/26 12/32/26 46/85/26
f 5/17/27 40/78/27 46/85/27
f 5/17/28 16/41/28 41/79/28 40/78/28
f 12/32/29 5/17/29 46/85/29
f 23/55/30 8/24/30 26/63/30
f 21/51/31 23/55/31 7/22/31
f 17/42/32 26/63/32 18/45/32
f 18/45/33 26/63/33 8/24/33
f 19/46/34 31/68/34 11/31/34 48/88/34
f 17/42/35 7/22/35 26/63/35
f 8/25/36 23/56/36 43/82/36 28/65/36
f 9/27/37 2/6/37 44/83/37
f 25/60/38 15/38/38 27/64/38
f 25/60/39 27/64/39 11/30/39
f 3/11/40 8/25/40 24/57/40
f 19/46/41 6/20/41 31/68/41
f 20/48/42 29/66/42 6/20/42
f 20/48/43 10/28/43 29/66/43
f 30/67/44 5/18/44 12/33/44
f 17/43/45 44/83/45 2/6/45
f 17/43/46 32/69/46 44/83/46
f 33/70/47 13/34/47 4/14/47 9/27/47
f 3/12/48 13/34/48 32/69/48
f 19/47/49 1/3/49 21/52/49 36/73/49
f 13/34/50 33/70/50 32/69/50
f 36/73/51 21/52/51 7/23/51
f 22/54/52 2/7/52 14/36/52 45/84/52
f 7/23/53 22/54/53 45/84/53 34/71/53
f 14/36/54 35/72/54 45/84/54
f 36/73/55 35/72/55 20/49/55 6/21/55
f 38/75/56 37/74/56 2/8/56 9/26/56
f 35/72/57 36/73/57 34/71/57
f 14/37/58 37/74/58 20/50/58
f 20/50/59 39/76/59 10/29/59
f 16/40/60 39/76/60 38/75/60 4/15/60
f 37/74/61 38/75/61 39/76/61
f 38/75/62 9/26/62 4/15/62
f 5/19/63 10/29/63 39/76/63 16/40/63
f 40/77/64 42/80/64 24/58/64 15/39/64
f 24/58/65 42/80/65 3/13/65
f 46/86/66 40/77/66 15/39/66 25/61/66
f 41/79/67 47/87/67 42/81/67 40/78/67
f 13/35/68 42/81/68 47/87/68
f 16/41/69 4/16/69 47/87/69 41/79/69
f 13/35/70 47/87/70 4/16/70
f 33/70/71 9/27/71 44/83/71
f 34/71/72 36/73/72 7/23/72
f 23/56/73 1/4/73 48/89/73 43/82/73
f 12/33/74 25/62/74 11/31/74 31/68/74
