# Blender 4.2.0
# www.blender.org
mtllib AirCon01.mtl
o AirCon01
v -0.750000 1.000000 0.375000
v -0.750000 0.000000 0.375000
v -0.750000 1.000000 -0.375000
v -0.750000 0.000000 -0.375000
v 0.750000 1.000000 0.375000
v 0.750000 0.000000 0.375000
v 0.750000 1.000000 -0.375000
v 0.750000 0.000000 -0.375000
v 0.455000 0.000000 0.375000
v 0.455000 -0.100000 0.375000
v 0.455000 0.000000 -0.375000
v 0.455000 -0.100000 -0.375000
v 0.545000 0.000000 0.375000
v 0.545000 -0.100000 0.375000
v 0.545000 0.000000 -0.375000
v 0.545000 -0.100000 -0.375000
v -0.545000 0.000000 0.375000
v -0.545000 -0.100000 0.375000
v -0.545000 0.000000 -0.375000
v -0.545000 -0.100000 -0.375000
v -0.455000 0.000000 0.375000
v -0.455000 -0.100000 0.375000
v -0.455000 0.000000 -0.375000
v -0.455000 -0.100000 -0.375000
vn -0.0000 1.0000 -0.0000
vn -0.0000 -0.0000 -1.0000
vn 1.0000 -0.0000 -0.0000
vn -0.0000 -1.0000 -0.0000
vn -1.0000 -0.0000 -0.0000
vn -0.0000 -0.0000 1.0000
vt 0.000000 0.000000
vt 0.710938 0.363184
vt 0.710938 0.000000
vt 0.000000 0.368159
vt 0.710938 1.000000
vt 1.000000 0.363184
vt 0.000000 0.363184
vt 1.000000 1.000000
vt 0.262500 0.546875
vt 0.300000 0.609375
vt 0.262500 0.609375
vt 0.300000 0.546875
vt 0.337500 0.609375
vt 0.200000 0.562500
vt 0.525000 0.640625
vt 0.200000 0.640625
vt 0.525000 0.625000
vt 0.200000 0.578125
vt 0.525000 0.578125
vt 0.337500 0.671875
vt 0.300000 0.671875
vt 0.710938 0.368159
vt 0.000000 1.000000
vt 0.337500 0.546875
vt 0.525000 0.562500
vt 0.200000 0.625000
vt 0.262500 0.671875
s 0
usemtl Primary
f 5/1/1 3/2/1 1/3/1
f 3/4/2 8/3/2 4/1/2
f 7/5/3 6/6/3 8/2/3
f 2/2/4 8/1/4 6/7/4
f 1/6/5 4/5/5 2/8/5
f 5/5/6 2/7/6 6/2/6
f 19/9/2 24/10/2 20/11/2
f 11/12/2 16/13/2 12/10/2
f 15/14/3 14/15/3 16/16/3
f 10/17/4 16/18/4 14/19/4
f 9/14/5 12/15/5 10/16/5
f 13/20/6 10/10/6 14/13/6
f 23/14/3 22/15/3 24/16/3
f 18/17/4 24/18/4 22/19/4
f 17/14/5 20/15/5 18/16/5
f 21/21/6 18/11/6 22/10/6
f 5/1/1 7/7/1 3/2/1
f 3/4/2 7/22/2 8/3/2
f 7/5/3 5/8/3 6/6/3
f 2/2/4 4/3/4 8/1/4
f 1/6/5 3/2/5 4/5/5
f 5/5/6 1/23/6 2/7/6
f 19/9/2 23/12/2 24/10/2
f 11/12/2 15/24/2 16/13/2
f 15/14/3 13/25/3 14/15/3
f 10/17/4 12/26/4 16/18/4
f 9/14/5 11/25/5 12/15/5
f 13/20/6 9/21/6 10/10/6
f 23/14/3 21/25/3 22/15/3
f 18/17/4 20/26/4 24/18/4
f 17/14/5 19/25/5 20/15/5
f 21/21/6 17/27/6 18/11/6
