# Blender 4.2.0
# www.blender.org
mtllib Arcade01.mtl
o Arcade01
v 0.451555 1.319396 0.672526
v 0.451555 1.319396 -0.486716
v 0.451555 0.911132 -0.486716
v 0.451555 0.000000 -0.486716
v 0.451555 0.000000 0.539586
v 0.501555 2.225513 -0.486716
v 0.451555 2.225513 -0.486716
v 0.451555 2.463732 0.265387
v 0.501555 2.463732 0.265387
v 0.451555 1.007964 0.672526
v 0.501555 0.000000 -0.486716
v 0.501555 0.000000 0.539586
v 0.501555 0.911132 0.539586
v 0.501555 1.007964 0.672526
v 0.501555 1.319396 0.672526
v 0.501555 0.911132 -0.486716
v 0.501555 1.319396 -0.486716
v -0.451555 1.319396 -0.486716
v -0.451555 0.000000 -0.486716
v -0.451555 0.911132 -0.486716
v -0.451555 0.000000 0.539586
v -0.501555 2.225513 -0.486716
v -0.451555 2.225513 -0.486716
v -0.451555 2.463732 0.265387
v -0.501555 2.463732 0.265387
v -0.451555 1.007964 0.672526
v -0.451555 1.319396 0.672526
v -0.501555 0.000000 -0.486716
v -0.501555 0.000000 0.539586
v -0.501555 0.911132 0.539586
v -0.501555 1.007964 0.672526
v -0.501555 1.319396 0.672526
v -0.501555 0.911132 -0.486716
v -0.501555 1.319396 -0.486716
v 0.451555 0.911132 0.539586
v -0.451555 0.911132 0.539586
v 0.451555 0.000000 0.495694
v 0.451555 1.059249 0.495694
v 0.451555 1.296246 0.322439
v 0.451555 1.059249 0.614676
v 0.451555 1.247488 0.614676
v 0.451555 2.174978 -0.436716
v 0.451555 2.401365 0.205861
v 0.451555 0.000000 -0.436716
v -0.451555 2.174978 -0.436716
v -0.451555 1.296246 0.322439
v -0.451555 0.000000 0.495694
v -0.451555 1.059249 0.495694
v -0.451555 1.059249 0.614676
v -0.451555 1.247488 0.614676
v -0.451555 0.000000 -0.436716
v -0.451555 2.401365 0.205861
v 0.451555 2.183712 0.278169
v 0.451555 2.126874 0.130908
v -0.451555 2.126874 0.130908
v -0.340343 1.404614 0.297451
v -0.340343 2.018506 0.155896
v 0.340343 2.018506 0.155896
v 0.340343 1.404614 0.297451
v -0.451555 2.183712 0.278169
vn -0.0000 -0.8083 0.5888
vn -0.0000 -0.0000 1.0000
vn -0.0000 0.9533 -0.3020
vn 1.0000 -0.0000 -0.0000
vn -0.0000 -0.0000 -1.0000
vn -1.0000 -0.0000 -0.0000
vn -0.0000 0.3352 0.9421
vn -0.0000 0.9864 0.1646
vn -0.0000 -1.0000 -0.0000
vn -0.0000 0.3153 0.9490
vn -0.0000 0.9432 -0.3323
vn -0.0000 0.2247 0.9744
vn -0.0000 -0.9329 0.3601
vt 0.537372 0.189484
vt 0.537372 0.130860
vt 0.557948 0.130859
vt 0.557948 0.189484
vt 0.539386 0.000000
vt 0.557948 0.000000
vt 0.557947 0.882562
vt 0.537372 0.717148
vt 0.557948 0.717143
vt 0.537372 0.882559
vt 0.554424 0.000000
vt 0.554424 0.395963
vt 0.101296 0.395964
vt 0.101296 0.000000
vt 0.537372 0.289569
vt 0.557948 0.289568
vt 0.537372 0.000000
vt 0.557947 0.882559
vt 0.048015 0.554671
vt 0.554424 0.554669
vt 0.537372 0.717148
vt 0.101297 0.395963
vt 0.205434 0.982243
vt 0.048015 0.554671
vt 0.554424 0.554669
vt 0.554424 0.882559
vt 0.048015 0.554672
vt 0.048014 0.433107
vt 0.554424 0.554671
vt 0.215277 1.000000
vt 0.554424 0.900316
vt 0.048017 0.554673
vt 0.048014 0.433106
vt 0.557948 0.189484
vt 0.537372 0.130859
vt 0.539385 0.000000
vt 0.537373 0.882556
vt 0.557948 0.717138
vt 0.537372 0.717143
vt 0.554425 0.000000
vt 0.537372 0.289571
vt 0.557948 0.289569
vt 0.537372 0.882559
vt 0.557948 0.882559
vt 0.101297 0.395963
vt 0.554424 0.882559
vt 0.048017 0.433104
vt 0.205432 0.982247
vt 0.554424 0.882562
vt 0.048014 0.433106
vt 0.562551 0.437702
vt 0.968763 0.437702
vt 0.968763 0.595284
vt 0.562551 0.595284
vt 0.562551 1.000000
vt 0.968763 1.000000
vt 0.968763 0.936626
vt 0.562551 0.936626
vt 0.968763 0.614500
vt 0.562551 0.614500
vt 0.562551 0.593550
vt 0.968763 0.593550
vt 0.968763 0.192396
vt 0.968763 0.281510
vt 0.562551 0.281510
vt 0.562551 0.192396
vt 0.562551 0.312592
vt 0.968763 0.312592
vt 0.968763 0.624985
vt 0.562551 0.624985
vt 0.562550 0.969016
vt 0.562551 0.593766
vt 0.968763 0.593767
vt 0.968763 0.969016
vt 0.562551 0.281278
vt 0.968763 0.281278
vt 0.968764 0.843733
vt 0.562551 0.843733
vt 0.620936 0.192396
vt 0.620936 0.019410
vt 0.922585 0.019410
vt 0.922585 0.192396
vt 0.968763 0.251237
vt 0.968763 0.314064
vt 0.562551 0.314064
vt 0.562551 0.251237
vt 0.922585 0.458758
vt 0.922585 0.303085
vt 0.968763 0.480333
vt 0.620937 0.416128
vt 0.922585 0.416128
vt 0.620936 0.303085
vt 0.620937 0.458758
vt 0.562551 0.480333
vt 0.562551 0.281510
s 0
usemtl Primary
f 10/1/1 35/2/1 13/3/1 14/4/1
f 35/2/2 5/5/2 12/6/2 13/3/2
f 7/7/3 8/8/3 9/9/3 6/10/3
f 11/11/4 16/12/4 13/13/4 12/14/4
f 1/15/2 10/1/2 14/4/2 15/16/2
f 7/17/5 6/6/5 11/18/5 4/10/5
f 3/12/6 35/13/6 1/19/6 2/20/6
f 8/21/7 1/15/7 15/16/7 9/9/7
f 36/11/4 21/12/4 19/22/4 20/14/4
f 24/23/4 27/24/4 18/25/4 23/26/4
f 15/27/4 14/28/4 13/13/4
f 15/27/4 13/13/4 16/12/4 17/29/4
f 25/30/6 22/31/6 34/20/6 32/32/6
f 1/19/6 35/13/6 10/33/6
f 26/1/1 31/34/1 30/3/1 36/35/1
f 36/35/2 30/3/2 29/6/2 21/36/2
f 23/18/3 22/37/3 25/38/3 24/39/3
f 28/40/6 29/14/6 30/13/6 33/12/6
f 27/41/2 32/42/2 31/34/2 26/1/2
f 23/17/5 19/43/5 28/44/5 22/6/5
f 20/12/4 18/25/4 27/24/4 36/13/4
f 24/39/7 25/38/7 32/42/7 27/41/7
f 5/45/6 35/14/6 3/11/6 4/12/6
f 1/19/6 8/23/6 7/46/6 2/20/6
f 32/32/6 30/13/6 31/47/6
f 32/32/6 34/20/6 33/12/6 30/13/6
f 9/48/4 15/27/4 17/29/4 6/49/4
f 27/24/4 26/50/4 36/13/4
f 39/51/8 46/52/8 50/53/8 41/54/8
f 49/55/2 40/56/2 41/57/2 50/58/2
f 48/59/9 38/60/9 40/61/9 49/62/9
f 53/63/10 43/64/10 52/65/10 60/66/10
f 52/67/11 43/68/11 42/69/11 45/70/11
f 37/71/2 38/72/2 48/73/2 47/74/2
f 45/75/5 42/76/5 44/77/5 51/78/5
f 60/83/13 55/84/13 54/85/13 53/86/13
f 56/87/12 57/88/12 55/64/12 46/89/12
f 59/90/12 56/91/12 46/52/12 39/51/12
f 58/92/12 59/93/12 39/94/12 54/95/12
f 57/88/12 58/92/12 54/95/12 55/64/12
usemtl Secondary
f 57/79/12 56/80/12 59/81/12 58/82/12
l 6 16
l 22 33
