# Blender 4.2.0
# www.blender.org
mtllib Arcade02.mtl
o Arcade01
v -1.000000 1.153696 -0.300906
v -1.000000 1.153696 0.318461
v -1.000000 1.103696 0.504271
v -1.000000 1.153696 -0.486716
v -1.000000 1.153696 0.504271
v -0.800004 1.103696 0.256525
v -0.800004 1.103696 -0.238969
v -0.800004 1.153696 0.256525
v -0.800004 1.153696 -0.238969
v -1.000000 1.103696 -0.300906
v -1.000000 1.103696 0.318461
v -0.800004 1.153696 -0.486716
v -0.800004 1.153696 0.504271
v -1.000000 1.103696 -0.486716
v -0.628055 1.153696 0.324271
v -0.720022 0.000000 0.324271
v -0.628055 1.153696 -0.306716
v -0.800025 1.103696 0.434694
v -0.720022 0.000000 -0.306716
v -0.800025 1.103696 -0.417139
v 0.720022 0.000000 0.324271
v 0.800025 1.103696 0.434694
v 0.720022 0.000000 -0.306716
v 0.800025 1.103696 -0.417139
v 1.000000 1.153696 -0.300906
v 1.000000 1.153696 0.318461
v 1.000000 1.103696 0.504271
v 1.000000 1.153696 -0.486716
v 1.000000 1.153696 0.504271
v 0.800004 1.103696 0.256525
v 0.800004 1.103696 -0.238969
v 0.800004 1.153696 0.256525
v 0.800004 1.153696 -0.238969
v 1.000000 1.103696 -0.300906
v 1.000000 1.103696 0.318461
v 0.800004 1.153696 0.504271
v 0.800004 1.153696 -0.486716
v 1.000000 1.103696 -0.486716
v 0.628055 1.153696 0.324271
v 0.628055 1.153696 -0.306716
v -0.995004 0.839688 -0.263969
v -0.995004 0.935938 -0.263969
v -0.770004 0.695938 -0.263969
v -0.770004 0.935938 -0.263969
v -0.995004 0.839688 0.281525
v -0.995004 0.935938 0.281525
v -0.770004 0.695938 0.281525
v -0.770004 0.935938 0.281525
v 0.995004 0.839688 -0.263969
v 0.995004 0.935938 -0.263969
v 0.770004 0.695938 -0.263969
v 0.770004 0.935938 -0.263969
v 0.995004 0.839688 0.281525
v 0.995004 0.935938 0.281525
v 0.770004 0.695938 0.281525
v 0.770004 0.935938 0.281525
vn -0.2958 -0.0000 -0.9552
vn -0.0000 -0.0000 1.0000
vn -0.0000 1.0000 -0.0000
vn -1.0000 -0.0000 -0.0000
vn -0.2958 -0.0000 0.9552
vn -0.9974 -0.0723 -0.0000
vn -0.0000 -0.0996 -0.9950
vn 0.9974 -0.0723 -0.0000
vn -0.0000 -0.0996 0.9950
vn 0.2958 -0.0000 -0.9552
vn 1.0000 -0.0000 -0.0000
vn 0.2958 -0.0000 0.9552
vn -0.0000 -0.0000 -1.0000
vn -0.5384 -0.8427 -0.0000
vn 0.5384 -0.8427 -0.0000
vt 0.618136 0.747999
vt 0.632200 0.752355
vt 0.613962 0.811247
vt 0.599898 0.806891
vt 0.500000 0.031250
vt 0.531250 0.031250
vt 0.531250 0.781250
vt 0.500000 0.781250
vt 0.593750 0.468750
vt 0.593750 0.343750
vt 0.718750 0.343750
vt 0.718750 0.500000
vt 0.408484 0.918128
vt 0.408484 0.903405
vt 0.554391 0.903405
vt 0.554391 0.918128
vt 0.686915 0.737631
vt 0.686915 0.752355
vt 0.632200 0.737632
vt 0.776248 0.769934
vt 0.771892 0.755870
vt 0.830784 0.737631
vt 0.835140 0.751696
vt 0.776248 0.824649
vt 0.761524 0.824649
vt 0.761524 0.769934
vt 0.718750 0.406250
vt 0.718750 0.531250
vt 0.593750 0.562500
vt 0.593750 0.406250
vt 0.968750 0.562500
vt 0.562500 0.562500
vt 0.562500 0.312500
vt 0.968750 0.312500
vt 0.281250 0.687500
vt 0.281250 0.312500
vt 0.375000 0.187500
vt 0.375000 0.812500
vt 0.531250 0.718750
vt 0.125000 0.718750
vt 0.125000 0.031250
vt 0.531250 0.062500
vt 0.531250 0.281250
vt 0.125000 0.281250
vt 0.968750 1.000000
vt 0.562500 1.000000
vt 0.968750 0.343750
vt 0.312500 0.281250
vt 0.250000 0.281250
vt 0.250000 0.250000
vt 0.312500 0.250000
vt 0.375000 0.156250
vt 0.500000 0.187500
vt 0.375000 0.031250
vt 0.631594 0.151708
vt 0.639915 0.540591
vt 0.471245 0.542796
vt 0.473932 0.149180
vt 0.187500 0.343750
vt 0.375000 0.343750
vt 0.375000 0.375000
vt 0.187500 0.375000
vt 0.375000 0.312500
vt 0.187500 0.312500
vt 0.187500 0.281250
vt 0.375000 0.281250
vt 0.250000 0.218750
vt 0.312500 0.218750
vt 0.468750 0.781250
vt 0.468750 0.031250
vt 0.250000 0.031250
vt 0.125000 0.187500
vt 0.250000 0.156250
vt 0.343750 0.656250
vt 0.468750 0.718750
vt 0.343750 0.093750
vt 0.187500 0.093750
vt 0.468750 0.093750
vt 0.250000 0.312500
vt 0.375000 0.218750
vt 0.937500 0.468750
vt 0.812500 0.468750
vt 0.812500 0.281250
vt 0.937500 0.281250
vt 0.781250 0.468750
vt 0.687500 0.468750
vt 0.687500 0.281250
vt 0.781250 0.281250
vt 0.843750 0.468750
vt 0.843750 0.281250
s 0
usemtl Primary
f 11/1/1 2/2/1 8/3/1 6/4/1
f 5/5/2 3/6/2 27/7/2 29/8/2
f 2/9/3 5/10/3 13/11/3 8/12/3
f 9/13/4 7/14/4 6/15/4 8/16/4
f 3/17/4 5/18/4 2/2/4 11/19/4
f 1/20/5 10/21/5 7/22/5 9/23/5
f 4/24/4 14/25/4 10/26/4 1/20/4
f 4/27/3 1/28/3 9/29/3 12/30/3
f 16/31/6 18/32/6 20/33/6 19/34/6
f 15/35/3 17/36/3 12/37/3 13/38/3
f 19/39/7 20/40/7 24/41/7 23/42/7
f 23/43/8 24/44/8 22/41/8 21/6/8
f 21/45/9 22/46/9 18/33/9 16/47/9
f 35/48/10 30/49/10 32/50/10 26/51/10
f 26/52/3 32/53/3 36/5/3 29/54/3
f 33/59/11 32/60/11 30/61/11 31/62/11
f 27/63/11 35/64/11 26/65/11 29/66/11
f 25/51/12 33/50/12 31/67/12 34/68/12
f 28/64/11 25/63/11 34/60/11 38/59/11
f 28/8/13 38/69/13 14/70/13 4/5/13
f 28/71/3 37/41/3 33/72/3 25/73/3
f 15/74/3 13/75/3 36/70/3 39/76/3
f 39/77/3 36/41/3 37/6/3 40/78/3
f 40/76/3 37/70/3 12/75/3 17/74/3
f 41/49/13 42/79/13 44/63/13 43/80/13
f 47/81/14 45/82/14 41/83/14 43/84/14
f 46/85/3 48/86/3 44/87/3 42/88/3
f 45/82/4 46/85/4 42/88/4 41/83/4
f 47/80/2 48/63/2 46/79/2 45/49/2
f 49/49/13 51/80/13 52/63/13 50/79/13
f 55/81/15 51/84/15 49/83/15 53/82/15
f 54/85/3 50/88/3 52/87/3 56/86/3
f 53/89/11 49/90/11 50/83/11 54/82/11
f 55/80/2 53/49/2 54/79/2 56/63/2
usemtl Secondary
f 15/55/3 39/56/3 40/57/3 17/58/3
l 13 29
