# Blender 4.2.0
# www.blender.org
mtllib ComputerMouse01.mtl
o ComputerMouse01
v 0.084375 0.025017 -0.047812
v 0.084375 0.000000 -0.047812
v 0.084375 0.025017 0.047812
v 0.084375 0.000000 0.047812
v -0.084375 0.023180 -0.047812
v -0.084375 0.000000 -0.047812
v -0.084375 0.023180 0.047812
v -0.084375 0.000000 0.047812
v 0.000000 0.000000 -0.056250
v 0.000000 0.035122 0.056250
v 0.000000 0.000000 0.056250
v 0.000000 0.035122 -0.056250
vn -0.1401 0.9901 -0.0000
vn -0.0995 -0.0000 0.9950
vn -1.0000 -0.0000 -0.0000
vn -0.0000 -1.0000 -0.0000
vn 1.0000 -0.0000 -0.0000
vn 0.0995 -0.0000 -0.9950
vn -0.0995 -0.0000 -0.9950
vn 0.0995 -0.0000 0.9950
vn 0.1189 0.9929 -0.0000
vt 0.062500 1.000000
vt 1.000000 0.531250
vt 0.000000 0.531250
vt 0.406250 0.500000
vt 0.156250 0.000000
vt 0.406250 0.000000
vt 1.000000 0.250000
vt -0.000000 0.000000
vt 1.000000 0.000000
vt 0.093750 0.046875
vt 0.000000 0.406250
vt 1.000000 0.406250
vt 0.125000 1.000000
vt 0.406250 1.000000
vt 0.937500 1.000000
vt 0.875000 0.046875
vt 0.000064 0.500000
vt -0.000000 0.250000
vt 0.000000 0.500000
s 0
usemtl Primary
f 5/1/1 10/2/1 12/3/1
f 11/4/2 7/5/2 8/6/2
f 7/7/3 6/8/3 8/9/3
f 2/10/4 11/2/4 9/3/4
f 1/2/5 4/11/5 2/12/5
f 9/4/6 1/13/6 2/14/6
f 5/5/7 9/4/7 6/6/7
f 9/3/4 8/15/4 6/1/4
f 3/13/8 11/4/8 4/14/8
f 12/3/9 3/16/9 1/10/9
f 5/1/1 7/15/1 10/2/1
f 11/4/2 10/17/2 7/5/2
f 7/7/3 5/18/3 6/8/3
f 2/10/4 4/16/4 11/2/4
f 1/2/5 3/3/5 4/11/5
f 9/4/6 12/19/6 1/13/6
f 5/5/7 12/19/7 9/4/7
f 9/3/4 11/2/4 8/15/4
f 3/13/8 10/17/8 11/4/8
f 12/3/9 10/2/9 3/16/9
