# Blender 4.2.0
# www.blender.org
mtllib ComputerMouse02.mtl
o ComputerMouse02
v -0.018082 0.000000 0.078125
v -0.018082 0.013874 0.078125
v -0.019574 0.000000 -0.078125
v -0.019574 0.023274 -0.078125
v 0.018082 0.000000 0.078125
v 0.018082 0.013874 0.078125
v 0.019574 0.000000 -0.078125
v 0.019574 0.023274 -0.078125
v -0.043750 0.000000 0.000000
v -0.043750 0.041505 0.000000
v 0.043750 0.000000 0.000000
v 0.043750 0.041505 0.000000
v -0.035652 0.000000 0.062729
v 0.035652 0.028971 0.062729
v -0.035652 0.028971 0.062729
v 0.035652 0.000000 0.062729
v -0.043750 0.031250 -0.061302
v 0.043750 0.000000 -0.061302
v -0.043750 0.000000 -0.061302
v 0.043750 0.031250 -0.061302
vn -0.5712 -0.0000 -0.8208
vn -0.0000 -0.0000 -1.0000
vn 0.6590 -0.0000 0.7521
vn -0.0000 -0.0000 1.0000
vn -0.0000 -1.0000 -0.0000
vn -0.0000 0.7140 0.7001
vn -0.0000 0.9863 -0.1650
vn 1.0000 -0.0000 -0.0000
vn -0.9918 -0.0000 0.1280
vn -0.6590 -0.0000 0.7521
vn -0.0000 0.9806 0.1959
vn 0.9918 -0.0000 0.1280
vn 0.5712 -0.0000 -0.8208
vn -0.0000 0.9036 -0.4284
vn -1.0000 -0.0000 -0.0000
vt 0.000000 0.413793
vt 0.203125 0.413793
vt 0.140625 0.500000
vt 0.000000 0.500000
vt 0.218750 0.353448
vt 0.000000 0.353448
vt 0.000000 0.129310
vt 0.218750 0.129310
vt 0.000000 0.068966
vt 0.187500 0.068966
vt 0.093750 0.000000
vt 0.000000 0.000000
vt 0.000000 0.155172
vt 0.156250 0.155172
vt 0.156250 0.318966
vt 0.000000 0.318966
vt 0.953125 0.560345
vt 0.546875 0.560345
vt 0.640625 0.500000
vt 0.859375 0.500000
vt 0.453125 0.568965
vt 0.046875 0.568965
vt 0.343750 0.500000
vt 0.500000 0.948276
vt 0.000000 0.948276
vt 0.000000 0.767241
vt 0.500000 0.767241
vt 0.984375 0.939655
vt 0.515625 0.939655
vt 0.515625 0.750000
vt 0.984375 0.750000
vt 0.250000 0.241379
vt 0.000000 0.241379
vt 0.859375 1.000000
vt 0.640625 1.000000
vt 0.359375 1.000000
vt 0.140625 1.000000
s 0
usemtl Primary
f 19/1/1 17/2/1 4/3/1 3/4/1
f 3/5/2 4/6/2 8/7/2 7/8/2
f 16/9/3 14/10/3 6/11/3 5/12/3
f 5/13/4 6/14/4 2/15/4 1/16/4
f 13/17/5 16/18/5 5/19/5 1/20/5
f 14/21/6 15/22/6 2/3/6 6/23/6
f 20/24/7 17/25/7 10/26/7 12/27/7
f 19/28/5 18/29/5 11/30/5 9/31/5
f 18/1/8 20/2/8 12/32/8 11/33/8
f 13/9/9 15/10/9 10/32/9 9/33/9
f 1/12/10 2/11/10 15/10/10 13/9/10
f 12/27/11 10/26/11 15/22/11 14/21/11
f 9/31/5 11/30/5 16/18/5 13/17/5
f 11/33/12 12/32/12 14/10/12 16/9/12
f 7/4/13 8/3/13 20/2/13 18/1/13
f 3/34/5 7/35/5 18/29/5 19/28/5
f 8/36/14 4/37/14 17/25/14 20/24/14
f 9/33/15 10/32/15 17/2/15 19/1/15
