# Blender 4.2.0
# www.blender.org
mtllib Computer02.mtl
o Computer02
v 0.151125 0.739000 -0.405000
v 0.151125 0.021000 -0.405000
v 0.172125 0.760000 0.365000
v 0.172125 0.000000 0.365000
v -0.151125 0.739000 -0.405000
v -0.151125 0.021000 -0.405000
v -0.172125 0.760000 0.405000
v -0.172125 0.000000 0.405000
v 0.086062 0.021000 -0.405000
v 0.086062 0.760000 0.405000
v 0.086062 0.000000 0.405000
v 0.086062 0.739000 -0.405000
v 0.086062 0.000000 -0.405000
v -0.172125 0.000000 -0.405000
v 0.172125 0.760000 -0.405000
v 0.172125 0.000000 -0.405000
v -0.172125 0.760000 -0.405000
v 0.086062 0.760000 -0.405000
v 0.086062 0.739000 -0.385000
v 0.086062 0.021000 -0.385000
v -0.151125 0.021000 -0.385000
v 0.151125 0.739000 -0.385000
v 0.151125 0.021000 -0.385000
v -0.151125 0.739000 -0.385000
vn -0.0000 1.0000 -0.0000
vn -0.0000 -0.0000 1.0000
vn -1.0000 -0.0000 -0.0000
vn -0.0000 -1.0000 -0.0000
vn 1.0000 -0.0000 -0.0000
vn 0.4215 -0.0000 0.9068
vn -0.0000 -0.0000 -1.0000
vt 1.000000 0.302083
vt 0.000000 0.442708
vt 1.000000 0.442708
vt 0.375000 0.994792
vt 0.000000 0.500000
vt 0.375000 0.500000
vt 0.000000 0.000000
vt 1.000000 0.343750
vt 0.000000 0.343750
vt 1.000000 0.489583
vt 0.000000 0.489583
vt 1.000000 0.000000
vt 0.500000 0.500000
vt 0.531250 0.979167
vt 0.500000 0.989583
vt 0.875000 0.989583
vt 0.937500 0.979167
vt 0.968750 0.989583
vt 0.500000 0.994792
vt 0.530623 0.985772
vt 0.874929 0.999576
vt 0.500141 0.999576
vt 0.969496 0.513804
vt 0.999859 0.999576
vt 0.969378 0.985772
vt 0.530503 0.513804
vt 0.875000 0.500000
vt 1.000000 0.500000
vt 0.874931 0.985772
vt 0.874998 0.513804
vt 0.875000 0.979167
vt 0.531250 0.510417
vt 0.968750 0.500000
vt 0.875000 0.510417
vt 0.937500 0.510417
vt 0.000000 0.302083
vt 0.000000 0.994792
s 0
usemtl Primary
f 17/1/1 10/2/1 18/3/1
f 10/4/2 8/5/2 11/6/2
f 7/7/3 14/8/3 8/9/3
f 13/10/4 4/11/4 11/11/4
f 15/12/5 4/9/5 16/8/5
f 5/13/5 21/14/5 6/15/5
f 9/16/1 23/17/1 2/18/1
f 13/10/4 8/11/4 14/10/4
f 3/19/6 11/6/6 4/13/6
f 18/3/1 3/11/1 15/10/1
f 6/20/7 13/21/7 14/22/7
f 1/23/7 16/24/7 2/25/7
f 6/20/7 17/13/7 5/26/7
f 1/23/7 18/27/7 15/28/7
f 2/25/7 13/21/7 9/29/7
f 5/26/7 18/27/7 12/30/7
f 19/30/7 23/25/7 20/29/7
f 24/26/7 20/29/7 21/20/7
f 6/15/1 20/31/1 9/16/1
f 12/27/4 24/32/4 5/13/4
f 1/33/4 19/34/4 12/27/4
f 2/18/3 22/35/3 1/33/3
f 17/1/1 7/36/1 10/2/1
f 10/4/2 7/37/2 8/5/2
f 7/7/3 17/12/3 14/8/3
f 13/10/4 16/10/4 4/11/4
f 15/12/5 3/7/5 4/9/5
f 5/13/5 24/32/5 21/14/5
f 9/16/1 20/31/1 23/17/1
f 13/10/4 11/11/4 8/11/4
f 3/19/6 10/4/6 11/6/6
f 18/3/1 10/2/1 3/11/1
f 6/20/7 9/29/7 13/21/7
f 1/23/7 15/28/7 16/24/7
f 6/20/7 14/22/7 17/13/7
f 1/23/7 12/30/7 18/27/7
f 2/25/7 16/24/7 13/21/7
f 5/26/7 17/13/7 18/27/7
f 19/30/7 22/23/7 23/25/7
f 24/26/7 19/30/7 20/29/7
f 6/15/1 21/14/1 20/31/1
f 12/27/4 19/34/4 24/32/4
f 1/33/4 22/35/4 19/34/4
f 2/18/3 23/17/3 22/35/3
