# Blender 4.2.0
# www.blender.org
mtllib DVD01d.mtl
o DVD01d
v 0.139219 0.041766 -0.208828
v 0.139219 -0.000000 -0.208828
v 0.139219 0.041766 0.208828
v 0.139219 -0.000000 0.208828
v -0.139219 0.041766 -0.208828
v -0.139219 -0.000000 -0.208828
v -0.139219 0.041766 0.208828
v -0.139219 -0.000000 0.208828
vn -0.0000 1.0000 -0.0000
vn -0.0000 -0.0000 1.0000
vn -1.0000 -0.0000 -0.0000
vn -0.0000 -1.0000 -0.0000
vn 1.0000 -0.0000 -0.0000
vn -0.0000 -0.0000 -1.0000
vt -0.000000 0.322222
vt 0.458333 0.000000
vt 0.458333 0.322222
vt 0.000000 0.644444
vt 0.458333 0.688889
vt 0.000000 0.688889
vt 0.875000 1.000000
vt 0.937500 0.688889
vt 0.937500 1.000000
vt 0.895833 0.322222
vt 1.000000 0.688889
vt 0.458333 0.688889
vt 0.458333 0.644444
vt -0.000000 0.000000
vt 0.875000 0.688889
vt 0.895833 0.000000
vt 1.000000 1.000000
s 0
usemtl Primary
f 5/1/1 3/2/1 1/3/1
f 3/4/2 8/5/2 4/6/2
f 7/7/3 6/8/3 8/9/3
f 2/10/4 8/2/4 6/3/4
f 1/11/5 4/9/5 2/8/5
f 5/12/6 2/4/6 6/13/6
f 5/1/1 7/14/1 3/2/1
f 3/4/2 7/13/2 8/5/2
f 7/7/3 5/15/3 6/8/3
f 2/10/4 4/16/4 8/2/4
f 1/11/5 3/17/5 4/9/5
f 5/12/6 1/6/6 2/4/6
