# Blender 4.2.0
# www.blender.org
mtllib DVD01a.mtl
o DVD01a
v 0.139219 0.041766 -0.208828
v 0.139219 -0.000000 -0.208828
v 0.139219 0.041766 0.208828
v 0.139219 -0.000000 0.208828
v -0.139219 0.041766 -0.208828
v -0.139219 -0.000000 -0.208828
v -0.139219 0.041766 0.208828
v -0.139219 -0.000000 0.208828
vn -0.0000 1.0000 -0.0000
vn -0.0000 -0.0000 1.0000
vn -1.0000 -0.0000 -0.0000
vn -0.0000 -1.0000 -0.0000
vn 1.0000 -0.0000 -0.0000
vn -0.0000 -0.0000 -1.0000
vt 0.458333 1.000000
vt 0.000000 1.000000
vt 0.000000 0.677778
vt 0.458333 0.677778
vt 0.000000 0.633333
vt 0.458333 0.633333
vt 0.937500 1.000000
vt 0.875000 1.000000
vt 0.875000 0.677778
vt 0.937500 0.677778
vt 0.888889 1.000000
vt 0.895833 0.677778
vt 1.000000 0.677778
vt 1.000000 1.000000
s 0
usemtl Primary
f 1/1/1 5/2/1 7/3/1 3/4/1
f 4/3/2 3/5/2 7/6/2 8/4/2
f 8/7/3 7/8/3 5/9/3 6/10/3
f 6/1/4 2/11/4 4/12/4 8/4/4
f 2/10/5 1/13/5 3/14/5 4/7/5
f 6/6/6 5/4/6 1/3/6 2/5/6
