# Blender 4.2.0
# www.blender.org
mtllib Keyboard02.mtl
o Keyboard02
v -0.372042 0.027816 -0.139081
v -0.372042 -0.000000 -0.139081
v -0.372042 0.013908 0.139081
v 0.372042 0.027816 -0.139081
v 0.372042 -0.000000 -0.139081
v 0.372042 0.013908 0.139081
vn -0.0000 0.9988 0.0499
vn -1.0000 -0.0000 -0.0000
vn -0.0000 -0.9988 0.0499
vn 1.0000 -0.0000 -0.0000
vn -0.0000 -0.0000 -1.0000
vt 0.000000 1.000000
vt 0.941176 0.519231
vt 0.941176 1.000000
vt 1.000000 0.538462
vt 1.000000 1.000000
vt 0.000000 0.538462
vt 0.941176 0.076923
vt 0.941176 0.538462
vt -0.000000 -0.000000
vt 0.941176 0.000000
vt 0.000000 0.519231
vt 0.000000 0.076923
s 0
usemtl Primary
f 1/1/1 6/2/1 4/3/1
f 3/4/2 1/5/2 2/3/2
f 5/6/3 3/7/3 2/8/3
f 6/4/4 5/3/4 4/5/4
f 1/7/5 5/9/5 2/10/5
f 1/1/1 3/11/1 6/2/1
f 5/6/3 6/12/3 3/7/3
f 1/7/5 4/12/5 5/9/5
