# Blender 4.2.0
# www.blender.org
mtllib Laptop01.mtl
o Laptop01.Base
v -0.463874 0.000000 0.583511
v -0.463874 0.037500 0.583511
v -0.463874 0.000000 -0.122052
v -0.463874 0.037500 -0.122052
v 0.472419 0.000000 0.583511
v 0.472419 0.037500 0.583511
v 0.472419 0.000000 -0.122052
v 0.472419 0.037500 -0.122052
vn -1.0000 -0.0000 -0.0000
vn -0.0000 -0.0000 -1.0000
vn 1.0000 -0.0000 -0.0000
vn -0.0000 -0.0000 1.0000
vn -0.0000 -1.0000 -0.0000
vn -0.0000 1.0000 -0.0000
vt 0.000000 0.000000
vt 0.218750 0.025000
vt 0.000000 0.025000
vt 0.492188 0.000000
vt 1.000000 0.025000
vt 0.492188 0.025000
vt 0.500000 0.025000
vt 0.500000 0.000000
vt 1.000000 0.037500
vt 0.492188 0.625000
vt 0.492188 0.037500
vt 0.000000 0.625000
vt 0.500000 0.625000
vt 0.218750 0.000000
vt 1.000000 0.000000
vt 1.000000 0.625000
s 0
usemtl Primary
f 2/1/1 3/2/1 1/3/1
f 4/4/2 7/5/2 3/6/2
f 8/1/3 5/2/3 7/3/3
f 6/7/4 1/1/4 5/8/4
f 7/9/5 1/10/5 3/11/5
f 4/12/6 6/7/6 8/13/6
f 2/1/1 4/14/1 3/2/1
f 4/4/2 8/15/2 7/5/2
f 8/1/3 6/14/3 5/2/3
f 6/7/4 2/3/4 1/1/4
f 7/9/5 5/16/5 1/10/5
f 4/12/6 2/3/6 6/7/6
o Laptop01.Lid
v -0.463874 0.037500 0.583511
v -0.463874 0.056250 0.583511
v -0.463874 0.037500 -0.122052
v -0.463874 0.056250 -0.122052
v 0.472419 0.037500 0.583511
v 0.472419 0.056250 0.583511
v 0.472419 0.037500 -0.122052
v 0.472419 0.056250 -0.122052
vn -1.0000 -0.0000 -0.0000
vn -0.0000 -0.0000 -1.0000
vn 1.0000 -0.0000 -0.0000
vn -0.0000 -0.0000 1.0000
vn -0.0000 -1.0000 -0.0000
vn -0.0000 1.0000 -0.0000
vt 1.000000 0.625000
vt 0.500000 0.612500
vt 1.000000 0.612500
vt 1.000000 0.025000
vt 0.500000 0.012500
vt 1.000000 0.012500
vt 0.500000 0.625000
vt 0.500000 0.025000
vt 0.000000 1.000000
vt 0.000000 0.625000
vt 1.000000 1.000000
vt 0.500000 1.000000
s 0
usemtl Primary
f 10/17/7 11/18/7 9/19/7
f 12/20/8 15/21/8 11/22/8
f 16/18/9 13/17/9 15/23/9
f 14/21/10 9/20/10 13/24/10
f 15/23/11 9/25/11 11/26/11
f 12/27/12 14/23/12 16/28/12
f 10/17/7 12/23/7 11/18/7
f 12/20/8 16/24/8 15/21/8
f 16/18/9 14/19/9 13/17/9
f 14/21/10 10/22/10 9/20/10
f 15/23/11 13/28/11 9/25/11
f 12/27/12 10/17/12 14/23/12
