# Blender 4.2.0
# www.blender.org
mtllib MobilePhone01.mtl
o MobilePhone01
v -0.095000 -0.000000 0.166250
v -0.100000 0.030000 0.175000
v -0.095000 -0.000000 -0.166250
v -0.100000 0.030000 -0.175000
v 0.095000 -0.000000 0.166250
v 0.100000 0.030000 0.175000
v 0.095000 -0.000000 -0.166250
v 0.100000 0.030000 -0.175000
vn -0.9864 -0.1644 -0.0000
vn -0.0000 -0.2800 -0.9600
vn 0.9864 -0.1644 -0.0000
vn -0.0000 -0.2800 0.9600
vn -0.0000 -1.0000 -0.0000
vn -0.0000 1.0000 -0.0000
vt 0.907895 1.000000
vt 1.000000 0.111111
vt 1.000000 1.000000
vt 0.447368 0.000000
vt 0.000000 0.111111
vt 0.000000 0.000000
vt 0.907895 0.111111
vt 0.894737 0.000000
vt 0.447368 0.111111
vt 0.894737 0.111111
vt 0.447368 1.000000
vt 0.000074 0.999927
vt 0.894737 1.000000
s 0
usemtl Primary
f 2/1/1 3/2/1 1/3/1
f 3/4/2 8/5/2 7/6/2
f 8/2/3 5/1/3 7/7/3
f 5/8/4 2/9/4 1/4/4
f 7/10/5 1/11/5 3/9/5
f 4/9/6 6/12/6 8/5/6
f 2/1/1 4/7/1 3/2/1
f 3/4/2 4/9/2 8/5/2
f 8/2/3 6/3/3 5/1/3
f 5/8/4 6/10/4 2/9/4
f 7/10/5 5/13/5 1/11/5
f 4/9/6 2/11/6 6/12/6
