# Blender 4.2.0
# www.blender.org
mtllib Monitor01.mtl
o Monitor01.002
v -0.042187 0.223023 0.703125
v -0.042187 0.223023 -0.703125
v -0.042187 1.181250 0.703125
v -0.042187 1.181250 -0.703125
v 0.042187 0.223023 0.703125
v 0.042187 1.181250 0.703125
v 0.042187 1.181250 -0.703125
v -0.031641 0.223023 0.084749
v -0.031641 0.223023 -0.084749
v -0.077344 0.028125 0.084749
v 0.031641 0.223023 0.084749
v -0.077344 0.028125 -0.084749
v 0.031641 0.223023 -0.084749
v -0.140625 0.000000 -0.084749
v -0.140625 0.028125 0.084749
v -0.140625 0.028125 -0.084749
v -0.140625 0.000000 0.084749
v 0.091406 0.028125 0.148310
v 0.091406 0.028125 -0.148310
v 0.091406 0.000000 0.148310
v 0.091406 0.000000 -0.148310
v -0.042187 0.223023 0.000000
v -0.042187 1.181250 0.000000
v 0.042187 0.223023 0.000000
v 0.042187 1.181250 0.000000
v -0.042187 0.702136 0.703125
v -0.042187 0.702137 -0.703125
v 0.042187 0.702137 -0.703125
v 0.042187 0.702136 0.703125
v 0.042187 0.223023 -0.703125
vn -1.0000 -0.0000 -0.0000
vn -0.0000 -0.0000 -1.0000
vn -0.0000 -0.0000 1.0000
vn -0.0000 -1.0000 -0.0000
vn -0.0000 1.0000 -0.0000
vn -0.8728 0.4881 -0.0000
vn 0.8728 -0.4881 -0.0000
vn 1.0000 -0.0000 -0.0000
vn -0.2642 -0.0000 -0.9645
vn -0.2642 -0.0000 0.9645
vt 1.000000 0.445887
vt 0.000000 0.000000
vt 1.000000 0.000000
vt 0.006579 0.497835
vt 0.230263 0.476190
vt 0.230263 0.497835
vt 0.006579 0.476190
vt 0.190789 0.476190
vt 0.013158 0.497835
vt 0.190789 0.497835
vt 0.625000 0.000000
vt 0.375000 0.250000
vt 0.375000 0.000000
vt 0.467105 0.073593
vt 0.526316 0.199134
vt 0.467105 0.220779
vt 0.375000 0.251082
vt 0.414474 0.199134
vt 0.414474 0.051948
vt 0.585526 0.173160
vt 0.375000 0.199134
vt 0.414474 0.173160
vt 0.625000 0.251082
vt 0.414474 0.025974
vt 0.585526 0.025974
vt 0.625000 0.199134
vt 0.013158 0.476190
vt 1.000000 0.549784
vt 0.000000 1.000000
vt 0.000000 0.549784
vt 0.000000 0.445887
vt 0.625000 0.250000
vt 0.526316 0.051948
vt 1.000000 1.000000
s 0
usemtl Material
f 3/1/1 2/2/1 1/3/1
f 4/4/2 28/5/2 27/6/2
f 6/7/3 26/6/3 29/5/3
f 24/8/4 1/9/4 22/10/4
f 23/8/5 6/9/5 25/10/5
f 8/11/6 16/12/6 15/13/6
f 9/14/2 12/15/2 16/16/2
f 13/11/7 10/17/7 12/13/7
f 10/14/3 8/18/3 15/19/3
f 16/20/1 17/21/1 15/22/1
f 15/23/5 19/13/5 16/17/5
f 17/23/4 21/13/4 20/11/4
f 18/24/8 21/11/8 19/25/8
f 16/20/9 21/11/9 14/26/9
f 17/21/10 18/24/10 15/22/10
f 4/27/5 25/10/5 7/9/5
f 30/27/4 22/10/4 2/9/4
f 29/5/3 1/4/3 5/7/3
f 27/6/2 30/7/2 2/4/2
f 30/28/8 6/29/8 5/30/8
f 3/1/1 4/31/1 2/2/1
f 4/4/2 7/7/2 28/5/2
f 6/7/3 3/4/3 26/6/3
f 24/8/4 5/27/4 1/9/4
f 23/8/5 3/27/5 6/9/5
f 8/11/6 9/32/6 16/12/6
f 9/14/2 13/33/2 12/15/2
f 13/11/7 11/23/7 10/17/7
f 10/14/3 11/16/3 8/18/3
f 16/20/1 14/26/1 17/21/1
f 15/23/5 18/11/5 19/13/5
f 17/23/4 14/17/4 21/13/4
f 18/24/8 20/13/8 21/11/8
f 16/20/9 19/25/9 21/11/9
f 17/21/10 20/13/10 18/24/10
f 4/27/5 23/8/5 25/10/5
f 30/27/4 24/8/4 22/10/4
f 29/5/3 26/6/3 1/4/3
f 27/6/2 28/5/2 30/7/2
f 30/28/8 7/34/8 6/29/8
