# Blender 4.2.0
# www.blender.org
mtllib NES01.mtl
o NES01
v 0.318265 0.086588 -0.281250
v 0.284066 0.000000 -0.281250
v 0.318265 0.086588 0.281250
v 0.284066 0.000000 0.281250
v -0.318265 0.086588 -0.281250
v -0.284066 0.000000 -0.281250
v -0.318265 0.086588 0.281250
v -0.284066 0.000000 0.281250
v 0.308914 0.208836 -0.281250
v 0.308914 0.208836 0.281250
v -0.308914 0.208836 -0.281250
v -0.308914 0.208836 0.281250
vn -0.9971 0.0763 -0.0000
vn -0.0000 -0.0000 1.0000
vn -0.9301 -0.3673 -0.0000
vn -0.0000 -1.0000 -0.0000
vn 0.9301 -0.3673 -0.0000
vn -0.0000 -0.0000 -1.0000
vn -0.0000 1.0000 -0.0000
vn 0.9971 0.0763 -0.0000
vt 1.000000 0.882353
vt 0.510417 1.000000
vt 0.500000 0.882353
vt 0.473958 0.764706
vt 0.000000 0.882353
vt 0.026042 0.764706
vt 0.531250 0.764706
vt 0.968750 0.764706
vt 0.505208 0.750000
vt 0.947917 0.235294
vt 0.947917 0.750000
vt 0.500000 0.117647
vt 0.031250 0.000000
vt 0.468750 0.000000
vt 0.000000 0.764706
vt 0.494792 0.235294
vt 0.494792 0.764706
vt 0.010417 0.235294
vt 0.000000 0.117647
vt 0.005208 1.000000
vt 0.989583 1.000000
vt 0.505208 0.235294
vt 0.000000 0.235294
vt 0.489583 0.235294
vt 0.494792 1.000000
s 0
usemtl Primary
f 7/1/1 11/2/1 5/3/1
f 4/4/2 7/5/2 8/6/2
f 7/1/3 6/7/3 8/8/3
f 2/9/4 8/10/4 6/11/4
f 1/1/5 4/7/5 2/8/5
f 5/12/6 2/13/6 6/14/6
f 11/15/7 10/16/7 9/17/7
f 1/1/8 10/2/8 3/3/8
f 5/12/6 9/18/6 1/19/6
f 3/3/2 12/20/2 7/5/2
f 7/1/1 12/21/1 11/2/1
f 4/4/2 3/3/2 7/5/2
f 7/1/3 5/3/3 6/7/3
f 2/9/4 4/22/4 8/10/4
f 1/1/5 3/3/5 4/7/5
f 5/12/6 1/19/6 2/13/6
f 11/15/7 12/23/7 10/16/7
f 1/1/8 9/21/8 10/2/8
f 5/12/6 11/24/6 9/18/6
f 3/3/2 10/25/2 12/20/2
