# Blender 4.2.0
# www.blender.org
mtllib PinballTable01.mtl
o PinballTable01
v -0.412500 0.787500 0.975000
v 0.412500 2.062500 -0.450000
v -0.412500 0.787500 -0.750000
v -0.412500 2.062500 -0.750000
v 0.412500 0.787500 0.975000
v -0.412500 2.062500 -0.450000
v 0.412500 0.787500 -0.750000
v 0.412500 2.062500 -0.750000
v -0.412500 1.312500 0.975000
v -0.412500 1.312500 -0.450000
v 0.412500 1.312500 -0.450000
v 0.412500 1.312500 0.975000
v -0.103611 1.134066 1.031250
v 0.103611 1.134066 1.031250
v -0.103611 1.265934 0.975000
v 0.103611 1.265934 0.975000
v -0.103611 1.134066 0.975000
v 0.103611 1.134066 0.975000
v 0.337500 1.231247 0.963750
v 0.337500 1.239684 1.031250
v 0.361574 1.213756 0.963750
v 0.369598 1.216364 1.031250
v 0.352378 1.185456 0.963750
v 0.357338 1.178630 1.031250
v 0.322622 1.185456 0.963750
v 0.317662 1.178630 1.031250
v 0.313426 1.213756 0.963750
v 0.305402 1.216364 1.031250
v -0.412500 1.134066 0.975000
v -0.412500 1.237500 -0.450000
v 0.412500 1.237500 -0.450000
v 0.412500 1.134066 0.975000
v 0.412500 0.937500 0.900000
v 0.461250 0.000000 0.978750
v 0.412500 0.937500 0.975000
v 0.461250 0.000000 1.057500
v 0.337500 0.937500 0.900000
v 0.382500 0.000000 0.978750
v 0.337500 0.937500 0.975000
v 0.382500 0.000000 1.057500
v -0.412500 0.937500 0.900000
v -0.461250 0.000000 0.978750
v -0.412500 0.937500 0.975000
v -0.461250 0.000000 1.057500
v -0.337500 0.937500 0.900000
v -0.382500 0.000000 0.978750
v -0.337500 0.937500 0.975000
v -0.382500 0.000000 1.057500
v 0.412500 0.937500 -0.675000
v 0.461250 0.000000 -0.753750
v 0.412500 0.937500 -0.750000
v 0.461250 0.000000 -0.832500
v 0.337500 0.937500 -0.675000
v 0.382500 0.000000 -0.753750
v 0.337500 0.937500 -0.750000
v 0.382500 0.000000 -0.832500
v -0.412500 0.937500 -0.675000
v -0.461250 0.000000 -0.753750
v -0.412500 0.937500 -0.750000
v -0.461250 0.000000 -0.832500
v -0.337500 0.937500 -0.675000
v -0.382500 0.000000 -0.753750
v -0.337500 0.937500 -0.750000
v -0.382500 0.000000 -0.832500
vn -0.0000 -1.0000 -0.0000
vn 1.0000 -0.0000 -0.0000
vn -0.0000 -0.0000 -1.0000
vn -1.0000 -0.0000 -0.0000
vn -0.0000 -0.0000 1.0000
vn -0.0000 1.0000 -0.0000
vn -0.0000 0.3924 0.9198
vn 0.5848 0.8049 -0.1006
vn 0.9462 -0.3074 -0.1006
vn -0.0000 -0.9949 -0.1006
vn -0.9462 -0.3074 -0.1006
vn -0.5848 0.8049 -0.1006
vn -0.0000 0.9974 0.0724
vn -0.0000 0.0877 0.9962
vn -0.9989 -0.0479 -0.0000
vn 0.9987 0.0519 -0.0000
vn -0.0000 -0.0837 -0.9965
vn 0.9988 -0.0479 -0.0000
vn -0.9987 0.0519 -0.0000
vn -0.0000 0.0877 -0.9962
vn -0.0000 -0.0837 0.9965
vt 0.044355 0.765625
vt 0.258065 0.906250
vt 0.258065 0.765625
vt 0.229839 0.906250
vt 0.358871 0.765625
vt 0.500000 0.140625
vt 0.241935 0.468750
vt 0.241935 0.140625
vt 0.500000 0.468750
vt 0.000000 0.734375
vt 0.500000 0.734375
vt 0.548387 0.265625
vt 0.802419 0.000000
vt 0.548387 0.000000
vt 0.411290 1.000000
vt 0.282258 0.468750
vt 0.282258 0.734375
vt -0.000000 0.000000
vt -0.000000 0.468750
vt 0.717742 0.234375
vt 0.641129 0.179688
vt 0.717742 0.179688
vt 0.717742 0.132812
vt 0.641129 0.132812
vt 0.693548 0.179688
vt 0.665323 0.179688
vt 0.657258 0.156250
vt 0.657258 0.179688
vt 0.665323 0.156250
vt 0.673387 0.179688
vt 0.673387 0.156250
vt 0.681452 0.179688
vt 0.697581 0.140625
vt 0.705645 0.164062
vt 0.697581 0.156250
vt 0.689516 0.156250
vt 0.689516 0.179688
vt 0.697581 0.179688
vt 0.705645 0.132812
vt 0.709677 0.148438
vt 1.000000 1.000000
vt 0.500000 0.265625
vt 1.000000 0.265625
vt 0.241935 0.109375
vt 0.278226 0.109375
vt 0.294355 0.140625
vt 0.278226 0.140625
vt 0.241935 0.117188
vt 0.500000 0.117188
vt 0.500000 0.109375
vt 0.044355 0.906250
vt 0.802419 0.265625
vt 0.000000 1.000000
vt 0.241935 0.000000
vt 0.641129 0.234375
vt 0.681452 0.156250
vt 0.500000 1.000000
vt 0.294355 0.109375
s 0
usemtl Primary
f 8/1/1 6/2/1 4/3/1
f 8/1/2 11/4/2 7/5/2
f 6/6/3 11/7/3 10/8/3
f 7/9/1 1/10/1 3/11/1
f 10/4/4 4/1/4 3/5/4
f 12/12/5 1/13/5 5/14/5
f 11/15/2 5/10/2 7/11/2
f 1/10/4 10/15/4 3/11/4
f 3/16/3 8/11/3 7/17/3
f 16/20/7 13/21/7 14/22/7
f 13/23/1 18/21/1 14/24/1
f 14/24/2 18/21/2 16/25/2
f 15/26/4 17/22/4 13/23/4
f 20/27/8 21/26/8 19/28/8
f 22/29/9 23/30/9 21/26/9
f 24/31/10 25/32/10 23/30/10
f 22/33/5 26/34/5 24/35/5
f 25/32/11 28/36/11 27/37/11
f 28/36/12 19/38/12 27/37/12
f 20/39/5 28/40/5 22/33/5
f 32/41/13 30/42/13 29/43/13
f 35/6/14 40/44/14 36/8/14
f 39/6/15 38/44/15 40/8/15
f 34/45/1 40/46/1 38/47/1
f 34/48/16 35/6/16 36/8/16
f 38/44/17 33/6/17 34/8/17
f 48/44/14 43/6/14 44/8/14
f 46/44/18 47/6/18 48/8/18
f 48/46/1 42/45/1 46/47/1
f 42/48/19 43/6/19 41/49/19
f 46/44/17 41/6/17 45/50/17
f 56/44/20 51/6/20 52/8/20
f 54/44/15 55/6/15 56/8/15
f 56/46/1 50/45/1 54/47/1
f 50/48/16 51/6/16 49/49/16
f 54/44/21 49/6/21 53/50/21
f 59/6/20 64/44/20 60/8/20
f 63/6/18 62/44/18 64/8/18
f 58/45/1 64/46/1 62/47/1
f 58/48/19 59/6/19 60/8/19
f 62/44/21 57/6/21 58/8/21
f 8/1/1 2/51/1 6/2/1
f 8/1/2 2/51/2 11/4/2
f 6/6/3 2/9/3 11/7/3
f 7/9/1 5/19/1 1/10/1
f 10/4/4 6/51/4 4/1/4
f 12/12/5 9/52/5 1/13/5
f 11/15/2 12/53/2 5/10/2
f 1/10/4 9/53/4 10/15/4
f 3/16/3 4/9/3 8/11/3
f 16/20/7 15/55/7 13/21/7
f 13/23/1 17/22/1 18/21/1
f 20/27/8 22/29/8 21/26/8
f 22/29/9 24/31/9 23/30/9
f 24/31/10 26/56/10 25/32/10
f 22/33/5 28/40/5 26/34/5
f 25/32/11 26/56/11 28/36/11
f 28/36/12 20/35/12 19/38/12
f 32/41/13 31/57/13 30/42/13
f 35/6/14 39/50/14 40/44/14
f 39/6/15 37/50/15 38/44/15
f 34/45/1 36/58/1 40/46/1
f 34/48/16 33/49/16 35/6/16
f 38/44/17 37/50/17 33/6/17
f 48/44/14 47/50/14 43/6/14
f 46/44/18 45/50/18 47/6/18
f 48/46/1 44/58/1 42/45/1
f 42/48/19 44/8/19 43/6/19
f 46/44/17 42/8/17 41/6/17
f 56/44/20 55/50/20 51/6/20
f 54/44/15 53/50/15 55/6/15
f 56/46/1 52/58/1 50/45/1
f 50/48/16 52/8/16 51/6/16
f 54/44/21 50/8/21 49/6/21
f 59/6/20 63/50/20 64/44/20
f 63/6/18 61/50/18 62/44/18
f 58/45/1 60/58/1 64/46/1
f 58/48/19 57/49/19 59/6/19
f 62/44/21 61/50/21 57/6/21
usemtl Secondary
f 12/18/6 10/7/6 9/19/6
f 12/18/6 11/54/6 10/7/6
