# Blender 4.2.0
# www.blender.org
mtllib PSX01.mtl
o PSX01
v 0.223125 0.151381 -0.328125
v 0.223125 0.000000 -0.328125
v 0.223125 0.151381 0.328125
v 0.223125 0.000000 0.328125
v -0.223125 0.151381 -0.328125
v -0.223125 0.000000 -0.328125
v -0.223125 0.151381 0.328125
v -0.223125 0.000000 0.328125
v 0.000000 0.151381 -0.209752
v 0.000000 0.171381 -0.209752
v 0.104876 0.151381 -0.181651
v 0.104876 0.171381 -0.181651
v 0.181651 0.151381 -0.104876
v 0.181651 0.171381 -0.104876
v 0.209752 0.151381 0.000000
v 0.209752 0.171381 0.000000
v 0.181651 0.151381 0.104876
v 0.181651 0.171381 0.104876
v 0.104876 0.151381 0.181651
v 0.104876 0.171381 0.181651
v 0.000000 0.151381 0.209752
v 0.000000 0.171381 0.209752
v -0.104876 0.151381 0.181651
v -0.104876 0.171381 0.181651
v -0.181651 0.151381 0.104876
v -0.181651 0.171381 0.104876
v -0.209752 0.151381 0.000000
v -0.209752 0.171381 0.000000
v -0.181651 0.151381 -0.104876
v -0.181651 0.171381 -0.104876
v -0.104876 0.151381 -0.181651
v -0.104876 0.171381 -0.181651
vn -0.0000 1.0000 -0.0000
vn -0.0000 -0.0000 1.0000
vn -1.0000 -0.0000 -0.0000
vn -0.0000 -1.0000 -0.0000
vn 1.0000 -0.0000 -0.0000
vn -0.0000 -0.0000 -1.0000
vn 0.2588 -0.0000 -0.9659
vn 0.7071 -0.0000 -0.7071
vn 0.9659 -0.0000 -0.2588
vn 0.9659 -0.0000 0.2588
vn 0.7071 -0.0000 0.7071
vn 0.2588 -0.0000 0.9659
vn -0.2588 -0.0000 0.9659
vn -0.7071 -0.0000 0.7071
vn -0.9659 -0.0000 0.2588
vn -0.9659 -0.0000 -0.2588
vn -0.7071 -0.0000 -0.7071
vn -0.2588 -0.0000 -0.9659
vt 0.000000 1.000000
vt 0.500000 0.500000
vt 0.500000 1.000000
vt -0.000000 0.380435
vt 0.710938 0.500000
vt -0.000000 0.500000
vt 1.000000 0.260870
vt -0.000000 0.141304
vt 1.000000 0.141304
vt 1.000000 0.500000
vt 1.000000 1.000000
vt 1.000000 0.380435
vt 0.000000 0.260870
vt 0.710938 0.380435
vt 0.281250 0.362319
vt 0.343750 0.376812
vt 0.281250 0.376812
vt 0.343750 0.362319
vt 0.406250 0.376812
vt 0.406250 0.362319
vt 0.468750 0.376812
vt 0.468750 0.362319
vt 0.531250 0.376812
vt 0.531250 0.362319
vt 0.593750 0.376812
vt 0.593750 0.362319
vt 0.656250 0.376812
vt 0.656250 0.362319
vt 0.718750 0.376812
vt 0.718750 0.362319
vt 0.781250 0.376812
vt 0.781250 0.362319
vt 0.843750 0.376812
vt 0.093750 0.362319
vt 0.156250 0.376812
vt 0.093750 0.376812
vt 0.479167 0.753623
vt 0.364583 0.615942
vt 0.437500 0.666667
vt 0.156250 0.362319
vt 0.218750 0.376812
vt 0.218750 0.362319
vt 0.239583 0.920290
vt 0.437500 0.840580
vt 0.364583 0.891304
vt -0.000000 0.753623
vt 0.114583 0.891304
vt 0.041667 0.840580
vt 0.239583 0.586957
vt 0.041667 0.666667
vt 0.114583 0.615942
vt 0.843750 0.362319
s 0
usemtl Primary
f 5/1/1 3/2/1 1/3/1
f 3/4/2 8/5/2 4/6/2
f 7/7/3 6/8/3 8/9/3
f 2/3/4 8/10/4 6/11/4
f 1/12/5 4/13/5 2/7/5
f 5/5/6 2/4/6 6/14/6
f 10/15/7 11/16/7 9/17/7
f 12/18/8 13/19/8 11/16/8
f 14/20/9 15/21/9 13/19/9
f 16/22/10 17/23/10 15/21/10
f 18/24/11 19/25/11 17/23/11
f 20/26/12 21/27/12 19/25/12
f 22/28/13 23/29/13 21/27/13
f 24/30/14 25/31/14 23/29/14
f 26/32/15 27/33/15 25/31/15
f 28/34/16 29/35/16 27/36/16
f 16/37/1 20/38/1 18/39/1
f 30/40/17 31/41/17 29/35/17
f 32/42/18 9/17/18 31/41/18
f 10/43/1 14/44/1 12/45/1
f 28/46/1 32/47/1 30/48/1
f 22/49/1 26/50/1 24/51/1
f 10/43/1 22/49/1 16/37/1
f 5/1/1 7/6/1 3/2/1
f 3/4/2 7/14/2 8/5/2
f 7/7/3 5/13/3 6/8/3
f 2/3/4 4/2/4 8/10/4
f 1/12/5 3/4/5 4/13/5
f 5/5/6 1/6/6 2/4/6
f 10/15/7 12/18/7 11/16/7
f 12/18/8 14/20/8 13/19/8
f 14/20/9 16/22/9 15/21/9
f 16/22/10 18/24/10 17/23/10
f 18/24/11 20/26/11 19/25/11
f 20/26/12 22/28/12 21/27/12
f 22/28/13 24/30/13 23/29/13
f 24/30/14 26/32/14 25/31/14
f 26/32/15 28/52/15 27/33/15
f 28/34/16 30/40/16 29/35/16
f 16/37/1 22/49/1 20/38/1
f 30/40/17 32/42/17 31/41/17
f 32/42/18 10/15/18 9/17/18
f 10/43/1 16/37/1 14/44/1
f 28/46/1 10/43/1 32/47/1
f 22/49/1 28/46/1 26/50/1
f 10/43/1 28/46/1 22/49/1
