# Blender 4.2.0
# www.blender.org
mtllib PSXGame01c.mtl
o PSXGame01
v 0.209067 0.147000 -0.178730
v 0.209067 0.093000 -0.178730
v 0.209067 0.147000 0.178730
v 0.209067 0.093000 0.178730
v -0.209067 0.147000 -0.178730
v -0.209067 0.093000 -0.178730
v -0.209067 0.147000 0.178730
v -0.209067 0.093000 0.178730
vn -0.0000 1.0000 -0.0000
vn -0.0000 -0.0000 1.0000
vn -1.0000 -0.0000 -0.0000
vn -0.0000 -1.0000 -0.0000
vn 1.0000 -0.0000 -0.0000
vn -0.0000 -0.0000 -1.0000
vt 0.000000 0.318182
vt 0.500000 0.000000
vt 0.500000 0.318182
vt 0.500000 0.636364
vt 1.000000 0.681818
vt 0.500000 0.681818
vt 0.000000 0.636364
vt 0.000000 0.681818
vt 1.000000 0.000000
vt 0.562500 0.636364
vt 0.562500 0.681818
vt 1.000000 0.636364
vt 0.000000 0.000000
vt 1.000000 0.318182
s 0
usemtl Game01
f 5/1/1 3/2/1 1/3/1
f 3/4/2 8/5/2 4/6/2
f 7/7/3 6/6/3 8/8/3
f 2/9/4 8/3/4 6/2/4
f 1/10/5 4/5/5 2/11/5
f 5/12/6 2/6/6 6/5/6
f 5/1/1 7/13/1 3/2/1
f 3/4/2 7/12/2 8/5/2
f 7/7/3 5/4/3 6/6/3
f 2/9/4 4/14/4 8/3/4
f 1/10/5 3/12/5 4/5/5
f 5/12/6 1/4/6 2/6/6
