# Blender 4.2.0
# www.blender.org
mtllib Television01a.mtl
o Television01a
v 1.000000 1.250000 -0.005000
v 1.000000 0.000000 -0.005000
v 1.000000 1.250000 0.067500
v 1.000000 0.000000 0.067500
v -1.000000 1.250000 -0.005000
v -1.000000 0.000000 -0.005000
v -1.000000 1.250000 0.067500
v -1.000000 0.000000 0.067500
v 0.820989 1.092542 -0.005000
v 0.820989 0.079979 -0.005000
v -0.820989 1.092542 -0.005000
v -0.820989 0.079979 -0.005000
v 0.693034 0.999602 -0.064249
v 0.693034 0.154687 -0.064249
v -0.693034 0.999602 -0.064249
v -0.693034 0.154687 -0.064249
vn -0.0000 1.0000 -0.0000
vn -0.0000 -0.0000 1.0000
vn -1.0000 -0.0000 -0.0000
vn -0.0000 -1.0000 -0.0000
vn 1.0000 -0.0000 -0.0000
vn -0.0000 -0.0000 -1.0000
vn -0.0000 0.5376 -0.8432
vn 0.4202 -0.0000 -0.9074
vn -0.4202 -0.0000 -0.9074
vn -0.0000 -0.6214 -0.7835
vt 0.941176 0.531250
vt -0.000000 0.506250
vt -0.000000 0.531250
vt 0.941176 1.000000
vt 0.000000 0.500000
vt 0.941176 0.500000
vt 0.933824 1.000000
vt 0.904412 0.500000
vt 0.933824 0.500000
vt 0.000000 1.000000
vt 0.941176 0.975000
vt 0.029412 0.500000
vt 0.926471 0.500000
vt -0.000000 0.000000
vt 0.926471 -0.000000
vt 0.375000 0.500000
vt 0.625000 0.250000
vt 0.375000 0.250000
vt 0.764706 0.425000
vt 0.169118 0.075000
vt 0.764706 0.075000
vt 0.110294 0.468750
vt 0.816176 0.468750
vt 0.110294 0.031250
vt 0.169118 0.425000
vt 0.816176 0.031250
vt 0.941176 0.506250
vt 0.904412 1.000000
vt 0.000000 0.975000
vt 0.029412 1.000000
vt 0.625000 0.500000
s 0
usemtl Primary
f 5/1/1 3/2/1 1/3/1
f 3/4/2 8/5/2 4/6/2
f 7/7/3 6/8/3 8/9/3
f 2/10/4 8/11/4 6/4/4
f 1/10/5 4/12/5 2/5/5
f 5/13/6 2/14/6 6/15/6
f 10/16/2 11/17/2 12/18/2
f 15/19/6 14/20/6 16/21/6
f 9/22/7 15/19/7 11/23/7
f 10/24/8 13/25/8 9/22/8
f 12/26/9 15/19/9 16/21/9
f 12/26/10 14/20/10 10/24/10
f 5/1/1 7/27/1 3/2/1
f 3/4/2 7/10/2 8/5/2
f 7/7/3 5/28/3 6/8/3
f 2/10/4 4/29/4 8/11/4
f 1/10/5 3/30/5 4/12/5
f 5/13/6 1/5/6 2/14/6
f 10/16/2 9/31/2 11/17/2
f 15/19/6 13/25/6 14/20/6
f 9/22/7 13/25/7 15/19/7
f 10/24/8 14/20/8 13/25/8
f 12/26/9 11/23/9 15/19/9
f 12/26/10 16/21/10 14/20/10
