# Blender 4.2.0
# www.blender.org
mtllib Television02.mtl
o Television02
v -0.400000 0.900000 0.308333
v -0.400000 0.280406 0.308333
v -0.400000 0.000000 -0.141667
v 0.400000 0.900000 -0.141667
v 0.400000 0.900000 0.308333
v 0.400000 0.280406 0.308333
v -0.400000 0.900000 -0.141667
v 0.400000 0.000000 -0.141667
v 0.500000 0.000000 -0.141667
v 0.500000 1.000000 -0.141667
v -0.500000 0.000000 -0.141667
v -0.300000 0.050000 -0.441667
v 0.300000 0.800000 -0.441667
v -0.300000 0.800000 -0.441667
v 0.300000 0.050000 -0.441667
v -0.500000 0.000000 0.308333
v 0.500000 0.000000 0.308333
v 0.500000 1.000000 0.308333
v 0.360000 0.320406 0.258333
v -0.360000 0.860000 0.258333
v -0.360000 0.320406 0.258333
v -0.500000 1.000000 -0.141667
v -0.500000 1.000000 0.308333
v 0.360000 0.860000 0.258333
v 0.000000 0.320406 0.258333
v 0.000000 0.860000 0.258333
v 0.000000 0.590203 0.283333
v 0.360000 0.590203 0.258333
v -0.360000 0.590203 0.258333
vn 1.0000 -0.0000 -0.0000
vn -0.0000 1.0000 -0.0000
vn 0.9487 -0.0000 -0.3162
vn -0.0000 -0.7809 0.6247
vn -1.0000 -0.0000 -0.0000
vn -0.0000 -1.0000 -0.0000
vn -0.0000 -0.9864 -0.1644
vn -0.0000 0.9487 -0.3162
vn -0.9487 -0.0000 -0.3162
vn -0.0000 -0.0000 1.0000
vn 0.7809 -0.0000 0.6247
vn -0.7809 -0.0000 0.6247
vn -0.0000 -0.7809 -0.6247
vn -0.0000 -0.0000 -1.0000
vn -0.0690 0.0920 0.9934
vn -0.0690 -0.0920 -0.9934
vn -0.0690 0.0920 -0.9934
vn -0.0690 -0.0920 0.9934
vt 0.821429 1.000000
vt 0.571429 0.500000
vt 0.821429 0.500000
vt 0.125000 0.675000
vt 0.375000 0.675000
vt 0.821429 0.554688
vt 1.000000 0.914062
vt 0.821429 0.960938
vt 0.026786 0.968750
vt 0.517857 0.929688
vt 0.544643 0.968750
vt 0.571429 1.000000
vt 1.000000 0.601562
vt 0.026786 0.640625
vt 0.544643 0.640625
vt 0.000000 1.000000
vt 0.000000 0.500000
vt 0.080357 0.929687
vt 0.491071 0.664062
vt 0.053571 0.929688
vt 0.553571 0.406250
vt 0.026786 0.031250
vt 0.553571 0.031250
vt -0.026786 -0.000000
vt 0.598214 0.539062
vt -0.026786 0.539062
vt 0.285714 0.929687
vt 0.080357 0.789062
vt 0.285714 0.789062
vt 0.285714 0.648438
vt 0.080357 0.648438
vt 0.080357 0.664062
vt 0.491071 0.929687
vt 0.026786 0.406250
vt 0.598214 -0.000000
s 0
usemtl Primary
f 10/1/1 17/2/1 9/3/1
f 9/4/2 3/5/2 8/4/2
f 8/6/3 13/7/3 4/8/3
f 1/9/4 24/10/4 5/11/4
f 23/1/5 11/2/5 16/3/5
f 16/2/6 9/1/6 17/12/6
f 23/2/6 10/1/6 18/12/6
f 8/8/7 12/13/7 15/7/7
f 4/6/8 14/7/8 7/8/8
f 3/6/9 14/7/9 12/13/9
f 2/14/10 17/2/10 6/15/10
f 2/14/10 23/16/10 16/17/10
f 6/15/10 18/12/10 5/11/10
f 5/11/10 23/16/10 1/9/10
f 2/14/11 20/18/11 1/9/11
f 5/11/12 19/19/12 6/15/12
f 6/11/13 21/20/13 19/10/13
f 14/21/14 15/22/14 12/23/14
f 9/24/14 22/25/14 10/26/14
f 26/27/15 29/28/15 27/29/15
f 26/27/16 28/28/16 27/29/16
f 25/30/14 28/28/14 19/31/14
f 25/30/10 29/28/10 21/31/10
f 10/1/1 18/12/1 17/2/1
f 9/4/6 11/5/6 3/5/6
f 8/6/3 15/13/3 13/7/3
f 1/9/4 20/20/4 24/10/4
f 23/1/5 22/12/5 11/2/5
f 16/2/6 11/3/6 9/1/6
f 23/2/6 22/3/6 10/1/6
f 8/8/7 3/6/7 12/13/7
f 4/6/8 13/13/8 14/7/8
f 3/6/9 7/8/9 14/7/9
f 2/14/10 16/17/10 17/2/10
f 2/14/10 1/9/10 23/16/10
f 6/15/10 17/2/10 18/12/10
f 5/11/10 18/12/10 23/16/10
f 2/14/11 21/32/11 20/18/11
f 5/11/12 24/33/12 19/19/12
f 6/11/13 2/9/13 21/20/13
f 14/21/14 13/34/14 15/22/14
f 9/24/14 11/35/14 22/25/14
f 26/27/10 20/18/10 29/28/10
f 26/27/14 24/18/14 28/28/14
f 25/30/17 27/29/17 28/28/17
f 25/30/18 27/29/18 29/28/18
