# Blender 4.2.0
# www.blender.org
mtllib VendingMachineCigarettes01.mtl
o VendingMachineCigarettes01
v 0.834622 2.768758 -0.260769
v 0.834622 0.695088 -0.260769
v 0.834622 2.768758 0.260769
v 0.834622 0.695088 0.260769
v -0.834622 2.768758 -0.260769
v -0.834622 0.695088 -0.260769
v -0.834622 2.768758 0.260769
v -0.834622 0.695088 0.260769
v 0.080332 2.537974 -0.382678
v 0.080332 2.537974 -0.260769
v -0.080332 2.537974 -0.382678
v -0.080332 2.537974 -0.260769
v 0.080332 -0.225000 -0.382678
v 0.080332 -0.225000 -0.260769
v -0.080332 -0.225000 -0.382678
v -0.080332 -0.225000 -0.260769
vn -0.0000 1.0000 -0.0000
vn -0.0000 -0.0000 1.0000
vn -1.0000 -0.0000 -0.0000
vn -0.0000 -1.0000 -0.0000
vn 1.0000 -0.0000 -0.0000
vn -0.0000 -0.0000 -1.0000
vt 0.871795 1.000000
vt 1.000000 0.312500
vt 0.871795 0.312500
vt 0.358974 1.000000
vt 0.000000 0.250000
vt 0.358974 0.250000
vt 0.717949 0.322917
vt 0.871795 0.322917
vt 1.000000 1.000000
vt 0.717949 1.000000
vt 0.717949 0.250000
vt 0.743590 0.916667
vt 0.717949 0.000000
vt 0.717949 0.916667
vt 0.743590 0.000000
vt 0.519231 0.916667
vt 0.557692 0.000000
vt 0.557692 0.916667
vt 0.519231 0.000000
vt 0.551282 0.156250
vt 0.525641 0.218750
vt 0.525641 0.156250
vt 0.000070 0.999930
vt 0.551282 0.218750
s 0
usemtl Primary
f 5/1/1 3/2/1 1/3/1
f 3/4/2 8/5/2 4/6/2
f 7/1/3 6/7/3 8/8/3
f 2/3/4 8/9/4 6/1/4
f 1/10/5 4/8/5 2/7/5
f 5/4/6 2/11/6 6/6/6
f 11/12/3 16/13/3 12/14/3
f 10/14/5 13/15/5 9/12/5
f 9/16/6 15/17/6 11/18/6
f 12/17/2 14/16/2 10/19/2
f 12/20/1 9/21/1 11/22/1
f 5/1/1 7/9/1 3/2/1
f 3/4/2 7/23/2 8/5/2
f 7/1/3 5/10/3 6/7/3
f 2/3/4 4/2/4 8/9/4
f 1/10/5 3/1/5 4/8/5
f 5/4/6 1/10/6 2/11/6
f 11/12/3 15/15/3 16/13/3
f 10/14/5 14/13/5 13/15/5
f 9/16/6 13/19/6 15/17/6
f 12/17/2 16/18/2 14/16/2
f 12/20/1 10/24/1 9/21/1
