# Blender 4.2.0
# www.blender.org
mtllib Barricade02.mtl
o Barricade02
v 0.059469 0.080549 0.029733
v 0.059469 0.140014 0.029733
v 0.059469 0.080549 -0.029733
v 0.059469 0.140014 -0.029733
v 2.440531 0.080549 0.029733
v 2.440531 0.140014 0.029733
v 2.440531 0.080549 -0.029733
v 2.440531 0.140014 -0.029733
v 0.059469 0.273316 0.029733
v 0.059469 0.332781 0.029733
v 0.059469 0.273316 -0.029733
v 0.059469 0.332781 -0.029733
v 2.440531 0.273316 0.029733
v 2.440531 0.332781 0.029733
v 2.440531 0.273316 -0.029733
v 2.440531 0.332781 -0.029733
v 0.059469 0.840816 0.029733
v 0.059469 0.900282 0.029733
v 0.059469 0.840816 -0.029733
v 0.059469 0.900282 -0.029733
v 2.440531 0.840816 0.029733
v 2.440531 0.900282 0.029733
v 2.440531 0.840816 -0.029733
v 2.440531 0.900282 -0.029733
v 0.059469 1.228032 0.029733
v 0.059469 1.287498 0.029733
v 0.059469 1.228032 -0.029733
v 2.440531 1.228032 0.029733
v 2.440531 1.287498 0.029733
v 2.440531 1.228032 -0.029733
v 1.220267 1.368049 0.029733
v 1.220267 1.368049 -0.029733
v 1.220267 1.287498 0.029733
v 1.279733 1.287498 0.029733
v 1.220267 1.287498 -0.029733
v 1.279733 1.287498 -0.029733
v 1.740267 1.368049 0.029733
v 1.740267 1.368049 -0.029733
v 1.279733 1.368049 0.029733
v 1.279733 1.368049 -0.029733
v 0.700267 1.368049 -0.029733
v 1.799733 1.287498 -0.029733
v 1.740267 1.287498 -0.029733
v 1.799733 1.287498 0.029733
v 1.740267 1.287498 0.029733
v 2.260267 1.368049 0.029733
v 2.319733 1.368049 0.029733
v 2.260267 1.368049 -0.029733
v 2.319733 1.368049 -0.029733
v 2.260267 1.287498 0.029733
v 2.319733 1.287498 0.029733
v 2.260267 1.287498 -0.029733
v 2.319733 1.287498 -0.029733
v 0.180267 1.368049 0.029733
v 0.239733 1.368049 0.029733
v 0.180267 1.368049 -0.029733
v 1.799733 1.368049 -0.029733
v 1.799733 1.368049 0.029733
v 2.499999 1.287498 0.029733
v 2.440531 1.287498 -0.029733
v 2.499999 1.287498 -0.029733
v 2.440531 -0.000002 0.029733
v 2.499999 -0.000002 0.029733
v 2.440531 -0.000002 -0.029733
v 2.499999 -0.000002 -0.029733
v 0.000001 1.287498 0.029733
v 0.000001 1.287498 -0.029733
v 0.059469 1.287498 -0.029733
v 0.000001 -0.000002 0.029733
v 0.059469 -0.000002 0.029733
v 0.000001 -0.000002 -0.029733
v 0.059469 -0.000002 -0.029733
v 0.059469 0.140014 0.000000
v 2.440531 0.140014 0.000000
v 0.059469 1.228032 0.000000
v 2.440531 1.228032 0.000000
v 0.700267 1.287498 0.029733
v 0.759733 1.287498 0.029733
v 0.700267 1.287498 -0.029733
v 0.759733 1.287498 -0.029733
v 0.700267 1.368049 0.029733
v 0.759733 1.368049 0.029733
v 0.759733 1.368049 -0.029733
v 0.180267 1.287498 0.029733
v 0.239733 1.287498 0.029733
v 0.180267 1.287498 -0.029733
v 0.239733 1.287498 -0.029733
v 0.239733 1.368049 -0.029733
v 2.373528 1.228032 -0.029733
v 2.373528 1.228032 0.029733
v 2.351193 1.287498 0.029733
v 2.351193 1.287498 -0.029733
v 2.395862 1.287498 -0.029733
v 2.395862 1.287498 0.029733
v 0.126470 1.228032 -0.029733
v 0.126470 1.228032 0.029733
v 0.104135 1.287498 0.029733
v 0.104135 1.287498 -0.029733
v 0.148804 1.287498 -0.029733
v 0.148804 1.287498 0.029733
v 0.000001 1.287498 0.029733
v 0.000001 1.287498 -0.029733
v 2.499999 1.287498 -0.029733
v 2.499999 1.287498 0.029733
v 0.059469 1.228032 -0.029733
v 0.059469 1.228032 0.029733
v 0.059469 1.287498 0.029733
v 0.059469 1.287498 -0.029733
vn -0.0000 -0.0000 -1.0000
vn -0.0000 -0.0000 1.0000
vn -0.0000 -1.0000 -0.0000
vn -0.0000 1.0000 -0.0000
vn 1.0000 -0.0000 -0.0000
vn -1.0000 -0.0000 -0.0000
vn 0.9361 0.3516 -0.0000
vn -0.9361 0.3516 -0.0000
vt 1.000000 0.000000
vt 0.000000 0.046875
vt 1.000000 0.046875
vt 0.000000 0.000000
vt 1.000000 0.195312
vt 0.000000 0.148438
vt 1.000000 0.148438
vt 0.000000 0.195312
vt 1.000000 0.632812
vt 0.000000 0.585938
vt 1.000000 0.585938
vt 0.000000 0.632812
vt 0.000000 0.156250
vt 1.000000 0.203125
vt 1.000000 0.156250
vt 0.028226 0.023438
vt 0.004032 0.054688
vt 0.004032 0.015625
vt 0.983871 0.046875
vt 0.024194 0.890625
vt 0.024194 0.046875
vt 1.000000 0.890625
vt 0.981240 0.937500
vt 0.749863 0.890625
vt 0.286290 1.000000
vt 0.310484 0.953125
vt 0.310484 1.000000
vt 0.310484 0.937500
vt 0.286290 0.937500
vt 0.915323 0.578125
vt 0.092742 0.625000
vt 0.092742 0.578125
vt 0.000000 0.960938
vt 0.023898 0.000062
vt 0.024194 0.960938
vt -0.000000 0.109375
vt 0.032258 0.046875
vt 0.032258 0.109375
vt 0.024194 0.000000
vt 0.000031 0.000031
vt 0.023929 0.000031
vt 0.004032 0.960938
vt 1.000000 1.000000
vt 0.983871 0.000000
vt 0.983871 1.000000
vt 0.499727 0.890625
vt 0.000000 0.937500
vt 0.000000 0.890625
vt 0.036290 0.578125
vt -0.000000 0.625000
vt -0.000000 0.578125
vt 0.963710 0.625000
vt 1.000000 0.578125
vt 1.000000 0.625000
vt 0.915323 0.625000
vt 0.939516 0.578125
vt 0.939516 0.625000
vt 0.963710 0.578125
vt 0.036290 0.625000
vt 0.060484 0.578125
vt 0.060484 0.625000
vt 0.028226 0.054688
vt 0.028226 0.953125
vt 0.000000 0.203125
vt 0.983871 0.890625
vt 1.000000 0.937500
vt 0.286290 0.953125
vt 0.000062 0.000062
vt 0.023868 0.000031
vt 0.962480 0.937500
s 0
usemtl Primary
f 4/1/1 7/2/1 3/3/1
f 6/4/2 1/3/2 5/2/2
f 7/1/3 1/2/3 3/4/3
f 4/4/4 6/3/4 8/1/4
f 12/5/1 15/6/1 11/7/1
f 14/8/2 9/7/2 13/6/2
f 15/7/3 9/8/3 11/6/3
f 12/6/4 14/5/4 16/7/4
f 20/9/1 23/10/1 19/11/1
f 22/10/2 17/9/2 21/12/2
f 23/7/3 17/8/3 19/6/3
f 20/13/4 22/14/4 24/15/4
f 93/16/1 30/17/1 89/18/1
f 74/19/2 75/20/2 73/21/2
f 30/22/3 90/23/3 89/24/3
f 82/25/4 41/26/4 81/27/4
f 83/25/5 78/28/5 80/29/5
f 79/27/6 81/29/6 41/28/6
f 78/29/2 81/27/2 77/28/2
f 41/27/1 80/29/1 79/28/1
f 55/25/4 56/26/4 54/27/4
f 56/27/1 87/29/1 86/28/1
f 85/29/2 54/27/2 84/28/2
f 86/27/6 54/29/6 56/28/6
f 88/25/5 85/28/5 87/29/5
f 39/25/4 32/26/4 31/27/4
f 32/27/1 36/29/1 35/28/1
f 34/29/2 31/27/2 33/28/2
f 35/27/6 31/29/6 32/28/6
f 40/25/5 34/28/5 36/29/5
f 47/25/4 48/26/4 46/27/4
f 49/25/1 52/28/1 48/27/1
f 51/29/2 46/27/2 50/28/2
f 52/27/6 46/29/6 48/28/6
f 49/25/5 51/28/5 53/29/5
f 58/25/4 38/26/4 37/27/4
f 57/25/5 44/28/5 42/29/5
f 43/27/6 37/29/6 38/28/6
f 44/29/2 37/27/2 45/28/2
f 38/27/1 42/29/1 43/28/1
f 91/30/4 99/31/4 100/32/4
f 61/33/1 64/34/1 60/35/1
f 65/36/3 62/37/3 64/38/3
f 63/39/2 29/33/2 62/4/2
f 64/40/6 29/35/6 60/33/6
f 61/33/5 63/41/5 65/4/5
f 91/16/2 96/42/2 90/18/2
f 67/43/1 72/44/1 71/1/1
f 72/37/3 69/36/3 71/38/3
f 70/1/2 66/45/2 69/44/2
f 71/44/6 66/43/6 67/45/6
f 68/43/5 70/44/5 72/1/5
f 89/46/3 25/47/3 27/48/3
f 97/49/4 102/50/4 101/51/4
f 28/17/2 94/16/2 90/18/2
f 93/52/4 104/53/4 103/54/4
f 92/55/7 90/56/7 89/57/7
f 94/58/8 89/57/8 90/56/8
f 98/59/7 96/60/7 95/61/7
f 100/32/8 95/61/8 96/60/8
f 98/16/1 105/17/1 108/62/1
f 97/16/2 106/17/2 96/18/2
f 89/18/1 99/63/1 92/16/1
f 4/1/1 8/4/1 7/2/1
f 6/4/2 2/1/2 1/3/2
f 7/1/3 5/3/3 1/2/3
f 4/4/4 2/2/4 6/3/4
f 12/5/1 16/8/1 15/6/1
f 14/8/2 10/5/2 9/7/2
f 15/7/3 13/5/3 9/8/3
f 12/6/4 10/8/4 14/5/4
f 20/9/1 24/12/1 23/10/1
f 22/10/2 18/11/2 17/9/2
f 23/7/3 21/5/3 17/8/3
f 20/13/4 18/64/4 22/14/4
f 93/16/1 60/62/1 30/17/1
f 74/19/2 76/65/2 75/20/2
f 30/22/3 28/66/3 90/23/3
f 82/25/4 83/67/4 41/26/4
f 83/25/5 82/27/5 78/28/5
f 79/27/6 77/25/6 81/29/6
f 78/29/2 82/25/2 81/27/2
f 41/27/1 83/25/1 80/29/1
f 55/25/4 88/67/4 56/26/4
f 56/27/1 88/25/1 87/29/1
f 85/29/2 55/25/2 54/27/2
f 86/27/6 84/25/6 54/29/6
f 88/25/5 55/27/5 85/28/5
f 39/25/4 40/67/4 32/26/4
f 32/27/1 40/25/1 36/29/1
f 34/29/2 39/25/2 31/27/2
f 35/27/6 33/25/6 31/29/6
f 40/25/5 39/27/5 34/28/5
f 47/25/4 49/67/4 48/26/4
f 49/25/1 53/29/1 52/28/1
f 51/29/2 47/25/2 46/27/2
f 52/27/6 50/25/6 46/29/6
f 49/25/5 47/27/5 51/28/5
f 58/25/4 57/67/4 38/26/4
f 57/25/5 58/27/5 44/28/5
f 43/27/6 45/25/6 37/29/6
f 44/29/2 58/25/2 37/27/2
f 38/27/1 57/25/1 42/29/1
f 91/30/4 92/55/4 99/31/4
f 61/33/1 65/68/1 64/34/1
f 65/36/3 63/2/3 62/37/3
f 63/39/2 59/35/2 29/33/2
f 64/40/6 62/69/6 29/35/6
f 61/33/5 59/35/5 63/41/5
f 91/16/2 100/63/2 96/42/2
f 67/43/1 68/45/1 72/44/1
f 72/37/3 70/2/3 69/36/3
f 70/1/2 26/43/2 66/45/2
f 71/44/6 69/1/6 66/43/6
f 68/43/5 26/45/5 70/44/5
f 89/46/3 90/70/3 25/47/3
f 97/49/4 98/59/4 102/50/4
f 28/17/2 29/62/2 94/16/2
f 93/52/4 94/58/4 104/53/4
f 92/55/7 91/30/7 90/56/7
f 94/58/8 93/52/8 89/57/8
f 98/59/7 97/49/7 96/60/7
f 100/32/8 99/31/8 95/61/8
f 98/16/1 95/18/1 105/17/1
f 97/16/2 107/62/2 106/17/2
f 89/18/1 95/42/1 99/63/1
