# Blender 4.2.0
# www.blender.org
mtllib CanalLid01.mtl
o CanalLid01
v 0.000000 0.000000 0.750000
v 0.649519 0.000000 0.375000
v 0.649519 0.000000 -0.375000
v 0.000000 0.037500 -0.750000
v -0.649519 0.037500 -0.375000
v -0.649519 0.037500 0.375000
v 0.000000 0.037500 0.750000
v 0.649519 0.037500 0.375000
v 0.649519 0.037500 -0.375000
v 0.000000 0.000000 -0.750000
v -0.649519 0.000000 -0.375000
v -0.649519 0.000000 0.375000
vn 1.0000 -0.0000 -0.0000
vn -0.5000 -0.0000 0.8660
vn -0.5000 -0.0000 -0.8660
vn 0.5000 -0.0000 -0.8660
vn 0.5000 -0.0000 0.8660
vn -1.0000 -0.0000 -0.0000
vn -0.0000 1.0000 -0.0000
vn -0.0000 -1.0000 -0.0000
vt 0.076708 0.613421
vt 0.168964 0.184458
vt 0.055543 0.607750
vt 0.613421 0.076708
vt 0.938786 0.371086
vt 0.628914 0.061214
vt 0.809871 0.809871
vt 0.392250 0.944457
vt 0.815542 0.831036
vt 0.386579 0.923292
vt 0.061214 0.628914
vt 0.371086 0.938786
vt 0.190129 0.190129
vt 0.607750 0.055543
vt 0.184458 0.168964
vt 0.923292 0.386579
vt 0.831036 0.815542
vt 0.944457 0.392250
s 0
usemtl Primary
f 9/1/1 2/2/1 3/3/1
f 7/4/2 12/5/2 1/6/2
f 5/7/3 10/8/3 11/9/3
f 4/10/4 3/11/4 10/12/4
f 8/13/5 1/14/5 2/15/5
f 6/16/6 11/17/6 12/18/6
f 6/16/7 4/10/7 5/7/7
f 9/1/7 7/4/7 8/13/7
f 10/10/8 12/16/8 11/7/8
f 1/4/8 3/1/8 2/13/8
f 9/1/1 8/13/1 2/2/1
f 7/4/2 6/16/2 12/5/2
f 5/7/3 4/10/3 10/8/3
f 4/10/4 9/1/4 3/11/4
f 8/13/5 7/4/5 1/14/5
f 6/16/6 5/7/6 11/17/6
f 6/16/7 7/4/7 4/10/7
f 9/1/7 4/10/7 7/4/7
f 10/10/8 1/4/8 12/16/8
f 1/4/8 10/10/8 3/1/8
