# Blender 4.2.0
# www.blender.org
mtllib Sign08.mtl
o Sign08
v -0.020000 2.850000 -0.020000
v -0.020000 0.000000 -0.020000
v -0.020000 2.850000 0.020000
v -0.020000 0.000000 0.020000
v 0.020000 0.000000 0.020000
v 0.020000 2.850000 0.020000
v 0.020000 0.000000 -0.020000
v 0.020000 2.850000 -0.020000
v 0.000000 3.000000 0.050000
v -0.433013 2.750000 0.050000
v -0.433013 2.250000 0.050000
v 0.000000 2.000000 0.050000
v 0.433013 2.250000 0.050000
v 0.433013 2.750000 0.050000
v 0.000000 3.000000 0.020000
v -0.433013 2.750000 0.020000
v -0.433013 2.250000 0.020000
v 0.000000 2.000000 0.020000
v 0.433013 2.250000 0.020000
v 0.433013 2.750000 0.020000
vn -0.0000 -0.0000 1.0000
vn 1.0000 -0.0000 -0.0000
vn -0.0000 -0.0000 -1.0000
vn -1.0000 -0.0000 -0.0000
vn -0.0000 1.0000 -0.0000
vn -0.5000 0.8660 -0.0000
vn 0.5000 0.8660 -0.0000
vn 0.5000 -0.8660 -0.0000
vn -0.5000 -0.8660 -0.0000
vt 0.552083 0.906250
vt 0.562500 0.000000
vt 0.541667 0.000000
vt 0.562500 0.906250
vt 0.583333 0.000000
vt 0.572917 0.906250
vt 0.572917 0.000000
vt 0.552083 0.000000
vt 0.583333 0.906250
vt 0.541667 0.875000
vt 0.541667 0.906250
vt 0.604167 0.328125
vt 0.593750 0.250000
vt 0.604167 0.250000
vt 0.604167 0.671875
vt 0.593750 0.578125
vt 0.604167 0.578125
vt 0.604167 0.421875
vt 0.593750 0.328125
vt 0.604167 0.750000
vt 0.593750 0.671875
vt 0.593750 0.500000
vt 0.604167 0.500000
vt 0.593750 0.421875
vt 0.791667 0.867188
vt 0.572917 0.562500
vt 0.791667 0.664062
vt 0.333333 0.664062
vt 0.552083 0.968750
vt 0.333333 0.867188
vt 0.270833 0.406250
vt 0.500000 0.109375
vt 0.500000 0.304688
vt 0.270833 0.007812
vt 0.041667 0.304688
vt 0.041667 0.109375
vt 0.583333 0.875000
vt 0.593750 0.750000
vt 0.572917 0.968750
vt 0.552083 0.562500
s 0
usemtl Sign08
f 6/1/1 4/2/1 5/3/1
f 8/4/2 5/5/2 7/2/2
f 1/6/3 7/5/3 2/7/3
f 3/1/4 2/7/4 4/8/4
f 1/9/5 6/10/5 8/11/5
f 13/12/6 18/13/6 12/14/6
f 11/15/2 16/16/2 10/17/2
f 14/18/4 19/19/4 13/12/4
f 12/20/7 17/21/7 11/15/7
f 10/17/8 15/22/8 9/23/8
f 9/23/9 20/24/9 14/18/9
f 20/25/1 18/26/1 19/27/1
f 17/28/1 15/29/1 16/30/1
f 9/31/3 11/32/3 10/33/3
f 12/34/3 14/35/3 13/36/3
f 6/1/1 3/6/1 4/2/1
f 8/4/2 6/9/2 5/5/2
f 1/6/3 8/9/3 7/5/3
f 3/1/4 1/6/4 2/7/4
f 1/9/5 3/37/5 6/10/5
f 13/12/6 19/19/6 18/13/6
f 11/15/2 17/21/2 16/16/2
f 14/18/4 20/24/4 19/19/4
f 12/20/7 18/38/7 17/21/7
f 10/17/8 16/16/8 15/22/8
f 9/23/9 15/22/9 20/24/9
f 20/25/1 15/39/1 18/26/1
f 17/28/1 18/40/1 15/29/1
f 9/31/3 12/34/3 11/32/3
f 12/34/3 9/31/3 14/35/3
