# Blender 4.2.0
# www.blender.org
mtllib Sign05.mtl
o Sign05
v 0.750000 0.750000 0.000000
v 0.750000 0.000000 0.000000
v 0.750000 0.750000 0.018750
v 0.750000 0.000000 0.018750
v -0.750000 0.750000 0.000000
v -0.750000 0.000000 0.000000
v -0.750000 0.750000 0.018750
v -0.750000 0.000000 0.018750
vn -0.0000 1.0000 -0.0000
vn -0.0000 -0.0000 1.0000
vn -1.0000 -0.0000 -0.0000
vn -0.0000 -1.0000 -0.0000
vn 1.0000 -0.0000 -0.0000
vn -0.0000 -0.0000 -1.0000
vt 1.000000 0.062500
vt 0.000000 0.000000
vt 0.000000 0.062500
vt 1.000000 1.000000
vt 1.000000 0.000000
vt 0.012522 0.999978
vt 0.000022 0.000022
vt 0.012522 0.000022
vt 0.015625 1.000000
vt 0.000000 1.000000
vt 0.000022 0.999978
vt 0.015625 0.000000
s 0
usemtl Primary
f 5/1/1 3/2/1 1/3/1
f 3/4/2 8/2/2 4/5/2
f 7/6/3 6/7/3 8/8/3
f 2/3/4 8/5/4 6/1/4
f 1/2/5 4/9/5 2/10/5
f 5/10/6 2/5/6 6/2/6
f 5/1/1 7/5/1 3/2/1
f 3/4/2 7/10/2 8/2/2
f 7/6/3 5/11/3 6/7/3
f 2/3/4 4/2/4 8/5/4
f 1/2/5 3/12/5 4/9/5
f 5/10/6 1/4/6 2/5/6
