# Blender 4.2.0
# www.blender.org
mtllib Sign06.mtl
o Sign06
v 0.525000 1.500000 0.000000
v 0.525000 0.000000 0.000000
v 0.525000 1.500000 0.018750
v 0.525000 0.000000 0.018750
v -0.525000 1.500000 0.000000
v -0.525000 0.000000 0.000000
v -0.525000 1.500000 0.018750
v -0.525000 0.000000 0.018750
vn -0.0000 1.0000 -0.0000
vn -0.0000 -0.0000 1.0000
vn -1.0000 -0.0000 -0.0000
vn -0.0000 -1.0000 -0.0000
vn 1.0000 -0.0000 -0.0000
vn -0.0000 -0.0000 -1.0000
vt 1.000000 0.014706
vt 0.000000 0.000000
vt 0.000000 0.014706
vt 1.000000 1.000000
vt 1.000000 0.000000
vt 0.020833 1.000000
vt 0.020833 0.000000
vt 0.000000 1.000000
vt 1.000000 0.985294
vt 0.979167 0.000000
vt 0.979167 1.000000
vt 0.000000 0.985294
s 0
usemtl Primary
f 5/1/1 3/2/1 1/3/1
f 3/4/2 8/2/2 4/5/2
f 7/6/3 6/2/3 8/7/3
f 2/8/4 8/9/4 6/4/4
f 1/10/5 4/4/5 2/11/5
f 5/8/6 2/5/6 6/2/6
f 5/1/1 7/5/1 3/2/1
f 3/4/2 7/8/2 8/2/2
f 7/6/3 5/8/3 6/2/3
f 2/8/4 4/12/4 8/9/4
f 1/10/5 3/5/5 4/4/5
f 5/8/6 1/4/6 2/5/6
