# Blender 4.2.0
# www.blender.org
mtllib Sign04.mtl
o Sign04
v 0.006250 0.500000 -1.000000
v 0.006250 0.000000 -1.000000
v 0.006250 0.500000 1.000000
v 0.006250 0.000000 1.000000
v -0.006250 0.500000 -1.000000
v -0.006250 0.000000 -1.000000
v -0.006250 0.500000 1.000000
v -0.006250 0.000000 1.000000
vn -0.0000 1.0000 -0.0000
vn -0.0000 -0.0000 1.0000
vn -0.0000 -1.0000 -0.0000
vn 1.0000 -0.0000 -0.0000
vn -0.0000 -0.0000 -1.0000
vt 0.583333 0.750000
vt 0.593750 0.007812
vt 0.593750 0.750000
vt 0.822917 0.000000
vt 0.583333 0.007812
vt 0.583333 0.000000
vt 0.250000 0.750000
vt 0.489583 0.000000
vt 0.489583 0.750000
vt 0.822917 0.007812
vt 0.250000 0.000000
s 0
usemtl Primary
f 5/1/1 3/2/1 1/3/1
f 3/4/2 8/5/2 4/6/2
f 2/1/3 8/2/3 6/3/3
f 1/7/4 4/8/4 2/9/4
f 5/4/5 2/5/5 6/6/5
f 5/1/1 7/5/1 3/2/1
f 3/4/2 7/10/2 8/5/2
f 2/1/3 4/5/3 8/2/3
f 1/7/4 3/11/4 4/8/4
f 5/4/5 1/10/5 2/5/5
