# Blender 4.2.0
# www.blender.org
mtllib Track01StraightMedium.mtl
o Track01StraightMedium
v 1.400000 0.100000 0.850000
v 1.450000 -0.000000 0.850000
v 1.050000 0.100000 -3.000000
v 1.400000 0.100000 1.150000
v 1.450000 -0.000000 1.150000
v 1.050000 0.100000 3.000000
v 1.250000 0.100000 3.000000
v 1.250000 0.100000 -3.000000
v 1.100000 0.400000 -3.000000
v 1.100000 0.400000 3.000000
v 1.200000 0.400000 3.000000
v 1.200000 0.400000 -3.000000
v -1.400000 0.100000 0.850000
v -1.450000 -0.000000 0.850000
v 1.250000 0.500000 3.000000
v 1.450000 -0.000000 -0.850000
v 1.050000 0.500000 -3.000000
v 1.050000 0.500000 3.000000
v 1.400000 0.100000 -0.850000
v 1.250000 0.500000 -3.000000
v 1.450000 -0.000000 -1.150000
v 1.400000 0.100000 -1.150000
v -1.050000 0.100000 -3.000000
v -1.400000 0.100000 1.150000
v -1.450000 -0.000000 1.150000
v -1.050000 0.100000 3.000000
v -1.250000 0.100000 3.000000
v -1.250000 0.100000 -3.000000
v -1.100000 0.400000 -3.000000
v -1.100000 0.400000 3.000000
v -1.200000 0.400000 3.000000
v -1.200000 0.400000 -3.000000
v -1.250000 0.500000 3.000000
v -1.050000 0.500000 -3.000000
v -1.050000 0.500000 3.000000
v -1.250000 0.500000 -3.000000
v -1.400000 0.100000 -1.150000
v -1.450000 -0.000000 -1.150000
v -1.400000 0.100000 -0.850000
v -1.450000 -0.000000 -0.850000
v 1.450000 -0.000000 3.150000
v 1.400000 0.100000 3.150000
v 1.450000 -0.000000 2.850000
v 1.400000 0.100000 2.850000
v -1.400000 0.100000 2.850000
v -1.450000 -0.000000 2.850000
v -1.400000 0.100000 3.150000
v -1.450000 -0.000000 3.150000
vn -0.0000 1.0000 -0.0000
vn -0.0000 -0.0000 1.0000
vn -0.9864 0.1644 -0.0000
vn 0.9864 0.1644 -0.0000
vn 0.8944 0.4472 -0.0000
vn -0.8944 -0.4472 -0.0000
vn 0.8944 -0.4472 -0.0000
vn -0.0000 -0.0000 -1.0000
vn -0.8944 0.4472 -0.0000
vt 1.000000 0.421560
vt 0.056112 0.283995
vt 0.056112 0.421560
vt 0.056112 0.265393
vt 1.000000 0.215404
vt 0.031118 0.215404
vt -0.332952 1.000000
vt 1.333176 0.883121
vt 1.333175 1.000000
vt 1.333176 0.484173
vt -0.332953 0.606912
vt -0.332952 0.484173
vt 0.000223 0.283995
vt 0.000223 0.421560
vt -0.332952 0.883121
vt 1.333175 0.792075
vt 1.333175 0.606912
vt -0.332952 0.692098
vt 1.333176 0.692098
vt 1.000000 0.435915
vt 0.031118 0.483950
vt 1.000000 0.483950
vt 1.000000 0.283995
vt 1.000000 0.265393
vt -0.332952 0.792075
vt 0.056112 0.435915
s 0
usemtl Primary
f 13/1/1 4/2/1 1/3/1
f 4/4/2 25/5/2 5/6/2
f 6/7/3 9/8/3 3/9/3
f 8/10/4 11/11/4 7/12/4
f 1/3/5 5/13/5 2/14/5
f 10/15/6 17/16/6 9/8/6
f 12/17/7 15/18/7 11/11/7
f 17/16/1 15/18/1 20/19/1
f 13/20/8 2/21/8 14/22/8
f 22/3/5 16/13/5 21/14/5
f 19/4/2 40/5/2 16/6/2
f 29/8/4 26/7/4 23/9/4
f 31/11/3 28/10/3 27/12/3
f 25/13/9 13/3/9 14/14/9
f 34/16/7 30/15/7 29/8/7
f 33/18/6 32/17/6 31/11/6
f 33/18/1 34/16/1 36/19/1
f 37/1/1 19/2/1 22/3/1
f 37/20/8 21/21/8 38/22/8
f 40/13/9 37/3/9 38/14/9
f 44/3/5 41/13/5 43/14/5
f 42/4/2 48/5/2 41/6/2
f 45/1/1 42/2/1 44/3/1
f 45/20/8 43/21/8 46/22/8
f 48/13/9 45/3/9 46/14/9
f 13/1/1 24/23/1 4/2/1
f 4/4/2 24/24/2 25/5/2
f 6/7/3 10/15/3 9/8/3
f 8/10/4 12/17/4 11/11/4
f 1/3/5 4/2/5 5/13/5
f 10/15/6 18/25/6 17/16/6
f 12/17/7 20/19/7 15/18/7
f 17/16/1 18/25/1 15/18/1
f 13/20/8 1/26/8 2/21/8
f 22/3/5 19/2/5 16/13/5
f 19/4/2 39/24/2 40/5/2
f 29/8/4 30/15/4 26/7/4
f 31/11/3 32/17/3 28/10/3
f 25/13/9 24/2/9 13/3/9
f 34/16/7 35/25/7 30/15/7
f 33/18/6 36/19/6 32/17/6
f 33/18/1 35/25/1 34/16/1
f 37/1/1 39/23/1 19/2/1
f 37/20/8 22/26/8 21/21/8
f 40/13/9 39/2/9 37/3/9
f 44/3/5 42/2/5 41/13/5
f 42/4/2 47/24/2 48/5/2
f 45/1/1 47/23/1 42/2/1
f 45/20/8 44/26/8 43/21/8
f 48/13/9 47/2/9 45/3/9
