# Blender 4.2.0
# www.blender.org
mtllib TrafficPole01.mtl
o TrafficPole01
v 0.060000 1.500000 -0.060000
v 0.060000 0.000000 -0.060000
v 0.060000 1.500000 0.060000
v 0.060000 0.000000 0.060000
v -0.060000 1.500000 -0.060000
v -0.060000 0.000000 -0.060000
v -0.060000 1.500000 0.060000
v -0.060000 0.000000 0.060000
vn -0.0000 1.0000 -0.0000
vn -0.0000 -0.0000 1.0000
vn -1.0000 -0.0000 -0.0000
vn 1.0000 -0.0000 -0.0000
vn -0.0000 -0.0000 -1.0000
vt 0.500000 0.744898
vt -0.000000 0.826531
vt 0.500000 0.826531
vt 0.500000 1.000000
vt 1.000000 0.000000
vt 0.500000 0.000000
vt 0.000000 1.000000
vt 0.000000 0.000000
vt 1.000000 1.000000
vt 0.000000 0.744898
s 0
usemtl Primary
f 5/1/1 3/2/1 1/3/1
f 3/4/2 8/5/2 4/6/2
f 7/7/3 6/6/3 8/8/3
f 1/4/4 4/8/4 2/6/4
f 5/9/5 2/6/5 6/5/5
f 5/1/1 7/10/1 3/2/1
f 3/4/2 7/9/2 8/5/2
f 7/7/3 5/4/3 6/6/3
f 1/4/4 3/7/4 4/8/4
f 5/9/5 1/4/5 2/6/5
