# Blender 4.2.0
# www.blender.org
mtllib Bandage01.mtl
o Bandage01
v 0.000000 0.000000 -0.093750
v 0.000000 0.000000 0.093750
v -0.081190 0.375000 -0.046875
v -0.081190 0.375000 0.046875
v 0.000000 0.375000 -0.093750
v 0.000000 0.375000 0.093750
v 0.081190 0.375000 0.046875
v 0.081190 0.375000 -0.046875
v -0.081190 0.000000 -0.046875
v -0.081190 0.000000 0.046875
v 0.081190 0.000000 0.046875
v 0.081190 0.000000 -0.046875
v 0.115458 -0.000000 0.032111
v 0.115458 0.375000 0.032111
vn 1.0000 -0.0000 -0.0000
vn -0.5000 -0.0000 0.8660
vn -0.5000 -0.0000 -0.8660
vn 0.5000 -0.0000 -0.8660
vn 0.5000 -0.0000 0.8660
vn -1.0000 -0.0000 -0.0000
vn -0.0000 1.0000 -0.0000
vn -0.0000 -1.0000 -0.0000
vn 0.9174 -0.0000 -0.3980
vt 0.234375 0.406250
vt 0.695312 0.523438
vt 0.695312 0.406250
vt 0.234375 0.289062
vt 0.695312 0.289062
vt 0.234375 0.171875
vt 0.234375 0.523438
vt 0.007812 0.929688
vt 0.132812 0.703125
vt 0.007812 0.781250
vt 0.257812 0.781250
vt 0.132812 1.000000
vt 0.257812 0.929688
vt 0.234375 0.437500
vt 0.695312 0.437500
vt 0.695312 0.171875
s 0
usemtl Cloth
f 8/1/1 11/2/1 12/3/1
f 6/3/2 10/4/2 2/1/2
f 3/5/3 1/6/3 9/4/3
f 5/3/4 12/4/4 1/1/4
f 7/2/5 2/1/5 11/7/5
f 4/5/6 9/6/6 10/4/6
f 4/8/7 5/9/7 3/10/7
f 8/11/7 6/12/7 7/13/7
f 1/12/8 10/10/8 9/8/8
f 2/9/8 12/13/8 11/11/8
f 8/1/1 7/7/1 11/2/1
f 6/3/2 4/5/2 10/4/2
f 3/5/3 5/16/3 1/6/3
f 5/3/4 8/5/4 12/4/4
f 7/2/5 6/3/5 2/1/5
f 4/5/6 3/16/6 9/6/6
f 4/8/7 6/12/7 5/9/7
f 8/11/7 5/9/7 6/12/7
f 1/12/8 2/9/8 10/10/8
f 2/9/8 1/12/8 12/13/8
usemtl Cloth-Lip
f 14/2/9 12/14/9 8/15/9
f 14/2/9 13/7/9 12/14/9
