# Blender 4.2.0
# www.blender.org
mtllib Book04.mtl
o Book04
v 0.129175 0.046696 -0.171475
v 0.129175 -0.046696 -0.171475
v 0.129175 0.046696 0.171475
v 0.129175 -0.046696 0.171475
v -0.129175 0.046696 -0.171475
v -0.129175 -0.046696 -0.171475
v -0.129175 0.046696 0.171475
v -0.129175 -0.046696 0.171475
vn -0.0000 1.0000 -0.0000
vn -0.0000 -0.0000 1.0000
vn -1.0000 -0.0000 -0.0000
vn -0.0000 -1.0000 -0.0000
vn 1.0000 -0.0000 -0.0000
vn -0.0000 -0.0000 -1.0000
vt 0.100000 0.281250
vt 0.000000 0.541667
vt 0.000000 0.281250
vt 0.000000 0.208333
vt 0.116667 0.135417
vt 0.000000 0.135417
vt 0.133333 0.208333
vt 0.133333 0.135417
vt 0.138889 0.208333
vt 0.000000 0.291667
vt 0.138889 0.291667
vt 0.116667 0.208333
vt 0.100000 0.541667
s 0
usemtl Primary
f 5/1/1 3/2/1 1/3/1
f 3/4/2 8/5/2 4/6/2
f 7/7/3 6/6/3 8/8/3
f 2/1/4 8/2/4 6/3/4
f 1/9/5 4/10/5 2/11/5
f 5/12/6 2/6/6 6/5/6
f 5/1/1 7/13/1 3/2/1
f 3/4/2 7/12/2 8/5/2
f 7/7/3 5/4/3 6/6/3
f 2/1/4 4/13/4 8/2/4
f 1/9/5 3/4/5 4/10/5
f 5/12/6 1/4/6 2/6/6
