# Blender 4.2.0
# www.blender.org
mtllib Book03.mtl
o Book03
v 0.129175 0.018678 -0.171475
v 0.129175 -0.018678 -0.171475
v 0.129175 0.018678 0.171475
v 0.129175 -0.018678 0.171475
v -0.129175 0.018678 -0.171475
v -0.129175 -0.018678 -0.171475
v -0.129175 0.018678 0.171475
v -0.129175 -0.018678 0.171475
vn -0.0000 1.0000 -0.0000
vn -0.0000 -0.0000 1.0000
vn -1.0000 -0.0000 -0.0000
vn -0.0000 -1.0000 -0.0000
vn 1.0000 -0.0000 -0.0000
vn -0.0000 -0.0000 -1.0000
vt 0.133333 0.625000
vt 0.000000 1.000000
vt 0.000000 0.625000
vt 0.000000 0.583333
vt 0.116667 0.541667
vt 0.000000 0.541667
vt 0.211111 0.583333
vt 0.033333 0.541667
vt 0.211111 0.541667
vt 0.266667 1.000000
vt 0.266667 0.625000
vt 0.033333 0.583333
vt 0.211111 0.625000
vt 0.033333 0.625000
vt 0.116667 0.583333
vt 0.133333 1.000000
s 0
usemtl Primary
f 5/1/1 3/2/1 1/3/1
f 3/4/2 8/5/2 4/6/2
f 7/7/3 6/8/3 8/9/3
f 2/1/4 8/10/4 6/11/4
f 1/12/5 4/13/5 2/14/5
f 5/15/6 2/6/6 6/5/6
f 5/1/1 7/16/1 3/2/1
f 3/4/2 7/15/2 8/5/2
f 7/7/3 5/12/3 6/8/3
f 2/1/4 4/16/4 8/10/4
f 1/12/5 3/7/5 4/13/5
f 5/15/6 1/4/6 2/6/6
