# Blender 4.2.0
# www.blender.org
mtllib Book01.mtl
o Book01
v 0.120000 -0.021250 -0.200000
v 0.120000 -0.021250 0.200000
v 0.120000 0.021250 -0.200000
v 0.120000 0.021250 0.200000
v -0.120000 -0.021250 -0.200000
v -0.120000 -0.021250 0.200000
v -0.120000 0.021250 -0.200000
v -0.120000 0.021250 0.200000
vn -0.0000 -0.0000 -1.0000
vn -0.0000 1.0000 -0.0000
vn -1.0000 -0.0000 -0.0000
vn -0.0000 -0.0000 1.0000
vn 1.0000 -0.0000 -0.0000
vn -0.0000 -1.0000 -0.0000
vt 0.383333 0.541667
vt 0.266667 0.583333
vt 0.266667 0.541667
vt 0.266667 0.635417
vt 0.394444 1.000000
vt 0.266667 1.000000
vt 0.466667 0.541667
vt 0.466667 0.583333
vt 0.383333 0.583333
vt 0.394444 0.635417
vt 0.527778 1.000000
vt 0.466667 0.635417
vt 0.527778 0.635417
s 0
usemtl Primary
f 5/1/1 3/2/1 1/3/1
f 3/4/2 8/5/2 4/6/2
f 7/2/3 6/7/3 8/8/3
f 2/3/4 8/9/4 6/1/4
f 1/8/5 4/4/5 2/2/5
f 5/10/6 2/11/6 6/5/6
f 5/1/1 7/9/1 3/2/1
f 3/4/2 7/10/2 8/5/2
f 7/2/3 5/3/3 6/7/3
f 2/3/4 4/2/4 8/9/4
f 1/8/5 3/12/5 4/4/5
f 5/10/6 1/13/6 2/11/6
