# Blender 4.2.0
# www.blender.org
mtllib Book05.mtl
o Book05
v 0.162503 0.026266 -0.218460
v 0.162503 -0.026266 -0.218460
v 0.162503 0.026266 0.218460
v 0.162503 -0.026266 0.218460
v -0.162503 0.026266 -0.218460
v -0.162503 -0.026266 -0.218460
v -0.162503 0.026266 0.218460
v -0.162503 -0.026266 0.218460
vn -0.0000 1.0000 -0.0000
vn -0.0000 -0.0000 1.0000
vn -1.0000 -0.0000 -0.0000
vn -0.0000 -1.0000 -0.0000
vn 1.0000 -0.0000 -0.0000
vn -0.0000 -0.0000 -1.0000
vt 0.761111 0.416667
vt 0.527778 1.000000
vt 0.527778 0.416667
vt 0.527778 0.312500
vt 0.777778 0.218750
vt 0.527778 0.218750
vt 0.816667 0.312500
vt 0.994444 1.000000
vt 0.994444 0.416667
vt 0.816667 0.302083
vt 0.527778 0.302083
vt 0.777778 0.312500
vt 0.761111 1.000000
vt 0.816667 0.416667
vt 0.816667 0.218750
s 0
usemtl Primary
f 5/1/1 3/2/1 1/3/1
f 3/4/2 8/5/2 4/6/2
f 7/3/3 6/7/3 8/4/3
f 2/1/4 8/8/4 6/9/4
f 1/6/5 4/10/5 2/11/5
f 5/12/6 2/6/6 6/5/6
f 5/1/1 7/13/1 3/2/1
f 3/4/2 7/12/2 8/5/2
f 7/3/3 5/14/3 6/7/3
f 2/1/4 4/13/4 8/8/4
f 1/6/5 3/15/5 4/10/5
f 5/12/6 1/4/6 2/6/6
