# Blender 4.2.0
# www.blender.org
mtllib Book02.mtl
o Book02
v 0.156576 0.022640 -0.207849
v 0.156576 -0.022640 -0.207849
v 0.156576 0.022640 0.207849
v 0.156576 -0.022640 0.207849
v -0.156576 0.022640 -0.207849
v -0.156576 -0.022640 -0.207849
v -0.156576 0.022640 0.207849
v -0.156576 -0.022640 0.207849
vn -0.0000 1.0000 -0.0000
vn -0.0000 -0.0000 1.0000
vn -1.0000 -0.0000 -0.0000
vn -0.0000 -1.0000 -0.0000
vn 1.0000 -0.0000 -0.0000
vn -0.0000 -0.0000 -1.0000
vt 0.344444 0.125000
vt 0.177778 0.541667
vt 0.177778 0.125000
vt 0.177778 0.062500
vt 0.316667 0.000000
vt 0.177778 0.000000
vt 0.400000 0.062500
vt 0.400000 0.000000
vt 0.511111 0.541667
vt 0.511111 0.125000
vt 0.400000 0.125000
vt 0.316667 0.062500
vt 0.344444 0.541667
s 0
usemtl Primary
f 5/1/1 3/2/1 1/3/1
f 3/4/2 8/5/2 4/6/2
f 7/7/3 6/6/3 8/8/3
f 2/1/4 8/9/4 6/10/4
f 1/4/5 4/11/5 2/3/5
f 5/12/6 2/6/6 6/5/6
f 5/1/1 7/13/1 3/2/1
f 3/4/2 7/12/2 8/5/2
f 7/7/3 5/4/3 6/6/3
f 2/1/4 4/13/4 8/9/4
f 1/4/5 3/7/5 4/11/5
f 5/12/6 1/4/6 2/6/6
