# Blender 4.2.0
# www.blender.org
mtllib BookStack01a.mtl
o BookStack01a
v -0.141667 0.000000 -0.146250
v -0.141667 0.425000 -0.146250
v -0.108333 0.425000 -0.146250
v -0.108333 0.425000 0.146250
v -0.141667 0.425000 0.146250
v -0.275000 0.000000 0.146250
v -0.275000 0.450000 0.146250
v -0.275000 0.000000 -0.146250
v -0.275000 0.450000 -0.146250
v 0.300000 0.000000 0.146250
v 0.300000 0.450000 0.146250
v 0.300000 0.000000 -0.146250
v 0.300000 0.450000 -0.146250
v 0.108333 0.000000 -0.146250
v -0.141667 0.450000 -0.146250
v 0.000000 0.450000 -0.146250
v 0.108333 0.450000 -0.146250
v 0.191667 0.450000 -0.146250
v -0.141667 0.000000 0.146250
v 0.000000 0.000000 0.146250
v 0.108333 0.000000 0.146250
v 0.191667 0.000000 0.146250
v 0.191667 0.450000 0.146250
v 0.108333 0.450000 0.146250
v -0.000000 0.450000 0.146250
v -0.141667 0.450000 0.146250
v -0.000000 0.000000 -0.146250
v -0.108333 0.000000 -0.146250
v -0.108333 0.500000 -0.146250
v 0.000000 0.500000 -0.146250
v -0.108333 0.000000 0.146250
v -0.000000 0.500000 0.146250
v -0.108333 0.500000 0.146250
v 0.191667 0.000000 -0.146250
v 0.108333 0.475000 -0.146250
v 0.191667 0.475000 -0.146250
v 0.191667 0.475000 0.146250
v 0.108333 0.475000 0.146250
vn -0.0000 1.0000 -0.0000
vn -0.0000 -1.0000 -0.0000
vn -0.0000 -0.0000 1.0000
vn -0.0000 -0.0000 -1.0000
vn -1.0000 -0.0000 -0.0000
vn 1.0000 -0.0000 -0.0000
vt 0.205556 0.572917
vt 0.061111 0.552083
vt 0.205556 0.552083
vt 0.266667 0.572917
vt 0.000000 0.552083
vt 0.266667 0.552083
vt 0.266667 0.583333
vt 0.000000 0.625000
vt -0.000000 0.583333
vt 0.061111 0.572917
vt 0.000000 0.541667
vt 0.100000 0.291667
vt 0.000000 0.291667
vt 0.177778 0.145833
vt 0.000000 0.208333
vt 0.000000 0.145833
vt 0.100000 0.541667
vt 0.177778 0.541667
vt 0.138889 0.291667
vt 0.177778 0.291667
vt 0.177778 0.208333
vt -0.000000 0.135417
vt 0.177778 0.135417
vt 0.133333 0.208333
vt 0.400000 0.062500
vt 0.177778 0.000000
vt 0.400000 0.000000
vt 0.133333 0.135417
vt -0.000000 0.354167
vt 0.177778 0.354167
vt 0.177778 0.125000
vt 0.177778 0.062500
vt 0.177778 0.062500
vt 0.527778 0.208333
vt 0.816667 0.312500
vt 0.527778 0.312500
vt 0.527778 0.416667
vt 0.816667 0.208333
vt 0.266667 0.541667
vt 0.466667 0.583333
vt 0.466667 0.541667
vt 0.466667 0.593750
vt 0.266667 0.635417
vt 0.266667 0.593750
vt 0.266667 1.000000
vt 0.394444 0.979167
vt 0.394444 1.000000
vt 0.708333 0.750000
vt 0.708333 0.500000
vt 0.750000 0.500000
vt 0.750000 0.750000
vt 0.791667 0.750000
vt 0.791667 0.500000
vt 0.100000 0.531250
vt 0.000000 0.531250
vt 0.000000 0.572917
vt 0.266667 0.625000
vt 0.138889 0.541667
vt 0.400000 0.125000
vt 0.816667 0.416667
vt 0.466667 0.635417
vt 0.266667 0.979167
s 0
usemtl Primary
f 2/1/1 4/2/1 3/3/1
f 28/4/2 19/5/2 1/6/2
f 4/7/3 19/8/3 31/9/3
f 2/3/4 28/10/4 1/2/4
f 7/11/5 8/12/5 6/13/5
f 18/14/4 12/15/4 34/16/4
f 13/17/6 10/13/6 12/12/6
f 26/18/3 6/19/3 19/20/3
f 12/21/2 22/22/2 34/23/2
f 9/22/1 26/24/1 15/15/1
f 18/21/1 11/22/1 13/23/1
f 16/25/1 24/26/1 17/27/1
f 1/24/2 6/22/2 8/28/2
f 14/25/2 20/26/2 27/27/2
f 11/29/3 22/20/3 10/30/3
f 24/25/3 20/31/3 21/32/3
f 9/28/4 1/15/4 8/22/4
f 16/33/4 14/27/4 27/25/4
f 29/34/1 32/35/1 30/36/1
f 27/34/2 31/35/2 28/36/2
f 32/35/3 31/37/3 20/36/3
f 29/38/4 27/36/4 28/34/4
f 35/39/1 37/40/1 36/7/1
f 34/7/2 21/41/2 14/39/2
f 37/42/3 21/43/3 22/44/3
f 35/7/4 34/41/4 14/40/4
f 18/45/6 37/46/6 23/47/6
f 38/48/5 17/49/5 24/48/5
f 16/50/6 32/51/6 25/51/6
f 33/52/5 3/53/5 4/52/5
f 2/54/6 26/11/6 5/55/6
f 2/1/1 5/10/1 4/2/1
f 28/4/2 31/56/2 19/5/2
f 4/7/3 5/57/3 19/8/3
f 2/3/4 3/1/4 28/10/4
f 7/11/5 9/17/5 8/12/5
f 18/14/4 13/21/4 12/15/4
f 13/17/6 11/11/6 10/13/6
f 26/18/3 7/58/3 6/19/3
f 12/21/2 10/15/2 22/22/2
f 9/22/1 7/28/1 26/24/1
f 18/21/1 23/15/1 11/22/1
f 16/25/1 25/33/1 24/26/1
f 1/24/2 19/15/2 6/22/2
f 14/25/2 21/33/2 20/26/2
f 11/29/3 23/13/3 22/20/3
f 24/25/3 25/59/3 20/31/3
f 9/28/4 15/24/4 1/15/4
f 16/33/4 17/26/4 14/27/4
f 29/34/1 33/38/1 32/35/1
f 27/34/2 20/38/2 31/35/2
f 32/35/3 33/60/3 31/37/3
f 29/38/4 30/35/4 27/36/4
f 35/39/1 38/41/1 37/40/1
f 34/7/2 22/40/2 21/41/2
f 37/42/3 38/61/3 21/43/3
f 35/7/4 36/39/4 34/41/4
f 18/45/6 36/62/6 37/46/6
f 38/48/5 35/49/5 17/49/5
f 16/50/6 30/50/6 32/51/6
f 33/52/5 29/53/5 3/53/5
f 2/54/6 15/17/6 26/11/6
