# Blender 4.2.0
# www.blender.org
mtllib BrickWeird02.mtl
o BrickWeird02
v 0.250000 0.250000 0.250000
v -0.250000 0.250000 0.250000
v 0.250000 -0.250000 0.250000
v -0.000000 -0.000000 0.375000
v 0.250000 0.250000 -0.250000
v -0.000000 0.375000 -0.000000
v 0.375000 0.000000 0.000000
v 0.250000 -0.250000 -0.250000
v -0.250000 0.250000 -0.250000
v -0.250000 -0.250000 -0.250000
v 0.000000 -0.000000 -0.375000
v -0.250000 -0.250000 0.250000
v 0.000000 -0.375000 -0.000000
v -0.375000 0.000000 0.000000
vn -0.4472 -0.0000 0.8944
vn -0.0000 -0.4472 0.8944
vn -0.0000 0.4472 0.8944
vn 0.4472 -0.0000 0.8944
vn -0.0000 0.8944 -0.4472
vn -0.4472 0.8944 -0.0000
vn 0.4472 0.8944 -0.0000
vn -0.0000 0.8944 0.4472
vn 0.8944 -0.0000 -0.4472
vn 0.8944 0.4472 -0.0000
vn 0.8944 -0.4472 -0.0000
vn 0.8944 -0.0000 0.4472
vn -0.4472 -0.0000 -0.8944
vn -0.0000 0.4472 -0.8944
vn -0.0000 -0.4472 -0.8944
vn 0.4472 -0.0000 -0.8944
vn -0.4472 -0.8944 -0.0000
vn -0.0000 -0.8944 -0.4472
vn -0.0000 -0.8944 0.4472
vn 0.4472 -0.8944 -0.0000
vn -0.8944 -0.0000 -0.4472
vn -0.8944 -0.4472 -0.0000
vn -0.8944 0.4472 -0.0000
vn -0.8944 -0.0000 0.4472
vt 0.499950 0.500050
vt 0.499950 0.999950
vt 0.250000 0.750000
vt 0.000050 0.999950
vt 0.000050 0.500050
vt 0.999950 0.500050
vt 0.999950 0.999950
vt 0.750000 0.750000
vt 0.500050 0.999950
vt 0.500050 0.500050
vt 0.499950 0.000050
vt 0.499950 0.499950
vt 0.250000 0.250000
vt 0.000050 0.499950
vt 0.000050 0.000050
vt 0.999950 0.000050
vt 0.999950 0.499950
vt 0.750000 0.250000
vt 0.500050 0.499950
vt 0.500050 0.000050
s 0
usemtl Primary
f 2/1/1 12/2/1 4/3/1
f 12/2/2 3/4/2 4/3/2
f 2/1/3 4/3/3 1/5/3
f 1/5/4 4/3/4 3/4/4
f 5/6/5 9/7/5 6/8/5
f 9/7/6 2/9/6 6/8/6
f 5/6/7 6/8/7 1/10/7
f 1/10/8 6/8/8 2/9/8
f 8/11/9 5/12/9 7/13/9
f 5/12/10 1/14/10 7/13/10
f 8/11/11 7/13/11 3/15/11
f 3/15/12 7/13/12 1/14/12
f 10/16/13 9/17/13 11/18/13
f 9/17/14 5/19/14 11/18/14
f 10/16/15 11/18/15 8/20/15
f 8/20/16 11/18/16 5/19/16
f 12/11/17 10/12/17 13/13/17
f 10/12/18 8/14/18 13/13/18
f 12/11/19 13/13/19 3/15/19
f 3/15/20 13/13/20 8/14/20
f 9/6/21 10/7/21 14/8/21
f 10/7/22 12/9/22 14/8/22
f 9/6/23 14/8/23 2/10/23
f 2/10/24 14/8/24 12/9/24
