# Blender 4.2.0
# www.blender.org
mtllib BrickWeird01.mtl
o BrickWeird01
v 0.125000 0.500000 -0.125000
v 0.125000 0.000000 -0.125000
v 0.125000 0.500000 0.125000
v 0.125000 0.000000 0.125000
v -0.125000 0.500000 -0.125000
v -0.125000 0.000000 -0.125000
v -0.125000 0.500000 0.125000
v -0.125000 0.000000 0.125000
vn -0.0000 -1.0000 -0.0000
vn -1.0000 -0.0000 -0.0000
vn -0.0000 -0.0000 1.0000
vn -0.0000 1.0000 -0.0000
vn 1.0000 -0.0000 -0.0000
vn -0.0000 -0.0000 -1.0000
vt 0.593750 0.250000
vt 0.375000 0.031250
vt 0.593750 0.031250
vt 0.375000 0.250000
vt 0.593750 0.750000
vt 0.375000 0.750000
vt 0.125000 0.250000
vt 0.593750 1.000000
vt 0.375000 0.781250
vt 0.593750 0.781250
vt 0.843750 0.750000
vt 0.843750 0.250000
vt 0.125000 0.750000
vt 0.375000 1.000000
s 0
usemtl Primary
f 2/1/1 8/2/1 6/3/1
f 7/4/2 6/5/2 8/6/2
f 3/6/3 8/7/3 4/4/3
f 5/8/4 3/9/4 1/10/4
f 1/5/5 4/4/5 2/1/5
f 5/11/6 2/1/6 6/12/6
f 2/1/1 4/4/1 8/2/1
f 7/4/2 5/1/2 6/5/2
f 3/6/3 7/13/3 8/7/3
f 5/8/4 7/14/4 3/9/4
f 1/5/5 3/6/5 4/4/5
f 5/11/6 1/5/6 2/1/6
