# Blender 4.2.0
# www.blender.org
mtllib Briefcase01a.mtl
o Briefcase01a
v 0.112500 0.750000 -0.562500
v 0.112500 0.000000 -0.562500
v 0.112500 0.750000 0.562500
v 0.112500 0.000000 0.562500
v -0.112500 0.750000 -0.562500
v -0.112500 0.000000 -0.562500
v -0.112500 0.750000 0.562500
v -0.112500 0.000000 0.562500
v 0.025976 0.836588 -0.129882
v 0.025976 0.750000 -0.194822
v 0.025976 0.836588 0.129882
v 0.025976 0.750000 0.194822
v -0.025976 0.836588 -0.129882
v -0.025976 0.750000 -0.194822
v -0.025976 0.836588 0.129882
v -0.025976 0.750000 0.194822
vn -0.0000 1.0000 -0.0000
vn -0.0000 -0.0000 1.0000
vn -1.0000 -0.0000 -0.0000
vn -0.0000 -1.0000 -0.0000
vn 1.0000 -0.0000 -0.0000
vn -0.0000 -0.0000 -1.0000
vn -0.0000 0.6000 0.8000
vn -0.0000 0.6000 -0.8000
vt 0.794118 0.486607
vt 1.000000 0.000000
vt 1.000000 0.486607
vt 1.000000 1.000000
vt 0.794118 0.705357
vt 1.000000 0.705357
vt 0.000000 0.991071
vt 0.000000 0.705357
vt 0.000000 0.000000
vt 0.794118 0.129464
vt 0.000000 0.129464
vt 0.794118 0.700893
vt 0.000000 0.424107
vt 0.794118 0.424107
vt 1.000000 0.991071
vt 0.794118 0.991071
vt 0.911765 0.196429
vt 0.860294 0.299107
vt 0.860294 0.196429
vt 0.911765 0.334821
vt 0.860294 0.334821
vt 0.507353 0.723214
vt 0.294118 0.683036
vt 0.551471 0.683036
vt 0.338235 0.723214
vt 0.860294 0.160714
vt 0.911765 0.160714
vt 0.794118 0.000000
vt 0.794118 1.000000
vt 0.000000 0.700893
vt 0.911765 0.299107
s 0
usemtl Primary
f 5/1/1 3/2/1 1/3/1
f 3/4/2 8/5/2 4/6/2
f 7/7/3 6/5/3 8/8/3
f 2/9/4 8/10/4 6/11/4
f 1/12/5 4/13/5 2/14/5
f 5/5/6 2/15/6 6/16/6
f 13/17/1 11/18/1 9/19/1
f 11/18/7 16/20/7 12/21/7
f 15/22/3 14/23/3 16/24/3
f 9/25/5 12/24/5 10/23/5
f 13/17/8 10/26/8 14/27/8
f 5/1/1 7/28/1 3/2/1
f 3/4/2 7/29/2 8/5/2
f 7/7/3 5/16/3 6/5/3
f 2/9/4 4/28/4 8/10/4
f 1/12/5 3/30/5 4/13/5
f 5/5/6 1/6/6 2/15/6
f 13/17/1 15/31/1 11/18/1
f 11/18/7 15/31/7 16/20/7
f 15/22/3 13/25/3 14/23/3
f 9/25/5 11/22/5 12/24/5
f 13/17/8 9/19/8 10/26/8
