# Blender 4.2.0
# www.blender.org
mtllib DragonTeeth01.mtl
o DragonTeeth01
v -0.562366 0.000000 0.562366
v -0.337420 1.374911 0.337420
v -0.562366 0.000000 -0.562366
v -0.337420 1.374911 -0.337420
v 0.562366 0.000000 0.562366
v 0.337420 1.374911 0.337420
v 0.562366 0.000000 -0.562366
v 0.337420 1.374911 -0.337420
v -0.074922 1.374911 0.015520
v -0.073200 1.413056 0.015520
v -0.074922 1.374911 -0.015520
v -0.073200 1.413056 -0.015520
v -0.045604 1.374911 0.015520
v -0.045604 1.398846 0.015520
v -0.045604 1.374911 -0.015520
v -0.045604 1.398846 -0.015520
v -0.001347 1.459959 0.015520
v -0.001347 1.459959 -0.015520
v -0.001347 1.429899 -0.015520
v -0.001347 1.429899 0.015520
v 0.072227 1.374911 -0.015520
v 0.070505 1.413056 -0.015520
v 0.072227 1.374911 0.015520
v 0.070505 1.413056 0.015520
v 0.042909 1.374911 -0.015520
v 0.042909 1.398846 -0.015520
v 0.042909 1.374911 0.015520
v 0.042909 1.398846 0.015520
v 1.937634 0.000000 4.562366
v 2.162580 1.374911 4.337420
v 1.937634 0.000000 3.437634
v 2.162580 1.374911 3.662580
v 3.062366 0.000000 4.562366
v 2.837420 1.374911 4.337420
v 3.062366 0.000000 3.437634
v 2.837420 1.374911 3.662580
v 2.425078 1.374911 4.015520
v 2.426800 1.413056 4.015520
v 2.425078 1.374911 3.984480
v 2.426800 1.413056 3.984480
v 2.454396 1.374911 4.015520
v 2.454396 1.398846 4.015520
v 2.454396 1.374911 3.984480
v 2.454396 1.398846 3.984480
v 2.498653 1.459959 4.015520
v 2.498653 1.459959 3.984480
v 2.498653 1.429899 3.984480
v 2.498653 1.429899 4.015520
v 2.572227 1.374911 3.984480
v 2.570505 1.413056 3.984480
v 2.572227 1.374911 4.015520
v 2.570505 1.413056 4.015520
v 2.542909 1.374911 3.984480
v 2.542909 1.398846 3.984480
v 2.542909 1.374911 4.015520
v 2.542909 1.398846 4.015520
v 4.437634 0.000000 0.562366
v 4.662580 1.374911 0.337420
v 4.437634 0.000000 -0.562366
v 4.662580 1.374911 -0.337420
v 5.562366 0.000000 0.562366
v 5.337420 1.374911 0.337420
v 5.562366 0.000000 -0.562366
v 5.337420 1.374911 -0.337420
v 4.925078 1.374911 0.015520
v 4.926800 1.413056 0.015520
v 4.925078 1.374911 -0.015520
v 4.926800 1.413056 -0.015520
v 4.954396 1.374911 0.015520
v 4.954396 1.398846 0.015520
v 4.954396 1.374911 -0.015520
v 4.954396 1.398846 -0.015520
v 4.998652 1.459959 0.015520
v 4.998652 1.459959 -0.015520
v 4.998652 1.429899 -0.015520
v 4.998652 1.429899 0.015520
v 5.072227 1.374911 -0.015520
v 5.070505 1.413056 -0.015520
v 5.072227 1.374911 0.015520
v 5.070505 1.413056 0.015520
v 5.042909 1.374911 -0.015520
v 5.042909 1.398846 -0.015520
v 5.042909 1.374911 0.015520
v 5.042909 1.398846 0.015520
v 6.937634 0.000000 4.562366
v 7.162580 1.374911 4.337420
v 6.937634 0.000000 3.437634
v 7.162580 1.374911 3.662580
v 8.062366 0.000000 4.562366
v 7.837420 1.374911 4.337420
v 8.062366 0.000000 3.437634
v 7.837420 1.374911 3.662580
v 7.425078 1.374911 4.015520
v 7.426800 1.413056 4.015520
v 7.425078 1.374911 3.984480
v 7.426800 1.413056 3.984480
v 7.454396 1.374911 4.015520
v 7.454396 1.398846 4.015520
v 7.454396 1.374911 3.984480
v 7.454396 1.398846 3.984480
v 7.498652 1.459959 4.015520
v 7.498652 1.459959 3.984480
v 7.498652 1.429899 3.984480
v 7.498652 1.429899 4.015520
v 7.572227 1.374911 3.984480
v 7.570505 1.413056 3.984480
v 7.572227 1.374911 4.015520
v 7.570505 1.413056 4.015520
v 7.542909 1.374911 3.984480
v 7.542909 1.398846 3.984480
v 7.542909 1.374911 4.015520
v 7.542909 1.398846 4.015520
v -5.562366 0.000000 0.562366
v -5.337420 1.374911 0.337420
v -5.562366 0.000000 -0.562366
v -5.337420 1.374911 -0.337420
v -4.437634 0.000000 0.562366
v -4.662580 1.374911 0.337420
v -4.437634 0.000000 -0.562366
v -4.662580 1.374911 -0.337420
v -5.074922 1.374911 0.015520
v -5.073200 1.413056 0.015520
v -5.074922 1.374911 -0.015520
v -5.073200 1.413056 -0.015520
v -5.045604 1.374911 0.015520
v -5.045604 1.398846 0.015520
v -5.045604 1.374911 -0.015520
v -5.045604 1.398846 -0.015520
v -5.001348 1.459959 0.015520
v -5.001348 1.459959 -0.015520
v -5.001348 1.429899 -0.015520
v -5.001348 1.429899 0.015520
v -4.927773 1.374911 -0.015520
v -4.929495 1.413056 -0.015520
v -4.927773 1.374911 0.015520
v -4.929495 1.413056 0.015520
v -4.957091 1.374911 -0.015520
v -4.957091 1.398846 -0.015520
v -4.957091 1.374911 0.015520
v -4.957091 1.398846 0.015520
v -3.062366 0.000000 4.562366
v -2.837420 1.374911 4.337420
v -3.062366 0.000000 3.437634
v -2.837420 1.374911 3.662580
v -1.937634 0.000000 4.562366
v -2.162580 1.374911 4.337420
v -1.937634 0.000000 3.437634
v -2.162580 1.374911 3.662580
v -2.574922 1.374911 4.015520
v -2.573200 1.413056 4.015520
v -2.574922 1.374911 3.984480
v -2.573200 1.413056 3.984480
v -2.545604 1.374911 4.015520
v -2.545604 1.398846 4.015520
v -2.545604 1.374911 3.984480
v -2.545604 1.398846 3.984480
v -2.501347 1.459959 4.015520
v -2.501347 1.459959 3.984480
v -2.501347 1.429899 3.984480
v -2.501347 1.429899 4.015520
v -2.427773 1.374911 3.984480
v -2.429495 1.413056 3.984480
v -2.427773 1.374911 4.015520
v -2.429495 1.413056 4.015520
v -2.457091 1.374911 3.984480
v -2.457091 1.398846 3.984480
v -2.457091 1.374911 4.015520
v -2.457091 1.398846 4.015520
v -10.562366 0.000000 0.562366
v -10.337420 1.374911 0.337420
v -10.562366 0.000000 -0.562366
v -10.337420 1.374911 -0.337420
v -9.437634 0.000000 0.562366
v -9.662580 1.374911 0.337420
v -9.437634 0.000000 -0.562366
v -9.662580 1.374911 -0.337420
v -10.074923 1.374911 0.015520
v -10.073200 1.413056 0.015520
v -10.074923 1.374911 -0.015520
v -10.073200 1.413056 -0.015520
v -10.045604 1.374911 0.015520
v -10.045604 1.398846 0.015520
v -10.045604 1.374911 -0.015520
v -10.045604 1.398846 -0.015520
v -10.001348 1.459959 0.015520
v -10.001348 1.459959 -0.015520
v -10.001348 1.429899 -0.015520
v -10.001348 1.429899 0.015520
v -9.927773 1.374911 -0.015520
v -9.929495 1.413056 -0.015520
v -9.927773 1.374911 0.015520
v -9.929495 1.413056 0.015520
v -9.957091 1.374911 -0.015520
v -9.957091 1.398846 -0.015520
v -9.957091 1.374911 0.015520
v -9.957091 1.398846 0.015520
v -8.062366 0.000000 4.562366
v -7.837420 1.374911 4.337420
v -8.062366 0.000000 3.437634
v -7.837420 1.374911 3.662580
v -6.937634 0.000000 4.562366
v -7.162580 1.374911 4.337420
v -6.937634 0.000000 3.437634
v -7.162580 1.374911 3.662580
v -7.574922 1.374911 4.015520
v -7.573200 1.413056 4.015520
v -7.574922 1.374911 3.984480
v -7.573200 1.413056 3.984480
v -7.545604 1.374911 4.015520
v -7.545604 1.398846 4.015520
v -7.545604 1.374911 3.984480
v -7.545604 1.398846 3.984480
v -7.501348 1.459959 4.015520
v -7.501348 1.459959 3.984480
v -7.501348 1.429899 3.984480
v -7.501348 1.429899 4.015520
v -7.427773 1.374911 3.984480
v -7.429495 1.413056 3.984480
v -7.427773 1.374911 4.015520
v -7.429495 1.413056 4.015520
v -7.457091 1.374911 3.984480
v -7.457091 1.398846 3.984480
v -7.457091 1.374911 4.015520
v -7.457091 1.398846 4.015520
v 9.437634 0.000000 0.562366
v 9.662580 1.374911 0.337420
v 9.437634 0.000000 -0.562366
v 9.662580 1.374911 -0.337420
v 10.562366 0.000000 0.562366
v 10.337420 1.374911 0.337420
v 10.562366 0.000000 -0.562366
v 10.337420 1.374911 -0.337420
v 9.925077 1.374911 0.015520
v 9.926800 1.413056 0.015520
v 9.925077 1.374911 -0.015520
v 9.926800 1.413056 -0.015520
v 9.954396 1.374911 0.015520
v 9.954396 1.398846 0.015520
v 9.954396 1.374911 -0.015520
v 9.954396 1.398846 -0.015520
v 9.998652 1.459959 0.015520
v 9.998652 1.459959 -0.015520
v 9.998652 1.429899 -0.015520
v 9.998652 1.429899 0.015520
v 10.072227 1.374911 -0.015520
v 10.070505 1.413056 -0.015520
v 10.072227 1.374911 0.015520
v 10.070505 1.413056 0.015520
v 10.042909 1.374911 -0.015520
v 10.042909 1.398846 -0.015520
v 10.042909 1.374911 0.015520
v 10.042909 1.398846 0.015520
v 11.937634 0.000000 4.562366
v 12.162580 1.374911 4.337420
v 11.937634 0.000000 3.437634
v 12.162580 1.374911 3.662580
v 13.062366 0.000000 4.562366
v 12.837420 1.374911 4.337420
v 13.062366 0.000000 3.437634
v 12.837420 1.374911 3.662580
v 12.425078 1.374911 4.015520
v 12.426800 1.413056 4.015520
v 12.425078 1.374911 3.984480
v 12.426800 1.413056 3.984480
v 12.454396 1.374911 4.015520
v 12.454396 1.398846 4.015520
v 12.454396 1.374911 3.984480
v 12.454396 1.398846 3.984480
v 12.498652 1.459959 4.015520
v 12.498652 1.459959 3.984480
v 12.498652 1.429899 3.984480
v 12.498652 1.429899 4.015520
v 12.572227 1.374911 3.984480
v 12.570505 1.413056 3.984480
v 12.572227 1.374911 4.015520
v 12.570505 1.413056 4.015520
v 12.542909 1.374911 3.984480
v 12.542909 1.398846 3.984480
v 12.542909 1.374911 4.015520
v 12.542909 1.398846 4.015520
vn -0.9869 0.1615 -0.0000
vn -0.0000 0.1615 -0.9869
vn 0.9869 0.1615 -0.0000
vn -0.0000 0.1615 0.9869
vn -0.0000 1.0000 -0.0000
vn -0.9990 0.0451 -0.0000
vn -0.0000 -0.0000 -1.0000
vn 1.0000 -0.0000 -0.0000
vn -0.0000 -0.0000 1.0000
vn 0.5744 -0.8186 -0.0000
vn -0.5466 0.8374 -0.0000
vn 0.9990 0.0451 -0.0000
vn -1.0000 -0.0000 -0.0000
vn -0.5744 -0.8186 -0.0000
vn 0.5466 0.8374 -0.0000
vt 0.898438 0.617188
vt 0.500000 -0.000000
vt 1.000000 -0.000000
vt 0.398438 0.617188
vt 0.000000 -0.000000
vt 0.335938 0.664062
vt 0.664062 0.335938
vt 0.664062 0.664062
vt 0.359375 0.906250
vt 0.289062 0.976562
vt 0.289062 0.906250
vt 0.289062 0.851562
vt 0.359375 0.851562
vt 0.484375 0.906250
vt 0.484375 0.976562
vt 0.359375 0.976562
vt 0.484375 0.851562
vt 0.617188 0.976562
vt 0.679688 0.906250
vt 0.679688 0.976562
vt 0.617188 0.851562
vt 0.679688 0.851562
vt 0.617188 0.906250
vt 0.101562 0.617188
vt 0.601562 0.617188
vt 0.335938 0.335938
s 0
usemtl Primary
f 2/1/1 3/2/1 1/3/1
f 4/1/2 7/2/2 3/3/2
f 8/4/3 5/5/3 7/2/3
f 6/4/4 1/5/4 5/2/4
f 4/6/5 6/7/5 8/8/5
f 10/9/6 11/10/6 9/11/6
f 11/12/7 16/9/7 15/11/7
f 16/9/8 13/10/8 15/11/8
f 14/13/9 9/11/9 13/12/9
f 12/13/7 19/14/7 16/9/7
f 16/9/10 20/15/10 14/16/10
f 10/9/11 18/15/11 12/16/11
f 10/9/9 20/17/9 17/14/9
f 22/18/12 23/19/12 21/20/12
f 23/19/9 28/21/9 27/22/9
f 28/18/13 25/19/13 27/20/13
f 26/23/7 21/22/7 25/19/7
f 24/23/9 20/17/9 28/21/9
f 28/18/14 19/14/14 26/23/14
f 22/18/15 17/14/15 24/23/15
f 22/21/7 19/14/7 18/17/7
f 30/1/1 31/2/1 29/3/1
f 32/1/2 35/2/2 31/3/2
f 35/2/3 34/24/3 33/5/3
f 34/4/4 29/5/4 33/2/4
f 32/6/5 34/7/5 36/8/5
f 38/9/6 39/10/6 37/11/6
f 39/12/7 44/9/7 43/11/7
f 44/9/8 41/10/8 43/11/8
f 42/13/9 37/11/9 41/12/9
f 40/13/7 47/14/7 44/9/7
f 44/9/10 48/15/10 42/16/10
f 38/9/11 46/15/11 40/16/11
f 38/9/9 48/17/9 45/14/9
f 50/18/12 51/19/12 49/20/12
f 51/19/9 56/21/9 55/22/9
f 56/18/13 53/19/13 55/20/13
f 54/23/7 49/22/7 53/19/7
f 52/23/9 48/17/9 56/21/9
f 56/18/14 47/14/14 54/23/14
f 50/18/15 45/14/15 52/23/15
f 50/21/7 47/14/7 46/17/7
f 58/1/1 59/2/1 57/3/1
f 60/1/2 63/2/2 59/3/2
f 64/4/3 61/5/3 63/2/3
f 62/4/4 57/5/4 61/2/4
f 60/6/5 62/7/5 64/8/5
f 66/9/6 67/10/6 65/11/6
f 67/12/7 72/9/7 71/11/7
f 72/9/8 69/10/8 71/11/8
f 70/13/9 65/11/9 69/12/9
f 68/13/7 75/14/7 72/9/7
f 70/16/10 75/14/10 76/15/10
f 66/9/11 74/15/11 68/16/11
f 66/9/9 76/17/9 73/14/9
f 78/18/12 79/19/12 77/20/12
f 79/19/9 84/21/9 83/22/9
f 84/18/13 81/19/13 83/20/13
f 82/23/7 77/22/7 81/19/7
f 80/23/9 76/17/9 84/21/9
f 84/18/14 75/14/14 82/23/14
f 78/18/15 73/14/15 80/23/15
f 78/21/7 75/14/7 74/17/7
f 86/1/1 87/2/1 85/3/1
f 88/1/2 91/2/2 87/3/2
f 92/4/3 89/5/3 91/2/3
f 90/4/4 85/5/4 89/2/4
f 88/6/5 90/7/5 92/8/5
f 94/9/6 95/10/6 93/11/6
f 95/12/7 100/9/7 99/11/7
f 100/9/8 97/10/8 99/11/8
f 98/13/9 93/11/9 97/12/9
f 96/13/7 103/14/7 100/9/7
f 100/9/10 104/15/10 98/16/10
f 94/9/11 102/15/11 96/16/11
f 94/9/9 104/17/9 101/14/9
f 106/18/12 107/19/12 105/20/12
f 107/19/9 112/21/9 111/22/9
f 112/18/13 109/19/13 111/20/13
f 110/23/7 105/22/7 109/19/7
f 108/23/9 104/17/9 112/21/9
f 112/18/14 103/14/14 110/23/14
f 106/18/15 101/14/15 108/23/15
f 106/21/7 103/14/7 102/17/7
f 114/1/1 115/2/1 113/3/1
f 116/1/2 119/2/2 115/3/2
f 120/4/3 117/5/3 119/2/3
f 118/4/4 113/5/4 117/2/4
f 116/6/5 118/7/5 120/8/5
f 122/9/6 123/10/6 121/11/6
f 123/12/7 128/9/7 127/11/7
f 128/9/8 125/10/8 127/11/8
f 126/13/9 121/11/9 125/12/9
f 124/13/7 131/14/7 128/9/7
f 128/9/10 132/15/10 126/16/10
f 122/9/11 130/15/11 124/16/11
f 122/9/9 132/17/9 129/14/9
f 134/18/12 135/19/12 133/20/12
f 135/19/9 140/21/9 139/22/9
f 140/18/13 137/19/13 139/20/13
f 138/23/7 133/22/7 137/19/7
f 136/23/9 132/17/9 140/21/9
f 140/18/14 131/14/14 138/23/14
f 136/23/15 130/15/15 129/14/15
f 134/21/7 131/14/7 130/17/7
f 142/1/1 143/2/1 141/3/1
f 144/1/2 147/2/2 143/3/2
f 148/4/3 145/5/3 147/2/3
f 145/2/4 142/24/4 141/5/4
f 144/6/5 146/7/5 148/8/5
f 150/9/6 151/10/6 149/11/6
f 151/12/7 156/9/7 155/11/7
f 156/9/8 153/10/8 155/11/8
f 154/13/9 149/11/9 153/12/9
f 152/13/7 159/14/7 156/9/7
f 156/9/10 160/15/10 154/16/10
f 150/9/11 158/15/11 152/16/11
f 150/9/9 160/17/9 157/14/9
f 162/18/12 163/19/12 161/20/12
f 163/19/9 168/21/9 167/22/9
f 168/18/13 165/19/13 167/20/13
f 166/23/7 161/22/7 165/19/7
f 164/23/9 160/17/9 168/21/9
f 168/18/14 159/14/14 166/23/14
f 162/18/15 157/14/15 164/23/15
f 162/21/7 159/14/7 158/17/7
f 170/1/1 171/2/1 169/3/1
f 172/1/2 175/2/2 171/3/2
f 176/4/3 173/5/3 175/2/3
f 174/4/4 169/5/4 173/2/4
f 172/6/5 174/7/5 176/8/5
f 177/11/6 180/16/6 179/10/6
f 179/12/7 184/9/7 183/11/7
f 184/9/8 181/10/8 183/11/8
f 182/13/9 177/11/9 181/12/9
f 180/13/7 187/14/7 184/9/7
f 182/16/10 187/14/10 188/15/10
f 178/9/11 186/15/11 180/16/11
f 178/9/9 188/17/9 185/14/9
f 190/18/12 191/19/12 189/20/12
f 191/19/9 196/21/9 195/22/9
f 196/18/13 193/19/13 195/20/13
f 194/23/7 189/22/7 193/19/7
f 192/23/9 188/17/9 196/21/9
f 196/18/14 187/14/14 194/23/14
f 192/23/15 186/15/15 185/14/15
f 190/21/7 187/14/7 186/17/7
f 198/1/1 199/2/1 197/3/1
f 200/1/2 203/2/2 199/3/2
f 204/4/3 201/5/3 203/2/3
f 202/4/4 197/5/4 201/2/4
f 200/6/5 202/7/5 204/8/5
f 206/9/6 207/10/6 205/11/6
f 207/12/7 212/9/7 211/11/7
f 212/9/8 209/10/8 211/11/8
f 210/13/9 205/11/9 209/12/9
f 208/13/7 215/14/7 212/9/7
f 212/9/10 216/15/10 210/16/10
f 206/9/11 214/15/11 208/16/11
f 206/9/9 216/17/9 213/14/9
f 218/18/12 219/19/12 217/20/12
f 219/19/9 224/21/9 223/22/9
f 224/18/13 221/19/13 223/20/13
f 222/23/7 217/22/7 221/19/7
f 220/23/9 216/17/9 224/21/9
f 224/18/14 215/14/14 222/23/14
f 218/18/15 213/14/15 220/23/15
f 218/21/7 215/14/7 214/17/7
f 226/1/1 227/2/1 225/3/1
f 228/1/2 231/2/2 227/3/2
f 232/4/3 229/5/3 231/2/3
f 230/4/4 225/5/4 229/2/4
f 228/6/5 230/7/5 232/8/5
f 234/9/6 235/10/6 233/11/6
f 235/12/7 240/9/7 239/11/7
f 240/9/8 237/10/8 239/11/8
f 238/13/9 233/11/9 237/12/9
f 236/13/7 243/14/7 240/9/7
f 238/16/10 243/14/10 244/15/10
f 234/9/11 242/15/11 236/16/11
f 234/9/9 244/17/9 241/14/9
f 246/18/12 247/19/12 245/20/12
f 247/19/9 252/21/9 251/22/9
f 252/18/13 249/19/13 251/20/13
f 250/23/7 245/22/7 249/19/7
f 248/23/9 244/17/9 252/21/9
f 252/18/14 243/14/14 250/23/14
f 248/23/15 242/15/15 241/14/15
f 246/21/7 243/14/7 242/17/7
f 254/1/1 255/2/1 253/3/1
f 256/1/2 259/2/2 255/3/2
f 260/4/3 257/5/3 259/2/3
f 257/2/4 254/24/4 253/5/4
f 256/6/5 258/7/5 260/8/5
f 262/9/6 263/10/6 261/11/6
f 263/12/7 268/9/7 267/11/7
f 268/9/8 265/10/8 267/11/8
f 266/13/9 261/11/9 265/12/9
f 264/13/7 271/14/7 268/9/7
f 268/9/10 272/15/10 266/16/10
f 262/9/11 270/15/11 264/16/11
f 262/9/9 272/17/9 269/14/9
f 274/18/12 275/19/12 273/20/12
f 275/19/9 280/21/9 279/22/9
f 280/18/13 277/19/13 279/20/13
f 278/23/7 273/22/7 277/19/7
f 276/23/9 272/17/9 280/21/9
f 280/18/14 271/14/14 278/23/14
f 274/18/15 269/14/15 276/23/15
f 274/21/7 271/14/7 270/17/7
f 2/1/1 4/25/1 3/2/1
f 4/1/2 8/25/2 7/2/2
f 8/4/3 6/24/3 5/5/3
f 6/4/4 2/24/4 1/5/4
f 4/6/5 2/26/5 6/7/5
f 10/9/6 12/16/6 11/10/6
f 11/12/7 12/13/7 16/9/7
f 16/9/8 14/16/8 13/10/8
f 14/13/9 10/9/9 9/11/9
f 12/13/7 18/17/7 19/14/7
f 16/9/10 19/14/10 20/15/10
f 10/9/11 17/14/11 18/15/11
f 10/9/9 14/13/9 20/17/9
f 22/18/12 24/23/12 23/19/12
f 23/19/9 24/23/9 28/21/9
f 28/18/13 26/23/13 25/19/13
f 26/23/7 22/21/7 21/22/7
f 24/23/9 17/14/9 20/17/9
f 28/18/14 20/15/14 19/14/14
f 22/18/15 18/15/15 17/14/15
f 22/21/7 26/23/7 19/14/7
f 30/1/1 32/25/1 31/2/1
f 32/1/2 36/25/2 35/2/2
f 35/2/3 36/4/3 34/24/3
f 34/4/4 30/24/4 29/5/4
f 32/6/5 30/26/5 34/7/5
f 38/9/6 40/16/6 39/10/6
f 39/12/7 40/13/7 44/9/7
f 44/9/8 42/16/8 41/10/8
f 42/13/9 38/9/9 37/11/9
f 40/13/7 46/17/7 47/14/7
f 44/9/10 47/14/10 48/15/10
f 38/9/11 45/14/11 46/15/11
f 38/9/9 42/13/9 48/17/9
f 50/18/12 52/23/12 51/19/12
f 51/19/9 52/23/9 56/21/9
f 56/18/13 54/23/13 53/19/13
f 54/23/7 50/21/7 49/22/7
f 52/23/9 45/14/9 48/17/9
f 56/18/14 48/15/14 47/14/14
f 50/18/15 46/15/15 45/14/15
f 50/21/7 54/23/7 47/14/7
f 58/1/1 60/25/1 59/2/1
f 60/1/2 64/25/2 63/2/2
f 64/4/3 62/24/3 61/5/3
f 62/4/4 58/24/4 57/5/4
f 60/6/5 58/26/5 62/7/5
f 66/9/6 68/16/6 67/10/6
f 67/12/7 68/13/7 72/9/7
f 72/9/8 70/16/8 69/10/8
f 70/13/9 66/9/9 65/11/9
f 68/13/7 74/17/7 75/14/7
f 70/16/10 72/9/10 75/14/10
f 66/9/11 73/14/11 74/15/11
f 66/9/9 70/13/9 76/17/9
f 78/18/12 80/23/12 79/19/12
f 79/19/9 80/23/9 84/21/9
f 84/18/13 82/23/13 81/19/13
f 82/23/7 78/21/7 77/22/7
f 80/23/9 73/14/9 76/17/9
f 84/18/14 76/15/14 75/14/14
f 78/18/15 74/15/15 73/14/15
f 78/21/7 82/23/7 75/14/7
f 86/1/1 88/25/1 87/2/1
f 88/1/2 92/25/2 91/2/2
f 92/4/3 90/24/3 89/5/3
f 90/4/4 86/24/4 85/5/4
f 88/6/5 86/26/5 90/7/5
f 94/9/6 96/16/6 95/10/6
f 95/12/7 96/13/7 100/9/7
f 100/9/8 98/16/8 97/10/8
f 98/13/9 94/9/9 93/11/9
f 96/13/7 102/17/7 103/14/7
f 100/9/10 103/14/10 104/15/10
f 94/9/11 101/14/11 102/15/11
f 94/9/9 98/13/9 104/17/9
f 106/18/12 108/23/12 107/19/12
f 107/19/9 108/23/9 112/21/9
f 112/18/13 110/23/13 109/19/13
f 110/23/7 106/21/7 105/22/7
f 108/23/9 101/14/9 104/17/9
f 112/18/14 104/15/14 103/14/14
f 106/18/15 102/15/15 101/14/15
f 106/21/7 110/23/7 103/14/7
f 114/1/1 116/25/1 115/2/1
f 116/1/2 120/25/2 119/2/2
f 120/4/3 118/24/3 117/5/3
f 118/4/4 114/24/4 113/5/4
f 116/6/5 114/26/5 118/7/5
f 122/9/6 124/16/6 123/10/6
f 123/12/7 124/13/7 128/9/7
f 128/9/8 126/16/8 125/10/8
f 126/13/9 122/9/9 121/11/9
f 124/13/7 130/17/7 131/14/7
f 128/9/10 131/14/10 132/15/10
f 122/9/11 129/14/11 130/15/11
f 122/9/9 126/13/9 132/17/9
f 134/18/12 136/23/12 135/19/12
f 135/19/9 136/23/9 140/21/9
f 140/18/13 138/23/13 137/19/13
f 138/23/7 134/21/7 133/22/7
f 136/23/9 129/14/9 132/17/9
f 140/18/14 132/15/14 131/14/14
f 136/23/15 134/18/15 130/15/15
f 134/21/7 138/23/7 131/14/7
f 142/1/1 144/25/1 143/2/1
f 144/1/2 148/25/2 147/2/2
f 148/4/3 146/24/3 145/5/3
f 145/2/4 146/4/4 142/24/4
f 144/6/5 142/26/5 146/7/5
f 150/9/6 152/16/6 151/10/6
f 151/12/7 152/13/7 156/9/7
f 156/9/8 154/16/8 153/10/8
f 154/13/9 150/9/9 149/11/9
f 152/13/7 158/17/7 159/14/7
f 156/9/10 159/14/10 160/15/10
f 150/9/11 157/14/11 158/15/11
f 150/9/9 154/13/9 160/17/9
f 162/18/12 164/23/12 163/19/12
f 163/19/9 164/23/9 168/21/9
f 168/18/13 166/23/13 165/19/13
f 166/23/7 162/21/7 161/22/7
f 164/23/9 157/14/9 160/17/9
f 168/18/14 160/15/14 159/14/14
f 162/18/15 158/15/15 157/14/15
f 162/21/7 166/23/7 159/14/7
f 170/1/1 172/25/1 171/2/1
f 172/1/2 176/25/2 175/2/2
f 176/4/3 174/24/3 173/5/3
f 174/4/4 170/24/4 169/5/4
f 172/6/5 170/26/5 174/7/5
f 177/11/6 178/9/6 180/16/6
f 179/12/7 180/13/7 184/9/7
f 184/9/8 182/16/8 181/10/8
f 182/13/9 178/9/9 177/11/9
f 180/13/7 186/17/7 187/14/7
f 182/16/10 184/9/10 187/14/10
f 178/9/11 185/14/11 186/15/11
f 178/9/9 182/13/9 188/17/9
f 190/18/12 192/23/12 191/19/12
f 191/19/9 192/23/9 196/21/9
f 196/18/13 194/23/13 193/19/13
f 194/23/7 190/21/7 189/22/7
f 192/23/9 185/14/9 188/17/9
f 196/18/14 188/15/14 187/14/14
f 192/23/15 190/18/15 186/15/15
f 190/21/7 194/23/7 187/14/7
f 198/1/1 200/25/1 199/2/1
f 200/1/2 204/25/2 203/2/2
f 204/4/3 202/24/3 201/5/3
f 202/4/4 198/24/4 197/5/4
f 200/6/5 198/26/5 202/7/5
f 206/9/6 208/16/6 207/10/6
f 207/12/7 208/13/7 212/9/7
f 212/9/8 210/16/8 209/10/8
f 210/13/9 206/9/9 205/11/9
f 208/13/7 214/17/7 215/14/7
f 212/9/10 215/14/10 216/15/10
f 206/9/11 213/14/11 214/15/11
f 206/9/9 210/13/9 216/17/9
f 218/18/12 220/23/12 219/19/12
f 219/19/9 220/23/9 224/21/9
f 224/18/13 222/23/13 221/19/13
f 222/23/7 218/21/7 217/22/7
f 220/23/9 213/14/9 216/17/9
f 224/18/14 216/15/14 215/14/14
f 218/18/15 214/15/15 213/14/15
f 218/21/7 222/23/7 215/14/7
f 226/1/1 228/25/1 227/2/1
f 228/1/2 232/25/2 231/2/2
f 232/4/3 230/24/3 229/5/3
f 230/4/4 226/24/4 225/5/4
f 228/6/5 226/26/5 230/7/5
f 234/9/6 236/16/6 235/10/6
f 235/12/7 236/13/7 240/9/7
f 240/9/8 238/16/8 237/10/8
f 238/13/9 234/9/9 233/11/9
f 236/13/7 242/17/7 243/14/7
f 238/16/10 240/9/10 243/14/10
f 234/9/11 241/14/11 242/15/11
f 234/9/9 238/13/9 244/17/9
f 246/18/12 248/23/12 247/19/12
f 247/19/9 248/23/9 252/21/9
f 252/18/13 250/23/13 249/19/13
f 250/23/7 246/21/7 245/22/7
f 248/23/9 241/14/9 244/17/9
f 252/18/14 244/15/14 243/14/14
f 248/23/15 246/18/15 242/15/15
f 246/21/7 250/23/7 243/14/7
f 254/1/1 256/25/1 255/2/1
f 256/1/2 260/25/2 259/2/2
f 260/4/3 258/24/3 257/5/3
f 257/2/4 258/4/4 254/24/4
f 256/6/5 254/26/5 258/7/5
f 262/9/6 264/16/6 263/10/6
f 263/12/7 264/13/7 268/9/7
f 268/9/8 266/16/8 265/10/8
f 266/13/9 262/9/9 261/11/9
f 264/13/7 270/17/7 271/14/7
f 268/9/10 271/14/10 272/15/10
f 262/9/11 269/14/11 270/15/11
f 262/9/9 266/13/9 272/17/9
f 274/18/12 276/23/12 275/19/12
f 275/19/9 276/23/9 280/21/9
f 280/18/13 278/23/13 277/19/13
f 278/23/7 274/21/7 273/22/7
f 276/23/9 269/14/9 272/17/9
f 280/18/14 272/15/14 271/14/14
f 274/18/15 270/15/15 269/14/15
f 274/21/7 278/23/7 271/14/7
