# Blender 4.2.0
# www.blender.org
mtllib HealthPack01.mtl
o HealthPack01
v 0.187500 0.112500 -0.234375
v 0.187500 0.000000 -0.234375
v 0.187500 0.112500 0.234375
v 0.187500 0.000000 0.234375
v -0.187500 0.112500 -0.234375
v -0.187500 0.000000 -0.234375
v -0.187500 0.112500 0.234375
v -0.187500 0.000000 0.234375
vn -0.0000 1.0000 -0.0000
vn -0.0000 -0.0000 1.0000
vn -1.0000 -0.0000 -0.0000
vn -0.0000 -1.0000 -0.0000
vn 1.0000 -0.0000 -0.0000
vn -0.0000 -0.0000 -1.0000
vt 0.078125 0.500000
vt 0.437500 0.093750
vt 0.437500 0.500000
vt 0.078125 0.000000
vt 0.437500 -0.000000
vt 0.078125 0.093750
vt 0.000000 0.500000
vt 0.000000 0.093750
vt 0.437500 0.593750
vt 0.078125 1.000000
vt 0.078125 0.593750
vt 0.531250 0.093750
vt 0.531250 0.500000
vt 0.437500 1.000000
s 0
usemtl Material
f 5/1/1 3/2/1 1/3/1
f 3/2/2 8/4/2 4/5/2
f 7/6/3 6/7/3 8/8/3
f 2/9/4 8/10/4 6/11/4
f 1/3/5 4/12/5 2/13/5
f 5/1/6 2/9/6 6/11/6
f 5/1/1 7/6/1 3/2/1
f 3/2/2 7/6/2 8/4/2
f 7/6/3 5/1/3 6/7/3
f 2/9/4 4/14/4 8/10/4
f 1/3/5 3/2/5 4/12/5
f 5/1/6 1/3/6 2/9/6
