# Blender 4.2.0
# www.blender.org
mtllib OldFireExtinguisher01.mtl
o OldFireExtinguisher01
v 0.000000 0.000000 -0.156625
v -0.148959 0.000000 -0.048400
v -0.092062 0.000000 0.126712
v 0.092062 0.000000 0.126712
v 0.148959 0.000000 -0.048400
v 0.000000 0.783125 -0.156625
v -0.148959 0.783125 -0.048400
v -0.092062 0.783125 0.126712
v 0.092062 0.783125 0.126712
v 0.148959 0.783125 -0.048400
v 0.000000 0.783125 0.050341
v 0.052136 0.783125 0.012462
v 0.032222 0.783125 -0.048827
v -0.032222 0.783125 -0.048827
v -0.052136 0.783125 0.012462
v 0.000000 0.853606 0.050341
v 0.052136 0.845775 0.012462
v 0.032222 0.830113 -0.048827
v -0.032222 0.830113 -0.048827
v -0.052136 0.845775 0.012462
v 0.000000 0.920538 0.005844
v 0.052136 0.894817 -0.023045
v 0.032222 0.850608 -0.068292
v -0.032222 0.850608 -0.068292
v -0.052136 0.894817 -0.023045
v -0.000000 0.952196 -0.099332
v 0.052136 0.913533 -0.099332
v 0.032222 0.850455 -0.099332
v -0.032222 0.850455 -0.099332
v -0.052136 0.913533 -0.099332
v 0.023494 0.616433 0.248055
v -0.015467 0.877506 -0.099332
v 0.023494 0.648655 0.148887
v 0.023494 0.668569 0.210176
v 0.023494 0.616433 0.275464
v 0.023494 0.664765 0.126712
v 0.015467 0.877506 -0.099332
v 0.023494 0.694636 0.218646
v -0.023494 0.616433 0.248055
v -0.023494 0.648655 0.148887
v 0.025026 0.907785 -0.099332
v -0.023494 0.668569 0.210176
v -0.023494 0.616433 0.275464
v -0.023494 0.664765 0.126712
v -0.000000 0.926344 -0.099332
v -0.023494 0.694636 0.218646
v 0.023494 0.390880 0.248055
v 0.023494 0.338744 0.210176
v 0.023494 0.358658 0.148887
v 0.023494 0.390880 0.275464
v 0.023494 0.312676 0.218646
v 0.023494 0.342547 0.126712
v -0.023494 0.390880 0.248055
v -0.023494 0.338744 0.210176
v -0.023494 0.358658 0.148887
v -0.023494 0.390880 0.275464
v -0.023494 0.312676 0.218646
v -0.023494 0.342547 0.126712
v -0.025026 0.907785 -0.099332
v -0.015467 0.877506 -0.138620
v 0.015467 0.877506 -0.138620
v 0.025026 0.907785 -0.138620
v -0.000000 0.926344 -0.138620
v -0.025026 0.907785 -0.138620
v -0.015467 0.868869 -0.158191
v 0.015467 0.868869 -0.158191
v 0.025026 0.893488 -0.175817
v -0.000000 0.908578 -0.186621
v -0.025026 0.893488 -0.175817
v -0.015467 0.846717 -0.182099
v 0.015467 0.846717 -0.182099
v 0.025026 0.852338 -0.211851
v -0.000000 0.855784 -0.230087
v -0.025026 0.852338 -0.211851
v -0.015467 0.808484 -0.173991
v 0.015467 0.808484 -0.173991
v 0.025026 0.801100 -0.203355
v -0.000000 0.796574 -0.221354
v -0.025026 0.801100 -0.203355
v -0.015467 0.745585 -0.156625
v 0.015467 0.745585 -0.156625
v 0.025026 0.745585 -0.186902
v -0.000000 0.745585 -0.205460
v -0.025026 0.745585 -0.186902
v -0.015467 0.414081 -0.156625
v 0.015467 0.414081 -0.156625
v 0.025026 0.414081 -0.186902
v -0.000000 0.414081 -0.205460
v -0.025026 0.414081 -0.186902
v -0.003492 0.318134 -0.173564
v 0.003492 0.318134 -0.173564
v 0.005650 0.318134 -0.180398
v -0.000000 0.318134 -0.184588
v -0.005650 0.318134 -0.180398
v -0.046329 0.923574 0.051183
v -0.046329 0.938350 0.048505
v -0.036368 0.902507 -0.065081
v -0.036368 0.917282 -0.067758
v 0.046329 0.923574 0.051183
v 0.046329 0.938350 0.048505
v 0.036368 0.902507 -0.065081
v 0.036368 0.917282 -0.067758
v -0.067501 0.926578 0.067758
v -0.022965 0.905510 -0.048505
v -0.067501 0.941353 0.065081
v 0.022965 0.905510 -0.048505
v -0.022965 0.920286 -0.051183
v 0.022965 0.920286 -0.051183
v 0.067501 0.926578 0.067758
v 0.067501 0.941353 0.065081
vn -0.0000 -0.0000 1.0000
vn -0.5878 -0.0000 -0.8090
vn 0.9511 -0.0000 0.3090
vn -0.9511 -0.0000 0.3090
vn 0.5878 -0.0000 -0.8090
vn -0.0000 1.0000 -0.0000
vn -0.0000 -0.6886 -0.7251
vn -0.5669 0.4561 0.6860
vn -0.9511 -0.0000 -0.3090
vn 0.9511 -0.0000 -0.3090
vn -0.5878 -0.0000 0.8090
vn -0.0000 -0.0000 -1.0000
vn 0.5878 -0.0000 0.8090
vn -0.0000 -1.0000 0.0049
vn -0.5343 0.8094 0.2436
vn 0.5669 0.4561 0.6860
vn -0.9472 -0.1880 -0.2597
vn 0.9472 -0.1880 -0.2597
vn 0.5343 0.8094 0.2436
vn -0.9376 -0.3376 -0.0828
vn 0.9376 -0.3376 -0.0828
vn 1.0000 -0.0000 -0.0000
vn -1.0000 -0.0000 -0.0000
vn -0.0000 -0.9511 0.3090
vn 0.5957 0.8032 -0.0000
vn -0.0000 -0.5878 -0.8090
vn -0.0000 0.9511 -0.3090
vn 0.9536 -0.3011 -0.0000
vn -0.0000 0.5878 0.8090
vn -0.0000 -0.9511 -0.3090
vn -0.0000 0.5878 -0.8090
vn -0.0000 0.9511 0.3090
vn -0.0000 -0.5878 0.8090
vn -0.0000 -0.9149 0.4038
vn -0.5710 0.7699 -0.2850
vn -0.9536 -0.3011 -0.0000
vn -0.5957 0.8032 -0.0000
vn -0.0000 -1.0000 -0.0000
vn -0.0000 -0.7335 0.6797
vn -0.5854 0.5341 -0.6100
vn 0.9473 -0.2991 0.1149
vn -0.9473 -0.2991 0.1149
vn 0.5710 0.7699 -0.2850
vn 0.9479 0.0521 0.3144
vn -0.9479 0.0521 0.3144
vn 0.5854 0.5341 -0.6100
vn -0.9529 -0.2224 0.2061
vn 0.9529 -0.2224 0.2061
vn -0.5951 -0.2392 -0.7673
vn 0.9535 0.0856 0.2889
vn -0.5739 -0.1195 -0.8102
vn -0.0000 0.2074 0.9782
vn 0.5739 -0.1195 -0.8102
vn -0.9536 -0.0000 0.3011
vn 0.5957 -0.0000 -0.8032
vn -0.0000 0.2661 0.9639
vn 0.5951 -0.2392 -0.7673
vn -0.9535 0.0856 0.2889
vn -0.5868 -0.1721 -0.7913
vn 0.9398 -0.1697 0.2967
vn 0.9536 -0.0000 0.3011
vn -0.5957 -0.0000 -0.8032
vn -0.0000 -0.1739 0.9848
vn 0.5868 -0.1721 -0.7913
vn -0.9398 -0.1697 0.2967
vn -0.9744 -0.0401 -0.2211
vn 0.9744 -0.0401 -0.2211
vn -0.0000 0.1783 0.9840
vn -0.0000 -0.1783 -0.9840
vn 0.9744 0.0401 0.2211
vn -0.0000 -0.9840 0.1783
vn -0.0000 0.9840 -0.1783
vn -0.9744 0.0401 0.2211
vn -0.5939 0.4718 0.6517
vn -0.5844 0.7881 0.1933
vn 0.5939 0.4718 0.6517
vn -0.9538 -0.2068 -0.2178
vn 0.9538 -0.2068 -0.2178
vn 0.5844 0.7881 0.1933
vn -0.9536 -0.3011 0.0015
vn 0.9536 -0.3011 0.0015
vn -0.5831 0.7583 -0.2915
vn -0.5450 0.5329 -0.6473
vn 0.9517 -0.2808 0.1239
vn -0.9517 -0.2808 0.1239
vn 0.5831 0.7583 -0.2915
vn 0.9535 0.0625 0.2947
vn -0.9535 0.0625 0.2947
vn 0.5450 0.5329 -0.6473
vn -0.9389 -0.2267 0.2588
vn 0.9389 -0.2267 0.2588
vn -0.5795 -0.2316 -0.7814
vn 0.9503 0.0828 0.3000
vn -0.5944 -0.1315 -0.7934
vn 0.5944 -0.1315 -0.7934
vn 0.5795 -0.2316 -0.7814
vn -0.9503 0.0828 0.3000
vt 0.030959 0.577973
vt 0.130723 0.153651
vt 0.030959 0.153651
vt 0.230487 0.577973
vt 0.330251 0.153651
vt 0.230487 0.153651
vt 0.430015 0.577973
vt 0.529779 0.153651
vt 0.430015 0.153651
vt 0.130723 0.577973
vt 0.330251 0.577973
vt 0.080841 0.731494
vt 0.161552 0.672854
vt 0.000130 0.672854
vt 0.777344 0.890625
vt 0.792969 0.910156
vt 0.792969 0.933594
vt 0.792969 0.867188
vt 0.753906 0.925781
vt 0.589844 0.484375
vt 0.644531 0.562500
vt 0.644531 0.484375
vt 0.589844 0.902344
vt 0.539062 0.562500
vt 0.589844 0.562500
vt 0.589844 0.425781
vt 0.644531 0.425781
vt 0.539062 0.484375
vt 0.589844 0.257812
vt 0.539062 0.425781
vt 0.539062 0.257812
vt 0.769531 0.867188
vt 0.644531 0.257812
vt 0.675781 0.816406
vt 0.644531 0.867188
vt 0.675781 0.867188
vt 0.539062 0.902344
vt 0.710938 0.867188
vt 0.589844 0.152344
vt 0.644531 0.203125
vt 0.644531 0.152344
vt 0.589844 0.203125
vt 0.539062 0.152344
vt 0.539062 0.203125
vt 0.644531 0.902344
vt 0.898438 0.867188
vt 0.742188 0.765625
vt 0.710938 0.816406
vt 0.742188 0.816406
vt 0.792969 0.765625
vt 0.769531 0.816406
vt 0.792969 0.816406
vt 0.742188 0.867188
vt 0.742188 0.687500
vt 0.710938 0.765625
vt 0.769531 0.687500
vt 0.769531 0.765625
vt 0.675781 0.765625
vt 0.644531 0.765625
vt 0.644531 0.816406
vt 0.710938 0.687500
vt 0.675781 0.613281
vt 0.675781 0.687500
vt 0.769531 0.613281
vt 0.792969 0.542969
vt 0.792969 0.613281
vt 0.710938 0.613281
vt 0.675781 0.542969
vt 0.792969 0.687500
vt 0.742188 0.613281
vt 0.644531 0.613281
vt 0.644531 0.687500
vt 0.769531 0.152344
vt 0.742188 0.542969
vt 0.769531 0.542969
vt 0.675781 0.152344
vt 0.644531 0.542969
vt 0.792969 0.035156
vt 0.792969 0.152344
vt 0.710938 0.035156
vt 0.710938 0.152344
vt 0.710938 0.542969
vt 0.742188 0.152344
vt 0.777344 0.019531
vt 0.792969 0.027344
vt 0.785156 0.019531
vt 0.769531 0.035156
vt 0.742188 0.035156
vt 0.644531 0.035156
vt 0.161552 0.058770
vt 0.080841 0.000130
vt 0.000130 0.058770
vt 0.695312 0.015625
vt 0.644531 0.007812
vt 0.695312 0.007812
vt 0.789062 0.007812
vt 0.742188 0.015625
vt 0.742188 0.007812
vt 0.695312 0.023438
vt 0.742188 0.031250
vt 0.695312 0.031250
vt 0.644531 0.023438
vt 0.644531 0.031250
vt 0.695312 0.000000
vt 0.644531 0.000000
vt 0.644531 0.015625
vt 0.742188 0.000000
vt 0.742188 0.023438
vt 0.789062 0.015625
vt 0.789062 0.023438
vt 0.789062 0.031250
vt 0.529779 0.577973
vt 0.675781 0.035156
vt 0.789062 0.000000
s 0
usemtl Primary
f 9/1/1 3/2/1 4/3/1
f 7/4/2 1/5/2 2/6/2
f 10/7/3 4/8/3 5/9/3
f 8/10/4 2/6/4 3/2/4
f 6/11/5 5/9/5 1/5/5
f 6/12/6 7/13/6 10/14/6
f 9/1/6 7/13/6 8/10/6
f 24/15/7 18/15/7 19/15/7
f 21/15/8 20/15/8 16/15/8
f 15/15/9 19/15/9 14/15/9
f 18/15/10 12/15/10 13/15/10
f 11/15/11 20/15/11 15/15/11
f 19/15/12 13/15/12 14/15/12
f 17/15/13 11/15/13 12/15/13
f 24/15/14 28/16/14 23/15/14
f 26/16/15 25/15/15 21/15/15
f 17/15/16 21/15/16 16/15/16
f 25/15/17 19/15/17 20/15/17
f 18/15/18 22/15/18 17/15/18
f 37/17/12 27/18/12 28/16/12
f 30/15/12 32/19/12 29/16/12
f 22/15/19 26/16/19 21/15/19
f 30/15/20 24/15/20 25/15/20
f 23/15/21 27/18/21 22/15/21
f 34/20/22 36/21/22 38/22/22
f 58/23/23 40/24/23 44/25/23
f 31/26/22 38/22/22 35/27/22
f 32/19/12 28/16/12 29/16/12
f 42/28/23 44/25/23 40/24/23
f 56/29/23 39/30/23 53/31/23
f 39/30/23 46/20/23 42/28/23
f 26/16/12 59/32/12 30/15/12
f 39/30/12 47/29/12 53/31/12
f 35/27/1 56/29/1 50/33/1
f 42/28/24 33/25/24 34/20/24
f 62/34/25 45/35/25 41/36/25
f 39/30/26 34/20/26 31/26/26
f 33/25/1 55/37/1 49/23/1
f 44/25/27 38/22/27 36/21/27
f 35/27/22 47/29/22 31/26/22
f 37/38/28 62/34/28 41/36/28
f 38/22/29 43/26/29 35/27/29
f 49/39/22 51/40/22 52/41/22
f 48/42/22 50/33/22 51/40/22
f 55/43/23 57/42/23 54/44/23
f 54/44/23 56/29/23 53/31/23
f 57/42/30 52/41/30 51/40/30
f 54/44/31 47/29/31 48/42/31
f 55/43/32 48/42/32 49/39/32
f 56/29/33 51/40/33 50/33/33
f 52/45/22 33/25/22 49/23/22
f 41/46/12 26/16/12 27/18/12
f 65/47/34 61/48/34 60/49/34
f 68/50/35 64/51/35 63/52/35
f 64/51/36 32/53/36 59/32/36
f 63/52/37 59/32/37 45/18/37
f 60/49/38 37/38/38 32/53/38
f 70/54/39 66/55/39 65/47/39
f 68/50/40 74/56/40 69/57/40
f 61/48/41 67/58/41 62/34/41
f 69/57/42 60/49/42 64/51/42
f 62/34/43 68/59/43 63/60/43
f 71/61/44 77/62/44 72/63/44
f 79/64/45 70/54/45 74/56/45
f 72/63/46 68/59/46 67/58/46
f 69/57/47 70/54/47 65/47/47
f 71/61/48 67/58/48 66/55/48
f 83/65/49 79/64/49 78/66/49
f 76/67/50 82/68/50 77/62/50
f 78/66/51 74/56/51 73/69/51
f 75/70/52 71/61/52 70/54/52
f 72/63/53 78/71/53 73/72/53
f 89/73/54 80/74/54 84/75/54
f 87/76/55 83/77/55 82/68/55
f 80/74/56 76/67/56 75/70/56
f 77/62/57 83/77/57 78/71/57
f 84/75/58 75/70/58 79/64/58
f 93/78/59 89/73/59 88/79/59
f 91/80/60 87/76/60 86/81/60
f 86/81/61 82/68/61 81/82/61
f 88/79/62 84/75/62 83/65/62
f 85/83/1 81/82/1 80/74/1
f 90/84/38 92/85/38 91/86/38
f 93/78/38 92/85/38 94/87/38
f 90/88/63 86/81/63 85/83/63
f 87/76/64 93/89/64 88/41/64
f 89/73/65 90/88/65 85/83/65
f 2/90/38 4/3/38 3/2/38
f 1/91/38 5/92/38 2/90/38
f 105/93/66 97/94/66 103/95/66
f 101/96/67 110/97/67 109/98/67
f 110/97/68 103/95/68 109/98/68
f 96/99/69 99/100/69 95/101/69
f 107/102/70 95/101/70 104/103/70
f 95/104/71 97/94/71 104/105/71
f 96/99/72 98/106/72 105/93/72
f 99/107/71 101/96/71 109/98/71
f 100/108/72 102/109/72 108/110/72
f 99/107/71 103/95/71 95/104/71
f 96/99/72 110/97/72 100/108/72
f 100/108/73 106/111/73 99/100/73
f 9/1/1 8/10/1 3/2/1
f 7/4/2 6/11/2 1/5/2
f 10/7/3 9/112/3 4/8/3
f 8/10/4 7/4/4 2/6/4
f 6/11/5 10/7/5 5/9/5
f 9/1/6 10/14/6 7/13/6
f 24/15/7 23/15/7 18/15/7
f 21/15/74 25/15/74 20/15/74
f 15/15/9 20/15/9 19/15/9
f 18/15/10 17/15/10 12/15/10
f 11/15/11 16/15/11 20/15/11
f 19/15/12 18/15/12 13/15/12
f 17/15/13 16/15/13 11/15/13
f 24/15/14 29/16/14 28/16/14
f 26/16/75 30/15/75 25/15/75
f 17/15/76 22/15/76 21/15/76
f 25/15/77 24/15/77 19/15/77
f 18/15/78 23/15/78 22/15/78
f 37/17/12 41/46/12 27/18/12
f 30/15/12 59/32/12 32/19/12
f 22/15/79 27/18/79 26/16/79
f 30/15/80 29/16/80 24/15/80
f 23/15/81 28/16/81 27/18/81
f 34/20/22 33/25/22 36/21/22
f 58/23/23 55/37/23 40/24/23
f 31/26/22 34/20/22 38/22/22
f 32/19/12 37/17/12 28/16/12
f 42/28/23 46/20/23 44/25/23
f 56/29/23 43/26/23 39/30/23
f 39/30/23 43/26/23 46/20/23
f 26/16/12 45/18/12 59/32/12
f 39/30/12 31/26/12 47/29/12
f 35/27/1 43/26/1 56/29/1
f 42/28/24 40/24/24 33/25/24
f 62/34/25 63/60/25 45/35/25
f 39/30/26 42/28/26 34/20/26
f 33/25/1 40/24/1 55/37/1
f 44/25/27 46/20/27 38/22/27
f 35/27/22 50/33/22 47/29/22
f 37/38/28 61/48/28 62/34/28
f 38/22/29 46/20/29 43/26/29
f 49/39/22 48/42/22 51/40/22
f 48/42/22 47/29/22 50/33/22
f 55/43/23 58/39/23 57/42/23
f 54/44/23 57/42/23 56/29/23
f 57/42/30 58/39/30 52/41/30
f 54/44/31 53/31/31 47/29/31
f 55/43/32 54/44/32 48/42/32
f 56/29/33 57/42/33 51/40/33
f 52/45/22 36/21/22 33/25/22
f 41/46/12 45/18/12 26/16/12
f 65/47/34 66/55/34 61/48/34
f 68/50/82 69/57/82 64/51/82
f 64/51/36 60/49/36 32/53/36
f 63/52/37 64/51/37 59/32/37
f 60/49/38 61/48/38 37/38/38
f 70/54/39 71/61/39 66/55/39
f 68/50/83 73/69/83 74/56/83
f 61/48/84 66/55/84 67/58/84
f 69/57/85 65/47/85 60/49/85
f 62/34/86 67/58/86 68/59/86
f 71/61/87 76/67/87 77/62/87
f 79/64/88 75/70/88 70/54/88
f 72/63/89 73/72/89 68/59/89
f 69/57/90 74/56/90 70/54/90
f 71/61/91 72/63/91 67/58/91
f 83/65/92 84/75/92 79/64/92
f 76/67/93 81/82/93 82/68/93
f 78/66/94 79/64/94 74/56/94
f 75/70/52 76/67/52 71/61/52
f 72/63/95 77/62/95 78/71/95
f 89/73/54 85/83/54 80/74/54
f 87/76/55 88/41/55 83/77/55
f 80/74/56 81/82/56 76/67/56
f 77/62/96 82/68/96 83/77/96
f 84/75/97 80/74/97 75/70/97
f 93/78/59 94/87/59 89/73/59
f 91/80/60 92/113/60 87/76/60
f 86/81/61 87/76/61 82/68/61
f 88/79/62 89/73/62 84/75/62
f 85/83/1 86/81/1 81/82/1
f 90/84/38 94/87/38 92/85/38
f 90/88/63 91/80/63 86/81/63
f 87/76/64 92/113/64 93/89/64
f 89/73/65 94/87/65 90/88/65
f 2/90/38 5/92/38 4/3/38
f 105/93/66 98/106/66 97/94/66
f 101/96/67 102/109/67 110/97/67
f 110/97/68 105/93/68 103/95/68
f 96/99/69 100/108/69 99/100/69
f 107/102/70 96/99/70 95/101/70
f 95/104/71 103/95/71 97/94/71
f 96/99/72 107/102/72 98/106/72
f 99/107/71 106/114/71 101/96/71
f 100/108/72 110/97/72 102/109/72
f 99/107/71 109/98/71 103/95/71
f 96/99/72 105/93/72 110/97/72
f 100/108/73 108/110/73 106/111/73
