# Blender 4.2.0
# www.blender.org
mtllib Plate01.mtl
o Plate01
v 0.000000 0.000000 -0.227237
v 0.000000 0.025685 -0.226826
v 0.196793 0.000000 -0.113618
v 0.196437 0.025685 -0.113413
v 0.196793 0.000000 0.113618
v 0.196437 0.025685 0.113413
v 0.000000 0.000000 0.227237
v 0.000000 0.025685 0.226826
v -0.196793 0.000000 0.113618
v -0.196437 0.025685 0.113413
v -0.196793 0.000000 -0.113618
v -0.196437 0.025685 -0.113413
v 0.302758 0.052620 -0.174797
v 0.000000 0.052620 -0.349595
v 0.302758 0.052620 0.174797
v 0.000000 0.052620 0.349595
v -0.302758 0.052620 0.174797
v -0.302758 0.052620 -0.174797
vn 0.2224 -0.8957 -0.3852
vn 0.4448 -0.8957 -0.0000
vn 0.2224 -0.8957 0.3852
vn -0.2224 -0.8957 0.3852
vn -0.0000 1.0000 -0.0000
vn -0.4448 -0.8957 -0.0000
vn -0.2224 -0.8957 -0.3852
vn -0.0000 -1.0000 -0.0000
vn -0.1228 0.9694 0.2127
vn -0.2456 0.9694 -0.0000
vn -0.1228 0.9694 -0.2127
vn 0.1228 0.9694 -0.2127
vn 0.2456 0.9694 -0.0000
vn 0.1228 0.9694 0.2127
vt 0.218750 1.000000
vt 0.187500 0.500000
vt 0.343750 0.843750
vt 0.000000 0.500000
vt 0.343750 0.156250
vt 0.218750 0.000000
vt 0.687500 0.156250
vt 1.000000 0.500000
vt 0.843750 0.500000
vt 0.687500 0.843750
vt 0.781250 1.000000
vt 0.781250 0.000000
s 0
usemtl Primary
f 14/1/1 3/2/1 1/3/1
f 13/4/2 5/5/2 3/2/2
f 15/6/3 7/7/3 5/5/3
f 7/7/4 17/8/4 9/9/4
f 2/3/5 6/5/5 4/2/5
f 17/8/6 11/10/6 9/9/6
f 18/11/7 1/3/7 11/10/7
f 3/2/8 7/7/8 1/3/8
f 2/3/9 13/4/9 14/1/9
f 6/5/10 13/4/10 4/2/10
f 8/7/11 15/6/11 6/5/11
f 8/7/12 17/8/12 16/12/12
f 12/10/13 17/8/13 10/9/13
f 2/3/14 18/11/14 12/10/14
f 7/7/8 11/10/8 1/3/8
f 8/7/5 12/10/5 10/9/5
f 14/1/1 13/4/1 3/2/1
f 13/4/2 15/6/2 5/5/2
f 15/6/3 16/12/3 7/7/3
f 7/7/4 16/12/4 17/8/4
f 2/3/5 8/7/5 6/5/5
f 17/8/6 18/11/6 11/10/6
f 18/11/7 14/1/7 1/3/7
f 3/2/8 5/5/8 7/7/8
f 2/3/9 4/2/9 13/4/9
f 6/5/10 15/6/10 13/4/10
f 8/7/11 16/12/11 15/6/11
f 8/7/12 10/9/12 17/8/12
f 12/10/13 18/11/13 17/8/13
f 2/3/14 14/1/14 18/11/14
f 7/7/8 9/9/8 11/10/8
f 8/7/5 2/3/5 12/10/5
