# Blender 4.2.0
# www.blender.org
mtllib SandbagWall03.mtl
o SandbagWall01
v 0.308859 1.214009 -0.482231
v 0.108288 1.485887 -0.449855
v -0.195785 1.707543 -0.407081
v -0.527426 1.401958 -0.354829
v -0.486382 0.000000 -0.363221
v 0.327853 0.000000 -0.486114
v 0.018646 1.552681 -1.969954
v 0.243323 1.214009 -1.994317
v -0.346884 1.555482 -1.943694
v -0.664016 1.401958 -1.917728
v 0.181322 0.000000 -1.981640
v -0.640017 0.000000 -1.922635
v -0.008405 1.474363 -3.514315
v 0.197551 1.214009 -3.515930
v -0.418225 1.636326 -3.521515
v -0.646768 1.401957 -3.575679
v 0.110829 0.000000 -3.498199
v -0.711829 0.000000 -3.534454
v -0.010269 1.552681 -4.559745
v 0.239159 1.234924 -4.693069
v -0.374595 1.598308 -4.599356
v -0.408362 1.449016 -4.787001
v 0.154558 0.000000 -4.730659
v -0.514270 0.000000 -4.786630
v -0.016731 1.474363 -2.737667
v -0.382555 1.555482 -2.732604
v 0.146076 0.000000 -2.739920
v 0.307392 1.214009 -2.772901
v -0.628198 1.454822 -2.740703
v -0.675923 0.000000 -2.728544
v 0.092615 1.485887 -1.215864
v -0.271335 1.636326 -1.175387
v 0.289128 1.214009 -1.240939
v -0.563199 0.000000 -1.142928
v 0.213192 0.000000 -1.225414
v -0.662391 1.349093 -1.115412
v 0.280085 1.214009 -4.129142
v 0.011453 1.552681 -4.119856
v -0.623922 1.401958 -4.174727
v -0.646653 0.000000 -4.170080
v 0.173992 0.000000 -4.107451
v -0.353769 1.598308 -4.147728
v -0.594187 0.453624 -0.341180
v -0.544856 0.927791 -0.351266
v -0.733369 0.453624 -1.903549
v -0.723325 0.901225 -1.925044
v -0.756290 0.453623 -3.537331
v -0.714433 0.927790 -3.561844
v -0.618134 0.453624 -4.798212
v -0.639953 0.927791 -4.793751
v -0.734397 0.927791 -2.716589
v -0.757999 0.453623 -2.711763
v -0.681735 0.874926 -1.111458
v -0.729443 0.400759 -1.101704
v -0.757372 0.909794 -4.130586
v -0.751223 0.426628 -4.139370
v 0.269378 0.802492 -0.474159
v 0.229879 0.390974 -0.466083
v 0.131224 0.390974 -0.119517
v 0.154700 0.802492 -0.127592
v -0.329225 0.927791 -0.004699
v -0.358544 0.453624 0.005386
v 0.122848 0.802492 -1.969685
v 0.160890 0.390974 -1.977463
v 0.052355 0.802492 -3.486244
v 0.111358 0.390974 -3.498308
v 0.178679 0.802492 -4.704748
v 0.270533 0.390974 -4.723527
v 0.136124 0.390974 -2.737885
v 0.166116 0.802492 -2.744017
v 0.227189 0.390974 -1.228275
v 0.230358 0.802492 -1.228923
v 0.189453 0.000000 -0.139548
v -0.294472 0.000000 -0.016655
v -0.318866 1.401958 -0.008263
v -0.121761 1.707543 -0.060515
v 0.058959 1.485887 -0.103288
v 0.178164 1.214009 -0.135664
v 0.219337 0.390974 -4.116722
v 0.141536 0.802492 -4.100815
vn 0.0001 0.9945 -0.1047
vn 0.3652 0.9276 0.0785
vn 0.8318 0.5541 -0.0325
vn -0.5857 0.8087 0.0545
vn -0.9978 0.0411 0.0523
vn 0.9955 -0.0363 -0.0881
vn 0.7824 0.6216 -0.0386
vn 0.9991 0.0256 -0.0325
vn -0.7124 0.7012 -0.0286
vn 0.7843 0.6204 0.0084
vn -0.9802 0.1965 -0.0232
vn 0.1636 0.7574 -0.6321
vn -0.9559 0.2446 -0.1626
vn 0.1249 0.9922 -0.0058
vn 0.9552 -0.2848 0.0806
vn -0.8262 0.5038 -0.2522
vn -0.9929 0.1173 0.0178
vn 0.8264 0.5551 -0.0947
vn -0.4328 0.9006 0.0390
vn 0.9981 0.0525 -0.0325
vn 0.0076 1.0000 -0.0003
vn 0.9700 0.2432 -0.0034
vn -0.9838 0.0416 0.1743
vn -0.5865 0.8085 0.0479
vn 0.8037 0.5948 -0.0164
vn 0.5718 0.8098 -0.1313
vn -0.5863 0.8098 -0.0224
vn 0.9792 -0.1095 0.1710
vn 0.3678 0.9297 -0.0186
vn -0.9873 0.1429 0.0700
vn 0.7802 0.6166 0.1053
vn -0.9681 -0.2301 -0.0993
vn -0.9999 -0.0126 -0.0079
vn 0.2455 -0.0078 0.9694
vn 0.2474 0.0053 0.9689
vn -0.9166 -0.3895 0.0903
vn -0.9806 0.1021 0.1673
vn -0.9828 -0.1794 0.0438
vn -0.9993 0.0239 0.0305
vn -0.9530 -0.2234 -0.2046
vn -0.9801 -0.0089 -0.1983
vn -0.9943 -0.0972 0.0443
vn -0.9988 0.0497 -0.0021
vn -0.9741 -0.2045 0.0960
vn -0.9949 0.1003 0.0115
vn 0.9483 -0.0479 0.3138
vn 0.2473 0.0049 0.9689
vn 0.2456 -0.0124 0.9693
vn 0.9427 -0.3086 0.1269
vn 0.9804 0.1364 0.1423
vn 0.9606 -0.0494 0.2735
vn 0.7851 0.5440 0.2961
vn -0.8566 0.0226 0.5155
vn 0.9895 -0.1421 -0.0257
vn 0.9986 -0.0078 -0.0516
vn 0.9446 -0.3188 0.0777
vn 0.9943 0.0909 0.0556
vn 0.9877 -0.1361 -0.0767
vn 0.9812 0.1832 0.0603
vn 0.9309 -0.3384 -0.1376
vn 0.9857 -0.0741 -0.1511
vn 0.9571 -0.2837 -0.0582
vn 0.9896 -0.0078 -0.1436
vn 0.9082 0.2090 0.3627
vn -0.8138 0.5546 0.1738
vn -0.8473 0.0636 0.5272
vn 0.5947 0.7995 0.0846
vn -0.8070 -0.2184 0.5487
vn 0.1030 -0.0329 -0.9941
vn 0.0881 0.0650 -0.9940
vn 0.0834 -0.0066 -0.9965
vn 0.3858 0.9215 0.0438
vn 0.2165 0.9763 0.0023
vn 0.8073 0.5881 -0.0491
vn -0.4386 0.8972 -0.0513
vn -0.9930 0.1175 0.0098
vn 0.9977 0.0526 -0.0420
vn 0.7793 0.6257 -0.0333
vn 0.9989 -0.0014 -0.0464
vn -0.3800 0.9183 0.1113
vn 0.6176 0.7812 -0.0913
vn -0.9898 0.1416 0.0130
vn 0.2969 0.5582 -0.7748
vn -0.8764 0.3930 -0.2783
vn 0.1244 0.9922 -0.0061
vn 0.9928 -0.1159 -0.0310
vn -0.5895 0.8073 0.0272
vn -0.9801 0.1961 -0.0301
vn 0.6288 0.7758 0.0517
vn -0.3796 0.9250 0.0172
vn 0.9986 0.0257 -0.0464
vn 0.2138 0.9708 -0.1089
vn 0.9875 -0.0365 -0.1532
vn -0.9844 0.0375 0.1721
vn -0.6778 0.7353 -0.0015
vn 0.8094 0.5869 -0.0210
vn 0.3812 0.9244 -0.0078
vn -0.6978 0.7070 -0.1148
vn 0.9947 -0.0013 0.1031
vn 0.1130 0.9849 0.1311
vn -0.9653 0.2584 -0.0368
vn 0.7805 0.6162 0.1051
vn -0.9952 -0.0976 -0.0040
vn -0.9932 0.0914 0.0721
vn 0.2418 0.0099 0.9703
vn 0.2477 0.0049 0.9688
vn -0.9538 -0.2357 0.1860
vn -0.9799 0.1055 0.1691
vn -0.9788 -0.2027 0.0298
vn -0.9986 0.0499 0.0156
vn -0.9545 -0.2194 -0.2018
vn -0.9835 -0.0436 -0.1753
vn -0.9840 -0.1780 -0.0020
vn -0.9960 0.0867 -0.0235
vn -0.9242 -0.3813 -0.0206
vn -0.9983 0.0249 0.0518
vn 0.9325 -0.0826 0.3517
vn 0.2490 0.0018 0.9685
vn 0.2461 -0.0130 0.9692
vn 0.9373 -0.3209 0.1360
vn 0.9696 0.1768 0.1693
vn 0.9460 -0.0847 0.3130
vn 0.9137 0.3851 0.1300
vn -0.8485 0.0352 0.5280
vn 0.9940 -0.0964 -0.0514
vn 0.9954 -0.0956 -0.0035
vn 0.9592 -0.2776 0.0536
vn 0.9968 -0.0731 -0.0325
vn 0.9473 -0.3149 0.0583
vn 0.9735 0.2135 0.0821
vn 0.9330 -0.3303 -0.1430
vn 0.9892 0.1428 -0.0322
vn 0.9793 -0.1440 -0.1421
vn 0.9918 0.0933 -0.0878
vn 0.9539 0.1282 0.2715
vn -0.6004 0.7134 0.3613
vn -0.8230 0.0975 0.5596
vn 0.7497 0.6421 -0.1601
vn -0.8655 -0.1455 0.4793
vn 0.1456 0.0064 -0.9893
vn 0.1103 0.0144 -0.9938
vn 0.0833 -0.0064 -0.9965
vt -0.229167 0.250000
vt -0.406250 0.343750
vt -0.406250 0.250000
vt -0.604167 0.250000
vt -0.791667 0.343750
vt -0.791667 0.250000
vt -0.229167 0.343750
vt -0.406250 0.458333
vt -0.447917 0.458333
vt -0.677083 0.375000
vt -0.447917 0.343750
vt -0.708333 0.239583
vt -0.447917 0.239583
vt -0.208333 0.854167
vt -0.406250 0.708333
vt -0.208333 0.708333
vt -0.916667 0.458333
vt -1.041667 0.343750
vt -0.947917 0.343750
vt -0.572917 0.854167
vt -0.770833 0.708333
vt -0.572917 0.708333
vt -0.947917 0.406250
vt -1.187500 0.479167
vt -1.218750 0.375000
vt -0.604167 0.343750
vt -0.770833 0.458333
vt -1.218750 0.260417
vt -0.947917 0.260417
vt 0.041667 0.572917
vt 0.145833 0.468750
vt 0.114583 0.572917
vt -1.395833 0.406250
vt -1.625000 0.291667
vt -1.395833 0.260417
vt -0.947917 0.250000
vt -1.062500 0.250000
vt -0.916667 0.708333
vt -1.062500 0.854167
vt -1.062500 0.708333
vt -1.552083 0.458333
vt -1.593750 0.427083
vt -0.677083 0.458333
vt -0.406250 0.854167
vt -0.031250 0.854167
vt -0.031250 0.708333
vt -0.208333 0.239583
vt -0.208333 0.343750
vt -0.031250 0.458333
vt -0.031250 0.343750
vt -0.031250 0.250000
vt -1.395833 0.479167
vt -0.916667 0.854167
vt -1.218750 0.020833
vt -1.427083 0.166667
vt -1.427083 0.052083
vt -1.218750 0.166667
vt 0.114583 0.697917
vt 0.010417 0.583333
vt 0.135417 0.583333
vt -0.000000 0.364583
vt 0.135417 0.447917
vt 0.010417 0.447917
vt -0.208333 0.000000
vt -0.447917 0.104167
vt -0.447917 0.000000
vt -0.208333 0.135417
vt -0.708333 0.020833
vt -0.947917 0.135417
vt -0.947917 0.020833
vt -0.708333 0.135417
vt -1.625000 0.166667
vt -1.625000 0.052083
vt 0.062500 0.552083
vt -0.062500 0.447917
vt -0.062500 0.552083
vt 0.010417 0.229167
vt 0.125000 0.364583
vt -0.916667 0.562500
vt -0.770833 0.562500
vt 0.062500 0.697917
vt -0.062500 0.697917
vt 0.062500 0.333333
vt 0.062500 0.447917
vt -0.062500 0.343750
vt -0.229167 0.562500
vt -0.229167 0.458333
vt -0.031250 0.562500
vt -0.604167 0.562500
vt -0.604167 0.458333
vt -0.406250 0.562500
vt -1.062500 0.562500
vt -1.062500 0.458333
vt -0.062500 0.843750
vt 0.062500 0.843750
vt -0.062500 0.458333
vt -0.208333 0.458333
vt -0.062500 0.239583
vt 0.062500 0.239583
vt -0.062500 0.333333
vt -0.062500 0.000000
vt -0.062500 0.135417
vt -0.000000 0.343750
vt 0.166667 0.343750
vt 0.166667 0.208333
vt -0.000000 0.208333
vt 0.156250 0.104167
vt 0.010417 0.104167
vt -0.770833 0.854167
vt -0.947917 0.458333
vt 0.020833 0.468750
vt 0.031250 0.697917
vt 0.135417 0.229167
s 0
usemtl Primary
f 32/1/1 7/2/1 9/3/1
f 26/4/2 13/5/2 15/6/2
f 31/7/3 8/8/3 7/2/3
f 32/9/4 10/10/4 36/11/4
f 36/11/5 46/12/5 53/13/5
f 35/14/6 64/15/6 71/16/6
f 37/17/7 19/18/7 38/19/7
f 27/20/8 66/21/8 69/22/8
f 29/23/9 15/24/9 16/25/9
f 25/26/10 14/27/10 13/5/10
f 29/23/11 48/28/11 51/29/11
f 19/30/12 22/31/12 21/32/12
f 39/33/13 50/34/13 55/35/13
f 42/36/14 19/18/14 21/37/14
f 79/38/15 23/39/15 68/40/15
f 39/33/16 21/41/16 22/42/16
f 10/10/17 51/29/17 46/12/17
f 8/8/18 25/26/18 7/2/18
f 9/43/19 29/23/19 10/10/19
f 11/44/20 69/22/20 64/15/20
f 7/2/21 26/4/21 9/3/21
f 6/45/22 71/16/22 58/46/22
f 44/47/23 36/11/23 53/13/23
f 4/48/24 32/9/24 36/11/24
f 1/49/25 31/7/25 2/50/25
f 2/50/26 32/1/26 3/51/26
f 16/25/27 42/52/27 39/33/27
f 66/21/28 41/53/28 79/38/28
f 13/5/29 42/36/29 15/6/29
f 16/25/30 55/35/30 48/28/30
f 14/27/31 38/19/31 13/5/31
f 18/54/32 56/55/32 40/56/32
f 47/57/33 55/35/33 56/55/33
f 77/58/34 75/59/34 78/60/34
f 62/61/35 60/62/35 61/63/35
f 5/64/36 54/65/36 34/66/36
f 43/67/37 53/13/37 54/65/37
f 12/68/38 52/69/38 30/70/38
f 46/12/39 52/69/39 45/71/39
f 40/56/40 49/72/40 24/73/40
f 55/35/41 49/72/41 56/55/41
f 30/70/42 47/57/42 18/54/42
f 51/29/43 47/57/43 52/69/43
f 34/66/44 45/71/44 12/68/44
f 53/13/45 45/71/45 54/65/45
f 57/74/46 78/75/46 60/76/46
f 78/60/47 61/63/47 60/62/47
f 74/77/48 59/78/48 62/61/48
f 14/27/49 80/79/49 37/17/49
f 66/21/50 80/79/50 65/80/50
f 58/81/51 60/76/51 59/82/51
f 2/83/52 78/75/52 1/84/52
f 4/85/53 61/47/53 75/48/53
f 1/49/54 72/86/54 33/87/54
f 57/88/55 71/16/55 72/86/55
f 8/8/56 70/89/56 28/90/56
f 64/15/57 70/89/57 63/91/57
f 37/17/58 67/92/58 20/93/58
f 79/38/59 67/92/59 80/79/59
f 28/90/60 65/80/60 14/27/60
f 69/22/61 65/80/61 70/89/61
f 33/87/62 63/91/62 8/8/62
f 71/16/63 63/91/63 72/86/63
f 58/81/64 73/94/64 6/95/64
f 3/96/65 75/48/65 76/97/65
f 44/98/66 62/67/66 61/47/66
f 3/99/67 77/100/67 2/83/67
f 5/101/68 62/67/68 43/102/68
f 22/31/69 67/103/69 50/104/69
f 49/105/70 67/103/70 68/106/70
f 24/107/71 68/106/71 23/108/71
f 32/1/72 31/7/72 7/2/72
f 26/4/73 25/26/73 13/5/73
f 31/7/74 33/87/74 8/8/74
f 32/9/75 9/43/75 10/10/75
f 36/11/76 10/10/76 46/12/76
f 35/14/77 11/44/77 64/15/77
f 37/17/78 20/93/78 19/18/78
f 27/20/79 17/109/79 66/21/79
f 29/23/80 26/110/80 15/24/80
f 25/26/81 28/90/81 14/27/81
f 29/23/82 16/25/82 48/28/82
f 19/30/83 20/111/83 22/31/83
f 39/33/84 22/42/84 50/34/84
f 42/36/85 38/19/85 19/18/85
f 79/38/86 41/53/86 23/39/86
f 39/33/87 42/52/87 21/41/87
f 10/10/88 29/23/88 51/29/88
f 8/8/89 28/90/89 25/26/89
f 9/43/90 26/110/90 29/23/90
f 11/44/91 27/20/91 69/22/91
f 7/2/92 25/26/92 26/4/92
f 6/45/93 35/14/93 71/16/93
f 44/47/94 4/48/94 36/11/94
f 4/48/95 3/97/95 32/9/95
f 1/49/96 33/87/96 31/7/96
f 2/50/97 31/7/97 32/1/97
f 16/25/98 15/24/98 42/52/98
f 66/21/99 17/109/99 41/53/99
f 13/5/100 38/19/100 42/36/100
f 16/25/101 39/33/101 55/35/101
f 14/27/102 37/17/102 38/19/102
f 18/54/103 47/57/103 56/55/103
f 47/57/104 48/28/104 55/35/104
f 77/58/105 76/112/105 75/59/105
f 62/61/106 59/78/106 60/62/106
f 5/64/107 43/67/107 54/65/107
f 43/67/108 44/47/108 53/13/108
f 12/68/109 45/71/109 52/69/109
f 46/12/110 51/29/110 52/69/110
f 40/56/111 56/55/111 49/72/111
f 55/35/112 50/34/112 49/72/112
f 30/70/113 52/69/113 47/57/113
f 51/29/114 48/28/114 47/57/114
f 34/66/115 54/65/115 45/71/115
f 53/13/116 46/12/116 45/71/116
f 57/74/117 1/84/117 78/75/117
f 78/60/118 75/59/118 61/63/118
f 74/77/119 73/113/119 59/78/119
f 14/27/120 65/80/120 80/79/120
f 66/21/121 79/38/121 80/79/121
f 58/81/122 57/74/122 60/76/122
f 2/83/123 77/100/123 78/75/123
f 4/85/124 44/98/124 61/47/124
f 1/49/125 57/88/125 72/86/125
f 57/88/126 58/46/126 71/16/126
f 8/8/127 63/91/127 70/89/127
f 64/15/128 69/22/128 70/89/128
f 37/17/129 80/79/129 67/92/129
f 79/38/130 68/40/130 67/92/130
f 28/90/131 70/89/131 65/80/131
f 69/22/132 66/21/132 65/80/132
f 33/87/133 72/86/133 63/91/133
f 71/16/134 64/15/134 63/91/134
f 58/81/135 59/82/135 73/94/135
f 3/96/136 4/85/136 75/48/136
f 44/98/137 43/102/137 62/67/137
f 3/99/138 76/98/138 77/100/138
f 5/101/139 74/64/139 62/67/139
f 22/31/140 20/111/140 67/103/140
f 49/105/141 50/104/141 67/103/141
f 24/107/142 49/105/142 68/106/142
