# Blender 4.2.0
# www.blender.org
mtllib SandbagWall02.mtl
o SandbagWall01
v 0.757538 1.214009 -0.244088
v 0.308859 1.214009 -0.482231
v 0.733313 1.552681 -0.103467
v 0.108288 1.485887 -0.449855
v 0.668470 1.707543 0.257223
v -0.195785 1.707543 -0.407081
v 0.634634 1.401958 0.468447
v -0.527426 1.401958 -0.354829
v 0.616470 0.000000 0.546474
v -0.486382 0.000000 -0.363221
v 0.762171 0.000000 -0.263989
v 0.327853 0.000000 -0.486114
v 2.195811 1.214009 -0.133088
v 2.165865 1.526376 0.089306
v 2.130006 1.579362 0.454020
v 2.112902 1.401958 0.696439
v 2.101249 0.000000 0.746498
v 2.197488 0.000000 -0.140293
v 3.647688 1.214009 -0.200286
v 3.614708 1.552681 0.105156
v 3.615061 1.565125 0.471629
v 3.617347 1.401958 0.756915
v 3.615344 0.000000 0.765517
v 3.614551 0.000000 -0.057939
v 5.022152 1.159406 -0.178757
v 4.843063 1.645508 0.092969
v 4.863395 1.706696 0.458877
v 5.115595 1.391037 0.583446
v 5.138595 0.000000 0.614114
v 5.075840 0.000000 -0.067379
v 0.018646 1.552681 -1.969954
v 0.243323 1.214009 -1.994317
v -0.346884 1.555482 -1.943694
v -0.664016 1.401958 -1.917728
v 0.181322 0.000000 -1.981640
v -0.640017 0.000000 -1.922635
v -0.008405 1.474363 -3.514315
v 0.197551 1.214009 -3.515930
v -0.418225 1.636326 -3.521515
v -0.646768 1.401957 -3.575679
v 0.110829 0.000000 -3.498199
v -0.711829 0.000000 -3.534454
v -0.010269 1.552681 -4.559745
v 0.239159 1.234924 -4.693069
v -0.374595 1.598308 -4.599356
v -0.408362 1.449016 -4.787001
v 0.154558 0.000000 -4.730659
v -0.514270 0.000000 -4.786630
v -0.016731 1.474363 -2.737667
v -0.382555 1.555482 -2.732604
v 0.146076 0.000000 -2.739920
v 0.307392 1.214009 -2.772901
v -0.628198 1.454822 -2.740703
v -0.675923 0.000000 -2.728544
v 0.092615 1.485887 -1.215864
v -0.271335 1.636326 -1.175387
v 0.289128 1.214009 -1.240939
v -0.563199 0.000000 -1.142928
v 0.213192 0.000000 -1.225414
v -0.662391 1.349093 -1.115412
v 1.449589 1.526376 -0.007081
v 1.484328 1.214009 -0.221466
v 1.471997 0.000000 -0.168498
v 1.358859 0.000000 0.646486
v 1.368784 1.401958 0.603853
v 1.399238 1.636326 0.355622
v 2.915954 1.214009 -0.141792
v 2.898187 0.000000 -0.065473
v 2.856341 1.401958 0.764407
v 2.872533 1.579362 0.462824
v 2.890286 1.552681 0.097231
v 2.858296 0.000000 0.756007
v 4.307840 0.000000 -0.096182
v 4.331078 0.000000 0.726640
v 4.322784 1.565125 0.432978
v 4.312443 1.552681 0.066788
v 4.334126 1.214009 -0.209098
v 4.337959 1.401958 0.697082
v 0.280085 1.214009 -4.129142
v 0.011453 1.552681 -4.119856
v -0.623922 1.401958 -4.174727
v -0.646653 0.000000 -4.170080
v 0.173992 0.000000 -4.107451
v -0.353769 1.598308 -4.147728
v 0.602651 0.927791 0.605836
v 0.618758 0.453624 0.536644
v -0.594187 0.453624 -0.341180
v -0.544856 0.927791 -0.351266
v 2.087716 0.927791 0.804627
v 2.093554 0.453624 0.779550
v 3.620858 0.927791 0.741829
v 3.620930 0.453624 0.741520
v 4.962637 0.927791 0.642553
v 5.064690 0.431781 0.524787
v -0.733369 0.453624 -1.903549
v -0.723325 0.901225 -1.925044
v -0.756290 0.453623 -3.537331
v -0.714433 0.927790 -3.561844
v -0.618134 0.453624 -4.798212
v -0.639953 0.927791 -4.793751
v -0.734397 0.927791 -2.716589
v -0.757999 0.453623 -2.711763
v -0.681735 0.874926 -1.111458
v -0.729443 0.400759 -1.101704
v 1.349699 0.453624 0.685834
v 1.345327 0.927791 0.704616
v 2.839744 0.453624 0.835703
v 2.844764 0.927791 0.814137
v 4.320018 0.453624 0.774150
v 4.317546 0.927791 0.784769
v -0.757372 0.909794 -4.130586
v -0.751223 0.426628 -4.139370
v 0.754328 0.390974 -0.230297
v 0.734817 0.802492 -0.146486
v 0.269378 0.802492 -0.474159
v 0.229879 0.390974 -0.466083
v 2.193880 0.390974 -0.124797
v 2.183956 0.802492 -0.082163
v 3.615926 0.390974 -0.063846
v 3.601019 0.802492 0.000191
v 5.084253 0.276307 -0.103517
v 4.965748 0.747889 0.063536
v 0.122848 0.802492 -1.969685
v 0.160890 0.390974 -1.977463
v 0.052355 0.802492 -3.486244
v 0.111358 0.390974 -3.498308
v 0.178679 0.802492 -4.704748
v 0.270533 0.390974 -4.723527
v 0.136124 0.390974 -2.737885
v 0.166116 0.802492 -2.744017
v 0.227189 0.390974 -1.228275
v 0.230358 0.802492 -1.228923
v 1.451424 0.802492 -0.080120
v 1.457875 0.390974 -0.107831
v 2.884655 0.802492 -0.007344
v 2.896358 0.390974 -0.057612
v 4.294308 0.802492 -0.038053
v 4.334621 0.390974 -0.211223
v 0.219337 0.390974 -4.116722
v 0.141536 0.802492 -4.100815
vn 0.4352 0.3716 -0.8200
vn 0.1097 0.9203 -0.3754
vn -0.5190 0.5242 0.6752
vn -0.6362 0.0199 0.7713
vn 0.0001 0.9945 -0.1047
vn 0.5615 -0.2202 -0.7976
vn 0.1001 0.5834 -0.8060
vn 0.0100 -0.3112 -0.9503
vn -0.0353 0.7288 0.6838
vn -0.1245 -0.0882 0.9883
vn -0.0026 -0.3247 -0.9458
vn 0.0384 0.9578 -0.2850
vn 0.0108 0.8680 0.4964
vn -0.0595 0.6654 -0.7442
vn 0.1180 -0.1671 0.9788
vn 0.0004 0.9994 -0.0339
vn 0.8585 0.4519 -0.2426
vn -0.1709 0.9849 -0.0286
vn 0.0873 -0.5143 -0.8532
vn -0.2396 0.8197 0.5202
vn 0.0782 0.5082 -0.8577
vn 0.3138 -0.0913 0.9451
vn 0.3652 0.9276 0.0785
vn 0.8318 0.5541 -0.0325
vn -0.5857 0.8087 0.0545
vn -0.9978 0.0411 0.0523
vn 0.9955 -0.0363 -0.0881
vn 0.7824 0.6216 -0.0386
vn 0.9991 0.0256 -0.0325
vn -0.7124 0.7012 -0.0286
vn 0.7843 0.6204 0.0084
vn -0.9802 0.1965 -0.0232
vn 0.1636 0.7574 -0.6321
vn -0.9559 0.2446 -0.1626
vn 0.1249 0.9922 -0.0058
vn 0.9552 -0.2848 0.0806
vn -0.8262 0.5038 -0.2522
vn -0.9929 0.1173 0.0178
vn 0.8264 0.5551 -0.0947
vn -0.4328 0.9006 0.0390
vn 0.9981 0.0525 -0.0325
vn 0.0076 1.0000 -0.0003
vn 0.9700 0.2432 -0.0034
vn -0.9838 0.0416 0.1743
vn -0.5865 0.8085 0.0479
vn 0.8037 0.5948 -0.0164
vn 0.5718 0.8098 -0.1313
vn 0.0728 0.9572 -0.2801
vn 0.0896 -0.2345 -0.9680
vn -0.1999 0.0222 0.9796
vn -0.0545 0.5718 0.8186
vn 0.0256 0.5676 -0.8229
vn -0.0354 0.9966 -0.0744
vn -0.0748 -0.0737 0.9945
vn -0.0099 0.5761 -0.8173
vn -0.0060 0.8621 0.5068
vn 0.1053 -0.1251 -0.9865
vn -0.0466 0.0533 0.9975
vn -0.0100 0.6312 -0.7756
vn 0.0286 0.8511 0.5242
vn -0.0497 -0.4329 -0.9001
vn -0.0019 0.9994 -0.0339
vn -0.5863 0.8098 -0.0224
vn 0.9792 -0.1095 0.1710
vn 0.3678 0.9297 -0.0186
vn -0.9873 0.1429 0.0700
vn 0.7802 0.6166 0.1053
vn -0.9681 -0.2301 -0.0993
vn -0.9999 -0.0126 -0.0079
vn 0.0814 0.1779 0.9807
vn -0.0615 -0.0007 0.9981
vn -0.0905 0.1061 0.9902
vn -0.0125 -0.0530 0.9985
vn -0.1772 0.2130 0.9609
vn -0.1304 -0.1475 0.9804
vn -0.9166 -0.3895 0.0903
vn -0.9806 0.1021 0.1673
vn -0.9828 -0.1794 0.0438
vn -0.9993 0.0239 0.0305
vn -0.9530 -0.2234 -0.2046
vn -0.9801 -0.0089 -0.1983
vn -0.9943 -0.0972 0.0443
vn -0.9988 0.0497 -0.0021
vn -0.9741 -0.2045 0.0960
vn -0.9949 0.1003 0.0115
vn 0.1452 0.0779 0.9863
vn 0.2152 -0.0207 0.9763
vn 0.0098 -0.0317 0.9994
vn 0.0928 -0.0006 0.9957
vn -0.1203 0.2269 0.9665
vn -0.1334 -0.0405 0.9902
vn -0.6190 0.2568 0.7422
vn -0.6349 -0.1326 0.7612
vn 0.9427 -0.3086 0.1269
vn 0.9804 0.1364 0.1423
vn -0.0551 -0.0149 -0.9984
vn -0.1870 0.3654 -0.9119
vn 0.1062 0.0205 -0.9941
vn 0.0945 0.1234 -0.9879
vn 0.1317 0.1566 -0.9788
vn 0.1711 0.0689 -0.9828
vn 0.9895 -0.1421 -0.0257
vn 0.9986 -0.0078 -0.0516
vn 0.9446 -0.3188 0.0777
vn 0.9943 0.0909 0.0556
vn 0.9877 -0.1361 -0.0767
vn 0.9812 0.1832 0.0603
vn 0.9309 -0.3384 -0.1376
vn 0.9857 -0.0741 -0.1511
vn 0.9571 -0.2837 -0.0582
vn 0.9896 -0.0078 -0.1436
vn 0.0372 -0.1307 -0.9907
vn 0.1873 0.3695 -0.9102
vn 0.0388 0.0399 -0.9984
vn -0.0229 0.1025 -0.9945
vn 0.0105 -0.0151 -0.9998
vn -0.0086 0.1535 -0.9881
vn 0.4537 0.0855 -0.8871
vn 0.5651 0.1903 -0.8027
vn 0.9486 -0.3007 0.0985
vn 0.9746 0.2152 -0.0616
vn 0.9846 0.1498 -0.0907
vn 0.1030 -0.0329 -0.9941
vn 0.0881 0.0650 -0.9940
vn 0.0834 -0.0066 -0.9965
vn 0.4110 0.4007 -0.8189
vn 0.4333 0.7032 -0.5637
vn -0.4587 0.6085 0.6475
vn -0.5771 -0.1759 0.7975
vn 0.3858 0.9215 0.0438
vn 0.4679 -0.0622 -0.8816
vn 0.1095 0.5707 -0.8138
vn -0.0719 -0.4302 -0.8999
vn -0.0729 0.8073 0.5856
vn -0.1331 -0.0743 0.9883
vn 0.1223 -0.1254 -0.9845
vn 0.0949 0.9864 -0.1340
vn 0.0050 0.8618 0.5072
vn 0.0089 0.5771 -0.8167
vn -0.0125 0.0530 0.9985
vn 0.0200 0.9972 -0.0718
vn 0.7999 0.5831 -0.1420
vn -0.2440 0.9586 -0.1467
vn 0.0102 -0.3846 -0.9230
vn 0.1350 0.4552 0.8801
vn -0.0715 0.6272 -0.7756
vn 0.1345 0.2228 0.9655
vn 0.2165 0.9763 0.0023
vn 0.8073 0.5881 -0.0491
vn -0.4386 0.8972 -0.0513
vn -0.9930 0.1175 0.0098
vn 0.9977 0.0526 -0.0420
vn 0.7793 0.6257 -0.0333
vn 0.9989 -0.0014 -0.0464
vn -0.3800 0.9183 0.1113
vn 0.6176 0.7812 -0.0913
vn -0.9898 0.1416 0.0130
vn 0.2969 0.5582 -0.7748
vn -0.8764 0.3930 -0.2783
vn 0.1244 0.9922 -0.0061
vn 0.9928 -0.1159 -0.0310
vn -0.5895 0.8073 0.0272
vn -0.9801 0.1961 -0.0301
vn 0.6288 0.7758 0.0517
vn -0.3796 0.9250 0.0172
vn 0.9986 0.0257 -0.0464
vn 0.2138 0.9708 -0.1089
vn 0.9875 -0.0365 -0.1532
vn -0.9844 0.0375 0.1721
vn -0.6778 0.7353 -0.0015
vn 0.8094 0.5869 -0.0210
vn 0.3812 0.9244 -0.0078
vn 0.1393 0.9188 -0.3694
vn 0.0294 -0.3268 -0.9446
vn -0.1330 -0.0883 0.9872
vn -0.1241 0.7291 0.6731
vn 0.1369 0.3882 -0.9114
vn 0.0017 0.9896 -0.1436
vn -0.0124 -0.1735 0.9848
vn -0.0121 0.5792 -0.8151
vn -0.0537 0.8076 0.5872
vn -0.0115 -0.3097 -0.9507
vn 0.0540 -0.1027 0.9932
vn -0.0409 0.6670 -0.7440
vn 0.0412 0.8675 0.4958
vn -0.0119 -0.3828 -0.9238
vn -0.6978 0.7070 -0.1148
vn 0.9947 -0.0013 0.1031
vn 0.1130 0.9849 0.1311
vn -0.9653 0.2584 -0.0368
vn 0.7805 0.6162 0.1051
vn -0.9952 -0.0976 -0.0040
vn -0.9932 0.0914 0.0721
vn -0.0615 -0.0322 0.9976
vn -0.0466 -0.0226 0.9987
vn -0.0122 0.2230 0.9747
vn -0.0750 0.0461 0.9961
vn -0.1264 0.2839 0.9505
vn -0.1998 -0.0406 0.9790
vn -0.9538 -0.2357 0.1860
vn -0.9799 0.1055 0.1691
vn -0.9788 -0.2027 0.0298
vn -0.9986 0.0499 0.0156
vn -0.9545 -0.2194 -0.2018
vn -0.9835 -0.0436 -0.1753
vn -0.9840 -0.1780 -0.0020
vn -0.9960 0.0867 -0.0235
vn -0.9242 -0.3813 -0.0206
vn -0.9983 0.0249 0.0518
vn 0.2122 0.1689 0.9625
vn 0.3093 -0.1590 0.9376
vn 0.0923 0.1016 0.9905
vn 0.1196 0.0438 0.9919
vn -0.1305 0.2123 0.9685
vn -0.1248 -0.0539 0.9907
vn -0.5779 0.0274 0.8157
vn -0.5845 0.0780 0.8076
vn 0.9373 -0.3209 0.1360
vn 0.9696 0.1768 0.1693
vn -0.1937 -0.2647 -0.9447
vn -0.0544 0.1516 -0.9869
vn 0.0951 0.0403 -0.9946
vn 0.1056 0.1050 -0.9889
vn 0.1708 0.0880 -0.9814
vn 0.0903 0.2029 -0.9750
vn 0.9940 -0.0964 -0.0514
vn 0.9954 -0.0956 -0.0035
vn 0.9592 -0.2776 0.0536
vn 0.9968 -0.0731 -0.0325
vn 0.9473 -0.3149 0.0583
vn 0.9735 0.2135 0.0821
vn 0.9330 -0.3303 -0.1430
vn 0.9892 0.1428 -0.0322
vn 0.9793 -0.1440 -0.1421
vn 0.9918 0.0933 -0.0878
vn 0.0931 -0.2869 -0.9534
vn 0.1688 0.3963 -0.9025
vn -0.0228 0.1525 -0.9880
vn -0.0028 0.0671 -0.9977
vn -0.0087 0.0201 -0.9998
vn 0.0104 0.1215 -0.9925
vn 0.4055 0.1478 -0.9020
vn 0.4094 -0.0572 -0.9106
vn 0.9824 -0.1744 -0.0674
vn 0.9665 0.2545 -0.0329
vn 0.9990 -0.0255 0.0374
vn 0.1456 0.0064 -0.9893
vn 0.1103 0.0144 -0.9938
vn 0.0833 -0.0064 -0.9965
vt -0.031250 0.458333
vt 0.239583 0.343750
vt 0.239583 0.458333
vt -0.031250 0.343750
vt 0.239583 0.250000
vt -0.208333 0.458333
vt 0.177083 0.375000
vt 0.177083 0.458333
vt 0.177083 0.135417
vt -0.208333 0.000000
vt 0.177083 0.000000
vt -0.229167 0.250000
vt -0.406250 0.343750
vt -0.406250 0.250000
vt -0.031250 0.562500
vt 0.239583 0.562500
vt 0.437500 0.458333
vt 0.604167 0.343750
vt 0.604167 0.458333
vt 0.781250 0.458333
vt 0.947917 0.562500
vt 0.781250 0.562500
vt 0.406250 0.375000
vt 0.645833 0.458333
vt 0.406250 0.458333
vt 0.406250 0.000000
vt 0.645833 0.135417
vt 0.406250 0.135417
vt 0.604167 0.562500
vt 0.406250 0.562500
vt 0.437500 0.250000
vt 0.437500 0.343750
vt 0.885417 0.458333
vt 1.104167 0.375000
vt 1.104167 0.458333
vt 0.947917 0.343750
vt 0.947917 0.458333
vt 0.885417 0.000000
vt 1.156250 0.135417
vt 0.885417 0.135417
vt 0.781250 0.343750
vt 0.947917 0.250000
vt 0.968750 0.583333
vt 0.802083 0.479167
vt 1.000000 0.479167
vt 1.125000 0.250000
vt 1.270833 0.343750
vt 1.125000 0.343750
vt 1.125000 0.562500
vt 1.291667 0.458333
vt 1.270833 0.562500
vt 1.343750 0.375000
vt 1.520833 0.479167
vt 1.343750 0.458333
vt 1.125000 0.458333
vt 1.343750 0.000000
vt 1.593750 0.135417
vt 1.343750 0.135417
vt -0.604167 0.250000
vt -0.791667 0.343750
vt -0.791667 0.250000
vt -0.229167 0.343750
vt -0.406250 0.458333
vt -0.447917 0.458333
vt -0.677083 0.375000
vt -0.447917 0.343750
vt -0.708333 0.239583
vt -0.447917 0.239583
vt -0.208333 0.854167
vt -0.406250 0.708333
vt -0.208333 0.708333
vt -0.916667 0.458333
vt -1.041667 0.343750
vt -0.947917 0.343750
vt -0.572917 0.854167
vt -0.770833 0.708333
vt -0.572917 0.708333
vt -0.947917 0.406250
vt -1.187500 0.479167
vt -1.218750 0.375000
vt -0.604167 0.343750
vt -0.770833 0.458333
vt -1.218750 0.260417
vt -0.947917 0.260417
vt 0.041667 0.572917
vt 0.145833 0.468750
vt 0.114583 0.572917
vt -1.395833 0.406250
vt -1.625000 0.291667
vt -1.395833 0.260417
vt -0.947917 0.250000
vt -1.062500 0.250000
vt -0.916667 0.708333
vt -1.062500 0.854167
vt -1.062500 0.708333
vt -1.552083 0.458333
vt -1.593750 0.427083
vt -0.677083 0.458333
vt -0.406250 0.854167
vt -0.031250 0.854167
vt -0.031250 0.708333
vt -0.208333 0.239583
vt -0.208333 0.343750
vt -0.031250 0.250000
vt 0.781250 0.250000
vt 0.645833 0.000000
vt 0.885417 0.375000
vt 1.104167 0.000000
vt -1.395833 0.479167
vt -0.916667 0.854167
vt -1.218750 0.020833
vt -1.427083 0.166667
vt -1.427083 0.052083
vt -1.218750 0.166667
vt 1.343750 0.260417
vt 1.104167 0.239583
vt 0.645833 0.375000
vt 0.885417 0.239583
vt 0.645833 0.239583
vt 0.406250 0.239583
vt 0.177083 0.239583
vt -0.447917 0.104167
vt -0.447917 0.000000
vt -0.208333 0.135417
vt -0.708333 0.020833
vt -0.947917 0.135417
vt -0.947917 0.020833
vt -0.708333 0.135417
vt -1.625000 0.166667
vt -1.625000 0.052083
vt 1.552083 0.260417
vt 1.593750 0.375000
vt -0.916667 0.562500
vt -0.770833 0.562500
vt 0.947917 0.708333
vt 1.104167 0.854167
vt 0.927083 0.854167
vt 1.125000 0.708333
vt 0.583333 0.854167
vt 0.750000 0.708333
vt 0.750000 0.854167
vt 0.604167 0.708333
vt 0.239583 0.854167
vt 0.406250 0.708333
vt 0.406250 0.854167
vt 0.239583 0.708333
vt -0.229167 0.562500
vt -0.229167 0.458333
vt -0.604167 0.562500
vt -0.604167 0.458333
vt -0.406250 0.562500
vt -1.062500 0.562500
vt -1.062500 0.458333
vt 1.291667 0.708333
vt 1.291667 0.854167
vt 0.979167 0.354167
vt 0.822917 0.354167
vt 0.833333 0.218750
vt 1.000000 0.114583
vt 0.802083 0.114583
vt -0.000000 0.343750
vt 0.166667 0.343750
vt 0.166667 0.208333
vt -0.000000 0.208333
vt 0.156250 0.104167
vt 0.010417 0.104167
vt 0.604167 0.250000
vt 0.875000 0.583333
vt 1.270833 0.250000
vt 1.625000 0.000000
vt -0.770833 0.854167
vt -0.947917 0.458333
vt 0.020833 0.468750
vt 1.000000 0.218750
s 0
usemtl Primary
f 2/1/1 3/2/1 1/3/1
f 4/4/2 5/5/2 3/2/2
f 6/6/3 7/7/3 5/8/3
f 86/9/4 10/10/4 9/11/4
f 56/12/5 31/13/5 33/14/5
f 115/15/6 1/3/6 114/16/6
f 62/17/7 14/18/7 13/19/7
f 67/20/8 120/21/8 135/22/8
f 65/23/9 15/24/9 66/25/9
f 64/26/10 90/27/10 105/28/10
f 62/17/11 118/29/11 133/30/11
f 66/31/12 14/18/12 61/32/12
f 70/33/13 22/34/13 21/35/13
f 67/20/14 20/36/14 19/37/14
f 72/38/15 92/39/15 107/40/15
f 71/41/16 21/42/16 20/36/16
f 26/43/17 28/44/17 25/45/17
f 75/46/18 26/47/18 76/48/18
f 137/49/19 25/50/19 122/51/19
f 78/52/20 27/53/20 75/54/20
f 77/55/21 26/47/21 25/50/21
f 74/56/22 94/57/22 109/58/22
f 50/59/23 37/60/23 39/61/23
f 55/62/24 32/63/24 31/13/24
f 56/64/25 34/65/25 60/66/25
f 60/66/26 96/67/26 103/68/26
f 59/69/27 124/70/27 131/71/27
f 79/72/28 43/73/28 80/74/28
f 51/75/29 126/76/29 129/77/29
f 53/78/30 39/79/30 40/80/30
f 49/81/31 38/82/31 37/60/31
f 53/78/32 98/83/32 101/84/32
f 43/85/33 46/86/33 45/87/33
f 81/88/34 100/89/34 111/90/34
f 84/91/35 43/73/35 45/92/35
f 139/93/36 47/94/36 128/95/36
f 81/88/37 45/96/37 46/97/37
f 34/65/38 101/84/38 96/67/38
f 32/63/39 49/81/39 31/13/39
f 33/98/40 53/78/40 34/65/40
f 35/99/41 129/77/41 124/70/41
f 31/13/42 50/59/42 33/14/42
f 12/100/43 131/71/43 116/101/43
f 88/102/44 60/66/44 103/68/44
f 8/103/45 56/64/45 60/66/45
f 2/1/46 55/62/46 4/4/46
f 4/4/47 56/12/47 6/104/47
f 3/2/48 66/31/48 61/32/48
f 1/3/49 133/30/49 114/16/49
f 9/11/50 105/28/50 86/9/50
f 7/7/51 66/25/51 5/8/51
f 1/3/52 61/32/52 62/17/52
f 14/18/53 70/105/53 71/41/53
f 17/106/54 107/40/54 90/27/54
f 13/19/55 71/41/55 67/20/55
f 15/24/56 69/107/56 70/33/56
f 13/19/57 135/22/57 118/29/57
f 23/108/58 109/58/58 92/39/58
f 19/37/59 76/48/59 77/55/59
f 21/35/60 78/52/60 75/54/60
f 19/37/61 137/49/61 120/21/61
f 20/36/62 75/46/62 76/48/62
f 40/80/63 84/109/63 81/88/63
f 126/76/64 83/110/64 139/93/64
f 37/60/65 84/91/65 39/61/65
f 40/80/66 111/90/66 98/83/66
f 38/82/67 80/74/67 37/60/67
f 42/111/68 112/112/68 82/113/68
f 97/114/69 111/90/69 112/112/69
f 22/34/70 110/115/70 78/52/70
f 92/39/71 110/115/71 91/116/71
f 16/117/72 108/118/72 69/107/72
f 90/27/73 108/118/73 89/119/73
f 7/7/74 106/120/74 65/23/74
f 86/9/75 106/120/75 85/121/75
f 10/10/76 104/122/76 58/123/76
f 87/124/77 103/68/77 104/122/77
f 36/125/78 102/126/78 54/127/78
f 96/67/79 102/126/79 95/128/79
f 82/113/80 99/129/80 48/130/80
f 111/90/81 99/129/81 112/112/81
f 54/127/82 97/114/82 42/111/82
f 101/84/83 97/114/83 102/126/83
f 58/123/84 95/128/84 36/125/84
f 103/68/85 95/128/85 104/122/85
f 78/52/86 93/131/86 28/132/86
f 109/58/87 93/131/87 110/115/87
f 69/107/88 91/116/88 22/34/88
f 108/118/89 92/39/89 91/116/89
f 65/23/90 89/119/90 16/117/90
f 105/28/91 89/119/91 106/120/91
f 7/7/92 88/102/92 85/121/92
f 88/102/93 86/9/93 85/121/93
f 38/82/94 140/133/94 79/72/94
f 126/76/95 140/133/95 125/134/95
f 119/135/96 73/136/96 24/137/96
f 119/135/97 137/49/97 138/138/97
f 18/139/98 136/140/98 68/141/98
f 117/142/99 135/22/99 136/140/99
f 11/143/100 134/144/100 63/145/100
f 113/146/101 133/30/101 134/144/101
f 2/1/102 132/147/102 57/148/102
f 115/15/103 131/71/103 132/147/103
f 32/63/104 130/149/104 52/150/104
f 124/70/105 130/149/105 123/151/105
f 79/72/106 127/152/106 44/153/106
f 139/93/107 127/152/107 140/133/107
f 52/150/108 125/134/108 38/82/108
f 129/77/109 125/134/109 130/149/109
f 57/148/110 123/151/110 32/63/110
f 131/71/111 123/151/111 132/147/111
f 73/136/112 121/154/112 30/155/112
f 138/138/113 122/51/113 121/154/113
f 63/145/114 117/142/114 18/139/114
f 134/144/115 118/29/115 117/142/115
f 68/141/116 119/135/116 24/137/116
f 136/140/117 120/21/117 119/135/117
f 12/100/118 113/146/118 11/143/118
f 113/146/119 115/15/119 114/16/119
f 122/156/120 28/44/120 93/157/120
f 94/158/121 122/156/121 93/157/121
f 30/159/122 94/158/122 29/160/122
f 46/86/123 127/161/123 100/162/123
f 99/163/124 127/161/124 128/164/124
f 48/165/125 128/164/125 47/166/125
f 2/1/126 4/4/126 3/2/126
f 4/4/127 6/104/127 5/5/127
f 6/6/128 8/103/128 7/7/128
f 86/9/129 87/124/129 10/10/129
f 56/12/130 55/62/130 31/13/130
f 115/15/131 2/1/131 1/3/131
f 62/17/132 61/32/132 14/18/132
f 67/20/133 19/37/133 120/21/133
f 65/23/134 16/117/134 15/24/134
f 64/26/135 17/106/135 90/27/135
f 62/17/136 13/19/136 118/29/136
f 66/31/137 15/167/137 14/18/137
f 70/33/138 69/107/138 22/34/138
f 67/20/139 71/41/139 20/36/139
f 72/38/140 23/108/140 92/39/140
f 71/41/141 70/105/141 21/42/141
f 26/43/142 27/168/142 28/44/142
f 75/46/143 27/169/143 26/47/143
f 137/49/144 77/55/144 25/50/144
f 78/52/145 28/132/145 27/53/145
f 77/55/146 76/48/146 26/47/146
f 74/56/147 29/170/147 94/57/147
f 50/59/148 49/81/148 37/60/148
f 55/62/149 57/148/149 32/63/149
f 56/64/150 33/98/150 34/65/150
f 60/66/151 34/65/151 96/67/151
f 59/69/152 35/99/152 124/70/152
f 79/72/153 44/153/153 43/73/153
f 51/75/154 41/171/154 126/76/154
f 53/78/155 50/172/155 39/79/155
f 49/81/156 52/150/156 38/82/156
f 53/78/157 40/80/157 98/83/157
f 43/85/158 44/173/158 46/86/158
f 81/88/159 46/97/159 100/89/159
f 84/91/160 80/74/160 43/73/160
f 139/93/161 83/110/161 47/94/161
f 81/88/162 84/109/162 45/96/162
f 34/65/163 53/78/163 101/84/163
f 32/63/164 52/150/164 49/81/164
f 33/98/165 50/172/165 53/78/165
f 35/99/166 51/75/166 129/77/166
f 31/13/167 49/81/167 50/59/167
f 12/100/168 59/69/168 131/71/168
f 88/102/169 8/103/169 60/66/169
f 8/103/170 6/6/170 56/64/170
f 2/1/171 57/148/171 55/62/171
f 4/4/172 55/62/172 56/12/172
f 3/2/173 5/5/173 66/31/173
f 1/3/174 62/17/174 133/30/174
f 9/11/175 64/26/175 105/28/175
f 7/7/176 65/23/176 66/25/176
f 1/3/177 3/2/177 61/32/177
f 14/18/178 15/167/178 70/105/178
f 17/106/179 72/38/179 107/40/179
f 13/19/180 14/18/180 71/41/180
f 15/24/181 16/117/181 69/107/181
f 13/19/182 67/20/182 135/22/182
f 23/108/183 74/56/183 109/58/183
f 19/37/184 20/36/184 76/48/184
f 21/35/185 22/34/185 78/52/185
f 19/37/186 77/55/186 137/49/186
f 20/36/62 21/42/62 75/46/62
f 40/80/187 39/79/187 84/109/187
f 126/76/188 41/171/188 83/110/188
f 37/60/189 80/74/189 84/91/189
f 40/80/190 81/88/190 111/90/190
f 38/82/191 79/72/191 80/74/191
f 42/111/192 97/114/192 112/112/192
f 97/114/193 98/83/193 111/90/193
f 22/34/194 91/116/194 110/115/194
f 92/39/195 109/58/195 110/115/195
f 16/117/196 89/119/196 108/118/196
f 90/27/197 107/40/197 108/118/197
f 7/7/198 85/121/198 106/120/198
f 86/9/199 105/28/199 106/120/199
f 10/10/200 87/124/200 104/122/200
f 87/124/201 88/102/201 103/68/201
f 36/125/202 95/128/202 102/126/202
f 96/67/203 101/84/203 102/126/203
f 82/113/204 112/112/204 99/129/204
f 111/90/205 100/89/205 99/129/205
f 54/127/206 102/126/206 97/114/206
f 101/84/207 98/83/207 97/114/207
f 58/123/208 104/122/208 95/128/208
f 103/68/209 96/67/209 95/128/209
f 78/52/210 110/115/210 93/131/210
f 109/58/211 94/57/211 93/131/211
f 69/107/212 108/118/212 91/116/212
f 108/118/213 107/40/213 92/39/213
f 65/23/214 106/120/214 89/119/214
f 105/28/215 90/27/215 89/119/215
f 7/7/216 8/103/216 88/102/216
f 88/102/217 87/124/217 86/9/217
f 38/82/218 125/134/218 140/133/218
f 126/76/219 139/93/219 140/133/219
f 119/135/220 138/138/220 73/136/220
f 119/135/221 120/21/221 137/49/221
f 18/139/222 117/142/222 136/140/222
f 117/142/223 118/29/223 135/22/223
f 11/143/224 113/146/224 134/144/224
f 113/146/225 114/16/225 133/30/225
f 2/1/226 115/15/226 132/147/226
f 115/15/227 116/101/227 131/71/227
f 32/63/228 123/151/228 130/149/228
f 124/70/229 129/77/229 130/149/229
f 79/72/230 140/133/230 127/152/230
f 139/93/231 128/95/231 127/152/231
f 52/150/232 130/149/232 125/134/232
f 129/77/233 126/76/233 125/134/233
f 57/148/234 132/147/234 123/151/234
f 131/71/235 124/70/235 123/151/235
f 73/136/236 138/138/236 121/154/236
f 138/138/237 137/49/237 122/51/237
f 63/145/238 134/144/238 117/142/238
f 134/144/239 133/30/239 118/29/239
f 68/141/240 136/140/240 119/135/240
f 136/140/241 135/22/241 120/21/241
f 12/100/242 116/101/242 113/146/242
f 113/146/243 116/101/243 115/15/243
f 122/156/244 25/45/244 28/44/244
f 94/158/245 121/174/245 122/156/245
f 30/159/246 121/174/246 94/158/246
f 46/86/247 44/173/247 127/161/247
f 99/163/248 100/162/248 127/161/248
f 48/165/249 99/163/249 128/164/249
