# Blender 4.2.0
# www.blender.org
mtllib TinBox01a.mtl
o TinBox01a
v 0.125000 0.187500 -0.156250
v 0.125000 0.000000 -0.156250
v 0.125000 0.187500 0.156250
v 0.125000 0.000000 0.156250
v -0.125000 0.187500 -0.156250
v -0.125000 0.000000 -0.156250
v -0.125000 0.187500 0.156250
v -0.125000 0.000000 0.156250
vn -0.0000 1.0000 -0.0000
vn -0.0000 -0.0000 1.0000
vn -1.0000 -0.0000 -0.0000
vn -0.0000 -1.0000 -0.0000
vn 1.0000 -0.0000 -0.0000
vn -0.0000 -0.0000 -1.0000
vt 0.573529 0.714286
vt 0.000000 1.000000
vt 0.000000 0.714286
vt 0.573529 0.433036
vt 1.000000 0.254464
vt 0.573529 0.254464
vt 0.000000 0.254464
vt 0.000000 0.718750
vt 0.000000 0.433036
vt 0.573529 0.075893
vt 0.000000 0.075893
vt 0.573529 1.000000
vt 1.000000 0.433036
vt 0.573529 0.718750
s 0
usemtl Primary
f 5/1/1 3/2/1 1/3/1
f 3/4/2 8/5/2 4/6/2
f 7/4/3 6/7/3 8/6/3
f 2/4/4 8/8/4 6/9/4
f 1/7/5 4/10/5 2/11/5
f 5/4/6 2/5/6 6/6/6
f 5/1/1 7/12/1 3/2/1
f 3/4/2 7/13/2 8/5/2
f 7/4/3 5/9/3 6/7/3
f 2/4/4 4/14/4 8/8/4
f 1/7/5 3/6/5 4/10/5
f 5/4/6 1/13/6 2/5/6
