# Blender 4.2.0
# www.blender.org
mtllib ElephantWhip01.mtl
o ElephantWhip01
v -0.455517 1.184609 0.490408
v -0.455517 1.184609 -0.449592
v -0.476730 1.163396 0.490408
v -0.476730 1.163396 -0.449592
v -0.455517 1.142182 -0.449592
v -0.455517 1.142182 0.490408
v -0.434304 1.163396 -0.449592
v -0.434304 1.163396 0.490408
v 0.086732 1.298296 0.490408
v 0.086732 1.298296 0.520408
v 0.086732 0.596733 0.520408
v 0.234162 1.286076 0.490408
v 0.234162 0.596733 0.490408
v 0.234162 1.286076 0.520408
v 0.234162 0.596733 0.520408
v -0.413511 1.298296 0.520408
v -0.413511 0.596733 0.520408
v -0.413511 1.298296 0.490408
v -0.413511 0.596733 0.490408
v 0.000903 0.516722 0.520408
v -0.301497 0.516722 0.520408
v -0.054932 0.294147 0.520408
v -0.054932 0.294147 0.490408
v -0.618629 1.251744 0.490408
v -0.519707 0.596733 0.520408
v -0.266028 0.294147 0.520408
v -0.618629 1.251744 0.520408
v -0.095896 0.249050 0.520408
v -0.095896 0.249050 0.490408
v -0.225064 0.249050 0.520408
v -0.225064 0.249050 0.490408
v -0.587437 0.562396 0.490408
v -0.842016 0.926461 0.490408
v -0.587437 0.562396 0.520408
v -0.842016 0.926461 0.520408
v -0.744143 1.136381 0.490408
v -0.744143 1.136381 0.520408
v -0.553572 0.579565 0.520408
v -0.842016 0.601014 0.490408
v -0.613543 0.513350 0.520408
v -0.842016 0.601014 0.520408
v -0.791636 0.449690 0.490408
v -0.603895 0.469676 0.520408
v -0.791636 0.449690 0.520408
v -0.716298 0.365024 0.490408
v -0.504835 0.385010 0.520408
v -0.716298 0.365024 0.520408
v -0.623996 0.294238 0.490408
v -0.498362 0.325863 0.520408
v -0.623996 0.294238 0.520408
v -0.573396 0.280829 0.490408
v -0.538263 0.287899 0.520408
v -0.573396 0.280829 0.520408
v 0.494269 1.158641 0.520408
v 0.312717 0.556582 0.520408
v 0.640075 0.704968 0.490408
v 0.669752 0.964873 0.520408
v 0.640075 0.704968 0.520408
v 0.698666 0.915852 0.490408
v 0.712430 0.784247 0.490408
v 0.698666 0.915852 0.520408
v 0.712430 0.784247 0.520408
v 0.329938 0.414737 0.520408
v 0.653255 0.468279 0.490408
v 0.653255 0.468279 0.520408
v 0.353775 0.307398 0.490408
v 0.353775 0.307398 0.520408
v 0.600314 0.336694 0.520408
v 0.422223 0.263108 0.520408
v 0.515206 0.269170 0.520408
v -0.498362 0.325863 -0.479592
v -0.504835 0.385010 -0.479592
v -0.603895 0.469676 -0.479592
v -0.613543 0.513350 -0.479592
v -0.553572 0.579565 -0.479592
v -0.266028 0.294147 -0.479592
v -0.519707 0.596733 -0.479592
v -0.301497 0.516722 -0.479592
v 0.000903 0.516722 -0.479592
v 0.086732 0.596733 -0.479592
v -0.578847 0.361078 -0.479592
v -0.600060 0.339865 -0.479592
v -0.621273 0.361078 -0.479592
v -0.600060 0.382291 -0.479592
v 0.515206 0.269170 -0.449592
v 0.422223 0.263108 -0.449592
v 0.600314 0.336694 -0.449592
v 0.353775 0.307398 -0.449592
v 0.353775 0.307398 -0.479592
v 0.653255 0.468279 -0.449592
v 0.653255 0.468279 -0.479592
v 0.329938 0.414737 -0.449592
v 0.712430 0.784247 -0.449592
v 0.698666 0.915852 -0.449592
v 0.712430 0.784247 -0.479592
v 0.698666 0.915852 -0.479592
v 0.640075 0.704968 -0.449592
v 0.669752 0.964873 -0.449592
v 0.640075 0.704968 -0.479592
v 0.312717 0.556582 -0.449592
v 0.494269 1.158641 -0.449592
v -0.573396 0.280829 -0.449592
v -0.538263 0.287899 -0.449592
v -0.573396 0.280829 -0.479592
v -0.623996 0.294238 -0.449592
v -0.498362 0.325863 -0.449592
v -0.623996 0.294238 -0.479592
v -0.716298 0.365024 -0.449592
v -0.504835 0.385010 -0.449592
v -0.716298 0.365024 -0.479592
v -0.791636 0.449690 -0.449592
v -0.603895 0.469676 -0.449592
v -0.791636 0.449690 -0.479592
v -0.842016 0.601014 -0.449592
v -0.613543 0.513350 -0.449592
v -0.842016 0.601014 -0.479592
v -0.553572 0.579565 -0.449592
v -0.744143 1.136381 -0.449592
v -0.744143 1.136381 -0.479592
v -0.842016 0.926461 -0.449592
v -0.587437 0.562396 -0.449592
v -0.842016 0.926461 -0.479592
v -0.587437 0.562396 -0.479592
v -0.225064 0.249050 -0.479592
v -0.225064 0.249050 -0.449592
v -0.095896 0.249050 -0.479592
v -0.095896 0.249050 -0.449592
v -0.618629 1.251744 -0.449592
v -0.266028 0.294147 -0.449592
v -0.519707 0.596733 -0.449592
v -0.618629 1.251744 -0.479592
v -0.054932 0.294147 -0.479592
v -0.054932 0.294147 -0.449592
v -0.301497 0.516722 -0.449592
v 0.000903 0.516722 -0.449592
v -0.413511 0.596733 -0.479592
v -0.413511 1.298296 -0.479592
v -0.413511 0.596733 -0.449592
v -0.413511 1.298296 -0.449592
v 0.234162 0.596733 -0.449592
v 0.234162 1.286076 -0.449592
v 0.234162 0.596733 -0.479592
v 0.234162 1.286076 -0.479592
v 0.086732 0.596733 -0.449592
v 0.086732 1.298296 -0.449592
v 0.086732 1.298296 -0.479592
v -0.434304 1.163396 -0.479592
v -0.455517 1.142182 -0.479592
v -0.476730 1.163396 -0.479592
v -0.455517 1.184609 -0.479592
v -0.350000 0.596733 0.490408
v -0.350000 0.636733 0.490408
v -0.350000 0.596733 -0.449592
v -0.350000 0.636733 -0.449592
v 0.262717 0.596733 0.490408
v 0.262717 0.636733 0.490408
v 0.262717 0.596733 -0.449592
v 0.262717 0.636733 -0.449592
v -0.250000 0.596733 0.020408
v -0.250000 0.636733 0.020408
v 0.362717 0.596733 0.020408
v 0.362717 0.636733 0.020408
v -0.600060 0.382291 0.490408
v -0.600060 0.382291 -0.449592
v -0.621273 0.361078 0.490408
v -0.621273 0.361078 -0.449592
v -0.600060 0.339865 -0.449592
v -0.600060 0.339865 0.490408
v -0.578847 0.361078 -0.449592
v -0.578847 0.361078 0.490408
v 0.086732 0.596733 0.490408
v 0.000903 0.516722 0.490408
v -0.301497 0.516722 0.490408
v -0.519707 0.596733 0.490408
v -0.266028 0.294147 0.490408
v -0.553572 0.579565 0.490408
v -0.613543 0.513350 0.490408
v -0.603895 0.469676 0.490408
v -0.504835 0.385010 0.490408
v 0.515206 0.269170 -0.479592
v -0.498362 0.325863 0.490408
v 0.422223 0.263108 -0.479592
v -0.538263 0.287899 0.490408
v 0.600314 0.336694 -0.479592
v 0.494269 1.158641 0.490408
v 0.312717 0.556582 0.490408
v 0.669752 0.964873 0.490408
v 0.329938 0.414737 -0.479592
v 0.669752 0.964873 -0.479592
v 0.312717 0.556582 -0.479592
v 0.329938 0.414737 0.490408
v 0.494269 1.158641 -0.479592
v -0.538263 0.287899 -0.479592
v 0.600314 0.336694 0.490408
v 0.422223 0.263108 0.490408
v 0.515206 0.269170 0.490408
v 0.017661 0.000000 -0.168967
v 0.017661 0.596733 -0.168967
v 0.185779 0.000000 -0.046822
v 0.185779 0.596733 -0.046822
v 0.121564 0.000000 0.150813
v 0.121564 0.596733 0.150813
v -0.086242 0.000000 0.150813
v -0.086242 0.596733 0.150813
v -0.150458 0.000000 -0.046822
v -0.150458 0.596733 -0.046822
v 0.017661 -0.250000 -0.168967
v 0.185779 -0.250000 -0.046822
v 0.121564 -0.250000 0.150813
v -0.086242 -0.250000 0.150813
v -0.150458 -0.250000 -0.046822
v 0.017661 0.298366 -0.168967
v 0.185779 0.298366 -0.046822
v 0.121564 0.298366 0.150813
v -0.086242 0.298366 0.150813
v -0.150458 0.298366 -0.046822
vn -0.7071 -0.7071 -0.0000
vn 0.7071 -0.7071 -0.0000
vn 0.7071 0.7071 -0.0000
vn -0.7071 0.7071 -0.0000
vn -0.0826 -0.9966 -0.0000
vn -0.0000 1.0000 -0.0000
vn -0.0000 -0.0000 -1.0000
vn -0.0000 -1.0000 -0.0000
vn 0.5812 0.8137 -0.0000
vn -0.6819 0.7315 -0.0000
vn 0.2213 -0.9752 -0.0000
vn 0.9875 0.1574 -0.0000
vn -0.9699 0.2433 -0.0000
vn 0.9063 -0.4226 -0.0000
vn -0.7402 0.6724 -0.0000
vn 0.7402 0.6724 -0.0000
vn -0.4522 0.8919 -0.0000
vn 0.6767 -0.7363 -0.0000
vn 1.0000 -0.0000 -0.0000
vn -0.8827 0.4699 -0.0000
vn -0.6497 -0.7602 -0.0000
vn 0.9488 0.3159 -0.0000
vn -0.9765 -0.2157 -0.0000
vn 0.7471 0.6648 -0.0000
vn 0.6085 0.7935 -0.0000
vn -0.9941 -0.1088 -0.0000
vn -0.1973 0.9803 -0.0000
vn 0.2562 0.9666 -0.0000
vn -0.6893 0.7245 -0.0000
vn 0.9927 0.1205 -0.0000
vn 0.4551 0.8904 -0.0000
vn -0.4400 -0.8980 -0.0000
vn -0.8613 -0.5081 -0.0000
vn -0.7412 -0.6713 -0.0000
vn -0.9946 -0.1040 -0.0000
vn -0.7386 0.6741 -0.0000
vn -0.9985 -0.0556 -0.0000
vn -0.9277 0.3733 -0.0000
vn 0.9762 0.2168 -0.0000
vn -0.0650 0.9979 -0.0000
vn 0.5432 0.8396 -0.0000
vn -0.6215 0.7834 -0.0000
vn -0.0000 -0.0000 1.0000
vn -0.9781 -0.0000 0.2081
vn 0.9781 -0.0000 0.2081
vn 0.9781 -0.0000 -0.2081
vn -0.9781 -0.0000 -0.2081
vn 0.5878 -0.0000 -0.8090
vn 0.9511 -0.0000 0.3090
vn -0.9511 -0.0000 0.3090
vn -0.5878 -0.0000 -0.8090
vn -0.0651 0.9979 -0.0000
vt 0.638158 0.000000
vt 0.625000 1.000000
vt 0.638158 1.000000
vt 0.625000 0.000000
vt 0.861842 0.703125
vt 0.835526 1.000000
vt 0.861842 1.000000
vt 0.835526 0.703125
vt 0.361842 0.328125
vt 0.453947 0.953125
vt 0.421053 0.328125
vt 0.539474 0.843750
vt 0.460526 0.296875
vt 0.861842 0.203125
vt 0.835526 -0.015625
vt 0.835526 0.203125
vt 0.861842 0.000000
vt 0.835526 0.000000
vt 0.861842 0.718750
vt 0.164474 0.984375
vt 0.361842 1.000000
vt 0.328947 0.265625
vt 0.243421 0.062500
vt 0.315789 0.062500
vt 0.197368 0.328125
vt 0.861842 -0.031250
vt 0.835526 -0.031250
vt 0.835526 0.578125
vt 0.861842 0.546875
vt 0.835526 0.546875
vt 0.164474 0.343750
vt 0.072368 0.906250
vt 0.861842 0.531250
vt 0.835526 0.531250
vt 0.861842 -0.062500
vt 0.835526 -0.062500
vt 0.835526 0.078125
vt 0.861842 0.078125
vt 0.302632 -0.000000
vt 0.111842 0.328125
vt 0.000000 0.625000
vt 0.026316 0.781250
vt 0.835526 0.125000
vt 0.861842 0.046875
vt 0.835526 0.046875
vt 0.131579 0.343750
vt 0.861842 0.343750
vt 0.835526 0.343750
vt 0.835526 0.890625
vt 0.105263 0.312500
vt 0.000000 0.359375
vt 0.835526 0.734375
vt 0.861842 0.734375
vt 0.861842 0.687500
vt 0.835526 0.687500
vt 0.835526 0.906250
vt 0.861842 0.906250
vt 0.092105 0.281250
vt 0.026316 0.203125
vt 0.118421 0.156250
vt 0.085526 0.046875
vt 0.059211 0.093750
vt 0.092105 0.250000
vt 0.861842 0.921875
vt 0.861842 0.890625
vt 0.138158 0.109375
vt 0.118421 0.031250
vt 0.835526 0.718750
vt 0.835526 0.015625
vt 0.861842 0.015625
vt 0.861842 0.421875
vt 0.835526 0.484375
vt 0.861842 0.484375
vt 0.598684 0.703125
vt 0.592105 0.437500
vt 0.611842 0.656250
vt 0.618421 0.515625
vt 0.861842 -0.015625
vt 0.592105 0.250000
vt 0.480263 0.187500
vt 0.486842 0.078125
vt 0.546053 0.046875
vt 0.513158 0.031250
vt 0.578947 0.093750
vt 0.835526 0.031250
vt 0.760417 0.920635
vt 0.739583 0.888889
vt 0.739583 0.920635
vt 0.848684 0.500000
vt 0.828947 1.000000
vt 0.828947 0.500000
vt 0.809211 1.000000
vt 0.809211 0.500000
vt 0.822368 0.140625
vt 0.644737 0.625000
vt 0.644737 0.015625
vt 0.822368 0.765625
vt 1.000000 0.625000
vt 1.000000 0.015625
vt 0.828947 0.000000
vt 0.809211 0.000000
vt 0.848684 0.000000
vt 0.638158 0.968750
vt 0.625000 0.968750
vt 0.223684 0.265625
vt 0.861842 0.031250
vt 0.342105 0.000000
vt 0.407895 0.296875
vt 0.342105 0.296875
vt 0.407895 0.000000
vt 0.467105 0.296875
vt 0.467105 0.000000
vt 0.401316 0.000000
vt 0.401316 0.296875
vt 0.861842 0.578125
vt 0.256579 -0.000000
vt 0.861842 0.125000
vt 0.835526 0.921875
vt 0.131579 0.062500
vt 0.835526 0.421875
vt 0.760417 0.888889
vt 0.848684 1.000000
s 0
usemtl Primary
f 6/1/1 4/2/1 5/3/1
f 8/4/2 5/3/2 7/2/2
f 1/1/3 7/2/3 2/3/3
f 3/4/4 2/3/4 4/2/4
f 12/5/5 10/6/5 9/7/5
f 171/8/6 15/7/6 13/6/6
f 11/9/7 14/10/7 15/11/7
f 15/11/7 54/12/7 55/13/7
f 19/14/6 25/15/6 17/16/6
f 10/17/8 18/6/8 9/18/8
f 19/19/9 21/6/9 173/7/9
f 11/9/7 16/20/7 10/21/7
f 21/22/7 22/23/7 26/24/7
f 11/25/7 21/22/7 17/9/7
f 171/26/10 20/16/10 11/27/10
f 16/7/11 24/28/11 18/6/11
f 21/29/12 175/6/12 173/30/12
f 172/30/13 22/7/13 20/29/13
f 17/31/7 27/32/7 16/20/7
f 37/33/14 33/6/14 36/34/14
f 29/35/6 30/16/6 28/36/6
f 23/37/15 28/14/15 22/38/15
f 22/23/7 30/39/7 26/24/7
f 26/38/16 31/16/16 175/37/16
f 38/40/7 35/41/7 37/42/7
f 38/43/17 32/44/17 34/45/17
f 174/14/17 38/43/17 25/16/17
f 25/46/7 37/42/7 27/32/7
f 27/14/18 36/34/18 24/16/18
f 35/47/19 39/6/19 33/48/19
f 34/49/20 177/7/20 40/6/20
f 34/50/7 41/51/7 35/41/7
f 178/52/21 46/7/21 43/53/21
f 41/54/22 42/6/22 39/55/22
f 177/56/23 43/7/23 40/57/23
f 40/58/7 44/59/7 41/51/7
f 46/60/7 50/61/7 47/62/7
f 43/63/7 47/62/7 44/59/7
f 44/27/24 45/14/24 42/26/24
f 47/16/25 48/26/25 45/14/25
f 179/38/26 49/16/26 46/37/26
f 183/6/27 53/64/27 52/7/27
f 50/65/28 51/6/28 48/49/28
f 181/65/29 52/6/29 49/49/29
f 49/66/7 53/67/7 50/61/7
f 55/68/30 191/7/30 186/19/30
f 15/69/31 186/14/31 13/70/31
f 12/6/32 54/71/32 14/7/32
f 187/37/33 61/14/33 57/38/33
f 185/72/34 57/7/34 54/73/34
f 55/13/7 57/74/7 58/75/7
f 61/52/35 60/7/35 62/6/35
f 58/75/7 61/76/7 62/77/7
f 58/16/36 60/78/36 56/14/36
f 55/13/7 65/79/7 63/80/7
f 56/33/37 65/6/37 58/34/37
f 67/81/7 70/82/7 69/83/7
f 64/19/38 68/6/38 65/68/38
f 63/80/7 68/84/7 67/81/7
f 63/26/39 66/16/39 191/27/39
f 69/16/40 196/70/40 195/14/40
f 66/85/41 69/14/41 195/16/41
f 194/14/42 70/15/42 68/16/42
f 193/6/27 102/64/27 103/7/27
f 72/38/26 106/16/26 109/37/26
f 108/16/25 107/26/25 110/14/25
f 111/27/24 110/14/24 113/26/24
f 112/63/7 108/62/7 111/59/7
f 109/60/7 105/61/7 108/62/7
f 115/58/7 111/59/7 114/51/7
f 74/56/23 112/7/23 115/57/23
f 114/54/22 113/6/22 116/55/22
f 73/52/21 109/7/21 112/53/21
f 121/50/7 114/51/7 120/41/7
f 123/65/20 115/6/20 121/49/20
f 120/47/19 116/6/19 122/48/19
f 131/16/18 118/33/18 119/34/18
f 130/46/7 118/42/7 128/32/7
f 77/14/17 117/43/17 130/16/17
f 117/43/17 123/44/17 121/45/17
f 117/40/7 120/41/7 118/42/7
f 129/38/16 124/16/16 76/37/16
f 133/23/7 125/39/7 129/24/7
f 132/37/15 127/14/15 133/38/15
f 126/35/6 125/16/6 127/36/6
f 118/33/14 122/6/14 119/34/14
f 138/31/7 128/32/7 139/20/7
f 79/30/13 133/7/13 135/29/13
f 134/29/12 76/6/12 78/30/12
f 139/7/11 131/28/11 137/6/11
f 80/26/10 135/16/10 144/27/10
f 144/25/7 134/22/7 138/9/7
f 134/22/7 133/23/7 129/24/7
f 144/9/7 139/20/7 145/21/7
f 136/19/9 134/6/9 78/7/9
f 145/17/8 137/6/8 146/18/8
f 136/14/6 130/15/6 138/16/6
f 140/11/7 101/12/7 100/13/7
f 144/9/7 141/10/7 140/11/7
f 142/6/6 144/5/6 140/7/6
f 143/5/5 145/6/5 146/7/5
f 150/86/43 148/87/43 147/88/43
f 160/89/44 153/90/44 159/91/44
f 162/91/45 155/92/45 161/93/45
f 159/94/8 155/95/8 151/96/8
f 160/94/6 156/95/6 162/97/6
f 158/98/6 160/94/6 162/97/6
f 157/98/8 159/94/8 153/99/8
f 158/100/46 161/93/46 157/101/46
f 152/102/47 159/91/47 151/100/47
f 168/103/1 166/4/1 167/1/1
f 170/104/2 167/1/2 169/4/2
f 163/103/3 169/4/3 164/1/3
f 165/104/4 164/1/4 166/4/4
f 171/9/43 12/10/43 9/21/43
f 13/11/43 185/12/43 12/10/43
f 18/20/43 171/9/43 9/21/43
f 173/22/43 23/23/43 172/105/43
f 173/22/43 171/25/43 19/9/43
f 24/32/43 19/31/43 18/20/43
f 31/39/43 23/23/43 175/24/43
f 33/41/43 176/40/43 36/42/43
f 36/42/43 174/46/43 24/32/43
f 39/51/43 32/50/43 33/41/43
f 42/59/43 177/58/43 39/51/43
f 48/61/43 179/60/43 45/62/43
f 45/62/43 178/63/43 42/59/43
f 51/67/43 181/66/43 48/61/43
f 186/13/43 187/74/43 185/12/43
f 56/75/43 59/76/43 187/74/43
f 186/13/43 64/79/43 56/75/43
f 66/81/43 196/82/43 194/84/43
f 191/80/43 194/84/43 64/79/43
f 105/65/28 104/6/28 107/49/28
f 71/65/29 103/6/29 106/49/29
f 106/66/7 102/67/7 105/61/7
f 100/68/30 188/7/30 190/19/30
f 142/70/31 100/16/31 190/14/31
f 143/6/32 101/71/32 141/7/32
f 189/37/33 94/14/33 98/38/33
f 192/72/34 98/7/34 101/73/34
f 100/13/7 98/74/7 97/75/7
f 94/52/35 95/7/35 93/6/35
f 97/75/7 94/76/7 93/77/7
f 97/16/36 95/78/36 99/14/36
f 100/13/7 90/79/7 92/80/7
f 99/33/37 90/6/37 97/34/37
f 88/81/7 85/82/7 86/83/7
f 91/19/38 87/6/38 90/68/38
f 92/80/7 87/84/7 88/81/7
f 92/26/39 89/16/39 188/27/39
f 86/16/40 180/70/40 182/14/40
f 88/106/41 182/16/41 89/85/41
f 184/14/42 85/15/42 87/16/42
f 84/86/43 82/87/43 81/88/43
f 80/9/43 143/10/43 146/21/43
f 142/11/43 192/12/43 143/10/43
f 137/20/43 80/9/43 146/21/43
f 78/22/43 132/23/43 79/105/43
f 78/22/43 80/25/43 136/9/43
f 131/32/43 136/31/43 137/20/43
f 124/39/43 132/23/43 76/24/43
f 122/41/43 75/40/43 119/42/43
f 119/42/43 77/46/43 131/32/43
f 116/51/43 123/50/43 122/41/43
f 113/59/43 74/58/43 116/51/43
f 107/61/43 72/60/43 110/62/43
f 110/62/43 73/63/43 113/59/43
f 104/67/43 71/66/43 107/61/43
f 190/13/43 189/74/43 192/12/43
f 99/75/43 96/76/43 189/74/43
f 190/13/43 91/79/43 99/75/43
f 89/81/43 180/82/43 184/84/43
f 188/80/43 184/84/43 91/79/43
f 198/107/48 213/108/48 212/109/48
f 200/110/49 214/111/49 213/108/49
f 202/112/43 215/108/43 214/111/43
f 204/110/50 216/109/50 215/108/50
f 206/107/51 212/108/51 216/109/51
f 205/111/50 210/113/50 203/114/50
f 201/109/49 208/113/49 199/114/49
f 197/114/51 211/112/51 205/111/51
f 199/114/48 207/112/48 197/111/48
f 203/114/43 209/107/43 201/109/43
f 216/107/51 197/108/51 205/109/51
f 215/110/50 205/109/50 203/108/50
f 214/112/43 203/108/43 201/111/43
f 213/110/49 201/111/49 199/108/49
f 212/107/48 199/108/48 197/109/48
f 6/1/1 3/4/1 4/2/1
f 8/4/2 6/1/2 5/3/2
f 1/1/3 8/4/3 7/2/3
f 3/4/4 1/1/4 2/3/4
f 12/5/5 14/8/5 10/6/5
f 171/8/6 11/5/6 15/7/6
f 11/9/7 10/21/7 14/10/7
f 15/11/7 14/10/7 54/12/7
f 19/14/6 174/78/6 25/15/6
f 10/17/8 16/7/8 18/6/8
f 19/19/9 17/68/9 21/6/9
f 11/9/7 17/31/7 16/20/7
f 21/22/7 20/105/7 22/23/7
f 11/25/7 20/105/7 21/22/7
f 171/26/10 172/14/10 20/16/10
f 16/7/11 27/115/11 24/28/11
f 21/29/12 26/7/12 175/6/12
f 172/30/13 23/6/13 22/7/13
f 17/31/7 25/46/7 27/32/7
f 37/33/14 35/7/14 33/6/14
f 29/35/6 31/14/6 30/16/6
f 23/37/15 29/16/15 28/14/15
f 22/23/7 28/116/7 30/39/7
f 26/38/16 30/14/16 31/16/16
f 38/40/7 34/50/7 35/41/7
f 38/43/17 176/117/17 32/44/17
f 174/14/17 176/117/17 38/43/17
f 25/46/7 38/40/7 37/42/7
f 27/14/18 37/33/18 36/34/18
f 35/47/19 41/7/19 39/6/19
f 34/49/20 32/65/20 177/7/20
f 34/50/7 40/58/7 41/51/7
f 178/52/21 179/6/21 46/7/21
f 41/54/22 44/7/22 42/6/22
f 177/56/23 178/6/23 43/7/23
f 40/58/7 43/63/7 44/59/7
f 46/60/7 49/66/7 50/61/7
f 43/63/7 46/60/7 47/62/7
f 44/27/24 47/16/24 45/14/24
f 47/16/25 50/27/25 48/26/25
f 179/38/26 181/14/26 49/16/26
f 183/6/27 51/118/27 53/64/27
f 50/65/28 53/7/28 51/6/28
f 181/65/29 183/7/29 52/6/29
f 49/66/7 52/119/7 53/67/7
f 55/68/30 63/6/30 191/7/30
f 15/69/31 55/16/31 186/14/31
f 12/6/32 185/120/32 54/71/32
f 187/37/33 59/16/33 61/14/33
f 185/72/34 187/6/34 57/7/34
f 55/13/7 54/12/7 57/74/7
f 61/52/35 59/53/35 60/7/35
f 58/75/7 57/74/7 61/76/7
f 58/16/36 62/15/36 60/78/36
f 55/13/7 58/75/7 65/79/7
f 56/33/37 64/7/37 65/6/37
f 67/81/7 68/84/7 70/82/7
f 64/19/38 194/7/38 68/6/38
f 63/80/7 65/79/7 68/84/7
f 63/26/39 67/14/39 66/16/39
f 69/16/52 70/69/52 196/70/52
f 66/85/41 67/106/41 69/14/41
f 194/14/42 196/78/42 70/15/42
f 193/6/27 104/118/27 102/64/27
f 72/38/26 71/14/26 106/16/26
f 108/16/25 105/27/25 107/26/25
f 111/27/24 108/16/24 110/14/24
f 112/63/7 109/60/7 108/62/7
f 109/60/7 106/66/7 105/61/7
f 115/58/7 112/63/7 111/59/7
f 74/56/23 73/6/23 112/7/23
f 114/54/22 111/7/22 113/6/22
f 73/52/21 72/6/21 109/7/21
f 121/50/7 115/58/7 114/51/7
f 123/65/20 74/7/20 115/6/20
f 120/47/19 114/7/19 116/6/19
f 131/16/18 128/14/18 118/33/18
f 130/46/7 117/40/7 118/42/7
f 77/14/17 75/117/17 117/43/17
f 117/43/17 75/117/17 123/44/17
f 117/40/7 121/50/7 120/41/7
f 129/38/16 125/14/16 124/16/16
f 133/23/7 127/116/7 125/39/7
f 132/37/15 126/16/15 127/14/15
f 126/35/6 124/14/6 125/16/6
f 118/33/14 120/7/14 122/6/14
f 138/31/7 130/46/7 128/32/7
f 79/30/13 132/6/13 133/7/13
f 134/29/12 129/7/12 76/6/12
f 139/7/11 128/115/11 131/28/11
f 80/26/10 79/14/10 135/16/10
f 144/25/7 135/105/7 134/22/7
f 134/22/7 135/105/7 133/23/7
f 144/9/7 138/31/7 139/20/7
f 136/19/9 138/68/9 134/6/9
f 145/17/8 139/7/8 137/6/8
f 136/14/6 77/78/6 130/15/6
f 140/11/7 141/10/7 101/12/7
f 144/9/7 145/21/7 141/10/7
f 142/6/6 80/8/6 144/5/6
f 143/5/5 141/8/5 145/6/5
f 150/86/43 149/121/43 148/87/43
f 160/89/44 154/122/44 153/90/44
f 162/91/45 156/90/45 155/92/45
f 159/94/8 161/97/8 155/95/8
f 160/94/6 152/96/6 156/95/6
f 158/98/6 154/99/6 160/94/6
f 157/98/8 161/97/8 159/94/8
f 158/100/46 162/91/46 161/93/46
f 152/102/47 160/89/47 159/91/47
f 168/103/1 165/104/1 166/4/1
f 170/104/2 168/103/2 167/1/2
f 163/103/3 170/104/3 169/4/3
f 165/104/4 163/103/4 164/1/4
f 171/9/43 13/11/43 12/10/43
f 13/11/43 186/13/43 185/12/43
f 18/20/43 19/31/43 171/9/43
f 173/22/43 175/24/43 23/23/43
f 173/22/43 172/105/43 171/25/43
f 24/32/43 174/46/43 19/31/43
f 31/39/43 29/116/43 23/23/43
f 33/41/43 32/50/43 176/40/43
f 36/42/43 176/40/43 174/46/43
f 39/51/43 177/58/43 32/50/43
f 42/59/43 178/63/43 177/58/43
f 48/61/43 181/66/43 179/60/43
f 45/62/43 179/60/43 178/63/43
f 51/67/43 183/119/43 181/66/43
f 186/13/43 56/75/43 187/74/43
f 56/75/43 60/77/43 59/76/43
f 186/13/43 191/80/43 64/79/43
f 66/81/43 195/83/43 196/82/43
f 191/80/43 66/81/43 194/84/43
f 105/65/28 102/7/28 104/6/28
f 71/65/29 193/7/29 103/6/29
f 106/66/7 103/119/7 102/67/7
f 100/68/30 92/6/30 188/7/30
f 142/70/31 140/69/31 100/16/31
f 143/6/32 192/120/32 101/71/32
f 189/37/33 96/16/33 94/14/33
f 192/72/34 189/6/34 98/7/34
f 100/13/7 101/12/7 98/74/7
f 94/52/35 96/53/35 95/7/35
f 97/75/7 98/74/7 94/76/7
f 97/16/36 93/15/36 95/78/36
f 100/13/7 97/75/7 90/79/7
f 99/33/37 91/7/37 90/6/37
f 88/81/7 87/84/7 85/82/7
f 91/19/38 184/7/38 87/6/38
f 92/80/7 90/79/7 87/84/7
f 92/26/39 88/14/39 89/16/39
f 86/16/52 85/69/52 180/70/52
f 88/106/41 86/14/41 182/16/41
f 184/14/42 180/78/42 85/15/42
f 84/86/43 83/121/43 82/87/43
f 80/9/43 142/11/43 143/10/43
f 142/11/43 190/13/43 192/12/43
f 137/20/43 136/31/43 80/9/43
f 78/22/43 76/24/43 132/23/43
f 78/22/43 79/105/43 80/25/43
f 131/32/43 77/46/43 136/31/43
f 124/39/43 126/116/43 132/23/43
f 122/41/43 123/50/43 75/40/43
f 119/42/43 75/40/43 77/46/43
f 116/51/43 74/58/43 123/50/43
f 113/59/43 73/63/43 74/58/43
f 107/61/43 71/66/43 72/60/43
f 110/62/43 72/60/43 73/63/43
f 104/67/43 193/119/43 71/66/43
f 190/13/43 99/75/43 189/74/43
f 99/75/43 95/77/43 96/76/43
f 190/13/43 188/80/43 91/79/43
f 89/81/43 182/83/43 180/82/43
f 188/80/43 89/81/43 184/84/43
f 198/107/48 200/110/48 213/108/48
f 200/110/49 202/112/49 214/111/49
f 202/112/43 204/110/43 215/108/43
f 204/110/50 206/107/50 216/109/50
f 206/107/51 198/110/51 212/108/51
f 205/111/50 211/112/50 210/113/50
f 201/109/49 209/107/49 208/113/49
f 197/114/51 207/113/51 211/112/51
f 199/114/48 208/113/48 207/112/48
f 203/114/43 210/113/43 209/107/43
f 216/107/51 212/110/51 197/108/51
f 215/110/50 216/107/50 205/109/50
f 214/112/43 215/110/43 203/108/43
f 213/110/49 214/112/49 201/111/49
f 212/107/48 213/110/48 199/108/48
