# Blender 4.2.0
# www.blender.org
mtllib PlaygroundSign01.mtl
o PlaygroundSign01
v -0.024000 4.234000 -0.020000
v -0.024000 0.000000 -0.020000
v -0.024000 4.234000 0.020000
v -0.024000 0.000000 0.020000
v 0.024000 0.000000 0.020000
v 0.024000 4.234000 0.020000
v 0.024000 0.000000 -0.020000
v 0.024000 4.234000 -0.020000
v 0.450000 3.000000 0.020000
v 0.450000 2.486250 0.020000
v 0.450000 3.000000 0.050000
v 0.450000 2.486250 0.050000
v -0.450000 3.000000 0.020000
v -0.450000 2.486250 0.020000
v -0.450000 3.000000 0.050000
v -0.450000 2.486250 0.050000
v 0.600000 4.700000 0.020000
v 0.600000 3.086250 0.020000
v 0.600000 4.700000 0.050000
v 0.600000 3.086250 0.050000
v -0.600000 4.700000 0.020000
v -0.600000 3.086250 0.020000
v -0.600000 4.700000 0.050000
v -0.600000 3.086250 0.050000
vn -0.0000 -0.0000 1.0000
vn 1.0000 -0.0000 -0.0000
vn -0.0000 -0.0000 -1.0000
vn -1.0000 -0.0000 -0.0000
vn -0.0000 1.0000 -0.0000
vn -0.0000 -1.0000 -0.0000
vt 1.000000 0.021978
vt 0.000000 0.000000
vt 0.000000 0.021978
vt 1.000000 0.000000
vt 0.020833 0.000000
vt 0.625000 0.656250
vt 0.604167 0.000000
vt 0.625000 0.000000
vt 0.604167 0.656250
vt 0.333333 0.296703
vt 0.333333 0.021978
vt 0.625000 0.812500
vt 0.661458 0.296703
vt 0.661458 0.021978
vt 0.000000 1.000000
vt 0.500000 0.296703
vt 0.500000 1.000000
vt 1.000000 0.296703
vt 0.020833 0.021978
vt 0.000000 0.296703
vt 0.604167 0.812500
vt 1.000000 1.000000
s 0
usemtl Primary
f 6/1/1 4/2/1 5/3/1
f 8/1/2 5/2/2 7/3/2
f 1/4/3 7/3/3 2/2/3
f 3/1/4 2/2/4 4/3/4
f 1/3/5 6/5/5 8/2/5
f 13/6/5 11/7/5 9/8/5
f 10/7/6 16/6/6 14/9/6
f 11/10/1 16/3/1 12/11/1
f 9/12/2 12/7/2 10/8/2
f 13/13/3 10/11/3 14/14/3
f 15/12/4 14/7/4 16/8/4
f 21/6/5 19/7/5 17/8/5
f 18/7/6 24/6/6 22/9/6
f 17/12/2 20/7/2 18/8/2
f 23/12/4 22/7/4 24/8/4
f 23/15/1 20/16/1 19/17/1
f 22/18/3 17/17/3 18/16/3
f 6/1/1 3/4/1 4/2/1
f 8/1/2 6/4/2 5/2/2
f 1/4/3 8/1/3 7/3/3
f 3/1/4 1/4/4 2/2/4
f 1/3/5 3/19/5 6/5/5
f 13/6/5 15/9/5 11/7/5
f 10/7/6 12/8/6 16/6/6
f 11/10/1 15/20/1 16/3/1
f 9/12/2 11/21/2 12/7/2
f 13/13/3 9/10/3 10/11/3
f 15/12/4 13/21/4 14/7/4
f 21/6/5 23/9/5 19/7/5
f 18/7/6 20/8/6 24/6/6
f 17/12/2 19/21/2 20/7/2
f 23/12/4 21/21/4 22/7/4
f 23/15/1 24/20/1 20/16/1
f 22/18/3 21/22/3 17/17/3
