# Blender 4.2.0
# www.blender.org
mtllib Swing01.mtl
o Swing01.Base
v 4.335001 5.777770 0.129904
v -4.334998 5.777769 0.129904
v 4.335001 5.627770 0.129904
v -4.334998 5.627769 0.129904
v 4.335001 5.552771 -0.000000
v -4.334998 5.552769 -0.000000
v 4.335001 5.627770 -0.129904
v -4.334998 5.627769 -0.129904
v 4.335001 5.777769 -0.129903
v -4.334998 5.777769 -0.129904
v 4.335001 5.852770 0.000000
v -4.334998 5.852769 -0.000000
v 4.012505 6.099860 0.299090
v 4.012503 0.002256 -2.226620
v 3.862505 6.099860 0.299090
v 3.862503 0.002256 -2.226620
v 3.787506 6.050149 0.419106
v 3.787504 -0.047456 -2.106605
v 3.862505 6.000436 0.539121
v 3.862504 -0.097168 -1.986590
v 4.012504 6.000437 0.539120
v 4.012504 -0.097168 -1.986590
v 4.087505 6.050149 0.419105
v 4.087504 -0.047456 -2.106605
v -4.087500 6.099860 -0.299088
v -4.087499 0.002256 2.226623
v -4.237499 6.099860 -0.299088
v -4.237499 0.002256 2.226623
v -4.312499 6.050149 -0.419103
v -4.312499 -0.047456 2.106607
v -4.237499 6.000436 -0.539119
v -4.237500 -0.097168 1.986592
v -4.087501 6.000437 -0.539118
v -4.087499 -0.097168 1.986592
v -4.012500 6.050149 -0.419103
v -4.012499 -0.047456 2.106607
v -3.862500 6.099860 0.299090
v -3.862500 0.002256 -2.226621
v -4.012500 6.099860 0.299090
v -4.012500 0.002256 -2.226621
v -4.087500 6.050149 0.419105
v -4.087500 -0.047456 -2.106605
v -4.012500 6.000436 0.539121
v -4.012500 -0.097168 -1.986590
v -3.862501 6.000437 0.539120
v -3.862500 -0.097168 -1.986590
v -3.787500 6.050149 0.419105
v -3.787500 -0.047456 -2.106605
v 4.237505 6.099860 -0.299092
v 4.237505 0.002256 2.226619
v 4.087505 6.099860 -0.299092
v 4.087505 0.002256 2.226619
v 4.012505 6.050149 -0.419107
v 4.012505 -0.047456 2.106604
v 4.087505 6.000436 -0.539123
v 4.087504 -0.097168 1.986588
v 4.237503 6.000437 -0.539122
v 4.237504 -0.097168 1.986588
v 4.312505 6.050149 -0.419107
v 4.312504 -0.047456 2.106604
v 1.147290 5.550417 0.129375
v 1.147290 5.662916 0.129375
v 1.147290 5.550417 -0.129375
v 1.147290 5.662916 -0.129375
v 1.259790 5.550417 0.129375
v 1.259790 5.662916 0.129375
v 1.259790 5.550417 -0.129375
v 1.259790 5.662916 -0.129375
v 2.115210 5.550417 0.129375
v 2.115210 5.662916 0.129375
v 2.115210 5.550417 -0.129375
v 2.115210 5.662916 -0.129375
v 2.227710 5.550417 0.129375
v 2.227710 5.662916 0.129375
v 2.227710 5.550417 -0.129375
v 2.227710 5.662916 -0.129375
v -2.227710 5.550417 0.129375
v -2.227710 5.662916 0.129375
v -2.227710 5.550417 -0.129375
v -2.227710 5.662916 -0.129375
v -2.115210 5.550417 0.129375
v -2.115210 5.662916 0.129375
v -2.115210 5.550417 -0.129375
v -2.115210 5.662916 -0.129375
v -1.259790 5.550417 0.129375
v -1.259790 5.662916 0.129375
v -1.259790 5.550417 -0.129375
v -1.259790 5.662916 -0.129375
v -1.147290 5.550417 0.129375
v -1.147290 5.662916 0.129375
v -1.147290 5.550417 -0.129375
v -1.147290 5.662916 -0.129375
vn -0.0000 -0.0000 1.0000
vn -0.0000 -0.8660 0.5000
vn -0.0000 -0.8660 -0.5000
vn -0.0000 -0.0000 -1.0000
vn -1.0000 -0.0000 -0.0000
vn -0.0000 0.8660 -0.5000
vn -0.0000 0.8660 0.5000
vn 1.0000 -0.0000 -0.0000
vn -0.0000 0.3827 -0.9239
vn -0.8660 0.1913 -0.4619
vn -0.8660 -0.1913 0.4619
vn -0.0000 -0.3827 0.9239
vn -0.0000 -0.9239 -0.3827
vn 0.8660 -0.1913 0.4619
vn 0.8660 0.1913 -0.4619
vn -0.0000 0.9239 0.3827
vn -0.0000 0.3827 0.9239
vn -0.8660 0.1913 0.4619
vn -0.8660 -0.1913 -0.4619
vn -0.0000 -0.3827 -0.9239
vn -0.0000 -0.9239 0.3827
vn 0.8660 -0.1913 -0.4620
vn 0.8660 0.1913 0.4619
vn -0.0000 0.9239 -0.3827
vn 0.8660 -0.1913 -0.4619
vn -0.0000 -1.0000 -0.0000
vt 0.000000 0.798319
vt 1.000000 0.678992
vt 1.000000 0.800000
vt 0.000000 0.823529
vt 1.000000 0.729412
vt 1.000000 0.825210
vt 0.000000 0.736134
vt 1.000000 0.821849
vt 1.000000 0.736134
vt 0.000000 0.825210
vt 0.227566 0.825210
vt 0.212718 0.690756
vt 0.242737 0.690756
vt 1.000000 0.742857
vt 0.000000 0.741176
vt 1.000000 0.648740
vt 0.257586 0.645378
vt 0.272434 0.779832
vt 0.242737 0.779832
vt 1.000000 0.647059
vt 0.000000 0.734454
vt 1.000000 0.732773
vt 0.000000 0.821849
vt 1.000000 0.741176
vt 1.000000 0.823529
vt 0.000000 0.739496
vt 0.000000 0.647059
vt 1.000000 0.704202
vt 0.488380 0.010084
vt 0.495158 0.094118
vt 0.488380 0.094118
vt 0.483215 0.085714
vt 0.500968 0.102521
vt 0.483215 0.102521
vt 0.495158 0.176471
vt 0.500968 0.161345
vt 0.483215 0.144538
vt 0.500968 0.144538
vt 0.000000 0.677311
vt 0.000000 0.727731
vt 0.212718 0.779832
vt 0.227566 0.645378
vt 0.272434 0.690756
vt 0.257586 0.825210
vt 0.000000 0.645378
vt 0.000000 0.702521
vt 0.495158 0.010084
vt 0.500968 0.085714
vt 0.488380 0.176471
vt 0.483215 0.161345
s 0
usemtl Primary
f 2/1/1 3/2/1 1/3/1
f 4/4/2 5/5/2 3/6/2
f 6/7/3 7/8/3 5/9/3
f 8/10/4 9/9/4 7/6/4
f 2/11/5 10/12/5 6/13/5
f 10/4/6 11/14/6 9/6/6
f 12/15/7 1/16/7 11/14/7
f 3/17/8 7/18/8 11/19/8
f 14/1/9 15/2/9 13/3/9
f 16/4/10 17/5/10 15/6/10
f 17/20/11 20/21/11 19/22/11
f 20/10/12 21/9/12 19/6/12
f 14/11/13 22/12/13 18/13/13
f 22/23/14 23/24/14 21/25/14
f 24/26/15 13/20/15 23/24/15
f 15/17/16 19/18/16 23/19/16
f 27/2/17 26/1/17 25/3/17
f 29/5/18 28/4/18 27/6/18
f 31/22/19 30/27/19 29/20/19
f 31/6/20 34/21/20 32/10/20
f 30/13/21 34/12/21 26/11/21
f 35/24/22 34/23/22 33/25/22
f 25/20/23 36/26/23 35/24/23
f 35/19/24 31/18/24 27/17/24
f 38/4/9 39/28/9 37/6/9
f 40/4/10 41/5/10 39/6/10
f 42/27/11 43/22/11 41/20/11
f 44/10/12 45/9/12 43/6/12
f 38/11/13 46/12/13 42/13/13
f 45/25/14 48/15/14 47/14/14
f 48/15/15 37/16/15 47/14/15
f 39/17/16 43/18/16 47/19/16
f 51/28/17 50/4/17 49/6/17
f 53/5/18 52/4/18 51/6/18
f 55/22/19 54/27/19 53/20/19
f 57/9/20 56/10/20 55/6/20
f 54/13/21 58/12/21 50/11/21
f 57/25/25 60/15/25 58/23/25
f 59/14/23 50/27/23 60/15/23
f 59/19/24 55/18/24 51/17/24
f 62/29/5 63/30/5 61/31/5
f 64/32/4 67/33/4 63/34/4
f 68/35/8 65/31/8 67/30/8
f 66/36/1 61/37/1 65/38/1
f 67/33/26 61/37/26 63/34/26
f 70/29/5 71/30/5 69/31/5
f 72/32/4 75/33/4 71/34/4
f 76/35/8 73/31/8 75/30/8
f 74/36/1 69/37/1 73/38/1
f 75/33/26 69/37/26 71/34/26
f 78/29/5 79/30/5 77/31/5
f 80/32/4 83/33/4 79/34/4
f 84/35/8 81/31/8 83/30/8
f 82/36/1 77/37/1 81/38/1
f 83/33/26 77/37/26 79/34/26
f 86/29/5 87/30/5 85/31/5
f 88/32/4 91/33/4 87/34/4
f 92/35/8 89/31/8 91/30/8
f 90/36/1 85/37/1 89/38/1
f 91/33/26 85/37/26 87/34/26
f 2/1/1 4/39/1 3/2/1
f 4/4/2 6/40/2 5/5/2
f 6/7/3 8/4/3 7/8/3
f 8/10/4 10/21/4 9/9/4
f 6/13/5 4/19/5 2/11/5
f 2/11/5 12/41/5 10/12/5
f 10/12/5 8/42/5 6/13/5
f 10/4/6 12/15/6 11/14/6
f 12/15/7 2/27/7 1/16/7
f 11/19/8 1/13/8 3/17/8
f 3/17/8 5/43/8 7/18/8
f 7/18/8 9/44/8 11/19/8
f 14/1/9 16/39/9 15/2/9
f 16/4/10 18/40/10 17/5/10
f 17/20/11 18/27/11 20/21/11
f 20/10/12 22/21/12 21/9/12
f 18/13/13 16/19/13 14/11/13
f 14/11/13 24/41/13 22/12/13
f 22/12/13 20/42/13 18/13/13
f 22/23/14 24/26/14 23/24/14
f 24/26/15 14/45/15 13/20/15
f 23/19/16 13/13/16 15/17/16
f 15/17/16 17/43/16 19/18/16
f 19/18/16 21/44/16 23/19/16
f 27/2/17 28/39/17 26/1/17
f 29/5/18 30/40/18 28/4/18
f 31/22/19 32/21/19 30/27/19
f 31/6/20 33/9/20 34/21/20
f 26/11/21 28/19/21 30/13/21
f 30/13/21 32/42/21 34/12/21
f 34/12/21 36/41/21 26/11/21
f 35/24/25 36/26/25 34/23/25
f 25/20/23 26/45/23 36/26/23
f 27/17/24 25/13/24 35/19/24
f 35/19/24 33/44/24 31/18/24
f 31/18/24 29/43/24 27/17/24
f 38/4/9 40/46/9 39/28/9
f 40/4/10 42/40/10 41/5/10
f 42/27/11 44/21/11 43/22/11
f 44/10/12 46/21/12 45/9/12
f 42/13/13 40/19/13 38/11/13
f 38/11/13 48/41/13 46/12/13
f 46/12/13 44/42/13 42/13/13
f 45/25/14 46/23/14 48/15/14
f 48/15/15 38/27/15 37/16/15
f 47/19/16 37/13/16 39/17/16
f 39/17/16 41/43/16 43/18/16
f 43/18/16 45/44/16 47/19/16
f 51/28/17 52/46/17 50/4/17
f 53/5/18 54/40/18 52/4/18
f 55/22/19 56/21/19 54/27/19
f 57/9/20 58/21/20 56/10/20
f 50/11/21 52/19/21 54/13/21
f 54/13/21 56/42/21 58/12/21
f 58/12/21 60/41/21 50/11/21
f 57/25/25 59/14/25 60/15/25
f 59/14/23 49/16/23 50/27/23
f 51/17/24 49/13/24 59/19/24
f 59/19/24 57/44/24 55/18/24
f 55/18/24 53/43/24 51/17/24
f 62/29/5 64/47/5 63/30/5
f 64/32/4 68/48/4 67/33/4
f 68/35/8 66/49/8 65/31/8
f 66/36/1 62/50/1 61/37/1
f 67/33/26 65/38/26 61/37/26
f 70/29/5 72/47/5 71/30/5
f 72/32/4 76/48/4 75/33/4
f 76/35/8 74/49/8 73/31/8
f 74/36/1 70/50/1 69/37/1
f 75/33/26 73/38/26 69/37/26
f 78/29/5 80/47/5 79/30/5
f 80/32/4 84/48/4 83/33/4
f 84/35/8 82/49/8 81/31/8
f 82/36/1 78/50/1 77/37/1
f 83/33/26 81/38/26 77/37/26
f 86/29/5 88/47/5 87/30/5
f 88/32/4 92/48/4 91/33/4
f 92/35/8 90/49/8 89/31/8
f 90/36/1 86/50/1 85/37/1
f 91/33/26 89/38/26 85/37/26
o Swing01.SwingLft
v -2.249701 0.938847 0.140625
v -2.249701 0.976346 0.140625
v -2.249701 0.976346 -0.140625
v -1.124701 0.976346 0.140625
v -1.124701 0.976346 -0.140625
v -2.249701 0.938847 -0.140625
v -2.095014 0.976346 -0.140625
v -2.095014 0.976346 0.140625
v -1.282377 0.976346 -0.140625
v -1.124701 0.938847 0.140625
v -1.124701 0.938847 -0.140625
v -1.282377 0.976346 0.140625
v -2.218764 1.051346 0.109688
v -2.218764 1.051346 -0.109687
v -1.250842 1.051346 -0.109687
v -1.156236 1.051346 -0.109688
v -1.156236 1.051346 0.109688
v -2.125951 1.051346 0.109688
v -2.125951 1.051346 -0.109687
v -1.250842 1.051346 0.109688
v -1.203540 5.682596 -0.037500
v -1.203540 1.051346 -0.034688
v -1.203540 5.682596 -0.112500
v -1.203540 1.051346 -0.109687
v -1.166039 5.682596 -0.075000
v -1.166039 1.051346 -0.072188
v -1.241040 5.682596 -0.075000
v -1.241040 1.051346 -0.072187
v -2.171460 5.682596 -0.037499
v -2.171460 1.051346 -0.034687
v -2.171460 5.682596 -0.112499
v -2.171460 1.051346 -0.109687
v -2.208961 5.682596 -0.074999
v -2.208961 1.051346 -0.072187
v -2.133960 5.682596 -0.074999
v -2.133960 1.051346 -0.072187
v -1.203540 5.682596 0.037499
v -1.203540 1.051346 0.034687
v -1.203540 5.682596 0.112499
v -1.203540 1.051346 0.109687
v -1.166039 5.682596 0.074999
v -1.166039 1.051346 0.072187
v -1.241040 5.682596 0.074999
v -1.241040 1.051346 0.072187
v -2.171460 5.682596 0.037500
v -2.171460 1.051346 0.034688
v -2.171460 5.682596 0.112500
v -2.171460 1.051346 0.109688
v -2.208961 5.682596 0.075000
v -2.208961 1.051346 0.072188
v -2.133960 5.682596 0.075000
v -2.133960 1.051346 0.072188
vn -1.0000 -0.0000 -0.0000
vn -0.0000 -0.0000 1.0000
vn 1.0000 -0.0000 -0.0000
vn -0.0000 0.3813 -0.9244
vn -0.0000 1.0000 -0.0000
vn -0.0000 -0.0000 -1.0000
vn 0.9244 0.3813 -0.0000
vn -0.0000 -1.0000 -0.0000
vn -0.9218 0.3876 -0.0000
vn -0.0000 0.3813 0.9244
vn 0.9218 0.3876 -0.0000
vn -0.9244 0.3813 -0.0000
vn -0.0000 -0.0006 -1.0000
vn -0.0000 -0.0006 1.0000
vt 0.024209 0.485714
vt 0.011943 0.477311
vt 0.024209 0.477311
vt 0.072950 0.477311
vt 0.061007 0.468908
vt 0.061007 0.477311
vt 0.075210 0.600000
vt 0.081343 0.564706
vt 0.082957 0.600000
vt 0.011717 0.600000
vt 0.073273 0.463866
vt 0.073273 0.600000
vt 0.011943 0.468908
vt 0.084893 0.586555
vt 0.081343 0.499160
vt 0.084893 0.477311
vt 0.011717 0.600000
vt 0.073273 0.463866
vt 0.011717 0.463866
vt 0.076824 0.499160
vt 0.073273 0.586555
vt 0.076824 0.564706
vt 0.082957 0.463866
vt 0.075210 0.463866
vt 0.082634 0.600000
vt 0.073273 0.477311
vt 0.082634 0.463866
vt 0.413170 0.625210
vt 0.000000 0.600000
vt 0.413170 0.600000
vt 0.000000 0.625210
vt 0.011943 0.485714
vt 0.072950 0.485714
vt 0.072950 0.468908
vt 0.011717 0.463866
vt 0.073273 0.600000
s 0
usemtl Primary
f 94/51/27 98/52/27 93/53/27
f 102/54/28 94/51/28 93/53/28
f 97/55/29 102/54/29 103/56/29
f 101/57/30 108/58/30 97/59/30
f 99/60/31 104/61/31 101/62/31
f 95/63/32 103/56/32 98/52/32
f 99/64/33 110/65/33 100/66/33
f 98/67/34 102/68/34 93/69/34
f 111/58/31 105/70/31 110/65/31
f 108/58/31 112/70/31 109/65/31
f 101/71/35 112/70/35 107/72/35
f 96/73/36 112/70/36 104/74/36
f 97/64/37 109/65/37 96/66/37
f 99/75/30 106/72/30 111/58/30
f 94/76/38 106/72/38 95/71/38
f 100/77/36 105/70/36 94/74/36
f 94/51/27 95/82/27 98/52/27
f 102/54/28 96/83/28 94/51/28
f 97/55/29 96/84/29 102/54/29
f 101/57/30 107/72/30 108/58/30
f 99/60/31 100/85/31 104/61/31
f 95/63/32 97/55/32 103/56/32
f 99/64/33 111/58/33 110/65/33
f 98/67/34 103/86/34 102/68/34
f 111/58/31 106/72/31 105/70/31
f 108/58/31 107/72/31 112/70/31
f 101/71/35 104/76/35 112/70/35
f 96/73/36 109/65/36 112/70/36
f 97/64/37 108/58/37 109/65/37
f 99/75/30 95/57/30 106/72/30
f 94/76/38 105/70/38 106/72/38
f 100/77/36 110/65/36 105/70/36
usemtl Chain
f 113/78/29 116/79/29 115/80/29
f 118/79/39 119/78/39 117/80/39
f 121/78/27 124/79/27 122/81/27
f 127/78/39 126/79/39 125/80/39
f 129/78/29 132/79/29 130/81/29
f 135/78/40 134/79/40 133/80/40
f 137/78/27 140/79/27 139/80/27
f 142/79/40 143/78/40 141/80/40
f 113/78/29 114/81/29 116/79/29
f 118/79/39 120/81/39 119/78/39
f 121/78/27 123/80/27 124/79/27
f 127/78/39 128/81/39 126/79/39
f 129/78/29 131/80/29 132/79/29
f 135/78/40 136/81/40 134/79/40
f 137/78/27 138/81/27 140/79/27
f 142/79/40 144/81/40 143/78/40
o Swing01.SwingRht
v 1.125299 0.938847 0.140625
v 1.125299 0.976346 0.140625
v 1.125299 0.976346 -0.140625
v 2.250299 0.976346 0.140625
v 2.250299 0.976346 -0.140625
v 1.125299 0.938847 -0.140625
v 1.279986 0.976346 -0.140625
v 1.279986 0.976346 0.140625
v 2.092623 0.976346 -0.140625
v 2.250299 0.938847 0.140625
v 2.250299 0.938847 -0.140625
v 2.092623 0.976346 0.140625
v 1.156236 1.051346 0.109688
v 1.156236 1.051346 -0.109687
v 2.124158 1.051346 -0.109687
v 2.218764 1.051346 -0.109687
v 2.218764 1.051346 0.109688
v 1.249049 1.051346 0.109688
v 1.249049 1.051346 -0.109687
v 2.124158 1.051346 0.109688
v 2.171460 5.682596 -0.037500
v 2.171460 1.051346 -0.034688
v 2.171460 5.682596 -0.112500
v 2.171460 1.051346 -0.109687
v 2.208961 5.682596 -0.075000
v 2.208961 1.051346 -0.072188
v 2.133960 5.682596 -0.075000
v 2.133960 1.051346 -0.072187
v 1.203540 5.682596 -0.037499
v 1.203540 1.051346 -0.034687
v 1.203540 5.682596 -0.112499
v 1.203540 1.051346 -0.109687
v 1.166039 5.682596 -0.074999
v 1.166039 1.051346 -0.072187
v 1.241040 5.682596 -0.074999
v 1.241040 1.051346 -0.072187
v 2.171460 5.682596 0.037499
v 2.171460 1.051346 0.034687
v 2.171460 5.682596 0.112499
v 2.171460 1.051346 0.109687
v 2.208961 5.682596 0.074999
v 2.208961 1.051346 0.072187
v 2.133960 5.682596 0.074999
v 2.133960 1.051346 0.072187
v 1.203540 5.682596 0.037500
v 1.203540 1.051346 0.034688
v 1.203540 5.682596 0.112500
v 1.203540 1.051346 0.109688
v 1.166039 5.682596 0.075000
v 1.166039 1.051346 0.072188
v 1.241040 5.682596 0.075000
v 1.241040 1.051346 0.072188
vn -1.0000 -0.0000 -0.0000
vn -0.0000 -0.0000 1.0000
vn 1.0000 -0.0000 -0.0000
vn -0.0000 0.3813 -0.9244
vn -0.0000 1.0000 -0.0000
vn -0.0000 -0.0000 -1.0000
vn 0.9244 0.3813 -0.0000
vn -0.0000 -1.0000 -0.0000
vn -0.9218 0.3876 -0.0000
vn -0.0000 0.3813 0.9244
vn 0.9218 0.3876 -0.0000
vn -0.9244 0.3813 -0.0000
vn -0.0000 -0.0006 -1.0000
vn -0.0000 -0.0006 1.0000
vt 0.024209 0.485714
vt 0.011943 0.477311
vt 0.024209 0.477311
vt 0.072950 0.477311
vt 0.061007 0.468908
vt 0.061007 0.477311
vt 0.082957 0.600000
vt 0.076824 0.564706
vt 0.081343 0.564706
vt 0.011717 0.600000
vt 0.073273 0.463866
vt 0.073273 0.600000
vt 0.011943 0.468908
vt 0.084893 0.586555
vt 0.081343 0.499160
vt 0.084893 0.477311
vt 0.073273 0.600000
vt 0.011717 0.463866
vt 0.011717 0.600000
vt 0.076824 0.499160
vt 0.073273 0.477311
vt 0.073273 0.586555
vt 0.082957 0.463866
vt 0.075210 0.463866
vt 0.082634 0.600000
vt 0.082634 0.463866
vt 0.413170 0.625210
vt 0.000000 0.600000
vt 0.413170 0.600000
vt 0.000000 0.625210
vt 0.011943 0.485714
vt 0.072950 0.485714
vt 0.072950 0.468908
vt 0.075210 0.600000
vt 0.011717 0.463866
vt 0.073273 0.463866
s 0
usemtl Primary
f 146/87/41 150/88/41 145/89/41
f 154/90/42 146/87/42 145/89/42
f 149/91/43 154/90/43 155/92/43
f 149/93/44 159/94/44 160/95/44
f 151/96/45 156/97/45 153/98/45
f 147/99/46 155/92/46 150/88/46
f 151/100/47 162/101/47 152/102/47
f 155/103/48 145/104/48 150/105/48
f 163/95/45 157/106/45 162/101/45
f 160/95/45 164/106/45 161/101/45
f 156/107/49 159/94/49 153/108/49
f 148/109/50 164/106/50 156/110/50
f 149/100/51 161/101/51 148/102/51
f 151/111/44 158/94/44 163/95/44
f 146/107/52 158/94/52 147/108/52
f 152/112/50 157/106/50 146/110/50
f 146/87/41 147/117/41 150/88/41
f 154/90/42 148/118/42 146/87/42
f 149/91/43 148/119/43 154/90/43
f 149/93/44 153/120/44 159/94/44
f 151/96/45 152/121/45 156/97/45
f 147/99/46 149/91/46 155/92/46
f 151/100/47 163/95/47 162/101/47
f 155/103/48 154/122/48 145/104/48
f 163/95/45 158/94/45 157/106/45
f 160/95/45 159/94/45 164/106/45
f 156/107/49 164/106/49 159/94/49
f 148/109/50 161/101/50 164/106/50
f 149/100/51 160/95/51 161/101/51
f 151/111/44 147/120/44 158/94/44
f 146/107/52 157/106/52 158/94/52
f 152/112/50 162/101/50 157/106/50
usemtl Chain
f 165/113/43 168/114/43 167/115/43
f 170/114/53 171/113/53 169/115/53
f 173/113/41 176/114/41 174/116/41
f 179/113/53 178/114/53 177/115/53
f 181/113/43 184/114/43 182/116/43
f 187/113/54 186/114/54 185/115/54
f 189/113/41 192/114/41 191/115/41
f 194/114/54 195/113/54 193/115/54
f 165/113/43 166/116/43 168/114/43
f 170/114/53 172/116/53 171/113/53
f 173/113/41 175/115/41 176/114/41
f 179/113/53 180/116/53 178/114/53
f 181/113/43 183/115/43 184/114/43
f 187/113/54 188/116/54 186/114/54
f 189/113/41 190/116/41 192/114/41
f 194/114/54 196/116/54 195/113/54
