# Blender 4.3.0
# www.blender.org
mtllib mFloorBricksWhite01.mtl
o FloorBricksWhite01
v 0.000000 -0.200000 4.000000
v 0.000000 0.000000 4.000000
v 0.000000 -0.200000 0.000000
v 0.000000 0.000000 0.000000
v 4.000000 -0.200000 4.000000
v 4.000000 0.000000 4.000000
v 4.000000 -0.200000 0.000000
v 4.000000 0.000000 0.000000
vn -1.0000 -0.0000 -0.0000
vn -0.0000 -0.0000 -1.0000
vn 1.0000 -0.0000 -0.0000
vn -0.0000 -0.0000 1.0000
vn -0.0000 -1.0000 -0.0000
vn -0.0000 1.0000 -0.0000
vt 0.000022 0.999978
vt 0.050020 0.000022
vt 0.050020 0.999978
vt 0.000022 0.999978
vt 0.000022 0.000022
vt 0.999900 0.000100
vt 0.000100 0.999900
vt 0.000100 0.000100
vt 0.999900 0.000100
vt 0.000100 0.999900
vt 0.000100 0.000100
vt 0.000022 0.000022
vt 0.050020 0.999978
vt 0.999900 0.999900
s 0
usemtl BricksWhite01
f 2/1/1 3/2/1 1/3/1
f 4/1/2 7/2/2 3/3/2
f 8/2/3 5/4/3 7/5/3
f 6/2/4 1/4/4 5/5/4
f 7/6/5 1/7/5 3/8/5
f 4/9/6 6/10/6 8/11/6
f 2/1/1 4/12/1 3/2/1
f 4/1/2 8/12/2 7/2/2
f 8/2/3 6/13/3 5/4/3
f 6/2/4 2/13/4 1/4/4
f 7/6/5 5/14/5 1/7/5
f 4/9/6 2/14/6 6/10/6
