# Blender 4.2.0
# www.blender.org
mtllib mWallRampCornerConcretePlates01.mtl
o WallRampCornerConcretePlates02
v -0.000000 0.000000 0.000000
v 0.000000 0.000000 1.000000
v -0.000000 4.000000 0.000000
v 1.000000 0.000000 0.000000
vn -0.0000 -0.0000 -1.0000
vn -1.0000 -0.0000 -0.0000
vn 0.6963 0.1741 0.6963
vt 0.250025 0.000050
vt 0.250025 0.999950
vt 0.000050 0.000050
vt 0.000050 0.999950
vt 0.000050 0.000050
vt 0.250025 0.000050
vt 0.242188 1.000000
vt 0.070312 0.000000
vt 0.421875 0.000000
s 0
usemtl ConcretePlates02
f 1/1/1 3/2/1 4/3/1
f 3/4/2 1/5/2 2/6/2
f 3/7/3 2/8/3 4/9/3
