# Blender 4.2.0
# www.blender.org
mtllib mWallConcrete01.mtl
o WallConcrete01
v 0.000000 4.000000 0.000000
v 0.000000 0.000000 0.000000
v 0.000000 4.000000 4.000000
v 0.000000 0.000000 4.000000
v -0.600000 4.000000 0.000000
v -0.600000 0.000000 0.000000
v -0.600000 4.000000 4.000000
v -0.600000 0.000000 4.000000
vn -0.0000 1.0000 -0.0000
vn -0.0000 -0.0000 1.0000
vn -1.0000 -0.0000 -0.0000
vn -0.0000 -1.0000 -0.0000
vn 1.0000 -0.0000 -0.0000
vn -0.0000 -0.0000 -1.0000
vt 0.100025 0.000032
vt 0.000032 0.999968
vt 0.000032 0.000032
vt 0.100025 0.999968
vt 0.000032 0.000032
vt 0.100025 0.000032
vt 1.000000 1.000000
vt 0.000000 0.000000
vt 1.000000 0.000000
vt 0.000032 0.999968
vt 0.000032 0.000032
vt 0.000000 1.000000
vt 0.100025 0.999968
vt 0.000032 0.000032
vt 0.100025 0.000032
vt 0.100025 0.999968
vt 0.000032 0.999968
vt 0.100025 0.999968
vt 0.000032 0.999968
s 0
usemtl Concrete01
f 5/1/1 3/2/1 1/3/1
f 3/4/2 8/5/2 4/6/2
f 7/7/3 6/8/3 8/9/3
f 2/6/4 8/10/4 6/11/4
f 1/8/5 4/7/5 2/12/5
f 5/13/6 2/14/6 6/15/6
f 5/1/1 7/16/1 3/2/1
f 3/4/2 7/17/2 8/5/2
f 7/7/3 5/12/3 6/8/3
f 2/6/4 4/18/4 8/10/4
f 1/8/5 3/9/5 4/7/5
f 5/13/6 1/19/6 2/14/6
