# Blender 4.2.0
# www.blender.org
mtllib mWallLowConcretePlates01.mtl
o WallLowConcretePlates02
v 0.000000 1.500000 0.000000
v 0.000000 0.000000 0.000000
v 0.000000 1.500000 4.000000
v 0.000000 0.000000 4.000000
v -0.600000 1.500000 0.000000
v -0.600000 0.000000 0.000000
v -0.600000 1.500000 4.000000
v -0.600000 0.000000 4.000000
vn -0.0000 1.0000 -0.0000
vn -0.0000 -0.0000 1.0000
vn -1.0000 -0.0000 -0.0000
vn -0.0000 -1.0000 -0.0000
vn 1.0000 -0.0000 -0.0000
vn -0.0000 -0.0000 -1.0000
vt 0.000000 0.328125
vt 1.000000 0.453125
vt 0.000000 0.453125
vt 0.328125 0.000000
vt 0.445312 0.453125
vt 0.328125 0.453125
vt 0.000000 0.000000
vt 1.000000 0.000000
vt 1.000000 0.328125
vt 0.445312 0.000000
s 0
usemtl ConcretePlates02
f 5/1/1 3/2/1 1/3/1
f 3/4/2 8/5/2 4/6/2
f 7/2/3 6/7/3 8/8/3
f 2/3/4 8/9/4 6/1/4
f 1/7/5 4/2/5 2/3/5
f 5/5/6 2/4/6 6/10/6
f 5/1/1 7/9/1 3/2/1
f 3/4/2 7/10/2 8/5/2
f 7/2/3 5/3/3 6/7/3
f 2/3/4 4/2/4 8/9/4
f 1/7/5 3/8/5 4/2/5
f 5/5/6 1/6/6 2/4/6
