# Blender 4.2.0
# www.blender.org
mtllib mWallRampConcretePlates01.mtl
o WalllRampConcretePlates02
v 0.100000 4.000000 0.000000
v 1.000000 0.000000 0.000000
v 0.100000 4.000000 4.000000
v 1.000000 0.000000 4.000000
v -0.500000 4.000000 0.000000
v -0.500000 0.000000 0.000000
v -0.500000 4.000000 4.000000
v -0.500000 0.000000 4.000000
vn -0.0000 1.0000 -0.0000
vn -0.0000 -0.0000 1.0000
vn -1.0000 -0.0000 -0.0000
vn -0.0000 -1.0000 -0.0000
vn 0.9756 0.2195 -0.0000
vn -0.0000 -0.0000 -1.0000
vt 1.000000 0.507812
vt 0.000000 0.398438
vt 1.000000 0.398438
vt 0.031250 0.000000
vt 0.445312 1.000000
vt 0.328125 1.000000
vt 1.000000 1.000000
vt 0.000000 0.000000
vt 1.000000 0.000000
vt 1.000000 0.343750
vt 0.000000 0.507812
vt 0.000000 1.000000
vt 0.445312 0.000000
vt 0.000000 0.343750
s 0
usemtl ConcretePlates02
f 5/1/1 3/2/1 1/3/1
f 3/4/2 8/5/2 4/6/2
f 7/7/3 6/8/3 8/9/3
f 2/10/4 8/11/4 6/1/4
f 1/8/5 4/7/5 2/12/5
f 6/13/6 1/6/6 2/4/6
f 5/1/1 7/11/1 3/2/1
f 3/4/2 7/13/2 8/5/2
f 7/7/3 5/12/3 6/8/3
f 2/10/4 4/14/4 8/11/4
f 1/8/5 3/9/5 4/7/5
f 6/13/6 5/5/6 1/6/6
