# Blender 4.2.0
# www.blender.org
mtllib mWallWindowConcretePlates01.mtl
o WallWindowConcretePlates02
v 0.000000 4.000000 0.000000
v 0.000000 0.000000 0.000000
v 0.000000 4.000000 4.000000
v 0.000000 0.000000 4.000000
v -0.600000 4.000000 0.000000
v -0.600000 0.000000 0.000000
v -0.600000 4.000000 4.000000
v -0.600000 0.000000 4.000000
v -0.600000 0.000000 1.000000
v -0.600000 0.000000 3.000000
v 0.000000 4.000000 1.000000
v 0.000000 4.000000 3.000000
v -0.600000 4.000000 3.000000
v -0.600000 4.000000 1.000000
v 0.000000 0.000000 3.000000
v 0.000000 0.000000 1.000000
v 0.000000 3.000000 0.000000
v 0.000000 1.000000 0.000000
v -0.600000 1.000000 4.000000
v -0.600000 3.000000 4.000000
v 0.000000 3.000000 4.000000
v 0.000000 1.000000 4.000000
v -0.600000 3.000000 0.000000
v -0.600000 1.000000 0.000000
v 0.000000 3.000000 1.000000
v 0.000000 1.000000 1.000000
v 0.000000 1.000000 3.000000
v -0.600000 1.000000 1.000000
v -0.600000 1.000000 3.000000
v -0.600000 3.000000 1.000000
v -0.600000 3.000000 3.000000
v 0.000000 3.000000 3.000000
vn -0.0000 1.0000 -0.0000
vn -0.0000 -0.0000 1.0000
vn -1.0000 -0.0000 -0.0000
vn -0.0000 -1.0000 -0.0000
vn 1.0000 -0.0000 -0.0000
vn -0.0000 -0.0000 -1.0000
vt 0.750000 0.320312
vt 1.000000 0.429688
vt 0.750000 0.429688
vt 0.328125 0.000000
vt 0.445312 0.250000
vt 0.328125 0.250000
vt 0.250000 1.000000
vt 0.000000 0.750000
vt 0.250000 0.750000
vt 1.000000 0.320312
vt 0.750000 0.000000
vt 1.000000 0.250000
vt 0.750000 0.250000
vt 0.445312 1.000000
vt 0.328125 0.750000
vt 0.445312 0.750000
vt 0.000000 0.000000
vt 0.250000 0.250000
vt 0.000000 0.250000
vt 0.250000 0.000000
vt 0.000000 0.320312
vt 0.250000 0.429688
vt 0.250000 0.320312
vt 1.000000 1.000000
vt 0.750000 0.750000
vt 1.000000 0.750000
vt 0.750000 1.000000
vt 0.000000 0.429688
vt 0.750000 0.250000
vt 0.328125 0.250000
vt 0.445312 0.250000
vt 1.000000 0.250000
vt 1.000000 0.000000
vt 0.250000 0.750000
vt 0.445312 0.750000
vt 0.328125 0.750000
vt 0.000000 0.750000
vt 0.000000 1.000000
vt 0.445312 0.000000
vt 0.750000 0.750000
vt 0.250000 0.250000
vt 0.000000 0.250000
vt 0.328125 1.000000
vt 0.242188 0.320312
vt 0.242188 0.429688
s 0
usemtl ConcretePlates02
f 13/1/1 3/2/1 12/3/1
f 3/4/2 20/5/2 21/6/2
f 14/7/3 23/8/3 30/9/3
f 15/3/4 8/10/4 10/1/4
f 12/11/5 21/12/5 32/13/5
f 5/14/6 17/15/6 23/16/6
f 1/17/5 25/18/5 17/19/5
f 11/20/5 32/13/5 25/18/5
f 6/21/4 16/22/4 9/23/4
f 9/23/4 15/3/4 10/1/4
f 7/24/3 31/25/3 20/26/3
f 13/27/3 30/9/3 31/25/3
f 1/28/1 14/23/1 11/22/1
f 11/22/1 13/1/1 12/3/1
f 29/29/3 9/20/3 10/11/3
f 31/16/6 27/30/6 29/31/6
f 19/32/3 10/11/3 8/33/3
f 20/26/3 29/29/3 19/32/3
f 26/34/5 15/27/5 16/7/5
f 25/6/2 28/35/2 26/36/2
f 18/37/5 16/7/5 2/38/5
f 17/19/5 26/34/5 18/37/5
f 24/31/6 2/4/6 6/39/6
f 23/16/6 18/30/6 24/31/6
f 27/40/5 4/24/5 15/27/5
f 32/13/5 22/26/5 27/40/5
f 28/41/3 6/17/3 9/20/3
f 30/9/3 24/42/3 28/41/3
f 22/36/2 8/14/2 4/43/2
f 21/6/2 19/35/2 22/36/2
f 28/44/1 27/3/1 26/45/1
f 25/22/4 31/1/4 30/23/4
f 13/1/1 7/10/1 3/2/1
f 3/4/2 7/39/2 20/5/2
f 14/7/3 5/38/3 23/8/3
f 15/3/4 4/2/4 8/10/4
f 12/11/5 3/33/5 21/12/5
f 5/14/6 1/43/6 17/15/6
f 1/17/5 11/20/5 25/18/5
f 11/20/5 12/11/5 32/13/5
f 6/21/4 2/28/4 16/22/4
f 9/23/4 16/22/4 15/3/4
f 7/24/3 13/27/3 31/25/3
f 13/27/3 14/7/3 30/9/3
f 1/28/1 5/21/1 14/23/1
f 11/22/1 14/23/1 13/1/1
f 29/29/3 28/41/3 9/20/3
f 31/16/6 32/15/6 27/30/6
f 19/32/3 29/29/3 10/11/3
f 20/26/3 31/25/3 29/29/3
f 26/34/5 27/40/5 15/27/5
f 25/6/2 30/5/2 28/35/2
f 18/37/5 26/34/5 16/7/5
f 17/19/5 25/18/5 26/34/5
f 24/31/6 18/30/6 2/4/6
f 23/16/6 17/15/6 18/30/6
f 27/40/5 22/26/5 4/24/5
f 32/13/5 21/12/5 22/26/5
f 28/41/3 24/42/3 6/17/3
f 30/9/3 23/8/3 24/42/3
f 22/36/2 19/35/2 8/14/2
f 21/6/2 20/5/2 19/35/2
f 28/44/1 29/1/1 27/3/1
f 25/22/4 32/3/4 31/1/4
