# Blender 4.2.0
# www.blender.org
mtllib mWallWindowConcrete02.mtl
o WallWindowConcrete02
v 0.000000 4.000000 0.000000
v 0.000000 0.000000 0.000000
v 0.000000 4.000000 4.000000
v 0.000000 0.000000 4.000000
v -0.600000 4.000000 0.000000
v -0.600000 0.000000 0.000000
v -0.600000 4.000000 4.000000
v -0.600000 0.000000 4.000000
v -0.600000 0.000000 1.445807
v 0.000000 4.000000 1.445807
v -0.600000 4.000000 1.445807
v 0.000000 0.000000 1.445807
v -0.600000 0.000000 2.555484
v 0.000000 4.000000 2.555484
v -0.600000 4.000000 2.555484
v 0.000000 0.000000 2.555484
v 0.000000 2.720161 0.000000
v -0.600000 2.720161 4.000000
v 0.000000 2.720161 4.000000
v -0.600000 2.720161 0.000000
v 0.000000 2.720161 1.445807
v 0.000000 1.220161 0.000000
v 0.000000 1.220161 4.000000
v -0.600000 1.220161 0.000000
v 0.000000 1.220161 1.445807
v -0.600000 1.220161 1.445807
v -0.600000 1.220161 2.555484
v 0.000000 1.220161 2.555484
v -0.600000 1.220161 4.000000
v -0.600000 2.720161 2.555484
v -0.600000 2.720161 1.445807
v 0.000000 2.720161 2.555484
vn -0.0000 1.0000 -0.0000
vn -0.0000 -0.0000 1.0000
vn -1.0000 -0.0000 -0.0000
vn -0.0000 -1.0000 -0.0000
vn 1.0000 -0.0000 -0.0000
vn -0.0000 -0.0000 -1.0000
vt 0.250000 0.562500
vt -0.109375 0.453125
vt 0.250000 0.453125
vt 0.242188 0.000000
vt 0.359375 0.320312
vt 0.242188 0.320312
vt 1.000000 0.640625
vt 0.679688 1.000000
vt 0.679688 0.640625
vt -0.109375 0.562500
vt 0.359375 1.000000
vt 0.000000 0.679688
vt 0.359375 0.679688
vt 0.242188 0.679688
vt 1.000000 1.000000
vt 0.640625 0.679688
vt 1.000000 0.679688
vt 0.859375 0.453125
vt 0.492188 0.562500
vt 0.859375 0.562500
vt 1.000000 0.359375
vt 0.679688 0.359375
vt 0.492188 0.453125
vt 1.000000 0.000000
vt 0.679688 0.000000
vt 0.640625 1.000000
vt 0.304688 0.359375
vt 0.304688 0.000000
vt 0.640625 0.304688
vt 1.000000 0.304688
vt 0.242188 0.304688
vt 0.359375 0.304688
vt 0.000000 0.304688
vt 0.304688 1.000000
vt 0.304688 0.640625
vt 0.359375 0.695312
vt 0.242188 0.695312
vt 0.242188 1.000000
vt 0.000000 1.000000
vt 0.000000 0.640625
vt 0.000000 0.000000
vt 0.359375 0.000000
vt 0.640625 0.000000
vt 0.000000 0.359375
vt 0.218750 0.320312
vt 0.335938 0.695312
vt 0.218750 0.695312
vt 0.335938 0.679688
vt 0.218750 0.304688
vt 0.335938 0.304688
vt 0.335938 0.320312
vt 0.218750 0.679688
s 0
usemtl ConcretePlain02
f 15/1/1 3/2/1 14/3/1
f 3/4/2 18/5/2 19/6/2
f 11/7/3 20/8/3 31/9/3
f 16/3/4 8/10/4 13/1/4
f 14/11/5 19/12/5 32/13/5
f 5/11/6 17/14/6 20/13/6
f 1/15/5 21/16/5 17/17/5
f 2/18/4 9/19/4 6/20/4
f 15/21/3 31/9/3 30/22/3
f 5/20/1 10/23/1 1/18/1
f 7/24/3 30/22/3 18/25/3
f 10/26/5 32/13/5 21/16/5
f 12/23/4 13/1/4 9/19/4
f 11/19/1 14/3/1 10/23/1
f 21/23/4 30/1/4 31/19/4
f 18/25/3 27/27/3 29/28/3
f 26/19/1 28/3/1 25/23/1
f 17/17/5 25/29/5 22/30/5
f 20/13/6 22/31/6 24/32/6
f 32/13/5 23/33/5 28/32/5
f 31/9/3 24/34/3 26/35/3
f 19/6/2 29/36/2 23/37/2
f 23/37/2 8/11/2 4/38/2
f 26/35/3 6/39/3 9/40/3
f 28/32/5 4/41/5 16/42/5
f 24/32/6 2/4/6 6/42/6
f 22/30/5 12/43/5 2/24/5
f 27/27/3 9/40/3 13/44/3
f 29/28/3 13/44/3 8/41/3
f 25/29/5 16/42/5 12/43/5
f 21/45/2 26/46/2 25/47/2
f 30/48/6 28/49/6 27/50/6
f 15/1/1 7/10/1 3/2/1
f 3/4/2 7/42/2 18/5/2
f 11/7/3 5/15/3 20/8/3
f 16/3/4 4/2/4 8/10/4
f 14/11/5 3/39/5 19/12/5
f 5/11/6 1/38/6 17/14/6
f 1/15/5 10/26/5 21/16/5
f 2/18/4 12/23/4 9/19/4
f 15/21/3 11/7/3 31/9/3
f 5/20/1 11/19/1 10/23/1
f 7/24/3 15/21/3 30/22/3
f 10/26/5 14/11/5 32/13/5
f 12/23/4 16/3/4 13/1/4
f 11/19/1 15/1/1 14/3/1
f 21/23/4 32/3/4 30/1/4
f 18/25/3 30/22/3 27/27/3
f 26/19/1 27/1/1 28/3/1
f 17/17/5 21/16/5 25/29/5
f 20/13/6 17/14/6 22/31/6
f 32/13/5 19/12/5 23/33/5
f 31/9/3 20/8/3 24/34/3
f 19/6/2 18/5/2 29/36/2
f 23/37/2 29/36/2 8/11/2
f 26/35/3 24/34/3 6/39/3
f 28/32/5 23/33/5 4/41/5
f 24/32/6 22/31/6 2/4/6
f 22/30/5 25/29/5 12/43/5
f 27/27/3 26/35/3 9/40/3
f 29/28/3 27/27/3 13/44/3
f 25/29/5 28/32/5 16/42/5
f 21/45/2 31/51/2 26/46/2
f 30/48/6 32/52/6 28/49/6
