# Blender 4.2.0
# www.blender.org
mtllib mWFrame02Concrete01.mtl
o WFrame02Concrete01
v -0.000000 1.220161 1.445806
v -0.000000 2.720161 1.445806
v -0.000000 1.220161 1.305484
v -0.000000 2.720161 1.305484
v 0.150000 1.220161 1.445806
v 0.150000 2.720161 1.445806
v 0.150000 1.220161 1.305484
v 0.150000 2.720161 1.305484
v -0.000000 1.220161 2.695807
v -0.000000 2.720161 2.695807
v -0.000000 1.220161 2.555484
v -0.000000 2.720161 2.555484
v 0.150000 1.220161 2.695807
v 0.150000 2.720161 2.695807
v 0.150000 1.220161 2.555484
v 0.150000 2.720161 2.555484
v -0.000000 2.720161 1.250645
v -0.000000 2.720161 2.750645
v -0.000000 2.860484 1.250645
v -0.000000 2.860484 2.750645
v 0.150000 2.720161 1.250645
v 0.150000 2.720161 2.750645
v 0.150000 2.860484 1.250645
v 0.150000 2.860484 2.750645
v -0.000000 1.079839 1.250645
v -0.000000 1.079839 2.750645
v -0.000000 1.220161 1.250645
v -0.000000 1.220161 2.750645
v 0.150000 1.079839 1.250645
v 0.150000 1.079839 2.750645
v 0.150000 1.220161 1.250645
v 0.150000 1.220161 2.750645
v -0.550000 1.220161 1.445806
v -0.550000 2.720161 1.445806
v -0.550000 1.220161 1.305484
v -0.550000 2.720161 1.305484
v -0.400000 1.220161 1.445806
v -0.400000 2.720161 1.445806
v -0.400000 1.220161 1.305484
v -0.400000 2.720161 1.305484
v -0.550000 1.220161 2.695807
v -0.550000 2.720161 2.695807
v -0.550000 1.220161 2.555484
v -0.550000 2.720161 2.555484
v -0.400000 1.220161 2.695807
v -0.400000 2.720161 2.695807
v -0.400000 1.220161 2.555484
v -0.400000 2.720161 2.555484
v -0.550000 2.720161 1.250645
v -0.550000 2.720161 2.750645
v -0.550000 2.860484 1.250645
v -0.550000 2.860484 2.750645
v -0.400000 2.720161 1.250645
v -0.400000 2.720161 2.750645
v -0.400000 2.860484 1.250645
v -0.400000 2.860484 2.750645
v -0.550000 1.079839 1.250645
v -0.550000 1.079839 2.750645
v -0.550000 1.220161 1.250645
v -0.550000 1.220161 2.750645
v -0.400000 1.079839 1.250645
v -0.400000 1.079839 2.750645
v -0.400000 1.220161 1.250645
v -0.400000 1.220161 2.750645
vn -1.0000 -0.0000 -0.0000
vn -0.0000 -0.0000 -1.0000
vn 1.0000 -0.0000 -0.0000
vn -0.0000 -0.0000 1.0000
vn -0.0000 -1.0000 -0.0000
vn -0.0000 1.0000 -0.0000
vt 0.999892 0.584446
vt 0.500108 0.000108
vt 0.999892 0.000108
vt 0.499895 0.546751
vt 0.000105 0.000105
vt 0.499896 0.000105
vt 0.499892 0.584446
vt 0.000108 0.000108
vt 0.499892 0.000108
vt 0.999895 0.546751
vt 0.500105 0.000105
vt 0.999895 0.000105
vt -0.000000 0.085938
vt 0.476190 0.179688
vt -0.000000 0.179688
vt 0.476190 0.085938
vt -0.000000 0.000000
vt 0.476190 0.000000
vt 0.500108 0.584446
vt 0.000105 0.546751
vt 0.000108 0.584446
vt 0.500105 0.546751
s 0
usemtl Concrete01
f 2/1/1 3/2/1 1/3/1
f 4/4/2 7/5/2 3/6/2
f 8/7/3 5/8/3 7/9/3
f 6/10/4 1/11/4 5/12/4
f 7/13/5 1/14/5 3/15/5
f 4/16/6 6/17/6 8/18/6
f 10/1/1 11/2/1 9/3/1
f 12/4/2 15/5/2 11/6/2
f 16/7/3 13/8/3 15/9/3
f 14/10/4 9/11/4 13/12/4
f 15/13/5 9/14/5 11/15/5
f 12/16/6 14/17/6 16/18/6
f 18/1/1 19/2/1 17/3/1
f 20/4/6 23/5/6 19/6/6
f 24/7/3 21/8/3 23/9/3
f 22/10/5 17/11/5 21/12/5
f 23/13/2 17/14/2 19/15/2
f 20/16/4 22/17/4 24/18/4
f 26/1/1 27/2/1 25/3/1
f 28/4/6 31/5/6 27/6/6
f 32/7/3 29/8/3 31/9/3
f 30/10/5 25/11/5 29/12/5
f 31/13/2 25/14/2 27/15/2
f 28/16/4 30/17/4 32/18/4
f 34/1/1 35/2/1 33/3/1
f 36/4/2 39/5/2 35/6/2
f 40/7/3 37/8/3 39/9/3
f 38/10/4 33/11/4 37/12/4
f 39/13/5 33/14/5 35/15/5
f 36/16/6 38/17/6 40/18/6
f 42/1/1 43/2/1 41/3/1
f 44/4/2 47/5/2 43/6/2
f 48/7/3 45/8/3 47/9/3
f 46/10/4 41/11/4 45/12/4
f 47/13/5 41/14/5 43/15/5
f 44/16/6 46/17/6 48/18/6
f 50/1/1 51/2/1 49/3/1
f 52/4/6 55/5/6 51/6/6
f 56/7/3 53/8/3 55/9/3
f 54/10/5 49/11/5 53/12/5
f 55/13/2 49/14/2 51/15/2
f 52/16/4 54/17/4 56/18/4
f 58/1/1 59/2/1 57/3/1
f 60/4/6 63/5/6 59/6/6
f 64/7/3 61/8/3 63/9/3
f 62/10/5 57/11/5 61/12/5
f 63/13/2 57/14/2 59/15/2
f 60/16/4 62/17/4 64/18/4
f 2/1/1 4/19/1 3/2/1
f 4/4/2 8/20/2 7/5/2
f 8/7/3 6/21/3 5/8/3
f 6/10/4 2/22/4 1/11/4
f 7/13/5 5/16/5 1/14/5
f 4/16/6 2/13/6 6/17/6
f 10/1/1 12/19/1 11/2/1
f 12/4/2 16/20/2 15/5/2
f 16/7/3 14/21/3 13/8/3
f 14/10/4 10/22/4 9/11/4
f 15/13/5 13/16/5 9/14/5
f 12/16/6 10/13/6 14/17/6
f 18/1/1 20/19/1 19/2/1
f 20/4/6 24/20/6 23/5/6
f 24/7/3 22/21/3 21/8/3
f 22/10/5 18/22/5 17/11/5
f 23/13/2 21/16/2 17/14/2
f 20/16/4 18/13/4 22/17/4
f 26/1/1 28/19/1 27/2/1
f 28/4/6 32/20/6 31/5/6
f 32/7/3 30/21/3 29/8/3
f 30/10/5 26/22/5 25/11/5
f 31/13/2 29/16/2 25/14/2
f 28/16/4 26/13/4 30/17/4
f 34/1/1 36/19/1 35/2/1
f 36/4/2 40/20/2 39/5/2
f 40/7/3 38/21/3 37/8/3
f 38/10/4 34/22/4 33/11/4
f 39/13/5 37/16/5 33/14/5
f 36/16/6 34/13/6 38/17/6
f 42/1/1 44/19/1 43/2/1
f 44/4/2 48/20/2 47/5/2
f 48/7/3 46/21/3 45/8/3
f 46/10/4 42/22/4 41/11/4
f 47/13/5 45/16/5 41/14/5
f 44/16/6 42/13/6 46/17/6
f 50/1/1 52/19/1 51/2/1
f 52/4/6 56/20/6 55/5/6
f 56/7/3 54/21/3 53/8/3
f 54/10/5 50/22/5 49/11/5
f 55/13/2 53/16/2 49/14/2
f 52/16/4 50/13/4 54/17/4
f 58/1/1 60/19/1 59/2/1
f 60/4/6 64/20/6 63/5/6
f 64/7/3 62/21/3 61/8/3
f 62/10/5 58/22/5 57/11/5
f 63/13/2 61/16/2 57/14/2
f 60/16/4 58/13/4 62/17/4
