# Blender 4.2.0
# www.blender.org
mtllib mWFrame01Concrete01.mtl
o WFrame01Concrete01
v 0.100001 0.000000 0.999999
v 0.100001 4.000000 0.999999
v 0.100001 0.000000 0.859677
v 0.100001 4.000000 0.859677
v 0.250001 0.000000 0.999999
v 0.250001 4.000000 0.999999
v 0.250001 0.000000 0.859677
v 0.250001 4.000000 0.859677
v 0.100000 0.000000 3.140322
v 0.100000 4.000000 3.140322
v 0.100000 0.000000 3.000000
v 0.100000 4.000000 3.000000
v 0.250000 0.000000 3.140322
v 0.250000 4.000000 3.140322
v 0.250000 0.000000 3.000000
v 0.250000 4.000000 3.000000
v 0.100000 3.000000 1.000000
v 0.100000 3.000000 3.000000
v 0.100000 3.140322 1.000000
v 0.100000 3.140322 3.000000
v 0.250000 3.000000 1.000000
v 0.250000 3.000000 3.000000
v 0.250000 3.140322 1.000000
v 0.250000 3.140322 3.000000
v 0.100000 0.859677 1.000000
v 0.100000 0.859677 3.000000
v 0.100000 1.000000 1.000000
v 0.100000 1.000000 3.000000
v 0.250001 0.859677 1.000000
v 0.250001 0.859677 3.000000
v 0.250001 1.000000 1.000000
v 0.250001 1.000000 3.000000
vn -1.0000 -0.0000 -0.0000
vn -0.0000 -0.0000 -1.0000
vn 1.0000 -0.0000 -0.0000
vn -0.0000 -0.0000 1.0000
vn -0.0000 -1.0000 -0.0000
vn -0.0000 1.0000 -0.0000
vt 0.035098 0.999981
vt 0.000019 0.000019
vt 0.035098 0.000019
vt 0.037518 0.999981
vt 0.000019 0.000019
vt 0.037518 0.000019
vt 0.035098 0.999981
vt 0.000019 0.000019
vt 0.035098 0.000019
vt 0.037518 0.999981
vt 0.000019 0.000019
vt 0.037518 0.000019
vt -0.000000 -0.000000
vt 0.039062 0.039062
vt 0.000000 0.039062
vt 0.039062 0.000000
vt 0.000019 0.000019
vt 0.035098 0.000019
vt 0.037518 0.999981
vt 0.000019 0.000019
vt 0.037518 0.000019
vt 0.039062 1.000000
vt 0.000019 0.000019
vt 0.054688 0.750000
vt 0.015625 0.250000
vt 0.054688 0.250000
vt 0.015625 0.750000
vt 0.000019 0.999981
vt 0.000019 0.999981
vt 0.000019 0.999981
vt 0.000019 0.999981
vt 0.000019 0.999981
s 0
usemtl Concrete01
f 2/1/1 3/2/1 1/3/1
f 4/4/2 7/5/2 3/6/2
f 8/7/3 5/8/3 7/9/3
f 6/10/4 1/11/4 5/12/4
f 7/13/5 1/14/5 3/15/5
f 4/14/6 6/13/6 8/16/6
f 10/1/1 11/17/1 9/18/1
f 12/19/2 15/20/2 11/21/2
f 16/22/3 13/23/3 15/16/3
f 14/10/4 9/11/4 13/12/4
f 15/13/5 9/14/5 11/15/5
f 12/14/6 14/13/6 16/16/6
f 18/24/1 19/25/1 17/26/1
f 20/24/6 23/25/6 19/26/6
f 24/24/3 21/25/3 23/26/3
f 22/25/5 17/24/5 21/27/5
f 26/24/1 27/25/1 25/26/1
f 28/24/6 31/25/6 27/26/6
f 32/24/3 29/25/3 31/26/3
f 30/24/5 25/25/5 29/26/5
f 2/1/1 4/28/1 3/2/1
f 4/4/2 8/29/2 7/5/2
f 8/7/3 6/30/3 5/8/3
f 6/10/4 2/29/4 1/11/4
f 7/13/5 5/16/5 1/14/5
f 4/14/6 2/15/6 6/13/6
f 10/1/1 12/31/1 11/17/1
f 12/19/2 16/32/2 15/20/2
f 16/22/3 14/31/3 13/23/3
f 14/10/4 10/29/4 9/11/4
f 15/13/5 13/16/5 9/14/5
f 12/14/6 10/15/6 14/13/6
f 18/24/1 20/27/1 19/25/1
f 20/24/6 24/27/6 23/25/6
f 24/24/3 22/27/3 21/25/3
f 22/25/5 18/26/5 17/24/5
f 26/24/1 28/27/1 27/25/1
f 28/24/6 32/27/6 31/25/6
f 32/24/3 30/27/3 29/25/3
f 30/24/5 26/27/5 25/25/5
