# Blender 4.2.0
# www.blender.org
mtllib GrassPatchBig01b.mtl
o GrassPatchBig01b
v 0.353553 0.922450 0.353553
v 0.353553 0.000000 0.353553
v -0.353553 0.922450 -0.353553
v -0.353553 0.000000 -0.353553
v 0.353553 0.922450 -0.353553
v 0.353553 0.000000 -0.353553
v -0.353553 0.922450 0.353553
v -0.353553 0.000000 0.353553
v -0.154706 0.927371 0.190636
v -0.066494 0.038681 0.255354
v -0.303129 0.850009 -0.795258
v -0.214917 -0.038681 -0.730540
v 0.263573 0.927371 -0.379489
v 0.351785 0.038681 -0.314771
v -0.721409 0.850009 -0.225133
v -0.633197 -0.038681 -0.160415
v 0.345889 0.996564 0.816326
v 0.332274 -0.073908 0.658926
v 0.065512 1.144380 -0.132114
v 0.051898 0.073908 -0.289515
v 0.685557 1.082554 0.202135
v 0.671942 0.012082 0.044735
v -0.274156 1.058390 0.482077
v -0.287770 -0.012082 0.324677
v 0.874073 0.900786 0.030838
v 0.737897 -0.073908 -0.009857
v -0.101303 1.048602 -0.132845
v -0.237479 0.073908 -0.173540
v 0.470892 0.986776 -0.543663
v 0.334716 0.012082 -0.584357
v 0.301878 0.962612 0.441655
v 0.165703 -0.012082 0.400961
v -0.879933 0.914812 0.029829
v -0.734896 -0.073908 0.067214
v 0.105219 1.062628 0.117160
v 0.250256 0.073908 0.154545
v -0.433293 1.000802 0.571233
v -0.288256 0.012082 0.608618
v -0.341421 0.976638 -0.424245
v -0.196384 -0.012082 -0.386859
v -0.077209 0.922450 0.552645
v -0.077209 0.000000 0.552645
v -0.784316 0.922450 -0.154461
v -0.784316 0.000000 -0.154461
v -0.077209 0.922450 -0.154461
v -0.077209 0.000000 -0.154461
v -0.784316 0.922450 0.552645
v -0.784316 0.000000 0.552645
v 1.148126 1.083712 0.478618
v 1.168405 0.001962 0.495182
v 0.868219 1.068510 -0.481289
v 0.888498 -0.013241 -0.464725
v 1.488143 1.080594 -0.141365
v 1.508422 -0.001157 -0.124801
v 0.528202 1.071629 0.138694
v 0.548481 -0.010122 0.155258
v -0.630593 1.083712 -0.451486
v -0.611654 0.001962 -0.469567
v -1.617704 1.068510 -0.292173
v -1.598764 -0.013241 -0.310253
v -1.203879 1.080594 -0.865411
v -1.184939 -0.001157 -0.883492
v -1.044419 1.071629 0.121752
v -1.025479 -0.010122 0.103672
v 0.676724 1.083712 -1.702508
v 0.695663 0.001962 -1.720588
v -0.310387 1.068510 -1.543194
v -0.291447 -0.013241 -1.561275
v 0.103438 1.080594 -2.116433
v 0.122378 -0.001157 -2.134513
v 0.262898 1.071629 -1.129269
v 0.281838 -0.010122 -1.147350
v 0.165199 1.083712 1.202686
v 0.163333 0.001962 1.176569
v -0.341016 1.068510 2.064959
v -0.342882 -0.013241 2.038842
v -0.519112 1.080594 1.380755
v -0.520978 -0.001157 1.354637
v 0.343295 1.071629 1.886891
v 0.341429 -0.010122 1.860773
v -0.726191 0.897886 1.302867
v -0.728128 0.002916 1.330533
v -1.405435 0.885774 0.569054
v -1.407372 -0.009196 0.596720
v -0.698934 0.875995 0.596625
v -0.700871 -0.018975 0.624291
v -1.432693 0.907665 1.275296
v -1.434629 0.012695 1.302962
v 1.345665 0.897886 0.627781
v 1.370614 0.002916 0.639893
v 0.411520 0.885774 0.984470
v 0.436469 -0.009196 0.996582
v 0.700503 0.875995 0.339185
v 0.725453 -0.018975 0.351297
v 1.056681 0.907665 1.273066
v 1.081630 0.012695 1.285178
v 1.039164 0.897886 1.278312
v 1.064113 0.002916 1.290424
v 0.105019 0.885774 1.635001
v 0.129969 -0.009196 1.647113
v 0.394003 0.875995 0.989716
v 0.418952 -0.018975 1.001828
v 0.750181 0.907665 1.923597
v 0.775130 0.012695 1.935709
v 2.127553 0.897886 0.221199
v 2.152502 0.002916 0.233311
v 1.193408 0.885774 0.577888
v 1.218357 -0.009196 0.590000
v 1.482391 0.875995 -0.067397
v 1.507341 -0.018975 -0.055285
v 1.838569 0.907665 0.866484
v 1.863518 0.012695 0.878596
v -1.376308 0.897886 -0.130088
v -1.351359 0.002916 -0.117976
v -2.310453 0.885774 0.226601
v -2.285503 -0.009196 0.238713
v -2.021469 0.875995 -0.418684
v -1.996520 -0.018975 -0.406572
v -1.665292 0.907665 0.515198
v -1.640342 0.012695 0.527309
v -0.862889 0.897886 -2.021632
v -0.837940 0.002916 -2.009520
v -1.797034 0.885774 -1.664943
v -1.772084 -0.009196 -1.652831
v -1.508050 0.875995 -2.310228
v -1.483101 -0.018975 -2.298116
v -1.151872 0.907665 -1.376347
v -1.126923 0.012695 -1.364235
v 2.298692 0.897886 -2.012625
v 2.323642 0.002916 -2.000513
v 1.364547 0.885774 -1.655936
v 1.389497 -0.009196 -1.643824
v 1.653531 0.875995 -2.301221
v 1.678481 -0.018975 -2.289109
v 2.009709 0.907665 -1.367339
v 2.034658 0.012695 -1.355228
v -0.333113 1.226016 0.667066
v -0.307902 0.002916 0.655509
v -0.651703 1.213905 1.614882
v -0.626492 -0.009196 1.603324
v -0.966051 1.204125 0.981565
v -0.940840 -0.018975 0.970008
v -0.018765 1.235796 1.300382
v 0.006446 0.012695 1.288825
v -0.863151 0.897886 -1.997963
v -0.837940 0.002916 -2.009520
v -1.181741 0.885774 -1.050148
v -1.156530 -0.009196 -1.061705
v -1.496089 0.875995 -1.683464
v -1.470878 -0.018975 -1.695021
v -0.548802 0.907665 -1.364647
v -0.523591 0.012695 -1.376204
v -1.089022 1.068510 1.455403
v -1.246598 -0.001962 1.466802
v -2.041312 1.216326 1.722410
v -2.198889 0.145854 1.733810
v -1.698375 1.154500 1.107129
v -1.855951 0.084028 1.118528
v -1.431959 1.130336 2.070684
v -1.589536 0.059864 2.082083
v 2.363798 1.068510 -1.374408
v 2.206222 -0.001962 -1.363008
v 1.411507 1.216326 -1.107400
v 1.253931 0.145854 -1.096001
v 1.754445 1.154500 -1.722681
v 1.596869 0.084028 -1.711282
v 2.020860 1.130336 -0.759126
v 1.863284 0.059864 -0.747727
v -1.203250 1.122648 -1.134993
v -1.251337 0.041955 -1.160701
v -2.201708 1.172408 -1.159584
v -2.249795 0.091716 -1.185293
v -1.689724 1.156476 -1.647045
v -1.737812 0.075783 -1.672754
v -1.715233 1.138581 -0.647531
v -1.763321 0.057888 -0.673240
v 1.446390 1.122648 1.340317
v 1.446717 0.041955 1.394844
v 1.900791 1.172408 2.229723
v 1.901118 0.091716 2.284250
v 1.228205 1.156476 2.012069
v 1.228531 0.075783 2.066597
v 2.118976 1.138581 1.557971
v 2.119303 0.057888 1.612499
v 0.709433 1.122648 0.464783
v 0.753238 0.041955 0.497254
v 1.693533 1.172408 0.635279
v 1.737340 0.091716 0.667750
v 1.115704 1.156476 1.042536
v 1.159510 0.075783 1.075008
v 1.287263 1.138581 0.057525
v 1.331068 0.057888 0.089997
v 0.604347 0.907610 -1.546859
v 0.648153 0.041955 -1.514388
v 1.588448 0.957370 -1.376363
v 1.632254 0.091716 -1.343892
v 1.010618 0.941438 -0.969106
v 1.054424 0.075783 -0.936634
v 1.182177 0.923543 -1.954117
v 1.225982 0.057888 -1.921645
v 1.870157 1.398901 -0.486815
v 1.985278 0.059068 -0.576975
v 0.891248 1.292430 -0.661177
v 1.006370 -0.047404 -0.751337
v 1.461578 1.404385 -1.063905
v 1.576700 0.064551 -1.154065
v 1.299827 1.286946 -0.084087
v 1.414949 -0.052888 -0.174247
v 1.961108 0.915788 0.698348
v 1.930383 -0.006150 0.698348
v 1.576658 0.928600 1.621405
v 1.545934 0.006662 1.621405
v 1.307611 0.937566 0.967545
v 1.276886 0.015628 0.967545
v 2.230155 0.906822 1.352208
v 2.199431 -0.015116 1.352208
v 0.614477 0.922450 1.325434
v 0.614477 0.000000 1.325434
v 1.391340 0.922450 1.955103
v 1.391340 0.000000 1.955103
v 0.688074 0.922450 2.028700
v 0.688074 0.000000 2.028700
v 1.317743 0.922450 1.251837
v 1.317743 0.000000 1.251837
v 0.002639 0.922450 0.315618
v 0.002639 0.000000 0.315618
v 0.066596 0.922450 1.313571
v 0.066596 0.000000 1.313571
v -0.464359 0.922450 0.846573
v -0.464359 0.000000 0.846573
v 0.533594 0.922450 0.782616
v 0.533594 0.000000 0.782616
v -0.742216 0.971745 1.421950
v -0.725826 0.054508 1.325404
v -1.111496 0.867942 2.345452
v -1.095106 -0.049295 2.248906
v -1.391430 0.930964 1.699182
v -1.375040 0.013727 1.602636
v -0.462282 0.908723 2.068220
v -0.445892 -0.008514 1.971674
v -2.085062 0.922450 0.305741
v -2.085062 0.000000 0.305741
v -1.538719 0.922450 1.143302
v -1.538719 0.000000 1.143302
v -2.230671 0.922450 0.997692
v -2.230671 0.000000 0.997692
v -1.393109 0.922450 0.451350
v -1.393109 0.000000 0.451350
v -0.887452 0.922450 -0.263123
v -0.887452 0.000000 -0.263123
v -1.415250 0.922450 0.586246
v -1.415250 0.000000 0.586246
v -1.576035 0.922450 -0.102338
v -1.576035 0.000000 -0.102338
v -0.726666 0.922450 0.425461
v -0.726666 0.000000 0.425461
v -0.714858 1.252516 -1.433087
v -0.714858 0.000000 -1.433087
v -0.461924 1.252516 -0.465604
v -0.461924 0.000000 -0.465604
v -1.072133 1.252516 -0.822878
v -1.072133 0.000000 -0.822878
v -0.104650 1.252516 -1.075813
v -0.104650 0.000000 -1.075813
v -0.228296 0.966216 -2.190439
v -0.286218 0.052510 -2.303131
v -0.545283 0.869940 -1.246908
v -0.603204 -0.043766 -1.359600
v -0.859964 0.967063 -1.872642
v -0.917885 0.053357 -1.985334
v 0.086385 0.869093 -1.564705
v 0.028464 -0.044613 -1.677397
v 0.345844 1.125057 -1.357236
v 0.345844 0.000000 -1.357236
v 0.879335 1.125057 -0.511430
v 0.879335 0.000000 -0.511430
v 0.189687 1.125057 -0.667588
v 0.189687 0.000000 -0.667588
v 1.035492 1.125057 -1.201079
v 1.035492 0.000000 -1.201079
v -0.395222 0.924993 -0.776054
v -0.395222 0.012067 -0.908264
v 0.599568 0.910383 -0.675169
v 0.599568 -0.002543 -0.807379
v 0.051204 0.846399 -0.233352
v 0.051204 -0.066527 -0.365561
v 0.153141 0.988977 -1.217872
v 0.153141 0.076051 -1.350081
v 1.587669 0.922450 -0.595006
v 1.587669 0.000000 -0.595006
v 2.234631 0.922450 0.167516
v 2.234631 0.000000 0.167516
v 1.529889 0.922450 0.109736
v 1.529889 0.000000 0.109736
v 2.292411 0.922450 -0.537226
v 2.292411 0.000000 -0.537226
v -0.112318 0.922450 0.846727
v -0.112318 0.000000 0.846727
v 0.767031 0.922450 1.322904
v 0.767031 0.000000 1.322904
v 0.089268 0.922450 1.524490
v 0.089268 0.000000 1.524490
v 0.565445 0.922450 0.645141
v 0.565445 0.000000 0.645141
v -1.862319 0.893594 -0.229044
v -1.862319 -0.024134 -0.322256
v -1.010848 0.946584 -0.750760
v -1.010848 0.028856 -0.843973
v -1.174383 0.877069 -0.066346
v -1.174383 -0.040659 -0.159558
v -1.698784 0.963109 -0.913459
v -1.698784 0.045381 -1.006671
vn 0.7071 -0.0000 -0.7071
vn -0.7071 -0.0000 -0.7071
vn 0.9841 0.0864 -0.1549
vn -0.1476 -0.0864 -0.9853
vn 0.9598 0.0289 -0.2792
vn -0.2805 0.1431 -0.9491
vn 0.1681 0.0177 -0.9856
vn -0.9760 0.1432 -0.1639
vn -0.0919 0.0242 0.9955
vn 0.9852 0.1478 0.0873
vn 0.9599 0.0137 -0.2801
vn -0.2798 -0.0199 -0.9598
vn -0.1595 0.0137 -0.9871
vn -0.9870 -0.0199 0.1593
vn -0.8624 0.0137 -0.5060
vn -0.5062 -0.0199 0.8622
vn 0.7339 -0.0226 -0.6789
vn -0.6794 -0.0212 -0.7335
vn -0.3564 -0.0226 -0.9341
vn -0.9339 -0.0212 0.3569
vn -0.9477 -0.0165 -0.3188
vn -0.3185 -0.0155 0.9478
vn -0.9476 -0.0226 -0.3188
vn -0.3183 -0.0212 0.9478
vn -0.2657 0.0289 -0.9636
vn -0.9530 0.1431 0.2671
vn 0.0257 0.0226 -0.9994
vn -0.9987 0.0450 -0.0247
vn -0.8908 0.0226 0.4538
vn 0.4544 0.0450 0.8896
vn -0.1718 0.0226 0.9849
vn 0.9843 0.0450 0.1706
vn -0.1720 0.0282 0.9847
vn 0.9838 0.0562 0.1703
vn 0.1663 0.0804 -0.9828
vn -0.9826 -0.0729 -0.1709
vn -0.9225 0.0307 -0.3847
vn -0.3844 0.0128 0.9231
vn -0.6297 -0.0000 0.7769
vn 0.7769 -0.0000 0.6297
vn -0.9980 -0.0000 0.0640
vn 0.0640 -0.0000 0.9980
vn -0.9291 0.0222 -0.3690
vn -0.3693 -0.1038 0.9235
vn -0.8376 -0.0000 0.5463
vn 0.5463 -0.0000 0.8376
vn -0.8494 -0.0000 -0.5278
vn -0.5278 -0.0000 0.8494
vn -0.9675 -0.0000 0.2529
vn 0.2529 -0.0000 0.9675
vn -0.9463 0.0980 -0.3079
vn -0.3170 -0.0963 0.9435
vn -0.8458 -0.0000 0.5335
vn 0.5335 -0.0000 0.8458
vn -0.1019 -0.1426 0.9845
vn 0.9948 -0.0146 0.1009
vn -0.7625 -0.0000 0.6470
vn 0.6470 -0.0000 0.7625
vn -0.4762 -0.0000 0.8793
vn 0.8793 -0.0000 0.4762
vn 0.5244 -0.0860 0.8471
vn 0.8515 0.0530 -0.5217
vt 0.500000 0.000000
vt 1.000000 1.000000
vt 0.500000 1.000000
vt 1.000000 0.000000
vt 0.000000 1.000000
vt 0.000000 0.000000
s 0
usemtl Primary
f 2/1/1 3/2/1 1/3/1
f 6/1/2 7/2/2 5/3/2
f 9/3/3 12/4/3 11/2/3
f 13/3/4 16/4/4 15/2/4
f 17/5/5 20/1/5 19/3/5
f 21/5/6 24/1/6 23/3/6
f 25/5/7 28/1/7 27/3/7
f 30/6/8 31/3/8 29/5/8
f 34/6/9 35/3/9 33/5/9
f 37/5/10 40/1/10 39/3/10
f 42/1/1 43/2/1 41/3/1
f 46/1/2 47/2/2 45/3/2
f 49/5/11 52/1/11 51/3/11
f 53/5/12 56/1/12 55/3/12
f 57/5/13 60/1/13 59/3/13
f 61/5/14 64/1/14 63/3/14
f 65/5/13 68/1/13 67/3/13
f 69/5/14 72/1/14 71/3/14
f 73/5/15 76/1/15 75/3/15
f 77/5/16 80/1/16 79/3/16
f 81/3/17 84/4/17 83/2/17
f 85/3/18 88/4/18 87/2/18
f 89/3/19 92/4/19 91/2/19
f 93/3/20 96/4/20 95/2/20
f 97/3/19 100/4/19 99/2/19
f 101/3/20 104/4/20 103/2/20
f 105/3/19 108/4/19 107/2/19
f 109/3/20 112/4/20 111/2/20
f 113/3/19 116/4/19 115/2/19
f 117/3/20 120/4/20 119/2/20
f 121/3/19 124/4/19 123/2/19
f 125/3/20 128/4/20 127/2/20
f 129/3/19 132/4/19 131/2/19
f 133/3/20 136/4/20 135/2/20
f 137/3/21 140/4/21 139/2/21
f 141/3/22 144/4/22 143/2/22
f 145/3/23 148/4/23 147/2/23
f 149/3/24 152/4/24 151/2/24
f 153/5/25 156/1/25 155/3/25
f 157/5/26 160/1/26 159/3/26
f 161/5/25 164/1/25 163/3/25
f 165/5/26 168/1/26 167/3/26
f 169/5/27 172/1/27 171/3/27
f 173/5/28 176/1/28 175/3/28
f 177/5/29 180/1/29 179/3/29
f 181/5/30 184/1/30 183/3/30
f 185/5/31 188/1/31 187/3/31
f 189/5/32 192/1/32 191/3/32
f 194/6/33 195/3/33 193/5/33
f 197/5/34 200/1/34 199/3/34
f 202/1/35 203/2/35 201/3/35
f 206/1/36 207/2/36 205/3/36
f 210/1/37 211/2/37 209/3/37
f 214/1/38 215/2/38 213/3/38
f 218/1/39 219/2/39 217/3/39
f 222/1/40 223/2/40 221/3/40
f 226/1/41 227/2/41 225/3/41
f 230/1/42 231/2/42 229/3/42
f 234/1/43 235/2/43 233/3/43
f 237/3/44 240/4/44 239/2/44
f 242/1/45 243/2/45 241/3/45
f 246/1/46 247/2/46 245/3/46
f 250/1/47 251/2/47 249/3/47
f 254/1/48 255/2/48 253/3/48
f 258/1/49 259/2/49 257/3/49
f 262/1/50 263/2/50 261/3/50
f 266/1/51 267/2/51 265/3/51
f 270/1/52 271/2/52 269/3/52
f 274/1/53 275/2/53 273/3/53
f 278/1/54 279/2/54 277/3/54
f 282/1/55 283/2/55 281/3/55
f 285/3/56 288/4/56 287/2/56
f 290/1/57 291/2/57 289/3/57
f 294/1/58 295/2/58 293/3/58
f 298/1/59 299/2/59 297/3/59
f 302/1/60 303/2/60 301/3/60
f 306/1/61 307/2/61 305/3/61
f 310/1/62 311/2/62 309/3/62
f 2/1/1 4/4/1 3/2/1
f 6/1/2 8/4/2 7/2/2
f 9/3/3 10/1/3 12/4/3
f 13/3/4 14/1/4 16/4/4
f 17/5/5 18/6/5 20/1/5
f 21/5/6 22/6/6 24/1/6
f 25/5/7 26/6/7 28/1/7
f 30/6/8 32/1/8 31/3/8
f 34/6/9 36/1/9 35/3/9
f 37/5/10 38/6/10 40/1/10
f 42/1/1 44/4/1 43/2/1
f 46/1/2 48/4/2 47/2/2
f 49/5/11 50/6/11 52/1/11
f 53/5/12 54/6/12 56/1/12
f 57/5/13 58/6/13 60/1/13
f 61/5/14 62/6/14 64/1/14
f 65/5/13 66/6/13 68/1/13
f 69/5/14 70/6/14 72/1/14
f 73/5/15 74/6/15 76/1/15
f 77/5/16 78/6/16 80/1/16
f 81/3/17 82/1/17 84/4/17
f 85/3/18 86/1/18 88/4/18
f 89/3/19 90/1/19 92/4/19
f 93/3/20 94/1/20 96/4/20
f 97/3/19 98/1/19 100/4/19
f 101/3/20 102/1/20 104/4/20
f 105/3/19 106/1/19 108/4/19
f 109/3/20 110/1/20 112/4/20
f 113/3/19 114/1/19 116/4/19
f 117/3/20 118/1/20 120/4/20
f 121/3/19 122/1/19 124/4/19
f 125/3/20 126/1/20 128/4/20
f 129/3/19 130/1/19 132/4/19
f 133/3/20 134/1/20 136/4/20
f 137/3/21 138/1/21 140/4/21
f 141/3/22 142/1/22 144/4/22
f 145/3/23 146/1/23 148/4/23
f 149/3/24 150/1/24 152/4/24
f 153/5/25 154/6/25 156/1/25
f 157/5/26 158/6/26 160/1/26
f 161/5/25 162/6/25 164/1/25
f 165/5/26 166/6/26 168/1/26
f 169/5/27 170/6/27 172/1/27
f 173/5/28 174/6/28 176/1/28
f 177/5/29 178/6/29 180/1/29
f 181/5/30 182/6/30 184/1/30
f 185/5/31 186/6/31 188/1/31
f 189/5/32 190/6/32 192/1/32
f 194/6/33 196/1/33 195/3/33
f 197/5/34 198/6/34 200/1/34
f 202/1/35 204/4/35 203/2/35
f 206/1/36 208/4/36 207/2/36
f 210/1/37 212/4/37 211/2/37
f 214/1/38 216/4/38 215/2/38
f 218/1/39 220/4/39 219/2/39
f 222/1/40 224/4/40 223/2/40
f 226/1/41 228/4/41 227/2/41
f 230/1/42 232/4/42 231/2/42
f 234/1/43 236/4/43 235/2/43
f 237/3/44 238/1/44 240/4/44
f 242/1/45 244/4/45 243/2/45
f 246/1/46 248/4/46 247/2/46
f 250/1/47 252/4/47 251/2/47
f 254/1/48 256/4/48 255/2/48
f 258/1/49 260/4/49 259/2/49
f 262/1/50 264/4/50 263/2/50
f 266/1/51 268/4/51 267/2/51
f 270/1/52 272/4/52 271/2/52
f 274/1/53 276/4/53 275/2/53
f 278/1/54 280/4/54 279/2/54
f 282/1/55 284/4/55 283/2/55
f 285/3/56 286/1/56 288/4/56
f 290/1/57 292/4/57 291/2/57
f 294/1/58 296/4/58 295/2/58
f 298/1/59 300/4/59 299/2/59
f 302/1/60 304/4/60 303/2/60
f 306/1/61 308/4/61 307/2/61
f 310/1/62 312/4/62 311/2/62
