# Blender 4.2.0
# www.blender.org
mtllib GrassPatch01b.mtl
o GrassPatch01b
v 0.641421 1.128833 0.141421
v 0.641421 0.000000 0.141421
v -0.358579 1.128833 0.141421
v -0.358579 0.000000 0.141421
v 0.141421 1.128833 -0.358579
v 0.141421 0.000000 -0.358579
v 0.141421 1.128833 0.641421
v 0.141421 0.000000 0.641421
v 0.025406 1.125782 0.244194
v 0.133544 0.038681 0.227581
v -0.776677 1.048420 -0.347987
v -0.668539 -0.038681 -0.364600
v -0.081965 1.125782 -0.454713
v 0.026173 0.038681 -0.471326
v -0.669306 1.048420 0.350920
v -0.561168 -0.038681 0.334307
v 0.610029 0.812323 0.471145
v 0.529617 -0.073908 0.356765
v -0.044907 0.960138 -0.269942
v -0.125319 0.073908 -0.384322
v 0.658304 0.898313 -0.229052
v 0.577892 0.012082 -0.343432
v -0.093182 0.874149 0.430254
v -0.173594 -0.012082 0.315874
v 0.380000 -0.018692 -0.273903
v 0.365202 0.978907 -0.341572
v -0.387136 0.013387 0.366779
v -0.401934 1.010985 0.299110
v 0.317089 0.028044 0.428847
v 0.302291 1.025642 0.361179
v -0.324225 -0.033348 -0.335972
v -0.339023 0.964250 -0.403640
v -0.035676 0.852937 -0.875109
v -0.067214 -0.073908 -0.734896
v -0.123007 1.000753 0.110043
v -0.154545 0.073908 0.250256
v -0.577081 0.938927 -0.428469
v -0.608618 0.012082 -0.288256
v 0.418397 0.914763 -0.336597
v 0.386859 -0.012082 -0.196384
vn -0.0000 -0.0000 -1.0000
vn -1.0000 -0.0000 -0.0000
vn 0.5880 0.0708 -0.8057
vn -0.8028 -0.0708 -0.5921
vn 0.7509 0.0171 -0.6602
vn -0.6543 0.1549 -0.7402
vn 0.6413 0.0614 0.7648
vn -0.7671 0.0321 0.6407
vn -0.9956 0.0201 -0.0913
vn -0.0872 0.1519 0.9845
vt 0.500000 1.000000
vt 0.500000 0.000000
vt 1.000000 0.000000
vt 1.000000 1.000000
vt 0.000000 1.000000
vt 0.000000 0.000000
s 0
usemtl Primary
f 1/1/1 2/2/1 4/3/1 3/4/1
f 5/1/2 6/2/2 8/3/2 7/4/2
f 9/1/3 10/2/3 12/3/3 11/4/3
f 13/1/4 14/2/4 16/3/4 15/4/4
f 17/5/5 18/6/5 20/2/5 19/1/5
f 21/5/6 22/6/6 24/2/6 23/1/6
f 28/5/7 27/6/7 25/2/7 26/1/7
f 32/5/8 31/6/8 29/2/8 30/1/8
f 33/5/9 34/6/9 36/2/9 35/1/9
f 37/5/10 38/6/10 40/2/10 39/1/10
