# Blender 4.2.0
# www.blender.org
mtllib Log02.mtl
o Log02
v -5.000000 0.000000 0.000000
v 5.000000 0.000000 0.000000
v -5.017041 0.146447 0.353142
v 4.941036 0.146447 0.348602
v -5.024099 0.500000 0.499419
v 4.916613 0.500000 0.492998
v -5.017041 0.853553 0.353142
v 4.941036 0.853553 0.348602
v -5.000000 1.000000 -0.000000
v 5.000000 1.000000 -0.000000
v -4.982958 0.853553 -0.353142
v 5.058962 0.853553 -0.348602
v -4.975899 0.500000 -0.499419
v 5.083385 0.500000 -0.492998
v -4.982958 0.146447 -0.353142
v 5.058962 0.146447 -0.348602
v 1.547171 0.000000 0.057588
v 1.592211 0.146447 0.408260
v 1.610868 0.500000 0.553514
v 1.592211 0.853553 0.408260
v 1.547171 1.000000 0.057588
v 1.502131 0.853553 -0.293085
v 1.483475 0.500000 -0.438338
v 1.502131 0.146447 -0.293085
vn 0.0069 -0.9231 0.3846
vn 0.0169 -0.3807 0.9245
vn 0.0169 0.3807 0.9245
vn 0.0069 0.9231 0.3846
vn -0.0064 0.9230 -0.3847
vn -0.0144 0.3806 -0.9246
vn -0.9988 -0.0000 -0.0482
vn -0.0144 -0.3806 -0.9246
vn -0.0064 -0.9230 -0.3847
vn 0.9860 -0.0000 0.1668
vn 0.0035 -0.9238 -0.3829
vn 0.0087 -0.3824 -0.9239
vn 0.0087 0.3824 -0.9239
vn 0.0035 0.9238 -0.3829
vn -0.0034 0.9238 0.3829
vn -0.0077 0.3824 0.9240
vn -0.0077 -0.3824 0.9240
vn -0.0034 -0.9238 0.3829
vn 0.0065 -0.9215 0.3882
vn 0.0165 -0.3771 0.9260
vn 0.0165 0.3771 0.9260
vn 0.0065 0.9215 0.3882
vn -0.0061 0.9216 -0.3882
vn -0.0141 0.3772 -0.9260
vn -0.0141 -0.3772 -0.9260
vn -0.0061 -0.9216 -0.3882
vn 0.0034 -0.9226 -0.3857
vn 0.0086 -0.3796 -0.9251
vn 0.0086 0.3796 -0.9251
vn 0.0034 0.9226 -0.3857
vn -0.0032 0.9226 0.3857
vn -0.0075 0.3797 0.9251
vn -0.0075 -0.3797 0.9251
vn -0.0032 -0.9226 0.3857
vt 0.357143 0.781250
vt -0.130952 0.687500
vt 0.357143 0.687500
vt -0.130952 0.593750
vt 0.357143 0.593750
vt 0.357143 0.500000
vt -0.130952 0.500000
vt 0.357143 0.437500
vt 1.297619 0.437500
vt 0.809524 0.531250
vt 0.809524 0.437500
vt 1.297619 0.531250
vt 0.809524 0.625000
vt 0.071429 0.687500
vt 0.642857 0.000000
vt 0.273810 0.937500
vt 1.297619 0.718750
vt 0.809524 0.718750
vt 1.297619 0.812500
vt 0.809524 0.812500
vt 0.071429 0.218750
vt 0.321429 0.031250
vt 0.940476 0.250000
vt 0.880952 0.687500
vt 0.630952 0.968750
vt 0.642857 1.000000
vt 0.952381 0.250000
vt 0.892857 0.687500
vt -0.130952 0.781250
vt -0.130952 0.406250
vt 1.297619 0.500000
vt 1.297619 0.406250
vt 1.297619 0.593750
vt 1.297619 0.687500
vt 1.297619 0.781250
vt -0.130952 0.437500
vt 1.297619 0.625000
s 0
usemtl Primary
f 17/1/1 4/2/1 18/3/1
f 18/3/2 6/4/2 19/5/2
f 6/4/3 20/6/3 19/5/3
f 8/7/4 21/8/4 20/6/4
f 10/9/5 22/10/5 21/11/5
f 12/12/6 23/13/6 22/10/6
f 23/13/8 16/17/8 24/18/8
f 24/18/9 2/19/9 17/20/9
f 24/18/11 1/29/11 15/2/11
f 23/13/12 15/2/12 13/4/12
f 11/7/13 23/13/13 13/4/13
f 9/30/14 22/10/14 11/7/14
f 7/31/15 21/8/15 9/32/15
f 5/33/16 20/6/16 7/31/16
f 18/3/17 5/33/17 3/34/17
f 17/1/18 3/34/18 1/35/18
f 17/1/19 2/29/19 4/2/19
f 18/3/20 4/2/20 6/4/20
f 6/4/21 8/7/21 20/6/21
f 8/7/22 10/36/22 21/8/22
f 10/9/23 12/12/23 22/10/23
f 12/12/24 14/37/24 23/13/24
f 23/13/25 14/37/25 16/17/25
f 24/18/26 16/17/26 2/19/26
f 24/18/27 17/20/27 1/29/27
f 23/13/28 24/18/28 15/2/28
f 11/7/29 22/10/29 23/13/29
f 9/30/30 21/11/30 22/10/30
f 7/31/31 20/6/31 21/8/31
f 5/33/32 19/5/32 20/6/32
f 18/3/33 19/5/33 5/33/33
f 17/1/34 18/3/34 3/34/34
usemtl Secondary
f 11/14/7 1/15/7 9/16/7
f 13/21/7 15/22/7 11/14/7
f 3/23/7 9/16/7 1/15/7
f 5/24/7 7/25/7 3/23/7
f 14/21/10 12/22/10 16/14/10
f 10/15/10 16/14/10 12/22/10
f 4/26/10 10/15/10 8/27/10
f 6/28/10 4/26/10 8/27/10
f 11/14/7 15/22/7 1/15/7
f 3/23/7 7/25/7 9/16/7
f 10/15/10 2/16/10 16/14/10
f 4/26/10 2/16/10 10/15/10
