# Blender 4.2.0
# www.blender.org
mtllib PineTree02.mtl
o PineTree02
v 0.000000 0.000000 -0.223525
v -0.020773 14.146925 -0.057146
v 0.212585 0.000000 -0.069073
v 0.016871 14.146925 -0.029796
v 0.131385 0.000000 0.180836
v 0.002492 14.146925 0.014457
v -0.131385 0.000000 0.180836
v -0.044039 14.146925 0.014457
v -0.212585 0.000000 -0.069073
v -0.058418 14.146925 -0.029796
v -0.020773 14.194574 -0.019991
v -2.092444 3.459449 0.789458
v 0.018222 5.071507 0.068544
v 0.018222 4.990146 0.068544
v 0.021776 3.459449 2.236313
v -0.058097 4.939291 0.040681
v -0.058097 5.020652 0.040681
v -0.058097 4.939291 -0.040680
v -0.058097 5.020652 -0.040680
v -0.058177 4.990146 0.040566
v -0.058177 5.071507 0.040566
v 0.069593 4.853568 -0.013679
v 0.069593 4.772206 -0.013679
v 2.232910 3.265601 0.125231
v 0.036655 4.772206 0.060717
v 0.036655 4.853568 0.060717
v 0.029159 5.060350 -0.064653
v 0.029159 4.978989 -0.064653
v 1.491944 3.459449 -1.747664
v 0.070726 4.978989 0.005289
v 0.070726 5.060350 0.005289
v -0.064011 4.965030 -0.030544
v -0.064011 4.883669 -0.030544
v -1.717237 3.406791 -1.432713
v 0.006810 4.883669 -0.070596
v 0.006810 4.965030 -0.070596
v 0.147247 4.776884 0.658350
v 2.989293 2.715016 1.316701
v 0.147247 4.776884 -0.658350
v 2.989293 2.715016 -1.316700
v 0.569643 5.006849 0.361405
v 3.044797 2.944981 -1.182701
v -0.361405 5.006849 -0.569643
v 1.182701 2.944981 -3.044797
v 0.170047 4.963057 0.652833
v -2.056552 2.901189 2.537749
v -0.431959 4.963057 -0.518187
v -3.260564 2.901189 0.195709
v 0.658350 5.011563 0.147248
v 1.316700 2.949694 2.989293
v -0.658350 5.011563 0.147248
v -1.316700 2.949694 2.989293
v 0.361404 4.908376 -0.569643
v -1.182702 2.846507 -3.044797
v -0.569644 4.908376 0.361405
v -3.044797 2.846508 -1.182701
v -0.413882 5.696324 -0.034025
v -1.927535 3.840643 2.111314
v 0.683593 5.696324 0.413013
v 0.267416 3.840643 3.005391
v -0.059098 5.903293 0.517609
v 1.620418 4.047611 2.535740
v 0.657205 5.903293 -0.426428
v 3.053023 4.047611 0.647666
v -0.406604 5.709553 0.178956
v -2.024595 3.853871 -1.888827
v 0.667398 5.709553 -0.321859
v 0.123409 3.853871 -2.890458
v 0.063854 5.907536 0.584613
v -2.493987 4.051854 1.177128
v 0.063854 5.907536 -0.600417
v -2.493987 4.051853 -1.192932
v 0.716351 5.814667 0.271668
v 2.876301 3.958986 -1.221060
v -0.160001 5.814667 -0.526018
v 1.123598 3.958986 -2.816432
v 0.544380 7.032633 0.059695
v 1.796176 5.372829 -1.927293
v -0.456797 7.032633 -0.288334
v -0.206179 5.372829 -2.623351
v 0.399267 7.217754 -0.375860
v -0.316455 5.557951 -2.612566
v -0.511310 7.217754 0.166661
v -2.137609 5.557951 -1.527524
v 0.548061 7.044465 0.017752
v 1.490920 5.384661 2.168596
v -0.493697 7.044465 0.213253
v -0.592596 5.384661 2.559597
v 0.265035 7.221550 -0.479238
v 2.610263 5.561745 -0.356699
v -0.027718 7.221550 0.539475
v 2.024757 5.561745 1.680727
v -0.314318 7.138484 -0.441442
v -2.624456 5.478680 -0.019097
v 0.106685 7.138484 0.531306
v -1.782450 5.478681 1.926397
v 0.054604 8.147005 -0.476162
v -1.663378 6.703697 -1.580134
v -0.255826 8.147005 0.391678
v -2.284239 6.703697 0.155546
v -0.381306 8.307981 -0.292148
v -2.199080 6.864673 0.638398
v 0.213003 8.307981 0.412344
v -1.010462 6.864673 2.047383
v 0.103074 8.157293 -0.469171
v 2.092506 6.713986 -0.930016
v 0.103074 8.157293 0.452519
v 2.092506 6.713986 0.913364
v -0.418902 8.311280 -0.232878
v -0.316015 6.867972 -2.272396
v 0.467392 8.311280 0.020095
v 1.456573 6.867972 -1.766449
v -0.460844 8.239049 0.094748
v -0.921689 6.795742 2.084180
v 0.460846 8.239049 0.094747
v 0.921691 6.795742 2.084180
v -0.005470 9.562989 -0.512947
v -2.027412 7.985661 -1.457613
v -0.214894 9.562989 0.472317
v -2.446261 7.985661 0.512915
v -0.510753 9.738913 -0.056903
v -1.701775 8.161584 1.830453
v 0.440426 9.738913 0.274552
v 0.200583 8.161584 2.493362
v -0.179829 9.574234 -0.480631
v 1.369278 7.996905 -2.087153
v 0.368773 9.574234 0.364141
v 2.466482 7.996905 -0.397608
v -0.514680 9.742519 0.010887
v -1.512123 8.165189 -1.985548
v 0.464744 9.742519 -0.224341
v 0.446726 8.165189 -2.456004
v -0.157872 9.663580 0.493676
v 1.457653 8.086251 2.033390
v 0.354589 9.663580 -0.373496
v 2.482577 8.086251 0.299046
v 0.108352 10.826085 0.337500
v 2.170435 9.279685 1.068971
v 0.219946 10.826085 -0.643699
v 2.393624 9.279685 -0.893427
v 0.448286 10.998559 0.152016
v 2.423628 9.452159 -0.788868
v -0.166617 10.998559 -0.620705
v 1.193821 9.452159 -2.334312
v 0.147377 10.837111 0.353400
v -1.733099 9.290709 1.471904
v -0.152893 10.837111 -0.587368
v -2.333639 9.290709 -0.409631
v 0.472394 11.002095 -0.245853
v 1.697234 9.455693 1.567157
v -0.449540 11.002095 0.108044
v -0.146634 9.455693 2.274951
v 0.331041 10.924705 -0.588106
v -0.694724 9.378303 -2.520733
v -0.414254 10.924705 0.059769
v -2.185313 9.378304 -1.224983
v 0.265603 12.206055 -0.085125
v 0.923254 10.907077 -1.801333
v -0.555996 12.206055 -0.199489
v -0.719945 10.907077 -2.030062
v -0.137873 12.350931 -0.367313
v -1.760004 11.051954 -1.231354
v -0.352569 12.350931 0.433942
v -2.189396 11.051954 0.371158
v 0.144521 12.215314 -0.266996
v 1.849100 10.916337 0.420234
v -0.331273 12.215314 0.412508
v 0.897513 10.916337 1.779243
v -0.282659 12.353902 -0.348252
v 1.060570 11.054924 -1.602689
v 0.132102 12.353902 0.370134
v 1.890091 11.054924 -0.165917
v -0.568118 12.288895 0.110381
v -1.295089 10.989917 1.798394
v 0.248145 12.288895 0.258097
v 0.337436 10.989918 2.093827
v -0.222254 13.216274 0.306635
v 0.543799 12.077093 1.724765
v 0.323269 13.216274 -0.174641
v 1.634846 12.077093 0.762213
v 0.208528 13.343329 0.314265
v 1.802498 12.204148 0.075121
v -0.058976 13.343329 -0.362243
v 1.267488 12.204148 -1.277896
v -0.176961 13.224395 0.334524
v -1.787829 12.085213 0.279463
v 0.011324 13.224395 -0.368164
v -1.411260 12.085213 -1.125914
v 0.281967 13.345935 0.248040
v -0.131878 12.206753 1.805815
v -0.360833 13.345935 -0.092593
v -1.417477 12.206753 1.124548
v 0.368164 13.288923 0.019796
v 1.125914 12.149741 -1.402787
v -0.334525 13.288923 -0.168489
v -0.279464 12.149742 -1.779357
v 0.111620 14.101471 -0.204906
v -0.235358 13.421055 -1.102913
v -0.247891 14.101471 0.039126
v -0.954380 13.421055 -0.614849
v -0.169716 14.177361 -0.209304
v -1.128824 13.496944 -0.126107
v -0.035445 14.177361 0.203941
v -0.860281 13.496944 0.700382
v -0.017040 14.106324 -0.245797
v 0.927846 13.425905 -0.430189
v -0.032204 14.106324 0.188449
v 0.897518 13.425905 0.438304
v -0.227883 14.178916 -0.159625
v 0.004328 13.498499 -1.093910
v 0.159269 14.178916 0.037639
v 0.778632 13.498499 -0.699382
v -0.277970 14.144864 0.108638
v -0.215312 13.464448 1.069306
v 0.138053 14.144864 -0.016762
v 0.616733 13.464448 0.818508
vn 0.5878 0.0104 -0.8090
vn 0.9510 0.0123 0.3090
vn -0.0000 0.0118 0.9999
vn 0.7836 0.5667 0.2546
vn -0.9510 0.0095 0.3090
vn -0.5878 0.0087 -0.8090
vn -0.4971 0.5336 -0.6842
vn 0.4971 0.5336 -0.6842
vn -0.0000 0.5859 0.8104
vn -0.7836 0.5667 0.2546
vn 0.0641 -0.0000 -0.9979
vn -0.3778 -0.0000 -0.9259
vn 1.0000 -0.0000 -0.0016
vn 0.3454 -0.0000 0.9385
vn 0.5883 -0.8087 -0.0000
vn -0.9993 -0.0000 0.0364
vn 0.2067 -0.7991 -0.5646
vn -0.0294 -0.0000 0.9996
vn -0.5442 -0.8036 -0.2409
vn -0.7548 -0.0000 -0.6560
vn 0.7768 -0.0000 0.6298
vn -0.5012 -0.8124 0.2979
vn -0.6468 -0.0000 0.7626
vn 0.6199 -0.0000 -0.7847
vn 0.2892 -0.8092 0.5114
vn 0.5872 0.8094 -0.0000
vn 0.4152 0.8094 -0.4152
vn 0.5223 -0.8094 -0.2685
vn -0.0000 -0.8094 -0.5872
vn -0.4152 0.8094 -0.4152
vn -0.2215 0.8094 0.5438
vn 0.4678 0.8094 0.3550
vn 0.2482 -0.8094 0.5322
vn 0.5872 -0.8094 -0.0000
vn 0.3953 0.8094 -0.4343
vn 0.1928 0.8094 -0.5547
vn -0.3006 0.8094 -0.5045
vn -0.1083 -0.8094 -0.5772
vn -0.5644 -0.8094 -0.1622
vn -0.5389 0.8094 0.2332
vn -0.5529 0.8094 -0.1978
vn -0.4488 0.8094 0.3786
vn -0.5872 -0.8094 -0.0000
vn -0.1612 -0.8094 0.5647
vn -0.0000 0.8094 0.5872
vn -0.5744 0.8094 -0.1221
vn -0.1932 0.8094 0.5545
vn -0.4925 -0.8094 0.3198
vn 0.1371 -0.8094 0.5710
vn 0.5055 0.8094 0.2988
vn 0.5835 0.8094 0.0664
vn 0.4595 0.8094 -0.3656
vn 0.5594 -0.8094 -0.1786
vn -0.2104 -0.8094 -0.5482
vn -0.3853 0.8094 -0.4432
vn 0.0810 0.8094 -0.5816
vn -0.5672 0.8094 -0.1520
vn -0.4810 -0.8094 -0.3368
vn -0.5086 -0.8094 0.2936
vn -0.1046 0.8094 0.5778
vn 0.3885 0.8094 0.4404
vn 0.5461 0.8094 -0.2159
vn 0.5672 -0.8094 0.1520
vn 0.2750 -0.8094 -0.5189
vn 0.1520 0.8094 -0.5672
vn -0.3298 0.8094 -0.4859
vn -0.5585 0.8094 0.1815
vn -0.5869 -0.8094 -0.0205
vn -0.2666 -0.8094 0.5232
vn 0.1695 0.8094 0.5622
vt 0.382653 0.015306
vt 0.209184 4.188776
vt 0.306122 0.000000
vt 0.193878 4.188776
vt 0.224490 0.000000
vt 0.158163 -0.000000
vt 0.209184 4.204082
vt 0.193878 4.204082
vt 0.076531 -0.000000
vt 0.158163 4.188776
vt 0.000000 0.015306
vt 0.173469 4.219388
vt 0.173469 4.204082
vt 0.209184 4.219388
vt 0.244898 -0.122449
vt 0.280612 -0.147959
vt 0.219388 1.209184
vt 0.173469 -0.158163
vt 0.204082 -0.137755
vt 1.000000 1.000000
vt 0.382653 0.000000
vt 1.000000 0.000000
vt 0.382653 1.000000
vt 0.224490 4.188776
vt 0.173469 4.188776
s 0
usemtl Primary
f 1/1/1 4/2/1 3/3/1
f 3/3/2 6/4/2 5/5/2
f 6/4/3 7/6/3 5/5/3
f 6/4/4 4/7/4 11/8/4
f 8/4/5 9/9/5 7/6/5
f 9/9/6 2/10/6 1/11/6
f 2/12/7 10/13/7 11/8/7
f 4/7/8 2/14/8 11/8/8
f 8/4/9 6/4/9 11/8/9
f 10/13/10 8/4/10 11/8/10
f 23/15/11 22/16/11 24/17/11
f 12/17/12 19/18/12 18/19/12
f 14/15/13 13/16/13 15/17/13
f 16/15/14 17/16/14 12/17/14
f 12/17/15 18/19/15 16/15/15
f 15/17/16 21/18/16 20/19/16
f 15/17/17 20/19/17 14/15/17
f 24/17/18 26/18/18 25/19/18
f 24/17/19 25/19/19 23/15/19
f 28/15/20 27/16/20 29/17/20
f 29/17/21 31/18/21 30/19/21
f 29/17/22 30/19/22 28/15/22
f 33/15/23 32/16/23 34/17/23
f 34/17/24 36/18/24 35/19/24
f 34/17/25 35/19/25 33/15/25
f 38/20/26 39/21/26 37/22/26
f 42/23/27 43/22/27 41/21/27
f 46/23/28 47/22/28 45/21/28
f 50/23/29 51/22/29 49/21/29
f 54/20/30 55/21/30 53/22/30
f 57/22/31 60/23/31 59/21/31
f 62/23/32 63/22/32 61/21/32
f 66/23/33 67/22/33 65/21/33
f 70/23/34 71/22/34 69/21/34
f 74/20/35 75/21/35 73/22/35
f 78/20/36 79/21/36 77/22/36
f 82/23/37 83/22/37 81/21/37
f 85/21/38 88/20/38 87/22/38
f 90/23/39 91/22/39 89/21/39
f 94/20/40 95/21/40 93/22/40
f 98/20/41 99/21/41 97/22/41
f 101/21/42 104/20/42 103/22/42
f 105/21/43 108/20/43 107/22/43
f 110/23/44 111/22/44 109/21/44
f 114/20/45 115/21/45 113/22/45
f 117/22/46 120/23/46 119/21/46
f 122/23/47 123/22/47 121/21/47
f 126/23/48 127/22/48 125/21/48
f 130/23/49 131/22/49 129/21/49
f 134/20/50 135/21/50 133/22/50
f 138/20/51 139/21/51 137/22/51
f 142/23/52 143/22/52 141/21/52
f 146/23/53 147/22/53 145/21/53
f 150/23/54 151/22/54 149/21/54
f 154/20/55 155/21/55 153/22/55
f 158/20/56 159/21/56 157/22/56
f 161/21/57 164/20/57 163/22/57
f 165/21/58 168/20/58 167/22/58
f 170/23/59 171/22/59 169/21/59
f 173/22/60 176/23/60 175/21/60
f 178/20/61 179/21/61 177/22/61
f 182/23/62 183/22/62 181/21/62
f 186/23/63 187/22/63 185/21/63
f 190/23/64 191/22/64 189/21/64
f 193/22/65 196/23/65 195/21/65
f 198/20/66 199/21/66 197/22/66
f 202/23/67 203/22/67 201/21/67
f 206/23/68 207/22/68 205/21/68
f 210/23/69 211/22/69 209/21/69
f 214/20/70 215/21/70 213/22/70
f 1/1/1 2/24/1 4/2/1
f 3/3/2 4/2/2 6/4/2
f 6/4/3 8/4/3 7/6/3
f 8/4/5 10/25/5 9/9/5
f 9/9/6 10/25/6 2/10/6
f 38/20/26 40/23/26 39/21/26
f 42/23/27 44/20/27 43/22/27
f 46/23/28 48/20/28 47/22/28
f 50/23/29 52/20/29 51/22/29
f 54/20/30 56/23/30 55/21/30
f 57/22/31 58/20/31 60/23/31
f 62/23/32 64/20/32 63/22/32
f 66/23/33 68/20/33 67/22/33
f 70/23/34 72/20/34 71/22/34
f 74/20/35 76/23/35 75/21/35
f 78/20/36 80/23/36 79/21/36
f 82/23/37 84/20/37 83/22/37
f 85/21/38 86/23/38 88/20/38
f 90/23/39 92/20/39 91/22/39
f 94/20/40 96/23/40 95/21/40
f 98/20/41 100/23/41 99/21/41
f 101/21/42 102/23/42 104/20/42
f 105/21/43 106/23/43 108/20/43
f 110/23/44 112/20/44 111/22/44
f 114/20/45 116/23/45 115/21/45
f 117/22/46 118/20/46 120/23/46
f 122/23/47 124/20/47 123/22/47
f 126/23/48 128/20/48 127/22/48
f 130/23/49 132/20/49 131/22/49
f 134/20/50 136/23/50 135/21/50
f 138/20/51 140/23/51 139/21/51
f 142/23/52 144/20/52 143/22/52
f 146/23/53 148/20/53 147/22/53
f 150/23/54 152/20/54 151/22/54
f 154/20/55 156/23/55 155/21/55
f 158/20/56 160/23/56 159/21/56
f 161/21/57 162/23/57 164/20/57
f 165/21/58 166/23/58 168/20/58
f 170/23/59 172/20/59 171/22/59
f 173/22/60 174/20/60 176/23/60
f 178/20/61 180/23/61 179/21/61
f 182/23/62 184/20/62 183/22/62
f 186/23/63 188/20/63 187/22/63
f 190/23/64 192/20/64 191/22/64
f 193/22/65 194/20/65 196/23/65
f 198/20/66 200/23/66 199/21/66
f 202/23/67 204/20/67 203/22/67
f 206/23/68 208/20/68 207/22/68
f 210/23/69 212/20/69 211/22/69
f 214/20/70 216/23/70 215/21/70
