# Blender 4.2.0
# www.blender.org
mtllib Rock01b.mtl
o Rock01
v 0.099107 0.388522 -1.291000
v 0.220716 0.496071 0.667956
v -0.482349 0.481156 -1.315120
v -0.214897 0.484376 0.716926
v -0.471371 0.106611 0.693167
v 0.542241 0.562928 -0.188832
v 0.736322 0.021034 -0.088073
v -0.469299 0.079710 -1.191831
v 0.447920 0.070079 -1.191831
v 0.381830 0.098831 0.693167
v 0.318161 0.523652 0.322397
v -0.645628 0.748064 -0.877521
v 0.651927 0.000000 -0.739637
v -0.681981 0.000000 -0.739637
v 0.508625 0.562928 -0.877521
v -0.444630 0.681655 0.322397
v 0.597140 0.060300 0.459459
v -0.786324 0.000000 -0.132318
v -0.677717 0.681655 -0.188832
v -0.697935 0.092631 0.427805
v -0.069209 0.759355 -0.183975
v -0.004166 0.036432 -1.327523
v -0.032399 0.484376 0.734039
v -0.043023 0.068157 0.821618
v -0.210452 0.446815 -1.454338
v -0.020482 -0.036967 -0.094319
v -0.064074 0.716013 0.398893
v -0.049438 0.038223 0.537116
v -0.009111 -0.048958 -0.811964
v -0.070079 0.838977 -0.969169
vn -0.1045 0.9917 0.0747
vn -0.0536 0.8191 0.5712
vn -0.2745 0.1264 0.9532
vn -0.9756 0.1415 -0.1676
vn -0.9019 -0.0355 -0.4305
vn 0.0483 -0.9916 0.1203
vn 0.1022 -0.9895 0.1018
vn 0.8213 0.5447 0.1697
vn 0.6580 0.5487 0.5157
vn 0.2864 0.0154 -0.9580
vn 0.9108 0.1364 -0.3898
vn 0.9407 0.3124 -0.1319
vn 0.1212 -0.9795 -0.1611
vn 0.0719 -0.9973 0.0178
vn -0.7051 0.4071 0.5806
vn -0.9779 0.1663 0.1268
vn -0.1978 0.7895 -0.5810
vn -0.1397 0.9851 0.1001
vn 0.3057 0.9520 -0.0149
vn 0.4046 0.6273 -0.6654
vn -0.0478 -0.9988 -0.0082
vn -0.0939 -0.9720 -0.2155
vn -0.2903 -0.4127 -0.8634
vn -0.1066 -0.9840 0.1429
vn -0.0560 -0.9836 0.1715
vn 0.2738 0.1711 0.9464
vn 0.4722 0.8581 0.2016
vn 0.3009 0.9317 0.2035
vn -0.1269 0.9902 0.0579
vn -0.1802 0.8338 0.5218
vn -0.0913 0.2073 0.9740
vn -0.9983 0.0407 -0.0426
vn -0.9518 -0.1179 -0.2832
vn 0.0754 -0.9931 0.0904
vn 0.0591 -0.9748 0.2152
vn 0.8385 0.3740 0.3963
vn 0.8835 0.3761 0.2792
vn 0.4599 -0.0429 -0.8869
vn 0.5651 0.3930 -0.7254
vn 0.9707 0.2355 -0.0474
vn 0.0935 -0.9766 -0.1935
vn 0.0762 -0.9968 0.0223
vn -0.6763 0.4211 0.6044
vn -0.8249 0.4220 0.3761
vn -0.2158 0.7957 -0.5659
vn -0.1269 0.9879 0.0893
vn 0.4169 0.9043 0.0912
vn 0.4532 0.6246 -0.6360
vn -0.0709 -0.9974 0.0155
vn -0.1385 -0.9768 -0.1631
vn -0.4655 -0.2736 -0.8417
vn -0.1206 -0.9870 0.1066
vn -0.1020 -0.9883 0.1130
vn 0.2394 0.1941 0.9513
vn 0.1078 0.8226 0.5583
vn 0.4585 0.8865 0.0619
vt 0.462537 0.461722
vt 0.448851 0.296330
vt 0.364971 0.350447
vt 0.325422 0.250044
vt 0.286869 0.280967
vt 0.707297 0.250033
vt 0.714377 0.350585
vt 0.625985 0.304490
vt 0.580701 0.535125
vt 0.389670 0.539530
vt 0.470326 0.432077
vt 0.500553 0.663117
vt 0.337140 0.636553
vt 0.528368 0.467223
vt 0.510568 0.257094
vt 0.643316 0.354905
vt 0.591220 0.250045
vt 0.691630 0.300951
vt 0.615763 0.528903
vt 0.584779 0.363461
vt 0.687599 0.428478
vt 0.708491 0.361887
vt 0.339708 0.749968
vt 0.322842 0.671361
vt 0.425796 0.693100
vt 0.404166 0.566804
vt 0.516607 0.632389
vt 0.509128 0.459177
vt 0.250045 0.589279
vt 0.402722 0.597032
vt 0.311625 0.692242
vt 0.292862 0.469634
vt 0.666891 0.448071
vt 0.564815 0.349824
vt 0.749955 0.640159
vt 0.590730 0.608065
vt 0.710053 0.715559
vt 0.694720 0.502995
vt 0.459857 0.703527
vt 0.335100 0.570800
vt 0.618218 0.749955
vt 0.539061 0.700541
vt 0.663341 0.606319
vt 0.420609 0.749954
vt 0.339447 0.749965
vt 0.250032 0.697062
vt 0.749954 0.398407
vt 0.745942 0.486642
vt 0.635366 0.303419
vt 0.745660 0.272287
vt 0.250044 0.341317
vt 0.287744 0.430841
vt 0.584144 0.357439
vt 0.749967 0.332402
vt 0.392756 0.709345
vt 0.390033 0.334619
vt 0.250031 0.697512
vt 0.655604 0.250032
s 0
usemtl Rock01b
f 21/1/1 16/2/1 27/3/1
f 27/3/2 4/4/2 23/5/2
f 24/6/3 4/7/3 5/8/3
f 19/9/4 14/10/4 18/11/4
f 12/12/5 8/13/5 14/10/5
f 26/14/6 17/15/6 28/16/6
f 28/16/7 10/17/7 24/18/7
f 7/19/8 11/20/8 17/21/8
f 11/20/9 10/22/9 17/21/9
f 22/23/10 1/24/10 9/25/10
f 9/25/11 15/26/11 13/27/11
f 13/27/12 6/28/12 7/19/12
f 9/29/13 29/30/13 22/31/13
f 13/32/14 26/14/14 29/30/14
f 5/8/15 16/33/15 20/34/15
f 20/34/16 19/9/16 18/11/16
f 3/35/17 30/36/17 25/37/17
f 12/38/18 21/1/18 30/36/18
f 15/39/19 21/1/19 6/40/19
f 1/41/20 30/36/20 15/39/20
f 14/42/21 26/14/21 18/43/21
f 8/44/22 29/30/22 14/42/22
f 8/13/23 25/45/23 22/46/23
f 28/16/24 5/47/24 20/48/24
f 26/14/25 20/48/25 18/43/25
f 2/49/26 24/50/26 10/22/26
f 27/3/27 2/51/27 11/52/27
f 21/1/28 11/52/28 6/40/28
f 21/1/29 19/53/29 16/2/29
f 27/3/30 16/2/30 4/4/30
f 24/6/31 23/54/31 4/7/31
f 19/9/32 12/12/32 14/10/32
f 12/12/33 3/55/33 8/13/33
f 26/14/34 7/56/34 17/15/34
f 28/16/35 17/15/35 10/17/35
f 7/19/36 6/28/36 11/20/36
f 11/20/37 2/49/37 10/22/37
f 22/23/38 25/57/38 1/24/38
f 9/25/39 1/24/39 15/26/39
f 13/27/40 15/26/40 6/28/40
f 9/29/41 13/32/41 29/30/41
f 13/32/42 7/56/42 26/14/42
f 5/8/43 4/7/43 16/33/43
f 20/34/44 16/33/44 19/9/44
f 3/35/45 12/38/45 30/36/45
f 12/38/46 19/53/46 21/1/46
f 15/39/47 30/36/47 21/1/47
f 1/41/48 25/37/48 30/36/48
f 14/42/49 29/30/49 26/14/49
f 8/44/50 22/31/50 29/30/50
f 8/13/51 3/55/51 25/45/51
f 28/16/52 24/18/52 5/47/52
f 26/14/53 28/16/53 20/48/53
f 2/49/54 23/58/54 24/50/54
f 27/3/55 23/5/55 2/51/55
f 21/1/56 27/3/56 11/52/56
