# Blender 4.2.0
# www.blender.org
mtllib Rock02c.mtl
o Rock02
v 0.099107 0.946566 -1.041043
v 0.220716 1.135342 0.697369
v -0.486316 1.048912 -0.893458
v -0.489729 1.096613 0.809726
v -0.382084 0.106611 0.566587
v 0.542241 1.124693 -0.041807
v 0.736322 0.021034 -0.107411
v -0.380012 0.079710 -1.059655
v 0.447920 0.070079 -1.059655
v 0.381830 0.098831 0.566587
v 0.352263 1.135020 0.399245
v -0.616369 1.060569 -0.635959
v 0.696570 0.000000 -0.669535
v -0.497127 0.000000 -0.669535
v 0.437589 1.087751 -0.499643
v -0.712318 1.087167 0.399245
v 0.668570 0.060300 0.364961
v -0.550651 0.000000 -0.145583
v -0.685218 1.038803 -0.041807
v -0.495282 0.092631 0.337652
v -0.069209 1.221775 -0.037617
v -0.004166 0.036432 -1.176720
v -0.032399 1.123647 0.866726
v -0.043023 0.068157 0.677405
v -0.210452 1.004859 -1.181960
v -0.020482 -0.036967 -0.112800
v -0.064074 1.187532 0.465240
v -0.049438 0.038223 0.431957
v -0.080148 -0.085900 -0.595617
v -0.070079 1.192405 -0.715026
v 0.328924 0.498627 -1.209045
v 0.361562 0.626507 0.768965
v -0.702585 0.594541 0.459118
v -0.505183 0.608313 0.835017
v -0.501958 0.564456 -1.122283
v 0.758979 0.574511 -0.061811
v -0.719204 0.511653 -0.084251
v -0.647263 0.524448 -0.741561
v 0.607465 0.603666 0.475172
v 0.674087 0.540428 -0.661424
v -0.118831 0.513115 -1.360707
v -0.037001 0.601599 0.933674
vn -0.1595 0.9848 0.0687
vn -0.0784 0.9836 0.1627
vn -0.2051 0.0571 0.9771
vn -0.9912 0.0782 -0.1070
vn -0.9242 0.1871 -0.3330
vn 0.0434 -0.9894 0.1389
vn 0.1020 -0.9878 0.1178
vn 0.9068 0.3486 0.2369
vn 0.7111 0.4219 0.5624
vn 0.2974 0.4653 -0.8337
vn 0.6950 0.5362 -0.4790
vn 0.8905 0.4293 -0.1505
vn 0.1215 -0.9744 -0.1892
vn 0.1176 -0.9894 0.0857
vn -0.8849 0.0520 0.4628
vn -0.9978 0.0626 0.0210
vn -0.1842 0.9300 -0.3181
vn -0.2401 0.9699 -0.0417
vn 0.1550 0.9812 -0.1146
vn 0.3559 0.8256 -0.4378
vn -0.1983 -0.9799 -0.0203
vn -0.1544 -0.9579 -0.2421
vn -0.4953 0.2138 -0.8420
vn -0.1477 -0.9801 0.1329
vn -0.0803 -0.9772 0.1965
vn 0.3598 0.2269 0.9050
vn 0.1340 0.9893 0.0581
vn 0.1570 0.9866 0.0445
vn 0.2603 -0.3370 0.9048
vn -0.3140 -0.4067 -0.8579
vn -0.9299 -0.3266 0.1692
vn -0.7979 -0.4314 0.4209
vn 0.9965 0.0425 -0.0721
vn 0.8460 0.0432 -0.5315
vn 0.2601 -0.2526 -0.9319
vn 0.5628 -0.1031 0.8201
vn 0.9879 -0.0525 0.1461
vn -0.8945 -0.3014 -0.3301
vn -0.9532 -0.2862 -0.0974
vn -0.3252 -0.4065 0.8538
vn -0.2819 0.9517 -0.1217
vn -0.1590 0.9852 0.0636
vn -0.1301 0.1272 0.9833
vn -0.9910 0.0729 -0.1122
vn -0.8813 0.1397 -0.4514
vn 0.0754 -0.9928 0.0933
vn 0.0540 -0.9638 0.2610
vn 0.8258 0.4459 0.3453
vn 0.8740 0.2961 0.3853
vn 0.4416 0.3780 -0.8137
vn 0.6924 0.4628 -0.5536
vn 0.9013 0.3636 -0.2354
vn 0.0855 -0.9697 -0.2287
vn 0.0762 -0.9966 0.0319
vn -0.8787 0.0404 0.4756
vn -0.9979 -0.0268 -0.0584
vn -0.2545 0.9517 -0.1716
vn -0.2847 0.9586 0.0021
vn 0.2190 0.9748 -0.0425
vn 0.3550 0.8257 -0.4384
vn -0.0759 -0.9910 0.1098
vn -0.1804 -0.9575 -0.2252
vn -0.6530 0.3406 -0.6764
vn -0.1516 -0.9807 0.1236
vn -0.1467 -0.9809 0.1276
vn 0.5500 0.1015 0.8290
vn 0.0565 0.9867 0.1525
vn 0.1351 0.9886 0.0659
vn 0.3706 -0.4056 0.8355
vn -0.5359 -0.2394 -0.8096
vn -0.9129 -0.3985 0.0887
vn -0.7943 -0.4264 0.4327
vn 0.9899 -0.0291 -0.1385
vn 0.8434 0.0476 -0.5352
vn 0.2999 -0.2799 -0.9120
vn 0.7405 -0.2157 0.6365
vn 0.9618 0.0537 0.2685
vn -0.8894 -0.2713 -0.3679
vn -0.9479 -0.2991 -0.1096
vn -0.1856 -0.4986 0.8467
vt 0.462537 0.461722
vt 0.448851 0.296330
vt 0.364971 0.350447
vt 0.325422 0.250044
vt 0.286869 0.280967
vt 0.775138 0.266027
vt 0.714377 0.350585
vt 0.670181 0.327537
vt 0.547974 0.509968
vt 0.500553 0.663117
vt 0.432416 0.587651
vt 0.404475 0.736689
vt 0.348347 0.658300
vt 0.528368 0.467223
vt 0.510568 0.257094
vt 0.643316 0.354905
vt 0.591220 0.250045
vt 0.691630 0.300951
vt 0.477878 0.443552
vt 0.619587 0.377415
vt 0.546820 0.486228
vt 0.551576 0.326352
vt 0.655327 0.314098
vt 0.277292 0.694443
vt 0.287685 0.612767
vt 0.356741 0.652934
vt 0.444762 0.582995
vt 0.372916 0.533601
vt 0.250045 0.589279
vt 0.402722 0.597032
vt 0.311625 0.692242
vt 0.292862 0.469634
vt 0.763205 0.377928
vt 0.640267 0.412619
vt 0.694595 0.341209
vt 0.625622 0.587859
vt 0.749955 0.640159
vt 0.590730 0.608065
vt 0.710053 0.715559
vt 0.694720 0.502995
vt 0.459857 0.703527
vt 0.335100 0.570800
vt 0.618218 0.749955
vt 0.663341 0.606319
vt 0.539061 0.700541
vt 0.420609 0.749954
vt 0.351166 0.777308
vt 0.278138 0.708865
vt 0.749954 0.398407
vt 0.745942 0.486642
vt 0.602163 0.266310
vt 0.684030 0.242605
vt 0.250044 0.341317
vt 0.287744 0.430841
vt 0.745660 0.272287
vt 0.708491 0.361887
vt 0.292218 0.579912
vt 0.205111 0.640422
vt 0.564815 0.349824
vt 0.470326 0.432077
vt 0.625985 0.304490
vt 0.615763 0.528903
vt 0.516607 0.632389
vt 0.425796 0.693100
vt 0.339708 0.749968
vt 0.687599 0.428478
vt 0.364279 0.512186
vt 0.707297 0.250033
vt 0.584144 0.357439
vt 0.842978 0.282021
vt 0.390033 0.334619
vt 0.214875 0.638918
vt 0.715719 0.475415
vt 0.622401 0.212923
s 0
usemtl Rock01c
f 21/1/1 16/2/1 27/3/1
f 27/3/2 4/4/2 23/5/2
f 42/6/3 4/7/3 34/8/3
f 37/9/4 12/10/4 38/11/4
f 38/11/5 3/12/5 35/13/5
f 26/14/6 17/15/6 28/16/6
f 28/16/7 10/17/7 24/18/7
f 6/19/8 39/20/8 36/21/8
f 11/22/9 32/23/9 39/20/9
f 41/24/10 1/25/10 31/26/10
f 1/25/11 40/27/11 31/26/11
f 15/28/12 36/21/12 40/27/12
f 9/29/13 29/30/13 22/31/13
f 13/32/14 26/14/14 29/30/14
f 4/33/15 33/34/15 34/35/15
f 33/34/16 19/36/16 37/9/16
f 3/37/17 30/38/17 25/39/17
f 12/40/18 21/1/18 30/38/18
f 15/41/19 21/1/19 6/42/19
f 1/43/20 30/38/20 15/41/20
f 29/30/21 18/44/21 14/45/21
f 8/46/22 29/30/22 14/45/22
f 35/13/23 25/47/23 41/48/23
f 28/16/24 5/49/24 20/50/24
f 26/14/25 20/50/25 18/44/25
f 2/51/26 42/52/26 32/23/26
f 27/3/27 2/53/27 11/54/27
f 21/1/28 11/54/28 6/42/28
f 32/23/29 24/55/29 10/56/29
f 8/57/30 41/48/30 22/58/30
f 20/59/31 37/9/31 18/60/31
f 5/61/32 33/34/32 20/59/32
f 40/27/33 7/62/33 13/63/33
f 9/64/34 40/27/34 13/63/34
f 22/65/35 31/26/35 9/64/35
f 39/20/36 10/56/36 17/66/36
f 36/21/37 17/66/37 7/62/37
f 38/11/38 8/57/38 14/67/38
f 18/60/39 38/11/39 14/67/39
f 42/6/40 5/61/40 24/68/40
f 21/1/41 19/69/41 16/2/41
f 27/3/42 16/2/42 4/4/42
f 42/6/43 23/70/43 4/7/43
f 37/9/44 19/36/44 12/10/44
f 38/11/45 12/10/45 3/12/45
f 26/14/46 7/71/46 17/15/46
f 28/16/47 17/15/47 10/17/47
f 6/19/48 11/22/48 39/20/48
f 11/22/49 2/51/49 32/23/49
f 41/24/50 25/72/50 1/25/50
f 1/25/51 15/28/51 40/27/51
f 15/28/52 6/19/52 36/21/52
f 9/29/53 13/32/53 29/30/53
f 13/32/54 7/71/54 26/14/54
f 4/33/55 16/73/55 33/34/55
f 33/34/56 16/73/56 19/36/56
f 3/37/57 12/40/57 30/38/57
f 12/40/58 19/69/58 21/1/58
f 15/41/59 30/38/59 21/1/59
f 1/43/60 25/39/60 30/38/60
f 29/30/61 26/14/61 18/44/61
f 8/46/62 22/31/62 29/30/62
f 35/13/63 3/12/63 25/47/63
f 28/16/64 24/18/64 5/49/64
f 26/14/65 28/16/65 20/50/65
f 2/51/66 23/74/66 42/52/66
f 27/3/67 23/5/67 2/53/67
f 21/1/68 27/3/68 11/54/68
f 32/23/69 42/52/69 24/55/69
f 8/57/70 35/13/70 41/48/70
f 20/59/71 33/34/71 37/9/71
f 5/61/72 34/35/72 33/34/72
f 40/27/73 36/21/73 7/62/73
f 9/64/74 31/26/74 40/27/74
f 22/65/75 41/24/75 31/26/75
f 39/20/76 32/23/76 10/56/76
f 36/21/77 39/20/77 17/66/77
f 38/11/78 35/13/78 8/57/78
f 18/60/79 37/9/79 38/11/79
f 42/6/80 34/8/80 5/61/80
