# Blender 4.2.0
# www.blender.org
mtllib Rock02a.mtl
o Rock02
v 0.099107 0.946566 -1.041043
v 0.220716 1.135342 0.697369
v -0.486316 1.048912 -0.893458
v -0.489729 1.096613 0.809726
v -0.382084 0.106611 0.566587
v 0.542241 1.124693 -0.041807
v 0.736322 0.021034 -0.107411
v -0.380012 0.079710 -1.059655
v 0.447920 0.070079 -1.059655
v 0.381830 0.098831 0.566587
v 0.352263 1.135020 0.399245
v -0.616369 1.060569 -0.635959
v 0.696570 0.000000 -0.669535
v -0.497127 0.000000 -0.669535
v 0.437589 1.087751 -0.499643
v -0.712318 1.087167 0.399245
v 0.668570 0.060300 0.364961
v -0.550651 0.000000 -0.145583
v -0.685218 1.038803 -0.041807
v -0.495282 0.092631 0.337652
v -0.069209 1.221775 -0.037617
v -0.004166 0.036432 -1.176720
v -0.032399 1.123647 0.866726
v -0.043023 0.068157 0.677405
v -0.210452 1.004859 -1.181960
v -0.020482 -0.036967 -0.112800
v -0.064074 1.187532 0.465240
v -0.049438 0.038223 0.431957
v -0.080148 -0.085900 -0.595617
v -0.070079 1.192405 -0.715026
v 0.313720 0.501287 -1.165500
v 0.345019 0.623922 0.731377
v -0.675479 0.593267 0.434239
v -0.486174 0.606474 0.794720
v -0.483082 0.564416 -1.082297
v 0.726135 0.574059 -0.065323
v -0.691416 0.513779 -0.086842
v -0.622427 0.526050 -0.717191
v 0.580836 0.602018 0.449635
v 0.644725 0.541374 -0.640341
v -0.115669 0.515181 -1.310942
v -0.037196 0.600036 0.889330
vn -0.1595 0.9848 0.0687
vn -0.0784 0.9836 0.1627
vn -0.2065 -0.0314 0.9779
vn -0.9937 0.0277 -0.1082
vn -0.9311 0.1271 -0.3420
vn 0.0434 -0.9894 0.1389
vn 0.1020 -0.9878 0.1178
vn 0.9229 0.2978 0.2442
vn 0.7272 0.3667 0.5802
vn 0.3067 0.3904 -0.8681
vn 0.7223 0.4857 -0.4923
vn 0.9109 0.3842 -0.1508
vn 0.1215 -0.9744 -0.1892
vn 0.1176 -0.9894 0.0857
vn -0.8848 -0.0207 0.4654
vn -0.9995 0.0093 0.0292
vn -0.1842 0.9300 -0.3181
vn -0.2401 0.9699 -0.0417
vn 0.1550 0.9812 -0.1146
vn 0.3559 0.8256 -0.4378
vn -0.1983 -0.9799 -0.0203
vn -0.1544 -0.9579 -0.2421
vn -0.5121 0.1247 -0.8498
vn -0.1477 -0.9801 0.1329
vn -0.0803 -0.9772 0.1965
vn 0.3695 0.1508 0.9169
vn 0.1340 0.9893 0.0581
vn 0.1570 0.9866 0.0445
vn 0.2612 -0.2723 0.9261
vn -0.3151 -0.3235 -0.8922
vn -0.9469 -0.2779 0.1618
vn -0.8205 -0.3781 0.4288
vn 0.9923 0.0990 -0.0739
vn 0.8470 0.1092 -0.5202
vn 0.2584 -0.1537 -0.9537
vn 0.5716 -0.0356 0.8197
vn 0.9899 0.0075 0.1414
vn -0.9131 -0.2469 -0.3246
vn -0.9660 -0.2390 -0.0987
vn -0.3267 -0.3467 0.8792
vn -0.2819 0.9517 -0.1217
vn -0.1590 0.9852 0.0636
vn -0.1261 0.0439 0.9910
vn -0.9932 0.0215 -0.1143
vn -0.8884 0.0788 -0.4523
vn 0.0754 -0.9928 0.0933
vn 0.0540 -0.9638 0.2610
vn 0.8464 0.3966 0.3553
vn 0.8878 0.2418 0.3915
vn 0.4416 0.3075 -0.8429
vn 0.7184 0.4159 -0.5576
vn 0.9187 0.3169 -0.2356
vn 0.0855 -0.9697 -0.2287
vn 0.0762 -0.9966 0.0319
vn -0.8783 -0.0317 0.4770
vn -0.9956 -0.0780 -0.0526
vn -0.2545 0.9517 -0.1716
vn -0.2847 0.9586 0.0021
vn 0.2190 0.9748 -0.0425
vn 0.3550 0.8257 -0.4384
vn -0.0759 -0.9910 0.1098
vn -0.1804 -0.9575 -0.2252
vn -0.6768 0.2634 -0.6874
vn -0.1516 -0.9807 0.1236
vn -0.1467 -0.9809 0.1276
vn 0.5548 0.0308 0.8314
vn 0.0565 0.9867 0.1525
vn 0.1351 0.9886 0.0659
vn 0.3767 -0.3464 0.8591
vn -0.5368 -0.1529 -0.8297
vn -0.9326 -0.3515 0.0821
vn -0.8162 -0.3718 0.4422
vn 0.9895 0.0290 -0.1417
vn 0.8346 0.1282 -0.5358
vn 0.3095 -0.1892 -0.9319
vn 0.7526 -0.1486 0.6415
vn 0.9578 0.1138 0.2641
vn -0.9059 -0.2098 -0.3678
vn -0.9617 -0.2509 -0.1101
vn -0.1912 -0.4402 0.8773
vt 0.462537 0.461722
vt 0.448851 0.296330
vt 0.364971 0.350447
vt 0.325422 0.250044
vt 0.286869 0.280967
vt 0.785214 0.267577
vt 0.714377 0.350585
vt 0.670181 0.327537
vt 0.547974 0.509968
vt 0.500553 0.663117
vt 0.432416 0.587651
vt 0.404475 0.736689
vt 0.348347 0.658300
vt 0.528368 0.467223
vt 0.510568 0.257094
vt 0.643316 0.354905
vt 0.591220 0.250045
vt 0.691630 0.300951
vt 0.477878 0.443552
vt 0.619587 0.377415
vt 0.546820 0.486228
vt 0.551576 0.326352
vt 0.655327 0.314098
vt 0.277292 0.694443
vt 0.287685 0.612767
vt 0.356741 0.652934
vt 0.444762 0.582995
vt 0.372916 0.533601
vt 0.250045 0.589279
vt 0.402722 0.597032
vt 0.311625 0.692242
vt 0.292862 0.469634
vt 0.763205 0.377928
vt 0.640267 0.412619
vt 0.694595 0.341209
vt 0.625622 0.587859
vt 0.749955 0.640159
vt 0.590730 0.608065
vt 0.710053 0.715559
vt 0.694720 0.502995
vt 0.459857 0.703527
vt 0.335100 0.570800
vt 0.618218 0.749955
vt 0.663341 0.606319
vt 0.539061 0.700541
vt 0.420609 0.749954
vt 0.358035 0.636985
vt 0.351166 0.777308
vt 0.278138 0.708865
vt 0.749954 0.398407
vt 0.745942 0.486642
vt 0.602163 0.266310
vt 0.684030 0.242605
vt 0.250044 0.341317
vt 0.287744 0.430841
vt 0.745660 0.272287
vt 0.708491 0.361887
vt 0.292218 0.579912
vt 0.205111 0.640422
vt 0.564815 0.349824
vt 0.470326 0.432077
vt 0.625985 0.304490
vt 0.615763 0.528903
vt 0.516607 0.632389
vt 0.425796 0.693100
vt 0.339708 0.749968
vt 0.687599 0.428478
vt 0.364279 0.512186
vt 0.707297 0.250033
vt 0.584144 0.357439
vt 0.863131 0.285121
vt 0.390033 0.334619
vt 0.214875 0.638918
vt 0.715719 0.475415
vt 0.423852 0.694058
vt 0.622401 0.212923
s 0
usemtl Rock01a
f 21/1/1 16/2/1 27/3/1
f 27/3/2 4/4/2 23/5/2
f 42/6/3 4/7/3 34/8/3
f 37/9/4 12/10/4 38/11/4
f 38/11/5 3/12/5 35/13/5
f 26/14/6 17/15/6 28/16/6
f 28/16/7 10/17/7 24/18/7
f 6/19/8 39/20/8 36/21/8
f 11/22/9 32/23/9 39/20/9
f 41/24/10 1/25/10 31/26/10
f 1/25/11 40/27/11 31/26/11
f 15/28/12 36/21/12 40/27/12
f 9/29/13 29/30/13 22/31/13
f 13/32/14 26/14/14 29/30/14
f 4/33/15 33/34/15 34/35/15
f 33/34/16 19/36/16 37/9/16
f 3/37/17 30/38/17 25/39/17
f 12/40/18 21/1/18 30/38/18
f 15/41/19 21/1/19 6/42/19
f 1/43/20 30/38/20 15/41/20
f 29/30/21 18/44/21 14/45/21
f 8/46/22 29/30/22 14/45/22
f 35/47/23 25/48/23 41/49/23
f 28/16/24 5/50/24 20/51/24
f 26/14/25 20/51/25 18/44/25
f 2/52/26 42/53/26 32/23/26
f 27/3/27 2/54/27 11/55/27
f 21/1/28 11/55/28 6/42/28
f 32/23/29 24/56/29 10/57/29
f 8/58/30 41/49/30 22/59/30
f 20/60/31 37/9/31 18/61/31
f 5/62/32 33/34/32 20/60/32
f 40/27/33 7/63/33 13/64/33
f 9/65/34 40/27/34 13/64/34
f 22/66/35 31/26/35 9/65/35
f 39/20/36 10/57/36 17/67/36
f 36/21/37 17/67/37 7/63/37
f 38/11/38 8/58/38 14/68/38
f 18/61/39 38/11/39 14/68/39
f 42/6/40 5/62/40 24/69/40
f 21/1/41 19/70/41 16/2/41
f 27/3/42 16/2/42 4/4/42
f 42/6/43 23/71/43 4/7/43
f 37/9/44 19/36/44 12/10/44
f 38/11/45 12/10/45 3/12/45
f 26/14/46 7/72/46 17/15/46
f 28/16/47 17/15/47 10/17/47
f 6/19/48 11/22/48 39/20/48
f 11/22/49 2/52/49 32/23/49
f 41/24/50 25/73/50 1/25/50
f 1/25/51 15/28/51 40/27/51
f 15/28/52 6/19/52 36/21/52
f 9/29/53 13/32/53 29/30/53
f 13/32/54 7/72/54 26/14/54
f 4/33/55 16/74/55 33/34/55
f 33/34/56 16/74/56 19/36/56
f 3/37/57 12/40/57 30/38/57
f 12/40/58 19/70/58 21/1/58
f 15/41/59 30/38/59 21/1/59
f 1/43/60 25/39/60 30/38/60
f 29/30/61 26/14/61 18/44/61
f 8/46/62 22/31/62 29/30/62
f 35/47/63 3/75/63 25/48/63
f 28/16/64 24/18/64 5/50/64
f 26/14/65 28/16/65 20/51/65
f 2/52/66 23/76/66 42/53/66
f 27/3/67 23/5/67 2/54/67
f 21/1/68 27/3/68 11/55/68
f 32/23/69 42/53/69 24/56/69
f 8/58/70 35/47/70 41/49/70
f 20/60/71 33/34/71 37/9/71
f 5/62/72 34/35/72 33/34/72
f 40/27/73 36/21/73 7/63/73
f 9/65/74 31/26/74 40/27/74
f 22/66/75 41/24/75 31/26/75
f 39/20/76 32/23/76 10/57/76
f 36/21/77 39/20/77 17/67/77
f 38/11/78 35/13/78 8/58/78
f 18/61/79 37/9/79 38/11/79
f 42/6/80 34/8/80 5/62/80
