# Blender 4.2.0
# www.blender.org
mtllib BarCounter01.mtl
o BarCounter01
v -0.750000 1.543750 0.472727
v -0.750000 0.000000 0.522727
v 0.750000 0.000000 0.522727
v -0.750000 0.298612 0.472727
v 0.750000 0.237833 0.522727
v -0.750000 0.237833 0.522727
v 0.750000 0.298612 0.472727
v -0.750000 1.900000 0.472727
v 0.750000 0.000000 -0.477273
v 0.750000 1.543750 0.472727
v 0.750000 1.900000 0.472727
v -0.750000 0.000000 -0.477273
v -0.750000 0.000000 0.472727
v 0.750000 0.000000 0.472727
v 0.750000 1.900000 0.622727
v -0.750000 1.900000 0.622727
v 0.750000 1.900000 -0.477273
v -0.750000 1.900000 -0.477273
v 0.540000 0.000000 -0.477273
v -0.540000 0.000000 -0.477273
v 0.540000 1.840000 -0.477273
v -0.540000 1.840000 -0.477273
v 0.540000 1.840000 0.122727
v -0.540000 1.840000 0.122727
v 0.540000 0.500000 -0.477273
v -0.540000 0.500000 -0.477273
v 0.540000 0.500000 0.122727
v -0.540000 0.500000 0.122727
v 0.540000 1.413330 -0.477273
v -0.540000 1.413330 -0.477273
v 0.540000 1.413330 0.122727
v -0.540000 1.413330 0.122727
v 0.540000 1.373330 -0.477273
v -0.540000 1.373330 -0.477273
v 0.540000 1.373330 0.122727
v -0.540000 1.373330 0.122727
v 0.540000 0.966667 -0.477273
v -0.540000 0.966667 -0.477273
v 0.540000 0.966667 0.122727
v -0.540000 0.966667 0.122727
v 0.540000 0.926667 -0.477273
v -0.540000 0.926667 -0.477273
v 0.540000 0.926667 0.122727
v -0.540000 0.926667 0.122727
vn -0.0000 -0.0000 1.0000
vn -0.0000 0.6353 0.7723
vn -1.0000 -0.0000 -0.0000
vn 1.0000 -0.0000 -0.0000
vn -0.0000 1.0000 -0.0000
vn -0.0000 -0.3881 0.9216
vn -0.0000 -0.0000 -1.0000
vn -0.0000 -1.0000 -0.0000
vt 1.000000 0.690000
vt 0.000000 0.440000
vt 1.000000 0.440000
vt 1.000000 0.430000
vt 0.000000 0.380000
vt 1.000000 0.380000
vt 0.000000 0.430000
vt 0.041667 0.430000
vt 0.041667 0.380000
vt 0.562500 0.430000
vt 0.354167 0.440000
vt 0.604167 0.440000
vt 0.875000 0.380000
vt 1.000000 0.310000
vt 0.000000 0.310000
vt 0.125000 0.380000
vt 0.000069 0.000069
vt 0.999931 0.000069
vt -0.062500 1.000000
vt 1.062500 0.755000
vt 1.062500 1.000000
vt 0.000000 0.760000
vt 0.000000 0.690000
vt 0.958333 0.370000
vt 0.999908 0.000092
vt 0.000092 0.000092
vt 0.041667 0.370000
vt 1.000000 0.085000
vt 0.000000 0.370000
vt 0.000000 0.085000
vt 1.000000 0.370000
vt 0.041667 0.475000
vt 0.958333 0.600000
vt 0.958333 0.475000
vt 0.958333 0.100000
vt 0.041667 0.000000
vt 0.958333 0.000000
vt 0.041667 0.600000
vt 0.916667 0.475000
vt 0.083333 0.465000
vt 0.083333 0.475000
vt 0.000000 0.000000
vt 0.916667 0.465000
vt 0.354167 0.430000
vt -0.062500 0.755000
vt 1.000000 0.760000
vt 0.041667 0.100000
s 0
usemtl Primary
f 10/1/1 4/2/1 7/3/1
f 5/4/1 2/5/1 3/6/1
f 7/3/2 6/7/2 5/4/2
f 6/8/3 13/5/3 2/9/3
f 5/10/4 14/11/4 7/12/4
f 15/13/4 10/14/4 11/6/4
f 8/5/3 1/15/3 16/16/3
f 17/6/4 14/17/4 9/18/4
f 18/19/5 15/20/5 17/21/5
f 10/1/6 16/22/6 1/23/6
f 13/17/3 18/6/3 12/18/3
f 22/24/7 12/25/7 18/6/7
f 9/26/7 21/27/7 17/5/7
f 17/5/7 22/24/7 18/6/7
f 27/28/3 21/29/3 25/30/3
f 27/30/7 24/31/7 23/29/7
f 21/32/8 24/33/8 22/34/8
f 26/35/7 19/36/7 20/37/7
f 28/33/5 25/32/5 26/34/5
f 24/29/4 26/28/4 22/31/4
f 32/38/5 29/34/5 30/32/5
f 33/34/8 36/38/8 34/32/8
f 29/39/7 34/40/7 30/41/7
f 31/42/4 33/42/4 29/42/4
f 32/42/1 35/42/1 31/42/1
f 30/42/3 36/42/3 32/42/3
f 40/33/5 37/32/5 38/34/5
f 41/34/8 44/38/8 42/32/8
f 37/41/7 42/43/7 38/39/7
f 10/1/1 1/23/1 4/2/1
f 5/4/1 6/7/1 2/5/1
f 7/3/2 4/2/2 6/7/2
f 6/8/3 4/2/3 13/5/3
f 5/10/4 3/44/4 14/11/4
f 17/6/4 11/5/4 14/17/4
f 18/19/5 16/45/5 15/20/5
f 10/1/6 15/46/6 16/22/6
f 13/17/3 8/5/3 18/6/3
f 22/24/7 20/37/7 12/25/7
f 9/26/7 19/36/7 21/27/7
f 17/5/7 21/27/7 22/24/7
f 27/28/3 23/31/3 21/29/3
f 27/30/7 28/28/7 24/31/7
f 21/32/8 23/38/8 24/33/8
f 26/35/7 25/47/7 19/36/7
f 28/33/5 27/38/5 25/32/5
f 24/29/4 28/30/4 26/28/4
f 32/38/5 31/33/5 29/34/5
f 33/34/8 35/33/8 36/38/8
f 29/39/7 33/43/7 34/40/7
f 31/42/4 35/42/4 33/42/4
f 32/42/1 36/42/1 35/42/1
f 30/42/3 34/42/3 36/42/3
f 40/33/5 39/38/5 37/32/5
f 41/34/8 43/33/8 44/38/8
f 37/41/7 41/40/7 42/43/7
l 10 14
l 13 1
