# Blender 4.2.0
# www.blender.org
mtllib BarDispenser01.mtl
o BarDispenser01
v -0.755680 1.543750 0.472727
v -0.755680 0.000000 0.522727
v 0.755239 0.000000 0.522727
v -0.755680 0.298612 0.472727
v 0.755239 0.237833 0.522727
v -0.755680 0.237833 0.522727
v 0.755239 0.298612 0.472727
v 0.755239 1.543750 0.472727
v 0.755239 1.900000 0.622727
v -0.755680 1.900000 0.622727
v -0.755680 1.543750 -0.477273
v -0.755680 1.900000 0.292727
v 0.755239 1.543750 -0.477273
v 0.755239 1.900000 0.472727
v 0.755239 1.900000 0.292727
v 0.755239 0.000000 0.472727
v -0.755680 0.000000 -0.477273
v 0.755239 1.543750 0.292727
v -0.755680 0.000000 0.472727
v -0.447742 1.500000 0.025000
v -0.447742 1.543750 -0.275000
v 0.452258 1.500000 0.025000
v 0.452258 1.500000 -0.275000
v 0.502258 1.543750 0.075000
v -0.447742 1.543750 0.025000
v 0.452258 1.543750 0.025000
v 0.452258 1.543750 -0.275000
v -0.755680 1.543750 0.392727
v 0.755239 1.543750 0.392727
v -0.755680 1.900000 0.392727
v 0.755239 1.900000 0.392727
v 0.502258 1.543750 -0.325000
v -0.497742 1.543750 -0.325000
v -0.497742 1.543750 0.075000
v -0.312790 2.023250 0.161771
v -0.312790 1.693750 0.161771
v -0.447742 1.500000 -0.275000
v 0.732739 1.870000 0.392727
v 0.732739 1.543750 0.392727
v 0.755239 0.000000 -0.477273
v -0.733180 1.543750 0.292727
v -0.733180 1.543750 0.392727
v 0.732739 1.870000 0.292727
v -0.755680 1.543750 0.292727
v -0.733180 1.870000 0.292727
v -0.733180 1.870000 0.392727
v 0.732739 1.543750 0.292727
v 0.502258 1.543750 0.323542
v -0.377742 2.023250 0.124271
v -0.377742 1.693750 0.124271
v -0.497742 1.543750 0.323542
v -0.497742 1.693750 0.075000
v 0.502258 1.693750 0.075000
v 0.502258 1.693750 0.323542
v -0.497742 1.693750 0.323542
v 0.382258 1.693750 0.124271
v 0.382258 2.023250 0.124271
v 0.447210 1.693750 0.161771
v 0.447210 2.023250 0.161771
v 0.447210 1.693750 0.236771
v 0.447210 2.023250 0.236771
v 0.382258 1.693750 0.274271
v 0.382258 2.023250 0.274271
v 0.317306 1.693750 0.236771
v 0.317306 2.023250 0.236771
v 0.317306 1.693750 0.161771
v 0.317306 2.023250 0.161771
v 0.382258 2.023250 0.161771
v 0.424477 1.998875 0.161771
v 0.424477 1.950125 0.161771
v 0.382258 1.925750 0.161771
v 0.340039 1.950125 0.161771
v 0.340039 1.998875 0.161771
v 0.407589 1.958625 -0.092210
v 0.382258 1.973250 -0.092210
v 0.407589 1.929375 -0.092210
v 0.382258 1.914750 -0.092210
v 0.356927 1.929375 -0.092210
v 0.356927 1.958625 -0.092210
v 0.391757 1.958625 -0.060818
v 0.382258 1.958625 -0.055333
v 0.391757 1.958625 -0.071786
v 0.382258 1.958625 -0.077271
v 0.372759 1.958625 -0.071786
v 0.372759 1.958625 -0.060818
v 0.401256 2.016078 -0.055333
v 0.382258 2.016078 -0.044365
v 0.401256 2.016078 -0.077271
v 0.382258 2.016078 -0.088239
v 0.363260 2.016078 -0.077271
v 0.363260 2.016078 -0.055333
v 0.401256 2.038578 -0.055333
v 0.382258 2.038578 -0.044365
v 0.401256 2.038578 -0.077271
v 0.382258 2.038578 -0.088239
v 0.363260 2.038578 -0.077271
v 0.363260 2.038578 -0.055333
v -0.312790 1.693750 0.236771
v -0.312790 2.023250 0.236771
v -0.377742 1.693750 0.274271
v -0.377742 2.023250 0.274271
v -0.442694 1.693750 0.236771
v -0.442694 2.023250 0.236771
v -0.442694 1.693750 0.161771
v -0.442694 2.023250 0.161771
v -0.377742 2.023250 0.161771
v -0.335523 1.998875 0.161771
v -0.335523 1.950125 0.161771
v -0.377742 1.925750 0.161771
v -0.419961 1.950125 0.161771
v -0.419961 1.998875 0.161771
v -0.352411 1.958625 -0.092210
v -0.377742 1.973250 -0.092210
v -0.352411 1.929375 -0.092210
v -0.377742 1.914750 -0.092210
v -0.403073 1.929375 -0.092210
v -0.403073 1.958625 -0.092210
v -0.368243 1.958625 -0.060818
v -0.377742 1.958625 -0.055333
v -0.368243 1.958625 -0.071786
v -0.377742 1.958625 -0.077271
v -0.387241 1.958625 -0.071786
v -0.387241 1.958625 -0.060818
v -0.358744 2.016078 -0.055333
v -0.377742 2.016078 -0.044365
v -0.358744 2.016078 -0.077271
v -0.377742 2.016078 -0.088239
v -0.396740 2.016078 -0.077271
v -0.396740 2.016078 -0.055333
v -0.358744 2.038578 -0.055333
v -0.377742 2.038578 -0.044365
v -0.358744 2.038578 -0.077271
v -0.377742 2.038578 -0.088239
v -0.396740 2.038578 -0.077271
v -0.396740 2.038578 -0.055333
v -0.062790 2.023250 0.161771
v -0.062790 1.693750 0.161771
v -0.127742 2.023250 0.124271
v -0.127742 1.693750 0.124271
v -0.062790 1.693750 0.236771
v -0.062790 2.023250 0.236771
v -0.127742 1.693750 0.274271
v -0.127742 2.023250 0.274271
v -0.192694 1.693750 0.236771
v -0.192694 2.023250 0.236771
v -0.192694 1.693750 0.161771
v -0.192694 2.023250 0.161771
v -0.127742 2.023250 0.161771
v -0.085523 1.998875 0.161771
v -0.085523 1.950125 0.161771
v -0.127742 1.925750 0.161771
v -0.169961 1.950125 0.161771
v -0.169961 1.998875 0.161771
v -0.102411 1.958625 -0.092210
v -0.127742 1.973250 -0.092210
v -0.102411 1.929375 -0.092210
v -0.127742 1.914750 -0.092210
v -0.153073 1.929375 -0.092210
v -0.153073 1.958625 -0.092210
v -0.118243 1.958625 -0.060818
v -0.127742 1.958625 -0.055333
v -0.118243 1.958625 -0.071786
v -0.127742 1.958625 -0.077271
v -0.137241 1.958625 -0.071786
v -0.137241 1.958625 -0.060818
v -0.108744 2.016078 -0.055333
v -0.127742 2.016078 -0.044365
v -0.108744 2.016078 -0.077271
v -0.127742 2.016078 -0.088239
v -0.146740 2.016078 -0.077271
v -0.146740 2.016078 -0.055333
v -0.108744 2.038578 -0.055333
v -0.127742 2.038578 -0.044365
v -0.108744 2.038578 -0.077271
v -0.127742 2.038578 -0.088239
v -0.146740 2.038578 -0.077271
v -0.146740 2.038578 -0.055333
v 0.187210 2.023250 0.161771
v 0.187210 1.693750 0.161771
v 0.122258 2.023250 0.124271
v 0.122258 1.693750 0.124271
v 0.187210 1.693750 0.236771
v 0.187210 2.023250 0.236771
v 0.122258 1.693750 0.274271
v 0.122258 2.023250 0.274271
v 0.057306 1.693750 0.236771
v 0.057306 2.023250 0.236771
v 0.057306 1.693750 0.161771
v 0.057306 2.023250 0.161771
v 0.122258 2.023250 0.161771
v 0.164477 1.998875 0.161771
v 0.164477 1.950125 0.161771
v 0.122258 1.925750 0.161771
v 0.080039 1.950125 0.161771
v 0.080039 1.998875 0.161771
v 0.147589 1.958625 -0.092210
v 0.122258 1.973250 -0.092210
v 0.147589 1.929375 -0.092210
v 0.122258 1.914750 -0.092210
v 0.096927 1.929375 -0.092210
v 0.096927 1.958625 -0.092210
v 0.131757 1.958625 -0.060818
v 0.122258 1.958625 -0.055333
v 0.131757 1.958625 -0.071786
v 0.122258 1.958625 -0.077271
v 0.112759 1.958625 -0.071786
v 0.112759 1.958625 -0.060818
v 0.141256 2.016078 -0.055333
v 0.122258 2.016078 -0.044365
v 0.141256 2.016078 -0.077271
v 0.122258 2.016078 -0.088239
v 0.103260 2.016078 -0.077271
v 0.103260 2.016078 -0.055333
v 0.141256 2.038578 -0.055333
v 0.122258 2.038578 -0.044365
v 0.141256 2.038578 -0.077271
v 0.122258 2.038578 -0.088239
v 0.103260 2.038578 -0.077271
v 0.103260 2.038578 -0.055333
vn -0.0000 -0.0000 1.0000
vn -0.0000 0.6353 0.7723
vn -1.0000 -0.0000 -0.0000
vn 1.0000 -0.0000 -0.0000
vn -0.0000 1.0000 -0.0000
vn -0.0000 -0.3881 0.9216
vn -0.0000 -0.0000 -1.0000
vn -0.0000 -1.0000 -0.0000
vn 0.5000 -0.0000 -0.8660
vn 0.5000 -0.0000 0.8660
vn -0.5000 -0.0000 0.8660
vn -0.5000 -0.0000 -0.8660
vn 0.4929 0.8537 -0.1681
vn -0.4929 0.8537 -0.1681
vn -0.4996 -0.8654 0.0375
vn 0.9978 -0.0000 -0.0663
vn -0.9978 -0.0000 -0.0663
vn 0.4996 -0.8654 0.0375
vn -0.9866 -0.1631 -0.0000
vn 0.4933 -0.1631 -0.8544
vn 0.4933 -0.1631 0.8544
vn -0.4933 -0.1631 0.8544
vn -0.4933 -0.1631 -0.8544
vn 0.9866 -0.1631 -0.0000
vt 1.000000 0.737288
vt 0.000000 0.525424
vt 1.000000 0.525424
vt 1.000000 0.516949
vt 0.000000 0.474576
vt 1.000000 0.474576
vt 0.000000 0.516949
vt 0.083333 0.535714
vt 0.000000 0.482143
vt 0.083333 0.482143
vt 1.125000 0.535714
vt 0.708333 0.544643
vt 1.208333 0.544643
vt 1.979167 0.723214
vt 2.145833 0.785714
vt 1.854167 0.785714
vt 0.000000 0.855932
vt 1.000000 0.792373
vt 1.000000 0.855932
vt 0.000000 0.796610
vt 0.000000 0.737288
vt 1.000000 0.152542
vt 0.000000 0.461864
vt 1.000000 0.461864
vt 0.000000 0.800847
vt 1.000000 0.508475
vt 1.000000 0.800847
vt 1.000000 0.050847
vt -0.000000 0.000000
vt 1.000000 0.000000
vt 0.979167 0.139831
vt 1.000000 0.067797
vt 0.979167 0.076271
vt 0.500000 0.072034
vt 1.000000 0.072034
vt 0.979167 0.080508
vt 0.979167 0.148305
vt 0.500000 0.152542
vt 0.520833 0.148305
vt 0.520833 0.110169
vt 0.020833 0.114407
vt 0.020833 0.110169
vt 0.020833 0.105932
vt 0.687500 0.084746
vt 0.854167 0.080508
vt 0.854167 0.084746
vt 0.687500 0.080508
vt 0.000000 0.437500
vt 2.000000 0.375000
vt 2.000000 0.437500
vt 0.166667 0.923729
vt -0.000000 1.000000
vt 0.833333 0.923729
vt 1.000000 1.000000
vt 0.833333 0.830508
vt 0.166667 0.830508
vt 1.000000 0.796610
vt 1.791667 0.781250
vt 1.833333 0.723214
vt 1.791667 0.723214
vt 1.833333 0.785714
vt 1.708333 0.779661
vt 1.791667 0.724576
vt 1.791667 0.779661
vt 0.000000 0.466102
vt 1.000000 0.466102
vt 1.708333 0.724576
vt 0.000000 0.691964
vt 2.000000 0.683036
vt 2.000000 0.691964
vt 0.000000 0.678571
vt 2.000000 0.678571
vt 0.458333 0.114407
vt 0.083333 0.135593
vt 0.083333 0.114407
vt 0.291667 0.101695
vt 0.187500 0.114407
vt 0.187500 0.101695
vt 0.708333 0.080508
vt 0.083333 0.097458
vt 0.083333 0.080508
vt 0.291667 0.114407
vt 0.375000 0.122881
vt 0.312500 0.093220
vt 0.375000 0.093220
vt 0.312500 0.122881
vt 0.270833 0.093220
vt 0.270833 0.122881
vt 0.250000 0.093220
vt 0.250000 0.122881
vt 0.229167 0.093220
vt 0.312500 0.080508
vt 0.270833 0.097458
vt 0.270833 0.084746
vt 0.229167 0.122881
vt 0.187500 0.093220
vt 0.187500 0.122881
vt 0.125000 0.093220
vt 0.312500 0.088983
vt 0.270833 0.101695
vt 0.354167 0.093220
vt 0.229167 0.076271
vt 0.208333 0.097458
vt 0.208333 0.076271
vt 0.229167 0.097458
vt 0.458333 0.088983
vt 0.291667 0.097458
vt 0.291667 0.088983
vt 0.354167 0.088983
vt 0.354167 0.097458
vt 0.166667 0.093220
vt 0.291667 0.093220
vt 0.291667 0.105932
vt 0.458333 0.097458
vt 0.187500 0.097458
vt 0.166667 0.088983
vt 0.229167 0.088983
vt 0.187500 0.084746
vt 0.250000 0.101695
vt 0.333333 0.101695
vt 0.312500 0.105932
vt 0.354167 0.101695
vt 0.333333 0.110169
vt 0.250000 0.110169
vt 0.312500 0.101695
vt 0.354167 0.084746
vt 0.000000 0.544643
vt 0.708333 0.535714
vt 2.145833 0.723214
vt 0.000000 0.792373
vt 0.000000 0.152542
vt 0.000000 0.508475
vt -0.000000 0.050847
vt 0.520833 0.076271
vt 0.520833 0.114407
vt 0.520833 0.105932
vt 0.000000 0.375000
vt 0.000000 0.683036
vt 0.458333 0.135593
vt 0.708333 0.097458
vt 0.125000 0.122881
vt 0.458333 0.105932
s 0
usemtl Primary
f 8/1/1 4/2/1 7/3/1
f 5/4/1 2/5/1 3/6/1
f 7/3/2 6/7/2 5/4/2
f 6/8/3 19/9/3 2/10/3
f 5/11/4 16/12/4 7/13/4
f 8/14/4 15/15/4 9/16/4
f 12/17/5 9/18/5 15/19/5
f 8/1/6 10/20/6 1/21/6
f 12/15/3 1/14/3 10/16/3
f 17/22/3 1/23/3 11/24/3
f 13/25/7 17/26/7 11/27/7
f 20/28/5 23/29/5 37/30/5
f 25/31/5 33/32/5 34/22/5
f 21/33/5 32/34/5 33/35/5
f 26/31/5 32/32/5 27/36/5
f 25/37/5 24/38/5 26/39/5
f 21/40/1 23/41/1 27/42/1
f 22/43/7 25/40/7 26/42/7
f 27/44/3 22/45/3 26/46/3
f 25/47/4 37/46/4 21/45/4
f 31/48/7 28/49/7 30/50/7
f 13/20/5 24/51/5 29/52/5
f 29/52/5 34/53/5 28/54/5
f 13/20/5 33/55/5 32/56/5
f 34/53/5 11/57/5 28/54/5
f 43/58/7 18/59/7 47/60/7
f 45/58/7 44/59/7 12/61/7
f 46/62/4 41/63/4 45/64/4
f 8/65/4 40/22/4 13/66/4
f 43/64/3 39/67/3 38/62/3
f 15/68/7 45/69/7 12/70/7
f 43/71/8 46/72/8 45/72/8
f 52/73/5 54/74/5 53/75/5
f 51/76/3 52/77/3 34/78/3
f 34/79/7 53/80/7 24/81/7
f 24/78/4 54/82/4 48/76/4
f 57/83/9 58/84/9 56/85/9
f 59/86/4 60/87/4 58/84/4
f 61/88/10 62/89/10 60/87/10
f 63/90/11 64/91/11 62/89/11
f 57/92/5 61/93/5 59/94/5
f 65/95/3 66/96/3 64/91/3
f 67/97/12 56/98/12 66/96/12
f 76/99/7 78/100/7 74/101/7
f 69/102/13 75/103/13 68/104/13
f 75/105/14 73/104/14 68/102/14
f 78/106/15 71/107/15 72/108/15
f 70/109/16 74/105/16 69/110/16
f 79/111/17 72/108/17 73/112/17
f 71/113/18 76/114/18 70/107/18
f 81/115/8 84/116/8 82/117/8
f 97/111/3 90/116/3 91/111/3
f 91/111/19 84/116/19 85/111/19
f 89/118/20 82/117/20 83/118/20
f 86/105/21 81/115/21 80/105/21
f 87/115/22 85/111/22 81/115/22
f 90/116/23 83/118/23 84/116/23
f 88/117/24 80/105/24 82/117/24
f 97/119/5 95/120/5 96/107/5
f 95/118/9 88/117/9 89/118/9
f 92/105/10 87/115/10 86/105/10
f 93/115/11 91/111/11 87/115/11
f 96/116/12 89/118/12 90/116/12
f 94/117/4 86/105/4 88/117/4
f 74/101/7 79/121/7 75/122/7
f 94/123/5 93/124/5 92/82/5
f 63/125/5 67/126/5 65/110/5
f 49/83/9 36/84/9 50/85/9
f 35/86/4 98/87/4 36/84/4
f 99/88/10 100/89/10 98/87/10
f 101/90/11 102/91/11 100/89/11
f 49/92/5 99/93/5 35/94/5
f 103/95/3 104/96/3 102/91/3
f 105/97/12 50/98/12 104/96/12
f 114/99/7 116/100/7 112/101/7
f 107/102/13 113/103/13 106/104/13
f 113/105/14 111/104/14 106/102/14
f 116/106/15 109/107/15 110/108/15
f 108/109/16 112/105/16 107/110/16
f 117/111/17 110/108/17 111/112/17
f 109/113/18 114/114/18 108/107/18
f 135/111/3 128/116/3 129/111/3
f 129/111/19 122/116/19 123/111/19
f 127/118/20 120/117/20 121/118/20
f 124/105/21 119/115/21 118/105/21
f 125/115/22 123/111/22 119/115/22
f 128/116/23 121/118/23 122/116/23
f 126/117/24 118/105/24 120/117/24
f 135/119/5 133/120/5 134/107/5
f 133/118/9 126/117/9 127/118/9
f 130/105/10 125/115/10 124/105/10
f 131/115/11 129/111/11 125/115/11
f 134/116/12 127/118/12 128/116/12
f 132/117/4 124/105/4 126/117/4
f 112/101/7 117/121/7 113/122/7
f 132/123/5 131/124/5 130/82/5
f 101/125/5 105/126/5 103/110/5
f 138/83/9 137/84/9 139/85/9
f 136/86/4 140/87/4 137/84/4
f 141/88/10 142/89/10 140/87/10
f 143/90/11 144/91/11 142/89/11
f 138/92/5 141/93/5 136/94/5
f 145/95/3 146/96/3 144/91/3
f 147/97/12 139/98/12 146/96/12
f 156/99/7 158/100/7 154/101/7
f 149/102/13 155/103/13 148/104/13
f 155/105/14 153/104/14 148/102/14
f 158/106/15 151/107/15 152/108/15
f 150/109/16 154/105/16 149/110/16
f 159/111/17 152/108/17 153/112/17
f 151/113/18 156/114/18 150/107/18
f 177/111/3 170/116/3 171/111/3
f 171/111/19 164/116/19 165/111/19
f 169/118/20 162/117/20 163/118/20
f 166/105/21 161/115/21 160/105/21
f 161/115/22 171/111/22 165/111/22
f 170/116/23 163/118/23 164/116/23
f 168/117/24 160/105/24 162/117/24
f 177/119/5 175/120/5 176/107/5
f 175/118/9 168/117/9 169/118/9
f 172/105/10 167/115/10 166/105/10
f 173/115/11 171/111/11 167/115/11
f 176/116/12 169/118/12 170/116/12
f 174/117/4 166/105/4 168/117/4
f 154/101/7 159/121/7 155/122/7
f 174/123/5 173/124/5 172/82/5
f 143/125/5 147/126/5 145/110/5
f 180/83/9 179/84/9 181/85/9
f 178/86/4 182/87/4 179/84/4
f 183/88/10 184/89/10 182/87/10
f 185/90/11 186/91/11 184/89/11
f 180/92/5 183/93/5 178/94/5
f 187/95/3 188/96/3 186/91/3
f 189/97/12 181/98/12 188/96/12
f 198/99/7 200/100/7 196/101/7
f 191/102/13 197/103/13 190/104/13
f 197/105/14 195/104/14 190/102/14
f 200/106/15 193/107/15 194/108/15
f 192/109/16 196/105/16 191/110/16
f 201/111/17 194/108/17 195/112/17
f 193/113/18 198/114/18 192/107/18
f 219/111/3 212/116/3 213/111/3
f 213/111/19 206/116/19 207/111/19
f 211/118/20 204/117/20 205/118/20
f 208/105/21 203/115/21 202/105/21
f 209/115/22 207/111/22 203/115/22
f 212/116/23 205/118/23 206/116/23
f 210/117/24 202/105/24 204/117/24
f 219/119/5 217/120/5 218/107/5
f 217/118/9 210/117/9 211/118/9
f 214/105/10 209/115/10 208/105/10
f 215/115/11 213/111/11 209/115/11
f 218/116/12 211/118/12 212/116/12
f 216/117/4 208/105/4 210/117/4
f 196/101/7 201/121/7 197/122/7
f 216/123/5 215/124/5 214/82/5
f 185/125/5 189/126/5 187/110/5
f 8/1/1 1/21/1 4/2/1
f 5/4/1 6/7/1 2/5/1
f 7/3/2 4/2/2 6/7/2
f 6/8/3 4/127/3 19/9/3
f 5/11/4 3/128/4 16/12/4
f 8/14/4 18/129/4 15/15/4
f 12/17/5 10/130/5 9/18/5
f 8/1/6 9/57/6 10/20/6
f 12/15/3 44/129/3 1/14/3
f 17/22/3 19/131/3 1/23/3
f 13/25/7 40/132/7 17/26/7
f 20/28/5 22/133/5 23/29/5
f 25/31/5 21/36/5 33/32/5
f 21/33/5 27/134/5 32/34/5
f 26/31/5 24/22/5 32/32/5
f 25/37/5 34/22/5 24/38/5
f 21/40/1 37/135/1 23/41/1
f 22/43/7 20/136/7 25/40/7
f 27/44/3 23/47/3 22/45/3
f 25/47/4 20/44/4 37/46/4
f 31/48/7 29/137/7 28/49/7
f 13/20/5 32/56/5 24/51/5
f 29/52/5 24/51/5 34/53/5
f 13/20/5 11/57/5 33/55/5
f 34/53/5 33/55/5 11/57/5
f 43/58/7 15/61/7 18/59/7
f 45/58/7 41/60/7 44/59/7
f 46/62/4 42/67/4 41/63/4
f 8/65/4 16/131/4 40/22/4
f 43/64/3 47/63/3 39/67/3
f 15/68/7 43/138/7 45/69/7
f 43/71/8 38/71/8 46/72/8
f 52/73/5 55/139/5 54/74/5
f 51/76/3 55/82/3 52/77/3
f 34/79/7 52/140/7 53/80/7
f 24/78/4 53/77/4 54/82/4
f 57/83/9 59/86/9 58/84/9
f 59/86/4 61/88/4 60/87/4
f 61/88/10 63/90/10 62/89/10
f 63/90/11 65/95/11 64/91/11
f 57/92/5 63/125/5 61/93/5
f 65/95/3 67/97/3 66/96/3
f 67/97/12 57/141/12 56/98/12
f 76/99/7 77/87/7 78/100/7
f 69/102/13 74/105/13 75/103/13
f 75/105/14 79/103/14 73/104/14
f 78/106/15 77/114/15 71/107/15
f 70/109/16 76/117/16 74/105/16
f 79/111/17 78/116/17 72/108/17
f 71/113/18 77/142/18 76/114/18
f 82/117/8 80/105/8 81/115/8
f 81/115/8 85/111/8 84/116/8
f 84/116/8 83/118/8 82/117/8
f 97/111/3 96/116/3 90/116/3
f 91/111/19 90/116/19 84/116/19
f 89/118/20 88/117/20 82/117/20
f 86/105/21 87/115/21 81/115/21
f 87/115/22 91/111/22 85/111/22
f 90/116/23 89/118/23 83/118/23
f 88/117/24 86/105/24 80/105/24
f 97/119/5 93/124/5 95/120/5
f 95/118/9 94/117/9 88/117/9
f 92/105/10 93/115/10 87/115/10
f 93/115/11 97/111/11 91/111/11
f 96/116/12 95/118/12 89/118/12
f 94/117/4 92/105/4 86/105/4
f 74/101/7 78/100/7 79/121/7
f 94/123/5 95/120/5 93/124/5
f 63/125/5 57/92/5 67/126/5
f 49/83/9 35/86/9 36/84/9
f 35/86/4 99/88/4 98/87/4
f 99/88/10 101/90/10 100/89/10
f 101/90/11 103/95/11 102/91/11
f 49/92/5 101/125/5 99/93/5
f 103/95/3 105/97/3 104/96/3
f 105/97/12 49/141/12 50/98/12
f 114/99/7 115/87/7 116/100/7
f 107/102/13 112/105/13 113/103/13
f 113/105/14 117/103/14 111/104/14
f 116/106/15 115/114/15 109/107/15
f 108/109/16 114/117/16 112/105/16
f 117/111/17 116/116/17 110/108/17
f 109/113/18 115/142/18 114/114/18
f 135/111/3 134/116/3 128/116/3
f 129/111/19 128/116/19 122/116/19
f 127/118/20 126/117/20 120/117/20
f 124/105/21 125/115/21 119/115/21
f 125/115/22 129/111/22 123/111/22
f 128/116/23 127/118/23 121/118/23
f 126/117/24 124/105/24 118/105/24
f 135/119/5 131/124/5 133/120/5
f 133/118/9 132/117/9 126/117/9
f 130/105/10 131/115/10 125/115/10
f 131/115/11 135/111/11 129/111/11
f 134/116/12 133/118/12 127/118/12
f 132/117/4 130/105/4 124/105/4
f 112/101/7 116/100/7 117/121/7
f 132/123/5 133/120/5 131/124/5
f 101/125/5 49/92/5 105/126/5
f 138/83/9 136/86/9 137/84/9
f 136/86/4 141/88/4 140/87/4
f 141/88/10 143/90/10 142/89/10
f 143/90/11 145/95/11 144/91/11
f 138/92/5 143/125/5 141/93/5
f 145/95/3 147/97/3 146/96/3
f 147/97/12 138/141/12 139/98/12
f 156/99/7 157/87/7 158/100/7
f 149/102/13 154/105/13 155/103/13
f 155/105/14 159/103/14 153/104/14
f 158/106/15 157/114/15 151/107/15
f 150/109/16 156/117/16 154/105/16
f 159/111/17 158/116/17 152/108/17
f 151/113/18 157/142/18 156/114/18
f 177/111/3 176/116/3 170/116/3
f 171/111/19 170/116/19 164/116/19
f 169/118/20 168/117/20 162/117/20
f 166/105/21 167/115/21 161/115/21
f 161/115/22 167/115/22 171/111/22
f 170/116/23 169/118/23 163/118/23
f 168/117/24 166/105/24 160/105/24
f 177/119/5 173/124/5 175/120/5
f 175/118/9 174/117/9 168/117/9
f 172/105/10 173/115/10 167/115/10
f 173/115/11 177/111/11 171/111/11
f 176/116/12 175/118/12 169/118/12
f 174/117/4 172/105/4 166/105/4
f 154/101/7 158/100/7 159/121/7
f 174/123/5 175/120/5 173/124/5
f 143/125/5 138/92/5 147/126/5
f 180/83/9 178/86/9 179/84/9
f 178/86/4 183/88/4 182/87/4
f 183/88/10 185/90/10 184/89/10
f 185/90/11 187/95/11 186/91/11
f 180/92/5 185/125/5 183/93/5
f 187/95/3 189/97/3 188/96/3
f 189/97/12 180/141/12 181/98/12
f 198/99/7 199/87/7 200/100/7
f 191/102/13 196/105/13 197/103/13
f 197/105/14 201/103/14 195/104/14
f 200/106/15 199/114/15 193/107/15
f 192/109/16 198/117/16 196/105/16
f 201/111/17 200/116/17 194/108/17
f 193/113/18 199/142/18 198/114/18
f 219/111/3 218/116/3 212/116/3
f 213/111/19 212/116/19 206/116/19
f 211/118/20 210/117/20 204/117/20
f 208/105/21 209/115/21 203/115/21
f 209/115/22 213/111/22 207/111/22
f 212/116/23 211/118/23 205/118/23
f 210/117/24 208/105/24 202/105/24
f 219/119/5 215/124/5 217/120/5
f 217/118/9 216/117/9 210/117/9
f 214/105/10 215/115/10 209/115/10
f 215/115/11 219/111/11 213/111/11
f 218/116/12 217/118/12 211/118/12
f 216/117/4 214/105/4 208/105/4
f 196/101/7 200/100/7 201/121/7
f 216/123/5 217/120/5 215/124/5
f 185/125/5 180/92/5 189/126/5
l 9 14
