# Blender 4.2.0
# www.blender.org
mtllib BarStool01.mtl
o BarStool01
v 0.000000 1.078750 -0.300000
v 0.284890 1.078750 -0.150000
v 0.284890 1.078750 0.150000
v 0.284890 1.228750 0.150000
v 0.000000 1.078750 0.300000
v -0.284890 1.078750 0.150000
v -0.284890 1.078750 -0.150000
v -0.284890 1.228750 -0.150000
v -0.334890 0.000000 0.024986
v -0.284890 1.078750 0.024986
v -0.334890 0.000000 -0.025014
v -0.284890 1.078750 -0.025014
v -0.284890 0.000000 0.024986
v -0.234890 1.078750 0.024986
v -0.284890 0.000000 -0.025014
v -0.234890 1.078750 -0.025014
v 0.234890 1.078750 0.025014
v 0.284890 0.000000 0.025014
v 0.234890 1.078750 -0.024986
v 0.284890 0.000000 -0.024986
v 0.284890 1.078750 0.025014
v 0.334890 0.000000 0.025014
v 0.284890 1.078750 -0.024986
v 0.334890 0.000000 -0.024986
v 0.024986 0.000000 0.334890
v 0.024986 1.078750 0.284890
v -0.025014 0.000000 0.334890
v -0.025014 1.078750 0.284890
v 0.024986 0.000000 0.284890
v 0.024986 1.078750 0.234890
v -0.025014 0.000000 0.284890
v -0.025014 1.078750 0.234890
v -0.025014 0.426097 0.292682
v -0.025014 0.375528 0.292682
v 0.023237 0.426097 0.293084
v 0.023237 0.375528 0.295237
v 0.025014 1.078750 -0.234890
v 0.025014 0.000000 -0.284890
v -0.024986 1.078750 -0.234890
v -0.024986 0.000000 -0.284890
v 0.025014 1.078750 -0.284890
v 0.025014 0.000000 -0.334890
v -0.024986 1.078750 -0.284890
v -0.024986 0.000000 -0.334890
v 0.025014 0.375528 -0.292682
v 0.025014 0.426097 -0.292682
v 0.291502 0.376151 0.025014
v 0.291502 0.425542 0.025014
v 0.291502 0.425542 -0.024986
v 0.291502 0.376151 -0.024986
v -0.291502 0.376150 0.024986
v -0.291502 0.425542 -0.025014
v -0.023237 0.375528 -0.295237
v -0.291502 0.425542 0.024986
v -0.291502 0.376150 -0.025014
v -0.023237 0.426097 -0.293084
v 0.000000 1.228750 -0.300000
v 0.284890 1.228750 -0.150000
v 0.000000 1.228750 0.300000
v -0.284890 1.228750 0.150000
v -0.025014 0.426097 0.292682
v -0.025014 0.375528 0.292682
v 0.023237 0.426097 0.293084
v 0.023237 0.375528 0.295237
v 0.025014 0.375528 -0.292682
v 0.025014 0.426097 -0.292682
v 0.291502 0.376151 0.025014
v 0.291502 0.425542 0.025014
v 0.291502 0.425542 -0.024986
v 0.291502 0.376151 -0.024986
v -0.291502 0.376150 0.024986
v -0.291502 0.425542 -0.025014
v -0.023237 0.375528 -0.295237
v -0.291502 0.425542 0.024986
v -0.291502 0.376150 -0.025014
v -0.023237 0.426097 -0.293084
vn 0.4659 -0.0000 -0.8848
vn 1.0000 -0.0000 -0.0000
vn 0.4659 -0.0000 0.8848
vn -0.4659 -0.0000 0.8848
vn -0.0000 -1.0000 -0.0000
vn -1.0000 -0.0000 -0.0000
vn -0.4659 -0.0000 -0.8848
vn -0.9989 0.0463 -0.0000
vn -0.0000 -0.0000 -1.0000
vn 0.9989 -0.0463 -0.0000
vn -0.0000 -0.0000 1.0000
vn -0.9989 -0.0463 -0.0000
vn 0.9989 0.0463 -0.0000
vn -0.0000 0.0463 0.9989
vn -0.0000 -0.0463 -0.9989
vn -0.7087 -0.0000 0.7055
vn -0.0000 -0.0463 0.9989
vn -0.0000 0.0463 -0.9989
vn -0.7093 0.0300 -0.7042
vn 0.7093 0.0300 0.7042
vn 0.7087 -0.0000 -0.7055
vn -0.0000 1.0000 -0.0000
vn 0.7093 -0.0300 0.7042
vn -0.7093 -0.0300 -0.7042
vn -0.7069 -0.0000 -0.7074
vn 0.7069 -0.0000 0.7074
vt 1.500000 0.050847
vt 1.166667 0.000000
vt 1.500000 0.000000
vt 1.166667 0.050847
vt 0.833333 0.000000
vt 0.833333 0.050847
vt 0.500000 0.000000
vt 0.500000 0.050847
vt 0.166667 0.000000
vt 0.729167 0.864407
vt 0.354167 0.851695
vt 0.541667 0.834746
vt 0.166667 0.050847
vt -0.166667 0.000000
vt -0.166667 0.050847
vt -0.500000 0.000000
vt 0.729167 0.902542
vt 0.354167 0.902542
vt 0.145833 0.461864
vt 0.083333 0.203390
vt 0.145833 0.203390
vt 0.083333 0.461864
vt 0.000000 0.207627
vt 0.770833 0.466102
vt 0.708333 0.203390
vt 0.770833 0.203390
vt 0.229167 0.207627
vt 0.375000 0.500000
vt 0.125000 0.750000
vt 0.125000 0.500000
vt 0.687500 0.203390
vt 0.604167 0.466102
vt 0.604167 0.203390
vt 0.833333 0.466102
vt 0.833333 0.203390
vt 0.541667 0.466102
vt 0.458333 0.203390
vt 0.541667 0.203390
vt 0.375000 0.750000
vt 0.375000 0.461864
vt 0.312500 0.203390
vt 0.375000 0.203390
vt 0.312500 0.461864
vt 1.000000 0.466102
vt 0.937500 0.203390
vt 1.000000 0.203390
vt 0.458333 0.207627
vt 0.270833 0.283898
vt 0.770833 0.292373
vt 0.270833 0.292373
vt 0.791667 0.203390
vt 0.729167 0.466102
vt 0.729167 0.203390
vt 0.937500 0.466102
vt 0.645833 0.466102
vt 0.645833 0.203390
vt 0.770833 0.283898
vt 0.666667 0.000000
vt 0.166667 0.042373
vt 0.854167 0.042373
vt 0.854167 0.046610
vt 0.312500 0.000000
vt -0.500000 0.050847
vt 0.541667 0.923729
vt 0.000000 0.466102
vt 0.708333 0.466102
vt 0.229167 0.466102
vt 0.687500 0.466102
vt 0.458333 0.466102
vt 0.791667 0.466102
vt 0.166667 0.046610
s 0
usemtl Primary
f 57/1/1 2/2/1 1/3/1
f 58/4/2 3/5/2 2/2/2
f 4/6/3 5/7/3 3/5/3
f 59/8/4 6/9/4 5/7/4
f 1/10/5 6/11/5 7/12/5
f 60/13/6 7/14/6 6/9/6
f 8/15/7 1/16/7 7/14/7
f 2/17/5 5/18/5 6/11/5
f 10/19/8 11/20/8 9/21/8
f 12/22/9 15/23/9 11/20/9
f 16/24/10 13/25/10 15/26/10
f 13/27/11 10/19/11 9/21/11
f 15/28/5 9/29/5 11/30/5
f 20/31/9 23/32/9 24/33/9
f 17/34/12 20/26/12 18/35/12
f 21/36/11 18/37/11 22/38/11
f 23/32/13 22/38/13 24/33/13
f 22/30/5 20/39/5 24/29/5
f 26/40/14 27/41/14 25/42/14
f 28/43/6 31/27/6 27/41/6
f 32/44/15 29/45/15 31/46/15
f 29/47/2 26/40/2 25/42/2
f 31/28/5 25/29/5 27/30/5
f 33/48/16 51/49/16 34/50/16
f 40/51/6 43/52/6 44/53/6
f 37/54/17 40/35/17 38/45/17
f 41/55/2 38/33/2 42/56/2
f 43/52/18 42/56/18 44/53/18
f 42/30/5 40/39/5 44/29/5
f 55/49/19 56/48/19 53/50/19
f 47/57/20 35/50/20 36/48/20
f 46/50/21 50/57/21 45/48/21
f 57/58/22 60/59/22 58/60/22
f 58/61/22 59/62/22 4/58/22
f 71/49/21 61/48/21 62/50/21
f 76/48/23 75/49/23 73/50/23
f 63/50/24 67/57/24 64/48/24
f 70/57/16 66/50/16 65/48/16
f 57/1/1 58/4/1 2/2/1
f 58/4/2 4/6/2 3/5/2
f 4/6/3 59/8/3 5/7/3
f 59/8/4 60/13/4 6/9/4
f 1/10/5 2/17/5 6/11/5
f 60/13/6 8/15/6 7/14/6
f 8/15/7 57/63/7 1/16/7
f 2/17/5 3/64/5 5/18/5
f 10/19/8 12/22/8 11/20/8
f 12/22/9 16/65/9 15/23/9
f 16/24/10 14/66/10 13/25/10
f 13/27/11 14/67/11 10/19/11
f 15/28/5 13/39/5 9/29/5
f 20/31/9 19/68/9 23/32/9
f 17/34/12 19/24/12 20/26/12
f 21/36/11 17/69/11 18/37/11
f 23/32/13 21/36/13 22/38/13
f 22/30/5 18/28/5 20/39/5
f 26/40/14 28/43/14 27/41/14
f 28/43/6 32/67/6 31/27/6
f 32/44/15 30/54/15 29/45/15
f 29/47/2 30/69/2 26/40/2
f 31/28/5 29/39/5 25/29/5
f 33/48/16 54/57/16 51/49/16
f 40/51/6 39/70/6 43/52/6
f 37/54/17 39/34/17 40/35/17
f 41/55/2 37/32/2 38/33/2
f 43/52/18 41/55/18 42/56/18
f 42/30/5 38/28/5 40/39/5
f 55/49/25 52/57/25 56/48/25
f 47/57/26 48/49/26 35/50/26
f 46/50/21 49/49/21 50/57/21
f 57/58/22 8/62/22 60/59/22
f 58/61/22 60/71/22 59/62/22
f 71/49/21 74/57/21 61/48/21
f 76/48/26 72/57/26 75/49/26
f 63/50/25 68/49/25 67/57/25
f 70/57/16 69/49/16 66/50/16
