# Blender 4.2.0
# www.blender.org
mtllib Cabinet01.mtl
o Cabinet01
v 0.262500 1.000000 -0.200000
v 0.262500 0.000000 -0.200000
v 0.262500 1.000000 0.200000
v 0.262500 0.000000 0.200000
v -0.262500 1.000000 -0.200000
v -0.262500 0.000000 -0.200000
v -0.262500 1.000000 0.200000
v -0.262500 0.000000 0.200000
v -0.237500 0.171667 0.200000
v -0.237500 0.575000 0.200000
v 0.237500 0.575000 0.200000
v 0.237500 0.171667 0.200000
v -0.262500 0.171667 0.200000
v -0.262500 0.575000 0.200000
v 0.262500 0.575000 0.200000
v 0.262500 0.171667 0.200000
v -0.237500 0.171667 -0.180000
v -0.237500 0.575000 -0.180000
v 0.237500 0.575000 -0.180000
v 0.237500 0.171667 -0.180000
v -0.060000 0.761648 0.240000
v -0.060000 0.781648 0.240000
v -0.040000 0.761648 0.220000
v -0.040000 0.781648 0.220000
v 0.060000 0.761648 0.240000
v 0.060000 0.781648 0.240000
v 0.040000 0.761648 0.220000
v 0.040000 0.781648 0.220000
v 0.060000 0.761648 0.200000
v 0.060000 0.781648 0.200000
v 0.040000 0.761648 0.200000
v 0.040000 0.781648 0.200000
v -0.040000 0.761648 0.200000
v -0.060000 0.761648 0.200000
v -0.060000 0.781648 0.200000
v -0.040000 0.781648 0.200000
vn -0.0000 1.0000 -0.0000
vn -0.0000 -0.0000 1.0000
vn -0.0000 -1.0000 -0.0000
vn 1.0000 -0.0000 -0.0000
vn -0.0000 -0.0000 -1.0000
vn -1.0000 -0.0000 -0.0000
vt 1.000000 0.421875
vt 0.562500 0.859375
vt 0.562500 0.421875
vt 0.531250 1.000000
vt 0.000000 0.562500
vt 0.531250 0.562500
vt 1.000000 0.000000
vt 1.000000 1.000000
vt 0.531250 0.000000
vt 0.546875 0.187500
vt 0.000000 0.000000
vt 0.546875 0.000000
vt 0.958333 0.437500
vt 0.541667 0.041667
vt 0.958333 0.041667
vt 0.531250 0.578125
vt 0.500000 0.187500
vt 0.531250 0.187500
vt 0.000000 0.187500
vt 0.031250 0.578125
vt 0.000000 0.578125
vt 1.000000 0.583333
vt 0.500000 0.958333
vt 0.500000 0.583333
vt 0.541667 0.437500
vt 1.000000 0.958333
vt 0.875000 0.500000
vt 0.875000 0.750000
vt 0.625000 0.250000
vt 0.375000 0.500000
vt 0.375000 0.250000
vt 0.375000 0.750000
vt 0.625000 0.750000
vt 0.375000 1.000000
vt 0.125000 0.750000
vt 0.125000 0.500000
vt 0.625000 0.500000
vt 0.625000 1.000000
vt 1.000000 0.859375
vt 0.000000 1.000000
vt 0.500000 0.578125
vt 0.031250 0.187500
s 0
usemtl Primary
f 5/1/1 3/2/1 1/3/1
f 3/4/2 14/5/2 15/6/2
f 2/1/3 8/2/3 6/3/3
f 3/7/4 2/4/4 1/8/4
f 6/7/5 1/4/5 2/9/5
f 8/7/6 5/4/6 6/9/6
f 16/10/2 8/11/2 4/12/2
f 10/13/3 19/14/3 11/15/3
f 10/16/2 13/17/2 9/18/2
f 12/19/2 15/20/2 11/21/2
f 19/22/2 17/23/2 20/24/2
f 11/22/6 20/24/6 12/24/6
f 12/15/1 17/25/1 9/13/1
f 9/23/4 18/26/4 10/26/4
f 24/27/1 35/28/1 22/28/1
f 24/29/5 27/30/5 23/31/5
f 25/32/4 30/33/4 26/33/4
f 26/33/2 21/34/2 25/32/2
f 27/30/3 21/35/3 23/36/3
f 24/27/1 26/33/1 28/37/1
f 27/30/3 29/32/3 25/32/3
f 28/37/1 30/33/1 32/37/1
f 28/37/6 31/30/6 27/30/6
f 23/36/3 34/35/3 33/36/3
f 23/31/4 36/29/4 24/29/4
f 22/38/6 34/34/6 21/34/6
f 5/1/1 7/39/1 3/2/1
f 3/4/2 7/40/2 14/5/2
f 2/1/3 4/39/3 8/2/3
f 3/7/4 4/9/4 2/4/4
f 6/7/5 5/8/5 1/4/5
f 8/7/6 7/8/6 5/4/6
f 16/10/2 13/19/2 8/11/2
f 10/13/3 18/25/3 19/14/3
f 10/16/2 14/41/2 13/17/2
f 12/19/2 16/42/2 15/20/2
f 19/22/2 18/26/2 17/23/2
f 11/22/6 19/22/6 20/24/6
f 12/15/1 20/14/1 17/25/1
f 9/23/4 17/23/4 18/26/4
f 24/27/1 36/27/1 35/28/1
f 24/29/5 28/37/5 27/30/5
f 25/32/4 29/32/4 30/33/4
f 26/33/2 22/38/2 21/34/2
f 27/30/3 25/32/3 21/35/3
f 24/27/1 22/28/1 26/33/1
f 27/30/3 31/30/3 29/32/3
f 28/37/1 26/33/1 30/33/1
f 28/37/6 32/37/6 31/30/6
f 23/36/3 21/35/3 34/35/3
f 23/31/4 33/31/4 36/29/4
f 22/38/6 35/38/6 34/34/6
