# Blender 4.2.0
# www.blender.org
mtllib DoorResidential01.mtl
o DoorResidential01
v 0.000000 3.000000 -0.037500
v 0.000000 0.000000 -0.037500
v 0.000000 3.000000 0.037500
v 0.000000 0.000000 0.037500
v -1.500000 3.000000 -0.037500
v -1.500000 0.000000 -0.037500
v -1.500000 3.000000 0.037500
v -1.500000 0.000000 0.037500
v -1.469300 1.374197 0.062591
v -1.469300 1.749809 0.062591
v -1.469300 1.374197 -0.062591
v -1.469300 1.749809 -0.062591
v -1.344118 1.374197 0.062591
v -1.344118 1.749809 0.062591
v -1.344118 1.374197 -0.062591
v -1.344118 1.749809 -0.062591
v -1.499395 1.556204 0.089134
v -1.499395 1.708247 0.089134
v -1.499395 1.556204 0.062591
v -1.499395 1.708247 0.062591
v -1.344118 1.556204 0.089134
v -1.344118 1.708247 0.089134
v -1.344118 1.556204 0.062591
v -1.344118 1.708247 0.062591
v -1.499395 1.556204 -0.062591
v -1.499395 1.708247 -0.062591
v -1.499395 1.556204 -0.089133
v -1.499395 1.708247 -0.089133
v -1.344118 1.556204 -0.062591
v -1.344118 1.708247 -0.062591
v -1.344118 1.556204 -0.089133
v -1.344118 1.708247 -0.089133
vn -0.0000 1.0000 -0.0000
vn -0.0000 -0.0000 1.0000
vn -1.0000 -0.0000 -0.0000
vn -0.0000 -1.0000 -0.0000
vn 1.0000 -0.0000 -0.0000
vn -0.0000 -0.0000 -1.0000
vt 1.000000 0.031250
vt 0.000000 0.000000
vt 0.000000 0.031250
vt 1.000000 1.000100
vt 0.000100 0.000100
vt 1.000000 0.000100
vt 0.729167 1.000000
vt 0.666667 0.000000
vt 0.729167 0.000000
vt 1.000000 0.000000
vt 0.000100 1.000100
vt 1.000000 0.000300
vt 0.000100 0.000300
vt 0.104167 0.458333
vt 0.041667 0.583333
vt 0.041667 0.458333
vt 0.104167 0.583333
vt 0.020833 0.458333
vt 0.020833 0.562500
vt 0.104167 0.520833
vt 0.020833 0.520833
vt 0.104167 0.562500
vt 0.625000 0.000000
vt 0.375000 0.250000
vt 0.375000 0.000000
vt 0.625000 0.250000
vt 0.375000 0.500000
vt 0.625000 0.500000
vt 0.375000 0.750000
vt 0.000000 0.562500
vt 0.000000 0.520833
vt 0.125000 0.750000
vt 0.125000 0.500000
vt 0.875000 0.500000
vt 0.625000 0.750000
vt 0.375000 1.000000
vt 0.000100 1.000100
vt 0.666667 1.000000
vt 0.020833 0.583333
vt 0.875000 0.750000
vt 0.625000 1.000000
s 0
usemtl Primary
f 5/1/1 3/2/1 1/3/1
f 3/4/2 8/5/2 4/6/2
f 7/7/3 6/8/3 8/9/3
f 2/3/4 8/10/4 6/1/4
f 1/7/5 4/8/5 2/9/5
f 5/11/6 2/12/6 6/13/6
f 10/14/3 11/15/3 9/16/3
f 12/17/6 15/18/6 11/14/6
f 16/14/5 13/15/5 15/16/5
f 14/17/2 9/18/2 13/14/2
f 15/19/4 9/20/4 11/21/4
f 12/22/1 14/21/1 16/20/1
f 18/23/3 19/24/3 17/25/3
f 20/26/6 23/27/6 19/24/6
f 24/28/5 21/29/5 23/27/5
f 22/20/2 17/30/2 21/31/2
f 23/27/4 17/32/4 19/33/4
f 20/34/1 22/35/1 24/28/1
f 26/23/3 27/24/3 25/25/3
f 28/20/6 31/30/6 27/31/6
f 30/35/2 25/36/2 29/29/2
f 31/27/4 25/32/4 27/33/4
f 28/34/1 30/35/1 32/28/1
f 32/28/5 29/29/5 31/27/5
f 5/1/1 7/10/1 3/2/1
f 3/4/2 7/37/2 8/5/2
f 7/7/3 5/38/3 6/8/3
f 2/3/4 4/2/4 8/10/4
f 1/7/5 3/38/5 4/8/5
f 5/11/6 1/4/6 2/12/6
f 10/14/3 12/17/3 11/15/3
f 12/17/6 16/39/6 15/18/6
f 16/14/5 14/17/5 13/15/5
f 14/17/2 10/39/2 9/18/2
f 15/19/4 13/22/4 9/20/4
f 12/22/1 10/19/1 14/21/1
f 18/23/3 20/26/3 19/24/3
f 20/26/6 24/28/6 23/27/6
f 24/28/5 22/35/5 21/29/5
f 22/20/2 18/22/2 17/30/2
f 23/27/4 21/29/4 17/32/4
f 20/34/1 18/40/1 22/35/1
f 26/23/3 28/26/3 27/24/3
f 28/20/6 32/22/6 31/30/6
f 30/35/2 26/41/2 25/36/2
f 31/27/4 29/29/4 25/32/4
f 28/34/1 26/40/1 30/35/1
f 32/28/5 30/35/5 29/29/5
