# Blender 4.2.0
# www.blender.org
mtllib DoorWooden01.mtl
o DoorWooden01
v 1.500000 3.000000 -0.026250
v 1.500000 0.000000 -0.026250
v 1.500000 3.000000 0.026250
v 1.500000 0.000000 0.026250
v 0.000000 3.000000 -0.026250
v 0.000000 0.000000 -0.026250
v 0.000000 3.000000 0.026250
v 0.000000 0.000000 0.026250
v 1.219362 1.452976 -0.026250
v 1.219362 1.546844 -0.026250
v 1.219362 1.452976 -0.048728
v 1.219362 1.546844 -0.048728
v 1.500000 1.452976 -0.026250
v 1.500000 1.546844 -0.026250
v 1.500000 1.452976 -0.048728
v 1.500000 1.546844 -0.048728
v 1.219362 1.452976 0.026250
v 1.219362 1.546844 0.026250
v 1.219362 1.452976 0.048728
v 1.219362 1.546844 0.048728
v 1.500000 1.452976 0.026250
v 1.500000 1.546844 0.026250
v 1.500000 1.452976 0.048728
v 1.500000 1.546844 0.048728
v 0.000000 2.577528 0.026250
v 0.000000 2.648495 0.026250
v 0.000000 2.577528 0.048728
v 0.000000 2.648495 0.048728
v 1.148399 2.577528 0.026250
v 1.148399 2.648495 0.026250
v 1.148399 2.577528 0.048728
v 1.148399 2.648495 0.048728
v 0.000000 0.351129 0.026250
v 0.000000 0.422096 0.026250
v 0.000000 0.351129 0.048728
v 0.000000 0.422096 0.048728
v 1.195201 0.397775 0.026250
v 1.195201 0.468742 0.026250
v 1.195201 0.397775 0.048728
v 1.195201 0.468742 0.048728
v 0.000000 2.577528 -0.026250
v 0.000000 2.648495 -0.026250
v 0.000000 2.577528 -0.048728
v 0.000000 2.648495 -0.048728
v 1.148399 2.577528 -0.026250
v 1.148399 2.648495 -0.026250
v 1.148399 2.577528 -0.048728
v 1.148399 2.648495 -0.048728
v 0.000000 0.351129 -0.026250
v 0.000000 0.422096 -0.026250
v 0.000000 0.351129 -0.048728
v 0.000000 0.422096 -0.048728
v 1.195201 0.397775 -0.026250
v 1.195201 0.468742 -0.026250
v 1.195201 0.397775 -0.048728
v 1.195201 0.468742 -0.048728
vn -0.0000 1.0000 -0.0000
vn -0.0000 -0.0000 1.0000
vn -1.0000 -0.0000 -0.0000
vn -0.0000 -1.0000 -0.0000
vn 1.0000 -0.0000 -0.0000
vn -0.0000 -0.0000 -1.0000
vn 0.0390 -0.9992 -0.0000
vn -0.0390 0.9992 -0.0000
vt 0.070046 0.999947
vt 0.000053 0.000053
vt 0.070046 0.000053
vt 1.000000 0.000000
vt 0.000000 1.000000
vt 1.000000 1.000000
vt 0.031250 1.000000
vt 0.000000 0.000000
vt 0.031250 0.000000
vt 0.070151 0.000053
vt 0.140144 0.999947
vt 0.070152 0.999947
vt 0.843750 1.000000
vt 0.812500 0.000000
vt 0.843750 0.000000
vt 0.984375 0.484375
vt 1.000000 0.515625
vt 0.984375 0.515625
vt 1.000000 0.507812
vt 0.812500 0.484375
vt 1.000000 0.484375
vt 0.140625 0.117188
vt 0.515625 0.125000
vt 0.515625 0.117188
vt 0.140625 0.125000
vt 0.000000 0.117188
vt 0.765625 0.132812
vt 0.765625 0.117188
vt 0.765625 0.125000
vt 0.000000 0.125000
vt 0.000053 0.999947
vt 0.140144 0.000053
vt 0.812500 1.000000
vt 0.812500 0.507812
vt 0.000000 0.132812
s 0
usemtl Primary
f 5/1/1 3/2/1 1/3/1
f 3/4/2 8/5/2 4/6/2
f 7/7/3 6/8/3 8/9/3
f 2/10/4 8/11/4 6/12/4
f 1/13/5 4/14/5 2/15/5
f 5/8/6 2/6/6 6/5/6
f 10/16/3 11/17/3 9/18/3
f 12/19/6 15/20/6 11/21/6
f 16/17/5 13/16/5 15/21/5
f 15/22/4 9/23/4 11/24/4
f 12/24/1 14/25/1 16/22/1
f 19/17/3 18/16/3 17/18/3
f 23/20/2 20/19/2 19/21/2
f 21/16/5 24/17/5 23/21/5
f 17/23/4 23/22/4 19/24/4
f 22/25/1 20/24/1 24/22/1
f 27/17/3 26/16/3 25/18/3
f 31/26/2 28/27/2 27/28/2
f 29/16/5 32/17/5 31/21/5
f 25/29/4 31/26/4 27/28/4
f 30/30/1 28/28/1 32/26/1
f 35/17/3 34/16/3 33/18/3
f 39/26/2 36/27/2 35/28/2
f 37/16/5 40/17/5 39/21/5
f 33/29/7 39/26/7 35/28/7
f 38/30/8 36/28/8 40/26/8
f 42/16/3 43/17/3 41/18/3
f 44/27/6 47/26/6 43/28/6
f 48/17/5 45/16/5 47/21/5
f 47/26/4 41/29/4 43/28/4
f 44/28/1 46/30/1 48/26/1
f 50/16/3 51/17/3 49/18/3
f 52/27/6 55/26/6 51/28/6
f 56/17/5 53/16/5 55/21/5
f 55/26/7 49/29/7 51/28/7
f 52/28/8 54/30/8 56/26/8
f 5/1/1 7/31/1 3/2/1
f 3/4/2 7/8/2 8/5/2
f 7/7/3 5/5/3 6/8/3
f 2/10/4 4/32/4 8/11/4
f 1/13/5 3/33/5 4/14/5
f 5/8/6 1/4/6 2/6/6
f 10/16/3 12/21/3 11/17/3
f 12/19/6 16/34/6 15/20/6
f 16/17/5 14/18/5 13/16/5
f 15/22/4 13/25/4 9/23/4
f 12/24/1 10/23/1 14/25/1
f 19/17/3 20/21/3 18/16/3
f 23/20/2 24/34/2 20/19/2
f 21/16/5 22/18/5 24/17/5
f 17/23/4 21/25/4 23/22/4
f 22/25/1 18/23/1 20/24/1
f 27/17/3 28/21/3 26/16/3
f 31/26/2 32/35/2 28/27/2
f 29/16/5 30/18/5 32/17/5
f 25/29/4 29/30/4 31/26/4
f 30/30/1 26/29/1 28/28/1
f 35/17/3 36/21/3 34/16/3
f 39/26/2 40/35/2 36/27/2
f 37/16/5 38/18/5 40/17/5
f 33/29/7 37/30/7 39/26/7
f 38/30/8 34/29/8 36/28/8
f 42/16/3 44/21/3 43/17/3
f 44/27/6 48/35/6 47/26/6
f 48/17/5 46/18/5 45/16/5
f 47/26/4 45/30/4 41/29/4
f 44/28/1 42/29/1 46/30/1
f 50/16/3 52/21/3 51/17/3
f 52/27/6 56/35/6 55/26/6
f 56/17/5 54/18/5 53/16/5
f 55/26/7 53/30/7 49/29/7
f 52/28/8 50/29/8 54/30/8
