# Blender 4.2.0
# www.blender.org
mtllib Door01.mtl
o Door01
v -0.000331 0.000000 -0.037500
v -0.000331 2.978551 0.025000
v -0.000331 0.000000 0.025000
v -0.094927 2.931117 -0.053125
v -0.094927 2.606749 -0.053125
v -0.094927 2.606749 0.040625
v -0.094927 2.931117 0.040625
v -1.474669 0.000000 -0.037500
v -1.474669 2.978551 0.025000
v -1.474669 0.000000 0.025000
v -1.474669 2.978551 -0.037500
v -0.000331 2.978551 -0.037500
v -1.379509 2.606749 -0.053125
v -1.379509 2.931117 -0.053125
v -1.379509 2.606749 0.040625
v -1.379509 2.931117 0.040625
v -0.000331 2.978551 0.025000
v -0.000331 0.000000 0.025000
v -1.474669 2.978551 0.025000
v -1.474669 0.000000 0.025000
vn 1.0000 -0.0000 -0.0000
vn -1.0000 -0.0000 -0.0000
vn -0.0000 1.0000 -0.0000
vn -0.0000 -0.0000 1.0000
vn -0.0000 -1.0000 -0.0000
vn -0.0000 -0.0000 -1.0000
vt 0.453125 0.000000
vt 0.484375 1.000000
vt 0.484375 0.000000
vt 0.890625 0.031250
vt 1.000000 0.000000
vt 1.000000 0.031250
vt 0.453125 1.000000
vt -0.000000 0.968750
vt 0.500000 1.000000
vt -0.000000 1.000000
vt 0.890625 0.000000
vt 0.812500 0.390625
vt 0.703125 0.046875
vt 0.812500 0.046875
vt 0.843750 -0.000000
vt 0.812500 0.421875
vt 0.812500 0.000000
vt 0.968750 0.484375
vt 0.968750 -0.000000
vt 0.843750 0.421875
vt 0.703125 0.390625
vt 0.000000 1.000000
vt 0.000000 0.000000
vt 0.500000 0.968750
vt 1.000000 0.484375
s 0
usemtl Primary
f 3/1/1 1/3/1 12/2/1
f 7/4/1 6/6/1 5/5/1
f 11/7/2 8/1/2 10/3/2
f 2/8/3 12/10/3 11/9/3
f 13/6/2 15/5/2 16/11/2
f 15/12/4 6/14/4 7/13/4
f 7/15/3 4/17/3 14/16/3
f 10/5/5 8/19/5 1/18/5
f 15/16/5 13/20/5 5/15/5
f 5/13/6 13/21/6 14/12/6
f 12/22/6 1/23/6 8/3/6
f 20/23/4 18/3/4 17/2/4
f 3/1/1 12/2/1 2/7/1
f 7/4/1 5/5/1 4/11/1
f 11/7/2 10/3/2 9/2/2
f 2/8/3 11/9/3 9/24/3
f 13/6/2 16/11/2 14/4/2
f 15/12/4 7/13/4 16/21/4
f 7/15/3 14/16/3 16/20/3
f 10/5/5 1/18/5 3/25/5
f 15/16/5 5/15/5 6/17/5
f 5/13/6 14/12/6 4/14/6
f 12/22/6 8/3/6 11/2/6
f 20/23/4 17/2/4 19/10/4
