# Blender 4.2.0
# www.blender.org
mtllib Bolt01.mtl
o Bolt01
v 0.008738 0.004688 -0.005045
v 0.000000 0.082500 -0.010090
v 0.008738 0.004688 0.005045
v -0.008738 0.082500 -0.005045
v -0.000000 0.004688 0.010090
v -0.008738 0.082500 0.005045
v -0.008738 0.004688 0.005045
v 0.000000 0.082500 0.010090
v -0.008738 0.004688 -0.005045
v 0.008738 0.082500 0.005045
v -0.000000 0.004688 -0.010090
v 0.008738 0.082500 -0.005045
v 0.000000 0.101250 -0.018750
v -0.016238 0.101250 -0.009375
v -0.016238 0.082500 -0.009375
v 0.000000 0.082500 -0.018750
v -0.016238 0.101250 0.009375
v -0.016238 0.082500 0.009375
v 0.000000 0.101250 0.018750
v 0.000000 0.082500 0.018750
v 0.016238 0.101250 0.009375
v 0.016238 0.082500 0.009375
v 0.016238 0.101250 -0.009375
v 0.016238 0.082500 -0.009375
v 0.003058 0.000000 -0.001766
v 0.003058 0.000000 0.001766
v -0.000000 0.000000 0.003531
v -0.003058 0.000000 0.001766
v -0.003058 0.000000 -0.001766
v -0.000000 0.000000 -0.003531
vn -0.5000 -0.0000 -0.8660
vn -1.0000 -0.0000 -0.0000
vn -0.5000 -0.0000 0.8660
vn 0.5000 -0.0000 0.8660
vn 1.0000 -0.0000 -0.0000
vn 0.5000 -0.0000 -0.8660
vn -0.0000 -1.0000 -0.0000
vn -0.0000 1.0000 -0.0000
vn -0.3183 -0.7713 -0.5512
vn -0.3183 -0.7713 0.5512
vn 0.6365 -0.7713 -0.0000
vn 0.3183 -0.7713 -0.5512
vn -0.6365 -0.7713 -0.0000
vn 0.3183 -0.7713 0.5512
vt 0.250000 0.656250
vt 0.750000 0.859375
vt 0.250000 0.859375
vt 0.750000 0.656250
vt 0.291667 0.671875
vt 0.375000 0.062500
vt 0.375000 0.671875
vt 0.500000 0.062500
vt 0.500000 0.671875
vt 0.541667 0.062500
vt 0.541667 0.671875
vt 0.333333 0.859375
vt 0.750000 0.765625
vt 0.625000 0.859375
vt 0.666667 0.062500
vt 0.666667 0.671875
vt 0.625000 0.671875
vt 0.791667 0.062500
vt 0.791667 0.671875
vt 0.208333 0.671875
vt 0.291667 0.062500
vt 0.250000 0.765625
vt 0.666667 0.406250
vt 0.458333 0.468750
vt 0.333333 0.406250
vt 0.333333 0.593750
vt 0.416667 0.500000
vt 0.458333 0.531250
vt 0.666667 0.593750
vt 0.583333 0.500000
vt 0.791667 0.500000
vt 0.541667 0.468750
vt 0.208333 0.500000
vt 0.541667 0.531250
vt 0.583333 0.546875
vt 0.375000 0.500000
vt 0.625000 0.500000
vt 0.416667 0.453125
vt 0.208333 0.062500
vt 0.416667 0.546875
vt 0.583333 0.453125
s 0
usemtl Material
f 16/1/1 14/2/1 13/3/1
f 14/2/2 18/1/2 17/3/2
f 18/1/3 19/2/3 17/3/3
f 19/2/4 22/1/4 21/3/4
f 22/1/5 23/2/5 21/3/5
f 24/4/6 13/3/6 23/2/6
f 10/5/5 1/6/5 12/7/5
f 12/7/6 11/8/6 2/9/6
f 2/9/1 9/10/1 4/11/1
f 22/12/7 16/13/7 24/14/7
f 4/11/2 7/15/2 6/16/2
f 16/13/7 18/7/7 15/17/7
f 6/16/3 5/18/3 8/19/3
f 8/20/4 3/21/4 10/5/4
f 13/22/8 17/17/8 19/13/8
f 21/14/8 13/22/8 19/13/8
f 11/23/9 29/24/9 9/25/9
f 5/26/10 28/27/10 27/28/10
f 3/29/11 25/30/11 1/31/11
f 1/31/12 30/32/12 11/23/12
f 9/25/13 28/27/13 7/33/13
f 3/29/14 27/28/14 26/34/14
f 28/35/7 30/36/7 27/37/7
f 25/38/7 27/37/7 30/36/7
f 16/1/1 15/4/1 14/2/1
f 14/2/2 15/4/2 18/1/2
f 18/1/3 20/4/3 19/2/3
f 19/2/4 20/4/4 22/1/4
f 22/1/5 24/4/5 23/2/5
f 24/4/6 16/1/6 13/3/6
f 10/5/5 3/21/5 1/6/5
f 12/7/6 1/6/6 11/8/6
f 2/9/1 11/8/1 9/10/1
f 22/12/7 20/22/7 16/13/7
f 4/11/2 9/10/2 7/15/2
f 16/13/7 20/22/7 18/7/7
f 6/16/3 7/15/3 5/18/3
f 8/20/4 5/39/4 3/21/4
f 13/22/8 14/7/8 17/17/8
f 21/14/8 23/12/8 13/22/8
f 11/23/9 30/32/9 29/24/9
f 5/26/10 7/33/10 28/27/10
f 3/29/11 26/34/11 25/30/11
f 1/31/12 25/30/12 30/32/12
f 9/25/13 29/24/13 28/27/13
f 3/29/14 5/26/14 27/28/14
f 28/35/7 29/40/7 30/36/7
f 25/38/7 26/41/7 27/37/7
