# Blender 4.2.0
# www.blender.org
mtllib mMetalCatwalkFullEnd02.mtl
o MetalCatwalkFullEnd02
v 0.000000 -0.250000 4.000000
v 0.000000 0.000000 4.000000
v 0.300000 -0.250000 0.300000
v 0.300000 0.000000 0.300000
v 2.799999 -0.250000 4.000000
v 2.799999 0.000000 4.000000
v 2.499999 -0.250000 0.300000
v 2.499999 0.000000 0.300000
v 2.699999 2.099999 4.000000
v 2.599998 2.099999 4.000000
v 2.699999 0.000000 0.100000
v 2.699999 0.000000 0.199999
v 2.599998 2.099999 0.199999
v 2.699999 2.099999 3.926875
v 2.600000 2.045156 3.926875
v 2.699999 2.099999 0.199999
v 2.699999 2.045156 3.926875
v 2.699999 2.045156 0.099999
v 2.599998 0.000000 4.000000
v 2.599998 0.000000 3.926875
v 2.599998 0.000000 0.100000
v 2.599998 0.000000 0.199999
v 2.699999 2.099999 0.100000
v 2.599998 2.099999 3.926875
v 2.699999 0.000000 3.926875
v 2.699999 0.000000 4.000000
v 2.649994 0.000000 1.950000
v 2.649994 0.000000 2.050000
v 2.649994 2.047499 1.950000
v 2.649994 2.047499 2.050000
v 2.649994 1.023750 1.950000
v 2.649994 1.023750 2.050000
v 2.649994 1.023750 3.926875
v 2.649994 1.023750 0.073125
v 2.649994 1.074937 1.950000
v 2.649994 1.074937 2.050000
v 2.649994 1.074937 3.926875
v 2.649994 1.074937 0.073125
v 0.099997 2.099999 0.100000
v 0.099997 0.000000 4.000000
v 0.099997 0.000000 3.926875
v 0.199997 2.099999 3.926875
v 0.099997 2.099999 0.199999
v 0.199995 2.045156 0.199999
v 0.199995 2.099999 0.199999
v 0.099997 2.099999 3.926875
v 0.099997 2.045156 0.099999
v 0.099997 2.045156 3.926875
v 0.199995 2.045156 3.926875
v 0.199997 0.000000 0.100000
v 0.199997 0.000000 0.199999
v 0.199997 0.000000 4.000000
v 0.199997 0.000000 3.926875
v 0.099997 2.099999 4.000000
v 0.099997 0.000000 0.199999
v 0.199997 2.099999 4.000000
v 0.099997 0.000000 0.100000
v 0.150002 0.000000 2.050000
v 0.150002 0.000000 1.950000
v 0.150002 2.047499 2.050000
v 0.150002 2.047499 1.950000
v 0.150002 1.023750 2.050000
v 0.150002 1.023750 1.950000
v 0.150002 1.023750 0.073125
v 0.150002 1.023750 3.926875
v 0.150002 1.074937 2.050000
v 0.150002 1.074937 1.950000
v 0.150002 1.074937 0.073125
v 0.150002 1.074937 3.926875
v 2.600000 2.045156 0.199999
v 0.199997 2.099999 0.100000
v 2.600000 2.045156 0.100000
v 0.199997 2.045156 0.100000
v 0.200001 1.023750 0.150005
v 2.600000 1.023750 0.150005
v 0.200001 1.074937 0.150005
v 2.600000 1.074937 0.150005
v 2.600000 2.099999 0.100000
v 0.300000 -0.250000 1.999999
v 0.300000 0.000000 1.999999
v 2.499999 -0.250000 1.999999
v 2.499999 0.000000 1.999999
v 0.000000 0.000000 2.000000
v 0.000000 0.000000 0.000000
v 2.799999 -0.250000 0.000000
v 0.000000 -0.250000 0.000000
v 2.799999 0.000000 0.000000
v 2.799999 -0.250000 2.000000
v 0.000000 -0.250000 2.000000
v 2.799999 0.000000 2.000000
vn -1.0000 -0.0000 -0.0000
vn -0.0000 -0.0000 -1.0000
vn 1.0000 -0.0000 -0.0000
vn -0.0000 -0.0000 1.0000
vn -0.0000 -1.0000 -0.0000
vn -0.0000 1.0000 -0.0000
vt 0.429688 1.000000
vt -0.796875 0.800000
vt 0.429688 0.800000
vt 1.164062 1.000000
vt -0.289062 0.800000
vt 1.164062 0.800000
vt 1.656250 1.000000
vt -0.289062 1.000000
vt 0.351562 0.000000
vt 1.250000 0.800000
vt 0.351562 0.800000
vt 1.101562 0.912500
vt -0.296875 0.868750
vt 1.101562 0.868750
vt -0.296875 0.856250
vt 1.101562 0.856250
vt 0.398438 0.906250
vt 0.398438 0.887500
vt -0.296875 0.912500
vt 0.906250 0.818750
vt 0.882812 0.837500
vt 0.882812 0.818750
vt -0.476562 0.868750
vt 1.273438 0.893750
vt -0.476562 0.893750
vt -0.289062 0.881250
vt 1.460938 0.912500
vt -0.289062 0.912500
vt 1.281250 0.912500
vt -0.476562 0.912500
vt -0.289062 0.868750
vt 1.109375 0.925000
vt 1.109375 0.856250
vt -0.296875 0.881250
vt 1.109375 0.881250
vt 1.171875 0.856250
vt 0.789062 0.912500
vt 0.789062 0.856250
vt 0.796875 0.868750
vt 1.453125 0.893750
vt 0.796875 0.893750
vt 0.773438 0.912500
vt 0.773438 0.856250
vt 0.109375 0.868750
vt 0.765625 0.893750
vt 0.109375 0.893750
vt 0.406250 0.912500
vt 0.406250 0.856250
vt 0.906250 0.837500
vt 0.281250 0.950000
vt 0.281250 0.912500
vt 1.460938 0.881250
vt 1.460938 0.868750
vt 0.609375 0.868750
vt 1.257812 0.893750
vt 0.609375 0.893750
vt 0.570312 0.868750
vt 0.570312 0.893750
vt -0.085938 0.868750
vt -0.085938 0.893750
vt 1.273438 0.868750
vt 1.281250 0.856250
vt 0.703125 0.850000
vt 0.156250 0.800000
vt 0.703125 0.800000
vt 0.101562 0.800000
vt 0.890625 0.856250
vt 0.101562 0.856250
vt -0.796875 1.000000
vt 1.656250 0.800000
vt -0.414062 0.093750
vt 0.226562 0.093750
vt -0.406250 0.718750
vt -0.546875 0.000000
vt -0.546875 0.800000
vt 1.093750 1.000000
vt 0.015625 0.800000
vt 1.093750 0.800000
vt -0.570312 0.800000
vt 1.429688 1.000000
vt -0.570312 1.000000
vt 1.250000 0.000000
vt -0.296875 0.925000
vt 1.171875 0.912500
vt 1.453125 0.868750
vt 0.765625 0.868750
vt 1.257812 0.868750
vt 0.156250 0.850000
vt 0.890625 0.800000
vt 0.218750 0.718750
vt 0.015625 1.000000
vt 1.429688 0.800000
s 0
usemtl Primary
f 83/1/1 86/2/1 89/3/1
f 84/4/2 85/5/2 86/6/2
f 90/3/3 5/7/3 88/1/3
f 6/5/4 1/4/4 5/8/4
f 88/9/5 1/10/5 89/11/5
f 83/9/6 6/10/6 90/11/6
f 23/12/1 12/13/1 16/14/1
f 9/12/2 19/15/2 10/16/2
f 10/17/5 14/18/5 9/17/5
f 78/16/2 11/19/2 21/15/2
f 16/20/5 78/21/5 23/22/5
f 16/23/3 17/24/3 18/25/3
f 13/26/3 15/27/3 70/28/3
f 13/23/6 14/29/6 16/30/6
f 70/31/6 17/27/6 18/28/6
f 16/12/2 22/15/2 13/16/2
f 14/32/2 20/15/2 24/33/2
f 14/32/1 26/34/1 9/35/1
f 24/32/1 19/34/1 10/35/1
f 78/12/1 22/13/1 13/14/1
f 27/36/1 32/37/1 31/38/1
f 32/39/1 37/40/1 36/41/1
f 31/38/1 36/42/1 35/43/1
f 34/44/1 35/45/1 38/46/1
f 35/43/1 30/47/1 29/48/1
f 54/12/3 41/15/3 46/16/3
f 39/12/4 50/15/4 71/16/4
f 39/21/5 45/20/5 43/49/5
f 54/12/4 52/15/4 56/16/4
f 42/50/5 54/51/5 46/50/5
f 48/28/1 43/52/1 47/27/1
f 42/23/1 44/24/1 49/25/1
f 42/31/6 43/27/6 46/28/6
f 48/28/6 44/53/6 47/27/6
f 46/12/4 53/15/4 42/16/4
f 45/16/4 55/19/4 51/15/4
f 43/12/3 57/13/3 39/14/3
f 45/12/3 50/13/3 71/14/3
f 56/12/3 53/13/3 42/14/3
f 58/36/3 63/37/3 62/38/3
f 63/54/3 68/55/3 67/56/3
f 62/57/3 67/56/3 66/58/3
f 65/59/3 66/58/3 69/60/3
f 66/43/3 61/47/3 60/48/3
f 71/26/2 72/27/2 73/28/2
f 44/25/2 13/61/2 70/24/2
f 71/30/6 13/62/6 78/29/6
f 73/28/6 70/53/6 72/27/6
f 74/54/4 77/55/4 76/56/4
f 79/63/3 4/64/3 80/65/3
f 8/66/4 3/67/4 7/68/4
f 87/2/3 88/1/3 85/69/3
f 2/7/1 89/3/1 1/70/1
f 4/71/6 83/9/6 80/72/6
f 3/73/5 85/74/5 7/71/5
f 8/73/6 84/74/6 4/71/6
f 7/71/5 88/9/5 81/72/5
f 3/73/5 89/11/5 86/75/5
f 8/73/6 90/11/6 87/75/6
f 82/76/1 7/77/1 81/78/1
f 83/79/2 88/80/2 89/81/2
f 83/1/1 84/69/1 86/2/1
f 84/4/2 87/8/2 85/5/2
f 90/3/3 6/70/3 5/7/3
f 6/5/4 2/6/4 1/4/4
f 88/9/5 5/82/5 1/10/5
f 83/9/6 2/82/6 6/10/6
f 23/12/1 11/19/1 12/13/1
f 9/12/2 26/19/2 19/15/2
f 10/17/5 24/18/5 14/18/5
f 78/16/2 23/12/2 11/19/2
f 16/20/5 13/49/5 78/21/5
f 16/23/3 14/61/3 17/24/3
f 13/26/3 24/52/3 15/27/3
f 13/23/6 24/62/6 14/29/6
f 70/31/6 15/53/6 17/27/6
f 16/12/2 12/19/2 22/15/2
f 14/32/2 25/83/2 20/15/2
f 14/32/1 25/83/1 26/34/1
f 24/32/1 20/83/1 19/34/1
f 78/12/1 21/19/1 22/13/1
f 27/36/1 28/84/1 32/37/1
f 32/39/1 33/85/1 37/40/1
f 31/38/1 32/37/1 36/42/1
f 34/44/1 31/86/1 35/45/1
f 35/43/1 36/42/1 30/47/1
f 54/12/3 40/19/3 41/15/3
f 39/12/4 57/19/4 50/15/4
f 39/21/5 71/22/5 45/20/5
f 54/12/4 40/19/4 52/15/4
f 42/50/5 56/51/5 54/51/5
f 48/28/1 46/26/1 43/52/1
f 42/23/1 45/61/1 44/24/1
f 42/31/6 45/53/6 43/27/6
f 48/28/6 49/31/6 44/53/6
f 46/12/4 41/19/4 53/15/4
f 45/16/4 43/12/4 55/19/4
f 43/12/3 55/19/3 57/13/3
f 45/12/3 51/19/3 50/13/3
f 56/12/3 52/19/3 53/13/3
f 58/36/3 59/84/3 63/37/3
f 63/54/3 64/87/3 68/55/3
f 62/57/3 63/54/3 67/56/3
f 65/59/3 62/57/3 66/58/3
f 66/43/3 67/42/3 61/47/3
f 71/26/2 78/52/2 72/27/2
f 44/25/2 45/23/2 13/61/2
f 71/30/6 45/23/6 13/62/6
f 73/28/6 44/31/6 70/53/6
f 74/54/4 75/87/4 77/55/4
f 79/63/3 3/88/3 4/64/3
f 8/66/4 4/89/4 3/67/4
f 87/2/3 90/3/3 88/1/3
f 2/7/1 83/1/1 89/3/1
f 4/71/6 84/74/6 83/9/6
f 3/73/5 86/75/5 85/74/5
f 8/73/6 87/75/6 84/74/6
f 7/71/5 85/74/5 88/9/5
f 3/73/5 79/90/5 89/11/5
f 8/73/6 82/90/6 90/11/6
f 82/76/1 8/91/1 7/77/1
f 83/79/2 90/92/2 88/80/2
