# Blender 4.2.0
# www.blender.org
mtllib mMetalLadderS01.mtl
o MetalLadderS01
v 2.262529 -6.000000 -0.101564
v 0.654731 -6.000000 -0.001564
v 2.207686 0.000000 -0.101562
v 2.262529 0.000000 -0.101562
v 2.262529 -6.000000 -0.001564
v 0.654731 0.000000 -0.101562
v 2.207686 -6.000000 -0.001564
v 2.207686 -6.000000 -0.101562
v 2.210029 -1.550000 -0.051569
v 2.210029 -1.450000 -0.051569
v 0.654732 -1.550000 -0.051569
v 0.654732 -1.450000 -0.051569
v 0.599930 0.000000 -0.101562
v 2.207686 0.000000 -0.001564
v 2.262529 0.000000 -0.001564
v 0.654731 -6.000000 -0.101564
v 0.599888 -6.000000 -0.001564
v 0.599888 -6.000000 -0.101562
v 0.599888 0.000000 -0.001564
v 0.654731 0.000000 -0.001564
v 2.210029 -0.550000 -0.051569
v 2.210029 -0.450000 -0.051569
v 0.654732 -0.550000 -0.051569
v 0.654732 -0.450000 -0.051569
v 2.210029 -3.550000 -0.051569
v 2.210029 -3.450000 -0.051569
v 0.654732 -3.550000 -0.051569
v 0.654732 -3.450000 -0.051569
v 2.210029 -2.550000 -0.051569
v 2.210029 -2.450000 -0.051569
v 0.654732 -2.550000 -0.051569
v 0.654732 -2.450000 -0.051569
v 2.210029 -4.550000 -0.051569
v 2.210029 -4.450000 -0.051569
v 0.654732 -4.550000 -0.051569
v 0.654732 -4.450000 -0.051569
v 2.210029 -5.550000 -0.051569
v 2.210029 -5.450000 -0.051569
v 0.654732 -5.550000 -0.051569
v 0.654732 -5.450000 -0.051569
v 2.210029 -1.550000 -0.051569
v 2.210029 -1.450000 -0.051569
v 0.654732 -1.550000 -0.051569
v 0.654732 -1.450000 -0.051569
v 2.210029 -0.550000 -0.051569
v 2.210029 -0.450000 -0.051569
v 0.654732 -0.550000 -0.051569
v 0.654732 -0.450000 -0.051569
v 2.210029 -3.550000 -0.051569
v 2.210029 -3.450000 -0.051569
v 0.654732 -3.550000 -0.051569
v 0.654732 -3.450000 -0.051569
v 2.210029 -2.550000 -0.051569
v 2.210029 -2.450000 -0.051569
v 0.654732 -2.550000 -0.051569
v 0.654732 -2.450000 -0.051569
v 2.210029 -4.550000 -0.051569
v 2.210029 -4.450000 -0.051569
v 0.654732 -4.550000 -0.051569
v 0.654732 -4.450000 -0.051569
v 2.210029 -5.550000 -0.051569
v 2.210029 -5.450000 -0.051569
v 0.654732 -5.550000 -0.051569
v 0.654732 -5.450000 -0.051569
vn -0.0000 -0.0000 1.0000
vn 1.0000 -0.0000 -0.0000
vn -0.0000 -0.0000 -1.0000
vn 1.0000 -0.0000 0.0004
vt -0.406250 0.893750
vt 1.398438 0.918750
vt -0.406250 0.918750
vt -0.406250 0.881250
vt 0.265625 0.918750
vt 0.734375 0.881250
vt 0.734375 0.918750
vt 1.398438 0.893750
vt 1.398438 0.881250
vt 0.265625 0.881250
s 0
usemtl MetalPlates01
f 1/1/1 3/2/1 8/3/1
f 1/4/2 15/2/2 5/3/2
f 8/4/2 14/2/2 7/3/2
f 11/5/3 10/6/3 9/7/3
f 5/1/1 14/2/1 7/3/1
f 16/1/1 13/2/1 18/3/1
f 16/4/2 20/2/2 2/3/2
f 18/4/2 19/2/2 17/3/2
f 2/1/1 19/2/1 17/3/1
f 23/5/3 22/6/3 21/7/3
f 27/5/3 26/6/3 25/7/3
f 31/5/3 30/6/3 29/7/3
f 35/5/3 34/6/3 33/7/3
f 39/5/3 38/6/3 37/7/3
f 42/6/1 43/5/1 41/7/1
f 46/6/1 47/5/1 45/7/1
f 50/6/1 51/5/1 49/7/1
f 54/6/1 55/5/1 53/7/1
f 58/6/1 59/5/1 57/7/1
f 62/6/1 63/5/1 61/7/1
f 1/1/1 4/8/1 3/2/1
f 1/4/2 4/9/2 15/2/2
f 8/4/2 3/9/2 14/2/2
f 11/5/3 12/10/3 10/6/3
f 5/1/1 15/8/1 14/2/1
f 16/1/1 6/8/1 13/2/1
f 16/4/2 6/9/2 20/2/2
f 18/4/4 13/9/4 19/2/4
f 2/1/1 20/8/1 19/2/1
f 23/5/3 24/10/3 22/6/3
f 27/5/3 28/10/3 26/6/3
f 31/5/3 32/10/3 30/6/3
f 35/5/3 36/10/3 34/6/3
f 39/5/3 40/10/3 38/6/3
f 42/6/1 44/10/1 43/5/1
f 46/6/1 48/10/1 47/5/1
f 50/6/1 52/10/1 51/5/1
f 54/6/1 56/10/1 55/5/1
f 58/6/1 60/10/1 59/5/1
f 62/6/1 64/10/1 63/5/1
