# Blender 4.2.0
# www.blender.org
mtllib mMetalCatwalkFullS01.mtl
o MetalCatwalkFullS01
v 0.000000 -0.250000 4.000000
v 0.000000 0.000000 4.000000
v 0.000000 -0.250000 0.000000
v 0.000000 0.000000 0.000000
v 2.799999 -0.250000 4.000000
v 2.799999 0.000000 4.000000
v 2.799999 -0.250000 0.000000
v 2.799999 0.000000 0.000000
v 2.699999 2.099999 4.000000
v 2.599998 2.099999 4.000000
v 2.699999 0.000000 0.000000
v 2.699999 0.000000 0.073125
v 2.599998 2.099999 0.073125
v 2.699999 2.099999 0.073125
v 2.699999 2.099999 3.926875
v 2.600000 2.045156 3.926875
v 2.600000 2.099999 3.926875
v 2.699999 2.099999 0.073125
v 2.699999 2.099999 3.926875
v 2.699999 2.045156 3.926875
v 2.600000 2.099999 0.073125
v 2.699999 2.045156 0.073125
v 2.600000 2.045156 0.073125
v 2.599998 0.000000 4.000000
v 2.599998 0.000000 3.926875
v 2.599998 0.000000 0.000000
v 2.599998 0.000000 0.073125
v 2.699999 2.099999 0.000000
v 2.599998 2.099999 3.926875
v 2.699999 0.000000 3.926875
v 2.599998 2.099999 0.000000
v 2.699999 0.000000 4.000000
v 2.649994 0.000000 1.950000
v 2.649994 0.000000 2.050000
v 2.649994 2.047499 1.950000
v 2.649994 2.047499 2.050000
v 2.649994 1.023750 1.950000
v 2.649994 1.023750 2.050000
v 2.649994 1.023750 3.926875
v 2.649994 1.023750 0.073125
v 2.649994 1.074937 1.950000
v 2.649994 1.074937 2.050000
v 2.649994 1.074937 3.926875
v 2.649994 1.074937 0.073125
v 0.099997 2.099999 0.000000
v 0.199997 2.099999 0.000000
v 0.099997 0.000000 4.000000
v 0.099997 0.000000 3.926875
v 0.199997 2.099999 3.926875
v 0.099997 2.099999 3.926875
v 0.099997 2.099999 0.073125
v 0.199995 2.045156 0.073125
v 0.199995 2.099999 0.073125
v 0.099997 2.099999 3.926875
v 0.099997 2.099999 0.073125
v 0.099997 2.045156 0.073125
v 0.199995 2.099999 3.926875
v 0.099997 2.045156 3.926875
v 0.199995 2.045156 3.926875
v 0.199997 0.000000 0.000000
v 0.199997 0.000000 0.073125
v 0.199997 0.000000 4.000000
v 0.199997 0.000000 3.926875
v 0.099997 2.099999 4.000000
v 0.199997 2.099999 0.073125
v 0.099997 0.000000 0.073125
v 0.199997 2.099999 4.000000
v 0.099997 0.000000 0.000000
v 0.150002 0.000000 2.050000
v 0.150002 0.000000 1.950000
v 0.150002 2.047499 2.050000
v 0.150002 2.047499 1.950000
v 0.150002 1.023750 2.050000
v 0.150002 1.023750 1.950000
v 0.150002 1.023750 0.073125
v 0.150002 1.023750 3.926875
v 0.150002 1.074937 2.050000
v 0.150002 1.074937 1.950000
v 0.150002 1.074937 0.073125
v 0.150002 1.074937 3.926875
v 1.484924 -0.250000 3.800000
v 1.414215 -0.179289 3.800000
v 1.484924 -0.250000 3.706875
v -0.070709 -1.664213 3.800000
v -0.070709 -1.664213 3.706875
v 1.414215 -0.179289 3.706875
v 0.000000 -1.734924 3.706875
v 0.000000 -1.734924 3.800000
vn -1.0000 -0.0000 -0.0000
vn -0.0000 -0.0000 -1.0000
vn 1.0000 -0.0000 -0.0000
vn -0.0000 -0.0000 1.0000
vn -0.0000 -1.0000 -0.0000
vn -0.0000 1.0000 -0.0000
vn -0.7071 0.7071 -0.0000
vt 1.757812 0.800000
vt 1.757812 1.000000
vt -0.718750 1.000000
vt -0.718750 0.800000
vt 1.265625 0.800000
vt 1.265625 1.000000
vt -0.210938 1.000000
vt -0.210938 0.800000
vt -0.406250 0.800000
vt -0.406250 -0.000000
vt 1.406250 -0.000000
vt 1.406250 0.800000
vt 1.726562 0.875000
vt 1.726562 0.950000
vt -0.765625 0.950000
vt -0.765625 0.875000
vt 1.726562 0.825000
vt -0.765625 0.825000
vt 0.414062 0.925000
vt 0.414062 0.850000
vt -1.078125 0.950000
vt -1.078125 0.900000
vt 2.039062 0.900000
vt 2.039062 0.950000
vt -1.078125 0.875000
vt 2.039062 0.875000
vt 0.843750 0.825000
vt 1.523438 0.825000
vt 1.523438 0.925000
vt 0.843750 0.925000
vt 0.500000 0.925000
vt 0.500000 0.875000
vt 1.679688 0.875000
vt 1.679688 0.925000
vt 0.812500 0.825000
vt 0.812500 0.925000
vt -0.718750 0.925000
vt -0.718750 0.875000
vt 0.445312 0.875000
vt 0.445312 0.925000
vt 0.148438 0.825000
vt 0.148438 0.925000
vt 1.726562 0.850000
vt -0.765625 0.850000
s 0
usemtl Primary
f 1/1/1 2/2/1 4/3/1 3/4/1
f 3/5/2 4/6/2 8/7/2 7/8/2
f 7/3/3 8/4/3 6/1/3 5/2/3
f 5/7/4 6/8/4 2/5/4 1/6/4
f 3/9/5 7/10/5 5/11/5 1/12/5
f 8/9/6 4/10/6 2/11/6 6/12/6
f 14/13/1 28/14/1 11/15/1 12/16/1
f 10/17/2 9/14/2 32/15/2 24/18/2
f 9/19/5 10/19/5 29/20/5 15/20/5
f 31/17/2 28/14/2 11/15/2 26/18/2
f 14/19/5 13/19/5 31/20/5 28/20/5
f 22/21/3 18/22/3 19/23/3 20/24/3
f 23/21/3 21/22/3 17/23/3 16/24/3
f 18/21/6 21/25/6 17/26/6 19/24/6
f 22/21/6 23/25/6 16/26/6 20/24/6
f 13/17/2 14/14/2 12/15/2 27/18/2
f 29/17/2 15/14/2 30/15/2 25/18/2
f 9/13/1 15/14/1 30/15/1 32/16/1
f 10/13/1 29/14/1 25/15/1 24/16/1
f 13/13/1 31/14/1 26/15/1 27/16/1
f 37/27/1 33/28/1 34/29/1 38/30/1
f 42/31/1 38/32/1 39/33/1 43/34/1
f 41/35/1 37/27/1 38/30/1 42/36/1
f 44/37/1 40/38/1 37/39/1 41/40/1
f 35/41/1 41/35/1 42/36/1 36/42/1
f 50/13/3 64/14/3 47/15/3 48/16/3
f 46/17/4 45/14/4 68/15/4 60/18/4
f 45/19/5 46/19/5 65/20/5 51/20/5
f 67/17/4 64/14/4 47/15/4 62/18/4
f 50/19/5 49/19/5 67/20/5 64/20/5
f 58/21/1 54/22/1 55/23/1 56/24/1
f 59/21/1 57/22/1 53/23/1 52/24/1
f 54/21/6 57/25/6 53/26/6 55/24/6
f 58/21/6 59/25/6 52/26/6 56/24/6
f 49/17/4 50/14/4 48/15/4 63/18/4
f 65/17/4 51/14/4 66/15/4 61/18/4
f 45/13/3 51/14/3 66/15/3 68/16/3
f 46/13/3 65/14/3 61/15/3 60/16/3
f 49/13/3 67/14/3 62/15/3 63/16/3
f 73/27/3 69/28/3 70/29/3 74/30/3
f 78/31/3 74/32/3 75/33/3 79/34/3
f 77/35/3 73/27/3 74/30/3 78/36/3
f 80/37/3 76/38/3 73/39/3 77/40/3
f 71/41/3 77/35/3 78/36/3 72/42/3
f 82/43/2 81/14/2 88/15/2 84/44/2
f 86/43/2 83/14/2 87/15/2 85/44/2
f 81/13/7 83/14/7 87/15/7 88/16/7
f 82/13/7 86/14/7 85/15/7 84/16/7
