# Blender 4.2.0
# www.blender.org
mtllib Pallete02.mtl
o Palette02
v 1.000000 1.500000 -1.000000
v 1.000000 0.000000 -1.000000
v 1.000000 1.500000 1.000000
v 1.000000 0.000000 1.000000
v -1.000000 1.500000 -1.000000
v -1.000000 0.000000 -1.000000
v -1.000000 1.500000 1.000000
v -1.000000 0.000000 1.000000
vn -0.0000 1.0000 -0.0000
vn -0.0000 -0.0000 1.0000
vn -1.0000 -0.0000 -0.0000
vn 1.0000 -0.0000 -0.0000
vn -0.0000 -0.0000 -1.0000
vt 1.000000 0.000000
vt 0.500000 0.571429
vt 1.000000 0.571429
vt 0.500000 1.000000
vt 0.000000 1.000000
vt 0.000000 0.571429
vt 0.000000 1.000000
vt 0.500000 0.000000
vt 1.000000 1.000000
vt 0.500000 1.000000
s 0
usemtl Primary
f 5/1/1 3/2/1 1/3/1
f 3/4/2 8/3/2 4/2/2
f 7/5/3 6/2/3 8/6/3
f 1/7/4 4/2/4 2/6/4
f 5/4/5 2/3/5 6/2/5
f 5/1/1 7/8/1 3/2/1
f 3/4/2 7/9/2 8/3/2
f 7/5/3 5/4/3 6/2/3
f 1/7/4 3/10/4 4/2/4
f 5/4/5 1/9/5 2/3/5
