# Blender 4.2.0
# www.blender.org
mtllib MoneyCounter01.mtl
o MoneyCounter01
v -0.194241 0.065292 0.340744
v -0.310381 0.000000 -0.187963
v 0.188772 0.065292 0.340744
v 0.304912 0.000000 -0.187963
v 0.188772 0.077747 0.329022
v -0.282413 0.274725 -0.159965
v 0.276944 0.274725 -0.159965
v -0.194241 0.077747 0.329022
v -0.268429 0.410421 -0.149553
v 0.262960 0.410421 -0.149553
v 0.188772 0.386479 0.229269
v -0.194241 0.386479 0.229269
v -0.126944 0.142952 0.402286
v 0.121475 0.142952 0.402286
v 0.188772 0.149072 0.254798
v -0.194241 0.149072 0.254798
v 0.188772 0.077747 0.232186
v -0.194241 0.077747 0.232186
v -0.194241 0.274725 0.150672
v -0.194241 0.313097 0.177659
v 0.188772 0.313097 0.177659
v -0.194241 0.330709 0.223544
v 0.188772 0.330709 0.223544
v -0.183484 0.495915 0.030427
v -0.254445 0.495915 0.170285
v -0.254445 0.495915 -0.142583
v 0.248976 0.495915 -0.142583
v 0.248976 0.495915 0.170285
v -0.183484 0.479488 0.030427
v -0.183484 0.417392 -0.095688
v 0.204267 0.417392 -0.095688
v 0.204267 0.479488 0.030427
v -0.183484 0.526952 -0.080129
v -0.183484 0.526952 -0.010276
v -0.183484 0.495915 -0.110147
v -0.195780 0.526952 -0.080129
v -0.195780 0.526952 -0.010276
v -0.195780 0.495915 -0.110147
v -0.195780 0.495915 0.030427
v 0.216563 0.526952 -0.080129
v 0.216563 0.526952 -0.010276
v 0.216563 0.495915 0.030427
v 0.216563 0.495915 -0.110147
v 0.204267 0.526952 -0.080129
v 0.204267 0.526952 -0.010276
v 0.204267 0.495915 -0.110147
v 0.204267 0.495915 0.030427
v 0.304912 0.000000 0.303164
v -0.310381 0.000000 0.303164
v 0.188772 0.274725 0.150672
v 0.121475 0.130497 0.414008
v -0.126944 0.130497 0.414008
v 0.188772 0.123471 0.135555
v -0.194241 0.123471 0.135555
v 0.188772 0.181505 0.154280
v -0.194241 0.181506 0.154280
v 0.188772 0.194306 0.213902
v -0.194241 0.194306 0.213902
v 0.188772 0.077747 0.150672
v -0.194241 0.077747 0.150672
v -0.004426 0.117690 0.108627
v 0.004426 0.117690 0.108627
v -0.004426 0.052027 0.167993
v 0.004426 0.052027 0.167993
v -0.004426 0.070608 0.254543
v 0.004426 0.070608 0.254543
v -0.004426 0.154853 0.281726
v 0.004426 0.154853 0.281726
v -0.004426 0.220517 0.222359
v 0.004426 0.220517 0.222359
v -0.004426 0.201935 0.135809
v 0.004426 0.201935 0.135809
v 0.262960 0.410421 0.246107
v 0.276944 0.274725 0.150672
v -0.268429 0.410421 0.246107
v -0.282413 0.274725 0.150672
v 0.188772 0.274725 0.094051
v -0.194241 0.274725 0.094051
v 0.188772 0.313097 0.121038
v -0.194241 0.313097 0.121038
v 0.188772 0.120301 0.295393
v 0.292189 0.120301 0.301842
v -0.194241 0.120301 0.293540
v -0.297792 0.120301 0.303164
vn -0.9869 0.1614 -0.0000
vn -0.0000 0.0813 -0.9967
vn -0.0000 0.6635 0.7482
vn -0.0000 0.7470 -0.6648
vn -0.0000 0.1014 -0.9948
vn -0.9949 0.1012 0.0007
vn -0.0000 0.0765 -0.9971
vn -0.0000 -1.0000 -0.0000
vn -0.0000 -0.6706 -0.7418
vn 0.9944 0.1052 0.0023
vn -0.0000 0.3022 -0.9532
vn -0.0000 -0.0000 -1.0000
vn 0.9869 0.1614 -0.0000
vn -0.0000 -0.9336 0.3583
vn -0.0000 -0.1021 0.9948
vn -0.0000 -0.7470 0.6648
vn -1.0000 -0.0000 -0.0000
vn -0.0000 -0.6854 -0.7282
vn 1.0000 -0.0000 -0.0000
vn 0.9947 0.1025 -0.0000
vn -0.0000 1.0000 -0.0000
vn -0.0000 0.8971 -0.4417
vn -0.0000 0.1811 0.9835
vn -0.0000 0.7952 0.6064
vn -0.0000 0.6952 -0.7188
vn -0.0000 0.6838 0.7297
vn -0.0000 -0.4988 0.8667
vn -0.3249 0.0340 0.9451
vn -0.0000 -0.2763 -0.9611
vn 0.8245 -0.3879 -0.4121
vn -0.8245 -0.3879 -0.4121
vn -0.0000 -0.9777 0.2099
vn -0.0000 -0.3071 0.9517
vn -0.0000 0.6706 0.7418
vn -0.0000 0.9777 -0.2099
vn -0.0000 0.3071 -0.9517
vn -0.0000 -0.5753 0.8180
vn -0.9947 0.1025 -0.0000
vn 0.3305 0.0453 0.9427
vn 0.0663 0.6977 0.7133
vn -0.9946 0.1041 -0.0000
vn -0.9951 0.0991 -0.0000
vn 0.9949 0.1013 -0.0000
vn 0.9952 0.0982 -0.0000
vn -0.0447 0.6966 0.7161
vn 0.0704 0.6496 0.7570
vn -0.0481 0.6354 0.7707
vn -0.0000 0.6791 0.7340
vt 0.546875 0.500000
vt 0.062500 0.416667
vt 0.671875 0.416667
vt 0.906250 0.500000
vt 0.078125 0.416667
vt 0.921875 0.416667
vt 1.000000 1.000000
vt 0.000000 0.875000
vt 1.000000 0.875000
vt 0.187500 0.531250
vt 0.609375 0.656250
vt 0.390625 0.656250
vt 1.046875 0.000000
vt -0.000000 0.270833
vt -0.046875 0.000000
vt 0.742124 0.401533
vt -0.000000 0.281250
vt 0.000000 0.500000
vt 1.000000 0.270833
vt 0.562500 0.135417
vt 0.000000 0.510417
vt 0.000000 0.135417
vt 0.109375 0.729167
vt 0.890625 0.625000
vt 0.109375 0.625000
vt 0.739890 0.400491
vt 0.953125 0.500000
vt 0.890625 0.729167
vt 0.647266 0.599076
vt 0.852734 0.599076
vt -0.000000 0.416667
vt 0.484375 0.500000
vt 0.609375 0.416667
vt 0.890625 0.833333
vt 0.109375 0.791667
vt 0.109375 0.833333
vt 0.890625 0.781250
vt 0.109375 0.864583
vt 0.109375 0.781250
vt 0.109375 0.906250
vt 0.031250 1.000000
vt 0.031250 0.833333
vt 0.750000 0.552083
vt 0.234375 0.572917
vt 0.234375 0.552083
vt 0.484375 0.281250
vt 0.859375 0.312500
vt 1.000000 0.135417
vt 1.000000 0.500000
vt 0.859375 0.177083
vt 0.078125 0.312500
vt 0.078125 0.177083
vt 0.828125 0.885417
vt 0.171875 0.718750
vt 0.171875 0.885417
vt 0.296875 0.916667
vt 0.156250 0.885417
vt 0.296875 0.854167
vt 0.703125 0.916667
vt 0.843750 0.885417
vt 0.843750 0.895833
vt 0.703125 0.854167
vt 0.890625 0.885417
vt 0.953125 1.000000
vt 0.890625 0.968750
vt 1.000000 0.958333
vt 0.984375 0.885417
vt 1.000000 0.885417
vt 0.953125 0.833333
vt 1.000000 0.833333
vt 0.984375 1.000000
vt 0.984375 0.958333
vt 0.968750 0.885417
vt 0.984375 0.833333
vt 0.968750 1.000000
vt 0.937500 0.614583
vt 1.000000 0.739583
vt 0.937500 0.739583
vt 0.296875 0.572917
vt 0.812500 0.510417
vt 0.703125 0.572917
vt 0.078125 0.572917
vt 0.000000 0.614583
vt 0.875000 0.666667
vt 0.125000 0.822917
vt 0.125000 0.666667
vt 0.063377 0.333918
vt 0.000000 0.291667
vt 0.343750 0.468750
vt 0.750000 0.572917
vt 1.000000 0.552083
vt 1.000000 0.572917
vt 0.000000 0.552083
vt 0.875000 0.541667
vt 0.125000 0.541667
vt 0.833333 0.500000
vt 0.833333 1.000000
vt 0.666667 0.500000
vt 0.666667 1.000000
vt 0.500000 0.500000
vt 0.500000 1.000000
vt 0.333333 0.500000
vt 0.328125 0.864583
vt 0.250000 0.770833
vt 0.406250 0.770833
vt 0.333333 1.000000
vt 0.166667 0.500000
vt 0.166667 1.000000
vt -0.000000 0.500000
vt 0.406250 0.833333
vt 0.250000 0.833333
vt 0.328125 0.739583
vt 0.890625 0.875000
vt 0.890625 0.739583
vt 1.000000 0.895833
vt 0.000000 0.895833
vt 0.265625 0.468750
vt 0.312500 0.510417
vt 0.234375 0.500000
vt 0.250000 0.291667
vt 0.125000 0.854167
vt 0.875000 0.822917
vt 0.531250 0.281250
vt 0.046875 0.281250
vt 0.000000 0.739583
vt 0.109375 0.875000
vt 0.000000 0.906250
vt 0.890625 0.843750
vt 0.109375 0.802083
vt 0.890625 0.802083
vt 1.000000 0.614583
vt 0.937500 0.572917
vt 1.000000 0.510417
vt 0.078125 0.614583
vt 0.062500 0.500000
vt 0.093750 0.500000
vt 0.000000 1.000000
vt 0.812500 0.531250
vt 0.562500 0.510417
vt 0.890625 0.791667
vt 0.890625 0.864583
vt 0.828125 0.718750
vt 0.156250 0.895833
vt 0.968750 0.958333
vt 0.968750 0.833333
vt 0.187500 0.510417
vt 0.000000 0.572917
vt -0.000000 1.000000
vt 1.000000 0.906250
vt 0.875000 0.854167
vt 0.109375 0.739583
vt 0.109375 0.843750
vt 0.078125 0.739583
s 0
usemtl Primary
f 25/1/1 9/2/1 75/3/1
f 26/4/2 10/5/2 9/6/2
f 28/7/3 75/8/3 73/9/3
f 3/10/4 52/11/4 51/12/4
f 2/13/5 7/14/5 4/15/5
f 84/16/6 6/17/6 2/18/6
f 6/19/7 10/5/7 7/14/7
f 4/20/8 49/21/8 2/22/8
f 58/23/9 15/24/9 16/25/9
f 7/17/10 82/26/10 48/27/10
f 18/23/11 15/24/11 17/28/11
f 47/29/12 29/30/12 24/30/12
f 10/31/13 28/32/13 73/33/13
f 21/34/14 22/35/14 20/36/14
f 23/37/15 12/38/15 22/39/15
f 13/11/16 5/10/16 14/12/16
f 22/40/17 12/41/17 20/42/17
f 52/43/18 14/44/18 51/45/18
f 23/40/19 21/42/19 11/41/19
f 74/46/20 10/31/20 73/33/20
f 24/47/21 26/48/21 25/49/21
f 35/50/21 27/22/21 26/48/21
f 24/47/21 28/18/21 47/51/21
f 47/51/21 27/22/21 46/52/21
f 30/53/22 32/54/22 31/55/22
f 35/56/19 29/57/19 30/58/19
f 46/59/17 32/60/17 47/61/17
f 35/56/23 31/62/23 46/59/23
f 34/63/19 35/64/19 33/65/19
f 33/66/21 37/67/21 34/68/21
f 37/63/17 38/64/17 39/69/17
f 37/67/24 24/70/24 34/68/24
f 38/71/25 33/66/25 35/7/25
f 41/63/19 43/64/19 40/65/19
f 40/72/21 45/73/21 41/67/21
f 45/63/17 46/64/17 47/69/17
f 45/73/24 42/74/24 41/67/24
f 46/75/25 40/72/25 43/71/25
f 81/76/26 74/77/26 50/78/26
f 1/79/27 48/80/27 3/81/27
f 1/82/28 84/83/28 49/21/28
f 60/84/29 77/85/29 59/86/29
f 81/87/19 5/88/19 77/89/19
f 13/90/30 1/91/30 8/92/30
f 14/44/31 3/93/31 51/45/31
f 8/94/8 59/86/8 5/95/8
f 62/7/9 63/96/9 61/49/9
f 64/97/32 65/98/32 63/96/32
f 66/99/33 67/100/33 65/98/33
f 68/101/34 69/102/34 67/100/34
f 62/103/19 70/104/19 66/105/19
f 70/106/35 71/107/35 69/102/35
f 72/108/36 61/109/36 71/107/36
f 63/110/17 67/111/17 71/112/17
f 74/77/37 11/113/37 50/114/37
f 12/38/37 73/115/37 75/116/37
f 19/117/19 80/118/19 20/119/19
f 60/120/17 19/117/17 78/89/17
f 57/28/32 56/25/32 55/24/32
f 54/23/33 55/24/33 56/25/33
f 50/117/17 79/118/17 77/89/17
f 79/121/37 78/122/37 77/85/37
f 76/123/38 9/2/38 6/124/38
f 76/125/37 12/126/37 75/127/37
f 21/128/8 80/129/8 79/130/8
f 82/131/39 3/132/39 48/133/39
f 83/134/40 76/125/40 84/83/40
f 25/1/1 26/135/1 9/2/1
f 26/4/2 27/136/2 10/5/2
f 28/7/3 25/137/3 75/8/3
f 3/10/4 1/138/4 52/11/4
f 2/13/5 6/19/5 7/14/5
f 2/18/41 49/27/41 84/16/41
f 84/16/42 76/46/42 6/17/42
f 6/19/7 9/6/7 10/5/7
f 4/20/8 48/139/8 49/21/8
f 58/23/9 57/28/9 15/24/9
f 48/27/43 4/18/43 7/17/43
f 7/17/44 74/46/44 82/26/44
f 18/23/11 16/25/11 15/24/11
f 47/29/12 32/29/12 29/30/12
f 10/31/13 27/18/13 28/32/13
f 21/34/14 23/140/14 22/35/14
f 23/37/15 11/141/15 12/38/15
f 13/11/16 8/138/16 5/10/16
f 52/43/18 13/90/18 14/44/18
f 74/46/20 7/17/20 10/31/20
f 24/47/21 35/50/21 26/48/21
f 35/50/21 46/52/21 27/22/21
f 24/47/21 25/49/21 28/18/21
f 47/51/21 28/18/21 27/22/21
f 30/53/22 29/142/22 32/54/22
f 35/56/19 24/143/19 29/57/19
f 46/59/17 31/62/17 32/60/17
f 35/56/23 30/58/23 31/62/23
f 34/63/19 24/69/19 35/64/19
f 33/66/21 36/72/21 37/67/21
f 37/63/17 36/65/17 38/64/17
f 37/67/24 39/74/24 24/70/24
f 38/71/25 36/72/25 33/66/25
f 41/63/19 42/69/19 43/64/19
f 40/72/21 44/144/21 45/73/21
f 45/63/17 44/65/17 46/64/17
f 45/73/24 47/145/24 42/74/24
f 46/75/25 44/144/25 40/72/25
f 81/76/45 82/131/45 74/77/45
f 1/79/27 49/146/27 48/80/27
f 1/82/46 83/134/46 84/83/46
f 60/84/29 78/122/29 77/85/29
f 77/89/19 50/117/19 81/87/19
f 81/87/19 3/88/19 5/88/19
f 5/88/19 59/120/19 77/89/19
f 13/90/30 52/43/30 1/91/30
f 14/44/31 5/147/31 3/93/31
f 8/94/8 60/84/8 59/86/8
f 62/7/9 64/97/9 63/96/9
f 64/97/32 66/99/32 65/98/32
f 66/99/33 68/101/33 67/100/33
f 68/101/34 70/106/34 69/102/34
f 66/105/19 64/110/19 62/103/19
f 62/103/19 72/111/19 70/104/19
f 70/104/19 68/112/19 66/105/19
f 70/106/35 72/108/35 71/107/35
f 72/108/36 62/148/36 61/109/36
f 71/112/17 61/105/17 63/110/17
f 63/110/17 65/103/17 67/111/17
f 67/111/17 69/104/17 71/112/17
f 74/77/37 73/149/37 11/113/37
f 12/38/37 11/141/37 73/115/37
f 19/117/19 78/89/19 80/118/19
f 60/120/17 8/88/17 19/117/17
f 57/28/32 58/23/32 56/25/32
f 54/23/33 53/28/33 55/24/33
f 50/117/17 21/119/17 79/118/17
f 79/121/37 80/150/37 78/122/37
f 76/123/38 75/3/38 9/2/38
f 76/125/37 19/151/37 12/126/37
f 21/128/8 20/152/8 80/129/8
f 82/131/47 81/76/47 3/132/47
f 83/134/48 19/153/48 76/125/48
