# Blender 4.2.0
# www.blender.org
mtllib PaymentCard01c.mtl
o PaymentCard01c
v 0.125000 -0.000625 -0.062500
v 0.125000 0.000625 -0.062500
v 0.125000 -0.000625 0.062500
v 0.125000 0.000625 0.062500
v -0.125000 -0.000625 -0.062500
v -0.125000 0.000625 -0.062500
v -0.125000 -0.000625 0.062500
v -0.125000 0.000625 0.062500
vn 1.0000 -0.0000 -0.0000
vn -0.0000 -0.0000 1.0000
vn -1.0000 -0.0000 -0.0000
vn -0.0000 -0.0000 -1.0000
vn -0.0000 -1.0000 -0.0000
vn -0.0000 1.0000 -0.0000
vt 0.484375 0.500000
vt 0.484375 0.250000
vt 0.500000 0.265625
vt -0.000000 0.265625
vt 0.500000 0.000000
vt -0.000000 0.250000
vt -0.000000 0.000000
vt 0.500000 0.250000
vt -0.000000 0.500000
vt 0.500000 0.500000
s 0
usemtl Primary
f 2/1/1 3/2/1 1/1/1
f 4/3/2 7/4/2 3/3/2
f 8/2/3 5/1/3 7/2/3
f 6/4/4 1/3/4 5/4/4
f 7/5/5 1/6/5 3/7/5
f 4/8/6 6/9/6 8/6/6
f 2/1/1 4/2/1 3/2/1
f 4/3/2 8/4/2 7/4/2
f 8/2/3 6/1/3 5/1/3
f 6/4/4 2/3/4 1/3/4
f 7/5/5 5/8/5 1/6/5
f 4/8/6 2/10/6 6/9/6
